M48
;DRILL file {KiCad 4.0.7-e2-6376~61~ubuntu18.04.1} date Mon Jan  6 20:04:35 2020
;FORMAT={-:-/ absolute / inch / decimal}
FMAT,2
INCH,TZ
T1C0.010
T2C0.018
T3C0.031
T4C0.039
T5C0.040
T6C0.043
T7C0.065
T8C0.035
T9C0.043
T10C0.126
%
G90
G05
M72
T1
X1.27Y-0.19
X1.3Y-0.205
X1.36Y-0.795
X1.395Y-0.795
X1.91Y-0.54
X1.91Y-0.62
X2.03Y-0.5
X2.03Y-0.58
X2.03Y-0.66
X2.67Y-0.22
X2.68Y-0.17
X2.69Y-0.25
X2.7Y-0.14
X2.7Y-0.31
X2.82Y-0.34
T2
X1.34Y-0.18
X1.55Y-0.405
X1.55Y-0.8
X1.75Y-0.8
X1.86Y-0.39
X1.95Y-0.8
X2.14Y-0.8
X2.34Y-0.8
X2.39Y-0.72
T3
X0.3977Y-0.732
X0.3977Y-0.988
X0.5552Y-0.732
X0.5552Y-0.988
X2.5747Y-0.732
X2.5747Y-0.988
X2.7322Y-0.732
X2.7322Y-0.988
T4
X0.7816Y-1.2439
X0.88Y-1.2439
X0.9784Y-1.2439
X1.2639Y-0.7616
X1.2639Y-0.86
X1.2639Y-0.9584
X2.9586Y-1.2439
X3.057Y-1.2439
X3.1554Y-1.2439
X3.4409Y-0.7616
X3.4409Y-0.86
X3.4409Y-0.9584
T5
X1.7185Y-0.15
X1.7185Y-0.25
X1.8185Y-0.15
X1.8185Y-0.25
X1.9185Y-0.15
X1.9185Y-0.25
X2.0185Y-0.15
X2.0185Y-0.25
X2.1185Y-0.15
X2.1185Y-0.25
X2.2185Y-0.15
X2.2185Y-0.25
T6
X0.752Y-0.0914
X0.752Y-0.2686
X1.008Y-0.0914
X1.008Y-0.2686
X2.9291Y-0.0914
X2.9291Y-0.2686
X3.185Y-0.0914
X3.185Y-0.2686
T7
X0.6182Y-0.5549
X0.6182Y-1.1651
X1.1418Y-0.5549
X1.1418Y-1.1651
X2.7952Y-0.5549
X2.7952Y-1.1651
X3.3188Y-0.5549
X3.3188Y-1.1651
T8
X1.5748Y-0.9843
X1.7717Y-0.9843
X1.9685Y-0.9843
X2.1654Y-0.9843
X2.3622Y-0.9843
T9
X1.5748Y-1.1417
X1.7717Y-1.1417
X1.9685Y-1.1417
X2.1654Y-1.1417
X2.3622Y-1.1417
T10
X0.3937Y-2.126
X0.5906Y-1.4961
X3.3465Y-1.4961
X3.5433Y-2.126
T0
M30
