G04 #@! TF.FileFunction,Soldermask,Top*
%FSLAX46Y46*%
G04 Gerber Fmt 4.6, Leading zero omitted, Abs format (unit mm)*
G04 Created by KiCad (PCBNEW 4.0.7-e2-6376~61~ubuntu18.04.1) date Mon Jan  6 20:04:38 2020*
%MOMM*%
%LPD*%
G01*
G04 APERTURE LIST*
%ADD10C,0.100000*%
%ADD11R,1.650000X1.400000*%
%ADD12C,2.000000*%
%ADD13C,3.600000*%
%ADD14R,2.127200X2.127200*%
%ADD15O,2.127200X2.127200*%
%ADD16C,2.127200*%
%ADD17C,2.400000*%
%ADD18R,1.400000X1.650000*%
%ADD19R,1.900000X1.700000*%
%ADD20R,1.700000X1.900000*%
%ADD21R,1.850000X0.850000*%
%ADD22R,0.700000X1.800000*%
%ADD23R,1.300000X2.000000*%
%ADD24R,1.500000X1.500000*%
%ADD25C,1.300000*%
%ADD26C,1.500000*%
%ADD27C,1.800000*%
%ADD28C,2.900000*%
G04 APERTURE END LIST*
D10*
D11*
X36576000Y-6080000D03*
X36576000Y-4080000D03*
D12*
X63881000Y-1524000D03*
X36576000Y-1524000D03*
X88500000Y-62000000D03*
X11500000Y-62000000D03*
D13*
X85000000Y-38000000D03*
X90000000Y-54000000D03*
X15000000Y-38000000D03*
D14*
X43650000Y-6350000D03*
D15*
X43650000Y-3810000D03*
X46190000Y-6350000D03*
X46190000Y-3810000D03*
X48730000Y-6350000D03*
D16*
X48730000Y-3810000D02*
X48730000Y-3810000D01*
D15*
X51270000Y-6350000D03*
X51270000Y-3810000D03*
X53810000Y-6350000D03*
X53810000Y-3810000D03*
D16*
X56350000Y-6350000D02*
X56350000Y-6350000D01*
X56350000Y-3810000D02*
X56350000Y-3810000D01*
D17*
X80898000Y-2322000D03*
X80898000Y-6822000D03*
X74398000Y-2322000D03*
X74398000Y-6822000D03*
X19102000Y-6822000D03*
X19102000Y-2322000D03*
X25602000Y-6822000D03*
X25602000Y-2322000D03*
D11*
X30480000Y-6080000D03*
X30480000Y-4080000D03*
D18*
X66056000Y-2032000D03*
X68056000Y-2032000D03*
D19*
X47070000Y-11684000D03*
X44370000Y-11684000D03*
X53006000Y-16764000D03*
X55706000Y-16764000D03*
X47070000Y-15748000D03*
X44370000Y-15748000D03*
X53006000Y-14732000D03*
X55706000Y-14732000D03*
X47070000Y-13716000D03*
X44370000Y-13716000D03*
X53006000Y-12700000D03*
X55706000Y-12700000D03*
X41990000Y-11684000D03*
X39290000Y-11684000D03*
X58086000Y-16764000D03*
X60786000Y-16764000D03*
X41990000Y-15748000D03*
X39290000Y-15748000D03*
X58086000Y-14732000D03*
X60786000Y-14732000D03*
X41990000Y-13716000D03*
X39290000Y-13716000D03*
X58086000Y-12700000D03*
X60786000Y-12700000D03*
D20*
X16256000Y-5922000D03*
X16256000Y-3222000D03*
X83820000Y-3222000D03*
X83820000Y-5922000D03*
D21*
X64106000Y-3679000D03*
X64106000Y-4329000D03*
X64106000Y-4979000D03*
X64106000Y-5629000D03*
X64106000Y-6279000D03*
X64106000Y-6929000D03*
X64106000Y-7579000D03*
X64106000Y-8229000D03*
X64106000Y-8879000D03*
X64106000Y-9529000D03*
X70006000Y-9529000D03*
X70006000Y-8879000D03*
X70006000Y-8229000D03*
X70006000Y-7579000D03*
X70006000Y-6929000D03*
X70006000Y-6279000D03*
X70006000Y-5629000D03*
X70006000Y-4979000D03*
X70006000Y-4329000D03*
X70006000Y-3679000D03*
D22*
X34528000Y-2880000D03*
X34028000Y-2880000D03*
X33528000Y-2880000D03*
X33028000Y-2880000D03*
X32528000Y-2880000D03*
X32528000Y-7280000D03*
X33028000Y-7280000D03*
X33528000Y-7280000D03*
X34028000Y-7280000D03*
X34528000Y-7280000D03*
D23*
X59400000Y-21900000D03*
X60600000Y-21900000D03*
X59400000Y-36100000D03*
X60600000Y-36100000D03*
D24*
X58050000Y-25000000D03*
X58050000Y-33000000D03*
D25*
X60000000Y-25000000D03*
D26*
X60000000Y-29000000D03*
D23*
X54400000Y-21900000D03*
X55600000Y-21900000D03*
X54400000Y-36100000D03*
X55600000Y-36100000D03*
D24*
X53050000Y-25000000D03*
X53050000Y-33000000D03*
D25*
X55000000Y-25000000D03*
D26*
X55000000Y-29000000D03*
D23*
X49400000Y-21900000D03*
X50600000Y-21900000D03*
X49400000Y-36100000D03*
X50600000Y-36100000D03*
D24*
X48050000Y-25000000D03*
X48050000Y-33000000D03*
D25*
X50000000Y-25000000D03*
D26*
X50000000Y-29000000D03*
D23*
X44400000Y-21900000D03*
X45600000Y-21900000D03*
X44400000Y-36100000D03*
X45600000Y-36100000D03*
D24*
X43050000Y-25000000D03*
X43050000Y-33000000D03*
D25*
X45000000Y-25000000D03*
D26*
X45000000Y-29000000D03*
D23*
X39400000Y-21900000D03*
X40600000Y-21900000D03*
X39400000Y-36100000D03*
X40600000Y-36100000D03*
D24*
X38050000Y-25000000D03*
X38050000Y-33000000D03*
D25*
X40000000Y-25000000D03*
D26*
X40000000Y-29000000D03*
D12*
X19852000Y-31594000D03*
X22352000Y-31594000D03*
X24852000Y-31594000D03*
X32102000Y-24344000D03*
X32102000Y-21844000D03*
X32102000Y-19344000D03*
D27*
X10102000Y-18594000D03*
X14102000Y-18594000D03*
X10102000Y-25094000D03*
X14102000Y-25094000D03*
D28*
X15702000Y-29594000D03*
X15702000Y-14094000D03*
X29002000Y-14094000D03*
X29002000Y-29594000D03*
D12*
X75148000Y-31594000D03*
X77648000Y-31594000D03*
X80148000Y-31594000D03*
X87398000Y-24344000D03*
X87398000Y-21844000D03*
X87398000Y-19344000D03*
D27*
X65398000Y-18594000D03*
X69398000Y-18594000D03*
X65398000Y-25094000D03*
X69398000Y-25094000D03*
D28*
X70998000Y-29594000D03*
X70998000Y-14094000D03*
X84298000Y-14094000D03*
X84298000Y-29594000D03*
D12*
X11500000Y-4500000D03*
D13*
X10000000Y-54000000D03*
M02*
