G04 #@! TF.FileFunction,Legend,Top*
%FSLAX46Y46*%
G04 Gerber Fmt 4.6, Leading zero omitted, Abs format (unit mm)*
G04 Created by KiCad (PCBNEW 4.0.7-e2-6376~61~ubuntu18.04.1) date Mon Jan  6 20:04:38 2020*
%MOMM*%
%LPD*%
G01*
G04 APERTURE LIST*
%ADD10C,0.100000*%
%ADD11C,0.190500*%
%ADD12C,0.120000*%
%ADD13C,0.150000*%
%ADD14C,0.152400*%
G04 APERTURE END LIST*
D10*
D11*
X76269143Y-9234714D02*
X76269143Y-8472714D01*
X76523143Y-9017000D01*
X76777143Y-8472714D01*
X76777143Y-9234714D01*
X77285142Y-8472714D02*
X77430285Y-8472714D01*
X77502857Y-8509000D01*
X77575428Y-8581571D01*
X77611714Y-8726714D01*
X77611714Y-8980714D01*
X77575428Y-9125857D01*
X77502857Y-9198429D01*
X77430285Y-9234714D01*
X77285142Y-9234714D01*
X77212571Y-9198429D01*
X77140000Y-9125857D01*
X77103714Y-8980714D01*
X77103714Y-8726714D01*
X77140000Y-8581571D01*
X77212571Y-8509000D01*
X77285142Y-8472714D01*
X77938286Y-9234714D02*
X77938286Y-8472714D01*
X78119714Y-8472714D01*
X78228571Y-8509000D01*
X78301143Y-8581571D01*
X78337428Y-8654143D01*
X78373714Y-8799286D01*
X78373714Y-8908143D01*
X78337428Y-9053286D01*
X78301143Y-9125857D01*
X78228571Y-9198429D01*
X78119714Y-9234714D01*
X77938286Y-9234714D01*
X78700286Y-8835571D02*
X78954286Y-8835571D01*
X79063143Y-9234714D02*
X78700286Y-9234714D01*
X78700286Y-8472714D01*
X79063143Y-8472714D01*
X20955000Y-9234714D02*
X20955000Y-8472714D01*
X20955000Y-8835571D02*
X21390428Y-8835571D01*
X21390428Y-9234714D02*
X21390428Y-8472714D01*
X21898428Y-8472714D02*
X22043571Y-8472714D01*
X22116143Y-8509000D01*
X22188714Y-8581571D01*
X22225000Y-8726714D01*
X22225000Y-8980714D01*
X22188714Y-9125857D01*
X22116143Y-9198429D01*
X22043571Y-9234714D01*
X21898428Y-9234714D01*
X21825857Y-9198429D01*
X21753286Y-9125857D01*
X21717000Y-8980714D01*
X21717000Y-8726714D01*
X21753286Y-8581571D01*
X21825857Y-8509000D01*
X21898428Y-8472714D01*
X22551572Y-9234714D02*
X22551572Y-8472714D01*
X22805572Y-9017000D01*
X23059572Y-8472714D01*
X23059572Y-9234714D01*
X23422429Y-8835571D02*
X23676429Y-8835571D01*
X23785286Y-9234714D02*
X23422429Y-9234714D01*
X23422429Y-8472714D01*
X23785286Y-8472714D01*
X19521714Y-13516429D02*
X19630571Y-13552714D01*
X19812000Y-13552714D01*
X19884571Y-13516429D01*
X19920857Y-13480143D01*
X19957142Y-13407571D01*
X19957142Y-13335000D01*
X19920857Y-13262429D01*
X19884571Y-13226143D01*
X19812000Y-13189857D01*
X19666857Y-13153571D01*
X19594285Y-13117286D01*
X19558000Y-13081000D01*
X19521714Y-13008429D01*
X19521714Y-12935857D01*
X19558000Y-12863286D01*
X19594285Y-12827000D01*
X19666857Y-12790714D01*
X19848285Y-12790714D01*
X19957142Y-12827000D01*
X20283714Y-13552714D02*
X20283714Y-12790714D01*
X20283714Y-13153571D02*
X20719142Y-13153571D01*
X20719142Y-13552714D02*
X20719142Y-12790714D01*
X21227142Y-12790714D02*
X21372285Y-12790714D01*
X21444857Y-12827000D01*
X21517428Y-12899571D01*
X21553714Y-13044714D01*
X21553714Y-13298714D01*
X21517428Y-13443857D01*
X21444857Y-13516429D01*
X21372285Y-13552714D01*
X21227142Y-13552714D01*
X21154571Y-13516429D01*
X21082000Y-13443857D01*
X21045714Y-13298714D01*
X21045714Y-13044714D01*
X21082000Y-12899571D01*
X21154571Y-12827000D01*
X21227142Y-12790714D01*
X21880286Y-12790714D02*
X21880286Y-13407571D01*
X21916571Y-13480143D01*
X21952857Y-13516429D01*
X22025428Y-13552714D01*
X22170571Y-13552714D01*
X22243143Y-13516429D01*
X22279428Y-13480143D01*
X22315714Y-13407571D01*
X22315714Y-12790714D01*
X23041429Y-13552714D02*
X22678572Y-13552714D01*
X22678572Y-12790714D01*
X23295429Y-13552714D02*
X23295429Y-12790714D01*
X23476857Y-12790714D01*
X23585714Y-12827000D01*
X23658286Y-12899571D01*
X23694571Y-12972143D01*
X23730857Y-13117286D01*
X23730857Y-13226143D01*
X23694571Y-13371286D01*
X23658286Y-13443857D01*
X23585714Y-13516429D01*
X23476857Y-13552714D01*
X23295429Y-13552714D01*
X24057429Y-13153571D02*
X24311429Y-13153571D01*
X24420286Y-13552714D02*
X24057429Y-13552714D01*
X24057429Y-12790714D01*
X24420286Y-12790714D01*
X25182286Y-13552714D02*
X24928286Y-13189857D01*
X24746858Y-13552714D02*
X24746858Y-12790714D01*
X25037143Y-12790714D01*
X25109715Y-12827000D01*
X25146000Y-12863286D01*
X25182286Y-12935857D01*
X25182286Y-13044714D01*
X25146000Y-13117286D01*
X25109715Y-13153571D01*
X25037143Y-13189857D01*
X24746858Y-13189857D01*
X73910572Y-13153571D02*
X74164572Y-13153571D01*
X74273429Y-13552714D02*
X73910572Y-13552714D01*
X73910572Y-12790714D01*
X74273429Y-12790714D01*
X74962858Y-13552714D02*
X74600001Y-13552714D01*
X74600001Y-12790714D01*
X75470858Y-13153571D02*
X75579715Y-13189857D01*
X75616000Y-13226143D01*
X75652286Y-13298714D01*
X75652286Y-13407571D01*
X75616000Y-13480143D01*
X75579715Y-13516429D01*
X75507143Y-13552714D01*
X75216858Y-13552714D01*
X75216858Y-12790714D01*
X75470858Y-12790714D01*
X75543429Y-12827000D01*
X75579715Y-12863286D01*
X75616000Y-12935857D01*
X75616000Y-13008429D01*
X75579715Y-13081000D01*
X75543429Y-13117286D01*
X75470858Y-13153571D01*
X75216858Y-13153571D01*
X76124000Y-12790714D02*
X76269143Y-12790714D01*
X76341715Y-12827000D01*
X76414286Y-12899571D01*
X76450572Y-13044714D01*
X76450572Y-13298714D01*
X76414286Y-13443857D01*
X76341715Y-13516429D01*
X76269143Y-13552714D01*
X76124000Y-13552714D01*
X76051429Y-13516429D01*
X75978858Y-13443857D01*
X75942572Y-13298714D01*
X75942572Y-13044714D01*
X75978858Y-12899571D01*
X76051429Y-12827000D01*
X76124000Y-12790714D01*
X76704572Y-12790714D02*
X76886001Y-13552714D01*
X77031144Y-13008429D01*
X77176286Y-13552714D01*
X77357715Y-12790714D01*
X78192286Y-12754429D02*
X77539143Y-13734143D01*
X78373715Y-12790714D02*
X78555144Y-13552714D01*
X78700287Y-13008429D01*
X78845429Y-13552714D01*
X79026858Y-12790714D01*
X79752572Y-13552714D02*
X79498572Y-13189857D01*
X79317144Y-13552714D02*
X79317144Y-12790714D01*
X79607429Y-12790714D01*
X79680001Y-12827000D01*
X79716286Y-12863286D01*
X79752572Y-12935857D01*
X79752572Y-13044714D01*
X79716286Y-13117286D01*
X79680001Y-13153571D01*
X79607429Y-13189857D01*
X79317144Y-13189857D01*
X80079144Y-13552714D02*
X80079144Y-12790714D01*
X80405715Y-13516429D02*
X80514572Y-13552714D01*
X80696001Y-13552714D01*
X80768572Y-13516429D01*
X80804858Y-13480143D01*
X80841143Y-13407571D01*
X80841143Y-13335000D01*
X80804858Y-13262429D01*
X80768572Y-13226143D01*
X80696001Y-13189857D01*
X80550858Y-13153571D01*
X80478286Y-13117286D01*
X80442001Y-13081000D01*
X80405715Y-13008429D01*
X80405715Y-12935857D01*
X80442001Y-12863286D01*
X80478286Y-12827000D01*
X80550858Y-12790714D01*
X80732286Y-12790714D01*
X80841143Y-12827000D01*
X81058857Y-12790714D02*
X81494286Y-12790714D01*
X81276572Y-13552714D02*
X81276572Y-12790714D01*
X58167571Y-18886714D02*
X58603000Y-18886714D01*
X58385286Y-19648714D02*
X58385286Y-18886714D01*
X58857000Y-19648714D02*
X58857000Y-18886714D01*
X58857000Y-19249571D02*
X59292428Y-19249571D01*
X59292428Y-19648714D02*
X59292428Y-18886714D01*
X59655286Y-18886714D02*
X59655286Y-19503571D01*
X59691571Y-19576143D01*
X59727857Y-19612429D01*
X59800428Y-19648714D01*
X59945571Y-19648714D01*
X60018143Y-19612429D01*
X60054428Y-19576143D01*
X60090714Y-19503571D01*
X60090714Y-18886714D01*
X60453572Y-19648714D02*
X60453572Y-18886714D01*
X60707572Y-19431000D01*
X60961572Y-18886714D01*
X60961572Y-19648714D01*
X61578429Y-19249571D02*
X61687286Y-19285857D01*
X61723571Y-19322143D01*
X61759857Y-19394714D01*
X61759857Y-19503571D01*
X61723571Y-19576143D01*
X61687286Y-19612429D01*
X61614714Y-19648714D01*
X61324429Y-19648714D01*
X61324429Y-18886714D01*
X61578429Y-18886714D01*
X61651000Y-18923000D01*
X61687286Y-18959286D01*
X61723571Y-19031857D01*
X61723571Y-19104429D01*
X61687286Y-19177000D01*
X61651000Y-19213286D01*
X61578429Y-19249571D01*
X61324429Y-19249571D01*
X53512286Y-19648714D02*
X53512286Y-18886714D01*
X53875143Y-19648714D02*
X53875143Y-18886714D01*
X54310571Y-19648714D01*
X54310571Y-18886714D01*
X54673429Y-19648714D02*
X54673429Y-18886714D01*
X54854857Y-18886714D01*
X54963714Y-18923000D01*
X55036286Y-18995571D01*
X55072571Y-19068143D01*
X55108857Y-19213286D01*
X55108857Y-19322143D01*
X55072571Y-19467286D01*
X55036286Y-19539857D01*
X54963714Y-19612429D01*
X54854857Y-19648714D01*
X54673429Y-19648714D01*
X55435429Y-19249571D02*
X55689429Y-19249571D01*
X55798286Y-19648714D02*
X55435429Y-19648714D01*
X55435429Y-18886714D01*
X55798286Y-18886714D01*
X56052286Y-18886714D02*
X56560286Y-19648714D01*
X56560286Y-18886714D02*
X56052286Y-19648714D01*
X48149429Y-19648714D02*
X48149429Y-18886714D01*
X48403429Y-19431000D01*
X48657429Y-18886714D01*
X48657429Y-19648714D01*
X49020286Y-19648714D02*
X49020286Y-18886714D01*
X49383143Y-19648714D02*
X49383143Y-18886714D01*
X49564571Y-18886714D01*
X49673428Y-18923000D01*
X49746000Y-18995571D01*
X49782285Y-19068143D01*
X49818571Y-19213286D01*
X49818571Y-19322143D01*
X49782285Y-19467286D01*
X49746000Y-19539857D01*
X49673428Y-19612429D01*
X49564571Y-19648714D01*
X49383143Y-19648714D01*
X50145143Y-19648714D02*
X50145143Y-18886714D01*
X50326571Y-18886714D01*
X50435428Y-18923000D01*
X50508000Y-18995571D01*
X50544285Y-19068143D01*
X50580571Y-19213286D01*
X50580571Y-19322143D01*
X50544285Y-19467286D01*
X50508000Y-19539857D01*
X50435428Y-19612429D01*
X50326571Y-19648714D01*
X50145143Y-19648714D01*
X51270000Y-19648714D02*
X50907143Y-19648714D01*
X50907143Y-18886714D01*
X51524000Y-19249571D02*
X51778000Y-19249571D01*
X51886857Y-19648714D02*
X51524000Y-19648714D01*
X51524000Y-18886714D01*
X51886857Y-18886714D01*
X44274286Y-19648714D02*
X44020286Y-19285857D01*
X43838858Y-19648714D02*
X43838858Y-18886714D01*
X44129143Y-18886714D01*
X44201715Y-18923000D01*
X44238000Y-18959286D01*
X44274286Y-19031857D01*
X44274286Y-19140714D01*
X44238000Y-19213286D01*
X44201715Y-19249571D01*
X44129143Y-19285857D01*
X43838858Y-19285857D01*
X44600858Y-19648714D02*
X44600858Y-18886714D01*
X44963715Y-19648714D02*
X44963715Y-18886714D01*
X45399143Y-19648714D01*
X45399143Y-18886714D01*
X46161143Y-18923000D02*
X46088572Y-18886714D01*
X45979715Y-18886714D01*
X45870858Y-18923000D01*
X45798286Y-18995571D01*
X45762001Y-19068143D01*
X45725715Y-19213286D01*
X45725715Y-19322143D01*
X45762001Y-19467286D01*
X45798286Y-19539857D01*
X45870858Y-19612429D01*
X45979715Y-19648714D01*
X46052286Y-19648714D01*
X46161143Y-19612429D01*
X46197429Y-19576143D01*
X46197429Y-19322143D01*
X46052286Y-19322143D01*
X38512286Y-19648714D02*
X38512286Y-18886714D01*
X38802571Y-18886714D01*
X38875143Y-18923000D01*
X38911428Y-18959286D01*
X38947714Y-19031857D01*
X38947714Y-19140714D01*
X38911428Y-19213286D01*
X38875143Y-19249571D01*
X38802571Y-19285857D01*
X38512286Y-19285857D01*
X39274286Y-19648714D02*
X39274286Y-18886714D01*
X39637143Y-19648714D02*
X39637143Y-18886714D01*
X40072571Y-19648714D01*
X40072571Y-18886714D01*
X40435429Y-19648714D02*
X40435429Y-18886714D01*
X40870857Y-19648714D02*
X40544286Y-19213286D01*
X40870857Y-18886714D02*
X40435429Y-19322143D01*
X41342571Y-19285857D02*
X41342571Y-19648714D01*
X41088571Y-18886714D02*
X41342571Y-19285857D01*
X41596571Y-18886714D01*
X48441429Y-12028714D02*
X48441429Y-11266714D01*
X48731714Y-11266714D01*
X48804286Y-11303000D01*
X48840571Y-11339286D01*
X48876857Y-11411857D01*
X48876857Y-11520714D01*
X48840571Y-11593286D01*
X48804286Y-11629571D01*
X48731714Y-11665857D01*
X48441429Y-11665857D01*
X49130857Y-11266714D02*
X49312286Y-12028714D01*
X49457429Y-11484429D01*
X49602571Y-12028714D01*
X49784000Y-11266714D01*
X50509714Y-12028714D02*
X50255714Y-11665857D01*
X50074286Y-12028714D02*
X50074286Y-11266714D01*
X50364571Y-11266714D01*
X50437143Y-11303000D01*
X50473428Y-11339286D01*
X50509714Y-11411857D01*
X50509714Y-11520714D01*
X50473428Y-11593286D01*
X50437143Y-11629571D01*
X50364571Y-11665857D01*
X50074286Y-11665857D01*
X49022000Y-12282714D02*
X49022000Y-12899571D01*
X49058285Y-12972143D01*
X49094571Y-13008429D01*
X49167142Y-13044714D01*
X49312285Y-13044714D01*
X49384857Y-13008429D01*
X49421142Y-12972143D01*
X49457428Y-12899571D01*
X49457428Y-12282714D01*
X49784000Y-13008429D02*
X49892857Y-13044714D01*
X50074286Y-13044714D01*
X50146857Y-13008429D01*
X50183143Y-12972143D01*
X50219428Y-12899571D01*
X50219428Y-12827000D01*
X50183143Y-12754429D01*
X50146857Y-12718143D01*
X50074286Y-12681857D01*
X49929143Y-12645571D01*
X49856571Y-12609286D01*
X49820286Y-12573000D01*
X49784000Y-12500429D01*
X49784000Y-12427857D01*
X49820286Y-12355286D01*
X49856571Y-12319000D01*
X49929143Y-12282714D01*
X50110571Y-12282714D01*
X50219428Y-12319000D01*
X50546000Y-12645571D02*
X50800000Y-12645571D01*
X50908857Y-13044714D02*
X50546000Y-13044714D01*
X50546000Y-12282714D01*
X50908857Y-12282714D01*
X51670857Y-13044714D02*
X51416857Y-12681857D01*
X51235429Y-13044714D02*
X51235429Y-12282714D01*
X51525714Y-12282714D01*
X51598286Y-12319000D01*
X51634571Y-12355286D01*
X51670857Y-12427857D01*
X51670857Y-12536714D01*
X51634571Y-12609286D01*
X51598286Y-12645571D01*
X51525714Y-12681857D01*
X51235429Y-12681857D01*
X48695429Y-13661571D02*
X48804286Y-13697857D01*
X48840571Y-13734143D01*
X48876857Y-13806714D01*
X48876857Y-13915571D01*
X48840571Y-13988143D01*
X48804286Y-14024429D01*
X48731714Y-14060714D01*
X48441429Y-14060714D01*
X48441429Y-13298714D01*
X48695429Y-13298714D01*
X48768000Y-13335000D01*
X48804286Y-13371286D01*
X48840571Y-13443857D01*
X48840571Y-13516429D01*
X48804286Y-13589000D01*
X48768000Y-13625286D01*
X48695429Y-13661571D01*
X48441429Y-13661571D01*
X49203429Y-13298714D02*
X49203429Y-13915571D01*
X49239714Y-13988143D01*
X49276000Y-14024429D01*
X49348571Y-14060714D01*
X49493714Y-14060714D01*
X49566286Y-14024429D01*
X49602571Y-13988143D01*
X49638857Y-13915571D01*
X49638857Y-13298714D01*
X49965429Y-14024429D02*
X50074286Y-14060714D01*
X50255715Y-14060714D01*
X50328286Y-14024429D01*
X50364572Y-13988143D01*
X50400857Y-13915571D01*
X50400857Y-13843000D01*
X50364572Y-13770429D01*
X50328286Y-13734143D01*
X50255715Y-13697857D01*
X50110572Y-13661571D01*
X50038000Y-13625286D01*
X50001715Y-13589000D01*
X49965429Y-13516429D01*
X49965429Y-13443857D01*
X50001715Y-13371286D01*
X50038000Y-13335000D01*
X50110572Y-13298714D01*
X50292000Y-13298714D01*
X50400857Y-13335000D01*
X50872571Y-13697857D02*
X50872571Y-14060714D01*
X50618571Y-13298714D02*
X50872571Y-13697857D01*
X51126571Y-13298714D01*
X50582285Y-14314714D02*
X50727428Y-14314714D01*
X50800000Y-14351000D01*
X50872571Y-14423571D01*
X50908857Y-14568714D01*
X50908857Y-14822714D01*
X50872571Y-14967857D01*
X50800000Y-15040429D01*
X50727428Y-15076714D01*
X50582285Y-15076714D01*
X50509714Y-15040429D01*
X50437143Y-14967857D01*
X50400857Y-14822714D01*
X50400857Y-14568714D01*
X50437143Y-14423571D01*
X50509714Y-14351000D01*
X50582285Y-14314714D01*
X51235429Y-15076714D02*
X51235429Y-14314714D01*
X51670857Y-15076714D02*
X51344286Y-14641286D01*
X51670857Y-14314714D02*
X51235429Y-14750143D01*
X48695429Y-15693571D02*
X48441429Y-15693571D01*
X48441429Y-16092714D02*
X48441429Y-15330714D01*
X48804286Y-15330714D01*
X49058286Y-15875000D02*
X49421143Y-15875000D01*
X48985714Y-16092714D02*
X49239714Y-15330714D01*
X49493714Y-16092714D01*
X49747715Y-16092714D02*
X49747715Y-15330714D01*
X50473429Y-16092714D02*
X50110572Y-16092714D01*
X50110572Y-15330714D01*
X49384857Y-16709571D02*
X49130857Y-16709571D01*
X49130857Y-17108714D02*
X49130857Y-16346714D01*
X49493714Y-16346714D01*
X49784000Y-16346714D02*
X49784000Y-16963571D01*
X49820285Y-17036143D01*
X49856571Y-17072429D01*
X49929142Y-17108714D01*
X50074285Y-17108714D01*
X50146857Y-17072429D01*
X50183142Y-17036143D01*
X50219428Y-16963571D01*
X50219428Y-16346714D01*
X50546000Y-17072429D02*
X50654857Y-17108714D01*
X50836286Y-17108714D01*
X50908857Y-17072429D01*
X50945143Y-17036143D01*
X50981428Y-16963571D01*
X50981428Y-16891000D01*
X50945143Y-16818429D01*
X50908857Y-16782143D01*
X50836286Y-16745857D01*
X50691143Y-16709571D01*
X50618571Y-16673286D01*
X50582286Y-16637000D01*
X50546000Y-16564429D01*
X50546000Y-16491857D01*
X50582286Y-16419286D01*
X50618571Y-16383000D01*
X50691143Y-16346714D01*
X50872571Y-16346714D01*
X50981428Y-16383000D01*
X51308000Y-16709571D02*
X51562000Y-16709571D01*
X51670857Y-17108714D02*
X51308000Y-17108714D01*
X51308000Y-16346714D01*
X51670857Y-16346714D01*
D12*
X35726000Y-4580000D02*
X35726000Y-5580000D01*
X37426000Y-5580000D02*
X37426000Y-4580000D01*
X38300000Y-405000D02*
X61700000Y-405000D01*
X61700000Y-405000D02*
X61700000Y-9755000D01*
X61700000Y-9755000D02*
X38300000Y-9755000D01*
X38300000Y-9755000D02*
X38300000Y-405000D01*
X38050000Y-10005000D02*
X40590000Y-10005000D01*
X38050000Y-10005000D02*
X38050000Y-7465000D01*
X79898000Y-1322000D02*
X75398000Y-1322000D01*
X81148000Y-5322000D02*
X81148000Y-3822000D01*
X75398000Y-7822000D02*
X79898000Y-7822000D01*
X74148000Y-3822000D02*
X74148000Y-5322000D01*
X20102000Y-7822000D02*
X24602000Y-7822000D01*
X18852000Y-3822000D02*
X18852000Y-5322000D01*
X24602000Y-1322000D02*
X20102000Y-1322000D01*
X25852000Y-5322000D02*
X25852000Y-3822000D01*
X29630000Y-4580000D02*
X29630000Y-5580000D01*
X31330000Y-5580000D02*
X31330000Y-4580000D01*
X67556000Y-1182000D02*
X66556000Y-1182000D01*
X66556000Y-2882000D02*
X67556000Y-2882000D01*
X44720000Y-10934000D02*
X47920000Y-10934000D01*
X47920000Y-12434000D02*
X44720000Y-12434000D01*
X47920000Y-12434000D02*
X47920000Y-10934000D01*
X55356000Y-17514000D02*
X52156000Y-17514000D01*
X52156000Y-16014000D02*
X55356000Y-16014000D01*
X52156000Y-16014000D02*
X52156000Y-17514000D01*
X44720000Y-14998000D02*
X47920000Y-14998000D01*
X47920000Y-16498000D02*
X44720000Y-16498000D01*
X47920000Y-16498000D02*
X47920000Y-14998000D01*
X55356000Y-15482000D02*
X52156000Y-15482000D01*
X52156000Y-13982000D02*
X55356000Y-13982000D01*
X52156000Y-13982000D02*
X52156000Y-15482000D01*
X44720000Y-12966000D02*
X47920000Y-12966000D01*
X47920000Y-14466000D02*
X44720000Y-14466000D01*
X47920000Y-14466000D02*
X47920000Y-12966000D01*
X55356000Y-13450000D02*
X52156000Y-13450000D01*
X52156000Y-11950000D02*
X55356000Y-11950000D01*
X52156000Y-11950000D02*
X52156000Y-13450000D01*
X40040000Y-10804000D02*
X41240000Y-10804000D01*
X41240000Y-12564000D02*
X40040000Y-12564000D01*
X60036000Y-17644000D02*
X58836000Y-17644000D01*
X58836000Y-15884000D02*
X60036000Y-15884000D01*
X40040000Y-14868000D02*
X41240000Y-14868000D01*
X41240000Y-16628000D02*
X40040000Y-16628000D01*
X60036000Y-15612000D02*
X58836000Y-15612000D01*
X58836000Y-13852000D02*
X60036000Y-13852000D01*
X40040000Y-12836000D02*
X41240000Y-12836000D01*
X41240000Y-14596000D02*
X40040000Y-14596000D01*
X60036000Y-13580000D02*
X58836000Y-13580000D01*
X58836000Y-11820000D02*
X60036000Y-11820000D01*
X17136000Y-3972000D02*
X17136000Y-5172000D01*
X15376000Y-5172000D02*
X15376000Y-3972000D01*
X82940000Y-5172000D02*
X82940000Y-3972000D01*
X84700000Y-3972000D02*
X84700000Y-5172000D01*
D13*
X64831000Y-10054000D02*
X69281000Y-10054000D01*
X63306000Y-3154000D02*
X69281000Y-3154000D01*
X35203000Y-3405000D02*
X34978000Y-3405000D01*
X35203000Y-6755000D02*
X34903000Y-6755000D01*
X31853000Y-6755000D02*
X32153000Y-6755000D01*
X31853000Y-3405000D02*
X32153000Y-3405000D01*
X35203000Y-3405000D02*
X35203000Y-6755000D01*
X31853000Y-3405000D02*
X31853000Y-6755000D01*
X34978000Y-3405000D02*
X34978000Y-2180000D01*
X58500000Y-35600000D02*
X61500000Y-35600000D01*
X58500000Y-22400000D02*
X58500000Y-35600000D01*
X61500000Y-22400000D02*
X58500000Y-22400000D01*
X61500000Y-22400000D02*
X61500000Y-35600000D01*
X53500000Y-35600000D02*
X56500000Y-35600000D01*
X53500000Y-22400000D02*
X53500000Y-35600000D01*
X56500000Y-22400000D02*
X53500000Y-22400000D01*
X56500000Y-22400000D02*
X56500000Y-35600000D01*
X48500000Y-35600000D02*
X51500000Y-35600000D01*
X48500000Y-22400000D02*
X48500000Y-35600000D01*
X51500000Y-22400000D02*
X48500000Y-22400000D01*
X51500000Y-22400000D02*
X51500000Y-35600000D01*
X43500000Y-35600000D02*
X46500000Y-35600000D01*
X43500000Y-22400000D02*
X43500000Y-35600000D01*
X46500000Y-22400000D02*
X43500000Y-22400000D01*
X46500000Y-22400000D02*
X46500000Y-35600000D01*
X38500000Y-35600000D02*
X41500000Y-35600000D01*
X38500000Y-22400000D02*
X38500000Y-35600000D01*
X41500000Y-22400000D02*
X38500000Y-22400000D01*
X41500000Y-22400000D02*
X41500000Y-35600000D01*
X14352000Y-16444000D02*
X14352000Y-13844000D01*
X7832000Y-16444000D02*
X14352000Y-16444000D01*
X7832000Y-27244000D02*
X7832000Y-16444000D01*
X14352000Y-27244000D02*
X7832000Y-27244000D01*
X14352000Y-29844000D02*
X14352000Y-27244000D01*
X17552000Y-29844000D02*
X14352000Y-29844000D01*
X17552000Y-33084000D02*
X17552000Y-29844000D01*
X27152000Y-33084000D02*
X17552000Y-33084000D01*
X27152000Y-29844000D02*
X27152000Y-33084000D01*
X30352000Y-29844000D02*
X27152000Y-29844000D01*
X30352000Y-26644000D02*
X30352000Y-29844000D01*
X33532000Y-26644000D02*
X30352000Y-26644000D01*
X33532000Y-17044000D02*
X33532000Y-26644000D01*
X30352000Y-17044000D02*
X33532000Y-17044000D01*
X30352000Y-13844000D02*
X30352000Y-17044000D01*
X14352000Y-13844000D02*
X30352000Y-13844000D01*
X69648000Y-16444000D02*
X69648000Y-13844000D01*
X63128000Y-16444000D02*
X69648000Y-16444000D01*
X63128000Y-27244000D02*
X63128000Y-16444000D01*
X69648000Y-27244000D02*
X63128000Y-27244000D01*
X69648000Y-29844000D02*
X69648000Y-27244000D01*
X72848000Y-29844000D02*
X69648000Y-29844000D01*
X72848000Y-33084000D02*
X72848000Y-29844000D01*
X82448000Y-33084000D02*
X72848000Y-33084000D01*
X82448000Y-29844000D02*
X82448000Y-33084000D01*
X85648000Y-29844000D02*
X82448000Y-29844000D01*
X85648000Y-26644000D02*
X85648000Y-29844000D01*
X88828000Y-26644000D02*
X85648000Y-26644000D01*
X88828000Y-17044000D02*
X88828000Y-26644000D01*
X85648000Y-17044000D02*
X88828000Y-17044000D01*
X85648000Y-13844000D02*
X85648000Y-17044000D01*
X69648000Y-13844000D02*
X85648000Y-13844000D01*
D14*
X36866286Y-8263466D02*
X36904990Y-8302171D01*
X36943695Y-8418285D01*
X36943695Y-8495695D01*
X36904990Y-8611809D01*
X36827581Y-8689218D01*
X36750171Y-8727923D01*
X36595352Y-8766628D01*
X36479238Y-8766628D01*
X36324419Y-8727923D01*
X36247010Y-8689218D01*
X36169600Y-8611809D01*
X36130895Y-8495695D01*
X36130895Y-8418285D01*
X36169600Y-8302171D01*
X36208305Y-8263466D01*
X36943695Y-7489371D02*
X36943695Y-7953828D01*
X36943695Y-7721599D02*
X36130895Y-7721599D01*
X36247010Y-7799009D01*
X36324419Y-7876418D01*
X36363124Y-7953828D01*
X36775067Y-9206895D02*
X36775067Y-9787467D01*
X36736363Y-9903581D01*
X36658953Y-9980990D01*
X36542839Y-10019695D01*
X36465429Y-10019695D01*
X37587867Y-10019695D02*
X37123410Y-10019695D01*
X37355639Y-10019695D02*
X37355639Y-9206895D01*
X37278229Y-9323010D01*
X37200820Y-9400419D01*
X37123410Y-9439124D01*
X76564267Y-1090990D02*
X76680381Y-1129695D01*
X76873905Y-1129695D01*
X76951315Y-1090990D01*
X76990019Y-1052286D01*
X77028724Y-974876D01*
X77028724Y-897467D01*
X76990019Y-820057D01*
X76951315Y-781352D01*
X76873905Y-742648D01*
X76719086Y-703943D01*
X76641677Y-665238D01*
X76602972Y-626533D01*
X76564267Y-549124D01*
X76564267Y-471714D01*
X76602972Y-394305D01*
X76641677Y-355600D01*
X76719086Y-316895D01*
X76912610Y-316895D01*
X77028724Y-355600D01*
X77299657Y-316895D02*
X77493181Y-1129695D01*
X77648000Y-549124D01*
X77802819Y-1129695D01*
X77996343Y-316895D01*
X78267276Y-394305D02*
X78305981Y-355600D01*
X78383390Y-316895D01*
X78576914Y-316895D01*
X78654324Y-355600D01*
X78693028Y-394305D01*
X78731733Y-471714D01*
X78731733Y-549124D01*
X78693028Y-665238D01*
X78228571Y-1129695D01*
X78731733Y-1129695D01*
X21268267Y-1090990D02*
X21384381Y-1129695D01*
X21577905Y-1129695D01*
X21655315Y-1090990D01*
X21694019Y-1052286D01*
X21732724Y-974876D01*
X21732724Y-897467D01*
X21694019Y-820057D01*
X21655315Y-781352D01*
X21577905Y-742648D01*
X21423086Y-703943D01*
X21345677Y-665238D01*
X21306972Y-626533D01*
X21268267Y-549124D01*
X21268267Y-471714D01*
X21306972Y-394305D01*
X21345677Y-355600D01*
X21423086Y-316895D01*
X21616610Y-316895D01*
X21732724Y-355600D01*
X22003657Y-316895D02*
X22197181Y-1129695D01*
X22352000Y-549124D01*
X22506819Y-1129695D01*
X22700343Y-316895D01*
X23435733Y-1129695D02*
X22971276Y-1129695D01*
X23203505Y-1129695D02*
X23203505Y-316895D01*
X23126095Y-433010D01*
X23048686Y-510419D01*
X22971276Y-549124D01*
X30770286Y-8263466D02*
X30808990Y-8302171D01*
X30847695Y-8418285D01*
X30847695Y-8495695D01*
X30808990Y-8611809D01*
X30731581Y-8689218D01*
X30654171Y-8727923D01*
X30499352Y-8766628D01*
X30383238Y-8766628D01*
X30228419Y-8727923D01*
X30151010Y-8689218D01*
X30073600Y-8611809D01*
X30034895Y-8495695D01*
X30034895Y-8418285D01*
X30073600Y-8302171D01*
X30112305Y-8263466D01*
X30112305Y-7953828D02*
X30073600Y-7915123D01*
X30034895Y-7837714D01*
X30034895Y-7644190D01*
X30073600Y-7566780D01*
X30112305Y-7528076D01*
X30189714Y-7489371D01*
X30267124Y-7489371D01*
X30383238Y-7528076D01*
X30847695Y-7992533D01*
X30847695Y-7489371D01*
X69968534Y-2322286D02*
X69929829Y-2360990D01*
X69813715Y-2399695D01*
X69736305Y-2399695D01*
X69620191Y-2360990D01*
X69542782Y-2283581D01*
X69504077Y-2206171D01*
X69465372Y-2051352D01*
X69465372Y-1935238D01*
X69504077Y-1780419D01*
X69542782Y-1703010D01*
X69620191Y-1625600D01*
X69736305Y-1586895D01*
X69813715Y-1586895D01*
X69929829Y-1625600D01*
X69968534Y-1664305D01*
X70239467Y-1586895D02*
X70742629Y-1586895D01*
X70471696Y-1896533D01*
X70587810Y-1896533D01*
X70665220Y-1935238D01*
X70703924Y-1973943D01*
X70742629Y-2051352D01*
X70742629Y-2244876D01*
X70703924Y-2322286D01*
X70665220Y-2360990D01*
X70587810Y-2399695D01*
X70355582Y-2399695D01*
X70278172Y-2360990D01*
X70239467Y-2322286D01*
X36484077Y-12051695D02*
X36484077Y-11238895D01*
X36677601Y-11238895D01*
X36793715Y-11277600D01*
X36871124Y-11355010D01*
X36909829Y-11432419D01*
X36948534Y-11587238D01*
X36948534Y-11703352D01*
X36909829Y-11858171D01*
X36871124Y-11935581D01*
X36793715Y-12012990D01*
X36677601Y-12051695D01*
X36484077Y-12051695D01*
X37722629Y-12051695D02*
X37258172Y-12051695D01*
X37490401Y-12051695D02*
X37490401Y-11238895D01*
X37412991Y-11355010D01*
X37335582Y-11432419D01*
X37258172Y-11471124D01*
X62392077Y-16115695D02*
X62392077Y-15302895D01*
X62585601Y-15302895D01*
X62701715Y-15341600D01*
X62779124Y-15419010D01*
X62817829Y-15496419D01*
X62856534Y-15651238D01*
X62856534Y-15767352D01*
X62817829Y-15922171D01*
X62779124Y-15999581D01*
X62701715Y-16076990D01*
X62585601Y-16115695D01*
X62392077Y-16115695D01*
X63166172Y-15380305D02*
X63204877Y-15341600D01*
X63282286Y-15302895D01*
X63475810Y-15302895D01*
X63553220Y-15341600D01*
X63591924Y-15380305D01*
X63630629Y-15457714D01*
X63630629Y-15535124D01*
X63591924Y-15651238D01*
X63127467Y-16115695D01*
X63630629Y-16115695D01*
X36484077Y-16115695D02*
X36484077Y-15302895D01*
X36677601Y-15302895D01*
X36793715Y-15341600D01*
X36871124Y-15419010D01*
X36909829Y-15496419D01*
X36948534Y-15651238D01*
X36948534Y-15767352D01*
X36909829Y-15922171D01*
X36871124Y-15999581D01*
X36793715Y-16076990D01*
X36677601Y-16115695D01*
X36484077Y-16115695D01*
X37219467Y-15302895D02*
X37722629Y-15302895D01*
X37451696Y-15612533D01*
X37567810Y-15612533D01*
X37645220Y-15651238D01*
X37683924Y-15689943D01*
X37722629Y-15767352D01*
X37722629Y-15960876D01*
X37683924Y-16038286D01*
X37645220Y-16076990D01*
X37567810Y-16115695D01*
X37335582Y-16115695D01*
X37258172Y-16076990D01*
X37219467Y-16038286D01*
X62392077Y-14083695D02*
X62392077Y-13270895D01*
X62585601Y-13270895D01*
X62701715Y-13309600D01*
X62779124Y-13387010D01*
X62817829Y-13464419D01*
X62856534Y-13619238D01*
X62856534Y-13735352D01*
X62817829Y-13890171D01*
X62779124Y-13967581D01*
X62701715Y-14044990D01*
X62585601Y-14083695D01*
X62392077Y-14083695D01*
X63553220Y-13541829D02*
X63553220Y-14083695D01*
X63359696Y-13232190D02*
X63166172Y-13812762D01*
X63669334Y-13812762D01*
X36484077Y-14083695D02*
X36484077Y-13270895D01*
X36677601Y-13270895D01*
X36793715Y-13309600D01*
X36871124Y-13387010D01*
X36909829Y-13464419D01*
X36948534Y-13619238D01*
X36948534Y-13735352D01*
X36909829Y-13890171D01*
X36871124Y-13967581D01*
X36793715Y-14044990D01*
X36677601Y-14083695D01*
X36484077Y-14083695D01*
X37683924Y-13270895D02*
X37296877Y-13270895D01*
X37258172Y-13657943D01*
X37296877Y-13619238D01*
X37374286Y-13580533D01*
X37567810Y-13580533D01*
X37645220Y-13619238D01*
X37683924Y-13657943D01*
X37722629Y-13735352D01*
X37722629Y-13928876D01*
X37683924Y-14006286D01*
X37645220Y-14044990D01*
X37567810Y-14083695D01*
X37374286Y-14083695D01*
X37296877Y-14044990D01*
X37258172Y-14006286D01*
X62392077Y-12051695D02*
X62392077Y-11238895D01*
X62585601Y-11238895D01*
X62701715Y-11277600D01*
X62779124Y-11355010D01*
X62817829Y-11432419D01*
X62856534Y-11587238D01*
X62856534Y-11703352D01*
X62817829Y-11858171D01*
X62779124Y-11935581D01*
X62701715Y-12012990D01*
X62585601Y-12051695D01*
X62392077Y-12051695D01*
X63553220Y-11238895D02*
X63398401Y-11238895D01*
X63320991Y-11277600D01*
X63282286Y-11316305D01*
X63204877Y-11432419D01*
X63166172Y-11587238D01*
X63166172Y-11896876D01*
X63204877Y-11974286D01*
X63243582Y-12012990D01*
X63320991Y-12051695D01*
X63475810Y-12051695D01*
X63553220Y-12012990D01*
X63591924Y-11974286D01*
X63630629Y-11896876D01*
X63630629Y-11703352D01*
X63591924Y-11625943D01*
X63553220Y-11587238D01*
X63475810Y-11548533D01*
X63320991Y-11548533D01*
X63243582Y-11587238D01*
X63204877Y-11625943D01*
X63166172Y-11703352D01*
X34916534Y-12051695D02*
X34645601Y-11664648D01*
X34452077Y-12051695D02*
X34452077Y-11238895D01*
X34761715Y-11238895D01*
X34839124Y-11277600D01*
X34877829Y-11316305D01*
X34916534Y-11393714D01*
X34916534Y-11509829D01*
X34877829Y-11587238D01*
X34839124Y-11625943D01*
X34761715Y-11664648D01*
X34452077Y-11664648D01*
X35690629Y-12051695D02*
X35226172Y-12051695D01*
X35458401Y-12051695D02*
X35458401Y-11238895D01*
X35380991Y-11355010D01*
X35303582Y-11432419D01*
X35226172Y-11471124D01*
X64888534Y-16115695D02*
X64617601Y-15728648D01*
X64424077Y-16115695D02*
X64424077Y-15302895D01*
X64733715Y-15302895D01*
X64811124Y-15341600D01*
X64849829Y-15380305D01*
X64888534Y-15457714D01*
X64888534Y-15573829D01*
X64849829Y-15651238D01*
X64811124Y-15689943D01*
X64733715Y-15728648D01*
X64424077Y-15728648D01*
X65198172Y-15380305D02*
X65236877Y-15341600D01*
X65314286Y-15302895D01*
X65507810Y-15302895D01*
X65585220Y-15341600D01*
X65623924Y-15380305D01*
X65662629Y-15457714D01*
X65662629Y-15535124D01*
X65623924Y-15651238D01*
X65159467Y-16115695D01*
X65662629Y-16115695D01*
X34916534Y-16115695D02*
X34645601Y-15728648D01*
X34452077Y-16115695D02*
X34452077Y-15302895D01*
X34761715Y-15302895D01*
X34839124Y-15341600D01*
X34877829Y-15380305D01*
X34916534Y-15457714D01*
X34916534Y-15573829D01*
X34877829Y-15651238D01*
X34839124Y-15689943D01*
X34761715Y-15728648D01*
X34452077Y-15728648D01*
X35187467Y-15302895D02*
X35690629Y-15302895D01*
X35419696Y-15612533D01*
X35535810Y-15612533D01*
X35613220Y-15651238D01*
X35651924Y-15689943D01*
X35690629Y-15767352D01*
X35690629Y-15960876D01*
X35651924Y-16038286D01*
X35613220Y-16076990D01*
X35535810Y-16115695D01*
X35303582Y-16115695D01*
X35226172Y-16076990D01*
X35187467Y-16038286D01*
X64888534Y-14083695D02*
X64617601Y-13696648D01*
X64424077Y-14083695D02*
X64424077Y-13270895D01*
X64733715Y-13270895D01*
X64811124Y-13309600D01*
X64849829Y-13348305D01*
X64888534Y-13425714D01*
X64888534Y-13541829D01*
X64849829Y-13619238D01*
X64811124Y-13657943D01*
X64733715Y-13696648D01*
X64424077Y-13696648D01*
X65585220Y-13541829D02*
X65585220Y-14083695D01*
X65391696Y-13232190D02*
X65198172Y-13812762D01*
X65701334Y-13812762D01*
X34916534Y-14083695D02*
X34645601Y-13696648D01*
X34452077Y-14083695D02*
X34452077Y-13270895D01*
X34761715Y-13270895D01*
X34839124Y-13309600D01*
X34877829Y-13348305D01*
X34916534Y-13425714D01*
X34916534Y-13541829D01*
X34877829Y-13619238D01*
X34839124Y-13657943D01*
X34761715Y-13696648D01*
X34452077Y-13696648D01*
X35651924Y-13270895D02*
X35264877Y-13270895D01*
X35226172Y-13657943D01*
X35264877Y-13619238D01*
X35342286Y-13580533D01*
X35535810Y-13580533D01*
X35613220Y-13619238D01*
X35651924Y-13657943D01*
X35690629Y-13735352D01*
X35690629Y-13928876D01*
X35651924Y-14006286D01*
X35613220Y-14044990D01*
X35535810Y-14083695D01*
X35342286Y-14083695D01*
X35264877Y-14044990D01*
X35226172Y-14006286D01*
X64888534Y-12051695D02*
X64617601Y-11664648D01*
X64424077Y-12051695D02*
X64424077Y-11238895D01*
X64733715Y-11238895D01*
X64811124Y-11277600D01*
X64849829Y-11316305D01*
X64888534Y-11393714D01*
X64888534Y-11509829D01*
X64849829Y-11587238D01*
X64811124Y-11625943D01*
X64733715Y-11664648D01*
X64424077Y-11664648D01*
X65585220Y-11238895D02*
X65430401Y-11238895D01*
X65352991Y-11277600D01*
X65314286Y-11316305D01*
X65236877Y-11432419D01*
X65198172Y-11587238D01*
X65198172Y-11896876D01*
X65236877Y-11974286D01*
X65275582Y-12012990D01*
X65352991Y-12051695D01*
X65507810Y-12051695D01*
X65585220Y-12012990D01*
X65623924Y-11974286D01*
X65662629Y-11896876D01*
X65662629Y-11703352D01*
X65623924Y-11625943D01*
X65585220Y-11587238D01*
X65507810Y-11548533D01*
X65352991Y-11548533D01*
X65275582Y-11587238D01*
X65236877Y-11625943D01*
X65198172Y-11703352D01*
X16623695Y-8263466D02*
X16236648Y-8534399D01*
X16623695Y-8727923D02*
X15810895Y-8727923D01*
X15810895Y-8418285D01*
X15849600Y-8340876D01*
X15888305Y-8302171D01*
X15965714Y-8263466D01*
X16081829Y-8263466D01*
X16159238Y-8302171D01*
X16197943Y-8340876D01*
X16236648Y-8418285D01*
X16236648Y-8727923D01*
X15810895Y-7992533D02*
X15810895Y-7450666D01*
X16623695Y-7799009D01*
X84187695Y-8263466D02*
X83800648Y-8534399D01*
X84187695Y-8727923D02*
X83374895Y-8727923D01*
X83374895Y-8418285D01*
X83413600Y-8340876D01*
X83452305Y-8302171D01*
X83529714Y-8263466D01*
X83645829Y-8263466D01*
X83723238Y-8302171D01*
X83761943Y-8340876D01*
X83800648Y-8418285D01*
X83800648Y-8727923D01*
X83723238Y-7799009D02*
X83684533Y-7876418D01*
X83645829Y-7915123D01*
X83568419Y-7953828D01*
X83529714Y-7953828D01*
X83452305Y-7915123D01*
X83413600Y-7876418D01*
X83374895Y-7799009D01*
X83374895Y-7644190D01*
X83413600Y-7566780D01*
X83452305Y-7528076D01*
X83529714Y-7489371D01*
X83568419Y-7489371D01*
X83645829Y-7528076D01*
X83684533Y-7566780D01*
X83723238Y-7644190D01*
X83723238Y-7799009D01*
X83761943Y-7876418D01*
X83800648Y-7915123D01*
X83878057Y-7953828D01*
X84032876Y-7953828D01*
X84110286Y-7915123D01*
X84148990Y-7876418D01*
X84187695Y-7799009D01*
X84187695Y-7644190D01*
X84148990Y-7566780D01*
X84110286Y-7528076D01*
X84032876Y-7489371D01*
X83878057Y-7489371D01*
X83800648Y-7528076D01*
X83761943Y-7566780D01*
X83723238Y-7644190D01*
X62038895Y-4175276D02*
X62696876Y-4175276D01*
X62774286Y-4136571D01*
X62812990Y-4097867D01*
X62851695Y-4020457D01*
X62851695Y-3865638D01*
X62812990Y-3788229D01*
X62774286Y-3749524D01*
X62696876Y-3710819D01*
X62038895Y-3710819D01*
X62851695Y-2898019D02*
X62851695Y-3362476D01*
X62851695Y-3130247D02*
X62038895Y-3130247D01*
X62155010Y-3207657D01*
X62232419Y-3285066D01*
X62271124Y-3362476D01*
X34098895Y-1635276D02*
X34756876Y-1635276D01*
X34834286Y-1596571D01*
X34872990Y-1557867D01*
X34911695Y-1480457D01*
X34911695Y-1325638D01*
X34872990Y-1248229D01*
X34834286Y-1209524D01*
X34756876Y-1170819D01*
X34098895Y-1170819D01*
X34176305Y-822476D02*
X34137600Y-783771D01*
X34098895Y-706362D01*
X34098895Y-512838D01*
X34137600Y-435428D01*
X34176305Y-396724D01*
X34253714Y-358019D01*
X34331124Y-358019D01*
X34447238Y-396724D01*
X34911695Y-861181D01*
X34911695Y-358019D01*
X57191486Y-22211695D02*
X56920553Y-21824648D01*
X56727029Y-22211695D02*
X56727029Y-21398895D01*
X57036667Y-21398895D01*
X57114076Y-21437600D01*
X57152781Y-21476305D01*
X57191486Y-21553714D01*
X57191486Y-21669829D01*
X57152781Y-21747238D01*
X57114076Y-21785943D01*
X57036667Y-21824648D01*
X56727029Y-21824648D01*
X57965581Y-22211695D02*
X57501124Y-22211695D01*
X57733353Y-22211695D02*
X57733353Y-21398895D01*
X57655943Y-21515010D01*
X57578534Y-21592419D01*
X57501124Y-21631124D01*
X58700971Y-21398895D02*
X58313924Y-21398895D01*
X58275219Y-21785943D01*
X58313924Y-21747238D01*
X58391333Y-21708533D01*
X58584857Y-21708533D01*
X58662267Y-21747238D01*
X58700971Y-21785943D01*
X58739676Y-21863352D01*
X58739676Y-22056876D01*
X58700971Y-22134286D01*
X58662267Y-22172990D01*
X58584857Y-22211695D01*
X58391333Y-22211695D01*
X58313924Y-22172990D01*
X58275219Y-22134286D01*
X52191486Y-22211695D02*
X51920553Y-21824648D01*
X51727029Y-22211695D02*
X51727029Y-21398895D01*
X52036667Y-21398895D01*
X52114076Y-21437600D01*
X52152781Y-21476305D01*
X52191486Y-21553714D01*
X52191486Y-21669829D01*
X52152781Y-21747238D01*
X52114076Y-21785943D01*
X52036667Y-21824648D01*
X51727029Y-21824648D01*
X52965581Y-22211695D02*
X52501124Y-22211695D01*
X52733353Y-22211695D02*
X52733353Y-21398895D01*
X52655943Y-21515010D01*
X52578534Y-21592419D01*
X52501124Y-21631124D01*
X53662267Y-21669829D02*
X53662267Y-22211695D01*
X53468743Y-21360190D02*
X53275219Y-21940762D01*
X53778381Y-21940762D01*
X47191486Y-22211695D02*
X46920553Y-21824648D01*
X46727029Y-22211695D02*
X46727029Y-21398895D01*
X47036667Y-21398895D01*
X47114076Y-21437600D01*
X47152781Y-21476305D01*
X47191486Y-21553714D01*
X47191486Y-21669829D01*
X47152781Y-21747238D01*
X47114076Y-21785943D01*
X47036667Y-21824648D01*
X46727029Y-21824648D01*
X47965581Y-22211695D02*
X47501124Y-22211695D01*
X47733353Y-22211695D02*
X47733353Y-21398895D01*
X47655943Y-21515010D01*
X47578534Y-21592419D01*
X47501124Y-21631124D01*
X48236514Y-21398895D02*
X48739676Y-21398895D01*
X48468743Y-21708533D01*
X48584857Y-21708533D01*
X48662267Y-21747238D01*
X48700971Y-21785943D01*
X48739676Y-21863352D01*
X48739676Y-22056876D01*
X48700971Y-22134286D01*
X48662267Y-22172990D01*
X48584857Y-22211695D01*
X48352629Y-22211695D01*
X48275219Y-22172990D01*
X48236514Y-22134286D01*
X42149486Y-22211695D02*
X41878553Y-21824648D01*
X41685029Y-22211695D02*
X41685029Y-21398895D01*
X41994667Y-21398895D01*
X42072076Y-21437600D01*
X42110781Y-21476305D01*
X42149486Y-21553714D01*
X42149486Y-21669829D01*
X42110781Y-21747238D01*
X42072076Y-21785943D01*
X41994667Y-21824648D01*
X41685029Y-21824648D01*
X42923581Y-22211695D02*
X42459124Y-22211695D01*
X42691353Y-22211695D02*
X42691353Y-21398895D01*
X42613943Y-21515010D01*
X42536534Y-21592419D01*
X42459124Y-21631124D01*
X43233219Y-21476305D02*
X43271924Y-21437600D01*
X43349333Y-21398895D01*
X43542857Y-21398895D01*
X43620267Y-21437600D01*
X43658971Y-21476305D01*
X43697676Y-21553714D01*
X43697676Y-21631124D01*
X43658971Y-21747238D01*
X43194514Y-22211695D01*
X43697676Y-22211695D01*
X37191486Y-22211695D02*
X36920553Y-21824648D01*
X36727029Y-22211695D02*
X36727029Y-21398895D01*
X37036667Y-21398895D01*
X37114076Y-21437600D01*
X37152781Y-21476305D01*
X37191486Y-21553714D01*
X37191486Y-21669829D01*
X37152781Y-21747238D01*
X37114076Y-21785943D01*
X37036667Y-21824648D01*
X36727029Y-21824648D01*
X37965581Y-22211695D02*
X37501124Y-22211695D01*
X37733353Y-22211695D02*
X37733353Y-21398895D01*
X37655943Y-21515010D01*
X37578534Y-21592419D01*
X37501124Y-21631124D01*
X38739676Y-22211695D02*
X38275219Y-22211695D01*
X38507448Y-22211695D02*
X38507448Y-21398895D01*
X38430038Y-21515010D01*
X38352629Y-21592419D01*
X38275219Y-21631124D01*
X31481486Y-16623695D02*
X31210553Y-16236648D01*
X31017029Y-16623695D02*
X31017029Y-15810895D01*
X31326667Y-15810895D01*
X31404076Y-15849600D01*
X31442781Y-15888305D01*
X31481486Y-15965714D01*
X31481486Y-16081829D01*
X31442781Y-16159238D01*
X31404076Y-16197943D01*
X31326667Y-16236648D01*
X31017029Y-16236648D01*
X32255581Y-16623695D02*
X31791124Y-16623695D01*
X32023353Y-16623695D02*
X32023353Y-15810895D01*
X31945943Y-15927010D01*
X31868534Y-16004419D01*
X31791124Y-16043124D01*
X32758743Y-15810895D02*
X32836152Y-15810895D01*
X32913562Y-15849600D01*
X32952267Y-15888305D01*
X32990971Y-15965714D01*
X33029676Y-16120533D01*
X33029676Y-16314057D01*
X32990971Y-16468876D01*
X32952267Y-16546286D01*
X32913562Y-16584990D01*
X32836152Y-16623695D01*
X32758743Y-16623695D01*
X32681333Y-16584990D01*
X32642629Y-16546286D01*
X32603924Y-16468876D01*
X32565219Y-16314057D01*
X32565219Y-16120533D01*
X32603924Y-15965714D01*
X32642629Y-15888305D01*
X32681333Y-15849600D01*
X32758743Y-15810895D01*
X87240534Y-16623695D02*
X86969601Y-16236648D01*
X86776077Y-16623695D02*
X86776077Y-15810895D01*
X87085715Y-15810895D01*
X87163124Y-15849600D01*
X87201829Y-15888305D01*
X87240534Y-15965714D01*
X87240534Y-16081829D01*
X87201829Y-16159238D01*
X87163124Y-16197943D01*
X87085715Y-16236648D01*
X86776077Y-16236648D01*
X87627582Y-16623695D02*
X87782401Y-16623695D01*
X87859810Y-16584990D01*
X87898515Y-16546286D01*
X87975924Y-16430171D01*
X88014629Y-16275352D01*
X88014629Y-15965714D01*
X87975924Y-15888305D01*
X87937220Y-15849600D01*
X87859810Y-15810895D01*
X87704991Y-15810895D01*
X87627582Y-15849600D01*
X87588877Y-15888305D01*
X87550172Y-15965714D01*
X87550172Y-16159238D01*
X87588877Y-16236648D01*
X87627582Y-16275352D01*
X87704991Y-16314057D01*
X87859810Y-16314057D01*
X87937220Y-16275352D01*
X87975924Y-16236648D01*
X88014629Y-16159238D01*
M02*
