G04 #@! TF.FileFunction,Legend,Top*
%FSLAX46Y46*%
G04 Gerber Fmt 4.6, Leading zero omitted, Abs format (unit mm)*
G04 Created by KiCad (PCBNEW 4.0.7-e2-6376~61~ubuntu18.04.1) date Thu Dec  5 21:11:01 2019*
%MOMM*%
%LPD*%
G01*
G04 APERTURE LIST*
%ADD10C,0.100000*%
%ADD11C,0.203200*%
%ADD12C,0.304800*%
%ADD13C,0.120000*%
%ADD14C,0.150000*%
%ADD15C,0.010000*%
%ADD16C,0.152400*%
G04 APERTURE END LIST*
D10*
D11*
X540230Y-18367695D02*
X540230Y-17554895D01*
X888573Y-18367695D02*
X888573Y-17941943D01*
X849868Y-17864533D01*
X772458Y-17825829D01*
X656344Y-17825829D01*
X578935Y-17864533D01*
X540230Y-17903238D01*
X1159506Y-17825829D02*
X1469144Y-17825829D01*
X1275620Y-17554895D02*
X1275620Y-18251581D01*
X1314325Y-18328990D01*
X1391734Y-18367695D01*
X1469144Y-18367695D01*
X1623963Y-17825829D02*
X1933601Y-17825829D01*
X1740077Y-17554895D02*
X1740077Y-18251581D01*
X1778782Y-18328990D01*
X1856191Y-18367695D01*
X1933601Y-18367695D01*
X2204534Y-17825829D02*
X2204534Y-18638629D01*
X2204534Y-17864533D02*
X2281943Y-17825829D01*
X2436762Y-17825829D01*
X2514172Y-17864533D01*
X2552877Y-17903238D01*
X2591581Y-17980648D01*
X2591581Y-18212876D01*
X2552877Y-18290286D01*
X2514172Y-18328990D01*
X2436762Y-18367695D01*
X2281943Y-18367695D01*
X2204534Y-18328990D01*
X2901219Y-18328990D02*
X2978629Y-18367695D01*
X3133448Y-18367695D01*
X3210857Y-18328990D01*
X3249562Y-18251581D01*
X3249562Y-18212876D01*
X3210857Y-18135467D01*
X3133448Y-18096762D01*
X3017333Y-18096762D01*
X2939924Y-18058057D01*
X2901219Y-17980648D01*
X2901219Y-17941943D01*
X2939924Y-17864533D01*
X3017333Y-17825829D01*
X3133448Y-17825829D01*
X3210857Y-17864533D01*
X3597905Y-18290286D02*
X3636610Y-18328990D01*
X3597905Y-18367695D01*
X3559200Y-18328990D01*
X3597905Y-18290286D01*
X3597905Y-18367695D01*
X3597905Y-17864533D02*
X3636610Y-17903238D01*
X3597905Y-17941943D01*
X3559200Y-17903238D01*
X3597905Y-17864533D01*
X3597905Y-17941943D01*
X4565524Y-17516190D02*
X3868839Y-18561219D01*
X5417029Y-17516190D02*
X4720344Y-18561219D01*
X5610553Y-17825829D02*
X5765372Y-18367695D01*
X5920191Y-17980648D01*
X6075010Y-18367695D01*
X6229829Y-17825829D01*
X6462058Y-17825829D02*
X6616877Y-18367695D01*
X6771696Y-17980648D01*
X6926515Y-18367695D01*
X7081334Y-17825829D01*
X7313563Y-17825829D02*
X7468382Y-18367695D01*
X7623201Y-17980648D01*
X7778020Y-18367695D01*
X7932839Y-17825829D01*
X8242478Y-18290286D02*
X8281183Y-18328990D01*
X8242478Y-18367695D01*
X8203773Y-18328990D01*
X8242478Y-18290286D01*
X8242478Y-18367695D01*
X8977869Y-17825829D02*
X8977869Y-18483810D01*
X8939164Y-18561219D01*
X8900459Y-18599924D01*
X8823050Y-18638629D01*
X8706935Y-18638629D01*
X8629526Y-18599924D01*
X8977869Y-18328990D02*
X8900459Y-18367695D01*
X8745640Y-18367695D01*
X8668231Y-18328990D01*
X8629526Y-18290286D01*
X8590821Y-18212876D01*
X8590821Y-17980648D01*
X8629526Y-17903238D01*
X8668231Y-17864533D01*
X8745640Y-17825829D01*
X8900459Y-17825829D01*
X8977869Y-17864533D01*
X9364916Y-17825829D02*
X9364916Y-18367695D01*
X9364916Y-17903238D02*
X9403621Y-17864533D01*
X9481030Y-17825829D01*
X9597144Y-17825829D01*
X9674554Y-17864533D01*
X9713259Y-17941943D01*
X9713259Y-18367695D01*
X10448649Y-17825829D02*
X10448649Y-18367695D01*
X10100306Y-17825829D02*
X10100306Y-18251581D01*
X10139011Y-18328990D01*
X10216420Y-18367695D01*
X10332534Y-18367695D01*
X10409944Y-18328990D01*
X10448649Y-18290286D01*
X10835696Y-18290286D02*
X10874401Y-18328990D01*
X10835696Y-18367695D01*
X10796991Y-18328990D01*
X10835696Y-18290286D01*
X10835696Y-18367695D01*
X11338858Y-18367695D02*
X11261449Y-18328990D01*
X11222744Y-18290286D01*
X11184039Y-18212876D01*
X11184039Y-17980648D01*
X11222744Y-17903238D01*
X11261449Y-17864533D01*
X11338858Y-17825829D01*
X11454972Y-17825829D01*
X11532382Y-17864533D01*
X11571087Y-17903238D01*
X11609791Y-17980648D01*
X11609791Y-18212876D01*
X11571087Y-18290286D01*
X11532382Y-18328990D01*
X11454972Y-18367695D01*
X11338858Y-18367695D01*
X11958134Y-18367695D02*
X11958134Y-17825829D01*
X11958134Y-17980648D02*
X11996839Y-17903238D01*
X12035543Y-17864533D01*
X12112953Y-17825829D01*
X12190362Y-17825829D01*
X12809639Y-17825829D02*
X12809639Y-18483810D01*
X12770934Y-18561219D01*
X12732229Y-18599924D01*
X12654820Y-18638629D01*
X12538705Y-18638629D01*
X12461296Y-18599924D01*
X12809639Y-18328990D02*
X12732229Y-18367695D01*
X12577410Y-18367695D01*
X12500001Y-18328990D01*
X12461296Y-18290286D01*
X12422591Y-18212876D01*
X12422591Y-17980648D01*
X12461296Y-17903238D01*
X12500001Y-17864533D01*
X12577410Y-17825829D01*
X12732229Y-17825829D01*
X12809639Y-17864533D01*
X13777257Y-17516190D02*
X13080572Y-18561219D01*
X14164305Y-18367695D02*
X14086896Y-18328990D01*
X14048191Y-18251581D01*
X14048191Y-17554895D01*
X14473943Y-18367695D02*
X14473943Y-17825829D01*
X14473943Y-17554895D02*
X14435238Y-17593600D01*
X14473943Y-17632305D01*
X14512648Y-17593600D01*
X14473943Y-17554895D01*
X14473943Y-17632305D01*
X15209334Y-18328990D02*
X15131924Y-18367695D01*
X14977105Y-18367695D01*
X14899696Y-18328990D01*
X14860991Y-18290286D01*
X14822286Y-18212876D01*
X14822286Y-17980648D01*
X14860991Y-17903238D01*
X14899696Y-17864533D01*
X14977105Y-17825829D01*
X15131924Y-17825829D01*
X15209334Y-17864533D01*
X15867315Y-18328990D02*
X15789905Y-18367695D01*
X15635086Y-18367695D01*
X15557677Y-18328990D01*
X15518972Y-18251581D01*
X15518972Y-17941943D01*
X15557677Y-17864533D01*
X15635086Y-17825829D01*
X15789905Y-17825829D01*
X15867315Y-17864533D01*
X15906020Y-17941943D01*
X15906020Y-18019352D01*
X15518972Y-18096762D01*
X16254363Y-17825829D02*
X16254363Y-18367695D01*
X16254363Y-17903238D02*
X16293068Y-17864533D01*
X16370477Y-17825829D01*
X16486591Y-17825829D01*
X16564001Y-17864533D01*
X16602706Y-17941943D01*
X16602706Y-18367695D01*
X16951048Y-18328990D02*
X17028458Y-18367695D01*
X17183277Y-18367695D01*
X17260686Y-18328990D01*
X17299391Y-18251581D01*
X17299391Y-18212876D01*
X17260686Y-18135467D01*
X17183277Y-18096762D01*
X17067162Y-18096762D01*
X16989753Y-18058057D01*
X16951048Y-17980648D01*
X16951048Y-17941943D01*
X16989753Y-17864533D01*
X17067162Y-17825829D01*
X17183277Y-17825829D01*
X17260686Y-17864533D01*
X17957372Y-18328990D02*
X17879962Y-18367695D01*
X17725143Y-18367695D01*
X17647734Y-18328990D01*
X17609029Y-18251581D01*
X17609029Y-17941943D01*
X17647734Y-17864533D01*
X17725143Y-17825829D01*
X17879962Y-17825829D01*
X17957372Y-17864533D01*
X17996077Y-17941943D01*
X17996077Y-18019352D01*
X17609029Y-18096762D01*
X18305715Y-18328990D02*
X18383125Y-18367695D01*
X18537944Y-18367695D01*
X18615353Y-18328990D01*
X18654058Y-18251581D01*
X18654058Y-18212876D01*
X18615353Y-18135467D01*
X18537944Y-18096762D01*
X18421829Y-18096762D01*
X18344420Y-18058057D01*
X18305715Y-17980648D01*
X18305715Y-17941943D01*
X18344420Y-17864533D01*
X18421829Y-17825829D01*
X18537944Y-17825829D01*
X18615353Y-17864533D01*
X19582972Y-17516190D02*
X18886287Y-18561219D01*
X20202249Y-17825829D02*
X20202249Y-18483810D01*
X20163544Y-18561219D01*
X20124839Y-18599924D01*
X20047430Y-18638629D01*
X19931315Y-18638629D01*
X19853906Y-18599924D01*
X20202249Y-18328990D02*
X20124839Y-18367695D01*
X19970020Y-18367695D01*
X19892611Y-18328990D01*
X19853906Y-18290286D01*
X19815201Y-18212876D01*
X19815201Y-17980648D01*
X19853906Y-17903238D01*
X19892611Y-17864533D01*
X19970020Y-17825829D01*
X20124839Y-17825829D01*
X20202249Y-17864533D01*
X20589296Y-17825829D02*
X20589296Y-18638629D01*
X20589296Y-17864533D02*
X20666705Y-17825829D01*
X20821524Y-17825829D01*
X20898934Y-17864533D01*
X20937639Y-17903238D01*
X20976343Y-17980648D01*
X20976343Y-18212876D01*
X20937639Y-18290286D01*
X20898934Y-18328990D01*
X20821524Y-18367695D01*
X20666705Y-18367695D01*
X20589296Y-18328990D01*
X21440800Y-18367695D02*
X21363391Y-18328990D01*
X21324686Y-18251581D01*
X21324686Y-17554895D01*
X21750438Y-18290286D02*
X21789143Y-18328990D01*
X21750438Y-18367695D01*
X21711733Y-18328990D01*
X21750438Y-18290286D01*
X21750438Y-18367695D01*
X22137486Y-18367695D02*
X22137486Y-17554895D01*
X22485829Y-18367695D02*
X22485829Y-17941943D01*
X22447124Y-17864533D01*
X22369714Y-17825829D01*
X22253600Y-17825829D01*
X22176191Y-17864533D01*
X22137486Y-17903238D01*
X22756762Y-17825829D02*
X23066400Y-17825829D01*
X22872876Y-17554895D02*
X22872876Y-18251581D01*
X22911581Y-18328990D01*
X22988990Y-18367695D01*
X23066400Y-18367695D01*
X23337333Y-18367695D02*
X23337333Y-17825829D01*
X23337333Y-17903238D02*
X23376038Y-17864533D01*
X23453447Y-17825829D01*
X23569561Y-17825829D01*
X23646971Y-17864533D01*
X23685676Y-17941943D01*
X23685676Y-18367695D01*
X23685676Y-17941943D02*
X23724380Y-17864533D01*
X23801790Y-17825829D01*
X23917904Y-17825829D01*
X23995314Y-17864533D01*
X24034019Y-17941943D01*
X24034019Y-18367695D01*
X24537180Y-18367695D02*
X24459771Y-18328990D01*
X24421066Y-18251581D01*
X24421066Y-17554895D01*
X2011010Y-8867695D02*
X1740077Y-8480648D01*
X1546553Y-8867695D02*
X1546553Y-8054895D01*
X1856191Y-8054895D01*
X1933600Y-8093600D01*
X1972305Y-8132305D01*
X2011010Y-8209714D01*
X2011010Y-8325829D01*
X1972305Y-8403238D01*
X1933600Y-8441943D01*
X1856191Y-8480648D01*
X1546553Y-8480648D01*
X2668991Y-8828990D02*
X2591581Y-8867695D01*
X2436762Y-8867695D01*
X2359353Y-8828990D01*
X2320648Y-8751581D01*
X2320648Y-8441943D01*
X2359353Y-8364533D01*
X2436762Y-8325829D01*
X2591581Y-8325829D01*
X2668991Y-8364533D01*
X2707696Y-8441943D01*
X2707696Y-8519352D01*
X2320648Y-8596762D01*
X3172153Y-8867695D02*
X3094744Y-8828990D01*
X3056039Y-8751581D01*
X3056039Y-8054895D01*
X3791429Y-8828990D02*
X3714019Y-8867695D01*
X3559200Y-8867695D01*
X3481791Y-8828990D01*
X3443086Y-8751581D01*
X3443086Y-8441943D01*
X3481791Y-8364533D01*
X3559200Y-8325829D01*
X3714019Y-8325829D01*
X3791429Y-8364533D01*
X3830134Y-8441943D01*
X3830134Y-8519352D01*
X3443086Y-8596762D01*
X4526820Y-8867695D02*
X4526820Y-8441943D01*
X4488115Y-8364533D01*
X4410705Y-8325829D01*
X4255886Y-8325829D01*
X4178477Y-8364533D01*
X4526820Y-8828990D02*
X4449410Y-8867695D01*
X4255886Y-8867695D01*
X4178477Y-8828990D01*
X4139772Y-8751581D01*
X4139772Y-8674171D01*
X4178477Y-8596762D01*
X4255886Y-8558057D01*
X4449410Y-8558057D01*
X4526820Y-8519352D01*
X4875162Y-8828990D02*
X4952572Y-8867695D01*
X5107391Y-8867695D01*
X5184800Y-8828990D01*
X5223505Y-8751581D01*
X5223505Y-8712876D01*
X5184800Y-8635467D01*
X5107391Y-8596762D01*
X4991276Y-8596762D01*
X4913867Y-8558057D01*
X4875162Y-8480648D01*
X4875162Y-8441943D01*
X4913867Y-8364533D01*
X4991276Y-8325829D01*
X5107391Y-8325829D01*
X5184800Y-8364533D01*
X5881486Y-8828990D02*
X5804076Y-8867695D01*
X5649257Y-8867695D01*
X5571848Y-8828990D01*
X5533143Y-8751581D01*
X5533143Y-8441943D01*
X5571848Y-8364533D01*
X5649257Y-8325829D01*
X5804076Y-8325829D01*
X5881486Y-8364533D01*
X5920191Y-8441943D01*
X5920191Y-8519352D01*
X5533143Y-8596762D01*
X6616877Y-8867695D02*
X6616877Y-8054895D01*
X6616877Y-8828990D02*
X6539467Y-8867695D01*
X6384648Y-8867695D01*
X6307239Y-8828990D01*
X6268534Y-8790286D01*
X6229829Y-8712876D01*
X6229829Y-8480648D01*
X6268534Y-8403238D01*
X6307239Y-8364533D01*
X6384648Y-8325829D01*
X6539467Y-8325829D01*
X6616877Y-8364533D01*
X7971543Y-8325829D02*
X7971543Y-8867695D01*
X7623200Y-8325829D02*
X7623200Y-8751581D01*
X7661905Y-8828990D01*
X7739314Y-8867695D01*
X7855428Y-8867695D01*
X7932838Y-8828990D01*
X7971543Y-8790286D01*
X8358590Y-8325829D02*
X8358590Y-8867695D01*
X8358590Y-8403238D02*
X8397295Y-8364533D01*
X8474704Y-8325829D01*
X8590818Y-8325829D01*
X8668228Y-8364533D01*
X8706933Y-8441943D01*
X8706933Y-8867695D01*
X9442323Y-8867695D02*
X9442323Y-8054895D01*
X9442323Y-8828990D02*
X9364913Y-8867695D01*
X9210094Y-8867695D01*
X9132685Y-8828990D01*
X9093980Y-8790286D01*
X9055275Y-8712876D01*
X9055275Y-8480648D01*
X9093980Y-8403238D01*
X9132685Y-8364533D01*
X9210094Y-8325829D01*
X9364913Y-8325829D01*
X9442323Y-8364533D01*
X10139008Y-8828990D02*
X10061598Y-8867695D01*
X9906779Y-8867695D01*
X9829370Y-8828990D01*
X9790665Y-8751581D01*
X9790665Y-8441943D01*
X9829370Y-8364533D01*
X9906779Y-8325829D01*
X10061598Y-8325829D01*
X10139008Y-8364533D01*
X10177713Y-8441943D01*
X10177713Y-8519352D01*
X9790665Y-8596762D01*
X10526056Y-8867695D02*
X10526056Y-8325829D01*
X10526056Y-8480648D02*
X10564761Y-8403238D01*
X10603465Y-8364533D01*
X10680875Y-8325829D01*
X10758284Y-8325829D01*
X12074246Y-8093600D02*
X11996837Y-8054895D01*
X11880722Y-8054895D01*
X11764608Y-8093600D01*
X11687199Y-8171010D01*
X11648494Y-8248419D01*
X11609789Y-8403238D01*
X11609789Y-8519352D01*
X11648494Y-8674171D01*
X11687199Y-8751581D01*
X11764608Y-8828990D01*
X11880722Y-8867695D01*
X11958132Y-8867695D01*
X12074246Y-8828990D01*
X12112951Y-8790286D01*
X12112951Y-8519352D01*
X11958132Y-8519352D01*
X12461294Y-8867695D02*
X12461294Y-8054895D01*
X12925751Y-8867695D01*
X12925751Y-8054895D01*
X13312799Y-8054895D02*
X13312799Y-8712876D01*
X13351504Y-8790286D01*
X13390208Y-8828990D01*
X13467618Y-8867695D01*
X13622437Y-8867695D01*
X13699846Y-8828990D01*
X13738551Y-8790286D01*
X13777256Y-8712876D01*
X13777256Y-8054895D01*
X14744875Y-8016190D02*
X14048190Y-9061219D01*
X15441561Y-8093600D02*
X15364152Y-8054895D01*
X15248037Y-8054895D01*
X15131923Y-8093600D01*
X15054514Y-8171010D01*
X15015809Y-8248419D01*
X14977104Y-8403238D01*
X14977104Y-8519352D01*
X15015809Y-8674171D01*
X15054514Y-8751581D01*
X15131923Y-8828990D01*
X15248037Y-8867695D01*
X15325447Y-8867695D01*
X15441561Y-8828990D01*
X15480266Y-8790286D01*
X15480266Y-8519352D01*
X15325447Y-8519352D01*
X15828609Y-8867695D02*
X15828609Y-8054895D01*
X16138247Y-8054895D01*
X16215656Y-8093600D01*
X16254361Y-8132305D01*
X16293066Y-8209714D01*
X16293066Y-8325829D01*
X16254361Y-8403238D01*
X16215656Y-8441943D01*
X16138247Y-8480648D01*
X15828609Y-8480648D01*
X17028456Y-8867695D02*
X16641409Y-8867695D01*
X16641409Y-8054895D01*
X17841256Y-8054895D02*
X18344418Y-8054895D01*
X18073485Y-8364533D01*
X18189599Y-8364533D01*
X18267009Y-8403238D01*
X18305713Y-8441943D01*
X18344418Y-8519352D01*
X18344418Y-8712876D01*
X18305713Y-8790286D01*
X18267009Y-8828990D01*
X18189599Y-8867695D01*
X17957371Y-8867695D01*
X17879961Y-8828990D01*
X17841256Y-8790286D01*
X19699084Y-8867695D02*
X19312037Y-8867695D01*
X19312037Y-8054895D01*
X19970018Y-8867695D02*
X19970018Y-8325829D01*
X19970018Y-8054895D02*
X19931313Y-8093600D01*
X19970018Y-8132305D01*
X20008723Y-8093600D01*
X19970018Y-8054895D01*
X19970018Y-8132305D01*
X20705409Y-8828990D02*
X20627999Y-8867695D01*
X20473180Y-8867695D01*
X20395771Y-8828990D01*
X20357066Y-8790286D01*
X20318361Y-8712876D01*
X20318361Y-8480648D01*
X20357066Y-8403238D01*
X20395771Y-8364533D01*
X20473180Y-8325829D01*
X20627999Y-8325829D01*
X20705409Y-8364533D01*
X21363390Y-8828990D02*
X21285980Y-8867695D01*
X21131161Y-8867695D01*
X21053752Y-8828990D01*
X21015047Y-8751581D01*
X21015047Y-8441943D01*
X21053752Y-8364533D01*
X21131161Y-8325829D01*
X21285980Y-8325829D01*
X21363390Y-8364533D01*
X21402095Y-8441943D01*
X21402095Y-8519352D01*
X21015047Y-8596762D01*
X21750438Y-8325829D02*
X21750438Y-8867695D01*
X21750438Y-8403238D02*
X21789143Y-8364533D01*
X21866552Y-8325829D01*
X21982666Y-8325829D01*
X22060076Y-8364533D01*
X22098781Y-8441943D01*
X22098781Y-8867695D01*
X22447123Y-8828990D02*
X22524533Y-8867695D01*
X22679352Y-8867695D01*
X22756761Y-8828990D01*
X22795466Y-8751581D01*
X22795466Y-8712876D01*
X22756761Y-8635467D01*
X22679352Y-8596762D01*
X22563237Y-8596762D01*
X22485828Y-8558057D01*
X22447123Y-8480648D01*
X22447123Y-8441943D01*
X22485828Y-8364533D01*
X22563237Y-8325829D01*
X22679352Y-8325829D01*
X22756761Y-8364533D01*
X23453447Y-8828990D02*
X23376037Y-8867695D01*
X23221218Y-8867695D01*
X23143809Y-8828990D01*
X23105104Y-8751581D01*
X23105104Y-8441943D01*
X23143809Y-8364533D01*
X23221218Y-8325829D01*
X23376037Y-8325829D01*
X23453447Y-8364533D01*
X23492152Y-8441943D01*
X23492152Y-8519352D01*
X23105104Y-8596762D01*
D12*
X17634858Y-30839229D02*
X17634858Y-29315229D01*
X17634858Y-30040943D02*
X18505715Y-30040943D01*
X18505715Y-30839229D02*
X18505715Y-29315229D01*
X19231429Y-30839229D02*
X19231429Y-29823229D01*
X19231429Y-29315229D02*
X19158858Y-29387800D01*
X19231429Y-29460371D01*
X19304001Y-29387800D01*
X19231429Y-29315229D01*
X19231429Y-29460371D01*
X20610286Y-29823229D02*
X20610286Y-31056943D01*
X20537715Y-31202086D01*
X20465143Y-31274657D01*
X20320000Y-31347229D01*
X20102286Y-31347229D01*
X19957143Y-31274657D01*
X20610286Y-30766657D02*
X20465143Y-30839229D01*
X20174857Y-30839229D01*
X20029715Y-30766657D01*
X19957143Y-30694086D01*
X19884572Y-30548943D01*
X19884572Y-30113514D01*
X19957143Y-29968371D01*
X20029715Y-29895800D01*
X20174857Y-29823229D01*
X20465143Y-29823229D01*
X20610286Y-29895800D01*
X21336000Y-30839229D02*
X21336000Y-29315229D01*
X21989143Y-30839229D02*
X21989143Y-30040943D01*
X21916572Y-29895800D01*
X21771429Y-29823229D01*
X21553714Y-29823229D01*
X21408572Y-29895800D01*
X21336000Y-29968371D01*
X16328572Y-32414029D02*
X16909143Y-32414029D01*
X16546286Y-31906029D02*
X16546286Y-33212314D01*
X16618858Y-33357457D01*
X16764000Y-33430029D01*
X16909143Y-33430029D01*
X17634857Y-33430029D02*
X17489715Y-33357457D01*
X17417143Y-33284886D01*
X17344572Y-33139743D01*
X17344572Y-32704314D01*
X17417143Y-32559171D01*
X17489715Y-32486600D01*
X17634857Y-32414029D01*
X17852572Y-32414029D01*
X17997715Y-32486600D01*
X18070286Y-32559171D01*
X18142857Y-32704314D01*
X18142857Y-33139743D01*
X18070286Y-33284886D01*
X17997715Y-33357457D01*
X17852572Y-33430029D01*
X17634857Y-33430029D01*
X18796000Y-33430029D02*
X18796000Y-32414029D01*
X18796000Y-32704314D02*
X18868572Y-32559171D01*
X18941143Y-32486600D01*
X19086286Y-32414029D01*
X19231429Y-32414029D01*
X20392572Y-32414029D02*
X20392572Y-33938029D01*
X20392572Y-33357457D02*
X20247429Y-33430029D01*
X19957143Y-33430029D01*
X19812001Y-33357457D01*
X19739429Y-33284886D01*
X19666858Y-33139743D01*
X19666858Y-32704314D01*
X19739429Y-32559171D01*
X19812001Y-32486600D01*
X19957143Y-32414029D01*
X20247429Y-32414029D01*
X20392572Y-32486600D01*
X21771429Y-32414029D02*
X21771429Y-33430029D01*
X21118286Y-32414029D02*
X21118286Y-33212314D01*
X21190858Y-33357457D01*
X21336000Y-33430029D01*
X21553715Y-33430029D01*
X21698858Y-33357457D01*
X21771429Y-33284886D01*
X23077715Y-33357457D02*
X22932572Y-33430029D01*
X22642286Y-33430029D01*
X22497143Y-33357457D01*
X22424572Y-33212314D01*
X22424572Y-32631743D01*
X22497143Y-32486600D01*
X22642286Y-32414029D01*
X22932572Y-32414029D01*
X23077715Y-32486600D01*
X23150286Y-32631743D01*
X23150286Y-32776886D01*
X22424572Y-32922029D01*
X17090572Y-35948257D02*
X17235715Y-36020829D01*
X17526000Y-36020829D01*
X17671143Y-35948257D01*
X17743715Y-35803114D01*
X17743715Y-35730543D01*
X17671143Y-35585400D01*
X17526000Y-35512829D01*
X17308286Y-35512829D01*
X17163143Y-35440257D01*
X17090572Y-35295114D01*
X17090572Y-35222543D01*
X17163143Y-35077400D01*
X17308286Y-35004829D01*
X17526000Y-35004829D01*
X17671143Y-35077400D01*
X18977429Y-35948257D02*
X18832286Y-36020829D01*
X18542000Y-36020829D01*
X18396857Y-35948257D01*
X18324286Y-35803114D01*
X18324286Y-35222543D01*
X18396857Y-35077400D01*
X18542000Y-35004829D01*
X18832286Y-35004829D01*
X18977429Y-35077400D01*
X19050000Y-35222543D01*
X19050000Y-35367686D01*
X18324286Y-35512829D01*
X19703143Y-36020829D02*
X19703143Y-35004829D01*
X19703143Y-35295114D02*
X19775715Y-35149971D01*
X19848286Y-35077400D01*
X19993429Y-35004829D01*
X20138572Y-35004829D01*
X20501429Y-35004829D02*
X20864286Y-36020829D01*
X21227144Y-35004829D01*
X22025429Y-36020829D02*
X21880287Y-35948257D01*
X21807715Y-35875686D01*
X21735144Y-35730543D01*
X21735144Y-35295114D01*
X21807715Y-35149971D01*
X21880287Y-35077400D01*
X22025429Y-35004829D01*
X22243144Y-35004829D01*
X22388287Y-35077400D01*
X22460858Y-35149971D01*
X22533429Y-35295114D01*
X22533429Y-35730543D01*
X22460858Y-35875686D01*
X22388287Y-35948257D01*
X22243144Y-36020829D01*
X22025429Y-36020829D01*
X18650857Y-38611629D02*
X18650857Y-37813343D01*
X18578286Y-37668200D01*
X18433143Y-37595629D01*
X18142857Y-37595629D01*
X17997714Y-37668200D01*
X18650857Y-38539057D02*
X18505714Y-38611629D01*
X18142857Y-38611629D01*
X17997714Y-38539057D01*
X17925143Y-38393914D01*
X17925143Y-38248771D01*
X17997714Y-38103629D01*
X18142857Y-38031057D01*
X18505714Y-38031057D01*
X18650857Y-37958486D01*
X19376571Y-38611629D02*
X19376571Y-37595629D01*
X19376571Y-37885914D02*
X19449143Y-37740771D01*
X19521714Y-37668200D01*
X19666857Y-37595629D01*
X19812000Y-37595629D01*
X20320000Y-38611629D02*
X20320000Y-37595629D01*
X20320000Y-37740771D02*
X20392572Y-37668200D01*
X20537714Y-37595629D01*
X20755429Y-37595629D01*
X20900572Y-37668200D01*
X20973143Y-37813343D01*
X20973143Y-38611629D01*
X20973143Y-37813343D02*
X21045714Y-37668200D01*
X21190857Y-37595629D01*
X21408572Y-37595629D01*
X21553714Y-37668200D01*
X21626286Y-37813343D01*
X21626286Y-38611629D01*
D13*
X20636000Y-25676000D02*
X22036000Y-25676000D01*
X22036000Y-25676000D02*
X22036000Y-22876000D01*
X20636000Y-25676000D02*
X20636000Y-22876000D01*
X22668000Y-25676000D02*
X24068000Y-25676000D01*
X24068000Y-25676000D02*
X24068000Y-22876000D01*
X22668000Y-25676000D02*
X22668000Y-22876000D01*
D14*
X2594000Y-9634500D02*
X2594000Y-16365500D01*
X22406000Y-9634500D02*
X22406000Y-16365500D01*
X2594000Y-16365500D02*
X22406000Y-16365500D01*
X2594000Y-9634500D02*
X22406000Y-9634500D01*
X20120000Y-27302000D02*
X4880000Y-27302000D01*
X20120000Y-20200000D02*
X20120000Y-28800000D01*
X4880000Y-28800000D02*
X4880000Y-20200000D01*
X20120000Y-20200000D02*
X4880000Y-20200000D01*
X4880000Y-28800000D02*
X20120000Y-28800000D01*
D15*
G36*
X7317481Y-31665446D02*
X7359448Y-31744930D01*
X7423749Y-31782906D01*
X7481996Y-31813551D01*
X7507089Y-31847257D01*
X7507111Y-31848083D01*
X7529503Y-31905810D01*
X7583181Y-31930696D01*
X7644881Y-31914871D01*
X7682446Y-31898576D01*
X7719469Y-31907410D01*
X7770626Y-31947891D01*
X7814212Y-31990083D01*
X7873364Y-32053741D01*
X7909172Y-32101878D01*
X7914614Y-32119671D01*
X7928948Y-32144750D01*
X7978139Y-32188369D01*
X8017403Y-32217255D01*
X8102743Y-32293665D01*
X8171869Y-32386971D01*
X8215187Y-32480911D01*
X8223103Y-32559224D01*
X8222003Y-32564009D01*
X8235549Y-32623711D01*
X8300849Y-32694073D01*
X8375202Y-32745751D01*
X8444949Y-32761694D01*
X8498049Y-32757867D01*
X8569617Y-32754630D01*
X8622379Y-32775799D01*
X8680635Y-32831853D01*
X8687519Y-32839579D01*
X8744955Y-32897389D01*
X8790898Y-32931466D01*
X8802925Y-32935334D01*
X8832261Y-32954098D01*
X8833555Y-32961654D01*
X8856560Y-32991464D01*
X8882944Y-33004264D01*
X8932515Y-33037727D01*
X8985662Y-33096784D01*
X8988777Y-33101154D01*
X9040721Y-33168937D01*
X9111466Y-33253625D01*
X9154226Y-33302024D01*
X9227371Y-33371701D01*
X9275018Y-33391751D01*
X9296510Y-33362282D01*
X9291189Y-33283405D01*
X9290410Y-33279231D01*
X9283949Y-33228343D01*
X9298580Y-33223941D01*
X9322895Y-33242178D01*
X9363837Y-33303638D01*
X9362808Y-33371178D01*
X9342896Y-33402482D01*
X9330432Y-33445719D01*
X9331115Y-33525525D01*
X9336142Y-33570076D01*
X9359889Y-33669695D01*
X9396979Y-33714857D01*
X9450769Y-33706617D01*
X9499354Y-33666759D01*
X9567333Y-33666759D01*
X9584333Y-33695359D01*
X9644023Y-33723315D01*
X9644058Y-33723328D01*
X9641232Y-33703954D01*
X9638918Y-33697334D01*
X9736666Y-33697334D01*
X9746992Y-33720564D01*
X9755481Y-33716148D01*
X9758859Y-33682655D01*
X9755481Y-33678519D01*
X9738703Y-33682393D01*
X9736666Y-33697334D01*
X9638918Y-33697334D01*
X9633983Y-33683222D01*
X9606499Y-33647590D01*
X9577142Y-33643881D01*
X9567333Y-33666759D01*
X9499354Y-33666759D01*
X9524618Y-33646034D01*
X9536924Y-33633250D01*
X9604994Y-33571608D01*
X9663603Y-33548621D01*
X9707876Y-33550119D01*
X9768868Y-33548193D01*
X9828470Y-33516573D01*
X9892359Y-33458856D01*
X9950909Y-33390143D01*
X9979892Y-33334528D01*
X9980180Y-33315604D01*
X9988270Y-33270016D01*
X10017470Y-33238659D01*
X10063055Y-33197900D01*
X10128351Y-33129219D01*
X10187323Y-33061498D01*
X10251957Y-32979405D01*
X10260712Y-32963556D01*
X10668000Y-32963556D01*
X10677629Y-32991044D01*
X10680445Y-32991778D01*
X10704540Y-32972002D01*
X10710333Y-32963556D01*
X10708095Y-32937549D01*
X10697887Y-32935334D01*
X10669148Y-32955820D01*
X10668000Y-32963556D01*
X10260712Y-32963556D01*
X10284827Y-32919902D01*
X10293442Y-32865038D01*
X10288895Y-32818684D01*
X10287391Y-32733358D01*
X10320669Y-32679065D01*
X10397686Y-32645023D01*
X10441617Y-32634888D01*
X10518625Y-32603185D01*
X10548764Y-32561446D01*
X10574931Y-32529164D01*
X10817821Y-32529164D01*
X10822549Y-32539134D01*
X10851466Y-32555919D01*
X10883375Y-32537144D01*
X10907862Y-32497404D01*
X10894973Y-32473685D01*
X10856118Y-32462800D01*
X10823449Y-32487574D01*
X10817821Y-32529164D01*
X10574931Y-32529164D01*
X10581002Y-32521675D01*
X10649251Y-32473561D01*
X10736129Y-32427077D01*
X10824258Y-32392196D01*
X10859903Y-32382900D01*
X10924367Y-32350973D01*
X10966713Y-32296418D01*
X10979019Y-32236797D01*
X10953365Y-32189672D01*
X10948533Y-32186401D01*
X10942095Y-32166216D01*
X11355758Y-32166216D01*
X11364915Y-32183508D01*
X11406611Y-32199551D01*
X11439344Y-32161415D01*
X11440206Y-32159222D01*
X11436148Y-32122763D01*
X11416668Y-32116889D01*
X11371031Y-32132683D01*
X11355758Y-32166216D01*
X10942095Y-32166216D01*
X10939442Y-32157902D01*
X10960648Y-32135346D01*
X10997477Y-32082773D01*
X11011725Y-32034354D01*
X11045256Y-31967353D01*
X11103967Y-31919988D01*
X11178828Y-31860737D01*
X11233942Y-31790856D01*
X11277301Y-31733029D01*
X11333917Y-31711864D01*
X11382544Y-31710794D01*
X11455165Y-31705833D01*
X11494041Y-31677196D01*
X11511396Y-31640238D01*
X11530907Y-31601188D01*
X11540532Y-31610444D01*
X11540660Y-31612502D01*
X11564150Y-31662519D01*
X11601919Y-31697644D01*
X11650663Y-31758614D01*
X11683165Y-31858382D01*
X11683740Y-31861471D01*
X11706531Y-31986103D01*
X11434210Y-32277966D01*
X11310876Y-32406801D01*
X11215690Y-32497706D01*
X11141473Y-32556779D01*
X11081050Y-32590113D01*
X11057247Y-32598126D01*
X10967457Y-32631505D01*
X10931265Y-32670335D01*
X10945864Y-32718000D01*
X10951627Y-32725359D01*
X10961389Y-32751003D01*
X10948598Y-32786997D01*
X10907810Y-32841434D01*
X10833586Y-32922409D01*
X10786453Y-32971068D01*
X10691694Y-33069511D01*
X10603389Y-33163961D01*
X10534783Y-33240139D01*
X10511265Y-33267817D01*
X10446027Y-33331536D01*
X10392089Y-33345988D01*
X10384152Y-33344040D01*
X10326315Y-33352915D01*
X10242419Y-33409097D01*
X10212370Y-33434890D01*
X10117255Y-33520833D01*
X10053418Y-33583162D01*
X10009450Y-33635188D01*
X9973939Y-33690224D01*
X9940302Y-33752336D01*
X9875827Y-33875654D01*
X9950525Y-33953622D01*
X9997688Y-34007956D01*
X10009156Y-34048889D01*
X9989945Y-34102119D01*
X9982471Y-34117287D01*
X9956482Y-34179777D01*
X9960553Y-34216055D01*
X9978938Y-34235533D01*
X10034878Y-34254374D01*
X10087008Y-34250800D01*
X10141524Y-34249419D01*
X10193830Y-34282277D01*
X10235541Y-34326842D01*
X10301861Y-34386311D01*
X10396982Y-34438572D01*
X10530392Y-34487937D01*
X10688690Y-34532846D01*
X10710091Y-34558481D01*
X10699808Y-34597848D01*
X10667304Y-34626045D01*
X10652271Y-34628667D01*
X10607150Y-34606780D01*
X10590028Y-34585188D01*
X10546479Y-34555749D01*
X10518070Y-34559985D01*
X10474399Y-34594094D01*
X10477874Y-34638281D01*
X10521930Y-34685269D01*
X10600002Y-34727780D01*
X10695309Y-34756488D01*
X10784441Y-34792145D01*
X10863376Y-34849681D01*
X10864643Y-34850981D01*
X10941513Y-34907062D01*
X11014828Y-34915963D01*
X11064755Y-34919077D01*
X11117891Y-34945578D01*
X11186456Y-35003164D01*
X11245212Y-35061035D01*
X11321304Y-35139715D01*
X11363564Y-35191206D01*
X11377995Y-35228312D01*
X11370600Y-35263833D01*
X11355175Y-35295528D01*
X11329908Y-35354223D01*
X11338369Y-35391399D01*
X11377007Y-35427359D01*
X11447104Y-35462219D01*
X11499235Y-35464076D01*
X11542337Y-35468067D01*
X11603102Y-35501819D01*
X11689238Y-35570260D01*
X11750377Y-35624617D01*
X11942826Y-35799889D01*
X11840550Y-35918532D01*
X11765484Y-35994135D01*
X11710825Y-36021777D01*
X11692126Y-36019465D01*
X11659444Y-36016612D01*
X11663756Y-36048086D01*
X11672616Y-36097532D01*
X11654136Y-36109549D01*
X11620351Y-36087152D01*
X11583294Y-36033355D01*
X11580256Y-36027171D01*
X11532172Y-35952727D01*
X11485155Y-35927375D01*
X11444826Y-35954022D01*
X11443344Y-35956352D01*
X11444357Y-35998521D01*
X11472045Y-36057410D01*
X11502501Y-36129817D01*
X11495035Y-36184835D01*
X11451943Y-36208923D01*
X11446324Y-36209111D01*
X11361251Y-36189723D01*
X11286008Y-36141459D01*
X11243357Y-36079170D01*
X11242535Y-36076141D01*
X11205866Y-36017639D01*
X11136091Y-35962022D01*
X11123267Y-35954804D01*
X11029503Y-35895953D01*
X10942573Y-35826130D01*
X10896086Y-35778596D01*
X11238122Y-35778596D01*
X11251259Y-35795185D01*
X11296460Y-35814180D01*
X11335856Y-35797858D01*
X11345333Y-35771667D01*
X11331860Y-35751925D01*
X11576972Y-35751925D01*
X11599978Y-35793454D01*
X11635970Y-35830246D01*
X11686164Y-35883526D01*
X11711486Y-35923592D01*
X11712222Y-35928031D01*
X11735098Y-35952062D01*
X11754555Y-35955111D01*
X11790123Y-35932056D01*
X11796456Y-35905722D01*
X11777969Y-35831171D01*
X11717565Y-35778676D01*
X11672456Y-35758532D01*
X11601542Y-35739477D01*
X11576972Y-35751925D01*
X11331860Y-35751925D01*
X11321804Y-35737191D01*
X11288889Y-35729334D01*
X11239722Y-35743457D01*
X11238122Y-35778596D01*
X10896086Y-35778596D01*
X10875120Y-35757159D01*
X10839790Y-35700866D01*
X10837333Y-35687398D01*
X10828420Y-35665450D01*
X10981090Y-35665450D01*
X10989186Y-35692850D01*
X11019636Y-35717328D01*
X11084895Y-35747851D01*
X11129341Y-35731509D01*
X11139338Y-35712317D01*
X11131351Y-35670572D01*
X11107549Y-35629415D01*
X11074180Y-35591711D01*
X11045483Y-35597254D01*
X11015447Y-35625225D01*
X10981090Y-35665450D01*
X10828420Y-35665450D01*
X10821978Y-35649590D01*
X10808654Y-35644667D01*
X10779214Y-35621574D01*
X10742129Y-35564306D01*
X10733173Y-35546521D01*
X10685681Y-35474909D01*
X10614395Y-35427429D01*
X10555917Y-35405046D01*
X10531883Y-35393533D01*
X10871468Y-35393533D01*
X10880547Y-35438839D01*
X10899024Y-35474192D01*
X10910056Y-35456782D01*
X10914751Y-35437847D01*
X10917349Y-35386550D01*
X10911294Y-35371852D01*
X11100740Y-35371852D01*
X11104614Y-35388630D01*
X11119555Y-35390667D01*
X11142785Y-35380341D01*
X11138370Y-35371852D01*
X11104877Y-35368474D01*
X11100740Y-35371852D01*
X10911294Y-35371852D01*
X10910383Y-35369643D01*
X10883497Y-35362916D01*
X10871468Y-35393533D01*
X10531883Y-35393533D01*
X10490989Y-35373944D01*
X10413479Y-35323015D01*
X10332404Y-35260394D01*
X10256780Y-35194215D01*
X10255684Y-35193111D01*
X10710333Y-35193111D01*
X10712571Y-35219118D01*
X10722778Y-35221334D01*
X10751518Y-35200847D01*
X10752666Y-35193111D01*
X10743037Y-35165623D01*
X10740221Y-35164889D01*
X10716125Y-35184665D01*
X10710333Y-35193111D01*
X10255684Y-35193111D01*
X10195623Y-35132612D01*
X10157951Y-35083720D01*
X10152781Y-35055671D01*
X10164564Y-35052000D01*
X10219153Y-35072172D01*
X10245797Y-35095695D01*
X10297787Y-35126897D01*
X10357696Y-35126246D01*
X10400904Y-35096309D01*
X10407640Y-35078801D01*
X10397989Y-35029171D01*
X10363710Y-34959186D01*
X10349998Y-34937690D01*
X10292622Y-34870002D01*
X10231792Y-34842846D01*
X10196531Y-34840334D01*
X10115777Y-34822013D01*
X10032856Y-34761502D01*
X10012642Y-34741556D01*
X9935925Y-34671940D01*
X9857862Y-34614549D01*
X9833513Y-34600445D01*
X9764882Y-34557738D01*
X9717793Y-34515778D01*
X9674031Y-34458850D01*
X9642291Y-34417000D01*
X9611786Y-34381702D01*
X9592168Y-34388045D01*
X9568645Y-34441592D01*
X9567249Y-34445222D01*
X9534726Y-34529889D01*
X9482700Y-34466011D01*
X9440809Y-34408165D01*
X9419518Y-34368665D01*
X9391688Y-34357085D01*
X9336976Y-34377557D01*
X9268277Y-34422084D01*
X9198486Y-34482673D01*
X9153246Y-34533764D01*
X9111574Y-34593914D01*
X9103923Y-34630931D01*
X9126582Y-34663659D01*
X9127486Y-34664566D01*
X9153546Y-34700872D01*
X9137963Y-34734325D01*
X9116318Y-34755178D01*
X9065678Y-34785225D01*
X9032836Y-34784955D01*
X9002387Y-34793595D01*
X8976395Y-34835787D01*
X8932458Y-34905763D01*
X8885026Y-34950707D01*
X8837056Y-34996459D01*
X8819745Y-35033758D01*
X8801467Y-35070559D01*
X8753053Y-35135827D01*
X8683688Y-35217533D01*
X8657166Y-35246700D01*
X8578768Y-35329956D01*
X8530554Y-35375483D01*
X8505338Y-35387855D01*
X8495933Y-35371644D01*
X8494889Y-35349942D01*
X8483574Y-35290530D01*
X8451725Y-35283438D01*
X8409782Y-35320641D01*
X8389988Y-35362137D01*
X8413209Y-35406331D01*
X8421150Y-35415372D01*
X8452459Y-35457270D01*
X8443036Y-35486532D01*
X8420808Y-35506565D01*
X8369632Y-35541233D01*
X8289024Y-35588003D01*
X8230257Y-35619273D01*
X8143290Y-35669309D01*
X8093486Y-35717303D01*
X8064931Y-35780417D01*
X8058105Y-35804961D01*
X8027183Y-35878774D01*
X7965488Y-35971339D01*
X7868194Y-36089333D01*
X7789830Y-36176078D01*
X7697359Y-36274519D01*
X7618371Y-36355735D01*
X7560789Y-36411783D01*
X7532533Y-36434720D01*
X7531698Y-36434889D01*
X7503896Y-36415387D01*
X7453778Y-36365646D01*
X7420730Y-36329056D01*
X7372036Y-36278308D01*
X7485422Y-36278308D01*
X7520574Y-36294313D01*
X7556500Y-36299894D01*
X7625417Y-36302278D01*
X7662263Y-36277176D01*
X7685326Y-36210924D01*
X7687449Y-36202056D01*
X7688960Y-36141782D01*
X7658416Y-36124421D01*
X7600896Y-36150379D01*
X7550898Y-36191181D01*
X7495700Y-36247224D01*
X7485422Y-36278308D01*
X7372036Y-36278308D01*
X7357793Y-36263465D01*
X7302730Y-36217110D01*
X7283751Y-36206232D01*
X7257603Y-36190402D01*
X7282486Y-36174534D01*
X7295444Y-36169922D01*
X7342148Y-36138386D01*
X7391492Y-36083221D01*
X7432606Y-36020713D01*
X7454619Y-35967147D01*
X7448961Y-35939946D01*
X7423600Y-35897567D01*
X7446369Y-35830360D01*
X7517769Y-35736888D01*
X7521222Y-35733050D01*
X7577400Y-35665260D01*
X7613181Y-35611308D01*
X7620000Y-35592333D01*
X7643203Y-35563196D01*
X7702918Y-35521540D01*
X7757720Y-35491163D01*
X7838631Y-35446370D01*
X7882715Y-35404951D01*
X7904908Y-35347781D01*
X7915212Y-35289524D01*
X7934428Y-35179036D01*
X7951636Y-35121646D01*
X8240889Y-35121646D01*
X8259680Y-35158430D01*
X8303142Y-35159587D01*
X8351904Y-35124797D01*
X8352990Y-35123505D01*
X8377403Y-35076813D01*
X8377612Y-35056381D01*
X8348924Y-35042551D01*
X8301552Y-35056474D01*
X8258065Y-35087376D01*
X8240889Y-35121646D01*
X7951636Y-35121646D01*
X7953807Y-35114407D01*
X7977534Y-35085193D01*
X7999100Y-35080222D01*
X8043038Y-35059704D01*
X8097053Y-35011728D01*
X8141245Y-34956667D01*
X8156222Y-34919371D01*
X8177547Y-34883240D01*
X8222448Y-34845766D01*
X8281468Y-34787716D01*
X8323891Y-34717351D01*
X8372808Y-34648544D01*
X8443379Y-34601920D01*
X8517095Y-34585989D01*
X8569970Y-34604201D01*
X8593845Y-34645440D01*
X8572766Y-34679612D01*
X8518173Y-34697297D01*
X8461049Y-34693866D01*
X8404514Y-34685580D01*
X8385570Y-34701690D01*
X8392738Y-34756154D01*
X8396252Y-34772675D01*
X8414385Y-34848205D01*
X8432994Y-34875090D01*
X8464053Y-34859943D01*
X8498344Y-34829060D01*
X8550481Y-34787099D01*
X8586007Y-34769778D01*
X8617287Y-34750854D01*
X8672366Y-34702128D01*
X8717427Y-34656889D01*
X8787896Y-34593590D01*
X8853179Y-34552628D01*
X8884029Y-34544000D01*
X8945234Y-34519982D01*
X8999989Y-34462122D01*
X9029749Y-34391708D01*
X9031111Y-34375176D01*
X9009280Y-34327340D01*
X8974666Y-34296550D01*
X8930431Y-34256772D01*
X8918222Y-34229372D01*
X8898000Y-34188121D01*
X8886773Y-34177111D01*
X9158111Y-34177111D01*
X9164509Y-34201272D01*
X9184667Y-34205334D01*
X9223281Y-34190599D01*
X9228666Y-34177111D01*
X9208410Y-34149697D01*
X9202110Y-34148889D01*
X9163887Y-34169404D01*
X9158111Y-34177111D01*
X8886773Y-34177111D01*
X8868833Y-34159520D01*
X8837072Y-34129702D01*
X8853560Y-34112878D01*
X8884072Y-34103433D01*
X8928579Y-34085537D01*
X8923603Y-34058950D01*
X8904559Y-34036495D01*
X8875563Y-33982862D01*
X8875407Y-33948359D01*
X8860878Y-33916277D01*
X8810677Y-33853939D01*
X8787598Y-33828917D01*
X8933704Y-33828917D01*
X8934885Y-33905338D01*
X8969986Y-33964849D01*
X9025912Y-33993620D01*
X9080111Y-33983540D01*
X9125204Y-33970124D01*
X9155723Y-33999138D01*
X9167611Y-34023040D01*
X9198393Y-34068341D01*
X9233169Y-34094908D01*
X9255238Y-34091607D01*
X9256889Y-34082545D01*
X9246337Y-34036187D01*
X9221635Y-33974291D01*
X9193211Y-33919618D01*
X9171492Y-33894931D01*
X9170915Y-33894889D01*
X9136162Y-33877329D01*
X9081543Y-33834098D01*
X9070777Y-33824334D01*
X9006484Y-33770585D01*
X8968138Y-33759717D01*
X8944549Y-33792104D01*
X8933704Y-33828917D01*
X8787598Y-33828917D01*
X8731628Y-33768235D01*
X8630558Y-33666056D01*
X8514292Y-33554294D01*
X8389655Y-33439839D01*
X8314511Y-33374179D01*
X8607777Y-33374179D01*
X8627906Y-33435688D01*
X8675913Y-33505133D01*
X8733233Y-33558632D01*
X8762027Y-33572611D01*
X8828025Y-33608659D01*
X8877030Y-33660704D01*
X8916794Y-33707017D01*
X8948875Y-33705358D01*
X8955714Y-33699353D01*
X8971870Y-33660008D01*
X8949705Y-33599872D01*
X8946031Y-33593290D01*
X8896268Y-33528136D01*
X8848096Y-33488455D01*
X8784186Y-33439988D01*
X8754773Y-33408056D01*
X8713863Y-33376724D01*
X8661033Y-33358807D01*
X8618864Y-33359511D01*
X8607777Y-33374179D01*
X8314511Y-33374179D01*
X8263472Y-33329582D01*
X8257479Y-33324501D01*
X8175292Y-33254930D01*
X8228957Y-33201265D01*
X8504033Y-33201265D01*
X8534870Y-33217556D01*
X8573747Y-33194832D01*
X8579555Y-33172871D01*
X8563146Y-33139955D01*
X8546041Y-33139357D01*
X8508772Y-33167448D01*
X8504033Y-33201265D01*
X8228957Y-33201265D01*
X8236312Y-33193910D01*
X8272937Y-33150704D01*
X8266592Y-33133899D01*
X8255000Y-33132889D01*
X8217442Y-33117677D01*
X8212666Y-33104719D01*
X8190553Y-33075370D01*
X8133633Y-33029711D01*
X8081135Y-32994681D01*
X7949604Y-32912814D01*
X8024691Y-32843227D01*
X8081062Y-32786954D01*
X8092891Y-32755963D01*
X8059015Y-32739424D01*
X8012689Y-32731402D01*
X7947164Y-32730270D01*
X7911698Y-32760474D01*
X7898751Y-32789239D01*
X7887363Y-32861806D01*
X7901173Y-32889129D01*
X7927982Y-32929478D01*
X7930444Y-32940978D01*
X7914091Y-32963697D01*
X7864664Y-32942568D01*
X7781611Y-32877272D01*
X7716625Y-32817913D01*
X7629050Y-32728262D01*
X7584485Y-32664400D01*
X7578544Y-32622122D01*
X7574953Y-32548740D01*
X7525022Y-32480387D01*
X7438391Y-32429324D01*
X7422670Y-32423864D01*
X7338547Y-32384956D01*
X7257774Y-32328352D01*
X7195949Y-32267151D01*
X7168672Y-32214451D01*
X7168444Y-32210387D01*
X7155934Y-32185480D01*
X7525881Y-32185480D01*
X7533223Y-32233519D01*
X7557672Y-32256396D01*
X7621378Y-32283681D01*
X7647550Y-32269612D01*
X7648222Y-32262374D01*
X7629398Y-32227141D01*
X7595264Y-32190600D01*
X7554249Y-32159632D01*
X7533295Y-32169067D01*
X7525881Y-32185480D01*
X7155934Y-32185480D01*
X7151348Y-32176352D01*
X7140222Y-32173334D01*
X7113757Y-32156896D01*
X7120421Y-32127537D01*
X7147277Y-32114851D01*
X7185445Y-32093416D01*
X7240323Y-32041777D01*
X7264253Y-32014578D01*
X7345950Y-31916342D01*
X7157998Y-31722424D01*
X7226286Y-31649735D01*
X7294574Y-31577045D01*
X7317481Y-31665446D01*
X7317481Y-31665446D01*
G37*
X7317481Y-31665446D02*
X7359448Y-31744930D01*
X7423749Y-31782906D01*
X7481996Y-31813551D01*
X7507089Y-31847257D01*
X7507111Y-31848083D01*
X7529503Y-31905810D01*
X7583181Y-31930696D01*
X7644881Y-31914871D01*
X7682446Y-31898576D01*
X7719469Y-31907410D01*
X7770626Y-31947891D01*
X7814212Y-31990083D01*
X7873364Y-32053741D01*
X7909172Y-32101878D01*
X7914614Y-32119671D01*
X7928948Y-32144750D01*
X7978139Y-32188369D01*
X8017403Y-32217255D01*
X8102743Y-32293665D01*
X8171869Y-32386971D01*
X8215187Y-32480911D01*
X8223103Y-32559224D01*
X8222003Y-32564009D01*
X8235549Y-32623711D01*
X8300849Y-32694073D01*
X8375202Y-32745751D01*
X8444949Y-32761694D01*
X8498049Y-32757867D01*
X8569617Y-32754630D01*
X8622379Y-32775799D01*
X8680635Y-32831853D01*
X8687519Y-32839579D01*
X8744955Y-32897389D01*
X8790898Y-32931466D01*
X8802925Y-32935334D01*
X8832261Y-32954098D01*
X8833555Y-32961654D01*
X8856560Y-32991464D01*
X8882944Y-33004264D01*
X8932515Y-33037727D01*
X8985662Y-33096784D01*
X8988777Y-33101154D01*
X9040721Y-33168937D01*
X9111466Y-33253625D01*
X9154226Y-33302024D01*
X9227371Y-33371701D01*
X9275018Y-33391751D01*
X9296510Y-33362282D01*
X9291189Y-33283405D01*
X9290410Y-33279231D01*
X9283949Y-33228343D01*
X9298580Y-33223941D01*
X9322895Y-33242178D01*
X9363837Y-33303638D01*
X9362808Y-33371178D01*
X9342896Y-33402482D01*
X9330432Y-33445719D01*
X9331115Y-33525525D01*
X9336142Y-33570076D01*
X9359889Y-33669695D01*
X9396979Y-33714857D01*
X9450769Y-33706617D01*
X9499354Y-33666759D01*
X9567333Y-33666759D01*
X9584333Y-33695359D01*
X9644023Y-33723315D01*
X9644058Y-33723328D01*
X9641232Y-33703954D01*
X9638918Y-33697334D01*
X9736666Y-33697334D01*
X9746992Y-33720564D01*
X9755481Y-33716148D01*
X9758859Y-33682655D01*
X9755481Y-33678519D01*
X9738703Y-33682393D01*
X9736666Y-33697334D01*
X9638918Y-33697334D01*
X9633983Y-33683222D01*
X9606499Y-33647590D01*
X9577142Y-33643881D01*
X9567333Y-33666759D01*
X9499354Y-33666759D01*
X9524618Y-33646034D01*
X9536924Y-33633250D01*
X9604994Y-33571608D01*
X9663603Y-33548621D01*
X9707876Y-33550119D01*
X9768868Y-33548193D01*
X9828470Y-33516573D01*
X9892359Y-33458856D01*
X9950909Y-33390143D01*
X9979892Y-33334528D01*
X9980180Y-33315604D01*
X9988270Y-33270016D01*
X10017470Y-33238659D01*
X10063055Y-33197900D01*
X10128351Y-33129219D01*
X10187323Y-33061498D01*
X10251957Y-32979405D01*
X10260712Y-32963556D01*
X10668000Y-32963556D01*
X10677629Y-32991044D01*
X10680445Y-32991778D01*
X10704540Y-32972002D01*
X10710333Y-32963556D01*
X10708095Y-32937549D01*
X10697887Y-32935334D01*
X10669148Y-32955820D01*
X10668000Y-32963556D01*
X10260712Y-32963556D01*
X10284827Y-32919902D01*
X10293442Y-32865038D01*
X10288895Y-32818684D01*
X10287391Y-32733358D01*
X10320669Y-32679065D01*
X10397686Y-32645023D01*
X10441617Y-32634888D01*
X10518625Y-32603185D01*
X10548764Y-32561446D01*
X10574931Y-32529164D01*
X10817821Y-32529164D01*
X10822549Y-32539134D01*
X10851466Y-32555919D01*
X10883375Y-32537144D01*
X10907862Y-32497404D01*
X10894973Y-32473685D01*
X10856118Y-32462800D01*
X10823449Y-32487574D01*
X10817821Y-32529164D01*
X10574931Y-32529164D01*
X10581002Y-32521675D01*
X10649251Y-32473561D01*
X10736129Y-32427077D01*
X10824258Y-32392196D01*
X10859903Y-32382900D01*
X10924367Y-32350973D01*
X10966713Y-32296418D01*
X10979019Y-32236797D01*
X10953365Y-32189672D01*
X10948533Y-32186401D01*
X10942095Y-32166216D01*
X11355758Y-32166216D01*
X11364915Y-32183508D01*
X11406611Y-32199551D01*
X11439344Y-32161415D01*
X11440206Y-32159222D01*
X11436148Y-32122763D01*
X11416668Y-32116889D01*
X11371031Y-32132683D01*
X11355758Y-32166216D01*
X10942095Y-32166216D01*
X10939442Y-32157902D01*
X10960648Y-32135346D01*
X10997477Y-32082773D01*
X11011725Y-32034354D01*
X11045256Y-31967353D01*
X11103967Y-31919988D01*
X11178828Y-31860737D01*
X11233942Y-31790856D01*
X11277301Y-31733029D01*
X11333917Y-31711864D01*
X11382544Y-31710794D01*
X11455165Y-31705833D01*
X11494041Y-31677196D01*
X11511396Y-31640238D01*
X11530907Y-31601188D01*
X11540532Y-31610444D01*
X11540660Y-31612502D01*
X11564150Y-31662519D01*
X11601919Y-31697644D01*
X11650663Y-31758614D01*
X11683165Y-31858382D01*
X11683740Y-31861471D01*
X11706531Y-31986103D01*
X11434210Y-32277966D01*
X11310876Y-32406801D01*
X11215690Y-32497706D01*
X11141473Y-32556779D01*
X11081050Y-32590113D01*
X11057247Y-32598126D01*
X10967457Y-32631505D01*
X10931265Y-32670335D01*
X10945864Y-32718000D01*
X10951627Y-32725359D01*
X10961389Y-32751003D01*
X10948598Y-32786997D01*
X10907810Y-32841434D01*
X10833586Y-32922409D01*
X10786453Y-32971068D01*
X10691694Y-33069511D01*
X10603389Y-33163961D01*
X10534783Y-33240139D01*
X10511265Y-33267817D01*
X10446027Y-33331536D01*
X10392089Y-33345988D01*
X10384152Y-33344040D01*
X10326315Y-33352915D01*
X10242419Y-33409097D01*
X10212370Y-33434890D01*
X10117255Y-33520833D01*
X10053418Y-33583162D01*
X10009450Y-33635188D01*
X9973939Y-33690224D01*
X9940302Y-33752336D01*
X9875827Y-33875654D01*
X9950525Y-33953622D01*
X9997688Y-34007956D01*
X10009156Y-34048889D01*
X9989945Y-34102119D01*
X9982471Y-34117287D01*
X9956482Y-34179777D01*
X9960553Y-34216055D01*
X9978938Y-34235533D01*
X10034878Y-34254374D01*
X10087008Y-34250800D01*
X10141524Y-34249419D01*
X10193830Y-34282277D01*
X10235541Y-34326842D01*
X10301861Y-34386311D01*
X10396982Y-34438572D01*
X10530392Y-34487937D01*
X10688690Y-34532846D01*
X10710091Y-34558481D01*
X10699808Y-34597848D01*
X10667304Y-34626045D01*
X10652271Y-34628667D01*
X10607150Y-34606780D01*
X10590028Y-34585188D01*
X10546479Y-34555749D01*
X10518070Y-34559985D01*
X10474399Y-34594094D01*
X10477874Y-34638281D01*
X10521930Y-34685269D01*
X10600002Y-34727780D01*
X10695309Y-34756488D01*
X10784441Y-34792145D01*
X10863376Y-34849681D01*
X10864643Y-34850981D01*
X10941513Y-34907062D01*
X11014828Y-34915963D01*
X11064755Y-34919077D01*
X11117891Y-34945578D01*
X11186456Y-35003164D01*
X11245212Y-35061035D01*
X11321304Y-35139715D01*
X11363564Y-35191206D01*
X11377995Y-35228312D01*
X11370600Y-35263833D01*
X11355175Y-35295528D01*
X11329908Y-35354223D01*
X11338369Y-35391399D01*
X11377007Y-35427359D01*
X11447104Y-35462219D01*
X11499235Y-35464076D01*
X11542337Y-35468067D01*
X11603102Y-35501819D01*
X11689238Y-35570260D01*
X11750377Y-35624617D01*
X11942826Y-35799889D01*
X11840550Y-35918532D01*
X11765484Y-35994135D01*
X11710825Y-36021777D01*
X11692126Y-36019465D01*
X11659444Y-36016612D01*
X11663756Y-36048086D01*
X11672616Y-36097532D01*
X11654136Y-36109549D01*
X11620351Y-36087152D01*
X11583294Y-36033355D01*
X11580256Y-36027171D01*
X11532172Y-35952727D01*
X11485155Y-35927375D01*
X11444826Y-35954022D01*
X11443344Y-35956352D01*
X11444357Y-35998521D01*
X11472045Y-36057410D01*
X11502501Y-36129817D01*
X11495035Y-36184835D01*
X11451943Y-36208923D01*
X11446324Y-36209111D01*
X11361251Y-36189723D01*
X11286008Y-36141459D01*
X11243357Y-36079170D01*
X11242535Y-36076141D01*
X11205866Y-36017639D01*
X11136091Y-35962022D01*
X11123267Y-35954804D01*
X11029503Y-35895953D01*
X10942573Y-35826130D01*
X10896086Y-35778596D01*
X11238122Y-35778596D01*
X11251259Y-35795185D01*
X11296460Y-35814180D01*
X11335856Y-35797858D01*
X11345333Y-35771667D01*
X11331860Y-35751925D01*
X11576972Y-35751925D01*
X11599978Y-35793454D01*
X11635970Y-35830246D01*
X11686164Y-35883526D01*
X11711486Y-35923592D01*
X11712222Y-35928031D01*
X11735098Y-35952062D01*
X11754555Y-35955111D01*
X11790123Y-35932056D01*
X11796456Y-35905722D01*
X11777969Y-35831171D01*
X11717565Y-35778676D01*
X11672456Y-35758532D01*
X11601542Y-35739477D01*
X11576972Y-35751925D01*
X11331860Y-35751925D01*
X11321804Y-35737191D01*
X11288889Y-35729334D01*
X11239722Y-35743457D01*
X11238122Y-35778596D01*
X10896086Y-35778596D01*
X10875120Y-35757159D01*
X10839790Y-35700866D01*
X10837333Y-35687398D01*
X10828420Y-35665450D01*
X10981090Y-35665450D01*
X10989186Y-35692850D01*
X11019636Y-35717328D01*
X11084895Y-35747851D01*
X11129341Y-35731509D01*
X11139338Y-35712317D01*
X11131351Y-35670572D01*
X11107549Y-35629415D01*
X11074180Y-35591711D01*
X11045483Y-35597254D01*
X11015447Y-35625225D01*
X10981090Y-35665450D01*
X10828420Y-35665450D01*
X10821978Y-35649590D01*
X10808654Y-35644667D01*
X10779214Y-35621574D01*
X10742129Y-35564306D01*
X10733173Y-35546521D01*
X10685681Y-35474909D01*
X10614395Y-35427429D01*
X10555917Y-35405046D01*
X10531883Y-35393533D01*
X10871468Y-35393533D01*
X10880547Y-35438839D01*
X10899024Y-35474192D01*
X10910056Y-35456782D01*
X10914751Y-35437847D01*
X10917349Y-35386550D01*
X10911294Y-35371852D01*
X11100740Y-35371852D01*
X11104614Y-35388630D01*
X11119555Y-35390667D01*
X11142785Y-35380341D01*
X11138370Y-35371852D01*
X11104877Y-35368474D01*
X11100740Y-35371852D01*
X10911294Y-35371852D01*
X10910383Y-35369643D01*
X10883497Y-35362916D01*
X10871468Y-35393533D01*
X10531883Y-35393533D01*
X10490989Y-35373944D01*
X10413479Y-35323015D01*
X10332404Y-35260394D01*
X10256780Y-35194215D01*
X10255684Y-35193111D01*
X10710333Y-35193111D01*
X10712571Y-35219118D01*
X10722778Y-35221334D01*
X10751518Y-35200847D01*
X10752666Y-35193111D01*
X10743037Y-35165623D01*
X10740221Y-35164889D01*
X10716125Y-35184665D01*
X10710333Y-35193111D01*
X10255684Y-35193111D01*
X10195623Y-35132612D01*
X10157951Y-35083720D01*
X10152781Y-35055671D01*
X10164564Y-35052000D01*
X10219153Y-35072172D01*
X10245797Y-35095695D01*
X10297787Y-35126897D01*
X10357696Y-35126246D01*
X10400904Y-35096309D01*
X10407640Y-35078801D01*
X10397989Y-35029171D01*
X10363710Y-34959186D01*
X10349998Y-34937690D01*
X10292622Y-34870002D01*
X10231792Y-34842846D01*
X10196531Y-34840334D01*
X10115777Y-34822013D01*
X10032856Y-34761502D01*
X10012642Y-34741556D01*
X9935925Y-34671940D01*
X9857862Y-34614549D01*
X9833513Y-34600445D01*
X9764882Y-34557738D01*
X9717793Y-34515778D01*
X9674031Y-34458850D01*
X9642291Y-34417000D01*
X9611786Y-34381702D01*
X9592168Y-34388045D01*
X9568645Y-34441592D01*
X9567249Y-34445222D01*
X9534726Y-34529889D01*
X9482700Y-34466011D01*
X9440809Y-34408165D01*
X9419518Y-34368665D01*
X9391688Y-34357085D01*
X9336976Y-34377557D01*
X9268277Y-34422084D01*
X9198486Y-34482673D01*
X9153246Y-34533764D01*
X9111574Y-34593914D01*
X9103923Y-34630931D01*
X9126582Y-34663659D01*
X9127486Y-34664566D01*
X9153546Y-34700872D01*
X9137963Y-34734325D01*
X9116318Y-34755178D01*
X9065678Y-34785225D01*
X9032836Y-34784955D01*
X9002387Y-34793595D01*
X8976395Y-34835787D01*
X8932458Y-34905763D01*
X8885026Y-34950707D01*
X8837056Y-34996459D01*
X8819745Y-35033758D01*
X8801467Y-35070559D01*
X8753053Y-35135827D01*
X8683688Y-35217533D01*
X8657166Y-35246700D01*
X8578768Y-35329956D01*
X8530554Y-35375483D01*
X8505338Y-35387855D01*
X8495933Y-35371644D01*
X8494889Y-35349942D01*
X8483574Y-35290530D01*
X8451725Y-35283438D01*
X8409782Y-35320641D01*
X8389988Y-35362137D01*
X8413209Y-35406331D01*
X8421150Y-35415372D01*
X8452459Y-35457270D01*
X8443036Y-35486532D01*
X8420808Y-35506565D01*
X8369632Y-35541233D01*
X8289024Y-35588003D01*
X8230257Y-35619273D01*
X8143290Y-35669309D01*
X8093486Y-35717303D01*
X8064931Y-35780417D01*
X8058105Y-35804961D01*
X8027183Y-35878774D01*
X7965488Y-35971339D01*
X7868194Y-36089333D01*
X7789830Y-36176078D01*
X7697359Y-36274519D01*
X7618371Y-36355735D01*
X7560789Y-36411783D01*
X7532533Y-36434720D01*
X7531698Y-36434889D01*
X7503896Y-36415387D01*
X7453778Y-36365646D01*
X7420730Y-36329056D01*
X7372036Y-36278308D01*
X7485422Y-36278308D01*
X7520574Y-36294313D01*
X7556500Y-36299894D01*
X7625417Y-36302278D01*
X7662263Y-36277176D01*
X7685326Y-36210924D01*
X7687449Y-36202056D01*
X7688960Y-36141782D01*
X7658416Y-36124421D01*
X7600896Y-36150379D01*
X7550898Y-36191181D01*
X7495700Y-36247224D01*
X7485422Y-36278308D01*
X7372036Y-36278308D01*
X7357793Y-36263465D01*
X7302730Y-36217110D01*
X7283751Y-36206232D01*
X7257603Y-36190402D01*
X7282486Y-36174534D01*
X7295444Y-36169922D01*
X7342148Y-36138386D01*
X7391492Y-36083221D01*
X7432606Y-36020713D01*
X7454619Y-35967147D01*
X7448961Y-35939946D01*
X7423600Y-35897567D01*
X7446369Y-35830360D01*
X7517769Y-35736888D01*
X7521222Y-35733050D01*
X7577400Y-35665260D01*
X7613181Y-35611308D01*
X7620000Y-35592333D01*
X7643203Y-35563196D01*
X7702918Y-35521540D01*
X7757720Y-35491163D01*
X7838631Y-35446370D01*
X7882715Y-35404951D01*
X7904908Y-35347781D01*
X7915212Y-35289524D01*
X7934428Y-35179036D01*
X7951636Y-35121646D01*
X8240889Y-35121646D01*
X8259680Y-35158430D01*
X8303142Y-35159587D01*
X8351904Y-35124797D01*
X8352990Y-35123505D01*
X8377403Y-35076813D01*
X8377612Y-35056381D01*
X8348924Y-35042551D01*
X8301552Y-35056474D01*
X8258065Y-35087376D01*
X8240889Y-35121646D01*
X7951636Y-35121646D01*
X7953807Y-35114407D01*
X7977534Y-35085193D01*
X7999100Y-35080222D01*
X8043038Y-35059704D01*
X8097053Y-35011728D01*
X8141245Y-34956667D01*
X8156222Y-34919371D01*
X8177547Y-34883240D01*
X8222448Y-34845766D01*
X8281468Y-34787716D01*
X8323891Y-34717351D01*
X8372808Y-34648544D01*
X8443379Y-34601920D01*
X8517095Y-34585989D01*
X8569970Y-34604201D01*
X8593845Y-34645440D01*
X8572766Y-34679612D01*
X8518173Y-34697297D01*
X8461049Y-34693866D01*
X8404514Y-34685580D01*
X8385570Y-34701690D01*
X8392738Y-34756154D01*
X8396252Y-34772675D01*
X8414385Y-34848205D01*
X8432994Y-34875090D01*
X8464053Y-34859943D01*
X8498344Y-34829060D01*
X8550481Y-34787099D01*
X8586007Y-34769778D01*
X8617287Y-34750854D01*
X8672366Y-34702128D01*
X8717427Y-34656889D01*
X8787896Y-34593590D01*
X8853179Y-34552628D01*
X8884029Y-34544000D01*
X8945234Y-34519982D01*
X8999989Y-34462122D01*
X9029749Y-34391708D01*
X9031111Y-34375176D01*
X9009280Y-34327340D01*
X8974666Y-34296550D01*
X8930431Y-34256772D01*
X8918222Y-34229372D01*
X8898000Y-34188121D01*
X8886773Y-34177111D01*
X9158111Y-34177111D01*
X9164509Y-34201272D01*
X9184667Y-34205334D01*
X9223281Y-34190599D01*
X9228666Y-34177111D01*
X9208410Y-34149697D01*
X9202110Y-34148889D01*
X9163887Y-34169404D01*
X9158111Y-34177111D01*
X8886773Y-34177111D01*
X8868833Y-34159520D01*
X8837072Y-34129702D01*
X8853560Y-34112878D01*
X8884072Y-34103433D01*
X8928579Y-34085537D01*
X8923603Y-34058950D01*
X8904559Y-34036495D01*
X8875563Y-33982862D01*
X8875407Y-33948359D01*
X8860878Y-33916277D01*
X8810677Y-33853939D01*
X8787598Y-33828917D01*
X8933704Y-33828917D01*
X8934885Y-33905338D01*
X8969986Y-33964849D01*
X9025912Y-33993620D01*
X9080111Y-33983540D01*
X9125204Y-33970124D01*
X9155723Y-33999138D01*
X9167611Y-34023040D01*
X9198393Y-34068341D01*
X9233169Y-34094908D01*
X9255238Y-34091607D01*
X9256889Y-34082545D01*
X9246337Y-34036187D01*
X9221635Y-33974291D01*
X9193211Y-33919618D01*
X9171492Y-33894931D01*
X9170915Y-33894889D01*
X9136162Y-33877329D01*
X9081543Y-33834098D01*
X9070777Y-33824334D01*
X9006484Y-33770585D01*
X8968138Y-33759717D01*
X8944549Y-33792104D01*
X8933704Y-33828917D01*
X8787598Y-33828917D01*
X8731628Y-33768235D01*
X8630558Y-33666056D01*
X8514292Y-33554294D01*
X8389655Y-33439839D01*
X8314511Y-33374179D01*
X8607777Y-33374179D01*
X8627906Y-33435688D01*
X8675913Y-33505133D01*
X8733233Y-33558632D01*
X8762027Y-33572611D01*
X8828025Y-33608659D01*
X8877030Y-33660704D01*
X8916794Y-33707017D01*
X8948875Y-33705358D01*
X8955714Y-33699353D01*
X8971870Y-33660008D01*
X8949705Y-33599872D01*
X8946031Y-33593290D01*
X8896268Y-33528136D01*
X8848096Y-33488455D01*
X8784186Y-33439988D01*
X8754773Y-33408056D01*
X8713863Y-33376724D01*
X8661033Y-33358807D01*
X8618864Y-33359511D01*
X8607777Y-33374179D01*
X8314511Y-33374179D01*
X8263472Y-33329582D01*
X8257479Y-33324501D01*
X8175292Y-33254930D01*
X8228957Y-33201265D01*
X8504033Y-33201265D01*
X8534870Y-33217556D01*
X8573747Y-33194832D01*
X8579555Y-33172871D01*
X8563146Y-33139955D01*
X8546041Y-33139357D01*
X8508772Y-33167448D01*
X8504033Y-33201265D01*
X8228957Y-33201265D01*
X8236312Y-33193910D01*
X8272937Y-33150704D01*
X8266592Y-33133899D01*
X8255000Y-33132889D01*
X8217442Y-33117677D01*
X8212666Y-33104719D01*
X8190553Y-33075370D01*
X8133633Y-33029711D01*
X8081135Y-32994681D01*
X7949604Y-32912814D01*
X8024691Y-32843227D01*
X8081062Y-32786954D01*
X8092891Y-32755963D01*
X8059015Y-32739424D01*
X8012689Y-32731402D01*
X7947164Y-32730270D01*
X7911698Y-32760474D01*
X7898751Y-32789239D01*
X7887363Y-32861806D01*
X7901173Y-32889129D01*
X7927982Y-32929478D01*
X7930444Y-32940978D01*
X7914091Y-32963697D01*
X7864664Y-32942568D01*
X7781611Y-32877272D01*
X7716625Y-32817913D01*
X7629050Y-32728262D01*
X7584485Y-32664400D01*
X7578544Y-32622122D01*
X7574953Y-32548740D01*
X7525022Y-32480387D01*
X7438391Y-32429324D01*
X7422670Y-32423864D01*
X7338547Y-32384956D01*
X7257774Y-32328352D01*
X7195949Y-32267151D01*
X7168672Y-32214451D01*
X7168444Y-32210387D01*
X7155934Y-32185480D01*
X7525881Y-32185480D01*
X7533223Y-32233519D01*
X7557672Y-32256396D01*
X7621378Y-32283681D01*
X7647550Y-32269612D01*
X7648222Y-32262374D01*
X7629398Y-32227141D01*
X7595264Y-32190600D01*
X7554249Y-32159632D01*
X7533295Y-32169067D01*
X7525881Y-32185480D01*
X7155934Y-32185480D01*
X7151348Y-32176352D01*
X7140222Y-32173334D01*
X7113757Y-32156896D01*
X7120421Y-32127537D01*
X7147277Y-32114851D01*
X7185445Y-32093416D01*
X7240323Y-32041777D01*
X7264253Y-32014578D01*
X7345950Y-31916342D01*
X7157998Y-31722424D01*
X7226286Y-31649735D01*
X7294574Y-31577045D01*
X7317481Y-31665446D01*
G36*
X5785555Y-32624889D02*
X2228046Y-32624889D01*
X2243666Y-33457445D01*
X4007555Y-33463107D01*
X5771444Y-33468770D01*
X5779182Y-33935829D01*
X5786920Y-34402889D01*
X2229555Y-34402889D01*
X2229555Y-35221334D01*
X5785555Y-35221334D01*
X5785555Y-35683981D01*
X5784771Y-35860204D01*
X5781969Y-35987701D01*
X5776473Y-36074172D01*
X5767608Y-36127319D01*
X5754698Y-36154844D01*
X5743557Y-36162744D01*
X5708006Y-36165833D01*
X5621743Y-36168617D01*
X5490014Y-36171097D01*
X5318063Y-36173272D01*
X5111136Y-36175144D01*
X4874480Y-36176712D01*
X4613339Y-36177977D01*
X4332959Y-36178938D01*
X4038586Y-36179596D01*
X3735465Y-36179951D01*
X3428842Y-36180004D01*
X3123962Y-36179754D01*
X2826071Y-36179201D01*
X2540415Y-36178347D01*
X2272239Y-36177191D01*
X2026788Y-36175733D01*
X1809309Y-36173974D01*
X1625047Y-36171914D01*
X1479247Y-36169552D01*
X1377155Y-36166890D01*
X1324016Y-36163927D01*
X1317530Y-36162568D01*
X1314500Y-36131972D01*
X1311615Y-36049237D01*
X1308914Y-35918667D01*
X1306433Y-35744567D01*
X1304209Y-35531243D01*
X1302280Y-35282999D01*
X1300681Y-35004140D01*
X1299451Y-34698972D01*
X1298627Y-34371798D01*
X1298245Y-34026924D01*
X1298222Y-33918408D01*
X1298222Y-31693556D01*
X5785555Y-31693556D01*
X5785555Y-32624889D01*
X5785555Y-32624889D01*
G37*
X5785555Y-32624889D02*
X2228046Y-32624889D01*
X2243666Y-33457445D01*
X4007555Y-33463107D01*
X5771444Y-33468770D01*
X5779182Y-33935829D01*
X5786920Y-34402889D01*
X2229555Y-34402889D01*
X2229555Y-35221334D01*
X5785555Y-35221334D01*
X5785555Y-35683981D01*
X5784771Y-35860204D01*
X5781969Y-35987701D01*
X5776473Y-36074172D01*
X5767608Y-36127319D01*
X5754698Y-36154844D01*
X5743557Y-36162744D01*
X5708006Y-36165833D01*
X5621743Y-36168617D01*
X5490014Y-36171097D01*
X5318063Y-36173272D01*
X5111136Y-36175144D01*
X4874480Y-36176712D01*
X4613339Y-36177977D01*
X4332959Y-36178938D01*
X4038586Y-36179596D01*
X3735465Y-36179951D01*
X3428842Y-36180004D01*
X3123962Y-36179754D01*
X2826071Y-36179201D01*
X2540415Y-36178347D01*
X2272239Y-36177191D01*
X2026788Y-36175733D01*
X1809309Y-36173974D01*
X1625047Y-36171914D01*
X1479247Y-36169552D01*
X1377155Y-36166890D01*
X1324016Y-36163927D01*
X1317530Y-36162568D01*
X1314500Y-36131972D01*
X1311615Y-36049237D01*
X1308914Y-35918667D01*
X1306433Y-35744567D01*
X1304209Y-35531243D01*
X1302280Y-35282999D01*
X1300681Y-35004140D01*
X1299451Y-34698972D01*
X1298627Y-34371798D01*
X1298245Y-34026924D01*
X1298222Y-33918408D01*
X1298222Y-31693556D01*
X5785555Y-31693556D01*
X5785555Y-32624889D01*
G36*
X7243869Y-35859961D02*
X7247701Y-35868328D01*
X7234078Y-35894062D01*
X7210777Y-35898667D01*
X7175653Y-35884347D01*
X7173853Y-35868328D01*
X7202989Y-35839170D01*
X7210777Y-35837989D01*
X7243869Y-35859961D01*
X7243869Y-35859961D01*
G37*
X7243869Y-35859961D02*
X7247701Y-35868328D01*
X7234078Y-35894062D01*
X7210777Y-35898667D01*
X7175653Y-35884347D01*
X7173853Y-35868328D01*
X7202989Y-35839170D01*
X7210777Y-35837989D01*
X7243869Y-35859961D01*
G36*
X7719728Y-35250726D02*
X7716404Y-35259675D01*
X7691022Y-35294354D01*
X7660964Y-35309051D01*
X7648222Y-35295345D01*
X7666945Y-35271023D01*
X7691201Y-35249020D01*
X7721798Y-35228428D01*
X7719728Y-35250726D01*
X7719728Y-35250726D01*
G37*
X7719728Y-35250726D02*
X7716404Y-35259675D01*
X7691022Y-35294354D01*
X7660964Y-35309051D01*
X7648222Y-35295345D01*
X7666945Y-35271023D01*
X7691201Y-35249020D01*
X7721798Y-35228428D01*
X7719728Y-35250726D01*
G36*
X9304479Y-34562230D02*
X9299222Y-34572222D01*
X9272630Y-34599175D01*
X9267668Y-34600445D01*
X9265743Y-34582215D01*
X9271000Y-34572222D01*
X9297591Y-34545270D01*
X9302553Y-34544000D01*
X9304479Y-34562230D01*
X9304479Y-34562230D01*
G37*
X9304479Y-34562230D02*
X9299222Y-34572222D01*
X9272630Y-34599175D01*
X9267668Y-34600445D01*
X9265743Y-34582215D01*
X9271000Y-34572222D01*
X9297591Y-34545270D01*
X9302553Y-34544000D01*
X9304479Y-34562230D01*
G36*
X8832228Y-34197809D02*
X8827939Y-34244923D01*
X8802076Y-34295986D01*
X8792421Y-34306944D01*
X8765500Y-34358672D01*
X8767218Y-34389595D01*
X8762732Y-34421928D01*
X8714278Y-34431111D01*
X8653838Y-34424126D01*
X8626592Y-34412296D01*
X8607832Y-34370344D01*
X8607777Y-34368372D01*
X8627362Y-34335278D01*
X8674814Y-34283783D01*
X8733178Y-34229795D01*
X8785500Y-34189222D01*
X8811623Y-34177111D01*
X8832228Y-34197809D01*
X8832228Y-34197809D01*
G37*
X8832228Y-34197809D02*
X8827939Y-34244923D01*
X8802076Y-34295986D01*
X8792421Y-34306944D01*
X8765500Y-34358672D01*
X8767218Y-34389595D01*
X8762732Y-34421928D01*
X8714278Y-34431111D01*
X8653838Y-34424126D01*
X8626592Y-34412296D01*
X8607832Y-34370344D01*
X8607777Y-34368372D01*
X8627362Y-34335278D01*
X8674814Y-34283783D01*
X8733178Y-34229795D01*
X8785500Y-34189222D01*
X8811623Y-34177111D01*
X8832228Y-34197809D01*
G36*
X10010034Y-33800230D02*
X10004777Y-33810222D01*
X9978186Y-33837175D01*
X9973224Y-33838445D01*
X9971298Y-33820215D01*
X9976555Y-33810222D01*
X10003147Y-33783270D01*
X10008109Y-33782000D01*
X10010034Y-33800230D01*
X10010034Y-33800230D01*
G37*
X10010034Y-33800230D02*
X10004777Y-33810222D01*
X9978186Y-33837175D01*
X9973224Y-33838445D01*
X9971298Y-33820215D01*
X9976555Y-33810222D01*
X10003147Y-33783270D01*
X10008109Y-33782000D01*
X10010034Y-33800230D01*
G36*
X10122923Y-33687341D02*
X10117666Y-33697334D01*
X10091075Y-33724286D01*
X10086113Y-33725556D01*
X10084187Y-33707326D01*
X10089444Y-33697334D01*
X10116035Y-33670381D01*
X10120997Y-33669111D01*
X10122923Y-33687341D01*
X10122923Y-33687341D01*
G37*
X10122923Y-33687341D02*
X10117666Y-33697334D01*
X10091075Y-33724286D01*
X10086113Y-33725556D01*
X10084187Y-33707326D01*
X10089444Y-33697334D01*
X10116035Y-33670381D01*
X10120997Y-33669111D01*
X10122923Y-33687341D01*
G36*
X9661620Y-33216605D02*
X9684408Y-33235456D01*
X9728053Y-33293867D01*
X9731872Y-33344964D01*
X9701389Y-33371465D01*
X9622003Y-33390354D01*
X9538549Y-33401682D01*
X9472059Y-33403398D01*
X9445189Y-33396449D01*
X9452805Y-33368283D01*
X9493527Y-33317580D01*
X9529004Y-33282641D01*
X9591984Y-33227800D01*
X9630778Y-33207431D01*
X9661620Y-33216605D01*
X9661620Y-33216605D01*
G37*
X9661620Y-33216605D02*
X9684408Y-33235456D01*
X9728053Y-33293867D01*
X9731872Y-33344964D01*
X9701389Y-33371465D01*
X9622003Y-33390354D01*
X9538549Y-33401682D01*
X9472059Y-33403398D01*
X9445189Y-33396449D01*
X9452805Y-33368283D01*
X9493527Y-33317580D01*
X9529004Y-33282641D01*
X9591984Y-33227800D01*
X9630778Y-33207431D01*
X9661620Y-33216605D01*
G36*
X9989430Y-32976903D02*
X10014198Y-33017423D01*
X10018889Y-33049888D01*
X10001450Y-33093097D01*
X9948333Y-33104667D01*
X9893450Y-33091182D01*
X9877777Y-33065789D01*
X9897296Y-33016128D01*
X9940772Y-32979823D01*
X9985586Y-32974880D01*
X9989430Y-32976903D01*
X9989430Y-32976903D01*
G37*
X9989430Y-32976903D02*
X10014198Y-33017423D01*
X10018889Y-33049888D01*
X10001450Y-33093097D01*
X9948333Y-33104667D01*
X9893450Y-33091182D01*
X9877777Y-33065789D01*
X9897296Y-33016128D01*
X9940772Y-32979823D01*
X9985586Y-32974880D01*
X9989430Y-32976903D01*
G36*
X10098170Y-32865402D02*
X10103555Y-32878889D01*
X10083299Y-32906303D01*
X10076999Y-32907111D01*
X10038776Y-32886597D01*
X10033000Y-32878889D01*
X10039398Y-32854728D01*
X10059556Y-32850667D01*
X10098170Y-32865402D01*
X10098170Y-32865402D01*
G37*
X10098170Y-32865402D02*
X10103555Y-32878889D01*
X10083299Y-32906303D01*
X10076999Y-32907111D01*
X10038776Y-32886597D01*
X10033000Y-32878889D01*
X10039398Y-32854728D01*
X10059556Y-32850667D01*
X10098170Y-32865402D01*
G36*
X8337914Y-32333010D02*
X8398251Y-32380520D01*
X8466380Y-32444698D01*
X8530306Y-32513266D01*
X8578038Y-32573945D01*
X8597582Y-32614458D01*
X8596354Y-32620540D01*
X8550131Y-32651109D01*
X8486753Y-32634969D01*
X8440538Y-32598761D01*
X8401866Y-32533173D01*
X8400891Y-32488187D01*
X8398701Y-32442521D01*
X8352172Y-32422956D01*
X8349696Y-32422593D01*
X8304698Y-32401387D01*
X8275441Y-32364134D01*
X8270757Y-32329083D01*
X8297362Y-32314445D01*
X8337914Y-32333010D01*
X8337914Y-32333010D01*
G37*
X8337914Y-32333010D02*
X8398251Y-32380520D01*
X8466380Y-32444698D01*
X8530306Y-32513266D01*
X8578038Y-32573945D01*
X8597582Y-32614458D01*
X8596354Y-32620540D01*
X8550131Y-32651109D01*
X8486753Y-32634969D01*
X8440538Y-32598761D01*
X8401866Y-32533173D01*
X8400891Y-32488187D01*
X8398701Y-32442521D01*
X8352172Y-32422956D01*
X8349696Y-32422593D01*
X8304698Y-32401387D01*
X8275441Y-32364134D01*
X8270757Y-32329083D01*
X8297362Y-32314445D01*
X8337914Y-32333010D01*
G36*
X7615031Y-31654116D02*
X7605889Y-31693556D01*
X7566748Y-31720595D01*
X7528117Y-31704021D01*
X7525850Y-31700611D01*
X7532606Y-31666550D01*
X7550914Y-31644448D01*
X7591860Y-31629688D01*
X7615031Y-31654116D01*
X7615031Y-31654116D01*
G37*
X7615031Y-31654116D02*
X7605889Y-31693556D01*
X7566748Y-31720595D01*
X7528117Y-31704021D01*
X7525850Y-31700611D01*
X7532606Y-31666550D01*
X7550914Y-31644448D01*
X7591860Y-31629688D01*
X7615031Y-31654116D01*
G36*
X11232444Y-31481889D02*
X11259368Y-31507250D01*
X11260666Y-31511777D01*
X11238831Y-31523899D01*
X11232444Y-31524222D01*
X11205306Y-31502526D01*
X11204222Y-31494335D01*
X11221512Y-31477479D01*
X11232444Y-31481889D01*
X11232444Y-31481889D01*
G37*
X11232444Y-31481889D02*
X11259368Y-31507250D01*
X11260666Y-31511777D01*
X11238831Y-31523899D01*
X11232444Y-31524222D01*
X11205306Y-31502526D01*
X11204222Y-31494335D01*
X11221512Y-31477479D01*
X11232444Y-31481889D01*
D16*
X21703695Y-27599923D02*
X20890895Y-27599923D01*
X20890895Y-27406399D01*
X20929600Y-27290285D01*
X21007010Y-27212876D01*
X21084419Y-27174171D01*
X21239238Y-27135466D01*
X21355352Y-27135466D01*
X21510171Y-27174171D01*
X21587581Y-27212876D01*
X21664990Y-27290285D01*
X21703695Y-27406399D01*
X21703695Y-27599923D01*
X21703695Y-26361371D02*
X21703695Y-26825828D01*
X21703695Y-26593599D02*
X20890895Y-26593599D01*
X21007010Y-26671009D01*
X21084419Y-26748418D01*
X21123124Y-26825828D01*
X23867695Y-27599923D02*
X23054895Y-27599923D01*
X23054895Y-27406399D01*
X23093600Y-27290285D01*
X23171010Y-27212876D01*
X23248419Y-27174171D01*
X23403238Y-27135466D01*
X23519352Y-27135466D01*
X23674171Y-27174171D01*
X23751581Y-27212876D01*
X23828990Y-27290285D01*
X23867695Y-27406399D01*
X23867695Y-27599923D01*
X23132305Y-26825828D02*
X23093600Y-26787123D01*
X23054895Y-26709714D01*
X23054895Y-26516190D01*
X23093600Y-26438780D01*
X23132305Y-26400076D01*
X23209714Y-26361371D01*
X23287124Y-26361371D01*
X23403238Y-26400076D01*
X23867695Y-26864533D01*
X23867695Y-26361371D01*
X1229067Y-10441943D02*
X958134Y-10441943D01*
X958134Y-10867695D02*
X958134Y-10054895D01*
X1345181Y-10054895D01*
X2080572Y-10867695D02*
X1616115Y-10867695D01*
X1848344Y-10867695D02*
X1848344Y-10054895D01*
X1770934Y-10171010D01*
X1693525Y-10248419D01*
X1616115Y-10287124D01*
X5229067Y-19054895D02*
X5229067Y-19635467D01*
X5190363Y-19751581D01*
X5112953Y-19828990D01*
X4996839Y-19867695D01*
X4919429Y-19867695D01*
X6041867Y-19867695D02*
X5577410Y-19867695D01*
X5809639Y-19867695D02*
X5809639Y-19054895D01*
X5732229Y-19171010D01*
X5654820Y-19248419D01*
X5577410Y-19287124D01*
M02*
