G04 #@! TF.FileFunction,Copper,L2,Bot,Signal*
%FSLAX46Y46*%
G04 Gerber Fmt 4.6, Leading zero omitted, Abs format (unit mm)*
G04 Created by KiCad (PCBNEW 4.0.7-e2-6376~61~ubuntu18.04.1) date Thu Dec  5 21:11:01 2019*
%MOMM*%
%LPD*%
G01*
G04 APERTURE LIST*
%ADD10C,0.100000*%
%ADD11C,1.000000*%
%ADD12R,3.500000X1.600000*%
%ADD13R,1.000000X1.250000*%
%ADD14R,1.700000X1.700000*%
%ADD15O,1.700000X1.700000*%
%ADD16R,0.900000X0.800000*%
%ADD17R,1.550000X0.600000*%
%ADD18R,1.060000X0.650000*%
%ADD19C,3.048000*%
%ADD20R,2.080000X3.600000*%
%ADD21O,2.080000X3.600000*%
%ADD22R,1.300000X1.500000*%
%ADD23R,1.500000X1.300000*%
%ADD24C,0.609600*%
%ADD25C,0.406400*%
%ADD26C,0.203200*%
G04 APERTURE END LIST*
D10*
D11*
X10500000Y-39000000D03*
X22000000Y-9000000D03*
X3000000Y-9000000D03*
D12*
X9800000Y-18288000D03*
X15200000Y-18288000D03*
D13*
X6080000Y-32004000D03*
X4080000Y-32004000D03*
D14*
X13208000Y-36580000D03*
D15*
X13208000Y-34040000D03*
X13208000Y-31500000D03*
D16*
X21352000Y-28890000D03*
X21352000Y-26990000D03*
X23352000Y-27940000D03*
D17*
X2380000Y-37973000D03*
X2380000Y-36703000D03*
X2380000Y-35433000D03*
X2380000Y-34163000D03*
X7780000Y-34163000D03*
X7780000Y-35433000D03*
X7780000Y-36703000D03*
X7780000Y-37973000D03*
D18*
X3896000Y-29840000D03*
X3896000Y-28890000D03*
X3896000Y-27940000D03*
X6096000Y-27940000D03*
X6096000Y-29840000D03*
D19*
X5769000Y-11298200D03*
X5769000Y-14701800D03*
X19231000Y-11298200D03*
X19231000Y-14701800D03*
D20*
X17580000Y-24000000D03*
D21*
X12500000Y-24000000D03*
X7420000Y-24000000D03*
D22*
X21336000Y-23368000D03*
X21336000Y-20668000D03*
X23368000Y-23368000D03*
X23368000Y-20668000D03*
D23*
X16430000Y-28448000D03*
X19130000Y-28448000D03*
D22*
X10160000Y-33862000D03*
X10160000Y-31162000D03*
D24*
X21336000Y-21844000D03*
X23368000Y-21844000D03*
D25*
X19231000Y-14701800D02*
X19231000Y-22021379D01*
X19231000Y-22021379D02*
X20577621Y-23368000D01*
X20577621Y-23368000D02*
X21336000Y-23368000D01*
X21352000Y-26990000D02*
X21352000Y-23384000D01*
X21352000Y-23384000D02*
X21336000Y-23368000D01*
X6080000Y-32004000D02*
X6080000Y-29856000D01*
X6080000Y-29856000D02*
X6096000Y-29840000D01*
X4699000Y-37973000D02*
X6080000Y-36592000D01*
X6080000Y-36592000D02*
X6080000Y-32004000D01*
X2380000Y-37973000D02*
X4699000Y-37973000D01*
D26*
X21336000Y-21844000D02*
X21336000Y-20668000D01*
X23368000Y-21844000D02*
X23368000Y-20668000D01*
X12500000Y-24000000D02*
X12500000Y-24832108D01*
X12500000Y-24832108D02*
X11055541Y-26276567D01*
X11055541Y-26276567D02*
X6000998Y-26276567D01*
X6000998Y-26276567D02*
X4995865Y-27281700D01*
X4995865Y-27281700D02*
X4995865Y-28532135D01*
X4995865Y-28532135D02*
X4638000Y-28890000D01*
X4638000Y-28890000D02*
X3896000Y-28890000D01*
D25*
X13208000Y-34040000D02*
X10338000Y-34040000D01*
X10338000Y-34040000D02*
X10160000Y-33862000D01*
X7780000Y-37973000D02*
X8915556Y-37973000D01*
X8915556Y-37973000D02*
X10160000Y-36728556D01*
X10160000Y-36728556D02*
X10160000Y-33862000D01*
X15236000Y-34040000D02*
X16430000Y-32846000D01*
X16430000Y-32846000D02*
X16430000Y-28448000D01*
X13208000Y-34040000D02*
X15236000Y-34040000D01*
D26*
X6096000Y-27940000D02*
X11695698Y-27940000D01*
X11695698Y-27940000D02*
X13208000Y-29452302D01*
X13208000Y-29452302D02*
X13208000Y-31500000D01*
X20320000Y-28448000D02*
X20762000Y-28890000D01*
X20762000Y-28890000D02*
X21352000Y-28890000D01*
X19130000Y-28448000D02*
X20320000Y-28448000D01*
X23352000Y-27940000D02*
X23352000Y-23384000D01*
X23352000Y-23384000D02*
X23368000Y-23368000D01*
G36*
X13074761Y-486996D02*
X13649047Y-656018D01*
X14179557Y-933362D01*
X14646101Y-1308472D01*
X15030899Y-1767056D01*
X15319296Y-2291647D01*
X15500308Y-2862269D01*
X15569226Y-3476694D01*
X15569400Y-3501571D01*
X15569400Y-7000000D01*
X15573348Y-7040268D01*
X15577027Y-7080686D01*
X15577454Y-7082136D01*
X15577601Y-7083637D01*
X15589320Y-7122454D01*
X15600755Y-7161306D01*
X15601453Y-7162641D01*
X15601890Y-7164089D01*
X15620919Y-7199878D01*
X15639689Y-7235781D01*
X15640637Y-7236960D01*
X15641344Y-7238290D01*
X15666911Y-7269638D01*
X15692348Y-7301275D01*
X15693506Y-7302247D01*
X15694459Y-7303415D01*
X15725643Y-7329213D01*
X15756725Y-7355294D01*
X15758049Y-7356022D01*
X15759212Y-7356984D01*
X15794828Y-7376241D01*
X15830369Y-7395780D01*
X15831810Y-7396237D01*
X15833136Y-7396954D01*
X15871821Y-7408929D01*
X15910473Y-7421190D01*
X15911973Y-7421358D01*
X15913416Y-7421805D01*
X15953767Y-7426046D01*
X15993988Y-7430558D01*
X15996882Y-7430578D01*
X15996994Y-7430590D01*
X15997106Y-7430580D01*
X16000000Y-7430600D01*
X24569400Y-7430600D01*
X24569400Y-39569400D01*
X16000000Y-39569400D01*
X15959732Y-39573348D01*
X15919314Y-39577027D01*
X15917864Y-39577454D01*
X15916363Y-39577601D01*
X15877546Y-39589320D01*
X15838694Y-39600755D01*
X15837359Y-39601453D01*
X15835911Y-39601890D01*
X15800122Y-39620919D01*
X15764219Y-39639689D01*
X15763040Y-39640637D01*
X15761710Y-39641344D01*
X15730362Y-39666911D01*
X15698725Y-39692348D01*
X15697753Y-39693506D01*
X15696585Y-39694459D01*
X15670787Y-39725643D01*
X15644706Y-39756725D01*
X15643978Y-39758049D01*
X15643016Y-39759212D01*
X15623759Y-39794828D01*
X15604220Y-39830369D01*
X15603763Y-39831810D01*
X15603046Y-39833136D01*
X15591071Y-39871821D01*
X15578810Y-39910473D01*
X15578642Y-39911973D01*
X15578195Y-39913416D01*
X15573954Y-39953767D01*
X15569442Y-39993988D01*
X15569422Y-39996882D01*
X15569410Y-39996994D01*
X15569420Y-39997106D01*
X15569400Y-40000000D01*
X15569400Y-43478939D01*
X15508918Y-44095781D01*
X15335891Y-44668873D01*
X15054848Y-45197436D01*
X14676491Y-45661350D01*
X14215231Y-46042937D01*
X13688640Y-46327663D01*
X13116772Y-46504685D01*
X12521415Y-46567261D01*
X11925239Y-46513004D01*
X11350953Y-46343982D01*
X10820443Y-46066638D01*
X10353899Y-45691527D01*
X9969101Y-45232944D01*
X9680703Y-44708351D01*
X9499692Y-44137733D01*
X9446604Y-43664432D01*
X10541830Y-43664432D01*
X10611061Y-44041644D01*
X10752242Y-44398226D01*
X10959994Y-44720594D01*
X11226404Y-44996470D01*
X11541326Y-45215346D01*
X11892762Y-45368885D01*
X12267329Y-45451239D01*
X12650758Y-45459270D01*
X13028444Y-45392674D01*
X13386002Y-45253986D01*
X13709813Y-45048490D01*
X13987542Y-44784012D01*
X14208611Y-44470626D01*
X14364600Y-44120270D01*
X14449567Y-43746288D01*
X14455684Y-43308244D01*
X14381192Y-42932035D01*
X14235047Y-42577459D01*
X14022814Y-42258023D01*
X13752578Y-41985894D01*
X13434631Y-41771436D01*
X13081085Y-41622819D01*
X12705405Y-41545703D01*
X12321901Y-41543025D01*
X11945182Y-41614889D01*
X11589595Y-41758555D01*
X11268685Y-41968553D01*
X10994675Y-42236882D01*
X10778003Y-42553324D01*
X10626921Y-42905824D01*
X10547184Y-43280957D01*
X10541830Y-43664432D01*
X9446604Y-43664432D01*
X9430774Y-43523306D01*
X9430600Y-43498428D01*
X9430600Y-40000000D01*
X9426652Y-39959732D01*
X9422973Y-39919314D01*
X9422546Y-39917864D01*
X9422399Y-39916363D01*
X9410680Y-39877546D01*
X9399245Y-39838694D01*
X9398547Y-39837359D01*
X9398110Y-39835911D01*
X9379081Y-39800122D01*
X9360311Y-39764219D01*
X9359363Y-39763040D01*
X9358656Y-39761710D01*
X9333089Y-39730362D01*
X9307652Y-39698725D01*
X9306494Y-39697753D01*
X9305541Y-39696585D01*
X9274357Y-39670787D01*
X9243275Y-39644706D01*
X9241951Y-39643978D01*
X9240788Y-39643016D01*
X9205172Y-39623759D01*
X9169631Y-39604220D01*
X9168190Y-39603763D01*
X9166864Y-39603046D01*
X9128179Y-39591071D01*
X9089527Y-39578810D01*
X9088027Y-39578642D01*
X9086584Y-39578195D01*
X9046233Y-39573954D01*
X9006012Y-39569442D01*
X9003118Y-39569422D01*
X9003006Y-39569410D01*
X9002894Y-39569420D01*
X9000000Y-39569400D01*
X430600Y-39569400D01*
X430600Y-39092626D01*
X9396952Y-39092626D01*
X9435951Y-39305111D01*
X9515478Y-39505975D01*
X9632506Y-39687567D01*
X9782577Y-39842970D01*
X9959974Y-39966264D01*
X10157940Y-40052753D01*
X10368935Y-40099143D01*
X10584923Y-40103668D01*
X10797675Y-40066154D01*
X10999090Y-39988030D01*
X11181494Y-39872273D01*
X11337941Y-39723291D01*
X11462470Y-39546759D01*
X11550339Y-39349401D01*
X11598202Y-39138735D01*
X11601647Y-38891983D01*
X11559686Y-38680062D01*
X11477361Y-38480328D01*
X11357809Y-38300388D01*
X11205584Y-38147096D01*
X11026483Y-38026291D01*
X10827328Y-37942574D01*
X10615706Y-37899134D01*
X10399676Y-37897626D01*
X10187468Y-37938107D01*
X9987164Y-38019035D01*
X9806393Y-38137327D01*
X9652042Y-38288479D01*
X9529990Y-38466732D01*
X9444885Y-38665298D01*
X9399968Y-38876612D01*
X9396952Y-39092626D01*
X430600Y-39092626D01*
X430600Y-37005400D01*
X995400Y-37005400D01*
X995400Y-37063041D01*
X1018827Y-37180814D01*
X1064780Y-37291754D01*
X1131493Y-37391598D01*
X1216403Y-37476507D01*
X1284897Y-37522274D01*
X1261827Y-37573453D01*
X1247680Y-37673000D01*
X1247680Y-38273000D01*
X1252196Y-38329628D01*
X1281940Y-38425675D01*
X1337264Y-38509633D01*
X1413788Y-38574854D01*
X1505453Y-38616173D01*
X1605000Y-38630320D01*
X3155000Y-38630320D01*
X3211628Y-38625804D01*
X3307675Y-38596060D01*
X3391633Y-38540736D01*
X3399249Y-38531800D01*
X4699000Y-38531800D01*
X4750414Y-38526759D01*
X4801791Y-38522264D01*
X4804610Y-38521445D01*
X4807538Y-38521158D01*
X4856970Y-38506233D01*
X4906520Y-38491838D01*
X4909130Y-38490485D01*
X4911942Y-38489636D01*
X4957497Y-38465414D01*
X5003344Y-38441649D01*
X5005641Y-38439815D01*
X5008235Y-38438436D01*
X5048220Y-38405825D01*
X5088576Y-38373610D01*
X5092663Y-38369579D01*
X5092750Y-38369508D01*
X5092817Y-38369427D01*
X5094131Y-38368131D01*
X6396034Y-37066228D01*
X6418827Y-37180814D01*
X6464780Y-37291754D01*
X6531493Y-37391598D01*
X6616403Y-37476507D01*
X6684897Y-37522274D01*
X6661827Y-37573453D01*
X6647680Y-37673000D01*
X6647680Y-38273000D01*
X6652196Y-38329628D01*
X6681940Y-38425675D01*
X6737264Y-38509633D01*
X6813788Y-38574854D01*
X6905453Y-38616173D01*
X7005000Y-38630320D01*
X8555000Y-38630320D01*
X8611628Y-38625804D01*
X8707675Y-38596060D01*
X8791633Y-38540736D01*
X8799249Y-38531800D01*
X8915556Y-38531800D01*
X8966970Y-38526759D01*
X9018347Y-38522264D01*
X9021166Y-38521445D01*
X9024094Y-38521158D01*
X9073526Y-38506233D01*
X9123076Y-38491838D01*
X9125686Y-38490485D01*
X9128498Y-38489636D01*
X9174053Y-38465414D01*
X9219900Y-38441649D01*
X9222197Y-38439815D01*
X9224791Y-38438436D01*
X9264776Y-38405825D01*
X9305132Y-38373610D01*
X9309219Y-38369579D01*
X9309306Y-38369508D01*
X9309373Y-38369427D01*
X9310687Y-38368131D01*
X10555132Y-37123687D01*
X10587909Y-37083783D01*
X10621073Y-37044260D01*
X10622489Y-37041685D01*
X10624354Y-37039414D01*
X10648740Y-36993934D01*
X10673613Y-36948691D01*
X10674502Y-36945889D01*
X10675890Y-36943300D01*
X10690967Y-36893984D01*
X10706589Y-36844737D01*
X10706917Y-36841812D01*
X10707775Y-36839006D01*
X10712987Y-36787698D01*
X10718746Y-36736358D01*
X10718786Y-36730617D01*
X10718797Y-36730506D01*
X10718787Y-36730403D01*
X10718800Y-36728556D01*
X10718800Y-34969320D01*
X10810000Y-34969320D01*
X10866628Y-34964804D01*
X10962675Y-34935060D01*
X11046633Y-34879736D01*
X11111854Y-34803212D01*
X11153173Y-34711547D01*
X11167320Y-34612000D01*
X11167320Y-34598800D01*
X12140383Y-34598800D01*
X12193364Y-34700142D01*
X12340799Y-34883514D01*
X12521043Y-35034757D01*
X12727231Y-35148110D01*
X12951509Y-35219255D01*
X13185334Y-35245482D01*
X13202167Y-35245600D01*
X13213833Y-35245600D01*
X13448002Y-35222640D01*
X13673251Y-35154633D01*
X13881002Y-35044170D01*
X14063340Y-34895458D01*
X14213321Y-34714163D01*
X14275697Y-34598800D01*
X15236000Y-34598800D01*
X15287414Y-34593759D01*
X15338791Y-34589264D01*
X15341610Y-34588445D01*
X15344538Y-34588158D01*
X15393970Y-34573233D01*
X15443520Y-34558838D01*
X15446130Y-34557485D01*
X15448942Y-34556636D01*
X15494497Y-34532414D01*
X15540344Y-34508649D01*
X15542641Y-34506815D01*
X15545235Y-34505436D01*
X15585220Y-34472825D01*
X15625576Y-34440610D01*
X15629663Y-34436579D01*
X15629750Y-34436508D01*
X15629817Y-34436427D01*
X15631131Y-34435131D01*
X16825131Y-33241131D01*
X16857884Y-33201257D01*
X16891073Y-33161704D01*
X16892489Y-33159129D01*
X16894354Y-33156858D01*
X16918740Y-33111378D01*
X16943613Y-33066135D01*
X16944502Y-33063333D01*
X16945890Y-33060744D01*
X16960971Y-33011416D01*
X16976589Y-32962181D01*
X16976917Y-32959258D01*
X16977775Y-32956451D01*
X16982988Y-32905137D01*
X16988746Y-32853802D01*
X16988786Y-32848061D01*
X16988797Y-32847950D01*
X16988787Y-32847847D01*
X16988800Y-32846000D01*
X16988800Y-29455320D01*
X17180000Y-29455320D01*
X17236628Y-29450804D01*
X17332675Y-29421060D01*
X17416633Y-29365736D01*
X17481854Y-29289212D01*
X17523173Y-29197547D01*
X17537320Y-29098000D01*
X17537320Y-27798000D01*
X18022680Y-27798000D01*
X18022680Y-29098000D01*
X18027196Y-29154628D01*
X18056940Y-29250675D01*
X18112264Y-29334633D01*
X18188788Y-29399854D01*
X18280453Y-29441173D01*
X18380000Y-29455320D01*
X19880000Y-29455320D01*
X19936628Y-29450804D01*
X20032675Y-29421060D01*
X20116633Y-29365736D01*
X20181854Y-29289212D01*
X20223173Y-29197547D01*
X20237320Y-29098000D01*
X20237320Y-29011898D01*
X20438711Y-29213289D01*
X20471339Y-29240091D01*
X20503697Y-29267242D01*
X20505803Y-29268400D01*
X20507661Y-29269926D01*
X20544680Y-29289775D01*
X20544680Y-29290000D01*
X20549196Y-29346628D01*
X20578940Y-29442675D01*
X20634264Y-29526633D01*
X20710788Y-29591854D01*
X20802453Y-29633173D01*
X20902000Y-29647320D01*
X21802000Y-29647320D01*
X21858628Y-29642804D01*
X21954675Y-29613060D01*
X22038633Y-29557736D01*
X22103854Y-29481212D01*
X22145173Y-29389547D01*
X22159320Y-29290000D01*
X22159320Y-28490000D01*
X22154804Y-28433372D01*
X22125060Y-28337325D01*
X22069736Y-28253367D01*
X21993212Y-28188146D01*
X21901547Y-28146827D01*
X21802000Y-28132680D01*
X20902000Y-28132680D01*
X20845372Y-28137196D01*
X20749325Y-28166940D01*
X20710863Y-28192285D01*
X20643289Y-28124711D01*
X20610661Y-28097909D01*
X20578303Y-28070758D01*
X20576197Y-28069600D01*
X20574339Y-28068074D01*
X20537144Y-28048130D01*
X20500110Y-28027771D01*
X20497815Y-28027043D01*
X20495700Y-28025909D01*
X20455303Y-28013558D01*
X20415057Y-28000791D01*
X20412674Y-28000524D01*
X20410369Y-27999819D01*
X20368243Y-27995540D01*
X20326384Y-27990845D01*
X20321694Y-27990812D01*
X20321596Y-27990802D01*
X20321505Y-27990811D01*
X20320000Y-27990800D01*
X20237320Y-27990800D01*
X20237320Y-27798000D01*
X20232804Y-27741372D01*
X20203060Y-27645325D01*
X20147736Y-27561367D01*
X20071212Y-27496146D01*
X19979547Y-27454827D01*
X19880000Y-27440680D01*
X18380000Y-27440680D01*
X18323372Y-27445196D01*
X18227325Y-27474940D01*
X18143367Y-27530264D01*
X18078146Y-27606788D01*
X18036827Y-27698453D01*
X18022680Y-27798000D01*
X17537320Y-27798000D01*
X17532804Y-27741372D01*
X17503060Y-27645325D01*
X17447736Y-27561367D01*
X17371212Y-27496146D01*
X17279547Y-27454827D01*
X17180000Y-27440680D01*
X15680000Y-27440680D01*
X15623372Y-27445196D01*
X15527325Y-27474940D01*
X15443367Y-27530264D01*
X15378146Y-27606788D01*
X15336827Y-27698453D01*
X15322680Y-27798000D01*
X15322680Y-29098000D01*
X15327196Y-29154628D01*
X15356940Y-29250675D01*
X15412264Y-29334633D01*
X15488788Y-29399854D01*
X15580453Y-29441173D01*
X15680000Y-29455320D01*
X15871200Y-29455320D01*
X15871200Y-32614538D01*
X15004538Y-33481200D01*
X14275617Y-33481200D01*
X14222636Y-33379858D01*
X14075201Y-33196486D01*
X13894957Y-33045243D01*
X13688769Y-32931890D01*
X13464491Y-32860745D01*
X13230666Y-32834518D01*
X13213833Y-32834400D01*
X13202167Y-32834400D01*
X12967998Y-32857360D01*
X12742749Y-32925367D01*
X12534998Y-33035830D01*
X12352660Y-33184542D01*
X12202679Y-33365837D01*
X12140303Y-33481200D01*
X11167320Y-33481200D01*
X11167320Y-33112000D01*
X11162804Y-33055372D01*
X11133060Y-32959325D01*
X11077736Y-32875367D01*
X11001212Y-32810146D01*
X10909547Y-32768827D01*
X10810000Y-32754680D01*
X9510000Y-32754680D01*
X9453372Y-32759196D01*
X9357325Y-32788940D01*
X9273367Y-32844264D01*
X9208146Y-32920788D01*
X9166827Y-33012453D01*
X9152680Y-33112000D01*
X9152680Y-34612000D01*
X9157196Y-34668628D01*
X9186940Y-34764675D01*
X9242264Y-34848633D01*
X9318788Y-34913854D01*
X9410453Y-34955173D01*
X9510000Y-34969320D01*
X9601200Y-34969320D01*
X9601200Y-36497093D01*
X9128747Y-36969547D01*
X9012200Y-36853000D01*
X7932400Y-36853000D01*
X7932400Y-36875400D01*
X7627600Y-36875400D01*
X7627600Y-36853000D01*
X7607600Y-36853000D01*
X7607600Y-36553000D01*
X7627600Y-36553000D01*
X7627600Y-35583000D01*
X7932400Y-35583000D01*
X7932400Y-36553000D01*
X9012200Y-36553000D01*
X9164600Y-36400600D01*
X9164600Y-36342959D01*
X9141173Y-36225186D01*
X9095220Y-36114246D01*
X9064320Y-36068000D01*
X9095220Y-36021754D01*
X9141173Y-35910814D01*
X9164600Y-35793041D01*
X9164600Y-35735400D01*
X9012200Y-35583000D01*
X7932400Y-35583000D01*
X7627600Y-35583000D01*
X7607600Y-35583000D01*
X7607600Y-35283000D01*
X7627600Y-35283000D01*
X7627600Y-35260600D01*
X7932400Y-35260600D01*
X7932400Y-35283000D01*
X9012200Y-35283000D01*
X9164600Y-35130600D01*
X9164600Y-35072959D01*
X9141173Y-34955186D01*
X9095220Y-34844246D01*
X9028507Y-34744402D01*
X8943597Y-34659493D01*
X8875103Y-34613726D01*
X8898173Y-34562547D01*
X8912320Y-34463000D01*
X8912320Y-33863000D01*
X8907804Y-33806372D01*
X8878060Y-33710325D01*
X8822736Y-33626367D01*
X8746212Y-33561146D01*
X8654547Y-33519827D01*
X8555000Y-33505680D01*
X7005000Y-33505680D01*
X6948372Y-33510196D01*
X6852325Y-33539940D01*
X6768367Y-33595264D01*
X6703146Y-33671788D01*
X6661827Y-33763453D01*
X6647680Y-33863000D01*
X6647680Y-34463000D01*
X6652196Y-34519628D01*
X6681940Y-34615675D01*
X6681952Y-34615694D01*
X6638800Y-34644528D01*
X6638800Y-32981131D01*
X6732675Y-32952060D01*
X6816633Y-32896736D01*
X6881854Y-32820212D01*
X6923173Y-32728547D01*
X6937320Y-32629000D01*
X6937320Y-31466800D01*
X8900400Y-31466800D01*
X8900400Y-31972040D01*
X8923827Y-32089813D01*
X8969779Y-32200754D01*
X9036493Y-32300597D01*
X9121402Y-32385507D01*
X9221246Y-32452220D01*
X9332186Y-32498173D01*
X9449959Y-32521600D01*
X9855200Y-32521600D01*
X10007600Y-32369200D01*
X10007600Y-31314400D01*
X10312400Y-31314400D01*
X10312400Y-32369200D01*
X10464800Y-32521600D01*
X10870041Y-32521600D01*
X10987814Y-32498173D01*
X11098754Y-32452220D01*
X11198598Y-32385507D01*
X11283507Y-32300597D01*
X11350221Y-32200754D01*
X11396173Y-32089813D01*
X11419600Y-31972040D01*
X11419600Y-31466800D01*
X11267200Y-31314400D01*
X10312400Y-31314400D01*
X10007600Y-31314400D01*
X9052800Y-31314400D01*
X8900400Y-31466800D01*
X6937320Y-31466800D01*
X6937320Y-31379000D01*
X6932804Y-31322372D01*
X6903060Y-31226325D01*
X6847736Y-31142367D01*
X6771212Y-31077146D01*
X6679547Y-31035827D01*
X6638800Y-31030036D01*
X6638800Y-30521299D01*
X6682628Y-30517804D01*
X6778675Y-30488060D01*
X6862633Y-30432736D01*
X6927854Y-30356212D01*
X6929770Y-30351960D01*
X8900400Y-30351960D01*
X8900400Y-30857200D01*
X9052800Y-31009600D01*
X10007600Y-31009600D01*
X10007600Y-29954800D01*
X10312400Y-29954800D01*
X10312400Y-31009600D01*
X11267200Y-31009600D01*
X11419600Y-30857200D01*
X11419600Y-30351960D01*
X11396173Y-30234187D01*
X11350221Y-30123246D01*
X11283507Y-30023403D01*
X11198598Y-29938493D01*
X11098754Y-29871780D01*
X10987814Y-29825827D01*
X10870041Y-29802400D01*
X10464800Y-29802400D01*
X10312400Y-29954800D01*
X10007600Y-29954800D01*
X9855200Y-29802400D01*
X9449959Y-29802400D01*
X9332186Y-29825827D01*
X9221246Y-29871780D01*
X9121402Y-29938493D01*
X9036493Y-30023403D01*
X8969779Y-30123246D01*
X8923827Y-30234187D01*
X8900400Y-30351960D01*
X6929770Y-30351960D01*
X6969173Y-30264547D01*
X6983320Y-30165000D01*
X6983320Y-29515000D01*
X6978804Y-29458372D01*
X6949060Y-29362325D01*
X6893736Y-29278367D01*
X6817212Y-29213146D01*
X6725547Y-29171827D01*
X6626000Y-29157680D01*
X5566000Y-29157680D01*
X5509372Y-29162196D01*
X5413325Y-29191940D01*
X5329367Y-29247264D01*
X5264146Y-29323788D01*
X5222827Y-29415453D01*
X5208680Y-29515000D01*
X5208680Y-30165000D01*
X5213196Y-30221628D01*
X5242940Y-30317675D01*
X5298264Y-30401633D01*
X5374788Y-30466854D01*
X5466453Y-30508173D01*
X5521200Y-30515953D01*
X5521200Y-31026869D01*
X5427325Y-31055940D01*
X5343367Y-31111264D01*
X5278146Y-31187788D01*
X5236827Y-31279453D01*
X5222680Y-31379000D01*
X5222680Y-32629000D01*
X5227196Y-32685628D01*
X5256940Y-32781675D01*
X5312264Y-32865633D01*
X5388788Y-32930854D01*
X5480453Y-32972173D01*
X5521200Y-32977964D01*
X5521200Y-36360538D01*
X4467538Y-37414200D01*
X3605905Y-37414200D01*
X3628507Y-37391598D01*
X3695220Y-37291754D01*
X3741173Y-37180814D01*
X3764600Y-37063041D01*
X3764600Y-37005400D01*
X3612200Y-36853000D01*
X2532400Y-36853000D01*
X2532400Y-36875400D01*
X2227600Y-36875400D01*
X2227600Y-36853000D01*
X1147800Y-36853000D01*
X995400Y-37005400D01*
X430600Y-37005400D01*
X430600Y-35735400D01*
X995400Y-35735400D01*
X995400Y-35793041D01*
X1018827Y-35910814D01*
X1064780Y-36021754D01*
X1095680Y-36068000D01*
X1064780Y-36114246D01*
X1018827Y-36225186D01*
X995400Y-36342959D01*
X995400Y-36400600D01*
X1147800Y-36553000D01*
X2227600Y-36553000D01*
X2227600Y-35583000D01*
X2532400Y-35583000D01*
X2532400Y-36553000D01*
X3612200Y-36553000D01*
X3764600Y-36400600D01*
X3764600Y-36342959D01*
X3741173Y-36225186D01*
X3695220Y-36114246D01*
X3664320Y-36068000D01*
X3695220Y-36021754D01*
X3741173Y-35910814D01*
X3764600Y-35793041D01*
X3764600Y-35735400D01*
X3612200Y-35583000D01*
X2532400Y-35583000D01*
X2227600Y-35583000D01*
X1147800Y-35583000D01*
X995400Y-35735400D01*
X430600Y-35735400D01*
X430600Y-35072959D01*
X995400Y-35072959D01*
X995400Y-35130600D01*
X1147800Y-35283000D01*
X2227600Y-35283000D01*
X2227600Y-35260600D01*
X2532400Y-35260600D01*
X2532400Y-35283000D01*
X3612200Y-35283000D01*
X3764600Y-35130600D01*
X3764600Y-35072959D01*
X3741173Y-34955186D01*
X3695220Y-34844246D01*
X3628507Y-34744402D01*
X3543597Y-34659493D01*
X3475103Y-34613726D01*
X3498173Y-34562547D01*
X3512320Y-34463000D01*
X3512320Y-33863000D01*
X3507804Y-33806372D01*
X3478060Y-33710325D01*
X3422736Y-33626367D01*
X3346212Y-33561146D01*
X3254547Y-33519827D01*
X3155000Y-33505680D01*
X1605000Y-33505680D01*
X1548372Y-33510196D01*
X1452325Y-33539940D01*
X1368367Y-33595264D01*
X1303146Y-33671788D01*
X1261827Y-33763453D01*
X1247680Y-33863000D01*
X1247680Y-34463000D01*
X1252196Y-34519628D01*
X1281940Y-34615675D01*
X1281952Y-34615694D01*
X1216403Y-34659493D01*
X1131493Y-34744402D01*
X1064780Y-34844246D01*
X1018827Y-34955186D01*
X995400Y-35072959D01*
X430600Y-35072959D01*
X430600Y-32308800D01*
X2970400Y-32308800D01*
X2970400Y-32689041D01*
X2993827Y-32806814D01*
X3039780Y-32917754D01*
X3106493Y-33017598D01*
X3191403Y-33102507D01*
X3291246Y-33169221D01*
X3402187Y-33215173D01*
X3519960Y-33238600D01*
X3775200Y-33238600D01*
X3927600Y-33086200D01*
X3927600Y-32156400D01*
X4232400Y-32156400D01*
X4232400Y-33086200D01*
X4384800Y-33238600D01*
X4640040Y-33238600D01*
X4757813Y-33215173D01*
X4868754Y-33169221D01*
X4968597Y-33102507D01*
X5053507Y-33017598D01*
X5120220Y-32917754D01*
X5166173Y-32806814D01*
X5189600Y-32689041D01*
X5189600Y-32308800D01*
X5037200Y-32156400D01*
X4232400Y-32156400D01*
X3927600Y-32156400D01*
X3122800Y-32156400D01*
X2970400Y-32308800D01*
X430600Y-32308800D01*
X430600Y-31318959D01*
X2970400Y-31318959D01*
X2970400Y-31699200D01*
X3122800Y-31851600D01*
X3927600Y-31851600D01*
X3927600Y-30921800D01*
X4232400Y-30921800D01*
X4232400Y-31851600D01*
X5037200Y-31851600D01*
X5189600Y-31699200D01*
X5189600Y-31318959D01*
X5166173Y-31201186D01*
X5120220Y-31090246D01*
X5053507Y-30990402D01*
X4968597Y-30905493D01*
X4868754Y-30838779D01*
X4757813Y-30792827D01*
X4640040Y-30769400D01*
X4384800Y-30769400D01*
X4232400Y-30921800D01*
X3927600Y-30921800D01*
X3775200Y-30769400D01*
X3519960Y-30769400D01*
X3402187Y-30792827D01*
X3291246Y-30838779D01*
X3191403Y-30905493D01*
X3106493Y-30990402D01*
X3039780Y-31090246D01*
X2993827Y-31201186D01*
X2970400Y-31318959D01*
X430600Y-31318959D01*
X430600Y-28244800D01*
X2756400Y-28244800D01*
X2756400Y-28325041D01*
X2779827Y-28442814D01*
X2825780Y-28553754D01*
X2892493Y-28653598D01*
X2977403Y-28738507D01*
X3008680Y-28759406D01*
X3008680Y-29215000D01*
X3013196Y-29271628D01*
X3042940Y-29367675D01*
X3043785Y-29368958D01*
X3022827Y-29415453D01*
X3008680Y-29515000D01*
X3008680Y-30165000D01*
X3013196Y-30221628D01*
X3042940Y-30317675D01*
X3098264Y-30401633D01*
X3174788Y-30466854D01*
X3266453Y-30508173D01*
X3366000Y-30522320D01*
X4426000Y-30522320D01*
X4482628Y-30517804D01*
X4578675Y-30488060D01*
X4662633Y-30432736D01*
X4727854Y-30356212D01*
X4769173Y-30264547D01*
X4783320Y-30165000D01*
X4783320Y-29515000D01*
X4778804Y-29458372D01*
X4749060Y-29362325D01*
X4748215Y-29361042D01*
X4763353Y-29327458D01*
X4767200Y-29326296D01*
X4807790Y-29314504D01*
X4809929Y-29313395D01*
X4812225Y-29312702D01*
X4849496Y-29292885D01*
X4887009Y-29273440D01*
X4888885Y-29271942D01*
X4891011Y-29270812D01*
X4923784Y-29244083D01*
X4956743Y-29217772D01*
X4960085Y-29214477D01*
X4960159Y-29214416D01*
X4960216Y-29214347D01*
X4961289Y-29213289D01*
X5319155Y-28855424D01*
X5345985Y-28822761D01*
X5373107Y-28790438D01*
X5374264Y-28788333D01*
X5375792Y-28786473D01*
X5395734Y-28749279D01*
X5416094Y-28712245D01*
X5416823Y-28709948D01*
X5417956Y-28707834D01*
X5430303Y-28667452D01*
X5443074Y-28627192D01*
X5443341Y-28624809D01*
X5444046Y-28622504D01*
X5446419Y-28599142D01*
X5466453Y-28608173D01*
X5566000Y-28622320D01*
X6626000Y-28622320D01*
X6682628Y-28617804D01*
X6778675Y-28588060D01*
X6862633Y-28532736D01*
X6927854Y-28456212D01*
X6954454Y-28397200D01*
X11506320Y-28397200D01*
X12750800Y-29641680D01*
X12750800Y-30382936D01*
X12742749Y-30385367D01*
X12534998Y-30495830D01*
X12352660Y-30644542D01*
X12202679Y-30825837D01*
X12090769Y-31032811D01*
X12021191Y-31257580D01*
X11996596Y-31491583D01*
X12017921Y-31725907D01*
X12084354Y-31951626D01*
X12193364Y-32160142D01*
X12340799Y-32343514D01*
X12521043Y-32494757D01*
X12727231Y-32608110D01*
X12951509Y-32679255D01*
X13185334Y-32705482D01*
X13202167Y-32705600D01*
X13213833Y-32705600D01*
X13448002Y-32682640D01*
X13673251Y-32614633D01*
X13881002Y-32504170D01*
X14063340Y-32355458D01*
X14213321Y-32174163D01*
X14325231Y-31967189D01*
X14394809Y-31742420D01*
X14419404Y-31508417D01*
X14398079Y-31274093D01*
X14331646Y-31048374D01*
X14222636Y-30839858D01*
X14075201Y-30656486D01*
X13894957Y-30505243D01*
X13688769Y-30391890D01*
X13665200Y-30384413D01*
X13665200Y-29452302D01*
X13661078Y-29410259D01*
X13657398Y-29368199D01*
X13656728Y-29365892D01*
X13656493Y-29363498D01*
X13644296Y-29323102D01*
X13632504Y-29282512D01*
X13631395Y-29280373D01*
X13630702Y-29278077D01*
X13610885Y-29240806D01*
X13591440Y-29203293D01*
X13589942Y-29201417D01*
X13588812Y-29199291D01*
X13562083Y-29166518D01*
X13535772Y-29133559D01*
X13532477Y-29130217D01*
X13532416Y-29130143D01*
X13532347Y-29130086D01*
X13531289Y-29129013D01*
X12018987Y-27616711D01*
X11986359Y-27589909D01*
X11954001Y-27562758D01*
X11951895Y-27561600D01*
X11950037Y-27560074D01*
X11912842Y-27540130D01*
X11875808Y-27519771D01*
X11873513Y-27519043D01*
X11871398Y-27517909D01*
X11831001Y-27505558D01*
X11790755Y-27492791D01*
X11788372Y-27492524D01*
X11786067Y-27491819D01*
X11743941Y-27487540D01*
X11702082Y-27482845D01*
X11697392Y-27482812D01*
X11697294Y-27482802D01*
X11697203Y-27482811D01*
X11695698Y-27482800D01*
X6955401Y-27482800D01*
X6949060Y-27462325D01*
X6893736Y-27378367D01*
X6817212Y-27313146D01*
X6725547Y-27271827D01*
X6626000Y-27257680D01*
X5666463Y-27257680D01*
X6190376Y-26733767D01*
X11055541Y-26733767D01*
X11097584Y-26729645D01*
X11139644Y-26725965D01*
X11141951Y-26725295D01*
X11144345Y-26725060D01*
X11184741Y-26712863D01*
X11225331Y-26701071D01*
X11227470Y-26699962D01*
X11229766Y-26699269D01*
X11267037Y-26679452D01*
X11304550Y-26660007D01*
X11306426Y-26658509D01*
X11308552Y-26657379D01*
X11341325Y-26630650D01*
X11374284Y-26604339D01*
X11377626Y-26601044D01*
X11377700Y-26600983D01*
X11377757Y-26600914D01*
X11378830Y-26599856D01*
X11934857Y-26043829D01*
X11959183Y-26056982D01*
X12219376Y-26137525D01*
X12490257Y-26165996D01*
X12761509Y-26141310D01*
X13022801Y-26064408D01*
X13264179Y-25938218D01*
X13476450Y-25767548D01*
X13651528Y-25558898D01*
X13782745Y-25320215D01*
X13865103Y-25060592D01*
X13895464Y-24789916D01*
X13895600Y-24770430D01*
X13895600Y-23229570D01*
X13869021Y-22958497D01*
X13790296Y-22697748D01*
X13662425Y-22457257D01*
X13490277Y-22246182D01*
X13280410Y-22072565D01*
X13040817Y-21943018D01*
X12780624Y-21862475D01*
X12509743Y-21834004D01*
X12238491Y-21858690D01*
X11977199Y-21935592D01*
X11735821Y-22061782D01*
X11523550Y-22232452D01*
X11348472Y-22441102D01*
X11217255Y-22679785D01*
X11134897Y-22939408D01*
X11104536Y-23210084D01*
X11104400Y-23229570D01*
X11104400Y-24770430D01*
X11130979Y-25041503D01*
X11209704Y-25302252D01*
X11269957Y-25415572D01*
X10866163Y-25819367D01*
X9499600Y-25819367D01*
X9499600Y-21183600D01*
X11684000Y-21183600D01*
X11813245Y-21159281D01*
X11931950Y-21082897D01*
X12011584Y-20966348D01*
X12039600Y-20828000D01*
X12039600Y-18840400D01*
X12840400Y-18840400D01*
X12840400Y-19148041D01*
X12863827Y-19265814D01*
X12909780Y-19376754D01*
X12976493Y-19476598D01*
X13061403Y-19561507D01*
X13161246Y-19628221D01*
X13272187Y-19674173D01*
X13389960Y-19697600D01*
X14514200Y-19697600D01*
X14666600Y-19545200D01*
X14666600Y-18688000D01*
X15733400Y-18688000D01*
X15733400Y-19545200D01*
X15885800Y-19697600D01*
X17010040Y-19697600D01*
X17127813Y-19674173D01*
X17238754Y-19628221D01*
X17338597Y-19561507D01*
X17423507Y-19476598D01*
X17490220Y-19376754D01*
X17536173Y-19265814D01*
X17559600Y-19148041D01*
X17559600Y-18840400D01*
X17407200Y-18688000D01*
X15733400Y-18688000D01*
X14666600Y-18688000D01*
X12992800Y-18688000D01*
X12840400Y-18840400D01*
X12039600Y-18840400D01*
X12039600Y-17427959D01*
X12840400Y-17427959D01*
X12840400Y-17735600D01*
X12992800Y-17888000D01*
X14666600Y-17888000D01*
X14666600Y-17030800D01*
X15733400Y-17030800D01*
X15733400Y-17888000D01*
X17407200Y-17888000D01*
X17559600Y-17735600D01*
X17559600Y-17427959D01*
X17536173Y-17310186D01*
X17490220Y-17199246D01*
X17423507Y-17099402D01*
X17338597Y-17014493D01*
X17238754Y-16947779D01*
X17127813Y-16901827D01*
X17010040Y-16878400D01*
X15885800Y-16878400D01*
X15733400Y-17030800D01*
X14666600Y-17030800D01*
X14514200Y-16878400D01*
X13389960Y-16878400D01*
X13272187Y-16901827D01*
X13161246Y-16947779D01*
X13061403Y-17014493D01*
X12976493Y-17099402D01*
X12909780Y-17199246D01*
X12863827Y-17310186D01*
X12840400Y-17427959D01*
X12039600Y-17427959D01*
X12039600Y-17272000D01*
X12015281Y-17142755D01*
X11938897Y-17024050D01*
X11822348Y-16944416D01*
X11684000Y-16916400D01*
X5588000Y-16916400D01*
X5458755Y-16940719D01*
X5340050Y-17017103D01*
X5260416Y-17133652D01*
X5232400Y-17272000D01*
X5232400Y-25908000D01*
X5256719Y-26037245D01*
X5333103Y-26155950D01*
X5417424Y-26213563D01*
X4672576Y-26958411D01*
X4645774Y-26991039D01*
X4618623Y-27023397D01*
X4617465Y-27025503D01*
X4615939Y-27027361D01*
X4613092Y-27032670D01*
X4603813Y-27028827D01*
X4486040Y-27005400D01*
X4200800Y-27005400D01*
X4048400Y-27157800D01*
X4048400Y-27787600D01*
X4068400Y-27787600D01*
X4068400Y-28092400D01*
X4048400Y-28092400D01*
X4048400Y-28112400D01*
X3743600Y-28112400D01*
X3743600Y-28092400D01*
X2908800Y-28092400D01*
X2756400Y-28244800D01*
X430600Y-28244800D01*
X430600Y-27554959D01*
X2756400Y-27554959D01*
X2756400Y-27635200D01*
X2908800Y-27787600D01*
X3743600Y-27787600D01*
X3743600Y-27157800D01*
X3591200Y-27005400D01*
X3305960Y-27005400D01*
X3188187Y-27028827D01*
X3077246Y-27074779D01*
X2977403Y-27141493D01*
X2892493Y-27226402D01*
X2825780Y-27326246D01*
X2779827Y-27437186D01*
X2756400Y-27554959D01*
X430600Y-27554959D01*
X430600Y-11456242D01*
X3886929Y-11456242D01*
X3953470Y-11818795D01*
X4089164Y-12161519D01*
X4288842Y-12471359D01*
X4544899Y-12736514D01*
X4847582Y-12946884D01*
X4966371Y-12998782D01*
X4893975Y-13028032D01*
X4585537Y-13229868D01*
X4322176Y-13487770D01*
X4113924Y-13791914D01*
X3968714Y-14130715D01*
X3892075Y-14491269D01*
X3886929Y-14859842D01*
X3953470Y-15222395D01*
X4089164Y-15565119D01*
X4288842Y-15874959D01*
X4544899Y-16140114D01*
X4847582Y-16350484D01*
X5185361Y-16498056D01*
X5545371Y-16577209D01*
X5913899Y-16584929D01*
X6276908Y-16520920D01*
X6620570Y-16387622D01*
X6931797Y-16190112D01*
X7198733Y-15935912D01*
X7411211Y-15634706D01*
X7561137Y-15297965D01*
X7642802Y-14938516D01*
X7648681Y-14517496D01*
X7577085Y-14155907D01*
X7436619Y-13815111D01*
X7232634Y-13508089D01*
X6972900Y-13246535D01*
X6667309Y-13040412D01*
X6575109Y-13001655D01*
X6620570Y-12984022D01*
X6931797Y-12786512D01*
X7198733Y-12532312D01*
X7411211Y-12231106D01*
X7561137Y-11894365D01*
X7642802Y-11534916D01*
X7643900Y-11456242D01*
X17348929Y-11456242D01*
X17415470Y-11818795D01*
X17551164Y-12161519D01*
X17750842Y-12471359D01*
X18006899Y-12736514D01*
X18309582Y-12946884D01*
X18428371Y-12998782D01*
X18355975Y-13028032D01*
X18047537Y-13229868D01*
X17784176Y-13487770D01*
X17575924Y-13791914D01*
X17430714Y-14130715D01*
X17354075Y-14491269D01*
X17348929Y-14859842D01*
X17415470Y-15222395D01*
X17551164Y-15565119D01*
X17750842Y-15874959D01*
X18006899Y-16140114D01*
X18309582Y-16350484D01*
X18647361Y-16498056D01*
X18672200Y-16503517D01*
X18672200Y-22021379D01*
X18677241Y-22072793D01*
X18681736Y-22124170D01*
X18682555Y-22126989D01*
X18682842Y-22129917D01*
X18697767Y-22179349D01*
X18712162Y-22228899D01*
X18713515Y-22231509D01*
X18714364Y-22234321D01*
X18738586Y-22279876D01*
X18762351Y-22325723D01*
X18764185Y-22328020D01*
X18765564Y-22330614D01*
X18798175Y-22370599D01*
X18830390Y-22410955D01*
X18834421Y-22415042D01*
X18834492Y-22415129D01*
X18834573Y-22415196D01*
X18835869Y-22416510D01*
X20182490Y-23763131D01*
X20222364Y-23795884D01*
X20261917Y-23829073D01*
X20264492Y-23830489D01*
X20266763Y-23832354D01*
X20312243Y-23856740D01*
X20328680Y-23865777D01*
X20328680Y-24118000D01*
X20333196Y-24174628D01*
X20362940Y-24270675D01*
X20418264Y-24354633D01*
X20494788Y-24419854D01*
X20586453Y-24461173D01*
X20686000Y-24475320D01*
X20793200Y-24475320D01*
X20793200Y-26253353D01*
X20749325Y-26266940D01*
X20665367Y-26322264D01*
X20600146Y-26398788D01*
X20558827Y-26490453D01*
X20544680Y-26590000D01*
X20544680Y-27390000D01*
X20549196Y-27446628D01*
X20578940Y-27542675D01*
X20634264Y-27626633D01*
X20710788Y-27691854D01*
X20802453Y-27733173D01*
X20902000Y-27747320D01*
X21802000Y-27747320D01*
X21858628Y-27742804D01*
X21954675Y-27713060D01*
X22038633Y-27657736D01*
X22103854Y-27581212D01*
X22145173Y-27489547D01*
X22159320Y-27390000D01*
X22159320Y-26590000D01*
X22154804Y-26533372D01*
X22125060Y-26437325D01*
X22069736Y-26353367D01*
X21993212Y-26288146D01*
X21910800Y-26250998D01*
X21910800Y-24475320D01*
X21986000Y-24475320D01*
X22042628Y-24470804D01*
X22138675Y-24441060D01*
X22222633Y-24385736D01*
X22287854Y-24309212D01*
X22329173Y-24217547D01*
X22343320Y-24118000D01*
X22343320Y-22618000D01*
X22338804Y-22561372D01*
X22309060Y-22465325D01*
X22253736Y-22381367D01*
X22177212Y-22316146D01*
X22085547Y-22274827D01*
X21986000Y-22260680D01*
X21850279Y-22260680D01*
X21912992Y-22171777D01*
X21965669Y-22053463D01*
X21994362Y-21927171D01*
X21996428Y-21779244D01*
X21995501Y-21774562D01*
X22042628Y-21770804D01*
X22138675Y-21741060D01*
X22222633Y-21685736D01*
X22287854Y-21609212D01*
X22329173Y-21517547D01*
X22343320Y-21418000D01*
X22343320Y-19918000D01*
X22360680Y-19918000D01*
X22360680Y-21418000D01*
X22365196Y-21474628D01*
X22394940Y-21570675D01*
X22450264Y-21654633D01*
X22526788Y-21719854D01*
X22618453Y-21761173D01*
X22708486Y-21773968D01*
X22706732Y-21899528D01*
X22730112Y-22026912D01*
X22777788Y-22147328D01*
X22847945Y-22256191D01*
X22852280Y-22260680D01*
X22718000Y-22260680D01*
X22661372Y-22265196D01*
X22565325Y-22294940D01*
X22481367Y-22350264D01*
X22416146Y-22426788D01*
X22374827Y-22518453D01*
X22360680Y-22618000D01*
X22360680Y-24118000D01*
X22365196Y-24174628D01*
X22394940Y-24270675D01*
X22450264Y-24354633D01*
X22526788Y-24419854D01*
X22618453Y-24461173D01*
X22718000Y-24475320D01*
X22894800Y-24475320D01*
X22894800Y-27183254D01*
X22845372Y-27187196D01*
X22749325Y-27216940D01*
X22665367Y-27272264D01*
X22600146Y-27348788D01*
X22558827Y-27440453D01*
X22544680Y-27540000D01*
X22544680Y-28340000D01*
X22549196Y-28396628D01*
X22578940Y-28492675D01*
X22634264Y-28576633D01*
X22710788Y-28641854D01*
X22802453Y-28683173D01*
X22902000Y-28697320D01*
X23802000Y-28697320D01*
X23858628Y-28692804D01*
X23954675Y-28663060D01*
X24038633Y-28607736D01*
X24103854Y-28531212D01*
X24145173Y-28439547D01*
X24159320Y-28340000D01*
X24159320Y-27540000D01*
X24154804Y-27483372D01*
X24125060Y-27387325D01*
X24069736Y-27303367D01*
X23993212Y-27238146D01*
X23901547Y-27196827D01*
X23809200Y-27183703D01*
X23809200Y-24475320D01*
X24018000Y-24475320D01*
X24074628Y-24470804D01*
X24170675Y-24441060D01*
X24254633Y-24385736D01*
X24319854Y-24309212D01*
X24361173Y-24217547D01*
X24375320Y-24118000D01*
X24375320Y-22618000D01*
X24370804Y-22561372D01*
X24341060Y-22465325D01*
X24285736Y-22381367D01*
X24209212Y-22316146D01*
X24117547Y-22274827D01*
X24018000Y-22260680D01*
X23882279Y-22260680D01*
X23944992Y-22171777D01*
X23997669Y-22053463D01*
X24026362Y-21927171D01*
X24028428Y-21779244D01*
X24027501Y-21774562D01*
X24074628Y-21770804D01*
X24170675Y-21741060D01*
X24254633Y-21685736D01*
X24319854Y-21609212D01*
X24361173Y-21517547D01*
X24375320Y-21418000D01*
X24375320Y-19918000D01*
X24370804Y-19861372D01*
X24341060Y-19765325D01*
X24285736Y-19681367D01*
X24209212Y-19616146D01*
X24117547Y-19574827D01*
X24018000Y-19560680D01*
X22718000Y-19560680D01*
X22661372Y-19565196D01*
X22565325Y-19594940D01*
X22481367Y-19650264D01*
X22416146Y-19726788D01*
X22374827Y-19818453D01*
X22360680Y-19918000D01*
X22343320Y-19918000D01*
X22338804Y-19861372D01*
X22309060Y-19765325D01*
X22253736Y-19681367D01*
X22177212Y-19616146D01*
X22085547Y-19574827D01*
X21986000Y-19560680D01*
X20686000Y-19560680D01*
X20629372Y-19565196D01*
X20533325Y-19594940D01*
X20449367Y-19650264D01*
X20384146Y-19726788D01*
X20342827Y-19818453D01*
X20328680Y-19918000D01*
X20328680Y-21418000D01*
X20333196Y-21474628D01*
X20362940Y-21570675D01*
X20418264Y-21654633D01*
X20494788Y-21719854D01*
X20586453Y-21761173D01*
X20676486Y-21773968D01*
X20674732Y-21899528D01*
X20698112Y-22026912D01*
X20745788Y-22147328D01*
X20815945Y-22256191D01*
X20820280Y-22260680D01*
X20686000Y-22260680D01*
X20629372Y-22265196D01*
X20533325Y-22294940D01*
X20449367Y-22350264D01*
X20403713Y-22403830D01*
X19789800Y-21789917D01*
X19789800Y-16501180D01*
X20082570Y-16387622D01*
X20393797Y-16190112D01*
X20660733Y-15935912D01*
X20873211Y-15634706D01*
X21023137Y-15297965D01*
X21104802Y-14938516D01*
X21110681Y-14517496D01*
X21039085Y-14155907D01*
X20898619Y-13815111D01*
X20694634Y-13508089D01*
X20434900Y-13246535D01*
X20129309Y-13040412D01*
X20037109Y-13001655D01*
X20082570Y-12984022D01*
X20393797Y-12786512D01*
X20660733Y-12532312D01*
X20873211Y-12231106D01*
X21023137Y-11894365D01*
X21104802Y-11534916D01*
X21110681Y-11113896D01*
X21039085Y-10752307D01*
X20898619Y-10411511D01*
X20694634Y-10104489D01*
X20434900Y-9842935D01*
X20129309Y-9636812D01*
X19789502Y-9493971D01*
X19428422Y-9419851D01*
X19059823Y-9417278D01*
X18697743Y-9486348D01*
X18355975Y-9624432D01*
X18047537Y-9826268D01*
X17784176Y-10084170D01*
X17575924Y-10388314D01*
X17430714Y-10727115D01*
X17354075Y-11087669D01*
X17348929Y-11456242D01*
X7643900Y-11456242D01*
X7648681Y-11113896D01*
X7577085Y-10752307D01*
X7436619Y-10411511D01*
X7232634Y-10104489D01*
X6972900Y-9842935D01*
X6667309Y-9636812D01*
X6327502Y-9493971D01*
X5966422Y-9419851D01*
X5597823Y-9417278D01*
X5235743Y-9486348D01*
X4893975Y-9624432D01*
X4585537Y-9826268D01*
X4322176Y-10084170D01*
X4113924Y-10388314D01*
X3968714Y-10727115D01*
X3892075Y-11087669D01*
X3886929Y-11456242D01*
X430600Y-11456242D01*
X430600Y-9092626D01*
X1896952Y-9092626D01*
X1935951Y-9305111D01*
X2015478Y-9505975D01*
X2132506Y-9687567D01*
X2282577Y-9842970D01*
X2459974Y-9966264D01*
X2657940Y-10052753D01*
X2868935Y-10099143D01*
X3084923Y-10103668D01*
X3297675Y-10066154D01*
X3499090Y-9988030D01*
X3681494Y-9872273D01*
X3837941Y-9723291D01*
X3962470Y-9546759D01*
X4050339Y-9349401D01*
X4098202Y-9138735D01*
X4098845Y-9092626D01*
X20896952Y-9092626D01*
X20935951Y-9305111D01*
X21015478Y-9505975D01*
X21132506Y-9687567D01*
X21282577Y-9842970D01*
X21459974Y-9966264D01*
X21657940Y-10052753D01*
X21868935Y-10099143D01*
X22084923Y-10103668D01*
X22297675Y-10066154D01*
X22499090Y-9988030D01*
X22681494Y-9872273D01*
X22837941Y-9723291D01*
X22962470Y-9546759D01*
X23050339Y-9349401D01*
X23098202Y-9138735D01*
X23101647Y-8891983D01*
X23059686Y-8680062D01*
X22977361Y-8480328D01*
X22857809Y-8300388D01*
X22705584Y-8147096D01*
X22526483Y-8026291D01*
X22327328Y-7942574D01*
X22115706Y-7899134D01*
X21899676Y-7897626D01*
X21687468Y-7938107D01*
X21487164Y-8019035D01*
X21306393Y-8137327D01*
X21152042Y-8288479D01*
X21029990Y-8466732D01*
X20944885Y-8665298D01*
X20899968Y-8876612D01*
X20896952Y-9092626D01*
X4098845Y-9092626D01*
X4101647Y-8891983D01*
X4059686Y-8680062D01*
X3977361Y-8480328D01*
X3857809Y-8300388D01*
X3705584Y-8147096D01*
X3526483Y-8026291D01*
X3327328Y-7942574D01*
X3115706Y-7899134D01*
X2899676Y-7897626D01*
X2687468Y-7938107D01*
X2487164Y-8019035D01*
X2306393Y-8137327D01*
X2152042Y-8288479D01*
X2029990Y-8466732D01*
X1944885Y-8665298D01*
X1899968Y-8876612D01*
X1896952Y-9092626D01*
X430600Y-9092626D01*
X430600Y-7430600D01*
X9000000Y-7430600D01*
X9040268Y-7426652D01*
X9080686Y-7422973D01*
X9082136Y-7422546D01*
X9083637Y-7422399D01*
X9122454Y-7410680D01*
X9161306Y-7399245D01*
X9162641Y-7398547D01*
X9164089Y-7398110D01*
X9199878Y-7379081D01*
X9235781Y-7360311D01*
X9236960Y-7359363D01*
X9238290Y-7358656D01*
X9269638Y-7333089D01*
X9301275Y-7307652D01*
X9302247Y-7306494D01*
X9303415Y-7305541D01*
X9329213Y-7274357D01*
X9355294Y-7243275D01*
X9356022Y-7241951D01*
X9356984Y-7240788D01*
X9376241Y-7205172D01*
X9395780Y-7169631D01*
X9396237Y-7168190D01*
X9396954Y-7166864D01*
X9408929Y-7128179D01*
X9421190Y-7089527D01*
X9421358Y-7088027D01*
X9421805Y-7086584D01*
X9426046Y-7046233D01*
X9430558Y-7006012D01*
X9430578Y-7003118D01*
X9430590Y-7003006D01*
X9430580Y-7002894D01*
X9430600Y-7000000D01*
X9430600Y-3664432D01*
X10541830Y-3664432D01*
X10611061Y-4041644D01*
X10752242Y-4398226D01*
X10959994Y-4720594D01*
X11226404Y-4996470D01*
X11541326Y-5215346D01*
X11892762Y-5368885D01*
X12267329Y-5451239D01*
X12650758Y-5459270D01*
X13028444Y-5392674D01*
X13386002Y-5253986D01*
X13709813Y-5048490D01*
X13987542Y-4784012D01*
X14208611Y-4470626D01*
X14364600Y-4120270D01*
X14449567Y-3746288D01*
X14455684Y-3308244D01*
X14381192Y-2932035D01*
X14235047Y-2577459D01*
X14022814Y-2258023D01*
X13752578Y-1985894D01*
X13434631Y-1771436D01*
X13081085Y-1622819D01*
X12705405Y-1545703D01*
X12321901Y-1543025D01*
X11945182Y-1614889D01*
X11589595Y-1758555D01*
X11268685Y-1968553D01*
X10994675Y-2236882D01*
X10778003Y-2553324D01*
X10626921Y-2905824D01*
X10547184Y-3280957D01*
X10541830Y-3664432D01*
X9430600Y-3664432D01*
X9430600Y-3521061D01*
X9491082Y-2904219D01*
X9664108Y-2331129D01*
X9945152Y-1802563D01*
X10323508Y-1338651D01*
X10784767Y-957064D01*
X11311356Y-672338D01*
X11883226Y-495315D01*
X12478585Y-432740D01*
X13074761Y-486996D01*
X13074761Y-486996D01*
G37*
X13074761Y-486996D02*
X13649047Y-656018D01*
X14179557Y-933362D01*
X14646101Y-1308472D01*
X15030899Y-1767056D01*
X15319296Y-2291647D01*
X15500308Y-2862269D01*
X15569226Y-3476694D01*
X15569400Y-3501571D01*
X15569400Y-7000000D01*
X15573348Y-7040268D01*
X15577027Y-7080686D01*
X15577454Y-7082136D01*
X15577601Y-7083637D01*
X15589320Y-7122454D01*
X15600755Y-7161306D01*
X15601453Y-7162641D01*
X15601890Y-7164089D01*
X15620919Y-7199878D01*
X15639689Y-7235781D01*
X15640637Y-7236960D01*
X15641344Y-7238290D01*
X15666911Y-7269638D01*
X15692348Y-7301275D01*
X15693506Y-7302247D01*
X15694459Y-7303415D01*
X15725643Y-7329213D01*
X15756725Y-7355294D01*
X15758049Y-7356022D01*
X15759212Y-7356984D01*
X15794828Y-7376241D01*
X15830369Y-7395780D01*
X15831810Y-7396237D01*
X15833136Y-7396954D01*
X15871821Y-7408929D01*
X15910473Y-7421190D01*
X15911973Y-7421358D01*
X15913416Y-7421805D01*
X15953767Y-7426046D01*
X15993988Y-7430558D01*
X15996882Y-7430578D01*
X15996994Y-7430590D01*
X15997106Y-7430580D01*
X16000000Y-7430600D01*
X24569400Y-7430600D01*
X24569400Y-39569400D01*
X16000000Y-39569400D01*
X15959732Y-39573348D01*
X15919314Y-39577027D01*
X15917864Y-39577454D01*
X15916363Y-39577601D01*
X15877546Y-39589320D01*
X15838694Y-39600755D01*
X15837359Y-39601453D01*
X15835911Y-39601890D01*
X15800122Y-39620919D01*
X15764219Y-39639689D01*
X15763040Y-39640637D01*
X15761710Y-39641344D01*
X15730362Y-39666911D01*
X15698725Y-39692348D01*
X15697753Y-39693506D01*
X15696585Y-39694459D01*
X15670787Y-39725643D01*
X15644706Y-39756725D01*
X15643978Y-39758049D01*
X15643016Y-39759212D01*
X15623759Y-39794828D01*
X15604220Y-39830369D01*
X15603763Y-39831810D01*
X15603046Y-39833136D01*
X15591071Y-39871821D01*
X15578810Y-39910473D01*
X15578642Y-39911973D01*
X15578195Y-39913416D01*
X15573954Y-39953767D01*
X15569442Y-39993988D01*
X15569422Y-39996882D01*
X15569410Y-39996994D01*
X15569420Y-39997106D01*
X15569400Y-40000000D01*
X15569400Y-43478939D01*
X15508918Y-44095781D01*
X15335891Y-44668873D01*
X15054848Y-45197436D01*
X14676491Y-45661350D01*
X14215231Y-46042937D01*
X13688640Y-46327663D01*
X13116772Y-46504685D01*
X12521415Y-46567261D01*
X11925239Y-46513004D01*
X11350953Y-46343982D01*
X10820443Y-46066638D01*
X10353899Y-45691527D01*
X9969101Y-45232944D01*
X9680703Y-44708351D01*
X9499692Y-44137733D01*
X9446604Y-43664432D01*
X10541830Y-43664432D01*
X10611061Y-44041644D01*
X10752242Y-44398226D01*
X10959994Y-44720594D01*
X11226404Y-44996470D01*
X11541326Y-45215346D01*
X11892762Y-45368885D01*
X12267329Y-45451239D01*
X12650758Y-45459270D01*
X13028444Y-45392674D01*
X13386002Y-45253986D01*
X13709813Y-45048490D01*
X13987542Y-44784012D01*
X14208611Y-44470626D01*
X14364600Y-44120270D01*
X14449567Y-43746288D01*
X14455684Y-43308244D01*
X14381192Y-42932035D01*
X14235047Y-42577459D01*
X14022814Y-42258023D01*
X13752578Y-41985894D01*
X13434631Y-41771436D01*
X13081085Y-41622819D01*
X12705405Y-41545703D01*
X12321901Y-41543025D01*
X11945182Y-41614889D01*
X11589595Y-41758555D01*
X11268685Y-41968553D01*
X10994675Y-42236882D01*
X10778003Y-42553324D01*
X10626921Y-42905824D01*
X10547184Y-43280957D01*
X10541830Y-43664432D01*
X9446604Y-43664432D01*
X9430774Y-43523306D01*
X9430600Y-43498428D01*
X9430600Y-40000000D01*
X9426652Y-39959732D01*
X9422973Y-39919314D01*
X9422546Y-39917864D01*
X9422399Y-39916363D01*
X9410680Y-39877546D01*
X9399245Y-39838694D01*
X9398547Y-39837359D01*
X9398110Y-39835911D01*
X9379081Y-39800122D01*
X9360311Y-39764219D01*
X9359363Y-39763040D01*
X9358656Y-39761710D01*
X9333089Y-39730362D01*
X9307652Y-39698725D01*
X9306494Y-39697753D01*
X9305541Y-39696585D01*
X9274357Y-39670787D01*
X9243275Y-39644706D01*
X9241951Y-39643978D01*
X9240788Y-39643016D01*
X9205172Y-39623759D01*
X9169631Y-39604220D01*
X9168190Y-39603763D01*
X9166864Y-39603046D01*
X9128179Y-39591071D01*
X9089527Y-39578810D01*
X9088027Y-39578642D01*
X9086584Y-39578195D01*
X9046233Y-39573954D01*
X9006012Y-39569442D01*
X9003118Y-39569422D01*
X9003006Y-39569410D01*
X9002894Y-39569420D01*
X9000000Y-39569400D01*
X430600Y-39569400D01*
X430600Y-39092626D01*
X9396952Y-39092626D01*
X9435951Y-39305111D01*
X9515478Y-39505975D01*
X9632506Y-39687567D01*
X9782577Y-39842970D01*
X9959974Y-39966264D01*
X10157940Y-40052753D01*
X10368935Y-40099143D01*
X10584923Y-40103668D01*
X10797675Y-40066154D01*
X10999090Y-39988030D01*
X11181494Y-39872273D01*
X11337941Y-39723291D01*
X11462470Y-39546759D01*
X11550339Y-39349401D01*
X11598202Y-39138735D01*
X11601647Y-38891983D01*
X11559686Y-38680062D01*
X11477361Y-38480328D01*
X11357809Y-38300388D01*
X11205584Y-38147096D01*
X11026483Y-38026291D01*
X10827328Y-37942574D01*
X10615706Y-37899134D01*
X10399676Y-37897626D01*
X10187468Y-37938107D01*
X9987164Y-38019035D01*
X9806393Y-38137327D01*
X9652042Y-38288479D01*
X9529990Y-38466732D01*
X9444885Y-38665298D01*
X9399968Y-38876612D01*
X9396952Y-39092626D01*
X430600Y-39092626D01*
X430600Y-37005400D01*
X995400Y-37005400D01*
X995400Y-37063041D01*
X1018827Y-37180814D01*
X1064780Y-37291754D01*
X1131493Y-37391598D01*
X1216403Y-37476507D01*
X1284897Y-37522274D01*
X1261827Y-37573453D01*
X1247680Y-37673000D01*
X1247680Y-38273000D01*
X1252196Y-38329628D01*
X1281940Y-38425675D01*
X1337264Y-38509633D01*
X1413788Y-38574854D01*
X1505453Y-38616173D01*
X1605000Y-38630320D01*
X3155000Y-38630320D01*
X3211628Y-38625804D01*
X3307675Y-38596060D01*
X3391633Y-38540736D01*
X3399249Y-38531800D01*
X4699000Y-38531800D01*
X4750414Y-38526759D01*
X4801791Y-38522264D01*
X4804610Y-38521445D01*
X4807538Y-38521158D01*
X4856970Y-38506233D01*
X4906520Y-38491838D01*
X4909130Y-38490485D01*
X4911942Y-38489636D01*
X4957497Y-38465414D01*
X5003344Y-38441649D01*
X5005641Y-38439815D01*
X5008235Y-38438436D01*
X5048220Y-38405825D01*
X5088576Y-38373610D01*
X5092663Y-38369579D01*
X5092750Y-38369508D01*
X5092817Y-38369427D01*
X5094131Y-38368131D01*
X6396034Y-37066228D01*
X6418827Y-37180814D01*
X6464780Y-37291754D01*
X6531493Y-37391598D01*
X6616403Y-37476507D01*
X6684897Y-37522274D01*
X6661827Y-37573453D01*
X6647680Y-37673000D01*
X6647680Y-38273000D01*
X6652196Y-38329628D01*
X6681940Y-38425675D01*
X6737264Y-38509633D01*
X6813788Y-38574854D01*
X6905453Y-38616173D01*
X7005000Y-38630320D01*
X8555000Y-38630320D01*
X8611628Y-38625804D01*
X8707675Y-38596060D01*
X8791633Y-38540736D01*
X8799249Y-38531800D01*
X8915556Y-38531800D01*
X8966970Y-38526759D01*
X9018347Y-38522264D01*
X9021166Y-38521445D01*
X9024094Y-38521158D01*
X9073526Y-38506233D01*
X9123076Y-38491838D01*
X9125686Y-38490485D01*
X9128498Y-38489636D01*
X9174053Y-38465414D01*
X9219900Y-38441649D01*
X9222197Y-38439815D01*
X9224791Y-38438436D01*
X9264776Y-38405825D01*
X9305132Y-38373610D01*
X9309219Y-38369579D01*
X9309306Y-38369508D01*
X9309373Y-38369427D01*
X9310687Y-38368131D01*
X10555132Y-37123687D01*
X10587909Y-37083783D01*
X10621073Y-37044260D01*
X10622489Y-37041685D01*
X10624354Y-37039414D01*
X10648740Y-36993934D01*
X10673613Y-36948691D01*
X10674502Y-36945889D01*
X10675890Y-36943300D01*
X10690967Y-36893984D01*
X10706589Y-36844737D01*
X10706917Y-36841812D01*
X10707775Y-36839006D01*
X10712987Y-36787698D01*
X10718746Y-36736358D01*
X10718786Y-36730617D01*
X10718797Y-36730506D01*
X10718787Y-36730403D01*
X10718800Y-36728556D01*
X10718800Y-34969320D01*
X10810000Y-34969320D01*
X10866628Y-34964804D01*
X10962675Y-34935060D01*
X11046633Y-34879736D01*
X11111854Y-34803212D01*
X11153173Y-34711547D01*
X11167320Y-34612000D01*
X11167320Y-34598800D01*
X12140383Y-34598800D01*
X12193364Y-34700142D01*
X12340799Y-34883514D01*
X12521043Y-35034757D01*
X12727231Y-35148110D01*
X12951509Y-35219255D01*
X13185334Y-35245482D01*
X13202167Y-35245600D01*
X13213833Y-35245600D01*
X13448002Y-35222640D01*
X13673251Y-35154633D01*
X13881002Y-35044170D01*
X14063340Y-34895458D01*
X14213321Y-34714163D01*
X14275697Y-34598800D01*
X15236000Y-34598800D01*
X15287414Y-34593759D01*
X15338791Y-34589264D01*
X15341610Y-34588445D01*
X15344538Y-34588158D01*
X15393970Y-34573233D01*
X15443520Y-34558838D01*
X15446130Y-34557485D01*
X15448942Y-34556636D01*
X15494497Y-34532414D01*
X15540344Y-34508649D01*
X15542641Y-34506815D01*
X15545235Y-34505436D01*
X15585220Y-34472825D01*
X15625576Y-34440610D01*
X15629663Y-34436579D01*
X15629750Y-34436508D01*
X15629817Y-34436427D01*
X15631131Y-34435131D01*
X16825131Y-33241131D01*
X16857884Y-33201257D01*
X16891073Y-33161704D01*
X16892489Y-33159129D01*
X16894354Y-33156858D01*
X16918740Y-33111378D01*
X16943613Y-33066135D01*
X16944502Y-33063333D01*
X16945890Y-33060744D01*
X16960971Y-33011416D01*
X16976589Y-32962181D01*
X16976917Y-32959258D01*
X16977775Y-32956451D01*
X16982988Y-32905137D01*
X16988746Y-32853802D01*
X16988786Y-32848061D01*
X16988797Y-32847950D01*
X16988787Y-32847847D01*
X16988800Y-32846000D01*
X16988800Y-29455320D01*
X17180000Y-29455320D01*
X17236628Y-29450804D01*
X17332675Y-29421060D01*
X17416633Y-29365736D01*
X17481854Y-29289212D01*
X17523173Y-29197547D01*
X17537320Y-29098000D01*
X17537320Y-27798000D01*
X18022680Y-27798000D01*
X18022680Y-29098000D01*
X18027196Y-29154628D01*
X18056940Y-29250675D01*
X18112264Y-29334633D01*
X18188788Y-29399854D01*
X18280453Y-29441173D01*
X18380000Y-29455320D01*
X19880000Y-29455320D01*
X19936628Y-29450804D01*
X20032675Y-29421060D01*
X20116633Y-29365736D01*
X20181854Y-29289212D01*
X20223173Y-29197547D01*
X20237320Y-29098000D01*
X20237320Y-29011898D01*
X20438711Y-29213289D01*
X20471339Y-29240091D01*
X20503697Y-29267242D01*
X20505803Y-29268400D01*
X20507661Y-29269926D01*
X20544680Y-29289775D01*
X20544680Y-29290000D01*
X20549196Y-29346628D01*
X20578940Y-29442675D01*
X20634264Y-29526633D01*
X20710788Y-29591854D01*
X20802453Y-29633173D01*
X20902000Y-29647320D01*
X21802000Y-29647320D01*
X21858628Y-29642804D01*
X21954675Y-29613060D01*
X22038633Y-29557736D01*
X22103854Y-29481212D01*
X22145173Y-29389547D01*
X22159320Y-29290000D01*
X22159320Y-28490000D01*
X22154804Y-28433372D01*
X22125060Y-28337325D01*
X22069736Y-28253367D01*
X21993212Y-28188146D01*
X21901547Y-28146827D01*
X21802000Y-28132680D01*
X20902000Y-28132680D01*
X20845372Y-28137196D01*
X20749325Y-28166940D01*
X20710863Y-28192285D01*
X20643289Y-28124711D01*
X20610661Y-28097909D01*
X20578303Y-28070758D01*
X20576197Y-28069600D01*
X20574339Y-28068074D01*
X20537144Y-28048130D01*
X20500110Y-28027771D01*
X20497815Y-28027043D01*
X20495700Y-28025909D01*
X20455303Y-28013558D01*
X20415057Y-28000791D01*
X20412674Y-28000524D01*
X20410369Y-27999819D01*
X20368243Y-27995540D01*
X20326384Y-27990845D01*
X20321694Y-27990812D01*
X20321596Y-27990802D01*
X20321505Y-27990811D01*
X20320000Y-27990800D01*
X20237320Y-27990800D01*
X20237320Y-27798000D01*
X20232804Y-27741372D01*
X20203060Y-27645325D01*
X20147736Y-27561367D01*
X20071212Y-27496146D01*
X19979547Y-27454827D01*
X19880000Y-27440680D01*
X18380000Y-27440680D01*
X18323372Y-27445196D01*
X18227325Y-27474940D01*
X18143367Y-27530264D01*
X18078146Y-27606788D01*
X18036827Y-27698453D01*
X18022680Y-27798000D01*
X17537320Y-27798000D01*
X17532804Y-27741372D01*
X17503060Y-27645325D01*
X17447736Y-27561367D01*
X17371212Y-27496146D01*
X17279547Y-27454827D01*
X17180000Y-27440680D01*
X15680000Y-27440680D01*
X15623372Y-27445196D01*
X15527325Y-27474940D01*
X15443367Y-27530264D01*
X15378146Y-27606788D01*
X15336827Y-27698453D01*
X15322680Y-27798000D01*
X15322680Y-29098000D01*
X15327196Y-29154628D01*
X15356940Y-29250675D01*
X15412264Y-29334633D01*
X15488788Y-29399854D01*
X15580453Y-29441173D01*
X15680000Y-29455320D01*
X15871200Y-29455320D01*
X15871200Y-32614538D01*
X15004538Y-33481200D01*
X14275617Y-33481200D01*
X14222636Y-33379858D01*
X14075201Y-33196486D01*
X13894957Y-33045243D01*
X13688769Y-32931890D01*
X13464491Y-32860745D01*
X13230666Y-32834518D01*
X13213833Y-32834400D01*
X13202167Y-32834400D01*
X12967998Y-32857360D01*
X12742749Y-32925367D01*
X12534998Y-33035830D01*
X12352660Y-33184542D01*
X12202679Y-33365837D01*
X12140303Y-33481200D01*
X11167320Y-33481200D01*
X11167320Y-33112000D01*
X11162804Y-33055372D01*
X11133060Y-32959325D01*
X11077736Y-32875367D01*
X11001212Y-32810146D01*
X10909547Y-32768827D01*
X10810000Y-32754680D01*
X9510000Y-32754680D01*
X9453372Y-32759196D01*
X9357325Y-32788940D01*
X9273367Y-32844264D01*
X9208146Y-32920788D01*
X9166827Y-33012453D01*
X9152680Y-33112000D01*
X9152680Y-34612000D01*
X9157196Y-34668628D01*
X9186940Y-34764675D01*
X9242264Y-34848633D01*
X9318788Y-34913854D01*
X9410453Y-34955173D01*
X9510000Y-34969320D01*
X9601200Y-34969320D01*
X9601200Y-36497093D01*
X9128747Y-36969547D01*
X9012200Y-36853000D01*
X7932400Y-36853000D01*
X7932400Y-36875400D01*
X7627600Y-36875400D01*
X7627600Y-36853000D01*
X7607600Y-36853000D01*
X7607600Y-36553000D01*
X7627600Y-36553000D01*
X7627600Y-35583000D01*
X7932400Y-35583000D01*
X7932400Y-36553000D01*
X9012200Y-36553000D01*
X9164600Y-36400600D01*
X9164600Y-36342959D01*
X9141173Y-36225186D01*
X9095220Y-36114246D01*
X9064320Y-36068000D01*
X9095220Y-36021754D01*
X9141173Y-35910814D01*
X9164600Y-35793041D01*
X9164600Y-35735400D01*
X9012200Y-35583000D01*
X7932400Y-35583000D01*
X7627600Y-35583000D01*
X7607600Y-35583000D01*
X7607600Y-35283000D01*
X7627600Y-35283000D01*
X7627600Y-35260600D01*
X7932400Y-35260600D01*
X7932400Y-35283000D01*
X9012200Y-35283000D01*
X9164600Y-35130600D01*
X9164600Y-35072959D01*
X9141173Y-34955186D01*
X9095220Y-34844246D01*
X9028507Y-34744402D01*
X8943597Y-34659493D01*
X8875103Y-34613726D01*
X8898173Y-34562547D01*
X8912320Y-34463000D01*
X8912320Y-33863000D01*
X8907804Y-33806372D01*
X8878060Y-33710325D01*
X8822736Y-33626367D01*
X8746212Y-33561146D01*
X8654547Y-33519827D01*
X8555000Y-33505680D01*
X7005000Y-33505680D01*
X6948372Y-33510196D01*
X6852325Y-33539940D01*
X6768367Y-33595264D01*
X6703146Y-33671788D01*
X6661827Y-33763453D01*
X6647680Y-33863000D01*
X6647680Y-34463000D01*
X6652196Y-34519628D01*
X6681940Y-34615675D01*
X6681952Y-34615694D01*
X6638800Y-34644528D01*
X6638800Y-32981131D01*
X6732675Y-32952060D01*
X6816633Y-32896736D01*
X6881854Y-32820212D01*
X6923173Y-32728547D01*
X6937320Y-32629000D01*
X6937320Y-31466800D01*
X8900400Y-31466800D01*
X8900400Y-31972040D01*
X8923827Y-32089813D01*
X8969779Y-32200754D01*
X9036493Y-32300597D01*
X9121402Y-32385507D01*
X9221246Y-32452220D01*
X9332186Y-32498173D01*
X9449959Y-32521600D01*
X9855200Y-32521600D01*
X10007600Y-32369200D01*
X10007600Y-31314400D01*
X10312400Y-31314400D01*
X10312400Y-32369200D01*
X10464800Y-32521600D01*
X10870041Y-32521600D01*
X10987814Y-32498173D01*
X11098754Y-32452220D01*
X11198598Y-32385507D01*
X11283507Y-32300597D01*
X11350221Y-32200754D01*
X11396173Y-32089813D01*
X11419600Y-31972040D01*
X11419600Y-31466800D01*
X11267200Y-31314400D01*
X10312400Y-31314400D01*
X10007600Y-31314400D01*
X9052800Y-31314400D01*
X8900400Y-31466800D01*
X6937320Y-31466800D01*
X6937320Y-31379000D01*
X6932804Y-31322372D01*
X6903060Y-31226325D01*
X6847736Y-31142367D01*
X6771212Y-31077146D01*
X6679547Y-31035827D01*
X6638800Y-31030036D01*
X6638800Y-30521299D01*
X6682628Y-30517804D01*
X6778675Y-30488060D01*
X6862633Y-30432736D01*
X6927854Y-30356212D01*
X6929770Y-30351960D01*
X8900400Y-30351960D01*
X8900400Y-30857200D01*
X9052800Y-31009600D01*
X10007600Y-31009600D01*
X10007600Y-29954800D01*
X10312400Y-29954800D01*
X10312400Y-31009600D01*
X11267200Y-31009600D01*
X11419600Y-30857200D01*
X11419600Y-30351960D01*
X11396173Y-30234187D01*
X11350221Y-30123246D01*
X11283507Y-30023403D01*
X11198598Y-29938493D01*
X11098754Y-29871780D01*
X10987814Y-29825827D01*
X10870041Y-29802400D01*
X10464800Y-29802400D01*
X10312400Y-29954800D01*
X10007600Y-29954800D01*
X9855200Y-29802400D01*
X9449959Y-29802400D01*
X9332186Y-29825827D01*
X9221246Y-29871780D01*
X9121402Y-29938493D01*
X9036493Y-30023403D01*
X8969779Y-30123246D01*
X8923827Y-30234187D01*
X8900400Y-30351960D01*
X6929770Y-30351960D01*
X6969173Y-30264547D01*
X6983320Y-30165000D01*
X6983320Y-29515000D01*
X6978804Y-29458372D01*
X6949060Y-29362325D01*
X6893736Y-29278367D01*
X6817212Y-29213146D01*
X6725547Y-29171827D01*
X6626000Y-29157680D01*
X5566000Y-29157680D01*
X5509372Y-29162196D01*
X5413325Y-29191940D01*
X5329367Y-29247264D01*
X5264146Y-29323788D01*
X5222827Y-29415453D01*
X5208680Y-29515000D01*
X5208680Y-30165000D01*
X5213196Y-30221628D01*
X5242940Y-30317675D01*
X5298264Y-30401633D01*
X5374788Y-30466854D01*
X5466453Y-30508173D01*
X5521200Y-30515953D01*
X5521200Y-31026869D01*
X5427325Y-31055940D01*
X5343367Y-31111264D01*
X5278146Y-31187788D01*
X5236827Y-31279453D01*
X5222680Y-31379000D01*
X5222680Y-32629000D01*
X5227196Y-32685628D01*
X5256940Y-32781675D01*
X5312264Y-32865633D01*
X5388788Y-32930854D01*
X5480453Y-32972173D01*
X5521200Y-32977964D01*
X5521200Y-36360538D01*
X4467538Y-37414200D01*
X3605905Y-37414200D01*
X3628507Y-37391598D01*
X3695220Y-37291754D01*
X3741173Y-37180814D01*
X3764600Y-37063041D01*
X3764600Y-37005400D01*
X3612200Y-36853000D01*
X2532400Y-36853000D01*
X2532400Y-36875400D01*
X2227600Y-36875400D01*
X2227600Y-36853000D01*
X1147800Y-36853000D01*
X995400Y-37005400D01*
X430600Y-37005400D01*
X430600Y-35735400D01*
X995400Y-35735400D01*
X995400Y-35793041D01*
X1018827Y-35910814D01*
X1064780Y-36021754D01*
X1095680Y-36068000D01*
X1064780Y-36114246D01*
X1018827Y-36225186D01*
X995400Y-36342959D01*
X995400Y-36400600D01*
X1147800Y-36553000D01*
X2227600Y-36553000D01*
X2227600Y-35583000D01*
X2532400Y-35583000D01*
X2532400Y-36553000D01*
X3612200Y-36553000D01*
X3764600Y-36400600D01*
X3764600Y-36342959D01*
X3741173Y-36225186D01*
X3695220Y-36114246D01*
X3664320Y-36068000D01*
X3695220Y-36021754D01*
X3741173Y-35910814D01*
X3764600Y-35793041D01*
X3764600Y-35735400D01*
X3612200Y-35583000D01*
X2532400Y-35583000D01*
X2227600Y-35583000D01*
X1147800Y-35583000D01*
X995400Y-35735400D01*
X430600Y-35735400D01*
X430600Y-35072959D01*
X995400Y-35072959D01*
X995400Y-35130600D01*
X1147800Y-35283000D01*
X2227600Y-35283000D01*
X2227600Y-35260600D01*
X2532400Y-35260600D01*
X2532400Y-35283000D01*
X3612200Y-35283000D01*
X3764600Y-35130600D01*
X3764600Y-35072959D01*
X3741173Y-34955186D01*
X3695220Y-34844246D01*
X3628507Y-34744402D01*
X3543597Y-34659493D01*
X3475103Y-34613726D01*
X3498173Y-34562547D01*
X3512320Y-34463000D01*
X3512320Y-33863000D01*
X3507804Y-33806372D01*
X3478060Y-33710325D01*
X3422736Y-33626367D01*
X3346212Y-33561146D01*
X3254547Y-33519827D01*
X3155000Y-33505680D01*
X1605000Y-33505680D01*
X1548372Y-33510196D01*
X1452325Y-33539940D01*
X1368367Y-33595264D01*
X1303146Y-33671788D01*
X1261827Y-33763453D01*
X1247680Y-33863000D01*
X1247680Y-34463000D01*
X1252196Y-34519628D01*
X1281940Y-34615675D01*
X1281952Y-34615694D01*
X1216403Y-34659493D01*
X1131493Y-34744402D01*
X1064780Y-34844246D01*
X1018827Y-34955186D01*
X995400Y-35072959D01*
X430600Y-35072959D01*
X430600Y-32308800D01*
X2970400Y-32308800D01*
X2970400Y-32689041D01*
X2993827Y-32806814D01*
X3039780Y-32917754D01*
X3106493Y-33017598D01*
X3191403Y-33102507D01*
X3291246Y-33169221D01*
X3402187Y-33215173D01*
X3519960Y-33238600D01*
X3775200Y-33238600D01*
X3927600Y-33086200D01*
X3927600Y-32156400D01*
X4232400Y-32156400D01*
X4232400Y-33086200D01*
X4384800Y-33238600D01*
X4640040Y-33238600D01*
X4757813Y-33215173D01*
X4868754Y-33169221D01*
X4968597Y-33102507D01*
X5053507Y-33017598D01*
X5120220Y-32917754D01*
X5166173Y-32806814D01*
X5189600Y-32689041D01*
X5189600Y-32308800D01*
X5037200Y-32156400D01*
X4232400Y-32156400D01*
X3927600Y-32156400D01*
X3122800Y-32156400D01*
X2970400Y-32308800D01*
X430600Y-32308800D01*
X430600Y-31318959D01*
X2970400Y-31318959D01*
X2970400Y-31699200D01*
X3122800Y-31851600D01*
X3927600Y-31851600D01*
X3927600Y-30921800D01*
X4232400Y-30921800D01*
X4232400Y-31851600D01*
X5037200Y-31851600D01*
X5189600Y-31699200D01*
X5189600Y-31318959D01*
X5166173Y-31201186D01*
X5120220Y-31090246D01*
X5053507Y-30990402D01*
X4968597Y-30905493D01*
X4868754Y-30838779D01*
X4757813Y-30792827D01*
X4640040Y-30769400D01*
X4384800Y-30769400D01*
X4232400Y-30921800D01*
X3927600Y-30921800D01*
X3775200Y-30769400D01*
X3519960Y-30769400D01*
X3402187Y-30792827D01*
X3291246Y-30838779D01*
X3191403Y-30905493D01*
X3106493Y-30990402D01*
X3039780Y-31090246D01*
X2993827Y-31201186D01*
X2970400Y-31318959D01*
X430600Y-31318959D01*
X430600Y-28244800D01*
X2756400Y-28244800D01*
X2756400Y-28325041D01*
X2779827Y-28442814D01*
X2825780Y-28553754D01*
X2892493Y-28653598D01*
X2977403Y-28738507D01*
X3008680Y-28759406D01*
X3008680Y-29215000D01*
X3013196Y-29271628D01*
X3042940Y-29367675D01*
X3043785Y-29368958D01*
X3022827Y-29415453D01*
X3008680Y-29515000D01*
X3008680Y-30165000D01*
X3013196Y-30221628D01*
X3042940Y-30317675D01*
X3098264Y-30401633D01*
X3174788Y-30466854D01*
X3266453Y-30508173D01*
X3366000Y-30522320D01*
X4426000Y-30522320D01*
X4482628Y-30517804D01*
X4578675Y-30488060D01*
X4662633Y-30432736D01*
X4727854Y-30356212D01*
X4769173Y-30264547D01*
X4783320Y-30165000D01*
X4783320Y-29515000D01*
X4778804Y-29458372D01*
X4749060Y-29362325D01*
X4748215Y-29361042D01*
X4763353Y-29327458D01*
X4767200Y-29326296D01*
X4807790Y-29314504D01*
X4809929Y-29313395D01*
X4812225Y-29312702D01*
X4849496Y-29292885D01*
X4887009Y-29273440D01*
X4888885Y-29271942D01*
X4891011Y-29270812D01*
X4923784Y-29244083D01*
X4956743Y-29217772D01*
X4960085Y-29214477D01*
X4960159Y-29214416D01*
X4960216Y-29214347D01*
X4961289Y-29213289D01*
X5319155Y-28855424D01*
X5345985Y-28822761D01*
X5373107Y-28790438D01*
X5374264Y-28788333D01*
X5375792Y-28786473D01*
X5395734Y-28749279D01*
X5416094Y-28712245D01*
X5416823Y-28709948D01*
X5417956Y-28707834D01*
X5430303Y-28667452D01*
X5443074Y-28627192D01*
X5443341Y-28624809D01*
X5444046Y-28622504D01*
X5446419Y-28599142D01*
X5466453Y-28608173D01*
X5566000Y-28622320D01*
X6626000Y-28622320D01*
X6682628Y-28617804D01*
X6778675Y-28588060D01*
X6862633Y-28532736D01*
X6927854Y-28456212D01*
X6954454Y-28397200D01*
X11506320Y-28397200D01*
X12750800Y-29641680D01*
X12750800Y-30382936D01*
X12742749Y-30385367D01*
X12534998Y-30495830D01*
X12352660Y-30644542D01*
X12202679Y-30825837D01*
X12090769Y-31032811D01*
X12021191Y-31257580D01*
X11996596Y-31491583D01*
X12017921Y-31725907D01*
X12084354Y-31951626D01*
X12193364Y-32160142D01*
X12340799Y-32343514D01*
X12521043Y-32494757D01*
X12727231Y-32608110D01*
X12951509Y-32679255D01*
X13185334Y-32705482D01*
X13202167Y-32705600D01*
X13213833Y-32705600D01*
X13448002Y-32682640D01*
X13673251Y-32614633D01*
X13881002Y-32504170D01*
X14063340Y-32355458D01*
X14213321Y-32174163D01*
X14325231Y-31967189D01*
X14394809Y-31742420D01*
X14419404Y-31508417D01*
X14398079Y-31274093D01*
X14331646Y-31048374D01*
X14222636Y-30839858D01*
X14075201Y-30656486D01*
X13894957Y-30505243D01*
X13688769Y-30391890D01*
X13665200Y-30384413D01*
X13665200Y-29452302D01*
X13661078Y-29410259D01*
X13657398Y-29368199D01*
X13656728Y-29365892D01*
X13656493Y-29363498D01*
X13644296Y-29323102D01*
X13632504Y-29282512D01*
X13631395Y-29280373D01*
X13630702Y-29278077D01*
X13610885Y-29240806D01*
X13591440Y-29203293D01*
X13589942Y-29201417D01*
X13588812Y-29199291D01*
X13562083Y-29166518D01*
X13535772Y-29133559D01*
X13532477Y-29130217D01*
X13532416Y-29130143D01*
X13532347Y-29130086D01*
X13531289Y-29129013D01*
X12018987Y-27616711D01*
X11986359Y-27589909D01*
X11954001Y-27562758D01*
X11951895Y-27561600D01*
X11950037Y-27560074D01*
X11912842Y-27540130D01*
X11875808Y-27519771D01*
X11873513Y-27519043D01*
X11871398Y-27517909D01*
X11831001Y-27505558D01*
X11790755Y-27492791D01*
X11788372Y-27492524D01*
X11786067Y-27491819D01*
X11743941Y-27487540D01*
X11702082Y-27482845D01*
X11697392Y-27482812D01*
X11697294Y-27482802D01*
X11697203Y-27482811D01*
X11695698Y-27482800D01*
X6955401Y-27482800D01*
X6949060Y-27462325D01*
X6893736Y-27378367D01*
X6817212Y-27313146D01*
X6725547Y-27271827D01*
X6626000Y-27257680D01*
X5666463Y-27257680D01*
X6190376Y-26733767D01*
X11055541Y-26733767D01*
X11097584Y-26729645D01*
X11139644Y-26725965D01*
X11141951Y-26725295D01*
X11144345Y-26725060D01*
X11184741Y-26712863D01*
X11225331Y-26701071D01*
X11227470Y-26699962D01*
X11229766Y-26699269D01*
X11267037Y-26679452D01*
X11304550Y-26660007D01*
X11306426Y-26658509D01*
X11308552Y-26657379D01*
X11341325Y-26630650D01*
X11374284Y-26604339D01*
X11377626Y-26601044D01*
X11377700Y-26600983D01*
X11377757Y-26600914D01*
X11378830Y-26599856D01*
X11934857Y-26043829D01*
X11959183Y-26056982D01*
X12219376Y-26137525D01*
X12490257Y-26165996D01*
X12761509Y-26141310D01*
X13022801Y-26064408D01*
X13264179Y-25938218D01*
X13476450Y-25767548D01*
X13651528Y-25558898D01*
X13782745Y-25320215D01*
X13865103Y-25060592D01*
X13895464Y-24789916D01*
X13895600Y-24770430D01*
X13895600Y-23229570D01*
X13869021Y-22958497D01*
X13790296Y-22697748D01*
X13662425Y-22457257D01*
X13490277Y-22246182D01*
X13280410Y-22072565D01*
X13040817Y-21943018D01*
X12780624Y-21862475D01*
X12509743Y-21834004D01*
X12238491Y-21858690D01*
X11977199Y-21935592D01*
X11735821Y-22061782D01*
X11523550Y-22232452D01*
X11348472Y-22441102D01*
X11217255Y-22679785D01*
X11134897Y-22939408D01*
X11104536Y-23210084D01*
X11104400Y-23229570D01*
X11104400Y-24770430D01*
X11130979Y-25041503D01*
X11209704Y-25302252D01*
X11269957Y-25415572D01*
X10866163Y-25819367D01*
X9499600Y-25819367D01*
X9499600Y-21183600D01*
X11684000Y-21183600D01*
X11813245Y-21159281D01*
X11931950Y-21082897D01*
X12011584Y-20966348D01*
X12039600Y-20828000D01*
X12039600Y-18840400D01*
X12840400Y-18840400D01*
X12840400Y-19148041D01*
X12863827Y-19265814D01*
X12909780Y-19376754D01*
X12976493Y-19476598D01*
X13061403Y-19561507D01*
X13161246Y-19628221D01*
X13272187Y-19674173D01*
X13389960Y-19697600D01*
X14514200Y-19697600D01*
X14666600Y-19545200D01*
X14666600Y-18688000D01*
X15733400Y-18688000D01*
X15733400Y-19545200D01*
X15885800Y-19697600D01*
X17010040Y-19697600D01*
X17127813Y-19674173D01*
X17238754Y-19628221D01*
X17338597Y-19561507D01*
X17423507Y-19476598D01*
X17490220Y-19376754D01*
X17536173Y-19265814D01*
X17559600Y-19148041D01*
X17559600Y-18840400D01*
X17407200Y-18688000D01*
X15733400Y-18688000D01*
X14666600Y-18688000D01*
X12992800Y-18688000D01*
X12840400Y-18840400D01*
X12039600Y-18840400D01*
X12039600Y-17427959D01*
X12840400Y-17427959D01*
X12840400Y-17735600D01*
X12992800Y-17888000D01*
X14666600Y-17888000D01*
X14666600Y-17030800D01*
X15733400Y-17030800D01*
X15733400Y-17888000D01*
X17407200Y-17888000D01*
X17559600Y-17735600D01*
X17559600Y-17427959D01*
X17536173Y-17310186D01*
X17490220Y-17199246D01*
X17423507Y-17099402D01*
X17338597Y-17014493D01*
X17238754Y-16947779D01*
X17127813Y-16901827D01*
X17010040Y-16878400D01*
X15885800Y-16878400D01*
X15733400Y-17030800D01*
X14666600Y-17030800D01*
X14514200Y-16878400D01*
X13389960Y-16878400D01*
X13272187Y-16901827D01*
X13161246Y-16947779D01*
X13061403Y-17014493D01*
X12976493Y-17099402D01*
X12909780Y-17199246D01*
X12863827Y-17310186D01*
X12840400Y-17427959D01*
X12039600Y-17427959D01*
X12039600Y-17272000D01*
X12015281Y-17142755D01*
X11938897Y-17024050D01*
X11822348Y-16944416D01*
X11684000Y-16916400D01*
X5588000Y-16916400D01*
X5458755Y-16940719D01*
X5340050Y-17017103D01*
X5260416Y-17133652D01*
X5232400Y-17272000D01*
X5232400Y-25908000D01*
X5256719Y-26037245D01*
X5333103Y-26155950D01*
X5417424Y-26213563D01*
X4672576Y-26958411D01*
X4645774Y-26991039D01*
X4618623Y-27023397D01*
X4617465Y-27025503D01*
X4615939Y-27027361D01*
X4613092Y-27032670D01*
X4603813Y-27028827D01*
X4486040Y-27005400D01*
X4200800Y-27005400D01*
X4048400Y-27157800D01*
X4048400Y-27787600D01*
X4068400Y-27787600D01*
X4068400Y-28092400D01*
X4048400Y-28092400D01*
X4048400Y-28112400D01*
X3743600Y-28112400D01*
X3743600Y-28092400D01*
X2908800Y-28092400D01*
X2756400Y-28244800D01*
X430600Y-28244800D01*
X430600Y-27554959D01*
X2756400Y-27554959D01*
X2756400Y-27635200D01*
X2908800Y-27787600D01*
X3743600Y-27787600D01*
X3743600Y-27157800D01*
X3591200Y-27005400D01*
X3305960Y-27005400D01*
X3188187Y-27028827D01*
X3077246Y-27074779D01*
X2977403Y-27141493D01*
X2892493Y-27226402D01*
X2825780Y-27326246D01*
X2779827Y-27437186D01*
X2756400Y-27554959D01*
X430600Y-27554959D01*
X430600Y-11456242D01*
X3886929Y-11456242D01*
X3953470Y-11818795D01*
X4089164Y-12161519D01*
X4288842Y-12471359D01*
X4544899Y-12736514D01*
X4847582Y-12946884D01*
X4966371Y-12998782D01*
X4893975Y-13028032D01*
X4585537Y-13229868D01*
X4322176Y-13487770D01*
X4113924Y-13791914D01*
X3968714Y-14130715D01*
X3892075Y-14491269D01*
X3886929Y-14859842D01*
X3953470Y-15222395D01*
X4089164Y-15565119D01*
X4288842Y-15874959D01*
X4544899Y-16140114D01*
X4847582Y-16350484D01*
X5185361Y-16498056D01*
X5545371Y-16577209D01*
X5913899Y-16584929D01*
X6276908Y-16520920D01*
X6620570Y-16387622D01*
X6931797Y-16190112D01*
X7198733Y-15935912D01*
X7411211Y-15634706D01*
X7561137Y-15297965D01*
X7642802Y-14938516D01*
X7648681Y-14517496D01*
X7577085Y-14155907D01*
X7436619Y-13815111D01*
X7232634Y-13508089D01*
X6972900Y-13246535D01*
X6667309Y-13040412D01*
X6575109Y-13001655D01*
X6620570Y-12984022D01*
X6931797Y-12786512D01*
X7198733Y-12532312D01*
X7411211Y-12231106D01*
X7561137Y-11894365D01*
X7642802Y-11534916D01*
X7643900Y-11456242D01*
X17348929Y-11456242D01*
X17415470Y-11818795D01*
X17551164Y-12161519D01*
X17750842Y-12471359D01*
X18006899Y-12736514D01*
X18309582Y-12946884D01*
X18428371Y-12998782D01*
X18355975Y-13028032D01*
X18047537Y-13229868D01*
X17784176Y-13487770D01*
X17575924Y-13791914D01*
X17430714Y-14130715D01*
X17354075Y-14491269D01*
X17348929Y-14859842D01*
X17415470Y-15222395D01*
X17551164Y-15565119D01*
X17750842Y-15874959D01*
X18006899Y-16140114D01*
X18309582Y-16350484D01*
X18647361Y-16498056D01*
X18672200Y-16503517D01*
X18672200Y-22021379D01*
X18677241Y-22072793D01*
X18681736Y-22124170D01*
X18682555Y-22126989D01*
X18682842Y-22129917D01*
X18697767Y-22179349D01*
X18712162Y-22228899D01*
X18713515Y-22231509D01*
X18714364Y-22234321D01*
X18738586Y-22279876D01*
X18762351Y-22325723D01*
X18764185Y-22328020D01*
X18765564Y-22330614D01*
X18798175Y-22370599D01*
X18830390Y-22410955D01*
X18834421Y-22415042D01*
X18834492Y-22415129D01*
X18834573Y-22415196D01*
X18835869Y-22416510D01*
X20182490Y-23763131D01*
X20222364Y-23795884D01*
X20261917Y-23829073D01*
X20264492Y-23830489D01*
X20266763Y-23832354D01*
X20312243Y-23856740D01*
X20328680Y-23865777D01*
X20328680Y-24118000D01*
X20333196Y-24174628D01*
X20362940Y-24270675D01*
X20418264Y-24354633D01*
X20494788Y-24419854D01*
X20586453Y-24461173D01*
X20686000Y-24475320D01*
X20793200Y-24475320D01*
X20793200Y-26253353D01*
X20749325Y-26266940D01*
X20665367Y-26322264D01*
X20600146Y-26398788D01*
X20558827Y-26490453D01*
X20544680Y-26590000D01*
X20544680Y-27390000D01*
X20549196Y-27446628D01*
X20578940Y-27542675D01*
X20634264Y-27626633D01*
X20710788Y-27691854D01*
X20802453Y-27733173D01*
X20902000Y-27747320D01*
X21802000Y-27747320D01*
X21858628Y-27742804D01*
X21954675Y-27713060D01*
X22038633Y-27657736D01*
X22103854Y-27581212D01*
X22145173Y-27489547D01*
X22159320Y-27390000D01*
X22159320Y-26590000D01*
X22154804Y-26533372D01*
X22125060Y-26437325D01*
X22069736Y-26353367D01*
X21993212Y-26288146D01*
X21910800Y-26250998D01*
X21910800Y-24475320D01*
X21986000Y-24475320D01*
X22042628Y-24470804D01*
X22138675Y-24441060D01*
X22222633Y-24385736D01*
X22287854Y-24309212D01*
X22329173Y-24217547D01*
X22343320Y-24118000D01*
X22343320Y-22618000D01*
X22338804Y-22561372D01*
X22309060Y-22465325D01*
X22253736Y-22381367D01*
X22177212Y-22316146D01*
X22085547Y-22274827D01*
X21986000Y-22260680D01*
X21850279Y-22260680D01*
X21912992Y-22171777D01*
X21965669Y-22053463D01*
X21994362Y-21927171D01*
X21996428Y-21779244D01*
X21995501Y-21774562D01*
X22042628Y-21770804D01*
X22138675Y-21741060D01*
X22222633Y-21685736D01*
X22287854Y-21609212D01*
X22329173Y-21517547D01*
X22343320Y-21418000D01*
X22343320Y-19918000D01*
X22360680Y-19918000D01*
X22360680Y-21418000D01*
X22365196Y-21474628D01*
X22394940Y-21570675D01*
X22450264Y-21654633D01*
X22526788Y-21719854D01*
X22618453Y-21761173D01*
X22708486Y-21773968D01*
X22706732Y-21899528D01*
X22730112Y-22026912D01*
X22777788Y-22147328D01*
X22847945Y-22256191D01*
X22852280Y-22260680D01*
X22718000Y-22260680D01*
X22661372Y-22265196D01*
X22565325Y-22294940D01*
X22481367Y-22350264D01*
X22416146Y-22426788D01*
X22374827Y-22518453D01*
X22360680Y-22618000D01*
X22360680Y-24118000D01*
X22365196Y-24174628D01*
X22394940Y-24270675D01*
X22450264Y-24354633D01*
X22526788Y-24419854D01*
X22618453Y-24461173D01*
X22718000Y-24475320D01*
X22894800Y-24475320D01*
X22894800Y-27183254D01*
X22845372Y-27187196D01*
X22749325Y-27216940D01*
X22665367Y-27272264D01*
X22600146Y-27348788D01*
X22558827Y-27440453D01*
X22544680Y-27540000D01*
X22544680Y-28340000D01*
X22549196Y-28396628D01*
X22578940Y-28492675D01*
X22634264Y-28576633D01*
X22710788Y-28641854D01*
X22802453Y-28683173D01*
X22902000Y-28697320D01*
X23802000Y-28697320D01*
X23858628Y-28692804D01*
X23954675Y-28663060D01*
X24038633Y-28607736D01*
X24103854Y-28531212D01*
X24145173Y-28439547D01*
X24159320Y-28340000D01*
X24159320Y-27540000D01*
X24154804Y-27483372D01*
X24125060Y-27387325D01*
X24069736Y-27303367D01*
X23993212Y-27238146D01*
X23901547Y-27196827D01*
X23809200Y-27183703D01*
X23809200Y-24475320D01*
X24018000Y-24475320D01*
X24074628Y-24470804D01*
X24170675Y-24441060D01*
X24254633Y-24385736D01*
X24319854Y-24309212D01*
X24361173Y-24217547D01*
X24375320Y-24118000D01*
X24375320Y-22618000D01*
X24370804Y-22561372D01*
X24341060Y-22465325D01*
X24285736Y-22381367D01*
X24209212Y-22316146D01*
X24117547Y-22274827D01*
X24018000Y-22260680D01*
X23882279Y-22260680D01*
X23944992Y-22171777D01*
X23997669Y-22053463D01*
X24026362Y-21927171D01*
X24028428Y-21779244D01*
X24027501Y-21774562D01*
X24074628Y-21770804D01*
X24170675Y-21741060D01*
X24254633Y-21685736D01*
X24319854Y-21609212D01*
X24361173Y-21517547D01*
X24375320Y-21418000D01*
X24375320Y-19918000D01*
X24370804Y-19861372D01*
X24341060Y-19765325D01*
X24285736Y-19681367D01*
X24209212Y-19616146D01*
X24117547Y-19574827D01*
X24018000Y-19560680D01*
X22718000Y-19560680D01*
X22661372Y-19565196D01*
X22565325Y-19594940D01*
X22481367Y-19650264D01*
X22416146Y-19726788D01*
X22374827Y-19818453D01*
X22360680Y-19918000D01*
X22343320Y-19918000D01*
X22338804Y-19861372D01*
X22309060Y-19765325D01*
X22253736Y-19681367D01*
X22177212Y-19616146D01*
X22085547Y-19574827D01*
X21986000Y-19560680D01*
X20686000Y-19560680D01*
X20629372Y-19565196D01*
X20533325Y-19594940D01*
X20449367Y-19650264D01*
X20384146Y-19726788D01*
X20342827Y-19818453D01*
X20328680Y-19918000D01*
X20328680Y-21418000D01*
X20333196Y-21474628D01*
X20362940Y-21570675D01*
X20418264Y-21654633D01*
X20494788Y-21719854D01*
X20586453Y-21761173D01*
X20676486Y-21773968D01*
X20674732Y-21899528D01*
X20698112Y-22026912D01*
X20745788Y-22147328D01*
X20815945Y-22256191D01*
X20820280Y-22260680D01*
X20686000Y-22260680D01*
X20629372Y-22265196D01*
X20533325Y-22294940D01*
X20449367Y-22350264D01*
X20403713Y-22403830D01*
X19789800Y-21789917D01*
X19789800Y-16501180D01*
X20082570Y-16387622D01*
X20393797Y-16190112D01*
X20660733Y-15935912D01*
X20873211Y-15634706D01*
X21023137Y-15297965D01*
X21104802Y-14938516D01*
X21110681Y-14517496D01*
X21039085Y-14155907D01*
X20898619Y-13815111D01*
X20694634Y-13508089D01*
X20434900Y-13246535D01*
X20129309Y-13040412D01*
X20037109Y-13001655D01*
X20082570Y-12984022D01*
X20393797Y-12786512D01*
X20660733Y-12532312D01*
X20873211Y-12231106D01*
X21023137Y-11894365D01*
X21104802Y-11534916D01*
X21110681Y-11113896D01*
X21039085Y-10752307D01*
X20898619Y-10411511D01*
X20694634Y-10104489D01*
X20434900Y-9842935D01*
X20129309Y-9636812D01*
X19789502Y-9493971D01*
X19428422Y-9419851D01*
X19059823Y-9417278D01*
X18697743Y-9486348D01*
X18355975Y-9624432D01*
X18047537Y-9826268D01*
X17784176Y-10084170D01*
X17575924Y-10388314D01*
X17430714Y-10727115D01*
X17354075Y-11087669D01*
X17348929Y-11456242D01*
X7643900Y-11456242D01*
X7648681Y-11113896D01*
X7577085Y-10752307D01*
X7436619Y-10411511D01*
X7232634Y-10104489D01*
X6972900Y-9842935D01*
X6667309Y-9636812D01*
X6327502Y-9493971D01*
X5966422Y-9419851D01*
X5597823Y-9417278D01*
X5235743Y-9486348D01*
X4893975Y-9624432D01*
X4585537Y-9826268D01*
X4322176Y-10084170D01*
X4113924Y-10388314D01*
X3968714Y-10727115D01*
X3892075Y-11087669D01*
X3886929Y-11456242D01*
X430600Y-11456242D01*
X430600Y-9092626D01*
X1896952Y-9092626D01*
X1935951Y-9305111D01*
X2015478Y-9505975D01*
X2132506Y-9687567D01*
X2282577Y-9842970D01*
X2459974Y-9966264D01*
X2657940Y-10052753D01*
X2868935Y-10099143D01*
X3084923Y-10103668D01*
X3297675Y-10066154D01*
X3499090Y-9988030D01*
X3681494Y-9872273D01*
X3837941Y-9723291D01*
X3962470Y-9546759D01*
X4050339Y-9349401D01*
X4098202Y-9138735D01*
X4098845Y-9092626D01*
X20896952Y-9092626D01*
X20935951Y-9305111D01*
X21015478Y-9505975D01*
X21132506Y-9687567D01*
X21282577Y-9842970D01*
X21459974Y-9966264D01*
X21657940Y-10052753D01*
X21868935Y-10099143D01*
X22084923Y-10103668D01*
X22297675Y-10066154D01*
X22499090Y-9988030D01*
X22681494Y-9872273D01*
X22837941Y-9723291D01*
X22962470Y-9546759D01*
X23050339Y-9349401D01*
X23098202Y-9138735D01*
X23101647Y-8891983D01*
X23059686Y-8680062D01*
X22977361Y-8480328D01*
X22857809Y-8300388D01*
X22705584Y-8147096D01*
X22526483Y-8026291D01*
X22327328Y-7942574D01*
X22115706Y-7899134D01*
X21899676Y-7897626D01*
X21687468Y-7938107D01*
X21487164Y-8019035D01*
X21306393Y-8137327D01*
X21152042Y-8288479D01*
X21029990Y-8466732D01*
X20944885Y-8665298D01*
X20899968Y-8876612D01*
X20896952Y-9092626D01*
X4098845Y-9092626D01*
X4101647Y-8891983D01*
X4059686Y-8680062D01*
X3977361Y-8480328D01*
X3857809Y-8300388D01*
X3705584Y-8147096D01*
X3526483Y-8026291D01*
X3327328Y-7942574D01*
X3115706Y-7899134D01*
X2899676Y-7897626D01*
X2687468Y-7938107D01*
X2487164Y-8019035D01*
X2306393Y-8137327D01*
X2152042Y-8288479D01*
X2029990Y-8466732D01*
X1944885Y-8665298D01*
X1899968Y-8876612D01*
X1896952Y-9092626D01*
X430600Y-9092626D01*
X430600Y-7430600D01*
X9000000Y-7430600D01*
X9040268Y-7426652D01*
X9080686Y-7422973D01*
X9082136Y-7422546D01*
X9083637Y-7422399D01*
X9122454Y-7410680D01*
X9161306Y-7399245D01*
X9162641Y-7398547D01*
X9164089Y-7398110D01*
X9199878Y-7379081D01*
X9235781Y-7360311D01*
X9236960Y-7359363D01*
X9238290Y-7358656D01*
X9269638Y-7333089D01*
X9301275Y-7307652D01*
X9302247Y-7306494D01*
X9303415Y-7305541D01*
X9329213Y-7274357D01*
X9355294Y-7243275D01*
X9356022Y-7241951D01*
X9356984Y-7240788D01*
X9376241Y-7205172D01*
X9395780Y-7169631D01*
X9396237Y-7168190D01*
X9396954Y-7166864D01*
X9408929Y-7128179D01*
X9421190Y-7089527D01*
X9421358Y-7088027D01*
X9421805Y-7086584D01*
X9426046Y-7046233D01*
X9430558Y-7006012D01*
X9430578Y-7003118D01*
X9430590Y-7003006D01*
X9430580Y-7002894D01*
X9430600Y-7000000D01*
X9430600Y-3664432D01*
X10541830Y-3664432D01*
X10611061Y-4041644D01*
X10752242Y-4398226D01*
X10959994Y-4720594D01*
X11226404Y-4996470D01*
X11541326Y-5215346D01*
X11892762Y-5368885D01*
X12267329Y-5451239D01*
X12650758Y-5459270D01*
X13028444Y-5392674D01*
X13386002Y-5253986D01*
X13709813Y-5048490D01*
X13987542Y-4784012D01*
X14208611Y-4470626D01*
X14364600Y-4120270D01*
X14449567Y-3746288D01*
X14455684Y-3308244D01*
X14381192Y-2932035D01*
X14235047Y-2577459D01*
X14022814Y-2258023D01*
X13752578Y-1985894D01*
X13434631Y-1771436D01*
X13081085Y-1622819D01*
X12705405Y-1545703D01*
X12321901Y-1543025D01*
X11945182Y-1614889D01*
X11589595Y-1758555D01*
X11268685Y-1968553D01*
X10994675Y-2236882D01*
X10778003Y-2553324D01*
X10626921Y-2905824D01*
X10547184Y-3280957D01*
X10541830Y-3664432D01*
X9430600Y-3664432D01*
X9430600Y-3521061D01*
X9491082Y-2904219D01*
X9664108Y-2331129D01*
X9945152Y-1802563D01*
X10323508Y-1338651D01*
X10784767Y-957064D01*
X11311356Y-672338D01*
X11883226Y-495315D01*
X12478585Y-432740D01*
X13074761Y-486996D01*
G36*
X11582400Y-20726400D02*
X9144000Y-20726400D01*
X9115695Y-20730422D01*
X9089631Y-20742171D01*
X9067872Y-20760716D01*
X9052141Y-20784589D01*
X9043684Y-20811898D01*
X9042400Y-20828000D01*
X9042400Y-25806400D01*
X5689600Y-25806400D01*
X5689600Y-17373600D01*
X11582400Y-17373600D01*
X11582400Y-20726400D01*
X11582400Y-20726400D01*
G37*
X11582400Y-20726400D02*
X9144000Y-20726400D01*
X9115695Y-20730422D01*
X9089631Y-20742171D01*
X9067872Y-20760716D01*
X9052141Y-20784589D01*
X9043684Y-20811898D01*
X9042400Y-20828000D01*
X9042400Y-25806400D01*
X5689600Y-25806400D01*
X5689600Y-17373600D01*
X11582400Y-17373600D01*
X11582400Y-20726400D01*
M02*
