G04 #@! TF.FileFunction,Soldermask,Bot*
%FSLAX46Y46*%
G04 Gerber Fmt 4.6, Leading zero omitted, Abs format (unit mm)*
G04 Created by KiCad (PCBNEW 4.0.7-e2-6376~61~ubuntu18.04.1) date Thu Dec  5 21:11:02 2019*
%MOMM*%
%LPD*%
G01*
G04 APERTURE LIST*
%ADD10C,0.100000*%
%ADD11C,2.000000*%
%ADD12C,3.600000*%
%ADD13R,3.900000X2.000000*%
%ADD14R,1.400000X1.650000*%
%ADD15R,2.100000X2.100000*%
%ADD16O,2.100000X2.100000*%
%ADD17R,1.300000X1.200000*%
%ADD18R,1.950000X1.000000*%
%ADD19R,1.460000X1.050000*%
%ADD20C,3.448000*%
%ADD21R,2.480000X4.000000*%
%ADD22O,2.480000X4.000000*%
%ADD23R,1.700000X1.900000*%
%ADD24R,1.900000X1.700000*%
G04 APERTURE END LIST*
D10*
D11*
X10500000Y-39000000D03*
X22000000Y-9000000D03*
X3000000Y-9000000D03*
D12*
X12500000Y-3500000D03*
D13*
X9800000Y-18288000D03*
X15200000Y-18288000D03*
D14*
X6080000Y-32004000D03*
X4080000Y-32004000D03*
D15*
X13208000Y-36580000D03*
D16*
X13208000Y-34040000D03*
X13208000Y-31500000D03*
D17*
X21352000Y-28890000D03*
X21352000Y-26990000D03*
X23352000Y-27940000D03*
D18*
X2380000Y-37973000D03*
X2380000Y-36703000D03*
X2380000Y-35433000D03*
X2380000Y-34163000D03*
X7780000Y-34163000D03*
X7780000Y-35433000D03*
X7780000Y-36703000D03*
X7780000Y-37973000D03*
D19*
X3896000Y-29840000D03*
X3896000Y-28890000D03*
X3896000Y-27940000D03*
X6096000Y-27940000D03*
X6096000Y-29840000D03*
D12*
X12500000Y-43500000D03*
D20*
X5769000Y-11298200D03*
X5769000Y-14701800D03*
X19231000Y-11298200D03*
X19231000Y-14701800D03*
D21*
X17580000Y-24000000D03*
D22*
X12500000Y-24000000D03*
X7420000Y-24000000D03*
D23*
X21336000Y-23368000D03*
X21336000Y-20668000D03*
X23368000Y-23368000D03*
X23368000Y-20668000D03*
D24*
X16430000Y-28448000D03*
X19130000Y-28448000D03*
D23*
X10160000Y-33862000D03*
X10160000Y-31162000D03*
M02*
