G04 #@! TF.FileFunction,Soldermask,Bot*
%FSLAX46Y46*%
G04 Gerber Fmt 4.6, Leading zero omitted, Abs format (unit mm)*
G04 Created by KiCad (PCBNEW 4.0.7-e2-6376~61~ubuntu18.04.1) date Sun Dec  8 19:52:44 2019*
%MOMM*%
%LPD*%
G01*
G04 APERTURE LIST*
%ADD10C,0.100000*%
%ADD11C,1.270000*%
%ADD12C,0.900000*%
%ADD13C,3.200000*%
%ADD14R,1.727200X1.727200*%
%ADD15O,1.727200X1.727200*%
%ADD16R,1.320800X1.320800*%
%ADD17R,1.320800X1.447800*%
%ADD18C,3.048000*%
%ADD19R,1.700000X1.700000*%
%ADD20O,1.700000X1.700000*%
%ADD21R,2.540000X4.064000*%
%ADD22O,2.540000X4.064000*%
%ADD23O,2.082800X3.606800*%
%ADD24C,1.727200*%
G04 APERTURE END LIST*
D10*
D11*
X12700000Y-70104000D02*
X82550000Y-70104000D01*
X82550000Y-58674000D02*
X82550000Y-70104000D01*
X12700000Y-67564000D02*
X82550000Y-67564000D01*
X59436000Y-54356000D02*
X59436000Y-64356000D01*
X72644000Y-54356000D02*
X72644000Y-64356000D01*
X66000000Y-54356000D02*
X66000000Y-64356000D01*
D12*
X94796000Y-15980000D03*
X94796000Y-11580000D03*
D13*
X4000000Y-4000000D03*
X96000000Y-4000000D03*
X4000000Y-68000000D03*
D14*
X58420000Y-31436000D03*
D15*
X58420000Y-33976000D03*
X55880000Y-31436000D03*
X55880000Y-33976000D03*
X53340000Y-31436000D03*
X53340000Y-33976000D03*
X50800000Y-31436000D03*
X50800000Y-33976000D03*
X48260000Y-31436000D03*
X48260000Y-33976000D03*
X45720000Y-31436000D03*
X45720000Y-33976000D03*
D14*
X34544000Y-31436000D03*
D15*
X32004000Y-31436000D03*
X34544000Y-28896000D03*
X32004000Y-28896000D03*
X34544000Y-26356000D03*
X32004000Y-26356000D03*
D13*
X96000000Y-68000000D03*
D16*
X80772000Y-48454000D03*
X80772000Y-52264000D03*
X80772000Y-50994000D03*
X80772000Y-49724000D03*
D17*
X80772000Y-47184000D03*
D16*
X82042000Y-52264000D03*
X83312000Y-52264000D03*
X84582000Y-52264000D03*
X85852000Y-52264000D03*
X82042000Y-50994000D03*
X82042000Y-49724000D03*
X82042000Y-48454000D03*
D17*
X82042000Y-47184000D03*
D16*
X83312000Y-50994000D03*
X83312000Y-49724000D03*
X83312000Y-48454000D03*
D17*
X83312000Y-47184000D03*
D16*
X84582000Y-50994000D03*
X84582000Y-49724000D03*
X84582000Y-48454000D03*
D17*
X84582000Y-47184000D03*
D16*
X85852000Y-50994000D03*
X85852000Y-49724000D03*
X85852000Y-48454000D03*
D17*
X85852000Y-47184000D03*
D18*
X62153800Y-41469000D03*
X58750200Y-41469000D03*
X62153800Y-54931000D03*
X58750200Y-54931000D03*
D19*
X14224000Y-55820000D03*
D20*
X16764000Y-55820000D03*
X19304000Y-55820000D03*
D19*
X14224000Y-52264000D03*
D20*
X16764000Y-52264000D03*
X19304000Y-52264000D03*
D21*
X61976000Y-61408000D03*
D22*
X70231000Y-61408000D03*
X78486000Y-61408000D03*
X86741000Y-61408000D03*
D23*
X27940000Y-61408000D03*
X33020000Y-61408000D03*
X38100000Y-61408000D03*
X25400000Y-51248000D03*
X30480000Y-51248000D03*
X35560000Y-51248000D03*
X43180000Y-61408000D03*
X48260000Y-61408000D03*
X53340000Y-61408000D03*
X40640000Y-51248000D03*
X45720000Y-51248000D03*
X50800000Y-51248000D03*
X12700000Y-61408000D03*
X17780000Y-61408000D03*
X22860000Y-61408000D03*
D14*
X39116000Y-41088000D03*
D24*
X39116000Y-43628000D03*
X36576000Y-41088000D03*
X36576000Y-43628000D03*
X34036000Y-41088000D03*
X34036000Y-43628000D03*
X31496000Y-41088000D03*
X31496000Y-43628000D03*
X28956000Y-41088000D03*
X28956000Y-43628000D03*
X26416000Y-41088000D03*
X26416000Y-43628000D03*
X23876000Y-41088000D03*
X23876000Y-43628000D03*
D13*
X48006000Y-42358000D03*
X14986000Y-42358000D03*
M02*
