G04 #@! TF.FileFunction,Soldermask,Top*
%FSLAX46Y46*%
G04 Gerber Fmt 4.6, Leading zero omitted, Abs format (unit mm)*
G04 Created by KiCad (PCBNEW 4.0.7-e2-6376~61~ubuntu18.04.1) date Sun Dec  8 19:52:44 2019*
%MOMM*%
%LPD*%
G01*
G04 APERTURE LIST*
%ADD10C,0.100000*%
%ADD11R,2.800000X0.500000*%
%ADD12R,2.500000X2.000000*%
%ADD13C,0.900000*%
%ADD14C,2.000000*%
%ADD15C,3.200000*%
%ADD16R,1.000000X1.250000*%
%ADD17R,2.500000X4.000000*%
%ADD18R,1.250000X1.000000*%
%ADD19R,1.200000X1.200000*%
%ADD20R,1.727200X1.727200*%
%ADD21O,1.727200X1.727200*%
%ADD22R,0.900000X0.800000*%
%ADD23R,1.300000X1.500000*%
%ADD24R,1.500000X1.300000*%
%ADD25R,0.450000X1.750000*%
%ADD26R,0.550000X1.600000*%
%ADD27R,1.600000X0.550000*%
%ADD28R,4.500000X2.000000*%
%ADD29R,1.200000X2.200000*%
%ADD30R,1.320800X1.320800*%
%ADD31R,1.320800X1.447800*%
%ADD32C,3.048000*%
%ADD33R,1.700000X1.700000*%
%ADD34O,1.700000X1.700000*%
%ADD35R,1.450000X0.450000*%
%ADD36R,1.750000X0.450000*%
%ADD37R,2.540000X4.064000*%
%ADD38O,2.540000X4.064000*%
%ADD39O,2.082800X3.606800*%
%ADD40R,3.100000X1.600000*%
%ADD41C,1.727200*%
G04 APERTURE END LIST*
D10*
D11*
X91946000Y-15380000D03*
X91946000Y-14580000D03*
X91946000Y-13780000D03*
X91946000Y-12980000D03*
X91946000Y-12180000D03*
D12*
X92296000Y-18230000D03*
X97796000Y-18230000D03*
X92296000Y-9330000D03*
X97796000Y-9330000D03*
D13*
X94796000Y-15980000D03*
X94796000Y-11580000D03*
D14*
X56134000Y-14478000D03*
X74168000Y-7620000D03*
X73914000Y-27940000D03*
X2032000Y-9000000D03*
D15*
X4000000Y-4000000D03*
X96000000Y-4000000D03*
D14*
X11176000Y-25848000D03*
X26670000Y-25848000D03*
X2000000Y-63000000D03*
X96000000Y-63000000D03*
D15*
X4000000Y-68000000D03*
D16*
X87868000Y-20892000D03*
X85868000Y-20892000D03*
D17*
X72136000Y-55756000D03*
X72136000Y-47756000D03*
D18*
X78740000Y-55804000D03*
X78740000Y-53804000D03*
D16*
X81296000Y-7620000D03*
X83296000Y-7620000D03*
D18*
X87884000Y-55804000D03*
X87884000Y-53804000D03*
D16*
X79740000Y-7620000D03*
X77740000Y-7620000D03*
X76216000Y-20320000D03*
X78216000Y-20320000D03*
X71612000Y-14796000D03*
X69612000Y-14796000D03*
X49292000Y-12954000D03*
X51292000Y-12954000D03*
X48530000Y-26416000D03*
X50530000Y-26416000D03*
X75962000Y-28258000D03*
X77962000Y-28258000D03*
X44212000Y-12700000D03*
X46212000Y-12700000D03*
D18*
X16764000Y-24816000D03*
X16764000Y-22816000D03*
X3048000Y-24816000D03*
X3048000Y-22816000D03*
D16*
X37068000Y-12700000D03*
X35068000Y-12700000D03*
D19*
X65532000Y-51840000D03*
X65532000Y-49640000D03*
X85174000Y-36576000D03*
X82974000Y-36576000D03*
X85174000Y-34544000D03*
X82974000Y-34544000D03*
X85174000Y-32512000D03*
X82974000Y-32512000D03*
X85174000Y-30480000D03*
X82974000Y-30480000D03*
X85174000Y-28448000D03*
X82974000Y-28448000D03*
X85174000Y-26416000D03*
X82974000Y-26416000D03*
X85174000Y-24384000D03*
X82974000Y-24384000D03*
D20*
X58420000Y-31436000D03*
D21*
X58420000Y-33976000D03*
X55880000Y-31436000D03*
X55880000Y-33976000D03*
X53340000Y-31436000D03*
X53340000Y-33976000D03*
X50800000Y-31436000D03*
X50800000Y-33976000D03*
X48260000Y-31436000D03*
X48260000Y-33976000D03*
X45720000Y-31436000D03*
X45720000Y-33976000D03*
D20*
X34544000Y-31436000D03*
D21*
X32004000Y-31436000D03*
X34544000Y-28896000D03*
X32004000Y-28896000D03*
X34544000Y-26356000D03*
X32004000Y-26356000D03*
D22*
X68088000Y-41154000D03*
X68088000Y-43054000D03*
X70088000Y-42104000D03*
D23*
X87884000Y-15986000D03*
X87884000Y-18686000D03*
X85852000Y-15986000D03*
X85852000Y-18686000D03*
X65532000Y-56662000D03*
X65532000Y-53962000D03*
D24*
X87296000Y-36576000D03*
X89996000Y-36576000D03*
X87296000Y-34544000D03*
X89996000Y-34544000D03*
X87296000Y-32512000D03*
X89996000Y-32512000D03*
X87296000Y-30480000D03*
X89996000Y-30480000D03*
X87296000Y-28448000D03*
X89996000Y-28448000D03*
D23*
X72136000Y-40754000D03*
X72136000Y-43454000D03*
X65532000Y-42438000D03*
X65532000Y-39738000D03*
X87884000Y-40754000D03*
X87884000Y-43454000D03*
X65532000Y-44818000D03*
X65532000Y-47518000D03*
D24*
X89996000Y-26416000D03*
X87296000Y-26416000D03*
X89996000Y-24384000D03*
X87296000Y-24384000D03*
D23*
X69342000Y-32656000D03*
X69342000Y-29956000D03*
X71374000Y-32656000D03*
X71374000Y-29956000D03*
D24*
X71962000Y-17336000D03*
X69262000Y-17336000D03*
X41990000Y-12700000D03*
X39290000Y-12700000D03*
D23*
X19812000Y-30754000D03*
X19812000Y-28054000D03*
X21844000Y-30754000D03*
X21844000Y-28054000D03*
X23876000Y-30754000D03*
X23876000Y-28054000D03*
X25908000Y-30754000D03*
X25908000Y-28054000D03*
X3556000Y-30754000D03*
X3556000Y-28054000D03*
X5588000Y-30754000D03*
X5588000Y-28054000D03*
X7620000Y-30754000D03*
X7620000Y-28054000D03*
X9652000Y-30754000D03*
X9652000Y-28054000D03*
X11684000Y-30754000D03*
X11684000Y-28054000D03*
X13716000Y-30754000D03*
X13716000Y-28054000D03*
X15748000Y-30754000D03*
X15748000Y-28054000D03*
X17780000Y-30754000D03*
X17780000Y-28054000D03*
D25*
X74515000Y-17380000D03*
X75165000Y-17380000D03*
X75815000Y-17380000D03*
X76465000Y-17380000D03*
X77115000Y-17380000D03*
X77765000Y-17380000D03*
X78415000Y-17380000D03*
X79065000Y-17380000D03*
X79715000Y-17380000D03*
X80365000Y-17380000D03*
X81015000Y-17380000D03*
X81665000Y-17380000D03*
X82315000Y-17380000D03*
X82965000Y-17380000D03*
X82965000Y-10180000D03*
X82315000Y-10180000D03*
X81665000Y-10180000D03*
X81015000Y-10180000D03*
X80365000Y-10180000D03*
X79715000Y-10180000D03*
X79065000Y-10180000D03*
X78415000Y-10180000D03*
X77765000Y-10180000D03*
X77115000Y-10180000D03*
X76465000Y-10180000D03*
X75815000Y-10180000D03*
X75165000Y-10180000D03*
X74515000Y-10180000D03*
D26*
X53600000Y-15562000D03*
X52800000Y-15562000D03*
X52000000Y-15562000D03*
X51200000Y-15562000D03*
X50400000Y-15562000D03*
X49600000Y-15562000D03*
X48800000Y-15562000D03*
X48000000Y-15562000D03*
D27*
X46550000Y-17012000D03*
X46550000Y-17812000D03*
X46550000Y-18612000D03*
X46550000Y-19412000D03*
X46550000Y-20212000D03*
X46550000Y-21012000D03*
X46550000Y-21812000D03*
X46550000Y-22612000D03*
D26*
X48000000Y-24062000D03*
X48800000Y-24062000D03*
X49600000Y-24062000D03*
X50400000Y-24062000D03*
X51200000Y-24062000D03*
X52000000Y-24062000D03*
X52800000Y-24062000D03*
X53600000Y-24062000D03*
D27*
X55050000Y-22612000D03*
X55050000Y-21812000D03*
X55050000Y-21012000D03*
X55050000Y-20212000D03*
X55050000Y-19412000D03*
X55050000Y-18612000D03*
X55050000Y-17812000D03*
X55050000Y-17012000D03*
D28*
X36390000Y-8636000D03*
X44890000Y-8636000D03*
D15*
X96000000Y-68000000D03*
D29*
X81032000Y-55956000D03*
X85592000Y-55956000D03*
D30*
X80772000Y-48454000D03*
X80772000Y-52264000D03*
X80772000Y-50994000D03*
X80772000Y-49724000D03*
D31*
X80772000Y-47184000D03*
D30*
X82042000Y-52264000D03*
X83312000Y-52264000D03*
X84582000Y-52264000D03*
X85852000Y-52264000D03*
X82042000Y-50994000D03*
X82042000Y-49724000D03*
X82042000Y-48454000D03*
D31*
X82042000Y-47184000D03*
D30*
X83312000Y-50994000D03*
X83312000Y-49724000D03*
X83312000Y-48454000D03*
D31*
X83312000Y-47184000D03*
D30*
X84582000Y-50994000D03*
X84582000Y-49724000D03*
X84582000Y-48454000D03*
D31*
X84582000Y-47184000D03*
D30*
X85852000Y-50994000D03*
X85852000Y-49724000D03*
X85852000Y-48454000D03*
D31*
X85852000Y-47184000D03*
D32*
X62153800Y-41469000D03*
X58750200Y-41469000D03*
X62153800Y-54931000D03*
X58750200Y-54931000D03*
D33*
X14224000Y-55820000D03*
D34*
X16764000Y-55820000D03*
X19304000Y-55820000D03*
D33*
X14224000Y-52264000D03*
D34*
X16764000Y-52264000D03*
X19304000Y-52264000D03*
D35*
X74012000Y-29905000D03*
X74012000Y-30555000D03*
X74012000Y-31205000D03*
X74012000Y-31855000D03*
X74012000Y-32505000D03*
X74012000Y-33155000D03*
X74012000Y-33805000D03*
X74012000Y-34455000D03*
X74012000Y-35105000D03*
X74012000Y-35755000D03*
X79912000Y-35755000D03*
X79912000Y-35105000D03*
X79912000Y-34455000D03*
X79912000Y-33805000D03*
X79912000Y-33155000D03*
X79912000Y-32505000D03*
X79912000Y-31855000D03*
X79912000Y-31205000D03*
X79912000Y-30555000D03*
X79912000Y-29905000D03*
D36*
X26460000Y-23693000D03*
X26460000Y-23043000D03*
X26460000Y-22393000D03*
X26460000Y-21743000D03*
X26460000Y-21093000D03*
X26460000Y-20443000D03*
X26460000Y-19793000D03*
X26460000Y-19143000D03*
X26460000Y-18493000D03*
X26460000Y-17843000D03*
X19260000Y-17843000D03*
X19260000Y-18493000D03*
X19260000Y-19143000D03*
X19260000Y-19793000D03*
X19260000Y-20443000D03*
X19260000Y-21093000D03*
X19260000Y-21743000D03*
X19260000Y-22393000D03*
X19260000Y-23043000D03*
X19260000Y-23693000D03*
X12744000Y-23693000D03*
X12744000Y-23043000D03*
X12744000Y-22393000D03*
X12744000Y-21743000D03*
X12744000Y-21093000D03*
X12744000Y-20443000D03*
X12744000Y-19793000D03*
X12744000Y-19143000D03*
X12744000Y-18493000D03*
X12744000Y-17843000D03*
X5544000Y-17843000D03*
X5544000Y-18493000D03*
X5544000Y-19143000D03*
X5544000Y-19793000D03*
X5544000Y-20443000D03*
X5544000Y-21093000D03*
X5544000Y-21743000D03*
X5544000Y-22393000D03*
X5544000Y-23043000D03*
X5544000Y-23693000D03*
D37*
X61976000Y-61408000D03*
D38*
X70231000Y-61408000D03*
X78486000Y-61408000D03*
X86741000Y-61408000D03*
D39*
X27940000Y-61408000D03*
X33020000Y-61408000D03*
X38100000Y-61408000D03*
X25400000Y-51248000D03*
X30480000Y-51248000D03*
X35560000Y-51248000D03*
X43180000Y-61408000D03*
X48260000Y-61408000D03*
X53340000Y-61408000D03*
X40640000Y-51248000D03*
X45720000Y-51248000D03*
X50800000Y-51248000D03*
D40*
X75311000Y-40834000D03*
X84201000Y-43374000D03*
X75311000Y-43374000D03*
X84201000Y-40834000D03*
D39*
X12700000Y-61408000D03*
X17780000Y-61408000D03*
X22860000Y-61408000D03*
D20*
X39116000Y-41088000D03*
D41*
X39116000Y-43628000D03*
X36576000Y-41088000D03*
X36576000Y-43628000D03*
X34036000Y-41088000D03*
X34036000Y-43628000D03*
X31496000Y-41088000D03*
X31496000Y-43628000D03*
X28956000Y-41088000D03*
X28956000Y-43628000D03*
X26416000Y-41088000D03*
X26416000Y-43628000D03*
X23876000Y-41088000D03*
X23876000Y-43628000D03*
D15*
X48006000Y-42358000D03*
X14986000Y-42358000D03*
M02*
