G04 #@! TF.FileFunction,Legend,Top*
%FSLAX46Y46*%
G04 Gerber Fmt 4.6, Leading zero omitted, Abs format (unit mm)*
G04 Created by KiCad (PCBNEW 4.0.7-e2-6376~61~ubuntu18.04.1) date Sun Dec  8 19:52:44 2019*
%MOMM*%
%LPD*%
G01*
G04 APERTURE LIST*
%ADD10C,0.100000*%
%ADD11C,0.254000*%
%ADD12C,0.304800*%
%ADD13C,0.120000*%
%ADD14C,0.150000*%
%ADD15C,0.010000*%
%ADD16C,0.152400*%
G04 APERTURE END LIST*
D10*
D11*
X55323619Y-54017332D02*
X55323619Y-53388380D01*
X55710667Y-53727046D01*
X55710667Y-53581904D01*
X55759048Y-53485142D01*
X55807429Y-53436761D01*
X55904190Y-53388380D01*
X56146095Y-53388380D01*
X56242857Y-53436761D01*
X56291238Y-53485142D01*
X56339619Y-53581904D01*
X56339619Y-53872189D01*
X56291238Y-53968951D01*
X56242857Y-54017332D01*
X55323619Y-52759427D02*
X55323619Y-52662666D01*
X55372000Y-52565904D01*
X55420381Y-52517523D01*
X55517143Y-52469142D01*
X55710667Y-52420761D01*
X55952571Y-52420761D01*
X56146095Y-52469142D01*
X56242857Y-52517523D01*
X56291238Y-52565904D01*
X56339619Y-52662666D01*
X56339619Y-52759427D01*
X56291238Y-52856189D01*
X56242857Y-52904570D01*
X56146095Y-52952951D01*
X55952571Y-53001332D01*
X55710667Y-53001332D01*
X55517143Y-52952951D01*
X55420381Y-52904570D01*
X55372000Y-52856189D01*
X55323619Y-52759427D01*
X56049333Y-52033713D02*
X56049333Y-51549904D01*
X56339619Y-52130475D02*
X55323619Y-51791808D01*
X56339619Y-51453142D01*
X55807429Y-50001714D02*
X55855810Y-49856571D01*
X55904190Y-49808190D01*
X56000952Y-49759809D01*
X56146095Y-49759809D01*
X56242857Y-49808190D01*
X56291238Y-49856571D01*
X56339619Y-49953333D01*
X56339619Y-50340380D01*
X55323619Y-50340380D01*
X55323619Y-50001714D01*
X55372000Y-49904952D01*
X55420381Y-49856571D01*
X55517143Y-49808190D01*
X55613905Y-49808190D01*
X55710667Y-49856571D01*
X55759048Y-49904952D01*
X55807429Y-50001714D01*
X55807429Y-50340380D01*
X56339619Y-48840571D02*
X56339619Y-49324380D01*
X55323619Y-49324380D01*
X56049333Y-48550285D02*
X56049333Y-48066476D01*
X56339619Y-48647047D02*
X55323619Y-48308380D01*
X56339619Y-47969714D01*
X56339619Y-47631047D02*
X55323619Y-47631047D01*
X55323619Y-47389142D01*
X55372000Y-47244000D01*
X55468762Y-47147238D01*
X55565524Y-47098857D01*
X55759048Y-47050476D01*
X55904190Y-47050476D01*
X56097714Y-47098857D01*
X56194476Y-47147238D01*
X56291238Y-47244000D01*
X56339619Y-47389142D01*
X56339619Y-47631047D01*
X55807429Y-46615047D02*
X55807429Y-46276381D01*
X56339619Y-46131238D02*
X56339619Y-46615047D01*
X55323619Y-46615047D01*
X55323619Y-46131238D01*
X55807429Y-44583048D02*
X55807429Y-44921714D01*
X56339619Y-44921714D02*
X55323619Y-44921714D01*
X55323619Y-44437905D01*
X55323619Y-44050857D02*
X56146095Y-44050857D01*
X56242857Y-44002476D01*
X56291238Y-43954095D01*
X56339619Y-43857333D01*
X56339619Y-43663810D01*
X56291238Y-43567048D01*
X56242857Y-43518667D01*
X56146095Y-43470286D01*
X55323619Y-43470286D01*
X56291238Y-43034857D02*
X56339619Y-42889714D01*
X56339619Y-42647810D01*
X56291238Y-42551048D01*
X56242857Y-42502667D01*
X56146095Y-42454286D01*
X56049333Y-42454286D01*
X55952571Y-42502667D01*
X55904190Y-42551048D01*
X55855810Y-42647810D01*
X55807429Y-42841333D01*
X55759048Y-42938095D01*
X55710667Y-42986476D01*
X55613905Y-43034857D01*
X55517143Y-43034857D01*
X55420381Y-42986476D01*
X55372000Y-42938095D01*
X55323619Y-42841333D01*
X55323619Y-42599429D01*
X55372000Y-42454286D01*
X55807429Y-42018857D02*
X55807429Y-41680191D01*
X56339619Y-41535048D02*
X56339619Y-42018857D01*
X55323619Y-42018857D01*
X55323619Y-41535048D01*
X94790381Y-27752524D02*
X94790381Y-28780619D01*
X94850857Y-28901571D01*
X94911333Y-28962048D01*
X95032286Y-29022524D01*
X95274190Y-29022524D01*
X95395143Y-28962048D01*
X95455619Y-28901571D01*
X95516095Y-28780619D01*
X95516095Y-27752524D01*
X96060381Y-28962048D02*
X96241809Y-29022524D01*
X96544190Y-29022524D01*
X96665143Y-28962048D01*
X96725619Y-28901571D01*
X96786095Y-28780619D01*
X96786095Y-28659667D01*
X96725619Y-28538714D01*
X96665143Y-28478238D01*
X96544190Y-28417762D01*
X96302286Y-28357286D01*
X96181333Y-28296810D01*
X96120857Y-28236333D01*
X96060381Y-28115381D01*
X96060381Y-27994429D01*
X96120857Y-27873476D01*
X96181333Y-27813000D01*
X96302286Y-27752524D01*
X96604666Y-27752524D01*
X96786095Y-27813000D01*
X97330381Y-28357286D02*
X97753714Y-28357286D01*
X97935143Y-29022524D02*
X97330381Y-29022524D01*
X97330381Y-27752524D01*
X97935143Y-27752524D01*
X99205143Y-29022524D02*
X98781810Y-28417762D01*
X98479429Y-29022524D02*
X98479429Y-27752524D01*
X98963238Y-27752524D01*
X99084191Y-27813000D01*
X99144667Y-27873476D01*
X99205143Y-27994429D01*
X99205143Y-28175857D01*
X99144667Y-28296810D01*
X99084191Y-28357286D01*
X98963238Y-28417762D01*
X98479429Y-28417762D01*
X95032286Y-31816524D02*
X95274190Y-31816524D01*
X95395143Y-31877000D01*
X95516095Y-31997952D01*
X95576571Y-32239857D01*
X95576571Y-32663190D01*
X95516095Y-32905095D01*
X95395143Y-33026048D01*
X95274190Y-33086524D01*
X95032286Y-33086524D01*
X94911333Y-33026048D01*
X94790381Y-32905095D01*
X94729905Y-32663190D01*
X94729905Y-32239857D01*
X94790381Y-31997952D01*
X94911333Y-31877000D01*
X95032286Y-31816524D01*
X96120857Y-33086524D02*
X96120857Y-31816524D01*
X96846571Y-33086524D02*
X96302286Y-32360810D01*
X96846571Y-31816524D02*
X96120857Y-32542238D01*
X95213714Y-30389286D02*
X95395143Y-30449762D01*
X95455619Y-30510238D01*
X95516095Y-30631190D01*
X95516095Y-30812619D01*
X95455619Y-30933571D01*
X95395143Y-30994048D01*
X95274190Y-31054524D01*
X94790381Y-31054524D01*
X94790381Y-29784524D01*
X95213714Y-29784524D01*
X95334667Y-29845000D01*
X95395143Y-29905476D01*
X95455619Y-30026429D01*
X95455619Y-30147381D01*
X95395143Y-30268333D01*
X95334667Y-30328810D01*
X95213714Y-30389286D01*
X94790381Y-30389286D01*
X96060381Y-29784524D02*
X96060381Y-30812619D01*
X96120857Y-30933571D01*
X96181333Y-30994048D01*
X96302286Y-31054524D01*
X96544190Y-31054524D01*
X96665143Y-30994048D01*
X96725619Y-30933571D01*
X96786095Y-30812619D01*
X96786095Y-29784524D01*
X97330381Y-30994048D02*
X97511809Y-31054524D01*
X97814190Y-31054524D01*
X97935143Y-30994048D01*
X97995619Y-30933571D01*
X98056095Y-30812619D01*
X98056095Y-30691667D01*
X97995619Y-30570714D01*
X97935143Y-30510238D01*
X97814190Y-30449762D01*
X97572286Y-30389286D01*
X97451333Y-30328810D01*
X97390857Y-30268333D01*
X97330381Y-30147381D01*
X97330381Y-30026429D01*
X97390857Y-29905476D01*
X97451333Y-29845000D01*
X97572286Y-29784524D01*
X97874666Y-29784524D01*
X98056095Y-29845000D01*
X98842286Y-30449762D02*
X98842286Y-31054524D01*
X98418952Y-29784524D02*
X98842286Y-30449762D01*
X99265619Y-29784524D01*
X95213714Y-34453286D02*
X94790381Y-34453286D01*
X94790381Y-35118524D02*
X94790381Y-33848524D01*
X95395143Y-33848524D01*
X95818476Y-34755667D02*
X96423238Y-34755667D01*
X95697523Y-35118524D02*
X96120857Y-33848524D01*
X96544190Y-35118524D01*
X96967523Y-35118524D02*
X96967523Y-33848524D01*
X98177047Y-35118524D02*
X97572285Y-35118524D01*
X97572285Y-33848524D01*
X95213714Y-36485286D02*
X94790381Y-36485286D01*
X94790381Y-37150524D02*
X94790381Y-35880524D01*
X95395143Y-35880524D01*
X95878952Y-35880524D02*
X95878952Y-36908619D01*
X95939428Y-37029571D01*
X95999904Y-37090048D01*
X96120857Y-37150524D01*
X96362761Y-37150524D01*
X96483714Y-37090048D01*
X96544190Y-37029571D01*
X96604666Y-36908619D01*
X96604666Y-35880524D01*
X97148952Y-37090048D02*
X97330380Y-37150524D01*
X97632761Y-37150524D01*
X97753714Y-37090048D01*
X97814190Y-37029571D01*
X97874666Y-36908619D01*
X97874666Y-36787667D01*
X97814190Y-36666714D01*
X97753714Y-36606238D01*
X97632761Y-36545762D01*
X97390857Y-36485286D01*
X97269904Y-36424810D01*
X97209428Y-36364333D01*
X97148952Y-36243381D01*
X97148952Y-36122429D01*
X97209428Y-36001476D01*
X97269904Y-35941000D01*
X97390857Y-35880524D01*
X97693237Y-35880524D01*
X97874666Y-35941000D01*
X98418952Y-36485286D02*
X98842285Y-36485286D01*
X99023714Y-37150524D02*
X98418952Y-37150524D01*
X98418952Y-35880524D01*
X99023714Y-35880524D01*
X95516095Y-24958524D02*
X95092762Y-24353762D01*
X94790381Y-24958524D02*
X94790381Y-23688524D01*
X95274190Y-23688524D01*
X95395143Y-23749000D01*
X95455619Y-23809476D01*
X95516095Y-23930429D01*
X95516095Y-24111857D01*
X95455619Y-24232810D01*
X95395143Y-24293286D01*
X95274190Y-24353762D01*
X94790381Y-24353762D01*
X95939429Y-23688524D02*
X96786095Y-24958524D01*
X96786095Y-23688524D02*
X95939429Y-24958524D01*
X94608952Y-25720524D02*
X95334667Y-25720524D01*
X94971810Y-26990524D02*
X94971810Y-25720524D01*
X95637048Y-25720524D02*
X96483714Y-26990524D01*
X96483714Y-25720524D02*
X95637048Y-26990524D01*
D12*
X49021999Y-5769429D02*
X49021999Y-4245429D01*
X49021999Y-4971143D02*
X49892856Y-4971143D01*
X49892856Y-5769429D02*
X49892856Y-4245429D01*
X50618570Y-5769429D02*
X50618570Y-4753429D01*
X50618570Y-4245429D02*
X50545999Y-4318000D01*
X50618570Y-4390571D01*
X50691142Y-4318000D01*
X50618570Y-4245429D01*
X50618570Y-4390571D01*
X51997427Y-4753429D02*
X51997427Y-5987143D01*
X51924856Y-6132286D01*
X51852284Y-6204857D01*
X51707141Y-6277429D01*
X51489427Y-6277429D01*
X51344284Y-6204857D01*
X51997427Y-5696857D02*
X51852284Y-5769429D01*
X51561998Y-5769429D01*
X51416856Y-5696857D01*
X51344284Y-5624286D01*
X51271713Y-5479143D01*
X51271713Y-5043714D01*
X51344284Y-4898571D01*
X51416856Y-4826000D01*
X51561998Y-4753429D01*
X51852284Y-4753429D01*
X51997427Y-4826000D01*
X52723141Y-5769429D02*
X52723141Y-4245429D01*
X53376284Y-5769429D02*
X53376284Y-4971143D01*
X53303713Y-4826000D01*
X53158570Y-4753429D01*
X52940855Y-4753429D01*
X52795713Y-4826000D01*
X52723141Y-4898571D01*
X55045427Y-4245429D02*
X55916284Y-4245429D01*
X55480855Y-5769429D02*
X55480855Y-4245429D01*
X56641998Y-5769429D02*
X56496856Y-5696857D01*
X56424284Y-5624286D01*
X56351713Y-5479143D01*
X56351713Y-5043714D01*
X56424284Y-4898571D01*
X56496856Y-4826000D01*
X56641998Y-4753429D01*
X56859713Y-4753429D01*
X57004856Y-4826000D01*
X57077427Y-4898571D01*
X57149998Y-5043714D01*
X57149998Y-5479143D01*
X57077427Y-5624286D01*
X57004856Y-5696857D01*
X56859713Y-5769429D01*
X56641998Y-5769429D01*
X57803141Y-5769429D02*
X57803141Y-4753429D01*
X57803141Y-5043714D02*
X57875713Y-4898571D01*
X57948284Y-4826000D01*
X58093427Y-4753429D01*
X58238570Y-4753429D01*
X59399713Y-4753429D02*
X59399713Y-6277429D01*
X59399713Y-5696857D02*
X59254570Y-5769429D01*
X58964284Y-5769429D01*
X58819142Y-5696857D01*
X58746570Y-5624286D01*
X58673999Y-5479143D01*
X58673999Y-5043714D01*
X58746570Y-4898571D01*
X58819142Y-4826000D01*
X58964284Y-4753429D01*
X59254570Y-4753429D01*
X59399713Y-4826000D01*
X60778570Y-4753429D02*
X60778570Y-5769429D01*
X60125427Y-4753429D02*
X60125427Y-5551714D01*
X60197999Y-5696857D01*
X60343141Y-5769429D01*
X60560856Y-5769429D01*
X60705999Y-5696857D01*
X60778570Y-5624286D01*
X62084856Y-5696857D02*
X61939713Y-5769429D01*
X61649427Y-5769429D01*
X61504284Y-5696857D01*
X61431713Y-5551714D01*
X61431713Y-4971143D01*
X61504284Y-4826000D01*
X61649427Y-4753429D01*
X61939713Y-4753429D01*
X62084856Y-4826000D01*
X62157427Y-4971143D01*
X62157427Y-5116286D01*
X61431713Y-5261429D01*
X63899142Y-5696857D02*
X64116856Y-5769429D01*
X64479713Y-5769429D01*
X64624856Y-5696857D01*
X64697427Y-5624286D01*
X64769999Y-5479143D01*
X64769999Y-5334000D01*
X64697427Y-5188857D01*
X64624856Y-5116286D01*
X64479713Y-5043714D01*
X64189427Y-4971143D01*
X64044285Y-4898571D01*
X63971713Y-4826000D01*
X63899142Y-4680857D01*
X63899142Y-4535714D01*
X63971713Y-4390571D01*
X64044285Y-4318000D01*
X64189427Y-4245429D01*
X64552285Y-4245429D01*
X64769999Y-4318000D01*
X66003714Y-5696857D02*
X65858571Y-5769429D01*
X65568285Y-5769429D01*
X65423142Y-5696857D01*
X65350571Y-5551714D01*
X65350571Y-4971143D01*
X65423142Y-4826000D01*
X65568285Y-4753429D01*
X65858571Y-4753429D01*
X66003714Y-4826000D01*
X66076285Y-4971143D01*
X66076285Y-5116286D01*
X65350571Y-5261429D01*
X66729428Y-5769429D02*
X66729428Y-4753429D01*
X66729428Y-5043714D02*
X66802000Y-4898571D01*
X66874571Y-4826000D01*
X67019714Y-4753429D01*
X67164857Y-4753429D01*
X67527714Y-4753429D02*
X67890571Y-5769429D01*
X68253429Y-4753429D01*
X69051714Y-5769429D02*
X68906572Y-5696857D01*
X68834000Y-5624286D01*
X68761429Y-5479143D01*
X68761429Y-5043714D01*
X68834000Y-4898571D01*
X68906572Y-4826000D01*
X69051714Y-4753429D01*
X69269429Y-4753429D01*
X69414572Y-4826000D01*
X69487143Y-4898571D01*
X69559714Y-5043714D01*
X69559714Y-5479143D01*
X69487143Y-5624286D01*
X69414572Y-5696857D01*
X69269429Y-5769429D01*
X69051714Y-5769429D01*
X71301429Y-5334000D02*
X72027143Y-5334000D01*
X71156286Y-5769429D02*
X71664286Y-4245429D01*
X72172286Y-5769429D01*
X72680286Y-5769429D02*
X72680286Y-4753429D01*
X72680286Y-5043714D02*
X72752858Y-4898571D01*
X72825429Y-4826000D01*
X72970572Y-4753429D01*
X73115715Y-4753429D01*
X73623715Y-5769429D02*
X73623715Y-4753429D01*
X73623715Y-4898571D02*
X73696287Y-4826000D01*
X73841429Y-4753429D01*
X74059144Y-4753429D01*
X74204287Y-4826000D01*
X74276858Y-4971143D01*
X74276858Y-5769429D01*
X74276858Y-4971143D02*
X74349429Y-4826000D01*
X74494572Y-4753429D01*
X74712287Y-4753429D01*
X74857429Y-4826000D01*
X74930001Y-4971143D01*
X74930001Y-5769429D01*
D11*
X4668764Y-10238619D02*
X4330098Y-9754810D01*
X4088193Y-10238619D02*
X4088193Y-9222619D01*
X4475240Y-9222619D01*
X4572002Y-9271000D01*
X4620383Y-9319381D01*
X4668764Y-9416143D01*
X4668764Y-9561286D01*
X4620383Y-9658048D01*
X4572002Y-9706429D01*
X4475240Y-9754810D01*
X4088193Y-9754810D01*
X5491240Y-10190238D02*
X5394478Y-10238619D01*
X5200955Y-10238619D01*
X5104193Y-10190238D01*
X5055812Y-10093476D01*
X5055812Y-9706429D01*
X5104193Y-9609667D01*
X5200955Y-9561286D01*
X5394478Y-9561286D01*
X5491240Y-9609667D01*
X5539621Y-9706429D01*
X5539621Y-9803190D01*
X5055812Y-9899952D01*
X6120193Y-10238619D02*
X6023431Y-10190238D01*
X5975050Y-10093476D01*
X5975050Y-9222619D01*
X6894287Y-10190238D02*
X6797525Y-10238619D01*
X6604002Y-10238619D01*
X6507240Y-10190238D01*
X6458859Y-10093476D01*
X6458859Y-9706429D01*
X6507240Y-9609667D01*
X6604002Y-9561286D01*
X6797525Y-9561286D01*
X6894287Y-9609667D01*
X6942668Y-9706429D01*
X6942668Y-9803190D01*
X6458859Y-9899952D01*
X7813525Y-10238619D02*
X7813525Y-9706429D01*
X7765144Y-9609667D01*
X7668382Y-9561286D01*
X7474859Y-9561286D01*
X7378097Y-9609667D01*
X7813525Y-10190238D02*
X7716763Y-10238619D01*
X7474859Y-10238619D01*
X7378097Y-10190238D01*
X7329716Y-10093476D01*
X7329716Y-9996714D01*
X7378097Y-9899952D01*
X7474859Y-9851571D01*
X7716763Y-9851571D01*
X7813525Y-9803190D01*
X8248954Y-10190238D02*
X8345716Y-10238619D01*
X8539240Y-10238619D01*
X8636001Y-10190238D01*
X8684382Y-10093476D01*
X8684382Y-10045095D01*
X8636001Y-9948333D01*
X8539240Y-9899952D01*
X8394097Y-9899952D01*
X8297335Y-9851571D01*
X8248954Y-9754810D01*
X8248954Y-9706429D01*
X8297335Y-9609667D01*
X8394097Y-9561286D01*
X8539240Y-9561286D01*
X8636001Y-9609667D01*
X9506858Y-10190238D02*
X9410096Y-10238619D01*
X9216573Y-10238619D01*
X9119811Y-10190238D01*
X9071430Y-10093476D01*
X9071430Y-9706429D01*
X9119811Y-9609667D01*
X9216573Y-9561286D01*
X9410096Y-9561286D01*
X9506858Y-9609667D01*
X9555239Y-9706429D01*
X9555239Y-9803190D01*
X9071430Y-9899952D01*
X10426096Y-10238619D02*
X10426096Y-9222619D01*
X10426096Y-10190238D02*
X10329334Y-10238619D01*
X10135811Y-10238619D01*
X10039049Y-10190238D01*
X9990668Y-10141857D01*
X9942287Y-10045095D01*
X9942287Y-9754810D01*
X9990668Y-9658048D01*
X10039049Y-9609667D01*
X10135811Y-9561286D01*
X10329334Y-9561286D01*
X10426096Y-9609667D01*
X12119429Y-9561286D02*
X12119429Y-10238619D01*
X11684001Y-9561286D02*
X11684001Y-10093476D01*
X11732382Y-10190238D01*
X11829144Y-10238619D01*
X11974286Y-10238619D01*
X12071048Y-10190238D01*
X12119429Y-10141857D01*
X12603239Y-9561286D02*
X12603239Y-10238619D01*
X12603239Y-9658048D02*
X12651620Y-9609667D01*
X12748382Y-9561286D01*
X12893524Y-9561286D01*
X12990286Y-9609667D01*
X13038667Y-9706429D01*
X13038667Y-10238619D01*
X13957905Y-10238619D02*
X13957905Y-9222619D01*
X13957905Y-10190238D02*
X13861143Y-10238619D01*
X13667620Y-10238619D01*
X13570858Y-10190238D01*
X13522477Y-10141857D01*
X13474096Y-10045095D01*
X13474096Y-9754810D01*
X13522477Y-9658048D01*
X13570858Y-9609667D01*
X13667620Y-9561286D01*
X13861143Y-9561286D01*
X13957905Y-9609667D01*
X14828762Y-10190238D02*
X14732000Y-10238619D01*
X14538477Y-10238619D01*
X14441715Y-10190238D01*
X14393334Y-10093476D01*
X14393334Y-9706429D01*
X14441715Y-9609667D01*
X14538477Y-9561286D01*
X14732000Y-9561286D01*
X14828762Y-9609667D01*
X14877143Y-9706429D01*
X14877143Y-9803190D01*
X14393334Y-9899952D01*
X15312572Y-10238619D02*
X15312572Y-9561286D01*
X15312572Y-9754810D02*
X15360953Y-9658048D01*
X15409334Y-9609667D01*
X15506096Y-9561286D01*
X15602857Y-9561286D01*
X17247809Y-9271000D02*
X17151047Y-9222619D01*
X17005904Y-9222619D01*
X16860762Y-9271000D01*
X16764000Y-9367762D01*
X16715619Y-9464524D01*
X16667238Y-9658048D01*
X16667238Y-9803190D01*
X16715619Y-9996714D01*
X16764000Y-10093476D01*
X16860762Y-10190238D01*
X17005904Y-10238619D01*
X17102666Y-10238619D01*
X17247809Y-10190238D01*
X17296190Y-10141857D01*
X17296190Y-9803190D01*
X17102666Y-9803190D01*
X17731619Y-10238619D02*
X17731619Y-9222619D01*
X18312190Y-10238619D01*
X18312190Y-9222619D01*
X18796000Y-9222619D02*
X18796000Y-10045095D01*
X18844381Y-10141857D01*
X18892762Y-10190238D01*
X18989524Y-10238619D01*
X19183047Y-10238619D01*
X19279809Y-10190238D01*
X19328190Y-10141857D01*
X19376571Y-10045095D01*
X19376571Y-9222619D01*
X20586095Y-9174238D02*
X19715238Y-10480524D01*
X21456952Y-9271000D02*
X21360190Y-9222619D01*
X21215047Y-9222619D01*
X21069905Y-9271000D01*
X20973143Y-9367762D01*
X20924762Y-9464524D01*
X20876381Y-9658048D01*
X20876381Y-9803190D01*
X20924762Y-9996714D01*
X20973143Y-10093476D01*
X21069905Y-10190238D01*
X21215047Y-10238619D01*
X21311809Y-10238619D01*
X21456952Y-10190238D01*
X21505333Y-10141857D01*
X21505333Y-9803190D01*
X21311809Y-9803190D01*
X21940762Y-10238619D02*
X21940762Y-9222619D01*
X22327809Y-9222619D01*
X22424571Y-9271000D01*
X22472952Y-9319381D01*
X22521333Y-9416143D01*
X22521333Y-9561286D01*
X22472952Y-9658048D01*
X22424571Y-9706429D01*
X22327809Y-9754810D01*
X21940762Y-9754810D01*
X23440571Y-10238619D02*
X22956762Y-10238619D01*
X22956762Y-9222619D01*
X24456571Y-9222619D02*
X25085523Y-9222619D01*
X24746857Y-9609667D01*
X24891999Y-9609667D01*
X24988761Y-9658048D01*
X25037142Y-9706429D01*
X25085523Y-9803190D01*
X25085523Y-10045095D01*
X25037142Y-10141857D01*
X24988761Y-10190238D01*
X24891999Y-10238619D01*
X24601714Y-10238619D01*
X24504952Y-10190238D01*
X24456571Y-10141857D01*
X26778856Y-10238619D02*
X26295047Y-10238619D01*
X26295047Y-9222619D01*
X27117523Y-10238619D02*
X27117523Y-9561286D01*
X27117523Y-9222619D02*
X27069142Y-9271000D01*
X27117523Y-9319381D01*
X27165904Y-9271000D01*
X27117523Y-9222619D01*
X27117523Y-9319381D01*
X28036761Y-10190238D02*
X27939999Y-10238619D01*
X27746476Y-10238619D01*
X27649714Y-10190238D01*
X27601333Y-10141857D01*
X27552952Y-10045095D01*
X27552952Y-9754810D01*
X27601333Y-9658048D01*
X27649714Y-9609667D01*
X27746476Y-9561286D01*
X27939999Y-9561286D01*
X28036761Y-9609667D01*
X28859237Y-10190238D02*
X28762475Y-10238619D01*
X28568952Y-10238619D01*
X28472190Y-10190238D01*
X28423809Y-10093476D01*
X28423809Y-9706429D01*
X28472190Y-9609667D01*
X28568952Y-9561286D01*
X28762475Y-9561286D01*
X28859237Y-9609667D01*
X28907618Y-9706429D01*
X28907618Y-9803190D01*
X28423809Y-9899952D01*
X29343047Y-9561286D02*
X29343047Y-10238619D01*
X29343047Y-9658048D02*
X29391428Y-9609667D01*
X29488190Y-9561286D01*
X29633332Y-9561286D01*
X29730094Y-9609667D01*
X29778475Y-9706429D01*
X29778475Y-10238619D01*
X30213904Y-10190238D02*
X30310666Y-10238619D01*
X30504190Y-10238619D01*
X30600951Y-10190238D01*
X30649332Y-10093476D01*
X30649332Y-10045095D01*
X30600951Y-9948333D01*
X30504190Y-9899952D01*
X30359047Y-9899952D01*
X30262285Y-9851571D01*
X30213904Y-9754810D01*
X30213904Y-9706429D01*
X30262285Y-9609667D01*
X30359047Y-9561286D01*
X30504190Y-9561286D01*
X30600951Y-9609667D01*
X31471808Y-10190238D02*
X31375046Y-10238619D01*
X31181523Y-10238619D01*
X31084761Y-10190238D01*
X31036380Y-10093476D01*
X31036380Y-9706429D01*
X31084761Y-9609667D01*
X31181523Y-9561286D01*
X31375046Y-9561286D01*
X31471808Y-9609667D01*
X31520189Y-9706429D01*
X31520189Y-9803190D01*
X31036380Y-9899952D01*
X2830287Y-12016619D02*
X2830287Y-11000619D01*
X3265715Y-12016619D02*
X3265715Y-11484429D01*
X3217334Y-11387667D01*
X3120572Y-11339286D01*
X2975430Y-11339286D01*
X2878668Y-11387667D01*
X2830287Y-11436048D01*
X3604382Y-11339286D02*
X3991430Y-11339286D01*
X3749525Y-11000619D02*
X3749525Y-11871476D01*
X3797906Y-11968238D01*
X3894668Y-12016619D01*
X3991430Y-12016619D01*
X4184953Y-11339286D02*
X4572001Y-11339286D01*
X4330096Y-11000619D02*
X4330096Y-11871476D01*
X4378477Y-11968238D01*
X4475239Y-12016619D01*
X4572001Y-12016619D01*
X4910667Y-11339286D02*
X4910667Y-12355286D01*
X4910667Y-11387667D02*
X5007429Y-11339286D01*
X5200952Y-11339286D01*
X5297714Y-11387667D01*
X5346095Y-11436048D01*
X5394476Y-11532810D01*
X5394476Y-11823095D01*
X5346095Y-11919857D01*
X5297714Y-11968238D01*
X5200952Y-12016619D01*
X5007429Y-12016619D01*
X4910667Y-11968238D01*
X5781524Y-11968238D02*
X5878286Y-12016619D01*
X6071810Y-12016619D01*
X6168571Y-11968238D01*
X6216952Y-11871476D01*
X6216952Y-11823095D01*
X6168571Y-11726333D01*
X6071810Y-11677952D01*
X5926667Y-11677952D01*
X5829905Y-11629571D01*
X5781524Y-11532810D01*
X5781524Y-11484429D01*
X5829905Y-11387667D01*
X5926667Y-11339286D01*
X6071810Y-11339286D01*
X6168571Y-11387667D01*
X6652381Y-11919857D02*
X6700762Y-11968238D01*
X6652381Y-12016619D01*
X6604000Y-11968238D01*
X6652381Y-11919857D01*
X6652381Y-12016619D01*
X6652381Y-11387667D02*
X6700762Y-11436048D01*
X6652381Y-11484429D01*
X6604000Y-11436048D01*
X6652381Y-11387667D01*
X6652381Y-11484429D01*
X7861905Y-10952238D02*
X6991048Y-12258524D01*
X8926286Y-10952238D02*
X8055429Y-12258524D01*
X9168191Y-11339286D02*
X9361715Y-12016619D01*
X9555238Y-11532810D01*
X9748762Y-12016619D01*
X9942286Y-11339286D01*
X10232572Y-11339286D02*
X10426096Y-12016619D01*
X10619619Y-11532810D01*
X10813143Y-12016619D01*
X11006667Y-11339286D01*
X11296953Y-11339286D02*
X11490477Y-12016619D01*
X11684000Y-11532810D01*
X11877524Y-12016619D01*
X12071048Y-11339286D01*
X12458096Y-11919857D02*
X12506477Y-11968238D01*
X12458096Y-12016619D01*
X12409715Y-11968238D01*
X12458096Y-11919857D01*
X12458096Y-12016619D01*
X13377334Y-11339286D02*
X13377334Y-12161762D01*
X13328953Y-12258524D01*
X13280572Y-12306905D01*
X13183811Y-12355286D01*
X13038668Y-12355286D01*
X12941906Y-12306905D01*
X13377334Y-11968238D02*
X13280572Y-12016619D01*
X13087049Y-12016619D01*
X12990287Y-11968238D01*
X12941906Y-11919857D01*
X12893525Y-11823095D01*
X12893525Y-11532810D01*
X12941906Y-11436048D01*
X12990287Y-11387667D01*
X13087049Y-11339286D01*
X13280572Y-11339286D01*
X13377334Y-11387667D01*
X13861144Y-11339286D02*
X13861144Y-12016619D01*
X13861144Y-11436048D02*
X13909525Y-11387667D01*
X14006287Y-11339286D01*
X14151429Y-11339286D01*
X14248191Y-11387667D01*
X14296572Y-11484429D01*
X14296572Y-12016619D01*
X15215810Y-11339286D02*
X15215810Y-12016619D01*
X14780382Y-11339286D02*
X14780382Y-11871476D01*
X14828763Y-11968238D01*
X14925525Y-12016619D01*
X15070667Y-12016619D01*
X15167429Y-11968238D01*
X15215810Y-11919857D01*
X15699620Y-11919857D02*
X15748001Y-11968238D01*
X15699620Y-12016619D01*
X15651239Y-11968238D01*
X15699620Y-11919857D01*
X15699620Y-12016619D01*
X16328573Y-12016619D02*
X16231811Y-11968238D01*
X16183430Y-11919857D01*
X16135049Y-11823095D01*
X16135049Y-11532810D01*
X16183430Y-11436048D01*
X16231811Y-11387667D01*
X16328573Y-11339286D01*
X16473715Y-11339286D01*
X16570477Y-11387667D01*
X16618858Y-11436048D01*
X16667239Y-11532810D01*
X16667239Y-11823095D01*
X16618858Y-11919857D01*
X16570477Y-11968238D01*
X16473715Y-12016619D01*
X16328573Y-12016619D01*
X17102668Y-12016619D02*
X17102668Y-11339286D01*
X17102668Y-11532810D02*
X17151049Y-11436048D01*
X17199430Y-11387667D01*
X17296192Y-11339286D01*
X17392953Y-11339286D01*
X18167048Y-11339286D02*
X18167048Y-12161762D01*
X18118667Y-12258524D01*
X18070286Y-12306905D01*
X17973525Y-12355286D01*
X17828382Y-12355286D01*
X17731620Y-12306905D01*
X18167048Y-11968238D02*
X18070286Y-12016619D01*
X17876763Y-12016619D01*
X17780001Y-11968238D01*
X17731620Y-11919857D01*
X17683239Y-11823095D01*
X17683239Y-11532810D01*
X17731620Y-11436048D01*
X17780001Y-11387667D01*
X17876763Y-11339286D01*
X18070286Y-11339286D01*
X18167048Y-11387667D01*
X19376572Y-10952238D02*
X18505715Y-12258524D01*
X19860382Y-12016619D02*
X19763620Y-11968238D01*
X19715239Y-11871476D01*
X19715239Y-11000619D01*
X20247429Y-12016619D02*
X20247429Y-11339286D01*
X20247429Y-11000619D02*
X20199048Y-11049000D01*
X20247429Y-11097381D01*
X20295810Y-11049000D01*
X20247429Y-11000619D01*
X20247429Y-11097381D01*
X21166667Y-11968238D02*
X21069905Y-12016619D01*
X20876382Y-12016619D01*
X20779620Y-11968238D01*
X20731239Y-11919857D01*
X20682858Y-11823095D01*
X20682858Y-11532810D01*
X20731239Y-11436048D01*
X20779620Y-11387667D01*
X20876382Y-11339286D01*
X21069905Y-11339286D01*
X21166667Y-11387667D01*
X21989143Y-11968238D02*
X21892381Y-12016619D01*
X21698858Y-12016619D01*
X21602096Y-11968238D01*
X21553715Y-11871476D01*
X21553715Y-11484429D01*
X21602096Y-11387667D01*
X21698858Y-11339286D01*
X21892381Y-11339286D01*
X21989143Y-11387667D01*
X22037524Y-11484429D01*
X22037524Y-11581190D01*
X21553715Y-11677952D01*
X22472953Y-11339286D02*
X22472953Y-12016619D01*
X22472953Y-11436048D02*
X22521334Y-11387667D01*
X22618096Y-11339286D01*
X22763238Y-11339286D01*
X22860000Y-11387667D01*
X22908381Y-11484429D01*
X22908381Y-12016619D01*
X23343810Y-11968238D02*
X23440572Y-12016619D01*
X23634096Y-12016619D01*
X23730857Y-11968238D01*
X23779238Y-11871476D01*
X23779238Y-11823095D01*
X23730857Y-11726333D01*
X23634096Y-11677952D01*
X23488953Y-11677952D01*
X23392191Y-11629571D01*
X23343810Y-11532810D01*
X23343810Y-11484429D01*
X23392191Y-11387667D01*
X23488953Y-11339286D01*
X23634096Y-11339286D01*
X23730857Y-11387667D01*
X24601714Y-11968238D02*
X24504952Y-12016619D01*
X24311429Y-12016619D01*
X24214667Y-11968238D01*
X24166286Y-11871476D01*
X24166286Y-11484429D01*
X24214667Y-11387667D01*
X24311429Y-11339286D01*
X24504952Y-11339286D01*
X24601714Y-11387667D01*
X24650095Y-11484429D01*
X24650095Y-11581190D01*
X24166286Y-11677952D01*
X25037143Y-11968238D02*
X25133905Y-12016619D01*
X25327429Y-12016619D01*
X25424190Y-11968238D01*
X25472571Y-11871476D01*
X25472571Y-11823095D01*
X25424190Y-11726333D01*
X25327429Y-11677952D01*
X25182286Y-11677952D01*
X25085524Y-11629571D01*
X25037143Y-11532810D01*
X25037143Y-11484429D01*
X25085524Y-11387667D01*
X25182286Y-11339286D01*
X25327429Y-11339286D01*
X25424190Y-11387667D01*
X26633714Y-10952238D02*
X25762857Y-12258524D01*
X27407809Y-11339286D02*
X27407809Y-12161762D01*
X27359428Y-12258524D01*
X27311047Y-12306905D01*
X27214286Y-12355286D01*
X27069143Y-12355286D01*
X26972381Y-12306905D01*
X27407809Y-11968238D02*
X27311047Y-12016619D01*
X27117524Y-12016619D01*
X27020762Y-11968238D01*
X26972381Y-11919857D01*
X26924000Y-11823095D01*
X26924000Y-11532810D01*
X26972381Y-11436048D01*
X27020762Y-11387667D01*
X27117524Y-11339286D01*
X27311047Y-11339286D01*
X27407809Y-11387667D01*
X27891619Y-11339286D02*
X27891619Y-12355286D01*
X27891619Y-11387667D02*
X27988381Y-11339286D01*
X28181904Y-11339286D01*
X28278666Y-11387667D01*
X28327047Y-11436048D01*
X28375428Y-11532810D01*
X28375428Y-11823095D01*
X28327047Y-11919857D01*
X28278666Y-11968238D01*
X28181904Y-12016619D01*
X27988381Y-12016619D01*
X27891619Y-11968238D01*
X28956000Y-12016619D02*
X28859238Y-11968238D01*
X28810857Y-11871476D01*
X28810857Y-11000619D01*
X29343047Y-11919857D02*
X29391428Y-11968238D01*
X29343047Y-12016619D01*
X29294666Y-11968238D01*
X29343047Y-11919857D01*
X29343047Y-12016619D01*
X29826857Y-12016619D02*
X29826857Y-11000619D01*
X30262285Y-12016619D02*
X30262285Y-11484429D01*
X30213904Y-11387667D01*
X30117142Y-11339286D01*
X29972000Y-11339286D01*
X29875238Y-11387667D01*
X29826857Y-11436048D01*
X30600952Y-11339286D02*
X30988000Y-11339286D01*
X30746095Y-11000619D02*
X30746095Y-11871476D01*
X30794476Y-11968238D01*
X30891238Y-12016619D01*
X30988000Y-12016619D01*
X31326666Y-12016619D02*
X31326666Y-11339286D01*
X31326666Y-11436048D02*
X31375047Y-11387667D01*
X31471809Y-11339286D01*
X31616951Y-11339286D01*
X31713713Y-11387667D01*
X31762094Y-11484429D01*
X31762094Y-12016619D01*
X31762094Y-11484429D02*
X31810475Y-11387667D01*
X31907237Y-11339286D01*
X32052380Y-11339286D01*
X32149142Y-11387667D01*
X32197523Y-11484429D01*
X32197523Y-12016619D01*
X32826476Y-12016619D02*
X32729714Y-11968238D01*
X32681333Y-11871476D01*
X32681333Y-11000619D01*
X2993571Y-14677571D02*
X2933095Y-14738048D01*
X2751666Y-14798524D01*
X2630714Y-14798524D01*
X2449286Y-14738048D01*
X2328333Y-14617095D01*
X2267857Y-14496143D01*
X2207381Y-14254238D01*
X2207381Y-14072810D01*
X2267857Y-13830905D01*
X2328333Y-13709952D01*
X2449286Y-13589000D01*
X2630714Y-13528524D01*
X2751666Y-13528524D01*
X2933095Y-13589000D01*
X2993571Y-13649476D01*
X3719286Y-14798524D02*
X3598333Y-14738048D01*
X3537857Y-14677571D01*
X3477381Y-14556619D01*
X3477381Y-14193762D01*
X3537857Y-14072810D01*
X3598333Y-14012333D01*
X3719286Y-13951857D01*
X3900714Y-13951857D01*
X4021666Y-14012333D01*
X4082143Y-14072810D01*
X4142619Y-14193762D01*
X4142619Y-14556619D01*
X4082143Y-14677571D01*
X4021666Y-14738048D01*
X3900714Y-14798524D01*
X3719286Y-14798524D01*
X4686905Y-13951857D02*
X4686905Y-15221857D01*
X4686905Y-14012333D02*
X4807857Y-13951857D01*
X5049762Y-13951857D01*
X5170714Y-14012333D01*
X5231191Y-14072810D01*
X5291667Y-14193762D01*
X5291667Y-14556619D01*
X5231191Y-14677571D01*
X5170714Y-14738048D01*
X5049762Y-14798524D01*
X4807857Y-14798524D01*
X4686905Y-14738048D01*
X5715001Y-13951857D02*
X6017382Y-14798524D01*
X6319762Y-13951857D02*
X6017382Y-14798524D01*
X5896429Y-15100905D01*
X5835953Y-15161381D01*
X5715001Y-15221857D01*
X6803572Y-14798524D02*
X6803572Y-13951857D01*
X6803572Y-14193762D02*
X6864048Y-14072810D01*
X6924524Y-14012333D01*
X7045477Y-13951857D01*
X7166429Y-13951857D01*
X7589762Y-14798524D02*
X7589762Y-13951857D01*
X7589762Y-13528524D02*
X7529286Y-13589000D01*
X7589762Y-13649476D01*
X7650238Y-13589000D01*
X7589762Y-13528524D01*
X7589762Y-13649476D01*
X8738810Y-13951857D02*
X8738810Y-14979952D01*
X8678333Y-15100905D01*
X8617857Y-15161381D01*
X8496905Y-15221857D01*
X8315476Y-15221857D01*
X8194524Y-15161381D01*
X8738810Y-14738048D02*
X8617857Y-14798524D01*
X8375953Y-14798524D01*
X8255000Y-14738048D01*
X8194524Y-14677571D01*
X8134048Y-14556619D01*
X8134048Y-14193762D01*
X8194524Y-14072810D01*
X8255000Y-14012333D01*
X8375953Y-13951857D01*
X8617857Y-13951857D01*
X8738810Y-14012333D01*
X9343572Y-14798524D02*
X9343572Y-13528524D01*
X9887858Y-14798524D02*
X9887858Y-14133286D01*
X9827381Y-14012333D01*
X9706429Y-13951857D01*
X9525001Y-13951857D01*
X9404048Y-14012333D01*
X9343572Y-14072810D01*
X10311191Y-13951857D02*
X10795001Y-13951857D01*
X10492620Y-13528524D02*
X10492620Y-14617095D01*
X10553096Y-14738048D01*
X10674049Y-14798524D01*
X10795001Y-14798524D01*
X13214048Y-13830905D02*
X13093096Y-13770429D01*
X12851191Y-13770429D01*
X12730239Y-13830905D01*
X12609286Y-13951857D01*
X12548810Y-14072810D01*
X12548810Y-14314714D01*
X12609286Y-14435667D01*
X12730239Y-14556619D01*
X12851191Y-14617095D01*
X13093096Y-14617095D01*
X13214048Y-14556619D01*
X12972143Y-13347095D02*
X12669762Y-13407571D01*
X12367382Y-13589000D01*
X12185953Y-13891381D01*
X12125477Y-14193762D01*
X12185953Y-14496143D01*
X12367382Y-14798524D01*
X12669762Y-14979952D01*
X12972143Y-15040429D01*
X13274524Y-14979952D01*
X13576905Y-14798524D01*
X13758334Y-14496143D01*
X13818810Y-14193762D01*
X13758334Y-13891381D01*
X13576905Y-13589000D01*
X13274524Y-13407571D01*
X12972143Y-13347095D01*
X15270239Y-13649476D02*
X15330715Y-13589000D01*
X15451667Y-13528524D01*
X15754048Y-13528524D01*
X15875001Y-13589000D01*
X15935477Y-13649476D01*
X15995953Y-13770429D01*
X15995953Y-13891381D01*
X15935477Y-14072810D01*
X15209763Y-14798524D01*
X15995953Y-14798524D01*
X16782144Y-13528524D02*
X16903096Y-13528524D01*
X17024048Y-13589000D01*
X17084525Y-13649476D01*
X17145001Y-13770429D01*
X17205477Y-14012333D01*
X17205477Y-14314714D01*
X17145001Y-14556619D01*
X17084525Y-14677571D01*
X17024048Y-14738048D01*
X16903096Y-14798524D01*
X16782144Y-14798524D01*
X16661191Y-14738048D01*
X16600715Y-14677571D01*
X16540239Y-14556619D01*
X16479763Y-14314714D01*
X16479763Y-14012333D01*
X16540239Y-13770429D01*
X16600715Y-13649476D01*
X16661191Y-13589000D01*
X16782144Y-13528524D01*
X18415001Y-14798524D02*
X17689287Y-14798524D01*
X18052144Y-14798524D02*
X18052144Y-13528524D01*
X17931192Y-13709952D01*
X17810239Y-13830905D01*
X17689287Y-13891381D01*
X19019763Y-14798524D02*
X19261668Y-14798524D01*
X19382620Y-14738048D01*
X19443096Y-14677571D01*
X19564049Y-14496143D01*
X19624525Y-14254238D01*
X19624525Y-13770429D01*
X19564049Y-13649476D01*
X19503573Y-13589000D01*
X19382620Y-13528524D01*
X19140716Y-13528524D01*
X19019763Y-13589000D01*
X18959287Y-13649476D01*
X18898811Y-13770429D01*
X18898811Y-14072810D01*
X18959287Y-14193762D01*
X19019763Y-14254238D01*
X19140716Y-14314714D01*
X19382620Y-14314714D01*
X19503573Y-14254238D01*
X19564049Y-14193762D01*
X19624525Y-14072810D01*
X21136430Y-14798524D02*
X21136430Y-13528524D01*
X21257382Y-14314714D02*
X21620239Y-14798524D01*
X21620239Y-13951857D02*
X21136430Y-14435667D01*
X22043573Y-13951857D02*
X22285477Y-14798524D01*
X22527382Y-14193762D01*
X22769287Y-14798524D01*
X23011192Y-13951857D01*
X23978810Y-14738048D02*
X23857858Y-14798524D01*
X23615953Y-14798524D01*
X23495001Y-14738048D01*
X23434525Y-14617095D01*
X23434525Y-14133286D01*
X23495001Y-14012333D01*
X23615953Y-13951857D01*
X23857858Y-13951857D01*
X23978810Y-14012333D01*
X24039287Y-14133286D01*
X24039287Y-14254238D01*
X23434525Y-14375190D01*
X24583572Y-13951857D02*
X24583572Y-14798524D01*
X24583572Y-14072810D02*
X24644048Y-14012333D01*
X24765001Y-13951857D01*
X24946429Y-13951857D01*
X25067381Y-14012333D01*
X25127858Y-14133286D01*
X25127858Y-14798524D01*
X26276906Y-14798524D02*
X26276906Y-13528524D01*
X26276906Y-14738048D02*
X26155953Y-14798524D01*
X25914049Y-14798524D01*
X25793096Y-14738048D01*
X25732620Y-14677571D01*
X25672144Y-14556619D01*
X25672144Y-14193762D01*
X25732620Y-14072810D01*
X25793096Y-14012333D01*
X25914049Y-13951857D01*
X26155953Y-13951857D01*
X26276906Y-14012333D01*
X27365477Y-14738048D02*
X27244525Y-14798524D01*
X27002620Y-14798524D01*
X26881668Y-14738048D01*
X26821192Y-14617095D01*
X26821192Y-14133286D01*
X26881668Y-14012333D01*
X27002620Y-13951857D01*
X27244525Y-13951857D01*
X27365477Y-14012333D01*
X27425954Y-14133286D01*
X27425954Y-14254238D01*
X26821192Y-14375190D01*
X27970239Y-13951857D02*
X27970239Y-14798524D01*
X27970239Y-14072810D02*
X28030715Y-14012333D01*
X28151668Y-13951857D01*
X28333096Y-13951857D01*
X28454048Y-14012333D01*
X28514525Y-14133286D01*
X28514525Y-14798524D01*
X29663573Y-14798524D02*
X29663573Y-14133286D01*
X29603096Y-14012333D01*
X29482144Y-13951857D01*
X29240239Y-13951857D01*
X29119287Y-14012333D01*
X29663573Y-14738048D02*
X29542620Y-14798524D01*
X29240239Y-14798524D01*
X29119287Y-14738048D01*
X29058811Y-14617095D01*
X29058811Y-14496143D01*
X29119287Y-14375190D01*
X29240239Y-14314714D01*
X29542620Y-14314714D01*
X29663573Y-14254238D01*
X30268335Y-14798524D02*
X30268335Y-13951857D01*
X30268335Y-14193762D02*
X30328811Y-14072810D01*
X30389287Y-14012333D01*
X30510240Y-13951857D01*
X30631192Y-13951857D01*
X31054525Y-14798524D02*
X31054525Y-13951857D01*
X31054525Y-14072810D02*
X31115001Y-14012333D01*
X31235954Y-13951857D01*
X31417382Y-13951857D01*
X31538334Y-14012333D01*
X31598811Y-14133286D01*
X31598811Y-14798524D01*
X31598811Y-14133286D02*
X31659287Y-14012333D01*
X31780239Y-13951857D01*
X31961668Y-13951857D01*
X32082620Y-14012333D01*
X32143096Y-14133286D01*
X32143096Y-14798524D01*
X32929287Y-14798524D02*
X32808334Y-14738048D01*
X32747858Y-14677571D01*
X32687382Y-14556619D01*
X32687382Y-14193762D01*
X32747858Y-14072810D01*
X32808334Y-14012333D01*
X32929287Y-13951857D01*
X33110715Y-13951857D01*
X33231667Y-14012333D01*
X33292144Y-14072810D01*
X33352620Y-14193762D01*
X33352620Y-14556619D01*
X33292144Y-14677571D01*
X33231667Y-14738048D01*
X33110715Y-14798524D01*
X32929287Y-14798524D01*
D13*
X99246000Y-17630000D02*
X99246000Y-9930000D01*
X100246000Y-17630000D02*
X100246000Y-9930000D01*
X100246000Y-9930000D02*
X91046000Y-9930000D01*
X91046000Y-9930000D02*
X91046000Y-17630000D01*
X91046000Y-17630000D02*
X100246000Y-17630000D01*
X86368000Y-21742000D02*
X87368000Y-21742000D01*
X87368000Y-20042000D02*
X86368000Y-20042000D01*
X67686000Y-56966000D02*
X70576000Y-56966000D01*
X76586000Y-56966000D02*
X73696000Y-56966000D01*
X77346000Y-46546000D02*
X73696000Y-46546000D01*
X66926000Y-46546000D02*
X70576000Y-46546000D01*
X77346000Y-46546000D02*
X77346000Y-56206000D01*
X77346000Y-56206000D02*
X76586000Y-56966000D01*
X67686000Y-56966000D02*
X66926000Y-56206000D01*
X66926000Y-56206000D02*
X66926000Y-46546000D01*
X77890000Y-54304000D02*
X77890000Y-55304000D01*
X79590000Y-55304000D02*
X79590000Y-54304000D01*
X82796000Y-6770000D02*
X81796000Y-6770000D01*
X81796000Y-8470000D02*
X82796000Y-8470000D01*
X87034000Y-54304000D02*
X87034000Y-55304000D01*
X88734000Y-55304000D02*
X88734000Y-54304000D01*
X78240000Y-8470000D02*
X79240000Y-8470000D01*
X79240000Y-6770000D02*
X78240000Y-6770000D01*
X77716000Y-19470000D02*
X76716000Y-19470000D01*
X76716000Y-21170000D02*
X77716000Y-21170000D01*
X70112000Y-15646000D02*
X71112000Y-15646000D01*
X71112000Y-13946000D02*
X70112000Y-13946000D01*
X50792000Y-12104000D02*
X49792000Y-12104000D01*
X49792000Y-13804000D02*
X50792000Y-13804000D01*
X50030000Y-25566000D02*
X49030000Y-25566000D01*
X49030000Y-27266000D02*
X50030000Y-27266000D01*
X77462000Y-27408000D02*
X76462000Y-27408000D01*
X76462000Y-29108000D02*
X77462000Y-29108000D01*
X45712000Y-11850000D02*
X44712000Y-11850000D01*
X44712000Y-13550000D02*
X45712000Y-13550000D01*
X15914000Y-23316000D02*
X15914000Y-24316000D01*
X17614000Y-24316000D02*
X17614000Y-23316000D01*
X2198000Y-23316000D02*
X2198000Y-24316000D01*
X3898000Y-24316000D02*
X3898000Y-23316000D01*
X35568000Y-13550000D02*
X36568000Y-13550000D01*
X36568000Y-11850000D02*
X35568000Y-11850000D01*
X66232000Y-48940000D02*
X64832000Y-48940000D01*
X64832000Y-48940000D02*
X64832000Y-51740000D01*
X66232000Y-48940000D02*
X66232000Y-51740000D01*
X82274000Y-35876000D02*
X82274000Y-37276000D01*
X82274000Y-37276000D02*
X85074000Y-37276000D01*
X82274000Y-35876000D02*
X85074000Y-35876000D01*
X82274000Y-33844000D02*
X82274000Y-35244000D01*
X82274000Y-35244000D02*
X85074000Y-35244000D01*
X82274000Y-33844000D02*
X85074000Y-33844000D01*
X82274000Y-31812000D02*
X82274000Y-33212000D01*
X82274000Y-33212000D02*
X85074000Y-33212000D01*
X82274000Y-31812000D02*
X85074000Y-31812000D01*
X82274000Y-29780000D02*
X82274000Y-31180000D01*
X82274000Y-31180000D02*
X85074000Y-31180000D01*
X82274000Y-29780000D02*
X85074000Y-29780000D01*
X82274000Y-27748000D02*
X82274000Y-29148000D01*
X82274000Y-29148000D02*
X85074000Y-29148000D01*
X82274000Y-27748000D02*
X85074000Y-27748000D01*
X82274000Y-25716000D02*
X82274000Y-27116000D01*
X82274000Y-27116000D02*
X85074000Y-27116000D01*
X82274000Y-25716000D02*
X85074000Y-25716000D01*
X82274000Y-23684000D02*
X82274000Y-25084000D01*
X82274000Y-25084000D02*
X85074000Y-25084000D01*
X82274000Y-23684000D02*
X85074000Y-23684000D01*
X63770000Y-37381000D02*
X40370000Y-37381000D01*
X40370000Y-37381000D02*
X40370000Y-28031000D01*
X40370000Y-28031000D02*
X63770000Y-28031000D01*
X63770000Y-28031000D02*
X63770000Y-37381000D01*
X64020000Y-27781000D02*
X61480000Y-27781000D01*
X64020000Y-27781000D02*
X64020000Y-30321000D01*
X28599000Y-36786000D02*
X28599000Y-21006000D01*
X28599000Y-21006000D02*
X37949000Y-21006000D01*
X37949000Y-21006000D02*
X37949000Y-36786000D01*
X37949000Y-36786000D02*
X28599000Y-36786000D01*
X38199000Y-37036000D02*
X38199000Y-34496000D01*
X38199000Y-37036000D02*
X35659000Y-37036000D01*
X69848000Y-43684000D02*
X69848000Y-42754000D01*
X69848000Y-40524000D02*
X69848000Y-41454000D01*
X69848000Y-40524000D02*
X67688000Y-40524000D01*
X69848000Y-43684000D02*
X68388000Y-43684000D01*
X87004000Y-17936000D02*
X87004000Y-16736000D01*
X88764000Y-16736000D02*
X88764000Y-17936000D01*
X84972000Y-17936000D02*
X84972000Y-16736000D01*
X86732000Y-16736000D02*
X86732000Y-17936000D01*
X66412000Y-54712000D02*
X66412000Y-55912000D01*
X64652000Y-55912000D02*
X64652000Y-54712000D01*
X89246000Y-37456000D02*
X88046000Y-37456000D01*
X88046000Y-35696000D02*
X89246000Y-35696000D01*
X89246000Y-35424000D02*
X88046000Y-35424000D01*
X88046000Y-33664000D02*
X89246000Y-33664000D01*
X89246000Y-33392000D02*
X88046000Y-33392000D01*
X88046000Y-31632000D02*
X89246000Y-31632000D01*
X89246000Y-31360000D02*
X88046000Y-31360000D01*
X88046000Y-29600000D02*
X89246000Y-29600000D01*
X89246000Y-29328000D02*
X88046000Y-29328000D01*
X88046000Y-27568000D02*
X89246000Y-27568000D01*
X71256000Y-42704000D02*
X71256000Y-41504000D01*
X73016000Y-41504000D02*
X73016000Y-42704000D01*
X66412000Y-40488000D02*
X66412000Y-41688000D01*
X64652000Y-41688000D02*
X64652000Y-40488000D01*
X87004000Y-42704000D02*
X87004000Y-41504000D01*
X88764000Y-41504000D02*
X88764000Y-42704000D01*
X64652000Y-46768000D02*
X64652000Y-45568000D01*
X66412000Y-45568000D02*
X66412000Y-46768000D01*
X88046000Y-25536000D02*
X89246000Y-25536000D01*
X89246000Y-27296000D02*
X88046000Y-27296000D01*
X88046000Y-23504000D02*
X89246000Y-23504000D01*
X89246000Y-25264000D02*
X88046000Y-25264000D01*
X70222000Y-30706000D02*
X70222000Y-31906000D01*
X68462000Y-31906000D02*
X68462000Y-30706000D01*
X72254000Y-30706000D02*
X72254000Y-31906000D01*
X70494000Y-31906000D02*
X70494000Y-30706000D01*
X70012000Y-16456000D02*
X71212000Y-16456000D01*
X71212000Y-18216000D02*
X70012000Y-18216000D01*
X40040000Y-11820000D02*
X41240000Y-11820000D01*
X41240000Y-13580000D02*
X40040000Y-13580000D01*
X20692000Y-28804000D02*
X20692000Y-30004000D01*
X18932000Y-30004000D02*
X18932000Y-28804000D01*
X22724000Y-28804000D02*
X22724000Y-30004000D01*
X20964000Y-30004000D02*
X20964000Y-28804000D01*
X24756000Y-28804000D02*
X24756000Y-30004000D01*
X22996000Y-30004000D02*
X22996000Y-28804000D01*
X26788000Y-28804000D02*
X26788000Y-30004000D01*
X25028000Y-30004000D02*
X25028000Y-28804000D01*
X4436000Y-28804000D02*
X4436000Y-30004000D01*
X2676000Y-30004000D02*
X2676000Y-28804000D01*
X6468000Y-28804000D02*
X6468000Y-30004000D01*
X4708000Y-30004000D02*
X4708000Y-28804000D01*
X8500000Y-28804000D02*
X8500000Y-30004000D01*
X6740000Y-30004000D02*
X6740000Y-28804000D01*
X10532000Y-28804000D02*
X10532000Y-30004000D01*
X8772000Y-30004000D02*
X8772000Y-28804000D01*
X12564000Y-28804000D02*
X12564000Y-30004000D01*
X10804000Y-30004000D02*
X10804000Y-28804000D01*
X14596000Y-28804000D02*
X14596000Y-30004000D01*
X12836000Y-30004000D02*
X12836000Y-28804000D01*
X16628000Y-28804000D02*
X16628000Y-30004000D01*
X14868000Y-30004000D02*
X14868000Y-28804000D01*
X18660000Y-28804000D02*
X18660000Y-30004000D01*
X16900000Y-30004000D02*
X16900000Y-28804000D01*
D14*
X73415000Y-16655000D02*
X73990000Y-16655000D01*
X73415000Y-10905000D02*
X74065000Y-10905000D01*
X84065000Y-10905000D02*
X83415000Y-10905000D01*
X84065000Y-16655000D02*
X83415000Y-16655000D01*
X73415000Y-16655000D02*
X73415000Y-10905000D01*
X84065000Y-16655000D02*
X84065000Y-10905000D01*
X73990000Y-16655000D02*
X73990000Y-18255000D01*
X54425000Y-16187000D02*
X54200000Y-16187000D01*
X54425000Y-23437000D02*
X54100000Y-23437000D01*
X47175000Y-23437000D02*
X47500000Y-23437000D01*
X47175000Y-16187000D02*
X47500000Y-16187000D01*
X54425000Y-16187000D02*
X54425000Y-16512000D01*
X47175000Y-16187000D02*
X47175000Y-16512000D01*
X47175000Y-23437000D02*
X47175000Y-23112000D01*
X54425000Y-23437000D02*
X54425000Y-23112000D01*
X54200000Y-16187000D02*
X54200000Y-14762000D01*
D13*
X46540000Y-6086000D02*
X33940000Y-6086000D01*
X33940000Y-6086000D02*
X33940000Y-11186000D01*
X33940000Y-11186000D02*
X46540000Y-11186000D01*
D15*
G36*
X18335814Y-2040931D02*
X18419635Y-2485555D01*
X18728920Y-2613053D01*
X19038206Y-2740551D01*
X19409246Y-2488246D01*
X19513157Y-2417996D01*
X19607087Y-2355272D01*
X19686652Y-2302938D01*
X19747470Y-2263857D01*
X19785157Y-2240893D01*
X19795421Y-2235942D01*
X19813910Y-2248676D01*
X19853420Y-2283882D01*
X19909522Y-2337062D01*
X19977787Y-2403718D01*
X20053786Y-2479354D01*
X20133092Y-2559472D01*
X20211275Y-2639574D01*
X20283907Y-2715164D01*
X20346559Y-2781745D01*
X20394803Y-2834818D01*
X20424210Y-2869887D01*
X20431241Y-2881623D01*
X20421123Y-2903260D01*
X20392759Y-2950662D01*
X20349129Y-3019193D01*
X20293218Y-3104215D01*
X20228006Y-3201093D01*
X20190219Y-3256350D01*
X20121343Y-3357248D01*
X20060140Y-3448299D01*
X20009578Y-3524970D01*
X19972628Y-3582728D01*
X19952258Y-3617043D01*
X19949197Y-3624254D01*
X19956136Y-3644748D01*
X19975051Y-3692513D01*
X20003087Y-3760832D01*
X20037391Y-3842989D01*
X20075109Y-3932270D01*
X20113387Y-4021958D01*
X20149370Y-4105338D01*
X20180206Y-4175694D01*
X20203039Y-4226310D01*
X20215017Y-4250471D01*
X20215724Y-4251422D01*
X20234531Y-4256036D01*
X20284618Y-4266328D01*
X20360793Y-4281287D01*
X20457865Y-4299901D01*
X20570643Y-4321159D01*
X20636442Y-4333418D01*
X20756950Y-4356362D01*
X20865797Y-4378195D01*
X20957476Y-4397722D01*
X21026481Y-4413748D01*
X21067304Y-4425079D01*
X21075511Y-4428674D01*
X21083548Y-4453006D01*
X21090033Y-4507959D01*
X21094970Y-4587108D01*
X21098364Y-4684026D01*
X21100218Y-4792287D01*
X21100538Y-4905465D01*
X21099327Y-5017135D01*
X21096590Y-5120868D01*
X21092331Y-5210241D01*
X21086555Y-5278826D01*
X21079267Y-5320197D01*
X21074895Y-5328810D01*
X21048764Y-5339133D01*
X20993393Y-5353892D01*
X20916107Y-5371352D01*
X20824230Y-5389780D01*
X20792158Y-5395741D01*
X20637524Y-5424066D01*
X20515375Y-5446876D01*
X20421673Y-5465080D01*
X20352384Y-5479583D01*
X20303471Y-5491292D01*
X20270897Y-5501115D01*
X20250628Y-5509956D01*
X20238626Y-5518724D01*
X20236947Y-5520457D01*
X20220184Y-5548371D01*
X20194614Y-5602695D01*
X20162788Y-5676777D01*
X20127260Y-5763965D01*
X20090583Y-5857608D01*
X20055311Y-5951052D01*
X20023996Y-6037647D01*
X19999193Y-6110740D01*
X19983454Y-6163678D01*
X19979332Y-6189811D01*
X19979676Y-6190726D01*
X19993641Y-6212086D01*
X20025322Y-6259084D01*
X20071391Y-6326827D01*
X20128518Y-6410423D01*
X20193373Y-6504982D01*
X20211843Y-6531854D01*
X20277699Y-6629275D01*
X20335650Y-6718163D01*
X20382538Y-6793412D01*
X20415207Y-6849920D01*
X20430500Y-6882581D01*
X20431241Y-6886593D01*
X20418392Y-6907684D01*
X20382888Y-6949464D01*
X20329293Y-7007445D01*
X20262171Y-7077135D01*
X20186087Y-7154045D01*
X20105604Y-7233683D01*
X20025287Y-7311561D01*
X19949699Y-7383186D01*
X19883405Y-7444070D01*
X19830969Y-7489721D01*
X19796955Y-7515650D01*
X19787545Y-7519883D01*
X19765643Y-7509912D01*
X19720800Y-7483020D01*
X19660321Y-7443736D01*
X19613789Y-7412117D01*
X19529475Y-7354098D01*
X19429626Y-7285784D01*
X19329473Y-7217579D01*
X19275627Y-7181075D01*
X19093371Y-7057800D01*
X18940381Y-7140520D01*
X18870682Y-7176759D01*
X18811414Y-7204926D01*
X18771311Y-7220991D01*
X18761103Y-7223226D01*
X18748829Y-7206722D01*
X18724613Y-7160082D01*
X18690263Y-7087609D01*
X18647588Y-6993606D01*
X18598394Y-6882374D01*
X18544490Y-6758215D01*
X18487684Y-6625432D01*
X18429782Y-6488327D01*
X18372593Y-6351202D01*
X18317924Y-6218358D01*
X18267584Y-6094098D01*
X18223380Y-5982725D01*
X18187119Y-5888539D01*
X18160609Y-5815844D01*
X18145658Y-5768941D01*
X18143254Y-5752833D01*
X18162311Y-5732286D01*
X18204036Y-5698933D01*
X18259706Y-5659702D01*
X18264378Y-5656599D01*
X18408264Y-5541423D01*
X18524283Y-5407053D01*
X18611430Y-5257784D01*
X18668699Y-5097913D01*
X18695086Y-4931737D01*
X18689585Y-4763552D01*
X18651190Y-4597655D01*
X18578895Y-4438342D01*
X18557626Y-4403487D01*
X18446996Y-4262737D01*
X18316302Y-4149714D01*
X18170064Y-4065003D01*
X18012808Y-4009194D01*
X17849057Y-3982874D01*
X17683333Y-3986630D01*
X17520162Y-4021050D01*
X17364065Y-4086723D01*
X17219567Y-4184235D01*
X17174869Y-4223813D01*
X17061112Y-4347703D01*
X16978218Y-4478124D01*
X16921356Y-4624315D01*
X16889687Y-4769088D01*
X16881869Y-4931860D01*
X16907938Y-5095440D01*
X16965245Y-5254298D01*
X17051144Y-5402906D01*
X17162986Y-5535735D01*
X17298123Y-5647256D01*
X17315883Y-5659011D01*
X17372150Y-5697508D01*
X17414923Y-5730863D01*
X17435372Y-5752160D01*
X17435669Y-5752833D01*
X17431279Y-5775871D01*
X17413876Y-5828157D01*
X17385268Y-5905390D01*
X17347265Y-6003268D01*
X17301674Y-6117491D01*
X17250303Y-6243758D01*
X17194962Y-6377767D01*
X17137458Y-6515218D01*
X17079601Y-6651808D01*
X17023198Y-6783237D01*
X16970058Y-6905205D01*
X16921990Y-7013409D01*
X16880801Y-7103549D01*
X16848301Y-7171323D01*
X16826297Y-7212430D01*
X16817436Y-7223226D01*
X16790360Y-7214819D01*
X16739697Y-7192272D01*
X16674183Y-7159613D01*
X16638159Y-7140520D01*
X16485168Y-7057800D01*
X16302912Y-7181075D01*
X16209875Y-7244228D01*
X16108015Y-7313727D01*
X16012562Y-7379165D01*
X15964750Y-7412117D01*
X15897505Y-7457273D01*
X15840564Y-7493057D01*
X15801354Y-7514938D01*
X15788619Y-7519563D01*
X15770083Y-7507085D01*
X15729059Y-7472252D01*
X15669525Y-7418678D01*
X15595458Y-7349983D01*
X15510835Y-7269781D01*
X15457315Y-7218286D01*
X15363681Y-7126286D01*
X15282759Y-7043999D01*
X15217823Y-6974945D01*
X15172142Y-6922644D01*
X15148989Y-6890616D01*
X15146768Y-6884116D01*
X15157076Y-6859394D01*
X15185561Y-6809405D01*
X15229063Y-6739212D01*
X15284423Y-6653875D01*
X15348480Y-6558456D01*
X15366697Y-6531854D01*
X15433073Y-6435167D01*
X15492622Y-6348117D01*
X15542016Y-6275595D01*
X15577925Y-6222493D01*
X15597019Y-6193703D01*
X15598864Y-6190726D01*
X15596105Y-6167782D01*
X15581462Y-6117336D01*
X15557487Y-6046041D01*
X15526734Y-5960547D01*
X15491756Y-5867507D01*
X15455107Y-5773574D01*
X15419339Y-5685399D01*
X15387006Y-5609634D01*
X15360662Y-5552931D01*
X15342858Y-5521943D01*
X15341593Y-5520457D01*
X15330706Y-5511601D01*
X15312318Y-5502843D01*
X15282394Y-5493277D01*
X15236897Y-5481996D01*
X15171791Y-5468093D01*
X15083039Y-5450663D01*
X14966607Y-5428798D01*
X14818458Y-5401591D01*
X14786382Y-5395741D01*
X14691314Y-5377374D01*
X14608435Y-5359405D01*
X14545070Y-5343569D01*
X14508542Y-5331600D01*
X14503644Y-5328810D01*
X14495573Y-5304072D01*
X14489013Y-5248790D01*
X14483967Y-5169389D01*
X14480441Y-5072296D01*
X14478439Y-4963938D01*
X14477964Y-4850740D01*
X14479023Y-4739128D01*
X14481618Y-4635529D01*
X14485754Y-4546368D01*
X14491437Y-4478072D01*
X14498669Y-4437066D01*
X14503029Y-4428674D01*
X14527302Y-4420208D01*
X14582574Y-4406435D01*
X14663338Y-4388550D01*
X14764088Y-4367748D01*
X14879317Y-4345223D01*
X14942098Y-4333418D01*
X15061213Y-4311151D01*
X15167435Y-4290979D01*
X15255573Y-4273915D01*
X15320434Y-4260969D01*
X15356826Y-4253155D01*
X15362816Y-4251422D01*
X15372939Y-4231890D01*
X15394338Y-4184843D01*
X15424161Y-4117003D01*
X15459555Y-4035091D01*
X15497668Y-3945828D01*
X15535647Y-3855935D01*
X15570640Y-3772135D01*
X15599794Y-3701147D01*
X15620257Y-3649694D01*
X15629177Y-3624497D01*
X15629343Y-3623396D01*
X15619231Y-3603519D01*
X15590883Y-3557777D01*
X15547277Y-3490717D01*
X15491394Y-3406884D01*
X15426213Y-3310826D01*
X15388321Y-3255650D01*
X15319275Y-3154481D01*
X15257950Y-3062630D01*
X15207337Y-2984744D01*
X15170429Y-2925469D01*
X15150218Y-2889451D01*
X15147299Y-2881377D01*
X15159847Y-2862584D01*
X15194537Y-2822457D01*
X15246937Y-2765493D01*
X15312616Y-2696185D01*
X15387144Y-2619031D01*
X15466087Y-2538525D01*
X15545017Y-2459163D01*
X15619500Y-2385440D01*
X15685106Y-2321852D01*
X15737404Y-2272894D01*
X15771961Y-2243061D01*
X15783522Y-2235942D01*
X15802346Y-2245953D01*
X15847369Y-2274078D01*
X15914213Y-2317454D01*
X15998501Y-2373218D01*
X16095856Y-2438506D01*
X16169293Y-2488246D01*
X16540333Y-2740551D01*
X17158905Y-2485555D01*
X17242725Y-2040931D01*
X17326546Y-1596307D01*
X18251994Y-1596307D01*
X18335814Y-2040931D01*
X18335814Y-2040931D01*
G37*
X18335814Y-2040931D02*
X18419635Y-2485555D01*
X18728920Y-2613053D01*
X19038206Y-2740551D01*
X19409246Y-2488246D01*
X19513157Y-2417996D01*
X19607087Y-2355272D01*
X19686652Y-2302938D01*
X19747470Y-2263857D01*
X19785157Y-2240893D01*
X19795421Y-2235942D01*
X19813910Y-2248676D01*
X19853420Y-2283882D01*
X19909522Y-2337062D01*
X19977787Y-2403718D01*
X20053786Y-2479354D01*
X20133092Y-2559472D01*
X20211275Y-2639574D01*
X20283907Y-2715164D01*
X20346559Y-2781745D01*
X20394803Y-2834818D01*
X20424210Y-2869887D01*
X20431241Y-2881623D01*
X20421123Y-2903260D01*
X20392759Y-2950662D01*
X20349129Y-3019193D01*
X20293218Y-3104215D01*
X20228006Y-3201093D01*
X20190219Y-3256350D01*
X20121343Y-3357248D01*
X20060140Y-3448299D01*
X20009578Y-3524970D01*
X19972628Y-3582728D01*
X19952258Y-3617043D01*
X19949197Y-3624254D01*
X19956136Y-3644748D01*
X19975051Y-3692513D01*
X20003087Y-3760832D01*
X20037391Y-3842989D01*
X20075109Y-3932270D01*
X20113387Y-4021958D01*
X20149370Y-4105338D01*
X20180206Y-4175694D01*
X20203039Y-4226310D01*
X20215017Y-4250471D01*
X20215724Y-4251422D01*
X20234531Y-4256036D01*
X20284618Y-4266328D01*
X20360793Y-4281287D01*
X20457865Y-4299901D01*
X20570643Y-4321159D01*
X20636442Y-4333418D01*
X20756950Y-4356362D01*
X20865797Y-4378195D01*
X20957476Y-4397722D01*
X21026481Y-4413748D01*
X21067304Y-4425079D01*
X21075511Y-4428674D01*
X21083548Y-4453006D01*
X21090033Y-4507959D01*
X21094970Y-4587108D01*
X21098364Y-4684026D01*
X21100218Y-4792287D01*
X21100538Y-4905465D01*
X21099327Y-5017135D01*
X21096590Y-5120868D01*
X21092331Y-5210241D01*
X21086555Y-5278826D01*
X21079267Y-5320197D01*
X21074895Y-5328810D01*
X21048764Y-5339133D01*
X20993393Y-5353892D01*
X20916107Y-5371352D01*
X20824230Y-5389780D01*
X20792158Y-5395741D01*
X20637524Y-5424066D01*
X20515375Y-5446876D01*
X20421673Y-5465080D01*
X20352384Y-5479583D01*
X20303471Y-5491292D01*
X20270897Y-5501115D01*
X20250628Y-5509956D01*
X20238626Y-5518724D01*
X20236947Y-5520457D01*
X20220184Y-5548371D01*
X20194614Y-5602695D01*
X20162788Y-5676777D01*
X20127260Y-5763965D01*
X20090583Y-5857608D01*
X20055311Y-5951052D01*
X20023996Y-6037647D01*
X19999193Y-6110740D01*
X19983454Y-6163678D01*
X19979332Y-6189811D01*
X19979676Y-6190726D01*
X19993641Y-6212086D01*
X20025322Y-6259084D01*
X20071391Y-6326827D01*
X20128518Y-6410423D01*
X20193373Y-6504982D01*
X20211843Y-6531854D01*
X20277699Y-6629275D01*
X20335650Y-6718163D01*
X20382538Y-6793412D01*
X20415207Y-6849920D01*
X20430500Y-6882581D01*
X20431241Y-6886593D01*
X20418392Y-6907684D01*
X20382888Y-6949464D01*
X20329293Y-7007445D01*
X20262171Y-7077135D01*
X20186087Y-7154045D01*
X20105604Y-7233683D01*
X20025287Y-7311561D01*
X19949699Y-7383186D01*
X19883405Y-7444070D01*
X19830969Y-7489721D01*
X19796955Y-7515650D01*
X19787545Y-7519883D01*
X19765643Y-7509912D01*
X19720800Y-7483020D01*
X19660321Y-7443736D01*
X19613789Y-7412117D01*
X19529475Y-7354098D01*
X19429626Y-7285784D01*
X19329473Y-7217579D01*
X19275627Y-7181075D01*
X19093371Y-7057800D01*
X18940381Y-7140520D01*
X18870682Y-7176759D01*
X18811414Y-7204926D01*
X18771311Y-7220991D01*
X18761103Y-7223226D01*
X18748829Y-7206722D01*
X18724613Y-7160082D01*
X18690263Y-7087609D01*
X18647588Y-6993606D01*
X18598394Y-6882374D01*
X18544490Y-6758215D01*
X18487684Y-6625432D01*
X18429782Y-6488327D01*
X18372593Y-6351202D01*
X18317924Y-6218358D01*
X18267584Y-6094098D01*
X18223380Y-5982725D01*
X18187119Y-5888539D01*
X18160609Y-5815844D01*
X18145658Y-5768941D01*
X18143254Y-5752833D01*
X18162311Y-5732286D01*
X18204036Y-5698933D01*
X18259706Y-5659702D01*
X18264378Y-5656599D01*
X18408264Y-5541423D01*
X18524283Y-5407053D01*
X18611430Y-5257784D01*
X18668699Y-5097913D01*
X18695086Y-4931737D01*
X18689585Y-4763552D01*
X18651190Y-4597655D01*
X18578895Y-4438342D01*
X18557626Y-4403487D01*
X18446996Y-4262737D01*
X18316302Y-4149714D01*
X18170064Y-4065003D01*
X18012808Y-4009194D01*
X17849057Y-3982874D01*
X17683333Y-3986630D01*
X17520162Y-4021050D01*
X17364065Y-4086723D01*
X17219567Y-4184235D01*
X17174869Y-4223813D01*
X17061112Y-4347703D01*
X16978218Y-4478124D01*
X16921356Y-4624315D01*
X16889687Y-4769088D01*
X16881869Y-4931860D01*
X16907938Y-5095440D01*
X16965245Y-5254298D01*
X17051144Y-5402906D01*
X17162986Y-5535735D01*
X17298123Y-5647256D01*
X17315883Y-5659011D01*
X17372150Y-5697508D01*
X17414923Y-5730863D01*
X17435372Y-5752160D01*
X17435669Y-5752833D01*
X17431279Y-5775871D01*
X17413876Y-5828157D01*
X17385268Y-5905390D01*
X17347265Y-6003268D01*
X17301674Y-6117491D01*
X17250303Y-6243758D01*
X17194962Y-6377767D01*
X17137458Y-6515218D01*
X17079601Y-6651808D01*
X17023198Y-6783237D01*
X16970058Y-6905205D01*
X16921990Y-7013409D01*
X16880801Y-7103549D01*
X16848301Y-7171323D01*
X16826297Y-7212430D01*
X16817436Y-7223226D01*
X16790360Y-7214819D01*
X16739697Y-7192272D01*
X16674183Y-7159613D01*
X16638159Y-7140520D01*
X16485168Y-7057800D01*
X16302912Y-7181075D01*
X16209875Y-7244228D01*
X16108015Y-7313727D01*
X16012562Y-7379165D01*
X15964750Y-7412117D01*
X15897505Y-7457273D01*
X15840564Y-7493057D01*
X15801354Y-7514938D01*
X15788619Y-7519563D01*
X15770083Y-7507085D01*
X15729059Y-7472252D01*
X15669525Y-7418678D01*
X15595458Y-7349983D01*
X15510835Y-7269781D01*
X15457315Y-7218286D01*
X15363681Y-7126286D01*
X15282759Y-7043999D01*
X15217823Y-6974945D01*
X15172142Y-6922644D01*
X15148989Y-6890616D01*
X15146768Y-6884116D01*
X15157076Y-6859394D01*
X15185561Y-6809405D01*
X15229063Y-6739212D01*
X15284423Y-6653875D01*
X15348480Y-6558456D01*
X15366697Y-6531854D01*
X15433073Y-6435167D01*
X15492622Y-6348117D01*
X15542016Y-6275595D01*
X15577925Y-6222493D01*
X15597019Y-6193703D01*
X15598864Y-6190726D01*
X15596105Y-6167782D01*
X15581462Y-6117336D01*
X15557487Y-6046041D01*
X15526734Y-5960547D01*
X15491756Y-5867507D01*
X15455107Y-5773574D01*
X15419339Y-5685399D01*
X15387006Y-5609634D01*
X15360662Y-5552931D01*
X15342858Y-5521943D01*
X15341593Y-5520457D01*
X15330706Y-5511601D01*
X15312318Y-5502843D01*
X15282394Y-5493277D01*
X15236897Y-5481996D01*
X15171791Y-5468093D01*
X15083039Y-5450663D01*
X14966607Y-5428798D01*
X14818458Y-5401591D01*
X14786382Y-5395741D01*
X14691314Y-5377374D01*
X14608435Y-5359405D01*
X14545070Y-5343569D01*
X14508542Y-5331600D01*
X14503644Y-5328810D01*
X14495573Y-5304072D01*
X14489013Y-5248790D01*
X14483967Y-5169389D01*
X14480441Y-5072296D01*
X14478439Y-4963938D01*
X14477964Y-4850740D01*
X14479023Y-4739128D01*
X14481618Y-4635529D01*
X14485754Y-4546368D01*
X14491437Y-4478072D01*
X14498669Y-4437066D01*
X14503029Y-4428674D01*
X14527302Y-4420208D01*
X14582574Y-4406435D01*
X14663338Y-4388550D01*
X14764088Y-4367748D01*
X14879317Y-4345223D01*
X14942098Y-4333418D01*
X15061213Y-4311151D01*
X15167435Y-4290979D01*
X15255573Y-4273915D01*
X15320434Y-4260969D01*
X15356826Y-4253155D01*
X15362816Y-4251422D01*
X15372939Y-4231890D01*
X15394338Y-4184843D01*
X15424161Y-4117003D01*
X15459555Y-4035091D01*
X15497668Y-3945828D01*
X15535647Y-3855935D01*
X15570640Y-3772135D01*
X15599794Y-3701147D01*
X15620257Y-3649694D01*
X15629177Y-3624497D01*
X15629343Y-3623396D01*
X15619231Y-3603519D01*
X15590883Y-3557777D01*
X15547277Y-3490717D01*
X15491394Y-3406884D01*
X15426213Y-3310826D01*
X15388321Y-3255650D01*
X15319275Y-3154481D01*
X15257950Y-3062630D01*
X15207337Y-2984744D01*
X15170429Y-2925469D01*
X15150218Y-2889451D01*
X15147299Y-2881377D01*
X15159847Y-2862584D01*
X15194537Y-2822457D01*
X15246937Y-2765493D01*
X15312616Y-2696185D01*
X15387144Y-2619031D01*
X15466087Y-2538525D01*
X15545017Y-2459163D01*
X15619500Y-2385440D01*
X15685106Y-2321852D01*
X15737404Y-2272894D01*
X15771961Y-2243061D01*
X15783522Y-2235942D01*
X15802346Y-2245953D01*
X15847369Y-2274078D01*
X15914213Y-2317454D01*
X15998501Y-2373218D01*
X16095856Y-2438506D01*
X16169293Y-2488246D01*
X16540333Y-2740551D01*
X17158905Y-2485555D01*
X17242725Y-2040931D01*
X17326546Y-1596307D01*
X18251994Y-1596307D01*
X18335814Y-2040931D01*
D13*
X79862000Y-52726000D02*
X79862000Y-54226000D01*
X79862000Y-54226000D02*
X80132000Y-54226000D01*
X80132000Y-54226000D02*
X80132000Y-57056000D01*
X86762000Y-52726000D02*
X86762000Y-54226000D01*
X86762000Y-54226000D02*
X86492000Y-54226000D01*
X86492000Y-54226000D02*
X86492000Y-55326000D01*
D15*
G36*
X62689481Y-7789446D02*
X62731448Y-7868930D01*
X62795749Y-7906906D01*
X62853996Y-7937551D01*
X62879089Y-7971257D01*
X62879111Y-7972083D01*
X62901503Y-8029810D01*
X62955181Y-8054696D01*
X63016881Y-8038871D01*
X63054446Y-8022576D01*
X63091469Y-8031410D01*
X63142626Y-8071891D01*
X63186212Y-8114083D01*
X63245364Y-8177741D01*
X63281172Y-8225878D01*
X63286614Y-8243671D01*
X63300948Y-8268750D01*
X63350139Y-8312369D01*
X63389403Y-8341255D01*
X63474743Y-8417665D01*
X63543869Y-8510971D01*
X63587187Y-8604911D01*
X63595103Y-8683224D01*
X63594003Y-8688009D01*
X63607549Y-8747711D01*
X63672849Y-8818073D01*
X63747202Y-8869751D01*
X63816949Y-8885694D01*
X63870049Y-8881867D01*
X63941617Y-8878630D01*
X63994379Y-8899799D01*
X64052635Y-8955853D01*
X64059519Y-8963579D01*
X64116955Y-9021389D01*
X64162898Y-9055466D01*
X64174925Y-9059334D01*
X64204261Y-9078098D01*
X64205555Y-9085654D01*
X64228560Y-9115464D01*
X64254944Y-9128264D01*
X64304515Y-9161727D01*
X64357662Y-9220784D01*
X64360777Y-9225154D01*
X64412721Y-9292937D01*
X64483466Y-9377625D01*
X64526226Y-9426024D01*
X64599371Y-9495701D01*
X64647018Y-9515751D01*
X64668510Y-9486282D01*
X64663189Y-9407405D01*
X64662410Y-9403231D01*
X64655949Y-9352343D01*
X64670580Y-9347941D01*
X64694895Y-9366178D01*
X64735837Y-9427638D01*
X64734808Y-9495178D01*
X64714896Y-9526482D01*
X64702432Y-9569719D01*
X64703115Y-9649525D01*
X64708142Y-9694076D01*
X64731889Y-9793695D01*
X64768979Y-9838857D01*
X64822769Y-9830617D01*
X64871354Y-9790759D01*
X64939333Y-9790759D01*
X64956333Y-9819359D01*
X65016023Y-9847315D01*
X65016058Y-9847328D01*
X65013232Y-9827954D01*
X65010918Y-9821334D01*
X65108666Y-9821334D01*
X65118992Y-9844564D01*
X65127481Y-9840148D01*
X65130859Y-9806655D01*
X65127481Y-9802519D01*
X65110703Y-9806393D01*
X65108666Y-9821334D01*
X65010918Y-9821334D01*
X65005983Y-9807222D01*
X64978499Y-9771590D01*
X64949142Y-9767881D01*
X64939333Y-9790759D01*
X64871354Y-9790759D01*
X64896618Y-9770034D01*
X64908924Y-9757250D01*
X64976994Y-9695608D01*
X65035603Y-9672621D01*
X65079876Y-9674119D01*
X65140868Y-9672193D01*
X65200470Y-9640573D01*
X65264359Y-9582856D01*
X65322909Y-9514143D01*
X65351892Y-9458528D01*
X65352180Y-9439604D01*
X65360270Y-9394016D01*
X65389470Y-9362659D01*
X65435055Y-9321900D01*
X65500351Y-9253219D01*
X65559323Y-9185498D01*
X65623957Y-9103405D01*
X65632712Y-9087556D01*
X66040000Y-9087556D01*
X66049629Y-9115044D01*
X66052445Y-9115778D01*
X66076540Y-9096002D01*
X66082333Y-9087556D01*
X66080095Y-9061549D01*
X66069887Y-9059334D01*
X66041148Y-9079820D01*
X66040000Y-9087556D01*
X65632712Y-9087556D01*
X65656827Y-9043902D01*
X65665442Y-8989038D01*
X65660895Y-8942684D01*
X65659391Y-8857358D01*
X65692669Y-8803065D01*
X65769686Y-8769023D01*
X65813617Y-8758888D01*
X65890625Y-8727185D01*
X65920764Y-8685446D01*
X65946931Y-8653164D01*
X66189821Y-8653164D01*
X66194549Y-8663134D01*
X66223466Y-8679919D01*
X66255375Y-8661144D01*
X66279862Y-8621404D01*
X66266973Y-8597685D01*
X66228118Y-8586800D01*
X66195449Y-8611574D01*
X66189821Y-8653164D01*
X65946931Y-8653164D01*
X65953002Y-8645675D01*
X66021251Y-8597561D01*
X66108129Y-8551077D01*
X66196258Y-8516196D01*
X66231903Y-8506900D01*
X66296367Y-8474973D01*
X66338713Y-8420418D01*
X66351019Y-8360797D01*
X66325365Y-8313672D01*
X66320533Y-8310401D01*
X66314095Y-8290216D01*
X66727758Y-8290216D01*
X66736915Y-8307508D01*
X66778611Y-8323551D01*
X66811344Y-8285415D01*
X66812206Y-8283222D01*
X66808148Y-8246763D01*
X66788668Y-8240889D01*
X66743031Y-8256683D01*
X66727758Y-8290216D01*
X66314095Y-8290216D01*
X66311442Y-8281902D01*
X66332648Y-8259346D01*
X66369477Y-8206773D01*
X66383725Y-8158354D01*
X66417256Y-8091353D01*
X66475967Y-8043988D01*
X66550828Y-7984737D01*
X66605942Y-7914856D01*
X66649301Y-7857029D01*
X66705917Y-7835864D01*
X66754544Y-7834794D01*
X66827165Y-7829833D01*
X66866041Y-7801196D01*
X66883396Y-7764238D01*
X66902907Y-7725188D01*
X66912532Y-7734444D01*
X66912660Y-7736502D01*
X66936150Y-7786519D01*
X66973919Y-7821644D01*
X67022663Y-7882614D01*
X67055165Y-7982382D01*
X67055740Y-7985471D01*
X67078531Y-8110103D01*
X66806210Y-8401966D01*
X66682876Y-8530801D01*
X66587690Y-8621706D01*
X66513473Y-8680779D01*
X66453050Y-8714113D01*
X66429247Y-8722126D01*
X66339457Y-8755505D01*
X66303265Y-8794335D01*
X66317864Y-8842000D01*
X66323627Y-8849359D01*
X66333389Y-8875003D01*
X66320598Y-8910997D01*
X66279810Y-8965434D01*
X66205586Y-9046409D01*
X66158453Y-9095068D01*
X66063694Y-9193511D01*
X65975389Y-9287961D01*
X65906783Y-9364139D01*
X65883265Y-9391817D01*
X65818027Y-9455536D01*
X65764089Y-9469988D01*
X65756152Y-9468040D01*
X65698315Y-9476915D01*
X65614419Y-9533097D01*
X65584370Y-9558890D01*
X65489255Y-9644833D01*
X65425418Y-9707162D01*
X65381450Y-9759188D01*
X65345939Y-9814224D01*
X65312302Y-9876336D01*
X65247827Y-9999654D01*
X65322525Y-10077622D01*
X65369688Y-10131956D01*
X65381156Y-10172889D01*
X65361945Y-10226119D01*
X65354471Y-10241287D01*
X65328482Y-10303777D01*
X65332553Y-10340055D01*
X65350938Y-10359533D01*
X65406878Y-10378374D01*
X65459008Y-10374800D01*
X65513524Y-10373419D01*
X65565830Y-10406277D01*
X65607541Y-10450842D01*
X65673861Y-10510311D01*
X65768982Y-10562572D01*
X65902392Y-10611937D01*
X66060690Y-10656846D01*
X66082091Y-10682481D01*
X66071808Y-10721848D01*
X66039304Y-10750045D01*
X66024271Y-10752667D01*
X65979150Y-10730780D01*
X65962028Y-10709188D01*
X65918479Y-10679749D01*
X65890070Y-10683985D01*
X65846399Y-10718094D01*
X65849874Y-10762281D01*
X65893930Y-10809269D01*
X65972002Y-10851780D01*
X66067309Y-10880488D01*
X66156441Y-10916145D01*
X66235376Y-10973681D01*
X66236643Y-10974981D01*
X66313513Y-11031062D01*
X66386828Y-11039963D01*
X66436755Y-11043077D01*
X66489891Y-11069578D01*
X66558456Y-11127164D01*
X66617212Y-11185035D01*
X66693304Y-11263715D01*
X66735564Y-11315206D01*
X66749995Y-11352312D01*
X66742600Y-11387833D01*
X66727175Y-11419528D01*
X66701908Y-11478223D01*
X66710369Y-11515399D01*
X66749007Y-11551359D01*
X66819104Y-11586219D01*
X66871235Y-11588076D01*
X66914337Y-11592067D01*
X66975102Y-11625819D01*
X67061238Y-11694260D01*
X67122377Y-11748617D01*
X67314826Y-11923889D01*
X67212550Y-12042532D01*
X67137484Y-12118135D01*
X67082825Y-12145777D01*
X67064126Y-12143465D01*
X67031444Y-12140612D01*
X67035756Y-12172086D01*
X67044616Y-12221532D01*
X67026136Y-12233549D01*
X66992351Y-12211152D01*
X66955294Y-12157355D01*
X66952256Y-12151171D01*
X66904172Y-12076727D01*
X66857155Y-12051375D01*
X66816826Y-12078022D01*
X66815344Y-12080352D01*
X66816357Y-12122521D01*
X66844045Y-12181410D01*
X66874501Y-12253817D01*
X66867035Y-12308835D01*
X66823943Y-12332923D01*
X66818324Y-12333111D01*
X66733251Y-12313723D01*
X66658008Y-12265459D01*
X66615357Y-12203170D01*
X66614535Y-12200141D01*
X66577866Y-12141639D01*
X66508091Y-12086022D01*
X66495267Y-12078804D01*
X66401503Y-12019953D01*
X66314573Y-11950130D01*
X66268086Y-11902596D01*
X66610122Y-11902596D01*
X66623259Y-11919185D01*
X66668460Y-11938180D01*
X66707856Y-11921858D01*
X66717333Y-11895667D01*
X66703860Y-11875925D01*
X66948972Y-11875925D01*
X66971978Y-11917454D01*
X67007970Y-11954246D01*
X67058164Y-12007526D01*
X67083486Y-12047592D01*
X67084222Y-12052031D01*
X67107098Y-12076062D01*
X67126555Y-12079111D01*
X67162123Y-12056056D01*
X67168456Y-12029722D01*
X67149969Y-11955171D01*
X67089565Y-11902676D01*
X67044456Y-11882532D01*
X66973542Y-11863477D01*
X66948972Y-11875925D01*
X66703860Y-11875925D01*
X66693804Y-11861191D01*
X66660889Y-11853334D01*
X66611722Y-11867457D01*
X66610122Y-11902596D01*
X66268086Y-11902596D01*
X66247120Y-11881159D01*
X66211790Y-11824866D01*
X66209333Y-11811398D01*
X66200420Y-11789450D01*
X66353090Y-11789450D01*
X66361186Y-11816850D01*
X66391636Y-11841328D01*
X66456895Y-11871851D01*
X66501341Y-11855509D01*
X66511338Y-11836317D01*
X66503351Y-11794572D01*
X66479549Y-11753415D01*
X66446180Y-11715711D01*
X66417483Y-11721254D01*
X66387447Y-11749225D01*
X66353090Y-11789450D01*
X66200420Y-11789450D01*
X66193978Y-11773590D01*
X66180654Y-11768667D01*
X66151214Y-11745574D01*
X66114129Y-11688306D01*
X66105173Y-11670521D01*
X66057681Y-11598909D01*
X65986395Y-11551429D01*
X65927917Y-11529046D01*
X65903883Y-11517533D01*
X66243468Y-11517533D01*
X66252547Y-11562839D01*
X66271024Y-11598192D01*
X66282056Y-11580782D01*
X66286751Y-11561847D01*
X66289349Y-11510550D01*
X66283294Y-11495852D01*
X66472740Y-11495852D01*
X66476614Y-11512630D01*
X66491555Y-11514667D01*
X66514785Y-11504341D01*
X66510370Y-11495852D01*
X66476877Y-11492474D01*
X66472740Y-11495852D01*
X66283294Y-11495852D01*
X66282383Y-11493643D01*
X66255497Y-11486916D01*
X66243468Y-11517533D01*
X65903883Y-11517533D01*
X65862989Y-11497944D01*
X65785479Y-11447015D01*
X65704404Y-11384394D01*
X65628780Y-11318215D01*
X65627684Y-11317111D01*
X66082333Y-11317111D01*
X66084571Y-11343118D01*
X66094778Y-11345334D01*
X66123518Y-11324847D01*
X66124666Y-11317111D01*
X66115037Y-11289623D01*
X66112221Y-11288889D01*
X66088125Y-11308665D01*
X66082333Y-11317111D01*
X65627684Y-11317111D01*
X65567623Y-11256612D01*
X65529951Y-11207720D01*
X65524781Y-11179671D01*
X65536564Y-11176000D01*
X65591153Y-11196172D01*
X65617797Y-11219695D01*
X65669787Y-11250897D01*
X65729696Y-11250246D01*
X65772904Y-11220309D01*
X65779640Y-11202801D01*
X65769989Y-11153171D01*
X65735710Y-11083186D01*
X65721998Y-11061690D01*
X65664622Y-10994002D01*
X65603792Y-10966846D01*
X65568531Y-10964334D01*
X65487777Y-10946013D01*
X65404856Y-10885502D01*
X65384642Y-10865556D01*
X65307925Y-10795940D01*
X65229862Y-10738549D01*
X65205513Y-10724445D01*
X65136882Y-10681738D01*
X65089793Y-10639778D01*
X65046031Y-10582850D01*
X65014291Y-10541000D01*
X64983786Y-10505702D01*
X64964168Y-10512045D01*
X64940645Y-10565592D01*
X64939249Y-10569222D01*
X64906726Y-10653889D01*
X64854700Y-10590011D01*
X64812809Y-10532165D01*
X64791518Y-10492665D01*
X64763688Y-10481085D01*
X64708976Y-10501557D01*
X64640277Y-10546084D01*
X64570486Y-10606673D01*
X64525246Y-10657764D01*
X64483574Y-10717914D01*
X64475923Y-10754931D01*
X64498582Y-10787659D01*
X64499486Y-10788566D01*
X64525546Y-10824872D01*
X64509963Y-10858325D01*
X64488318Y-10879178D01*
X64437678Y-10909225D01*
X64404836Y-10908955D01*
X64374387Y-10917595D01*
X64348395Y-10959787D01*
X64304458Y-11029763D01*
X64257026Y-11074707D01*
X64209056Y-11120459D01*
X64191745Y-11157758D01*
X64173467Y-11194559D01*
X64125053Y-11259827D01*
X64055688Y-11341533D01*
X64029166Y-11370700D01*
X63950768Y-11453956D01*
X63902554Y-11499483D01*
X63877338Y-11511855D01*
X63867933Y-11495644D01*
X63866889Y-11473942D01*
X63855574Y-11414530D01*
X63823725Y-11407438D01*
X63781782Y-11444641D01*
X63761988Y-11486137D01*
X63785209Y-11530331D01*
X63793150Y-11539372D01*
X63824459Y-11581270D01*
X63815036Y-11610532D01*
X63792808Y-11630565D01*
X63741632Y-11665233D01*
X63661024Y-11712003D01*
X63602257Y-11743273D01*
X63515290Y-11793309D01*
X63465486Y-11841303D01*
X63436931Y-11904417D01*
X63430105Y-11928961D01*
X63399183Y-12002774D01*
X63337488Y-12095339D01*
X63240194Y-12213333D01*
X63161830Y-12300078D01*
X63069359Y-12398519D01*
X62990371Y-12479735D01*
X62932789Y-12535783D01*
X62904533Y-12558720D01*
X62903698Y-12558889D01*
X62875896Y-12539387D01*
X62825778Y-12489646D01*
X62792730Y-12453056D01*
X62744036Y-12402308D01*
X62857422Y-12402308D01*
X62892574Y-12418313D01*
X62928500Y-12423894D01*
X62997417Y-12426278D01*
X63034263Y-12401176D01*
X63057326Y-12334924D01*
X63059449Y-12326056D01*
X63060960Y-12265782D01*
X63030416Y-12248421D01*
X62972896Y-12274379D01*
X62922898Y-12315181D01*
X62867700Y-12371224D01*
X62857422Y-12402308D01*
X62744036Y-12402308D01*
X62729793Y-12387465D01*
X62674730Y-12341110D01*
X62655751Y-12330232D01*
X62629603Y-12314402D01*
X62654486Y-12298534D01*
X62667444Y-12293922D01*
X62714148Y-12262386D01*
X62763492Y-12207221D01*
X62804606Y-12144713D01*
X62826619Y-12091147D01*
X62820961Y-12063946D01*
X62795600Y-12021567D01*
X62818369Y-11954360D01*
X62889769Y-11860888D01*
X62893222Y-11857050D01*
X62949400Y-11789260D01*
X62985181Y-11735308D01*
X62992000Y-11716333D01*
X63015203Y-11687196D01*
X63074918Y-11645540D01*
X63129720Y-11615163D01*
X63210631Y-11570370D01*
X63254715Y-11528951D01*
X63276908Y-11471781D01*
X63287212Y-11413524D01*
X63306428Y-11303036D01*
X63323636Y-11245646D01*
X63612889Y-11245646D01*
X63631680Y-11282430D01*
X63675142Y-11283587D01*
X63723904Y-11248797D01*
X63724990Y-11247505D01*
X63749403Y-11200813D01*
X63749612Y-11180381D01*
X63720924Y-11166551D01*
X63673552Y-11180474D01*
X63630065Y-11211376D01*
X63612889Y-11245646D01*
X63323636Y-11245646D01*
X63325807Y-11238407D01*
X63349534Y-11209193D01*
X63371100Y-11204222D01*
X63415038Y-11183704D01*
X63469053Y-11135728D01*
X63513245Y-11080667D01*
X63528222Y-11043371D01*
X63549547Y-11007240D01*
X63594448Y-10969766D01*
X63653468Y-10911716D01*
X63695891Y-10841351D01*
X63744808Y-10772544D01*
X63815379Y-10725920D01*
X63889095Y-10709989D01*
X63941970Y-10728201D01*
X63965845Y-10769440D01*
X63944766Y-10803612D01*
X63890173Y-10821297D01*
X63833049Y-10817866D01*
X63776514Y-10809580D01*
X63757570Y-10825690D01*
X63764738Y-10880154D01*
X63768252Y-10896675D01*
X63786385Y-10972205D01*
X63804994Y-10999090D01*
X63836053Y-10983943D01*
X63870344Y-10953060D01*
X63922481Y-10911099D01*
X63958007Y-10893778D01*
X63989287Y-10874854D01*
X64044366Y-10826128D01*
X64089427Y-10780889D01*
X64159896Y-10717590D01*
X64225179Y-10676628D01*
X64256029Y-10668000D01*
X64317234Y-10643982D01*
X64371989Y-10586122D01*
X64401749Y-10515708D01*
X64403111Y-10499176D01*
X64381280Y-10451340D01*
X64346666Y-10420550D01*
X64302431Y-10380772D01*
X64290222Y-10353372D01*
X64270000Y-10312121D01*
X64258773Y-10301111D01*
X64530111Y-10301111D01*
X64536509Y-10325272D01*
X64556667Y-10329334D01*
X64595281Y-10314599D01*
X64600666Y-10301111D01*
X64580410Y-10273697D01*
X64574110Y-10272889D01*
X64535887Y-10293404D01*
X64530111Y-10301111D01*
X64258773Y-10301111D01*
X64240833Y-10283520D01*
X64209072Y-10253702D01*
X64225560Y-10236878D01*
X64256072Y-10227433D01*
X64300579Y-10209537D01*
X64295603Y-10182950D01*
X64276559Y-10160495D01*
X64247563Y-10106862D01*
X64247407Y-10072359D01*
X64232878Y-10040277D01*
X64182677Y-9977939D01*
X64159598Y-9952917D01*
X64305704Y-9952917D01*
X64306885Y-10029338D01*
X64341986Y-10088849D01*
X64397912Y-10117620D01*
X64452111Y-10107540D01*
X64497204Y-10094124D01*
X64527723Y-10123138D01*
X64539611Y-10147040D01*
X64570393Y-10192341D01*
X64605169Y-10218908D01*
X64627238Y-10215607D01*
X64628889Y-10206545D01*
X64618337Y-10160187D01*
X64593635Y-10098291D01*
X64565211Y-10043618D01*
X64543492Y-10018931D01*
X64542915Y-10018889D01*
X64508162Y-10001329D01*
X64453543Y-9958098D01*
X64442777Y-9948334D01*
X64378484Y-9894585D01*
X64340138Y-9883717D01*
X64316549Y-9916104D01*
X64305704Y-9952917D01*
X64159598Y-9952917D01*
X64103628Y-9892235D01*
X64002558Y-9790056D01*
X63886292Y-9678294D01*
X63761655Y-9563839D01*
X63686511Y-9498179D01*
X63979777Y-9498179D01*
X63999906Y-9559688D01*
X64047913Y-9629133D01*
X64105233Y-9682632D01*
X64134027Y-9696611D01*
X64200025Y-9732659D01*
X64249030Y-9784704D01*
X64288794Y-9831017D01*
X64320875Y-9829358D01*
X64327714Y-9823353D01*
X64343870Y-9784008D01*
X64321705Y-9723872D01*
X64318031Y-9717290D01*
X64268268Y-9652136D01*
X64220096Y-9612455D01*
X64156186Y-9563988D01*
X64126773Y-9532056D01*
X64085863Y-9500724D01*
X64033033Y-9482807D01*
X63990864Y-9483511D01*
X63979777Y-9498179D01*
X63686511Y-9498179D01*
X63635472Y-9453582D01*
X63629479Y-9448501D01*
X63547292Y-9378930D01*
X63600957Y-9325265D01*
X63876033Y-9325265D01*
X63906870Y-9341556D01*
X63945747Y-9318832D01*
X63951555Y-9296871D01*
X63935146Y-9263955D01*
X63918041Y-9263357D01*
X63880772Y-9291448D01*
X63876033Y-9325265D01*
X63600957Y-9325265D01*
X63608312Y-9317910D01*
X63644937Y-9274704D01*
X63638592Y-9257899D01*
X63627000Y-9256889D01*
X63589442Y-9241677D01*
X63584666Y-9228719D01*
X63562553Y-9199370D01*
X63505633Y-9153711D01*
X63453135Y-9118681D01*
X63321604Y-9036814D01*
X63396691Y-8967227D01*
X63453062Y-8910954D01*
X63464891Y-8879963D01*
X63431015Y-8863424D01*
X63384689Y-8855402D01*
X63319164Y-8854270D01*
X63283698Y-8884474D01*
X63270751Y-8913239D01*
X63259363Y-8985806D01*
X63273173Y-9013129D01*
X63299982Y-9053478D01*
X63302444Y-9064978D01*
X63286091Y-9087697D01*
X63236664Y-9066568D01*
X63153611Y-9001272D01*
X63088625Y-8941913D01*
X63001050Y-8852262D01*
X62956485Y-8788400D01*
X62950544Y-8746122D01*
X62946953Y-8672740D01*
X62897022Y-8604387D01*
X62810391Y-8553324D01*
X62794670Y-8547864D01*
X62710547Y-8508956D01*
X62629774Y-8452352D01*
X62567949Y-8391151D01*
X62540672Y-8338451D01*
X62540444Y-8334387D01*
X62527934Y-8309480D01*
X62897881Y-8309480D01*
X62905223Y-8357519D01*
X62929672Y-8380396D01*
X62993378Y-8407681D01*
X63019550Y-8393612D01*
X63020222Y-8386374D01*
X63001398Y-8351141D01*
X62967264Y-8314600D01*
X62926249Y-8283632D01*
X62905295Y-8293067D01*
X62897881Y-8309480D01*
X62527934Y-8309480D01*
X62523348Y-8300352D01*
X62512222Y-8297334D01*
X62485757Y-8280896D01*
X62492421Y-8251537D01*
X62519277Y-8238851D01*
X62557445Y-8217416D01*
X62612323Y-8165777D01*
X62636253Y-8138578D01*
X62717950Y-8040342D01*
X62529998Y-7846424D01*
X62598286Y-7773735D01*
X62666574Y-7701045D01*
X62689481Y-7789446D01*
X62689481Y-7789446D01*
G37*
X62689481Y-7789446D02*
X62731448Y-7868930D01*
X62795749Y-7906906D01*
X62853996Y-7937551D01*
X62879089Y-7971257D01*
X62879111Y-7972083D01*
X62901503Y-8029810D01*
X62955181Y-8054696D01*
X63016881Y-8038871D01*
X63054446Y-8022576D01*
X63091469Y-8031410D01*
X63142626Y-8071891D01*
X63186212Y-8114083D01*
X63245364Y-8177741D01*
X63281172Y-8225878D01*
X63286614Y-8243671D01*
X63300948Y-8268750D01*
X63350139Y-8312369D01*
X63389403Y-8341255D01*
X63474743Y-8417665D01*
X63543869Y-8510971D01*
X63587187Y-8604911D01*
X63595103Y-8683224D01*
X63594003Y-8688009D01*
X63607549Y-8747711D01*
X63672849Y-8818073D01*
X63747202Y-8869751D01*
X63816949Y-8885694D01*
X63870049Y-8881867D01*
X63941617Y-8878630D01*
X63994379Y-8899799D01*
X64052635Y-8955853D01*
X64059519Y-8963579D01*
X64116955Y-9021389D01*
X64162898Y-9055466D01*
X64174925Y-9059334D01*
X64204261Y-9078098D01*
X64205555Y-9085654D01*
X64228560Y-9115464D01*
X64254944Y-9128264D01*
X64304515Y-9161727D01*
X64357662Y-9220784D01*
X64360777Y-9225154D01*
X64412721Y-9292937D01*
X64483466Y-9377625D01*
X64526226Y-9426024D01*
X64599371Y-9495701D01*
X64647018Y-9515751D01*
X64668510Y-9486282D01*
X64663189Y-9407405D01*
X64662410Y-9403231D01*
X64655949Y-9352343D01*
X64670580Y-9347941D01*
X64694895Y-9366178D01*
X64735837Y-9427638D01*
X64734808Y-9495178D01*
X64714896Y-9526482D01*
X64702432Y-9569719D01*
X64703115Y-9649525D01*
X64708142Y-9694076D01*
X64731889Y-9793695D01*
X64768979Y-9838857D01*
X64822769Y-9830617D01*
X64871354Y-9790759D01*
X64939333Y-9790759D01*
X64956333Y-9819359D01*
X65016023Y-9847315D01*
X65016058Y-9847328D01*
X65013232Y-9827954D01*
X65010918Y-9821334D01*
X65108666Y-9821334D01*
X65118992Y-9844564D01*
X65127481Y-9840148D01*
X65130859Y-9806655D01*
X65127481Y-9802519D01*
X65110703Y-9806393D01*
X65108666Y-9821334D01*
X65010918Y-9821334D01*
X65005983Y-9807222D01*
X64978499Y-9771590D01*
X64949142Y-9767881D01*
X64939333Y-9790759D01*
X64871354Y-9790759D01*
X64896618Y-9770034D01*
X64908924Y-9757250D01*
X64976994Y-9695608D01*
X65035603Y-9672621D01*
X65079876Y-9674119D01*
X65140868Y-9672193D01*
X65200470Y-9640573D01*
X65264359Y-9582856D01*
X65322909Y-9514143D01*
X65351892Y-9458528D01*
X65352180Y-9439604D01*
X65360270Y-9394016D01*
X65389470Y-9362659D01*
X65435055Y-9321900D01*
X65500351Y-9253219D01*
X65559323Y-9185498D01*
X65623957Y-9103405D01*
X65632712Y-9087556D01*
X66040000Y-9087556D01*
X66049629Y-9115044D01*
X66052445Y-9115778D01*
X66076540Y-9096002D01*
X66082333Y-9087556D01*
X66080095Y-9061549D01*
X66069887Y-9059334D01*
X66041148Y-9079820D01*
X66040000Y-9087556D01*
X65632712Y-9087556D01*
X65656827Y-9043902D01*
X65665442Y-8989038D01*
X65660895Y-8942684D01*
X65659391Y-8857358D01*
X65692669Y-8803065D01*
X65769686Y-8769023D01*
X65813617Y-8758888D01*
X65890625Y-8727185D01*
X65920764Y-8685446D01*
X65946931Y-8653164D01*
X66189821Y-8653164D01*
X66194549Y-8663134D01*
X66223466Y-8679919D01*
X66255375Y-8661144D01*
X66279862Y-8621404D01*
X66266973Y-8597685D01*
X66228118Y-8586800D01*
X66195449Y-8611574D01*
X66189821Y-8653164D01*
X65946931Y-8653164D01*
X65953002Y-8645675D01*
X66021251Y-8597561D01*
X66108129Y-8551077D01*
X66196258Y-8516196D01*
X66231903Y-8506900D01*
X66296367Y-8474973D01*
X66338713Y-8420418D01*
X66351019Y-8360797D01*
X66325365Y-8313672D01*
X66320533Y-8310401D01*
X66314095Y-8290216D01*
X66727758Y-8290216D01*
X66736915Y-8307508D01*
X66778611Y-8323551D01*
X66811344Y-8285415D01*
X66812206Y-8283222D01*
X66808148Y-8246763D01*
X66788668Y-8240889D01*
X66743031Y-8256683D01*
X66727758Y-8290216D01*
X66314095Y-8290216D01*
X66311442Y-8281902D01*
X66332648Y-8259346D01*
X66369477Y-8206773D01*
X66383725Y-8158354D01*
X66417256Y-8091353D01*
X66475967Y-8043988D01*
X66550828Y-7984737D01*
X66605942Y-7914856D01*
X66649301Y-7857029D01*
X66705917Y-7835864D01*
X66754544Y-7834794D01*
X66827165Y-7829833D01*
X66866041Y-7801196D01*
X66883396Y-7764238D01*
X66902907Y-7725188D01*
X66912532Y-7734444D01*
X66912660Y-7736502D01*
X66936150Y-7786519D01*
X66973919Y-7821644D01*
X67022663Y-7882614D01*
X67055165Y-7982382D01*
X67055740Y-7985471D01*
X67078531Y-8110103D01*
X66806210Y-8401966D01*
X66682876Y-8530801D01*
X66587690Y-8621706D01*
X66513473Y-8680779D01*
X66453050Y-8714113D01*
X66429247Y-8722126D01*
X66339457Y-8755505D01*
X66303265Y-8794335D01*
X66317864Y-8842000D01*
X66323627Y-8849359D01*
X66333389Y-8875003D01*
X66320598Y-8910997D01*
X66279810Y-8965434D01*
X66205586Y-9046409D01*
X66158453Y-9095068D01*
X66063694Y-9193511D01*
X65975389Y-9287961D01*
X65906783Y-9364139D01*
X65883265Y-9391817D01*
X65818027Y-9455536D01*
X65764089Y-9469988D01*
X65756152Y-9468040D01*
X65698315Y-9476915D01*
X65614419Y-9533097D01*
X65584370Y-9558890D01*
X65489255Y-9644833D01*
X65425418Y-9707162D01*
X65381450Y-9759188D01*
X65345939Y-9814224D01*
X65312302Y-9876336D01*
X65247827Y-9999654D01*
X65322525Y-10077622D01*
X65369688Y-10131956D01*
X65381156Y-10172889D01*
X65361945Y-10226119D01*
X65354471Y-10241287D01*
X65328482Y-10303777D01*
X65332553Y-10340055D01*
X65350938Y-10359533D01*
X65406878Y-10378374D01*
X65459008Y-10374800D01*
X65513524Y-10373419D01*
X65565830Y-10406277D01*
X65607541Y-10450842D01*
X65673861Y-10510311D01*
X65768982Y-10562572D01*
X65902392Y-10611937D01*
X66060690Y-10656846D01*
X66082091Y-10682481D01*
X66071808Y-10721848D01*
X66039304Y-10750045D01*
X66024271Y-10752667D01*
X65979150Y-10730780D01*
X65962028Y-10709188D01*
X65918479Y-10679749D01*
X65890070Y-10683985D01*
X65846399Y-10718094D01*
X65849874Y-10762281D01*
X65893930Y-10809269D01*
X65972002Y-10851780D01*
X66067309Y-10880488D01*
X66156441Y-10916145D01*
X66235376Y-10973681D01*
X66236643Y-10974981D01*
X66313513Y-11031062D01*
X66386828Y-11039963D01*
X66436755Y-11043077D01*
X66489891Y-11069578D01*
X66558456Y-11127164D01*
X66617212Y-11185035D01*
X66693304Y-11263715D01*
X66735564Y-11315206D01*
X66749995Y-11352312D01*
X66742600Y-11387833D01*
X66727175Y-11419528D01*
X66701908Y-11478223D01*
X66710369Y-11515399D01*
X66749007Y-11551359D01*
X66819104Y-11586219D01*
X66871235Y-11588076D01*
X66914337Y-11592067D01*
X66975102Y-11625819D01*
X67061238Y-11694260D01*
X67122377Y-11748617D01*
X67314826Y-11923889D01*
X67212550Y-12042532D01*
X67137484Y-12118135D01*
X67082825Y-12145777D01*
X67064126Y-12143465D01*
X67031444Y-12140612D01*
X67035756Y-12172086D01*
X67044616Y-12221532D01*
X67026136Y-12233549D01*
X66992351Y-12211152D01*
X66955294Y-12157355D01*
X66952256Y-12151171D01*
X66904172Y-12076727D01*
X66857155Y-12051375D01*
X66816826Y-12078022D01*
X66815344Y-12080352D01*
X66816357Y-12122521D01*
X66844045Y-12181410D01*
X66874501Y-12253817D01*
X66867035Y-12308835D01*
X66823943Y-12332923D01*
X66818324Y-12333111D01*
X66733251Y-12313723D01*
X66658008Y-12265459D01*
X66615357Y-12203170D01*
X66614535Y-12200141D01*
X66577866Y-12141639D01*
X66508091Y-12086022D01*
X66495267Y-12078804D01*
X66401503Y-12019953D01*
X66314573Y-11950130D01*
X66268086Y-11902596D01*
X66610122Y-11902596D01*
X66623259Y-11919185D01*
X66668460Y-11938180D01*
X66707856Y-11921858D01*
X66717333Y-11895667D01*
X66703860Y-11875925D01*
X66948972Y-11875925D01*
X66971978Y-11917454D01*
X67007970Y-11954246D01*
X67058164Y-12007526D01*
X67083486Y-12047592D01*
X67084222Y-12052031D01*
X67107098Y-12076062D01*
X67126555Y-12079111D01*
X67162123Y-12056056D01*
X67168456Y-12029722D01*
X67149969Y-11955171D01*
X67089565Y-11902676D01*
X67044456Y-11882532D01*
X66973542Y-11863477D01*
X66948972Y-11875925D01*
X66703860Y-11875925D01*
X66693804Y-11861191D01*
X66660889Y-11853334D01*
X66611722Y-11867457D01*
X66610122Y-11902596D01*
X66268086Y-11902596D01*
X66247120Y-11881159D01*
X66211790Y-11824866D01*
X66209333Y-11811398D01*
X66200420Y-11789450D01*
X66353090Y-11789450D01*
X66361186Y-11816850D01*
X66391636Y-11841328D01*
X66456895Y-11871851D01*
X66501341Y-11855509D01*
X66511338Y-11836317D01*
X66503351Y-11794572D01*
X66479549Y-11753415D01*
X66446180Y-11715711D01*
X66417483Y-11721254D01*
X66387447Y-11749225D01*
X66353090Y-11789450D01*
X66200420Y-11789450D01*
X66193978Y-11773590D01*
X66180654Y-11768667D01*
X66151214Y-11745574D01*
X66114129Y-11688306D01*
X66105173Y-11670521D01*
X66057681Y-11598909D01*
X65986395Y-11551429D01*
X65927917Y-11529046D01*
X65903883Y-11517533D01*
X66243468Y-11517533D01*
X66252547Y-11562839D01*
X66271024Y-11598192D01*
X66282056Y-11580782D01*
X66286751Y-11561847D01*
X66289349Y-11510550D01*
X66283294Y-11495852D01*
X66472740Y-11495852D01*
X66476614Y-11512630D01*
X66491555Y-11514667D01*
X66514785Y-11504341D01*
X66510370Y-11495852D01*
X66476877Y-11492474D01*
X66472740Y-11495852D01*
X66283294Y-11495852D01*
X66282383Y-11493643D01*
X66255497Y-11486916D01*
X66243468Y-11517533D01*
X65903883Y-11517533D01*
X65862989Y-11497944D01*
X65785479Y-11447015D01*
X65704404Y-11384394D01*
X65628780Y-11318215D01*
X65627684Y-11317111D01*
X66082333Y-11317111D01*
X66084571Y-11343118D01*
X66094778Y-11345334D01*
X66123518Y-11324847D01*
X66124666Y-11317111D01*
X66115037Y-11289623D01*
X66112221Y-11288889D01*
X66088125Y-11308665D01*
X66082333Y-11317111D01*
X65627684Y-11317111D01*
X65567623Y-11256612D01*
X65529951Y-11207720D01*
X65524781Y-11179671D01*
X65536564Y-11176000D01*
X65591153Y-11196172D01*
X65617797Y-11219695D01*
X65669787Y-11250897D01*
X65729696Y-11250246D01*
X65772904Y-11220309D01*
X65779640Y-11202801D01*
X65769989Y-11153171D01*
X65735710Y-11083186D01*
X65721998Y-11061690D01*
X65664622Y-10994002D01*
X65603792Y-10966846D01*
X65568531Y-10964334D01*
X65487777Y-10946013D01*
X65404856Y-10885502D01*
X65384642Y-10865556D01*
X65307925Y-10795940D01*
X65229862Y-10738549D01*
X65205513Y-10724445D01*
X65136882Y-10681738D01*
X65089793Y-10639778D01*
X65046031Y-10582850D01*
X65014291Y-10541000D01*
X64983786Y-10505702D01*
X64964168Y-10512045D01*
X64940645Y-10565592D01*
X64939249Y-10569222D01*
X64906726Y-10653889D01*
X64854700Y-10590011D01*
X64812809Y-10532165D01*
X64791518Y-10492665D01*
X64763688Y-10481085D01*
X64708976Y-10501557D01*
X64640277Y-10546084D01*
X64570486Y-10606673D01*
X64525246Y-10657764D01*
X64483574Y-10717914D01*
X64475923Y-10754931D01*
X64498582Y-10787659D01*
X64499486Y-10788566D01*
X64525546Y-10824872D01*
X64509963Y-10858325D01*
X64488318Y-10879178D01*
X64437678Y-10909225D01*
X64404836Y-10908955D01*
X64374387Y-10917595D01*
X64348395Y-10959787D01*
X64304458Y-11029763D01*
X64257026Y-11074707D01*
X64209056Y-11120459D01*
X64191745Y-11157758D01*
X64173467Y-11194559D01*
X64125053Y-11259827D01*
X64055688Y-11341533D01*
X64029166Y-11370700D01*
X63950768Y-11453956D01*
X63902554Y-11499483D01*
X63877338Y-11511855D01*
X63867933Y-11495644D01*
X63866889Y-11473942D01*
X63855574Y-11414530D01*
X63823725Y-11407438D01*
X63781782Y-11444641D01*
X63761988Y-11486137D01*
X63785209Y-11530331D01*
X63793150Y-11539372D01*
X63824459Y-11581270D01*
X63815036Y-11610532D01*
X63792808Y-11630565D01*
X63741632Y-11665233D01*
X63661024Y-11712003D01*
X63602257Y-11743273D01*
X63515290Y-11793309D01*
X63465486Y-11841303D01*
X63436931Y-11904417D01*
X63430105Y-11928961D01*
X63399183Y-12002774D01*
X63337488Y-12095339D01*
X63240194Y-12213333D01*
X63161830Y-12300078D01*
X63069359Y-12398519D01*
X62990371Y-12479735D01*
X62932789Y-12535783D01*
X62904533Y-12558720D01*
X62903698Y-12558889D01*
X62875896Y-12539387D01*
X62825778Y-12489646D01*
X62792730Y-12453056D01*
X62744036Y-12402308D01*
X62857422Y-12402308D01*
X62892574Y-12418313D01*
X62928500Y-12423894D01*
X62997417Y-12426278D01*
X63034263Y-12401176D01*
X63057326Y-12334924D01*
X63059449Y-12326056D01*
X63060960Y-12265782D01*
X63030416Y-12248421D01*
X62972896Y-12274379D01*
X62922898Y-12315181D01*
X62867700Y-12371224D01*
X62857422Y-12402308D01*
X62744036Y-12402308D01*
X62729793Y-12387465D01*
X62674730Y-12341110D01*
X62655751Y-12330232D01*
X62629603Y-12314402D01*
X62654486Y-12298534D01*
X62667444Y-12293922D01*
X62714148Y-12262386D01*
X62763492Y-12207221D01*
X62804606Y-12144713D01*
X62826619Y-12091147D01*
X62820961Y-12063946D01*
X62795600Y-12021567D01*
X62818369Y-11954360D01*
X62889769Y-11860888D01*
X62893222Y-11857050D01*
X62949400Y-11789260D01*
X62985181Y-11735308D01*
X62992000Y-11716333D01*
X63015203Y-11687196D01*
X63074918Y-11645540D01*
X63129720Y-11615163D01*
X63210631Y-11570370D01*
X63254715Y-11528951D01*
X63276908Y-11471781D01*
X63287212Y-11413524D01*
X63306428Y-11303036D01*
X63323636Y-11245646D01*
X63612889Y-11245646D01*
X63631680Y-11282430D01*
X63675142Y-11283587D01*
X63723904Y-11248797D01*
X63724990Y-11247505D01*
X63749403Y-11200813D01*
X63749612Y-11180381D01*
X63720924Y-11166551D01*
X63673552Y-11180474D01*
X63630065Y-11211376D01*
X63612889Y-11245646D01*
X63323636Y-11245646D01*
X63325807Y-11238407D01*
X63349534Y-11209193D01*
X63371100Y-11204222D01*
X63415038Y-11183704D01*
X63469053Y-11135728D01*
X63513245Y-11080667D01*
X63528222Y-11043371D01*
X63549547Y-11007240D01*
X63594448Y-10969766D01*
X63653468Y-10911716D01*
X63695891Y-10841351D01*
X63744808Y-10772544D01*
X63815379Y-10725920D01*
X63889095Y-10709989D01*
X63941970Y-10728201D01*
X63965845Y-10769440D01*
X63944766Y-10803612D01*
X63890173Y-10821297D01*
X63833049Y-10817866D01*
X63776514Y-10809580D01*
X63757570Y-10825690D01*
X63764738Y-10880154D01*
X63768252Y-10896675D01*
X63786385Y-10972205D01*
X63804994Y-10999090D01*
X63836053Y-10983943D01*
X63870344Y-10953060D01*
X63922481Y-10911099D01*
X63958007Y-10893778D01*
X63989287Y-10874854D01*
X64044366Y-10826128D01*
X64089427Y-10780889D01*
X64159896Y-10717590D01*
X64225179Y-10676628D01*
X64256029Y-10668000D01*
X64317234Y-10643982D01*
X64371989Y-10586122D01*
X64401749Y-10515708D01*
X64403111Y-10499176D01*
X64381280Y-10451340D01*
X64346666Y-10420550D01*
X64302431Y-10380772D01*
X64290222Y-10353372D01*
X64270000Y-10312121D01*
X64258773Y-10301111D01*
X64530111Y-10301111D01*
X64536509Y-10325272D01*
X64556667Y-10329334D01*
X64595281Y-10314599D01*
X64600666Y-10301111D01*
X64580410Y-10273697D01*
X64574110Y-10272889D01*
X64535887Y-10293404D01*
X64530111Y-10301111D01*
X64258773Y-10301111D01*
X64240833Y-10283520D01*
X64209072Y-10253702D01*
X64225560Y-10236878D01*
X64256072Y-10227433D01*
X64300579Y-10209537D01*
X64295603Y-10182950D01*
X64276559Y-10160495D01*
X64247563Y-10106862D01*
X64247407Y-10072359D01*
X64232878Y-10040277D01*
X64182677Y-9977939D01*
X64159598Y-9952917D01*
X64305704Y-9952917D01*
X64306885Y-10029338D01*
X64341986Y-10088849D01*
X64397912Y-10117620D01*
X64452111Y-10107540D01*
X64497204Y-10094124D01*
X64527723Y-10123138D01*
X64539611Y-10147040D01*
X64570393Y-10192341D01*
X64605169Y-10218908D01*
X64627238Y-10215607D01*
X64628889Y-10206545D01*
X64618337Y-10160187D01*
X64593635Y-10098291D01*
X64565211Y-10043618D01*
X64543492Y-10018931D01*
X64542915Y-10018889D01*
X64508162Y-10001329D01*
X64453543Y-9958098D01*
X64442777Y-9948334D01*
X64378484Y-9894585D01*
X64340138Y-9883717D01*
X64316549Y-9916104D01*
X64305704Y-9952917D01*
X64159598Y-9952917D01*
X64103628Y-9892235D01*
X64002558Y-9790056D01*
X63886292Y-9678294D01*
X63761655Y-9563839D01*
X63686511Y-9498179D01*
X63979777Y-9498179D01*
X63999906Y-9559688D01*
X64047913Y-9629133D01*
X64105233Y-9682632D01*
X64134027Y-9696611D01*
X64200025Y-9732659D01*
X64249030Y-9784704D01*
X64288794Y-9831017D01*
X64320875Y-9829358D01*
X64327714Y-9823353D01*
X64343870Y-9784008D01*
X64321705Y-9723872D01*
X64318031Y-9717290D01*
X64268268Y-9652136D01*
X64220096Y-9612455D01*
X64156186Y-9563988D01*
X64126773Y-9532056D01*
X64085863Y-9500724D01*
X64033033Y-9482807D01*
X63990864Y-9483511D01*
X63979777Y-9498179D01*
X63686511Y-9498179D01*
X63635472Y-9453582D01*
X63629479Y-9448501D01*
X63547292Y-9378930D01*
X63600957Y-9325265D01*
X63876033Y-9325265D01*
X63906870Y-9341556D01*
X63945747Y-9318832D01*
X63951555Y-9296871D01*
X63935146Y-9263955D01*
X63918041Y-9263357D01*
X63880772Y-9291448D01*
X63876033Y-9325265D01*
X63600957Y-9325265D01*
X63608312Y-9317910D01*
X63644937Y-9274704D01*
X63638592Y-9257899D01*
X63627000Y-9256889D01*
X63589442Y-9241677D01*
X63584666Y-9228719D01*
X63562553Y-9199370D01*
X63505633Y-9153711D01*
X63453135Y-9118681D01*
X63321604Y-9036814D01*
X63396691Y-8967227D01*
X63453062Y-8910954D01*
X63464891Y-8879963D01*
X63431015Y-8863424D01*
X63384689Y-8855402D01*
X63319164Y-8854270D01*
X63283698Y-8884474D01*
X63270751Y-8913239D01*
X63259363Y-8985806D01*
X63273173Y-9013129D01*
X63299982Y-9053478D01*
X63302444Y-9064978D01*
X63286091Y-9087697D01*
X63236664Y-9066568D01*
X63153611Y-9001272D01*
X63088625Y-8941913D01*
X63001050Y-8852262D01*
X62956485Y-8788400D01*
X62950544Y-8746122D01*
X62946953Y-8672740D01*
X62897022Y-8604387D01*
X62810391Y-8553324D01*
X62794670Y-8547864D01*
X62710547Y-8508956D01*
X62629774Y-8452352D01*
X62567949Y-8391151D01*
X62540672Y-8338451D01*
X62540444Y-8334387D01*
X62527934Y-8309480D01*
X62897881Y-8309480D01*
X62905223Y-8357519D01*
X62929672Y-8380396D01*
X62993378Y-8407681D01*
X63019550Y-8393612D01*
X63020222Y-8386374D01*
X63001398Y-8351141D01*
X62967264Y-8314600D01*
X62926249Y-8283632D01*
X62905295Y-8293067D01*
X62897881Y-8309480D01*
X62527934Y-8309480D01*
X62523348Y-8300352D01*
X62512222Y-8297334D01*
X62485757Y-8280896D01*
X62492421Y-8251537D01*
X62519277Y-8238851D01*
X62557445Y-8217416D01*
X62612323Y-8165777D01*
X62636253Y-8138578D01*
X62717950Y-8040342D01*
X62529998Y-7846424D01*
X62598286Y-7773735D01*
X62666574Y-7701045D01*
X62689481Y-7789446D01*
G36*
X61157555Y-8748889D02*
X57600046Y-8748889D01*
X57615666Y-9581445D01*
X59379555Y-9587107D01*
X61143444Y-9592770D01*
X61151182Y-10059829D01*
X61158920Y-10526889D01*
X57601555Y-10526889D01*
X57601555Y-11345334D01*
X61157555Y-11345334D01*
X61157555Y-11807981D01*
X61156771Y-11984204D01*
X61153969Y-12111701D01*
X61148473Y-12198172D01*
X61139608Y-12251319D01*
X61126698Y-12278844D01*
X61115557Y-12286744D01*
X61080006Y-12289833D01*
X60993743Y-12292617D01*
X60862014Y-12295097D01*
X60690063Y-12297272D01*
X60483136Y-12299144D01*
X60246480Y-12300712D01*
X59985339Y-12301977D01*
X59704959Y-12302938D01*
X59410586Y-12303596D01*
X59107465Y-12303951D01*
X58800842Y-12304004D01*
X58495962Y-12303754D01*
X58198071Y-12303201D01*
X57912415Y-12302347D01*
X57644239Y-12301191D01*
X57398788Y-12299733D01*
X57181309Y-12297974D01*
X56997047Y-12295914D01*
X56851247Y-12293552D01*
X56749155Y-12290890D01*
X56696016Y-12287927D01*
X56689530Y-12286568D01*
X56686500Y-12255972D01*
X56683615Y-12173237D01*
X56680914Y-12042667D01*
X56678433Y-11868567D01*
X56676209Y-11655243D01*
X56674280Y-11406999D01*
X56672681Y-11128140D01*
X56671451Y-10822972D01*
X56670627Y-10495798D01*
X56670245Y-10150924D01*
X56670222Y-10042408D01*
X56670222Y-7817556D01*
X61157555Y-7817556D01*
X61157555Y-8748889D01*
X61157555Y-8748889D01*
G37*
X61157555Y-8748889D02*
X57600046Y-8748889D01*
X57615666Y-9581445D01*
X59379555Y-9587107D01*
X61143444Y-9592770D01*
X61151182Y-10059829D01*
X61158920Y-10526889D01*
X57601555Y-10526889D01*
X57601555Y-11345334D01*
X61157555Y-11345334D01*
X61157555Y-11807981D01*
X61156771Y-11984204D01*
X61153969Y-12111701D01*
X61148473Y-12198172D01*
X61139608Y-12251319D01*
X61126698Y-12278844D01*
X61115557Y-12286744D01*
X61080006Y-12289833D01*
X60993743Y-12292617D01*
X60862014Y-12295097D01*
X60690063Y-12297272D01*
X60483136Y-12299144D01*
X60246480Y-12300712D01*
X59985339Y-12301977D01*
X59704959Y-12302938D01*
X59410586Y-12303596D01*
X59107465Y-12303951D01*
X58800842Y-12304004D01*
X58495962Y-12303754D01*
X58198071Y-12303201D01*
X57912415Y-12302347D01*
X57644239Y-12301191D01*
X57398788Y-12299733D01*
X57181309Y-12297974D01*
X56997047Y-12295914D01*
X56851247Y-12293552D01*
X56749155Y-12290890D01*
X56696016Y-12287927D01*
X56689530Y-12286568D01*
X56686500Y-12255972D01*
X56683615Y-12173237D01*
X56680914Y-12042667D01*
X56678433Y-11868567D01*
X56676209Y-11655243D01*
X56674280Y-11406999D01*
X56672681Y-11128140D01*
X56671451Y-10822972D01*
X56670627Y-10495798D01*
X56670245Y-10150924D01*
X56670222Y-10042408D01*
X56670222Y-7817556D01*
X61157555Y-7817556D01*
X61157555Y-8748889D01*
G36*
X62615869Y-11983961D02*
X62619701Y-11992328D01*
X62606078Y-12018062D01*
X62582777Y-12022667D01*
X62547653Y-12008347D01*
X62545853Y-11992328D01*
X62574989Y-11963170D01*
X62582777Y-11961989D01*
X62615869Y-11983961D01*
X62615869Y-11983961D01*
G37*
X62615869Y-11983961D02*
X62619701Y-11992328D01*
X62606078Y-12018062D01*
X62582777Y-12022667D01*
X62547653Y-12008347D01*
X62545853Y-11992328D01*
X62574989Y-11963170D01*
X62582777Y-11961989D01*
X62615869Y-11983961D01*
G36*
X63091728Y-11374726D02*
X63088404Y-11383675D01*
X63063022Y-11418354D01*
X63032964Y-11433051D01*
X63020222Y-11419345D01*
X63038945Y-11395023D01*
X63063201Y-11373020D01*
X63093798Y-11352428D01*
X63091728Y-11374726D01*
X63091728Y-11374726D01*
G37*
X63091728Y-11374726D02*
X63088404Y-11383675D01*
X63063022Y-11418354D01*
X63032964Y-11433051D01*
X63020222Y-11419345D01*
X63038945Y-11395023D01*
X63063201Y-11373020D01*
X63093798Y-11352428D01*
X63091728Y-11374726D01*
G36*
X64676479Y-10686230D02*
X64671222Y-10696222D01*
X64644630Y-10723175D01*
X64639668Y-10724445D01*
X64637743Y-10706215D01*
X64643000Y-10696222D01*
X64669591Y-10669270D01*
X64674553Y-10668000D01*
X64676479Y-10686230D01*
X64676479Y-10686230D01*
G37*
X64676479Y-10686230D02*
X64671222Y-10696222D01*
X64644630Y-10723175D01*
X64639668Y-10724445D01*
X64637743Y-10706215D01*
X64643000Y-10696222D01*
X64669591Y-10669270D01*
X64674553Y-10668000D01*
X64676479Y-10686230D01*
G36*
X64204228Y-10321809D02*
X64199939Y-10368923D01*
X64174076Y-10419986D01*
X64164421Y-10430944D01*
X64137500Y-10482672D01*
X64139218Y-10513595D01*
X64134732Y-10545928D01*
X64086278Y-10555111D01*
X64025838Y-10548126D01*
X63998592Y-10536296D01*
X63979832Y-10494344D01*
X63979777Y-10492372D01*
X63999362Y-10459278D01*
X64046814Y-10407783D01*
X64105178Y-10353795D01*
X64157500Y-10313222D01*
X64183623Y-10301111D01*
X64204228Y-10321809D01*
X64204228Y-10321809D01*
G37*
X64204228Y-10321809D02*
X64199939Y-10368923D01*
X64174076Y-10419986D01*
X64164421Y-10430944D01*
X64137500Y-10482672D01*
X64139218Y-10513595D01*
X64134732Y-10545928D01*
X64086278Y-10555111D01*
X64025838Y-10548126D01*
X63998592Y-10536296D01*
X63979832Y-10494344D01*
X63979777Y-10492372D01*
X63999362Y-10459278D01*
X64046814Y-10407783D01*
X64105178Y-10353795D01*
X64157500Y-10313222D01*
X64183623Y-10301111D01*
X64204228Y-10321809D01*
G36*
X65382034Y-9924230D02*
X65376777Y-9934222D01*
X65350186Y-9961175D01*
X65345224Y-9962445D01*
X65343298Y-9944215D01*
X65348555Y-9934222D01*
X65375147Y-9907270D01*
X65380109Y-9906000D01*
X65382034Y-9924230D01*
X65382034Y-9924230D01*
G37*
X65382034Y-9924230D02*
X65376777Y-9934222D01*
X65350186Y-9961175D01*
X65345224Y-9962445D01*
X65343298Y-9944215D01*
X65348555Y-9934222D01*
X65375147Y-9907270D01*
X65380109Y-9906000D01*
X65382034Y-9924230D01*
G36*
X65494923Y-9811341D02*
X65489666Y-9821334D01*
X65463075Y-9848286D01*
X65458113Y-9849556D01*
X65456187Y-9831326D01*
X65461444Y-9821334D01*
X65488035Y-9794381D01*
X65492997Y-9793111D01*
X65494923Y-9811341D01*
X65494923Y-9811341D01*
G37*
X65494923Y-9811341D02*
X65489666Y-9821334D01*
X65463075Y-9848286D01*
X65458113Y-9849556D01*
X65456187Y-9831326D01*
X65461444Y-9821334D01*
X65488035Y-9794381D01*
X65492997Y-9793111D01*
X65494923Y-9811341D01*
G36*
X65033620Y-9340605D02*
X65056408Y-9359456D01*
X65100053Y-9417867D01*
X65103872Y-9468964D01*
X65073389Y-9495465D01*
X64994003Y-9514354D01*
X64910549Y-9525682D01*
X64844059Y-9527398D01*
X64817189Y-9520449D01*
X64824805Y-9492283D01*
X64865527Y-9441580D01*
X64901004Y-9406641D01*
X64963984Y-9351800D01*
X65002778Y-9331431D01*
X65033620Y-9340605D01*
X65033620Y-9340605D01*
G37*
X65033620Y-9340605D02*
X65056408Y-9359456D01*
X65100053Y-9417867D01*
X65103872Y-9468964D01*
X65073389Y-9495465D01*
X64994003Y-9514354D01*
X64910549Y-9525682D01*
X64844059Y-9527398D01*
X64817189Y-9520449D01*
X64824805Y-9492283D01*
X64865527Y-9441580D01*
X64901004Y-9406641D01*
X64963984Y-9351800D01*
X65002778Y-9331431D01*
X65033620Y-9340605D01*
G36*
X65361430Y-9100903D02*
X65386198Y-9141423D01*
X65390889Y-9173888D01*
X65373450Y-9217097D01*
X65320333Y-9228667D01*
X65265450Y-9215182D01*
X65249777Y-9189789D01*
X65269296Y-9140128D01*
X65312772Y-9103823D01*
X65357586Y-9098880D01*
X65361430Y-9100903D01*
X65361430Y-9100903D01*
G37*
X65361430Y-9100903D02*
X65386198Y-9141423D01*
X65390889Y-9173888D01*
X65373450Y-9217097D01*
X65320333Y-9228667D01*
X65265450Y-9215182D01*
X65249777Y-9189789D01*
X65269296Y-9140128D01*
X65312772Y-9103823D01*
X65357586Y-9098880D01*
X65361430Y-9100903D01*
G36*
X65470170Y-8989402D02*
X65475555Y-9002889D01*
X65455299Y-9030303D01*
X65448999Y-9031111D01*
X65410776Y-9010597D01*
X65405000Y-9002889D01*
X65411398Y-8978728D01*
X65431556Y-8974667D01*
X65470170Y-8989402D01*
X65470170Y-8989402D01*
G37*
X65470170Y-8989402D02*
X65475555Y-9002889D01*
X65455299Y-9030303D01*
X65448999Y-9031111D01*
X65410776Y-9010597D01*
X65405000Y-9002889D01*
X65411398Y-8978728D01*
X65431556Y-8974667D01*
X65470170Y-8989402D01*
G36*
X63709914Y-8457010D02*
X63770251Y-8504520D01*
X63838380Y-8568698D01*
X63902306Y-8637266D01*
X63950038Y-8697945D01*
X63969582Y-8738458D01*
X63968354Y-8744540D01*
X63922131Y-8775109D01*
X63858753Y-8758969D01*
X63812538Y-8722761D01*
X63773866Y-8657173D01*
X63772891Y-8612187D01*
X63770701Y-8566521D01*
X63724172Y-8546956D01*
X63721696Y-8546593D01*
X63676698Y-8525387D01*
X63647441Y-8488134D01*
X63642757Y-8453083D01*
X63669362Y-8438445D01*
X63709914Y-8457010D01*
X63709914Y-8457010D01*
G37*
X63709914Y-8457010D02*
X63770251Y-8504520D01*
X63838380Y-8568698D01*
X63902306Y-8637266D01*
X63950038Y-8697945D01*
X63969582Y-8738458D01*
X63968354Y-8744540D01*
X63922131Y-8775109D01*
X63858753Y-8758969D01*
X63812538Y-8722761D01*
X63773866Y-8657173D01*
X63772891Y-8612187D01*
X63770701Y-8566521D01*
X63724172Y-8546956D01*
X63721696Y-8546593D01*
X63676698Y-8525387D01*
X63647441Y-8488134D01*
X63642757Y-8453083D01*
X63669362Y-8438445D01*
X63709914Y-8457010D01*
G36*
X62987031Y-7778116D02*
X62977889Y-7817556D01*
X62938748Y-7844595D01*
X62900117Y-7828021D01*
X62897850Y-7824611D01*
X62904606Y-7790550D01*
X62922914Y-7768448D01*
X62963860Y-7753688D01*
X62987031Y-7778116D01*
X62987031Y-7778116D01*
G37*
X62987031Y-7778116D02*
X62977889Y-7817556D01*
X62938748Y-7844595D01*
X62900117Y-7828021D01*
X62897850Y-7824611D01*
X62904606Y-7790550D01*
X62922914Y-7768448D01*
X62963860Y-7753688D01*
X62987031Y-7778116D01*
G36*
X66604444Y-7605889D02*
X66631368Y-7631250D01*
X66632666Y-7635777D01*
X66610831Y-7647899D01*
X66604444Y-7648222D01*
X66577306Y-7626526D01*
X66576222Y-7618335D01*
X66593512Y-7601479D01*
X66604444Y-7605889D01*
X66604444Y-7605889D01*
G37*
X66604444Y-7605889D02*
X66631368Y-7631250D01*
X66632666Y-7635777D01*
X66610831Y-7647899D01*
X66604444Y-7648222D01*
X66577306Y-7626526D01*
X66576222Y-7618335D01*
X66593512Y-7601479D01*
X66604444Y-7605889D01*
D14*
X63817500Y-38294000D02*
X57086500Y-38294000D01*
X63817500Y-58106000D02*
X57086500Y-58106000D01*
X57086500Y-38294000D02*
X57086500Y-58106000D01*
X63817500Y-38294000D02*
X63817500Y-58106000D01*
D13*
X20634000Y-57150000D02*
X20634000Y-54490000D01*
X15494000Y-57150000D02*
X20634000Y-57150000D01*
X15494000Y-54490000D02*
X20634000Y-54490000D01*
X15494000Y-57150000D02*
X15494000Y-54490000D01*
X14224000Y-57150000D02*
X12894000Y-57150000D01*
X12894000Y-57150000D02*
X12894000Y-55820000D01*
X20634000Y-53594000D02*
X20634000Y-50934000D01*
X15494000Y-53594000D02*
X20634000Y-53594000D01*
X15494000Y-50934000D02*
X20634000Y-50934000D01*
X15494000Y-53594000D02*
X15494000Y-50934000D01*
X14224000Y-53594000D02*
X12894000Y-53594000D01*
X12894000Y-53594000D02*
X12894000Y-52264000D01*
D14*
X74737000Y-36280000D02*
X79187000Y-36280000D01*
X73212000Y-29380000D02*
X79187000Y-29380000D01*
X25735000Y-24593000D02*
X25735000Y-24243000D01*
X19985000Y-24593000D02*
X19985000Y-24143000D01*
X19985000Y-16943000D02*
X19985000Y-17393000D01*
X25735000Y-16943000D02*
X25735000Y-17393000D01*
X25735000Y-24593000D02*
X19985000Y-24593000D01*
X25735000Y-16943000D02*
X19985000Y-16943000D01*
X25735000Y-24243000D02*
X27335000Y-24243000D01*
X12019000Y-24593000D02*
X12019000Y-24243000D01*
X6269000Y-24593000D02*
X6269000Y-24143000D01*
X6269000Y-16943000D02*
X6269000Y-17393000D01*
X12019000Y-16943000D02*
X12019000Y-17393000D01*
X12019000Y-24593000D02*
X6269000Y-24593000D01*
X12019000Y-16943000D02*
X6269000Y-16943000D01*
X12019000Y-24243000D02*
X13619000Y-24243000D01*
X57023000Y-59122000D02*
X57023000Y-71822000D01*
X91694000Y-59122000D02*
X91694000Y-71822000D01*
X57023000Y-71822000D02*
X91694000Y-71822000D01*
X57023000Y-59122000D02*
X91694000Y-59122000D01*
X25400000Y-71348000D02*
X40640000Y-71348000D01*
X25400000Y-59408000D02*
X25400000Y-71348000D01*
X40640000Y-59408000D02*
X40640000Y-71348000D01*
X22860000Y-49248000D02*
X22860000Y-59408000D01*
X39370000Y-49248000D02*
X39370000Y-59408000D01*
X22860000Y-59408000D02*
X40640000Y-59408000D01*
X22860000Y-49248000D02*
X39370000Y-49248000D01*
X40640000Y-71348000D02*
X55880000Y-71348000D01*
X40640000Y-59408000D02*
X40640000Y-71348000D01*
X55880000Y-59408000D02*
X55880000Y-71348000D01*
X38100000Y-49248000D02*
X38100000Y-59408000D01*
X54610000Y-49248000D02*
X54610000Y-59408000D01*
X38100000Y-59408000D02*
X55880000Y-59408000D01*
X38100000Y-49248000D02*
X54610000Y-49248000D01*
D13*
X80756000Y-39504000D02*
G75*
G02X78756000Y-39504000I-1000000J0D01*
G01*
X78756000Y-39504000D02*
X77221000Y-39504000D01*
X77221000Y-39504000D02*
X77221000Y-44704000D01*
X77221000Y-44704000D02*
X82291000Y-44704000D01*
X82291000Y-44704000D02*
X82291000Y-39504000D01*
X82291000Y-39504000D02*
X80756000Y-39504000D01*
X73521000Y-39444000D02*
X73521000Y-44764000D01*
X73521000Y-44764000D02*
X85991000Y-44764000D01*
X85991000Y-44764000D02*
X85991000Y-39444000D01*
X85991000Y-39444000D02*
X73521000Y-39444000D01*
D14*
X10160000Y-71348000D02*
X25400000Y-71348000D01*
X10160000Y-59408000D02*
X10160000Y-71348000D01*
X25400000Y-59408000D02*
X25400000Y-71348000D01*
X10160000Y-59408000D02*
X25400000Y-59408000D01*
X50036000Y-46508000D02*
X50036000Y-38208000D01*
X12956000Y-46508000D02*
X50036000Y-46508000D01*
X12956000Y-38208000D02*
X12956000Y-46508000D01*
X50036000Y-38208000D02*
X12956000Y-38208000D01*
D16*
X89645067Y-10222895D02*
X89645067Y-10803467D01*
X89606363Y-10919581D01*
X89528953Y-10996990D01*
X89412839Y-11035695D01*
X89335429Y-11035695D01*
X89993410Y-10300305D02*
X90032115Y-10261600D01*
X90109524Y-10222895D01*
X90303048Y-10222895D01*
X90380458Y-10261600D01*
X90419162Y-10300305D01*
X90457867Y-10377714D01*
X90457867Y-10455124D01*
X90419162Y-10571238D01*
X89954705Y-11035695D01*
X90457867Y-11035695D01*
X89272534Y-21118286D02*
X89233829Y-21156990D01*
X89117715Y-21195695D01*
X89040305Y-21195695D01*
X88924191Y-21156990D01*
X88846782Y-21079581D01*
X88808077Y-21002171D01*
X88769372Y-20847352D01*
X88769372Y-20731238D01*
X88808077Y-20576419D01*
X88846782Y-20499010D01*
X88924191Y-20421600D01*
X89040305Y-20382895D01*
X89117715Y-20382895D01*
X89233829Y-20421600D01*
X89272534Y-20460305D01*
X90046629Y-21195695D02*
X89582172Y-21195695D01*
X89814401Y-21195695D02*
X89814401Y-20382895D01*
X89736991Y-20499010D01*
X89659582Y-20576419D01*
X89582172Y-20615124D01*
X74540534Y-58202286D02*
X74501829Y-58240990D01*
X74385715Y-58279695D01*
X74308305Y-58279695D01*
X74192191Y-58240990D01*
X74114782Y-58163581D01*
X74076077Y-58086171D01*
X74037372Y-57931352D01*
X74037372Y-57815238D01*
X74076077Y-57660419D01*
X74114782Y-57583010D01*
X74192191Y-57505600D01*
X74308305Y-57466895D01*
X74385715Y-57466895D01*
X74501829Y-57505600D01*
X74540534Y-57544305D01*
X74850172Y-57544305D02*
X74888877Y-57505600D01*
X74966286Y-57466895D01*
X75159810Y-57466895D01*
X75237220Y-57505600D01*
X75275924Y-57544305D01*
X75314629Y-57621714D01*
X75314629Y-57699124D01*
X75275924Y-57815238D01*
X74811467Y-58279695D01*
X75314629Y-58279695D01*
D14*
X77177429Y-57916952D02*
X77177429Y-57155047D01*
X77558381Y-57535999D02*
X76796476Y-57535999D01*
D16*
X79030286Y-51951466D02*
X79068990Y-51990171D01*
X79107695Y-52106285D01*
X79107695Y-52183695D01*
X79068990Y-52299809D01*
X78991581Y-52377218D01*
X78914171Y-52415923D01*
X78759352Y-52454628D01*
X78643238Y-52454628D01*
X78488419Y-52415923D01*
X78411010Y-52377218D01*
X78333600Y-52299809D01*
X78294895Y-52183695D01*
X78294895Y-52106285D01*
X78333600Y-51990171D01*
X78372305Y-51951466D01*
X78294895Y-51680533D02*
X78294895Y-51177371D01*
X78604533Y-51448304D01*
X78604533Y-51332190D01*
X78643238Y-51254780D01*
X78681943Y-51216076D01*
X78759352Y-51177371D01*
X78952876Y-51177371D01*
X79030286Y-51216076D01*
X79068990Y-51254780D01*
X79107695Y-51332190D01*
X79107695Y-51564418D01*
X79068990Y-51641828D01*
X79030286Y-51680533D01*
X82160534Y-6410286D02*
X82121829Y-6448990D01*
X82005715Y-6487695D01*
X81928305Y-6487695D01*
X81812191Y-6448990D01*
X81734782Y-6371581D01*
X81696077Y-6294171D01*
X81657372Y-6139352D01*
X81657372Y-6023238D01*
X81696077Y-5868419D01*
X81734782Y-5791010D01*
X81812191Y-5713600D01*
X81928305Y-5674895D01*
X82005715Y-5674895D01*
X82121829Y-5713600D01*
X82160534Y-5752305D01*
X82857220Y-5945829D02*
X82857220Y-6487695D01*
X82663696Y-5636190D02*
X82470172Y-6216762D01*
X82973334Y-6216762D01*
X88174286Y-51951466D02*
X88212990Y-51990171D01*
X88251695Y-52106285D01*
X88251695Y-52183695D01*
X88212990Y-52299809D01*
X88135581Y-52377218D01*
X88058171Y-52415923D01*
X87903352Y-52454628D01*
X87787238Y-52454628D01*
X87632419Y-52415923D01*
X87555010Y-52377218D01*
X87477600Y-52299809D01*
X87438895Y-52183695D01*
X87438895Y-52106285D01*
X87477600Y-51990171D01*
X87516305Y-51951466D01*
X87438895Y-51216076D02*
X87438895Y-51603123D01*
X87825943Y-51641828D01*
X87787238Y-51603123D01*
X87748533Y-51525714D01*
X87748533Y-51332190D01*
X87787238Y-51254780D01*
X87825943Y-51216076D01*
X87903352Y-51177371D01*
X88096876Y-51177371D01*
X88174286Y-51216076D01*
X88212990Y-51254780D01*
X88251695Y-51332190D01*
X88251695Y-51525714D01*
X88212990Y-51603123D01*
X88174286Y-51641828D01*
X78604534Y-6386286D02*
X78565829Y-6424990D01*
X78449715Y-6463695D01*
X78372305Y-6463695D01*
X78256191Y-6424990D01*
X78178782Y-6347581D01*
X78140077Y-6270171D01*
X78101372Y-6115352D01*
X78101372Y-5999238D01*
X78140077Y-5844419D01*
X78178782Y-5767010D01*
X78256191Y-5689600D01*
X78372305Y-5650895D01*
X78449715Y-5650895D01*
X78565829Y-5689600D01*
X78604534Y-5728305D01*
X79301220Y-5650895D02*
X79146401Y-5650895D01*
X79068991Y-5689600D01*
X79030286Y-5728305D01*
X78952877Y-5844419D01*
X78914172Y-5999238D01*
X78914172Y-6308876D01*
X78952877Y-6386286D01*
X78991582Y-6424990D01*
X79068991Y-6463695D01*
X79223810Y-6463695D01*
X79301220Y-6424990D01*
X79339924Y-6386286D01*
X79378629Y-6308876D01*
X79378629Y-6115352D01*
X79339924Y-6037943D01*
X79301220Y-5999238D01*
X79223810Y-5960533D01*
X79068991Y-5960533D01*
X78991582Y-5999238D01*
X78952877Y-6037943D01*
X78914172Y-6115352D01*
X80128534Y-20610286D02*
X80089829Y-20648990D01*
X79973715Y-20687695D01*
X79896305Y-20687695D01*
X79780191Y-20648990D01*
X79702782Y-20571581D01*
X79664077Y-20494171D01*
X79625372Y-20339352D01*
X79625372Y-20223238D01*
X79664077Y-20068419D01*
X79702782Y-19991010D01*
X79780191Y-19913600D01*
X79896305Y-19874895D01*
X79973715Y-19874895D01*
X80089829Y-19913600D01*
X80128534Y-19952305D01*
X80399467Y-19874895D02*
X80941334Y-19874895D01*
X80592991Y-20687695D01*
X70476534Y-13498286D02*
X70437829Y-13536990D01*
X70321715Y-13575695D01*
X70244305Y-13575695D01*
X70128191Y-13536990D01*
X70050782Y-13459581D01*
X70012077Y-13382171D01*
X69973372Y-13227352D01*
X69973372Y-13111238D01*
X70012077Y-12956419D01*
X70050782Y-12879010D01*
X70128191Y-12801600D01*
X70244305Y-12762895D01*
X70321715Y-12762895D01*
X70437829Y-12801600D01*
X70476534Y-12840305D01*
X70940991Y-13111238D02*
X70863582Y-13072533D01*
X70824877Y-13033829D01*
X70786172Y-12956419D01*
X70786172Y-12917714D01*
X70824877Y-12840305D01*
X70863582Y-12801600D01*
X70940991Y-12762895D01*
X71095810Y-12762895D01*
X71173220Y-12801600D01*
X71211924Y-12840305D01*
X71250629Y-12917714D01*
X71250629Y-12956419D01*
X71211924Y-13033829D01*
X71173220Y-13072533D01*
X71095810Y-13111238D01*
X70940991Y-13111238D01*
X70863582Y-13149943D01*
X70824877Y-13188648D01*
X70786172Y-13266057D01*
X70786172Y-13420876D01*
X70824877Y-13498286D01*
X70863582Y-13536990D01*
X70940991Y-13575695D01*
X71095810Y-13575695D01*
X71173220Y-13536990D01*
X71211924Y-13498286D01*
X71250629Y-13420876D01*
X71250629Y-13266057D01*
X71211924Y-13188648D01*
X71173220Y-13149943D01*
X71095810Y-13111238D01*
X50156534Y-11744286D02*
X50117829Y-11782990D01*
X50001715Y-11821695D01*
X49924305Y-11821695D01*
X49808191Y-11782990D01*
X49730782Y-11705581D01*
X49692077Y-11628171D01*
X49653372Y-11473352D01*
X49653372Y-11357238D01*
X49692077Y-11202419D01*
X49730782Y-11125010D01*
X49808191Y-11047600D01*
X49924305Y-11008895D01*
X50001715Y-11008895D01*
X50117829Y-11047600D01*
X50156534Y-11086305D01*
X50543582Y-11821695D02*
X50698401Y-11821695D01*
X50775810Y-11782990D01*
X50814515Y-11744286D01*
X50891924Y-11628171D01*
X50930629Y-11473352D01*
X50930629Y-11163714D01*
X50891924Y-11086305D01*
X50853220Y-11047600D01*
X50775810Y-11008895D01*
X50620991Y-11008895D01*
X50543582Y-11047600D01*
X50504877Y-11086305D01*
X50466172Y-11163714D01*
X50466172Y-11357238D01*
X50504877Y-11434648D01*
X50543582Y-11473352D01*
X50620991Y-11512057D01*
X50775810Y-11512057D01*
X50853220Y-11473352D01*
X50891924Y-11434648D01*
X50930629Y-11357238D01*
X45705486Y-26706286D02*
X45666781Y-26744990D01*
X45550667Y-26783695D01*
X45473257Y-26783695D01*
X45357143Y-26744990D01*
X45279734Y-26667581D01*
X45241029Y-26590171D01*
X45202324Y-26435352D01*
X45202324Y-26319238D01*
X45241029Y-26164419D01*
X45279734Y-26087010D01*
X45357143Y-26009600D01*
X45473257Y-25970895D01*
X45550667Y-25970895D01*
X45666781Y-26009600D01*
X45705486Y-26048305D01*
X46479581Y-26783695D02*
X46015124Y-26783695D01*
X46247353Y-26783695D02*
X46247353Y-25970895D01*
X46169943Y-26087010D01*
X46092534Y-26164419D01*
X46015124Y-26203124D01*
X46982743Y-25970895D02*
X47060152Y-25970895D01*
X47137562Y-26009600D01*
X47176267Y-26048305D01*
X47214971Y-26125714D01*
X47253676Y-26280533D01*
X47253676Y-26474057D01*
X47214971Y-26628876D01*
X47176267Y-26706286D01*
X47137562Y-26744990D01*
X47060152Y-26783695D01*
X46982743Y-26783695D01*
X46905333Y-26744990D01*
X46866629Y-26706286D01*
X46827924Y-26628876D01*
X46789219Y-26474057D01*
X46789219Y-26280533D01*
X46827924Y-26125714D01*
X46866629Y-26048305D01*
X46905333Y-26009600D01*
X46982743Y-25970895D01*
X76693486Y-26706286D02*
X76654781Y-26744990D01*
X76538667Y-26783695D01*
X76461257Y-26783695D01*
X76345143Y-26744990D01*
X76267734Y-26667581D01*
X76229029Y-26590171D01*
X76190324Y-26435352D01*
X76190324Y-26319238D01*
X76229029Y-26164419D01*
X76267734Y-26087010D01*
X76345143Y-26009600D01*
X76461257Y-25970895D01*
X76538667Y-25970895D01*
X76654781Y-26009600D01*
X76693486Y-26048305D01*
X77467581Y-26783695D02*
X77003124Y-26783695D01*
X77235353Y-26783695D02*
X77235353Y-25970895D01*
X77157943Y-26087010D01*
X77080534Y-26164419D01*
X77003124Y-26203124D01*
X78241676Y-26783695D02*
X77777219Y-26783695D01*
X78009448Y-26783695D02*
X78009448Y-25970895D01*
X77932038Y-26087010D01*
X77854629Y-26164419D01*
X77777219Y-26203124D01*
X44689486Y-14514286D02*
X44650781Y-14552990D01*
X44534667Y-14591695D01*
X44457257Y-14591695D01*
X44341143Y-14552990D01*
X44263734Y-14475581D01*
X44225029Y-14398171D01*
X44186324Y-14243352D01*
X44186324Y-14127238D01*
X44225029Y-13972419D01*
X44263734Y-13895010D01*
X44341143Y-13817600D01*
X44457257Y-13778895D01*
X44534667Y-13778895D01*
X44650781Y-13817600D01*
X44689486Y-13856305D01*
X45463581Y-14591695D02*
X44999124Y-14591695D01*
X45231353Y-14591695D02*
X45231353Y-13778895D01*
X45153943Y-13895010D01*
X45076534Y-13972419D01*
X44999124Y-14011124D01*
X45773219Y-13856305D02*
X45811924Y-13817600D01*
X45889333Y-13778895D01*
X46082857Y-13778895D01*
X46160267Y-13817600D01*
X46198971Y-13856305D01*
X46237676Y-13933714D01*
X46237676Y-14011124D01*
X46198971Y-14127238D01*
X45734514Y-14591695D01*
X46237676Y-14591695D01*
X17054286Y-21350514D02*
X17092990Y-21389219D01*
X17131695Y-21505333D01*
X17131695Y-21582743D01*
X17092990Y-21698857D01*
X17015581Y-21776266D01*
X16938171Y-21814971D01*
X16783352Y-21853676D01*
X16667238Y-21853676D01*
X16512419Y-21814971D01*
X16435010Y-21776266D01*
X16357600Y-21698857D01*
X16318895Y-21582743D01*
X16318895Y-21505333D01*
X16357600Y-21389219D01*
X16396305Y-21350514D01*
X17131695Y-20576419D02*
X17131695Y-21040876D01*
X17131695Y-20808647D02*
X16318895Y-20808647D01*
X16435010Y-20886057D01*
X16512419Y-20963466D01*
X16551124Y-21040876D01*
X16318895Y-20305486D02*
X16318895Y-19802324D01*
X16628533Y-20073257D01*
X16628533Y-19957143D01*
X16667238Y-19879733D01*
X16705943Y-19841029D01*
X16783352Y-19802324D01*
X16976876Y-19802324D01*
X17054286Y-19841029D01*
X17092990Y-19879733D01*
X17131695Y-19957143D01*
X17131695Y-20189371D01*
X17092990Y-20266781D01*
X17054286Y-20305486D01*
X3338286Y-21350514D02*
X3376990Y-21389219D01*
X3415695Y-21505333D01*
X3415695Y-21582743D01*
X3376990Y-21698857D01*
X3299581Y-21776266D01*
X3222171Y-21814971D01*
X3067352Y-21853676D01*
X2951238Y-21853676D01*
X2796419Y-21814971D01*
X2719010Y-21776266D01*
X2641600Y-21698857D01*
X2602895Y-21582743D01*
X2602895Y-21505333D01*
X2641600Y-21389219D01*
X2680305Y-21350514D01*
X3415695Y-20576419D02*
X3415695Y-21040876D01*
X3415695Y-20808647D02*
X2602895Y-20808647D01*
X2719010Y-20886057D01*
X2796419Y-20963466D01*
X2835124Y-21040876D01*
X2873829Y-19879733D02*
X3415695Y-19879733D01*
X2564190Y-20073257D02*
X3144762Y-20266781D01*
X3144762Y-19763619D01*
X35545486Y-14514286D02*
X35506781Y-14552990D01*
X35390667Y-14591695D01*
X35313257Y-14591695D01*
X35197143Y-14552990D01*
X35119734Y-14475581D01*
X35081029Y-14398171D01*
X35042324Y-14243352D01*
X35042324Y-14127238D01*
X35081029Y-13972419D01*
X35119734Y-13895010D01*
X35197143Y-13817600D01*
X35313257Y-13778895D01*
X35390667Y-13778895D01*
X35506781Y-13817600D01*
X35545486Y-13856305D01*
X36319581Y-14591695D02*
X35855124Y-14591695D01*
X36087353Y-14591695D02*
X36087353Y-13778895D01*
X36009943Y-13895010D01*
X35932534Y-13972419D01*
X35855124Y-14011124D01*
X37054971Y-13778895D02*
X36667924Y-13778895D01*
X36629219Y-14165943D01*
X36667924Y-14127238D01*
X36745333Y-14088533D01*
X36938857Y-14088533D01*
X37016267Y-14127238D01*
X37054971Y-14165943D01*
X37093676Y-14243352D01*
X37093676Y-14436876D01*
X37054971Y-14514286D01*
X37016267Y-14552990D01*
X36938857Y-14591695D01*
X36745333Y-14591695D01*
X36667924Y-14552990D01*
X36629219Y-14514286D01*
X64932077Y-37451695D02*
X64932077Y-36638895D01*
X65125601Y-36638895D01*
X65241715Y-36677600D01*
X65319124Y-36755010D01*
X65357829Y-36832419D01*
X65396534Y-36987238D01*
X65396534Y-37103352D01*
X65357829Y-37258171D01*
X65319124Y-37335581D01*
X65241715Y-37412990D01*
X65125601Y-37451695D01*
X64932077Y-37451695D01*
X66170629Y-37451695D02*
X65706172Y-37451695D01*
X65938401Y-37451695D02*
X65938401Y-36638895D01*
X65860991Y-36755010D01*
X65783582Y-36832419D01*
X65706172Y-36871124D01*
X80680077Y-36943695D02*
X80680077Y-36130895D01*
X80873601Y-36130895D01*
X80989715Y-36169600D01*
X81067124Y-36247010D01*
X81105829Y-36324419D01*
X81144534Y-36479238D01*
X81144534Y-36595352D01*
X81105829Y-36750171D01*
X81067124Y-36827581D01*
X80989715Y-36904990D01*
X80873601Y-36943695D01*
X80680077Y-36943695D01*
X81454172Y-36208305D02*
X81492877Y-36169600D01*
X81570286Y-36130895D01*
X81763810Y-36130895D01*
X81841220Y-36169600D01*
X81879924Y-36208305D01*
X81918629Y-36285714D01*
X81918629Y-36363124D01*
X81879924Y-36479238D01*
X81415467Y-36943695D01*
X81918629Y-36943695D01*
X80680077Y-34911695D02*
X80680077Y-34098895D01*
X80873601Y-34098895D01*
X80989715Y-34137600D01*
X81067124Y-34215010D01*
X81105829Y-34292419D01*
X81144534Y-34447238D01*
X81144534Y-34563352D01*
X81105829Y-34718171D01*
X81067124Y-34795581D01*
X80989715Y-34872990D01*
X80873601Y-34911695D01*
X80680077Y-34911695D01*
X81415467Y-34098895D02*
X81918629Y-34098895D01*
X81647696Y-34408533D01*
X81763810Y-34408533D01*
X81841220Y-34447238D01*
X81879924Y-34485943D01*
X81918629Y-34563352D01*
X81918629Y-34756876D01*
X81879924Y-34834286D01*
X81841220Y-34872990D01*
X81763810Y-34911695D01*
X81531582Y-34911695D01*
X81454172Y-34872990D01*
X81415467Y-34834286D01*
X80680077Y-32879695D02*
X80680077Y-32066895D01*
X80873601Y-32066895D01*
X80989715Y-32105600D01*
X81067124Y-32183010D01*
X81105829Y-32260419D01*
X81144534Y-32415238D01*
X81144534Y-32531352D01*
X81105829Y-32686171D01*
X81067124Y-32763581D01*
X80989715Y-32840990D01*
X80873601Y-32879695D01*
X80680077Y-32879695D01*
X81841220Y-32337829D02*
X81841220Y-32879695D01*
X81647696Y-32028190D02*
X81454172Y-32608762D01*
X81957334Y-32608762D01*
X80680077Y-30847695D02*
X80680077Y-30034895D01*
X80873601Y-30034895D01*
X80989715Y-30073600D01*
X81067124Y-30151010D01*
X81105829Y-30228419D01*
X81144534Y-30383238D01*
X81144534Y-30499352D01*
X81105829Y-30654171D01*
X81067124Y-30731581D01*
X80989715Y-30808990D01*
X80873601Y-30847695D01*
X80680077Y-30847695D01*
X81879924Y-30034895D02*
X81492877Y-30034895D01*
X81454172Y-30421943D01*
X81492877Y-30383238D01*
X81570286Y-30344533D01*
X81763810Y-30344533D01*
X81841220Y-30383238D01*
X81879924Y-30421943D01*
X81918629Y-30499352D01*
X81918629Y-30692876D01*
X81879924Y-30770286D01*
X81841220Y-30808990D01*
X81763810Y-30847695D01*
X81570286Y-30847695D01*
X81492877Y-30808990D01*
X81454172Y-30770286D01*
X80680077Y-28815695D02*
X80680077Y-28002895D01*
X80873601Y-28002895D01*
X80989715Y-28041600D01*
X81067124Y-28119010D01*
X81105829Y-28196419D01*
X81144534Y-28351238D01*
X81144534Y-28467352D01*
X81105829Y-28622171D01*
X81067124Y-28699581D01*
X80989715Y-28776990D01*
X80873601Y-28815695D01*
X80680077Y-28815695D01*
X81841220Y-28002895D02*
X81686401Y-28002895D01*
X81608991Y-28041600D01*
X81570286Y-28080305D01*
X81492877Y-28196419D01*
X81454172Y-28351238D01*
X81454172Y-28660876D01*
X81492877Y-28738286D01*
X81531582Y-28776990D01*
X81608991Y-28815695D01*
X81763810Y-28815695D01*
X81841220Y-28776990D01*
X81879924Y-28738286D01*
X81918629Y-28660876D01*
X81918629Y-28467352D01*
X81879924Y-28389943D01*
X81841220Y-28351238D01*
X81763810Y-28312533D01*
X81608991Y-28312533D01*
X81531582Y-28351238D01*
X81492877Y-28389943D01*
X81454172Y-28467352D01*
X80680077Y-26783695D02*
X80680077Y-25970895D01*
X80873601Y-25970895D01*
X80989715Y-26009600D01*
X81067124Y-26087010D01*
X81105829Y-26164419D01*
X81144534Y-26319238D01*
X81144534Y-26435352D01*
X81105829Y-26590171D01*
X81067124Y-26667581D01*
X80989715Y-26744990D01*
X80873601Y-26783695D01*
X80680077Y-26783695D01*
X81415467Y-25970895D02*
X81957334Y-25970895D01*
X81608991Y-26783695D01*
X80680077Y-24751695D02*
X80680077Y-23938895D01*
X80873601Y-23938895D01*
X80989715Y-23977600D01*
X81067124Y-24055010D01*
X81105829Y-24132419D01*
X81144534Y-24287238D01*
X81144534Y-24403352D01*
X81105829Y-24558171D01*
X81067124Y-24635581D01*
X80989715Y-24712990D01*
X80873601Y-24751695D01*
X80680077Y-24751695D01*
X81608991Y-24287238D02*
X81531582Y-24248533D01*
X81492877Y-24209829D01*
X81454172Y-24132419D01*
X81454172Y-24093714D01*
X81492877Y-24016305D01*
X81531582Y-23977600D01*
X81608991Y-23938895D01*
X81763810Y-23938895D01*
X81841220Y-23977600D01*
X81879924Y-24016305D01*
X81918629Y-24093714D01*
X81918629Y-24132419D01*
X81879924Y-24209829D01*
X81841220Y-24248533D01*
X81763810Y-24287238D01*
X81608991Y-24287238D01*
X81531582Y-24325943D01*
X81492877Y-24364648D01*
X81454172Y-24442057D01*
X81454172Y-24596876D01*
X81492877Y-24674286D01*
X81531582Y-24712990D01*
X81608991Y-24751695D01*
X81763810Y-24751695D01*
X81841220Y-24712990D01*
X81879924Y-24674286D01*
X81918629Y-24596876D01*
X81918629Y-24442057D01*
X81879924Y-24364648D01*
X81841220Y-24325943D01*
X81763810Y-24287238D01*
X60181067Y-26986895D02*
X60181067Y-27567467D01*
X60142363Y-27683581D01*
X60064953Y-27760990D01*
X59948839Y-27799695D01*
X59871429Y-27799695D01*
X60490705Y-26986895D02*
X60993867Y-26986895D01*
X60722934Y-27296533D01*
X60839048Y-27296533D01*
X60916458Y-27335238D01*
X60955162Y-27373943D01*
X60993867Y-27451352D01*
X60993867Y-27644876D01*
X60955162Y-27722286D01*
X60916458Y-27760990D01*
X60839048Y-27799695D01*
X60606820Y-27799695D01*
X60529410Y-27760990D01*
X60490705Y-27722286D01*
X38845067Y-36130895D02*
X38845067Y-36711467D01*
X38806363Y-36827581D01*
X38728953Y-36904990D01*
X38612839Y-36943695D01*
X38535429Y-36943695D01*
X39580458Y-36401829D02*
X39580458Y-36943695D01*
X39386934Y-36092190D02*
X39193410Y-36672762D01*
X39696572Y-36672762D01*
X69010590Y-40049105D02*
X68933181Y-40010400D01*
X68855771Y-39932990D01*
X68739657Y-39816876D01*
X68662248Y-39778171D01*
X68584838Y-39778171D01*
X68623543Y-39971695D02*
X68546133Y-39932990D01*
X68468724Y-39855581D01*
X68430019Y-39700762D01*
X68430019Y-39429829D01*
X68468724Y-39275010D01*
X68546133Y-39197600D01*
X68623543Y-39158895D01*
X68778362Y-39158895D01*
X68855771Y-39197600D01*
X68933181Y-39275010D01*
X68971886Y-39429829D01*
X68971886Y-39700762D01*
X68933181Y-39855581D01*
X68855771Y-39932990D01*
X68778362Y-39971695D01*
X68623543Y-39971695D01*
X69745981Y-39971695D02*
X69281524Y-39971695D01*
X69513753Y-39971695D02*
X69513753Y-39158895D01*
X69436343Y-39275010D01*
X69358934Y-39352419D01*
X69281524Y-39391124D01*
X88251695Y-14359466D02*
X87864648Y-14630399D01*
X88251695Y-14823923D02*
X87438895Y-14823923D01*
X87438895Y-14514285D01*
X87477600Y-14436876D01*
X87516305Y-14398171D01*
X87593714Y-14359466D01*
X87709829Y-14359466D01*
X87787238Y-14398171D01*
X87825943Y-14436876D01*
X87864648Y-14514285D01*
X87864648Y-14823923D01*
X88251695Y-13585371D02*
X88251695Y-14049828D01*
X88251695Y-13817599D02*
X87438895Y-13817599D01*
X87555010Y-13895009D01*
X87632419Y-13972418D01*
X87671124Y-14049828D01*
X86219695Y-14359466D02*
X85832648Y-14630399D01*
X86219695Y-14823923D02*
X85406895Y-14823923D01*
X85406895Y-14514285D01*
X85445600Y-14436876D01*
X85484305Y-14398171D01*
X85561714Y-14359466D01*
X85677829Y-14359466D01*
X85755238Y-14398171D01*
X85793943Y-14436876D01*
X85832648Y-14514285D01*
X85832648Y-14823923D01*
X85484305Y-14049828D02*
X85445600Y-14011123D01*
X85406895Y-13933714D01*
X85406895Y-13740190D01*
X85445600Y-13662780D01*
X85484305Y-13624076D01*
X85561714Y-13585371D01*
X85639124Y-13585371D01*
X85755238Y-13624076D01*
X86219695Y-14088533D01*
X86219695Y-13585371D01*
X65396534Y-38467695D02*
X65125601Y-38080648D01*
X64932077Y-38467695D02*
X64932077Y-37654895D01*
X65241715Y-37654895D01*
X65319124Y-37693600D01*
X65357829Y-37732305D01*
X65396534Y-37809714D01*
X65396534Y-37925829D01*
X65357829Y-38003238D01*
X65319124Y-38041943D01*
X65241715Y-38080648D01*
X64932077Y-38080648D01*
X65667467Y-37654895D02*
X66170629Y-37654895D01*
X65899696Y-37964533D01*
X66015810Y-37964533D01*
X66093220Y-38003238D01*
X66131924Y-38041943D01*
X66170629Y-38119352D01*
X66170629Y-38312876D01*
X66131924Y-38390286D01*
X66093220Y-38428990D01*
X66015810Y-38467695D01*
X65783582Y-38467695D01*
X65706172Y-38428990D01*
X65667467Y-38390286D01*
X91812534Y-36943695D02*
X91541601Y-36556648D01*
X91348077Y-36943695D02*
X91348077Y-36130895D01*
X91657715Y-36130895D01*
X91735124Y-36169600D01*
X91773829Y-36208305D01*
X91812534Y-36285714D01*
X91812534Y-36401829D01*
X91773829Y-36479238D01*
X91735124Y-36517943D01*
X91657715Y-36556648D01*
X91348077Y-36556648D01*
X92509220Y-36401829D02*
X92509220Y-36943695D01*
X92315696Y-36092190D02*
X92122172Y-36672762D01*
X92625334Y-36672762D01*
X91812534Y-34911695D02*
X91541601Y-34524648D01*
X91348077Y-34911695D02*
X91348077Y-34098895D01*
X91657715Y-34098895D01*
X91735124Y-34137600D01*
X91773829Y-34176305D01*
X91812534Y-34253714D01*
X91812534Y-34369829D01*
X91773829Y-34447238D01*
X91735124Y-34485943D01*
X91657715Y-34524648D01*
X91348077Y-34524648D01*
X92547924Y-34098895D02*
X92160877Y-34098895D01*
X92122172Y-34485943D01*
X92160877Y-34447238D01*
X92238286Y-34408533D01*
X92431810Y-34408533D01*
X92509220Y-34447238D01*
X92547924Y-34485943D01*
X92586629Y-34563352D01*
X92586629Y-34756876D01*
X92547924Y-34834286D01*
X92509220Y-34872990D01*
X92431810Y-34911695D01*
X92238286Y-34911695D01*
X92160877Y-34872990D01*
X92122172Y-34834286D01*
X91812534Y-32879695D02*
X91541601Y-32492648D01*
X91348077Y-32879695D02*
X91348077Y-32066895D01*
X91657715Y-32066895D01*
X91735124Y-32105600D01*
X91773829Y-32144305D01*
X91812534Y-32221714D01*
X91812534Y-32337829D01*
X91773829Y-32415238D01*
X91735124Y-32453943D01*
X91657715Y-32492648D01*
X91348077Y-32492648D01*
X92509220Y-32066895D02*
X92354401Y-32066895D01*
X92276991Y-32105600D01*
X92238286Y-32144305D01*
X92160877Y-32260419D01*
X92122172Y-32415238D01*
X92122172Y-32724876D01*
X92160877Y-32802286D01*
X92199582Y-32840990D01*
X92276991Y-32879695D01*
X92431810Y-32879695D01*
X92509220Y-32840990D01*
X92547924Y-32802286D01*
X92586629Y-32724876D01*
X92586629Y-32531352D01*
X92547924Y-32453943D01*
X92509220Y-32415238D01*
X92431810Y-32376533D01*
X92276991Y-32376533D01*
X92199582Y-32415238D01*
X92160877Y-32453943D01*
X92122172Y-32531352D01*
X91812534Y-30847695D02*
X91541601Y-30460648D01*
X91348077Y-30847695D02*
X91348077Y-30034895D01*
X91657715Y-30034895D01*
X91735124Y-30073600D01*
X91773829Y-30112305D01*
X91812534Y-30189714D01*
X91812534Y-30305829D01*
X91773829Y-30383238D01*
X91735124Y-30421943D01*
X91657715Y-30460648D01*
X91348077Y-30460648D01*
X92083467Y-30034895D02*
X92625334Y-30034895D01*
X92276991Y-30847695D01*
X91812534Y-28815695D02*
X91541601Y-28428648D01*
X91348077Y-28815695D02*
X91348077Y-28002895D01*
X91657715Y-28002895D01*
X91735124Y-28041600D01*
X91773829Y-28080305D01*
X91812534Y-28157714D01*
X91812534Y-28273829D01*
X91773829Y-28351238D01*
X91735124Y-28389943D01*
X91657715Y-28428648D01*
X91348077Y-28428648D01*
X92276991Y-28351238D02*
X92199582Y-28312533D01*
X92160877Y-28273829D01*
X92122172Y-28196419D01*
X92122172Y-28157714D01*
X92160877Y-28080305D01*
X92199582Y-28041600D01*
X92276991Y-28002895D01*
X92431810Y-28002895D01*
X92509220Y-28041600D01*
X92547924Y-28080305D01*
X92586629Y-28157714D01*
X92586629Y-28196419D01*
X92547924Y-28273829D01*
X92509220Y-28312533D01*
X92431810Y-28351238D01*
X92276991Y-28351238D01*
X92199582Y-28389943D01*
X92160877Y-28428648D01*
X92122172Y-28506057D01*
X92122172Y-28660876D01*
X92160877Y-28738286D01*
X92199582Y-28776990D01*
X92276991Y-28815695D01*
X92431810Y-28815695D01*
X92509220Y-28776990D01*
X92547924Y-28738286D01*
X92586629Y-28660876D01*
X92586629Y-28506057D01*
X92547924Y-28428648D01*
X92509220Y-28389943D01*
X92431810Y-28351238D01*
X72503695Y-38743466D02*
X72116648Y-39014399D01*
X72503695Y-39207923D02*
X71690895Y-39207923D01*
X71690895Y-38898285D01*
X71729600Y-38820876D01*
X71768305Y-38782171D01*
X71845714Y-38743466D01*
X71961829Y-38743466D01*
X72039238Y-38782171D01*
X72077943Y-38820876D01*
X72116648Y-38898285D01*
X72116648Y-39207923D01*
X72503695Y-38356418D02*
X72503695Y-38201599D01*
X72464990Y-38124190D01*
X72426286Y-38085485D01*
X72310171Y-38008076D01*
X72155352Y-37969371D01*
X71845714Y-37969371D01*
X71768305Y-38008076D01*
X71729600Y-38046780D01*
X71690895Y-38124190D01*
X71690895Y-38279009D01*
X71729600Y-38356418D01*
X71768305Y-38395123D01*
X71845714Y-38433828D01*
X72039238Y-38433828D01*
X72116648Y-38395123D01*
X72155352Y-38356418D01*
X72194057Y-38279009D01*
X72194057Y-38124190D01*
X72155352Y-38046780D01*
X72116648Y-38008076D01*
X72039238Y-37969371D01*
X65009486Y-35419695D02*
X64738553Y-35032648D01*
X64545029Y-35419695D02*
X64545029Y-34606895D01*
X64854667Y-34606895D01*
X64932076Y-34645600D01*
X64970781Y-34684305D01*
X65009486Y-34761714D01*
X65009486Y-34877829D01*
X64970781Y-34955238D01*
X64932076Y-34993943D01*
X64854667Y-35032648D01*
X64545029Y-35032648D01*
X65783581Y-35419695D02*
X65319124Y-35419695D01*
X65551353Y-35419695D02*
X65551353Y-34606895D01*
X65473943Y-34723010D01*
X65396534Y-34800419D01*
X65319124Y-34839124D01*
X66286743Y-34606895D02*
X66364152Y-34606895D01*
X66441562Y-34645600D01*
X66480267Y-34684305D01*
X66518971Y-34761714D01*
X66557676Y-34916533D01*
X66557676Y-35110057D01*
X66518971Y-35264876D01*
X66480267Y-35342286D01*
X66441562Y-35380990D01*
X66364152Y-35419695D01*
X66286743Y-35419695D01*
X66209333Y-35380990D01*
X66170629Y-35342286D01*
X66131924Y-35264876D01*
X66093219Y-35110057D01*
X66093219Y-34916533D01*
X66131924Y-34761714D01*
X66170629Y-34684305D01*
X66209333Y-34645600D01*
X66286743Y-34606895D01*
X88251695Y-39130514D02*
X87864648Y-39401447D01*
X88251695Y-39594971D02*
X87438895Y-39594971D01*
X87438895Y-39285333D01*
X87477600Y-39207924D01*
X87516305Y-39169219D01*
X87593714Y-39130514D01*
X87709829Y-39130514D01*
X87787238Y-39169219D01*
X87825943Y-39207924D01*
X87864648Y-39285333D01*
X87864648Y-39594971D01*
X88251695Y-38356419D02*
X88251695Y-38820876D01*
X88251695Y-38588647D02*
X87438895Y-38588647D01*
X87555010Y-38666057D01*
X87632419Y-38743466D01*
X87671124Y-38820876D01*
X88251695Y-37582324D02*
X88251695Y-38046781D01*
X88251695Y-37814552D02*
X87438895Y-37814552D01*
X87555010Y-37891962D01*
X87632419Y-37969371D01*
X87671124Y-38046781D01*
X65009486Y-36435695D02*
X64738553Y-36048648D01*
X64545029Y-36435695D02*
X64545029Y-35622895D01*
X64854667Y-35622895D01*
X64932076Y-35661600D01*
X64970781Y-35700305D01*
X65009486Y-35777714D01*
X65009486Y-35893829D01*
X64970781Y-35971238D01*
X64932076Y-36009943D01*
X64854667Y-36048648D01*
X64545029Y-36048648D01*
X65783581Y-36435695D02*
X65319124Y-36435695D01*
X65551353Y-36435695D02*
X65551353Y-35622895D01*
X65473943Y-35739010D01*
X65396534Y-35816419D01*
X65319124Y-35855124D01*
X66093219Y-35700305D02*
X66131924Y-35661600D01*
X66209333Y-35622895D01*
X66402857Y-35622895D01*
X66480267Y-35661600D01*
X66518971Y-35700305D01*
X66557676Y-35777714D01*
X66557676Y-35855124D01*
X66518971Y-35971238D01*
X66054514Y-36435695D01*
X66557676Y-36435695D01*
X91806486Y-26783695D02*
X91535553Y-26396648D01*
X91342029Y-26783695D02*
X91342029Y-25970895D01*
X91651667Y-25970895D01*
X91729076Y-26009600D01*
X91767781Y-26048305D01*
X91806486Y-26125714D01*
X91806486Y-26241829D01*
X91767781Y-26319238D01*
X91729076Y-26357943D01*
X91651667Y-26396648D01*
X91342029Y-26396648D01*
X92580581Y-26783695D02*
X92116124Y-26783695D01*
X92348353Y-26783695D02*
X92348353Y-25970895D01*
X92270943Y-26087010D01*
X92193534Y-26164419D01*
X92116124Y-26203124D01*
X92851514Y-25970895D02*
X93354676Y-25970895D01*
X93083743Y-26280533D01*
X93199857Y-26280533D01*
X93277267Y-26319238D01*
X93315971Y-26357943D01*
X93354676Y-26435352D01*
X93354676Y-26628876D01*
X93315971Y-26706286D01*
X93277267Y-26744990D01*
X93199857Y-26783695D01*
X92967629Y-26783695D01*
X92890219Y-26744990D01*
X92851514Y-26706286D01*
X91806486Y-24751695D02*
X91535553Y-24364648D01*
X91342029Y-24751695D02*
X91342029Y-23938895D01*
X91651667Y-23938895D01*
X91729076Y-23977600D01*
X91767781Y-24016305D01*
X91806486Y-24093714D01*
X91806486Y-24209829D01*
X91767781Y-24287238D01*
X91729076Y-24325943D01*
X91651667Y-24364648D01*
X91342029Y-24364648D01*
X92580581Y-24751695D02*
X92116124Y-24751695D01*
X92348353Y-24751695D02*
X92348353Y-23938895D01*
X92270943Y-24055010D01*
X92193534Y-24132419D01*
X92116124Y-24171124D01*
X93277267Y-24209829D02*
X93277267Y-24751695D01*
X93083743Y-23900190D02*
X92890219Y-24480762D01*
X93393381Y-24480762D01*
X69709695Y-35574514D02*
X69322648Y-35845447D01*
X69709695Y-36038971D02*
X68896895Y-36038971D01*
X68896895Y-35729333D01*
X68935600Y-35651924D01*
X68974305Y-35613219D01*
X69051714Y-35574514D01*
X69167829Y-35574514D01*
X69245238Y-35613219D01*
X69283943Y-35651924D01*
X69322648Y-35729333D01*
X69322648Y-36038971D01*
X69709695Y-34800419D02*
X69709695Y-35264876D01*
X69709695Y-35032647D02*
X68896895Y-35032647D01*
X69013010Y-35110057D01*
X69090419Y-35187466D01*
X69129124Y-35264876D01*
X68896895Y-34065029D02*
X68896895Y-34452076D01*
X69283943Y-34490781D01*
X69245238Y-34452076D01*
X69206533Y-34374667D01*
X69206533Y-34181143D01*
X69245238Y-34103733D01*
X69283943Y-34065029D01*
X69361352Y-34026324D01*
X69554876Y-34026324D01*
X69632286Y-34065029D01*
X69670990Y-34103733D01*
X69709695Y-34181143D01*
X69709695Y-34374667D01*
X69670990Y-34452076D01*
X69632286Y-34490781D01*
X71741695Y-35574514D02*
X71354648Y-35845447D01*
X71741695Y-36038971D02*
X70928895Y-36038971D01*
X70928895Y-35729333D01*
X70967600Y-35651924D01*
X71006305Y-35613219D01*
X71083714Y-35574514D01*
X71199829Y-35574514D01*
X71277238Y-35613219D01*
X71315943Y-35651924D01*
X71354648Y-35729333D01*
X71354648Y-36038971D01*
X71741695Y-34800419D02*
X71741695Y-35264876D01*
X71741695Y-35032647D02*
X70928895Y-35032647D01*
X71045010Y-35110057D01*
X71122419Y-35187466D01*
X71161124Y-35264876D01*
X70928895Y-34103733D02*
X70928895Y-34258552D01*
X70967600Y-34335962D01*
X71006305Y-34374667D01*
X71122419Y-34452076D01*
X71277238Y-34490781D01*
X71586876Y-34490781D01*
X71664286Y-34452076D01*
X71702990Y-34413371D01*
X71741695Y-34335962D01*
X71741695Y-34181143D01*
X71702990Y-34103733D01*
X71664286Y-34065029D01*
X71586876Y-34026324D01*
X71393352Y-34026324D01*
X71315943Y-34065029D01*
X71277238Y-34103733D01*
X71238533Y-34181143D01*
X71238533Y-34335962D01*
X71277238Y-34413371D01*
X71315943Y-34452076D01*
X71393352Y-34490781D01*
X70089486Y-19403695D02*
X69818553Y-19016648D01*
X69625029Y-19403695D02*
X69625029Y-18590895D01*
X69934667Y-18590895D01*
X70012076Y-18629600D01*
X70050781Y-18668305D01*
X70089486Y-18745714D01*
X70089486Y-18861829D01*
X70050781Y-18939238D01*
X70012076Y-18977943D01*
X69934667Y-19016648D01*
X69625029Y-19016648D01*
X70863581Y-19403695D02*
X70399124Y-19403695D01*
X70631353Y-19403695D02*
X70631353Y-18590895D01*
X70553943Y-18707010D01*
X70476534Y-18784419D01*
X70399124Y-18823124D01*
X71134514Y-18590895D02*
X71676381Y-18590895D01*
X71328038Y-19403695D01*
X40117486Y-14591695D02*
X39846553Y-14204648D01*
X39653029Y-14591695D02*
X39653029Y-13778895D01*
X39962667Y-13778895D01*
X40040076Y-13817600D01*
X40078781Y-13856305D01*
X40117486Y-13933714D01*
X40117486Y-14049829D01*
X40078781Y-14127238D01*
X40040076Y-14165943D01*
X39962667Y-14204648D01*
X39653029Y-14204648D01*
X40891581Y-14591695D02*
X40427124Y-14591695D01*
X40659353Y-14591695D02*
X40659353Y-13778895D01*
X40581943Y-13895010D01*
X40504534Y-13972419D01*
X40427124Y-14011124D01*
X41356038Y-14127238D02*
X41278629Y-14088533D01*
X41239924Y-14049829D01*
X41201219Y-13972419D01*
X41201219Y-13933714D01*
X41239924Y-13856305D01*
X41278629Y-13817600D01*
X41356038Y-13778895D01*
X41510857Y-13778895D01*
X41588267Y-13817600D01*
X41626971Y-13856305D01*
X41665676Y-13933714D01*
X41665676Y-13972419D01*
X41626971Y-14049829D01*
X41588267Y-14088533D01*
X41510857Y-14127238D01*
X41356038Y-14127238D01*
X41278629Y-14165943D01*
X41239924Y-14204648D01*
X41201219Y-14282057D01*
X41201219Y-14436876D01*
X41239924Y-14514286D01*
X41278629Y-14552990D01*
X41356038Y-14591695D01*
X41510857Y-14591695D01*
X41588267Y-14552990D01*
X41626971Y-14514286D01*
X41665676Y-14436876D01*
X41665676Y-14282057D01*
X41626971Y-14204648D01*
X41588267Y-14165943D01*
X41510857Y-14127238D01*
X20179695Y-34050514D02*
X19792648Y-34321447D01*
X20179695Y-34514971D02*
X19366895Y-34514971D01*
X19366895Y-34205333D01*
X19405600Y-34127924D01*
X19444305Y-34089219D01*
X19521714Y-34050514D01*
X19637829Y-34050514D01*
X19715238Y-34089219D01*
X19753943Y-34127924D01*
X19792648Y-34205333D01*
X19792648Y-34514971D01*
X20179695Y-33276419D02*
X20179695Y-33740876D01*
X20179695Y-33508647D02*
X19366895Y-33508647D01*
X19483010Y-33586057D01*
X19560419Y-33663466D01*
X19599124Y-33740876D01*
X20179695Y-32889371D02*
X20179695Y-32734552D01*
X20140990Y-32657143D01*
X20102286Y-32618438D01*
X19986171Y-32541029D01*
X19831352Y-32502324D01*
X19521714Y-32502324D01*
X19444305Y-32541029D01*
X19405600Y-32579733D01*
X19366895Y-32657143D01*
X19366895Y-32811962D01*
X19405600Y-32889371D01*
X19444305Y-32928076D01*
X19521714Y-32966781D01*
X19715238Y-32966781D01*
X19792648Y-32928076D01*
X19831352Y-32889371D01*
X19870057Y-32811962D01*
X19870057Y-32657143D01*
X19831352Y-32579733D01*
X19792648Y-32541029D01*
X19715238Y-32502324D01*
X22211695Y-34050514D02*
X21824648Y-34321447D01*
X22211695Y-34514971D02*
X21398895Y-34514971D01*
X21398895Y-34205333D01*
X21437600Y-34127924D01*
X21476305Y-34089219D01*
X21553714Y-34050514D01*
X21669829Y-34050514D01*
X21747238Y-34089219D01*
X21785943Y-34127924D01*
X21824648Y-34205333D01*
X21824648Y-34514971D01*
X21476305Y-33740876D02*
X21437600Y-33702171D01*
X21398895Y-33624762D01*
X21398895Y-33431238D01*
X21437600Y-33353828D01*
X21476305Y-33315124D01*
X21553714Y-33276419D01*
X21631124Y-33276419D01*
X21747238Y-33315124D01*
X22211695Y-33779581D01*
X22211695Y-33276419D01*
X21398895Y-32773257D02*
X21398895Y-32695848D01*
X21437600Y-32618438D01*
X21476305Y-32579733D01*
X21553714Y-32541029D01*
X21708533Y-32502324D01*
X21902057Y-32502324D01*
X22056876Y-32541029D01*
X22134286Y-32579733D01*
X22172990Y-32618438D01*
X22211695Y-32695848D01*
X22211695Y-32773257D01*
X22172990Y-32850667D01*
X22134286Y-32889371D01*
X22056876Y-32928076D01*
X21902057Y-32966781D01*
X21708533Y-32966781D01*
X21553714Y-32928076D01*
X21476305Y-32889371D01*
X21437600Y-32850667D01*
X21398895Y-32773257D01*
X24243695Y-34050514D02*
X23856648Y-34321447D01*
X24243695Y-34514971D02*
X23430895Y-34514971D01*
X23430895Y-34205333D01*
X23469600Y-34127924D01*
X23508305Y-34089219D01*
X23585714Y-34050514D01*
X23701829Y-34050514D01*
X23779238Y-34089219D01*
X23817943Y-34127924D01*
X23856648Y-34205333D01*
X23856648Y-34514971D01*
X23508305Y-33740876D02*
X23469600Y-33702171D01*
X23430895Y-33624762D01*
X23430895Y-33431238D01*
X23469600Y-33353828D01*
X23508305Y-33315124D01*
X23585714Y-33276419D01*
X23663124Y-33276419D01*
X23779238Y-33315124D01*
X24243695Y-33779581D01*
X24243695Y-33276419D01*
X24243695Y-32502324D02*
X24243695Y-32966781D01*
X24243695Y-32734552D02*
X23430895Y-32734552D01*
X23547010Y-32811962D01*
X23624419Y-32889371D01*
X23663124Y-32966781D01*
X26275695Y-34050514D02*
X25888648Y-34321447D01*
X26275695Y-34514971D02*
X25462895Y-34514971D01*
X25462895Y-34205333D01*
X25501600Y-34127924D01*
X25540305Y-34089219D01*
X25617714Y-34050514D01*
X25733829Y-34050514D01*
X25811238Y-34089219D01*
X25849943Y-34127924D01*
X25888648Y-34205333D01*
X25888648Y-34514971D01*
X25540305Y-33740876D02*
X25501600Y-33702171D01*
X25462895Y-33624762D01*
X25462895Y-33431238D01*
X25501600Y-33353828D01*
X25540305Y-33315124D01*
X25617714Y-33276419D01*
X25695124Y-33276419D01*
X25811238Y-33315124D01*
X26275695Y-33779581D01*
X26275695Y-33276419D01*
X25540305Y-32966781D02*
X25501600Y-32928076D01*
X25462895Y-32850667D01*
X25462895Y-32657143D01*
X25501600Y-32579733D01*
X25540305Y-32541029D01*
X25617714Y-32502324D01*
X25695124Y-32502324D01*
X25811238Y-32541029D01*
X26275695Y-33005486D01*
X26275695Y-32502324D01*
X3923695Y-34050514D02*
X3536648Y-34321447D01*
X3923695Y-34514971D02*
X3110895Y-34514971D01*
X3110895Y-34205333D01*
X3149600Y-34127924D01*
X3188305Y-34089219D01*
X3265714Y-34050514D01*
X3381829Y-34050514D01*
X3459238Y-34089219D01*
X3497943Y-34127924D01*
X3536648Y-34205333D01*
X3536648Y-34514971D01*
X3188305Y-33740876D02*
X3149600Y-33702171D01*
X3110895Y-33624762D01*
X3110895Y-33431238D01*
X3149600Y-33353828D01*
X3188305Y-33315124D01*
X3265714Y-33276419D01*
X3343124Y-33276419D01*
X3459238Y-33315124D01*
X3923695Y-33779581D01*
X3923695Y-33276419D01*
X3110895Y-33005486D02*
X3110895Y-32502324D01*
X3420533Y-32773257D01*
X3420533Y-32657143D01*
X3459238Y-32579733D01*
X3497943Y-32541029D01*
X3575352Y-32502324D01*
X3768876Y-32502324D01*
X3846286Y-32541029D01*
X3884990Y-32579733D01*
X3923695Y-32657143D01*
X3923695Y-32889371D01*
X3884990Y-32966781D01*
X3846286Y-33005486D01*
X5955695Y-34050514D02*
X5568648Y-34321447D01*
X5955695Y-34514971D02*
X5142895Y-34514971D01*
X5142895Y-34205333D01*
X5181600Y-34127924D01*
X5220305Y-34089219D01*
X5297714Y-34050514D01*
X5413829Y-34050514D01*
X5491238Y-34089219D01*
X5529943Y-34127924D01*
X5568648Y-34205333D01*
X5568648Y-34514971D01*
X5220305Y-33740876D02*
X5181600Y-33702171D01*
X5142895Y-33624762D01*
X5142895Y-33431238D01*
X5181600Y-33353828D01*
X5220305Y-33315124D01*
X5297714Y-33276419D01*
X5375124Y-33276419D01*
X5491238Y-33315124D01*
X5955695Y-33779581D01*
X5955695Y-33276419D01*
X5413829Y-32579733D02*
X5955695Y-32579733D01*
X5104190Y-32773257D02*
X5684762Y-32966781D01*
X5684762Y-32463619D01*
X7987695Y-34050514D02*
X7600648Y-34321447D01*
X7987695Y-34514971D02*
X7174895Y-34514971D01*
X7174895Y-34205333D01*
X7213600Y-34127924D01*
X7252305Y-34089219D01*
X7329714Y-34050514D01*
X7445829Y-34050514D01*
X7523238Y-34089219D01*
X7561943Y-34127924D01*
X7600648Y-34205333D01*
X7600648Y-34514971D01*
X7252305Y-33740876D02*
X7213600Y-33702171D01*
X7174895Y-33624762D01*
X7174895Y-33431238D01*
X7213600Y-33353828D01*
X7252305Y-33315124D01*
X7329714Y-33276419D01*
X7407124Y-33276419D01*
X7523238Y-33315124D01*
X7987695Y-33779581D01*
X7987695Y-33276419D01*
X7174895Y-32541029D02*
X7174895Y-32928076D01*
X7561943Y-32966781D01*
X7523238Y-32928076D01*
X7484533Y-32850667D01*
X7484533Y-32657143D01*
X7523238Y-32579733D01*
X7561943Y-32541029D01*
X7639352Y-32502324D01*
X7832876Y-32502324D01*
X7910286Y-32541029D01*
X7948990Y-32579733D01*
X7987695Y-32657143D01*
X7987695Y-32850667D01*
X7948990Y-32928076D01*
X7910286Y-32966781D01*
X10019695Y-34050514D02*
X9632648Y-34321447D01*
X10019695Y-34514971D02*
X9206895Y-34514971D01*
X9206895Y-34205333D01*
X9245600Y-34127924D01*
X9284305Y-34089219D01*
X9361714Y-34050514D01*
X9477829Y-34050514D01*
X9555238Y-34089219D01*
X9593943Y-34127924D01*
X9632648Y-34205333D01*
X9632648Y-34514971D01*
X9284305Y-33740876D02*
X9245600Y-33702171D01*
X9206895Y-33624762D01*
X9206895Y-33431238D01*
X9245600Y-33353828D01*
X9284305Y-33315124D01*
X9361714Y-33276419D01*
X9439124Y-33276419D01*
X9555238Y-33315124D01*
X10019695Y-33779581D01*
X10019695Y-33276419D01*
X9206895Y-32579733D02*
X9206895Y-32734552D01*
X9245600Y-32811962D01*
X9284305Y-32850667D01*
X9400419Y-32928076D01*
X9555238Y-32966781D01*
X9864876Y-32966781D01*
X9942286Y-32928076D01*
X9980990Y-32889371D01*
X10019695Y-32811962D01*
X10019695Y-32657143D01*
X9980990Y-32579733D01*
X9942286Y-32541029D01*
X9864876Y-32502324D01*
X9671352Y-32502324D01*
X9593943Y-32541029D01*
X9555238Y-32579733D01*
X9516533Y-32657143D01*
X9516533Y-32811962D01*
X9555238Y-32889371D01*
X9593943Y-32928076D01*
X9671352Y-32966781D01*
X12051695Y-34050514D02*
X11664648Y-34321447D01*
X12051695Y-34514971D02*
X11238895Y-34514971D01*
X11238895Y-34205333D01*
X11277600Y-34127924D01*
X11316305Y-34089219D01*
X11393714Y-34050514D01*
X11509829Y-34050514D01*
X11587238Y-34089219D01*
X11625943Y-34127924D01*
X11664648Y-34205333D01*
X11664648Y-34514971D01*
X11316305Y-33740876D02*
X11277600Y-33702171D01*
X11238895Y-33624762D01*
X11238895Y-33431238D01*
X11277600Y-33353828D01*
X11316305Y-33315124D01*
X11393714Y-33276419D01*
X11471124Y-33276419D01*
X11587238Y-33315124D01*
X12051695Y-33779581D01*
X12051695Y-33276419D01*
X11238895Y-33005486D02*
X11238895Y-32463619D01*
X12051695Y-32811962D01*
X14083695Y-34050514D02*
X13696648Y-34321447D01*
X14083695Y-34514971D02*
X13270895Y-34514971D01*
X13270895Y-34205333D01*
X13309600Y-34127924D01*
X13348305Y-34089219D01*
X13425714Y-34050514D01*
X13541829Y-34050514D01*
X13619238Y-34089219D01*
X13657943Y-34127924D01*
X13696648Y-34205333D01*
X13696648Y-34514971D01*
X13348305Y-33740876D02*
X13309600Y-33702171D01*
X13270895Y-33624762D01*
X13270895Y-33431238D01*
X13309600Y-33353828D01*
X13348305Y-33315124D01*
X13425714Y-33276419D01*
X13503124Y-33276419D01*
X13619238Y-33315124D01*
X14083695Y-33779581D01*
X14083695Y-33276419D01*
X13619238Y-32811962D02*
X13580533Y-32889371D01*
X13541829Y-32928076D01*
X13464419Y-32966781D01*
X13425714Y-32966781D01*
X13348305Y-32928076D01*
X13309600Y-32889371D01*
X13270895Y-32811962D01*
X13270895Y-32657143D01*
X13309600Y-32579733D01*
X13348305Y-32541029D01*
X13425714Y-32502324D01*
X13464419Y-32502324D01*
X13541829Y-32541029D01*
X13580533Y-32579733D01*
X13619238Y-32657143D01*
X13619238Y-32811962D01*
X13657943Y-32889371D01*
X13696648Y-32928076D01*
X13774057Y-32966781D01*
X13928876Y-32966781D01*
X14006286Y-32928076D01*
X14044990Y-32889371D01*
X14083695Y-32811962D01*
X14083695Y-32657143D01*
X14044990Y-32579733D01*
X14006286Y-32541029D01*
X13928876Y-32502324D01*
X13774057Y-32502324D01*
X13696648Y-32541029D01*
X13657943Y-32579733D01*
X13619238Y-32657143D01*
X16115695Y-34050514D02*
X15728648Y-34321447D01*
X16115695Y-34514971D02*
X15302895Y-34514971D01*
X15302895Y-34205333D01*
X15341600Y-34127924D01*
X15380305Y-34089219D01*
X15457714Y-34050514D01*
X15573829Y-34050514D01*
X15651238Y-34089219D01*
X15689943Y-34127924D01*
X15728648Y-34205333D01*
X15728648Y-34514971D01*
X15380305Y-33740876D02*
X15341600Y-33702171D01*
X15302895Y-33624762D01*
X15302895Y-33431238D01*
X15341600Y-33353828D01*
X15380305Y-33315124D01*
X15457714Y-33276419D01*
X15535124Y-33276419D01*
X15651238Y-33315124D01*
X16115695Y-33779581D01*
X16115695Y-33276419D01*
X16115695Y-32889371D02*
X16115695Y-32734552D01*
X16076990Y-32657143D01*
X16038286Y-32618438D01*
X15922171Y-32541029D01*
X15767352Y-32502324D01*
X15457714Y-32502324D01*
X15380305Y-32541029D01*
X15341600Y-32579733D01*
X15302895Y-32657143D01*
X15302895Y-32811962D01*
X15341600Y-32889371D01*
X15380305Y-32928076D01*
X15457714Y-32966781D01*
X15651238Y-32966781D01*
X15728648Y-32928076D01*
X15767352Y-32889371D01*
X15806057Y-32811962D01*
X15806057Y-32657143D01*
X15767352Y-32579733D01*
X15728648Y-32541029D01*
X15651238Y-32502324D01*
X18147695Y-34050514D02*
X17760648Y-34321447D01*
X18147695Y-34514971D02*
X17334895Y-34514971D01*
X17334895Y-34205333D01*
X17373600Y-34127924D01*
X17412305Y-34089219D01*
X17489714Y-34050514D01*
X17605829Y-34050514D01*
X17683238Y-34089219D01*
X17721943Y-34127924D01*
X17760648Y-34205333D01*
X17760648Y-34514971D01*
X17334895Y-33779581D02*
X17334895Y-33276419D01*
X17644533Y-33547352D01*
X17644533Y-33431238D01*
X17683238Y-33353828D01*
X17721943Y-33315124D01*
X17799352Y-33276419D01*
X17992876Y-33276419D01*
X18070286Y-33315124D01*
X18108990Y-33353828D01*
X18147695Y-33431238D01*
X18147695Y-33663466D01*
X18108990Y-33740876D01*
X18070286Y-33779581D01*
X17334895Y-32773257D02*
X17334895Y-32695848D01*
X17373600Y-32618438D01*
X17412305Y-32579733D01*
X17489714Y-32541029D01*
X17644533Y-32502324D01*
X17838057Y-32502324D01*
X17992876Y-32541029D01*
X18070286Y-32579733D01*
X18108990Y-32618438D01*
X18147695Y-32695848D01*
X18147695Y-32773257D01*
X18108990Y-32850667D01*
X18070286Y-32889371D01*
X17992876Y-32928076D01*
X17838057Y-32966781D01*
X17644533Y-32966781D01*
X17489714Y-32928076D01*
X17412305Y-32889371D01*
X17373600Y-32850667D01*
X17334895Y-32773257D01*
X73040724Y-18858895D02*
X73040724Y-19516876D01*
X73079429Y-19594286D01*
X73118133Y-19632990D01*
X73195543Y-19671695D01*
X73350362Y-19671695D01*
X73427771Y-19632990D01*
X73466476Y-19594286D01*
X73505181Y-19516876D01*
X73505181Y-18858895D01*
X73853524Y-18936305D02*
X73892229Y-18897600D01*
X73969638Y-18858895D01*
X74163162Y-18858895D01*
X74240572Y-18897600D01*
X74279276Y-18936305D01*
X74317981Y-19013714D01*
X74317981Y-19091124D01*
X74279276Y-19207238D01*
X73814819Y-19671695D01*
X74317981Y-19671695D01*
X53228724Y-13270895D02*
X53228724Y-13928876D01*
X53267429Y-14006286D01*
X53306133Y-14044990D01*
X53383543Y-14083695D01*
X53538362Y-14083695D01*
X53615771Y-14044990D01*
X53654476Y-14006286D01*
X53693181Y-13928876D01*
X53693181Y-13270895D01*
X54467276Y-13270895D02*
X54080229Y-13270895D01*
X54041524Y-13657943D01*
X54080229Y-13619238D01*
X54157638Y-13580533D01*
X54351162Y-13580533D01*
X54428572Y-13619238D01*
X54467276Y-13657943D01*
X54505981Y-13735352D01*
X54505981Y-13928876D01*
X54467276Y-14006286D01*
X54428572Y-14044990D01*
X54351162Y-14083695D01*
X54157638Y-14083695D01*
X54080229Y-14044990D01*
X54041524Y-14006286D01*
X32632953Y-7092648D02*
X32632953Y-7479695D01*
X32362020Y-6666895D02*
X32632953Y-7092648D01*
X32903886Y-6666895D01*
X33600572Y-7479695D02*
X33136115Y-7479695D01*
X33368344Y-7479695D02*
X33368344Y-6666895D01*
X33290934Y-6783010D01*
X33213525Y-6860419D01*
X33136115Y-6899124D01*
X78120724Y-46290895D02*
X78120724Y-46948876D01*
X78159429Y-47026286D01*
X78198133Y-47064990D01*
X78275543Y-47103695D01*
X78430362Y-47103695D01*
X78507771Y-47064990D01*
X78546476Y-47026286D01*
X78585181Y-46948876D01*
X78585181Y-46290895D01*
X79397981Y-47103695D02*
X78933524Y-47103695D01*
X79165753Y-47103695D02*
X79165753Y-46290895D01*
X79088343Y-46407010D01*
X79010934Y-46484419D01*
X78933524Y-46523124D01*
X56117067Y-39057943D02*
X55846134Y-39057943D01*
X55846134Y-39483695D02*
X55846134Y-38670895D01*
X56233181Y-38670895D01*
X56968572Y-39483695D02*
X56504115Y-39483695D01*
X56736344Y-39483695D02*
X56736344Y-38670895D01*
X56658934Y-38787010D01*
X56581525Y-38864419D01*
X56504115Y-38903124D01*
X10905067Y-55374895D02*
X10905067Y-55955467D01*
X10866363Y-56071581D01*
X10788953Y-56148990D01*
X10672839Y-56187695D01*
X10595429Y-56187695D01*
X11330820Y-56187695D02*
X11485639Y-56187695D01*
X11563048Y-56148990D01*
X11601753Y-56110286D01*
X11679162Y-55994171D01*
X11717867Y-55839352D01*
X11717867Y-55529714D01*
X11679162Y-55452305D01*
X11640458Y-55413600D01*
X11563048Y-55374895D01*
X11408229Y-55374895D01*
X11330820Y-55413600D01*
X11292115Y-55452305D01*
X11253410Y-55529714D01*
X11253410Y-55723238D01*
X11292115Y-55800648D01*
X11330820Y-55839352D01*
X11408229Y-55878057D01*
X11563048Y-55878057D01*
X11640458Y-55839352D01*
X11679162Y-55800648D01*
X11717867Y-55723238D01*
X10518019Y-51818895D02*
X10518019Y-52399467D01*
X10479315Y-52515581D01*
X10401905Y-52592990D01*
X10285791Y-52631695D01*
X10208381Y-52631695D01*
X11330819Y-52631695D02*
X10866362Y-52631695D01*
X11098591Y-52631695D02*
X11098591Y-51818895D01*
X11021181Y-51935010D01*
X10943772Y-52012419D01*
X10866362Y-52051124D01*
X11833981Y-51818895D02*
X11911390Y-51818895D01*
X11988800Y-51857600D01*
X12027505Y-51896305D01*
X12066209Y-51973714D01*
X12104914Y-52128533D01*
X12104914Y-52322057D01*
X12066209Y-52476876D01*
X12027505Y-52554286D01*
X11988800Y-52592990D01*
X11911390Y-52631695D01*
X11833981Y-52631695D01*
X11756571Y-52592990D01*
X11717867Y-52554286D01*
X11679162Y-52476876D01*
X11640457Y-52322057D01*
X11640457Y-52128533D01*
X11679162Y-51973714D01*
X11717867Y-51896305D01*
X11756571Y-51857600D01*
X11833981Y-51818895D01*
X73040724Y-36638895D02*
X73040724Y-37296876D01*
X73079429Y-37374286D01*
X73118133Y-37412990D01*
X73195543Y-37451695D01*
X73350362Y-37451695D01*
X73427771Y-37412990D01*
X73466476Y-37374286D01*
X73505181Y-37296876D01*
X73505181Y-36638895D01*
X74240572Y-36909829D02*
X74240572Y-37451695D01*
X74047048Y-36600190D02*
X73853524Y-37180762D01*
X74356686Y-37180762D01*
X23764724Y-25072895D02*
X23764724Y-25730876D01*
X23803429Y-25808286D01*
X23842133Y-25846990D01*
X23919543Y-25885695D01*
X24074362Y-25885695D01*
X24151771Y-25846990D01*
X24190476Y-25808286D01*
X24229181Y-25730876D01*
X24229181Y-25072895D01*
X24964572Y-25072895D02*
X24809753Y-25072895D01*
X24732343Y-25111600D01*
X24693638Y-25150305D01*
X24616229Y-25266419D01*
X24577524Y-25421238D01*
X24577524Y-25730876D01*
X24616229Y-25808286D01*
X24654934Y-25846990D01*
X24732343Y-25885695D01*
X24887162Y-25885695D01*
X24964572Y-25846990D01*
X25003276Y-25808286D01*
X25041981Y-25730876D01*
X25041981Y-25537352D01*
X25003276Y-25459943D01*
X24964572Y-25421238D01*
X24887162Y-25382533D01*
X24732343Y-25382533D01*
X24654934Y-25421238D01*
X24616229Y-25459943D01*
X24577524Y-25537352D01*
X12588724Y-24954895D02*
X12588724Y-25612876D01*
X12627429Y-25690286D01*
X12666133Y-25728990D01*
X12743543Y-25767695D01*
X12898362Y-25767695D01*
X12975771Y-25728990D01*
X13014476Y-25690286D01*
X13053181Y-25612876D01*
X13053181Y-24954895D01*
X13362819Y-24954895D02*
X13904686Y-24954895D01*
X13556343Y-25767695D01*
X90153067Y-57974895D02*
X90153067Y-58555467D01*
X90114363Y-58671581D01*
X90036953Y-58748990D01*
X89920839Y-58787695D01*
X89843429Y-58787695D01*
X90965867Y-58787695D02*
X90501410Y-58787695D01*
X90733639Y-58787695D02*
X90733639Y-57974895D01*
X90656229Y-58091010D01*
X90578820Y-58168419D01*
X90501410Y-58207124D01*
X24621067Y-47814895D02*
X24621067Y-48395467D01*
X24582363Y-48511581D01*
X24504953Y-48588990D01*
X24388839Y-48627695D01*
X24311429Y-48627695D01*
X25356458Y-47814895D02*
X25201639Y-47814895D01*
X25124229Y-47853600D01*
X25085524Y-47892305D01*
X25008115Y-48008419D01*
X24969410Y-48163238D01*
X24969410Y-48472876D01*
X25008115Y-48550286D01*
X25046820Y-48588990D01*
X25124229Y-48627695D01*
X25279048Y-48627695D01*
X25356458Y-48588990D01*
X25395162Y-48550286D01*
X25433867Y-48472876D01*
X25433867Y-48279352D01*
X25395162Y-48201943D01*
X25356458Y-48163238D01*
X25279048Y-48124533D01*
X25124229Y-48124533D01*
X25046820Y-48163238D01*
X25008115Y-48201943D01*
X24969410Y-48279352D01*
X39861067Y-47814895D02*
X39861067Y-48395467D01*
X39822363Y-48511581D01*
X39744953Y-48588990D01*
X39628839Y-48627695D01*
X39551429Y-48627695D01*
X40635162Y-47814895D02*
X40248115Y-47814895D01*
X40209410Y-48201943D01*
X40248115Y-48163238D01*
X40325524Y-48124533D01*
X40519048Y-48124533D01*
X40596458Y-48163238D01*
X40635162Y-48201943D01*
X40673867Y-48279352D01*
X40673867Y-48472876D01*
X40635162Y-48550286D01*
X40596458Y-48588990D01*
X40519048Y-48627695D01*
X40325524Y-48627695D01*
X40248115Y-48588990D01*
X40209410Y-48550286D01*
X74564724Y-38162895D02*
X74564724Y-38820876D01*
X74603429Y-38898286D01*
X74642133Y-38936990D01*
X74719543Y-38975695D01*
X74874362Y-38975695D01*
X74951771Y-38936990D01*
X74990476Y-38898286D01*
X75029181Y-38820876D01*
X75029181Y-38162895D01*
X75338819Y-38162895D02*
X75841981Y-38162895D01*
X75571048Y-38472533D01*
X75687162Y-38472533D01*
X75764572Y-38511238D01*
X75803276Y-38549943D01*
X75841981Y-38627352D01*
X75841981Y-38820876D01*
X75803276Y-38898286D01*
X75764572Y-38936990D01*
X75687162Y-38975695D01*
X75454934Y-38975695D01*
X75377524Y-38936990D01*
X75338819Y-38898286D01*
X8873067Y-60006895D02*
X8873067Y-60587467D01*
X8834363Y-60703581D01*
X8756953Y-60780990D01*
X8640839Y-60819695D01*
X8563429Y-60819695D01*
X9182705Y-60006895D02*
X9724572Y-60006895D01*
X9376229Y-60819695D01*
D14*
X38782667Y-40040381D02*
X38782667Y-40754667D01*
X38735047Y-40897524D01*
X38639809Y-40992762D01*
X38496952Y-41040381D01*
X38401714Y-41040381D01*
X39401714Y-40468952D02*
X39306476Y-40421333D01*
X39258857Y-40373714D01*
X39211238Y-40278476D01*
X39211238Y-40230857D01*
X39258857Y-40135619D01*
X39306476Y-40088000D01*
X39401714Y-40040381D01*
X39592191Y-40040381D01*
X39687429Y-40088000D01*
X39735048Y-40135619D01*
X39782667Y-40230857D01*
X39782667Y-40278476D01*
X39735048Y-40373714D01*
X39687429Y-40421333D01*
X39592191Y-40468952D01*
X39401714Y-40468952D01*
X39306476Y-40516571D01*
X39258857Y-40564190D01*
X39211238Y-40659429D01*
X39211238Y-40849905D01*
X39258857Y-40945143D01*
X39306476Y-40992762D01*
X39401714Y-41040381D01*
X39592191Y-41040381D01*
X39687429Y-40992762D01*
X39735048Y-40945143D01*
X39782667Y-40849905D01*
X39782667Y-40659429D01*
X39735048Y-40564190D01*
X39687429Y-40516571D01*
X39592191Y-40468952D01*
M02*
