M48
;DRILL file {KiCad 4.0.7-e2-6376~61~ubuntu18.04.1} date Sun Dec  8 19:52:42 2019
;FORMAT={-:-/ absolute / inch / decimal}
FMAT,2
INCH,TZ
T1C0.010
T2C0.018
T3C0.039
T4C0.040
T5C0.055
T6C0.063
T7C0.072
T8C0.035
T9C0.126
%
G90
G05
M72
T1
X0.1966Y-1.8883
X0.2182Y-1.9124
X0.2395Y-1.9367
X0.2553Y-1.8775
X0.3106Y-1.773
X0.335Y-1.7968
X1.115Y-0.9
X1.12Y-0.82
X1.12Y-0.86
X1.82Y-1.08
X2.12Y-0.76
T2
X0.22Y-0.98
X0.42Y-0.94
X0.58Y-0.69
X0.76Y-0.98
X0.83Y-0.69
X0.97Y-0.94
X1.115Y-0.69
X1.38Y-0.44
X1.82Y-0.44
X1.98Y-0.68
X2.02Y-0.88
X2.06Y-0.68
X2.68Y-2.1176
X2.68Y-2.1576
X2.68Y-2.1976
X2.68Y-2.2376
X2.68Y-2.2776
X2.72Y-2.1176
X2.72Y-2.1576
X2.72Y-2.1976
X2.72Y-2.2376
X2.72Y-2.2776
X2.74Y-1.7976
X2.74Y-1.8376
X2.74Y-1.8776
X2.74Y-1.9176
X2.74Y-1.9576
X2.74Y-1.9976
X2.76Y-2.1176
X2.76Y-2.1576
X2.76Y-2.1976
X2.76Y-2.2376
X2.76Y-2.2776
X2.78Y-1.9976
X2.82Y-1.9976
X2.85Y-1.34
X2.86Y-1.9976
X2.9Y-1.9976
X2.94Y-1.7976
X2.94Y-1.8376
X2.94Y-1.8776
X2.94Y-1.9176
X2.94Y-1.9576
X2.94Y-1.9976
X2.99Y-1.07
X3.Y-0.845
X3.01Y-0.47
X3.035Y-0.605
X3.08Y-1.3
X3.12Y-0.47
X3.14Y-0.255
X3.18Y-1.8576
X3.18Y-1.9076
X3.18Y-1.9576
X3.18Y-2.0076
X3.18Y-2.0576
X3.21Y-0.47
X3.23Y-1.8576
X3.23Y-1.9076
X3.23Y-1.9576
X3.23Y-2.0076
X3.23Y-2.0576
X3.28Y-1.8576
X3.28Y-1.9076
X3.28Y-1.9576
X3.28Y-2.0076
X3.28Y-2.0576
X3.33Y-1.8576
X3.33Y-1.9076
X3.33Y-1.9576
X3.33Y-2.0076
X3.33Y-2.0576
X3.38Y-1.8576
X3.38Y-1.9076
X3.38Y-1.9576
X3.38Y-2.0076
X3.38Y-2.0576
T3
X0.56Y-2.0576
X0.56Y-2.1976
X0.66Y-2.0576
X0.66Y-2.1976
X0.76Y-2.0576
X0.76Y-2.1976
T4
X0.94Y-1.6176
X0.94Y-1.7176
X1.04Y-1.6176
X1.04Y-1.7176
X1.14Y-1.6176
X1.14Y-1.7176
X1.24Y-1.6176
X1.24Y-1.7176
X1.26Y-1.0376
X1.26Y-1.1376
X1.26Y-1.2376
X1.34Y-1.6176
X1.34Y-1.7176
X1.36Y-1.0376
X1.36Y-1.1376
X1.36Y-1.2376
X1.44Y-1.6176
X1.44Y-1.7176
X1.54Y-1.6176
X1.54Y-1.7176
X1.8Y-1.2376
X1.8Y-1.3376
X1.9Y-1.2376
X1.9Y-1.3376
X2.Y-1.2376
X2.Y-1.3376
X2.1Y-1.2376
X2.1Y-1.3376
X2.2Y-1.2376
X2.2Y-1.3376
X2.3Y-1.2376
X2.3Y-1.3376
T5
X0.5Y-2.4176
X0.7Y-2.4176
X0.9Y-2.4176
X1.Y-2.0176
X1.1Y-2.4176
X1.2Y-2.0176
X1.3Y-2.4176
X1.4Y-2.0176
X1.5Y-2.4176
X1.6Y-2.0176
X1.7Y-2.4176
X1.8Y-2.0176
X1.9Y-2.4176
X2.Y-2.0176
X2.1Y-2.4176
T6
X2.313Y-1.6326
X2.313Y-2.1626
X2.447Y-1.6326
X2.447Y-2.1626
T7
X2.44Y-2.4176
X2.765Y-2.4176
X3.09Y-2.4176
X3.415Y-2.4176
T8
X3.7321Y-0.4559
X3.7321Y-0.6291
T9
X0.1575Y-0.1575
X0.1575Y-2.6772
X0.59Y-1.6676
X1.89Y-1.6676
X3.7795Y-0.1575
X3.7795Y-2.6772
T0
M30
