M48
;DRILL file {KiCad 4.0.7-e2-6376~61~ubuntu18.04.1} date Fri Dec  6 13:19:17 2019
;FORMAT={-:-/ absolute / inch / decimal}
FMAT,2
INCH,TZ
T1C0.018
T2C0.039
T3C0.040
T4C0.106
T5C0.126
%
G90
G05
M72
T1
X0.08Y-0.68
X0.08Y-0.72
X0.08Y-0.76
X0.08Y-0.8
X0.08Y-0.84
X0.24Y-0.68
X0.24Y-0.72
X0.24Y-0.76
X0.24Y-0.8
X0.24Y-0.84
X0.32Y-1.08
X0.38Y-0.99
X0.38Y-1.28
X0.46Y-1.08
X0.56Y-1.08
X0.58Y-0.86
X0.62Y-0.86
X0.66Y-0.86
X0.7Y-0.86
X0.7Y-1.08
X0.74Y-0.86
X0.8Y-1.08
X0.94Y-1.08
X1.04Y-1.08
X1.1Y-0.42
X1.14Y-0.65
X1.18Y-1.08
X1.28Y-1.08
X1.42Y-1.08
T2
X0.08Y-1.3882
X0.18Y-1.3882
X0.28Y-1.3882
X0.42Y-1.3882
X0.52Y-1.3882
X0.62Y-1.3882
X0.76Y-1.3882
X0.86Y-1.3882
X0.96Y-1.3882
X1.1Y-1.3882
X1.2Y-1.3882
X1.3Y-1.3882
X1.44Y-1.3882
X1.54Y-1.3882
X1.64Y-1.3882
T3
X0.5661Y-0.19
X0.5661Y-0.29
X0.6661Y-0.19
X0.6661Y-0.29
X0.7661Y-0.19
X0.7661Y-0.29
X0.8661Y-0.19
X0.8661Y-0.29
X0.9661Y-0.19
X0.9661Y-0.29
X1.0661Y-0.19
X1.0661Y-0.29
X1.1661Y-0.19
X1.1661Y-0.29
T4
X0.2161Y-0.24
X1.5161Y-0.24
T5
X0.1575Y-1.063
X1.5748Y-1.063
T0
M30
