G04 #@! TF.FileFunction,Copper,L1,Top,Signal*
%FSLAX46Y46*%
G04 Gerber Fmt 4.6, Leading zero omitted, Abs format (unit mm)*
G04 Created by KiCad (PCBNEW 4.0.7-e2-6376~61~ubuntu18.04.1) date Sun Dec  8 19:48:56 2019*
%MOMM*%
%LPD*%
G01*
G04 APERTURE LIST*
%ADD10C,0.100000*%
%ADD11R,5.600000X2.300000*%
%ADD12C,1.000000*%
%ADD13R,1.600000X3.500000*%
%ADD14R,1.250000X1.000000*%
%ADD15R,1.200000X1.200000*%
%ADD16R,1.700000X1.700000*%
%ADD17O,1.700000X1.700000*%
%ADD18R,0.900000X0.800000*%
%ADD19R,1.500000X1.300000*%
%ADD20R,1.300000X1.500000*%
%ADD21R,1.550000X0.600000*%
%ADD22R,0.650000X1.060000*%
%ADD23R,1.727200X1.727200*%
%ADD24C,1.727200*%
%ADD25C,0.812800*%
%ADD26C,0.406400*%
%ADD27C,0.203200*%
%ADD28C,1.270000*%
G04 APERTURE END LIST*
D10*
D11*
X11176000Y-20464000D03*
X11176000Y-13064000D03*
D12*
X21082000Y-21844000D03*
X42000000Y-2000000D03*
X42000000Y-31500000D03*
D13*
X4064000Y-14064000D03*
X4064000Y-19464000D03*
D14*
X11938000Y-30972000D03*
X11938000Y-28972000D03*
X18034000Y-30972000D03*
X18034000Y-28972000D03*
X24130000Y-30972000D03*
X24130000Y-28972000D03*
X30226000Y-30972000D03*
X30226000Y-28972000D03*
X36322000Y-30972000D03*
X36322000Y-28972000D03*
D15*
X40132000Y-12700000D03*
X42332000Y-12700000D03*
X40048000Y-14732000D03*
X42248000Y-14732000D03*
D16*
X7112000Y-35260000D03*
D17*
X4572000Y-35260000D03*
X2032000Y-35260000D03*
D16*
X15748000Y-35260000D03*
D17*
X13208000Y-35260000D03*
X10668000Y-35260000D03*
D16*
X24384000Y-35260000D03*
D17*
X21844000Y-35260000D03*
X19304000Y-35260000D03*
D16*
X33020000Y-35260000D03*
D17*
X30480000Y-35260000D03*
X27940000Y-35260000D03*
D16*
X41656000Y-35260000D03*
D17*
X39116000Y-35260000D03*
X36576000Y-35260000D03*
D18*
X33004000Y-14666000D03*
X33004000Y-12766000D03*
X31004000Y-13716000D03*
D19*
X35226000Y-12700000D03*
X37926000Y-12700000D03*
X35226000Y-14732000D03*
X37926000Y-14732000D03*
D20*
X28956000Y-15066000D03*
X28956000Y-12366000D03*
X15494000Y-19130000D03*
X15494000Y-16430000D03*
D21*
X23528000Y-19685000D03*
X23528000Y-18415000D03*
X23528000Y-17145000D03*
X23528000Y-15875000D03*
X18128000Y-15875000D03*
X18128000Y-17145000D03*
X18128000Y-18415000D03*
X18128000Y-19685000D03*
D22*
X9840000Y-28872000D03*
X8890000Y-28872000D03*
X7940000Y-28872000D03*
X7940000Y-31072000D03*
X9840000Y-31072000D03*
X15936000Y-28872000D03*
X14986000Y-28872000D03*
X14036000Y-28872000D03*
X14036000Y-31072000D03*
X15936000Y-31072000D03*
X22032000Y-28872000D03*
X21082000Y-28872000D03*
X20132000Y-28872000D03*
X20132000Y-31072000D03*
X22032000Y-31072000D03*
X28128000Y-28872000D03*
X27178000Y-28872000D03*
X26228000Y-28872000D03*
X26228000Y-31072000D03*
X28128000Y-31072000D03*
X34224000Y-28872000D03*
X33274000Y-28872000D03*
X32324000Y-28872000D03*
X32324000Y-31072000D03*
X34224000Y-31072000D03*
D12*
X2000000Y-31500000D03*
D23*
X14380000Y-7366000D03*
D24*
X14380000Y-4826000D03*
X16920000Y-7366000D03*
X16920000Y-4826000D03*
X19460000Y-7366000D03*
X19460000Y-4826000D03*
X22000000Y-7366000D03*
X22000000Y-4826000D03*
X24540000Y-7366000D03*
X24540000Y-4826000D03*
X27080000Y-7366000D03*
X27080000Y-4826000D03*
X29620000Y-7366000D03*
X29620000Y-4826000D03*
D25*
X27940000Y-10668000D03*
X6096000Y-21336000D03*
X6096000Y-20320000D03*
X6096000Y-17272000D03*
X6096000Y-18288000D03*
X6096000Y-19304000D03*
X2032000Y-21336000D03*
X2032000Y-20320000D03*
X2032000Y-17272000D03*
X2032000Y-18288000D03*
X2032000Y-19304000D03*
X36068000Y-27432000D03*
X29972000Y-27432000D03*
X32512000Y-27432000D03*
X26416000Y-27432000D03*
X23876000Y-27432000D03*
X20320000Y-27432000D03*
X17780000Y-27432000D03*
X14224000Y-27432000D03*
X11684000Y-27432000D03*
X8128000Y-27432000D03*
X9652000Y-25146000D03*
X9652000Y-32512000D03*
X18796000Y-21844000D03*
X17780000Y-21844000D03*
X16764000Y-21844000D03*
X15748000Y-21844000D03*
X14732000Y-21844000D03*
X28956000Y-16510000D03*
D26*
X33004000Y-12766000D02*
X31562000Y-12766000D01*
X31562000Y-12766000D02*
X30988000Y-12192000D01*
X30988000Y-12192000D02*
X30988000Y-11079311D01*
X30988000Y-11079311D02*
X30576689Y-10668000D01*
X30576689Y-10668000D02*
X27940000Y-10668000D01*
X33004000Y-12766000D02*
X35160000Y-12766000D01*
X35160000Y-12766000D02*
X35226000Y-12700000D01*
X6096000Y-20320000D02*
X6096000Y-21336000D01*
X6096000Y-19304000D02*
X6096000Y-20320000D01*
X6096000Y-18288000D02*
X6096000Y-17272000D01*
X6096000Y-19304000D02*
X6096000Y-18288000D01*
X4064000Y-19464000D02*
X5936000Y-19464000D01*
X5936000Y-19464000D02*
X6096000Y-19304000D01*
X2032000Y-20320000D02*
X2032000Y-21336000D01*
X2032000Y-19304000D02*
X2032000Y-20320000D01*
X2032000Y-18288000D02*
X2032000Y-17272000D01*
X2032000Y-19304000D02*
X2032000Y-18288000D01*
X4064000Y-19464000D02*
X2192000Y-19464000D01*
X2192000Y-19464000D02*
X2032000Y-19304000D01*
X36322000Y-28972000D02*
X36322000Y-27686000D01*
X36322000Y-27686000D02*
X36068000Y-27432000D01*
X30226000Y-28972000D02*
X30226000Y-27686000D01*
X30226000Y-27686000D02*
X29972000Y-27432000D01*
X32324000Y-28872000D02*
X32324000Y-27620000D01*
X32324000Y-27620000D02*
X32512000Y-27432000D01*
X26228000Y-28872000D02*
X26228000Y-27620000D01*
X26228000Y-27620000D02*
X26416000Y-27432000D01*
X24130000Y-28972000D02*
X24130000Y-27686000D01*
X24130000Y-27686000D02*
X23876000Y-27432000D01*
X20132000Y-28872000D02*
X20132000Y-27620000D01*
X20132000Y-27620000D02*
X20320000Y-27432000D01*
X18034000Y-28972000D02*
X18034000Y-27686000D01*
X18034000Y-27686000D02*
X17780000Y-27432000D01*
X14036000Y-28872000D02*
X14036000Y-27620000D01*
X14036000Y-27620000D02*
X14224000Y-27432000D01*
X11938000Y-28972000D02*
X11938000Y-27686000D01*
X11938000Y-27686000D02*
X11684000Y-27432000D01*
X7940000Y-28872000D02*
X7940000Y-27620000D01*
X7940000Y-27620000D02*
X8128000Y-27432000D01*
X24575455Y-25277624D02*
X9783624Y-25277624D01*
X9783624Y-25277624D02*
X9652000Y-25146000D01*
X23528000Y-19685000D02*
X24385597Y-19685000D01*
X24385597Y-19685000D02*
X24926337Y-20225740D01*
X24926337Y-20225740D02*
X24926337Y-24926742D01*
X24926337Y-24926742D02*
X24575455Y-25277624D01*
X34224000Y-31072000D02*
X34224000Y-30000000D01*
X34224000Y-30000000D02*
X34000000Y-30000000D01*
X30226000Y-30972000D02*
X30226000Y-30044639D01*
X30226000Y-30044639D02*
X30273554Y-29997085D01*
X30273554Y-29997085D02*
X30002915Y-29997085D01*
X30002915Y-29997085D02*
X30000000Y-30000000D01*
X9840000Y-31072000D02*
X9840000Y-31035831D01*
X10875831Y-30000000D02*
X12000000Y-30000000D01*
X9840000Y-31035831D02*
X10875831Y-30000000D01*
X9840000Y-31072000D02*
X9840000Y-32324000D01*
X9840000Y-32324000D02*
X9652000Y-32512000D01*
X16000000Y-30000000D02*
X16750000Y-30000000D01*
X16750000Y-30000000D02*
X18000000Y-30000000D01*
X12000000Y-30000000D02*
X16000000Y-30000000D01*
X11938000Y-30972000D02*
X11938000Y-30062000D01*
X11938000Y-30062000D02*
X12000000Y-30000000D01*
X15936000Y-31072000D02*
X15936000Y-30064000D01*
X15936000Y-30064000D02*
X16000000Y-30000000D01*
X18000000Y-30000000D02*
X22000000Y-30000000D01*
X18034000Y-30972000D02*
X18034000Y-30034000D01*
X18034000Y-30034000D02*
X18000000Y-30000000D01*
X22000000Y-30000000D02*
X24000000Y-30000000D01*
X22032000Y-31072000D02*
X22032000Y-30032000D01*
X22032000Y-30032000D02*
X22000000Y-30000000D01*
X24000000Y-30000000D02*
X28000000Y-30000000D01*
X24130000Y-30972000D02*
X24130000Y-30130000D01*
X24130000Y-30130000D02*
X24000000Y-30000000D01*
X28000000Y-30000000D02*
X30000000Y-30000000D01*
X28128000Y-31072000D02*
X28128000Y-30128000D01*
X28128000Y-30128000D02*
X28000000Y-30000000D01*
X30000000Y-30000000D02*
X34000000Y-30000000D01*
X34000000Y-30000000D02*
X35350000Y-30000000D01*
X35350000Y-30000000D02*
X36322000Y-30972000D01*
X9950000Y-31100000D02*
X9950000Y-31050000D01*
D27*
X37926000Y-12700000D02*
X40132000Y-12700000D01*
X37926000Y-14732000D02*
X40048000Y-14732000D01*
D28*
X38032124Y-38221908D02*
X39116000Y-37138032D01*
X39116000Y-37138032D02*
X39116000Y-35260000D01*
X30480000Y-38221908D02*
X38032124Y-38221908D01*
X21844000Y-38221908D02*
X30480000Y-38221908D01*
X30480000Y-35260000D02*
X30480000Y-38221908D01*
X21844000Y-35260000D02*
X21844000Y-38221908D01*
X13208000Y-38221908D02*
X21844000Y-38221908D01*
X5643776Y-38221908D02*
X13208000Y-38221908D01*
X13208000Y-35260000D02*
X13208000Y-38221908D01*
X4572000Y-37150132D02*
X5643776Y-38221908D01*
X4572000Y-35260000D02*
X4572000Y-37150132D01*
D26*
X28956000Y-16510000D02*
X28956000Y-15066000D01*
D27*
X19460000Y-7366000D02*
X19460000Y-10148129D01*
X19460000Y-10148129D02*
X20561871Y-11250000D01*
X20561871Y-11250000D02*
X23890100Y-11250000D01*
X25500000Y-12859900D02*
X25500000Y-25149088D01*
X25500000Y-25149088D02*
X24810604Y-25838484D01*
X23890100Y-11250000D02*
X25500000Y-12859900D01*
X24810604Y-25838484D02*
X10266034Y-25838484D01*
X10266034Y-25838484D02*
X8891483Y-27213035D01*
X8891483Y-27213035D02*
X8891483Y-28870517D01*
X8891483Y-28870517D02*
X8890000Y-28872000D01*
X14986000Y-28872000D02*
X14990439Y-28867561D01*
X16086910Y-26245694D02*
X24981881Y-26245694D01*
X14990439Y-28867561D02*
X14990439Y-27342165D01*
X24981881Y-26245694D02*
X25906437Y-25321138D01*
X21801817Y-10843591D02*
X20726394Y-9768168D01*
X20726394Y-9768168D02*
X20726394Y-5994394D01*
X14990439Y-27342165D02*
X16086910Y-26245694D01*
X25906437Y-25321138D02*
X25906437Y-12688628D01*
X19558000Y-4826000D02*
X19460000Y-4826000D01*
X25906437Y-12688628D02*
X24061400Y-10843591D01*
X24061400Y-10843591D02*
X21801817Y-10843591D01*
X20726394Y-5994394D02*
X19558000Y-4826000D01*
X22000000Y-7366000D02*
X22000000Y-9421346D01*
X22000000Y-9421346D02*
X23013575Y-10434921D01*
X26313150Y-25502850D02*
X25156884Y-26659116D01*
X22270733Y-26659116D02*
X21082000Y-27847849D01*
X23013575Y-10434921D02*
X24230440Y-10434921D01*
X24230440Y-10434921D02*
X26313150Y-12517631D01*
X26313150Y-12517631D02*
X26313150Y-25502850D01*
X21082000Y-27847849D02*
X21082000Y-28872000D01*
X25156884Y-26659116D02*
X22270733Y-26659116D01*
X22000000Y-4826000D02*
X22098000Y-4826000D01*
X22098000Y-4826000D02*
X23259780Y-5987780D01*
X27182803Y-28867197D02*
X27178000Y-28872000D01*
X23259780Y-5987780D02*
X23259780Y-8886553D01*
X23259780Y-8886553D02*
X26719863Y-12346636D01*
X26719863Y-12346636D02*
X26719863Y-26655838D01*
X26719863Y-26655838D02*
X27182803Y-27118778D01*
X27182803Y-27118778D02*
X27182803Y-28867197D01*
X24540000Y-7366000D02*
X24540000Y-9588327D01*
X24540000Y-9588327D02*
X27126575Y-12174902D01*
X27126575Y-12174902D02*
X27126575Y-25483872D01*
X28312073Y-26669370D02*
X32871774Y-26669370D01*
X27126575Y-25483872D02*
X28312073Y-26669370D01*
X32871774Y-26669370D02*
X33276577Y-27074173D01*
X33276577Y-27074173D02*
X33276577Y-28869423D01*
X33276577Y-28869423D02*
X33274000Y-28872000D01*
X2032000Y-35260000D02*
X2032000Y-33946543D01*
X2032000Y-33946543D02*
X2837208Y-33141335D01*
X2837208Y-33141335D02*
X7171535Y-33141335D01*
X7171535Y-33141335D02*
X7940000Y-32372870D01*
X7940000Y-32372870D02*
X7940000Y-31072000D01*
X10668000Y-35260000D02*
X10668000Y-33839570D01*
X10668000Y-33839570D02*
X11385267Y-33122303D01*
X11385267Y-33122303D02*
X13377697Y-33122303D01*
X13377697Y-33122303D02*
X14036000Y-32464000D01*
X14036000Y-32464000D02*
X14036000Y-31072000D01*
X19304000Y-35260000D02*
X19304000Y-33502793D01*
X19304000Y-33502793D02*
X20132000Y-32674793D01*
X20132000Y-32674793D02*
X20132000Y-31072000D01*
X26228000Y-31072000D02*
X26228000Y-32105649D01*
X26228000Y-32105649D02*
X27940000Y-33817649D01*
X27940000Y-33817649D02*
X27940000Y-35260000D01*
X32324000Y-31072000D02*
X32324000Y-32400517D01*
X32324000Y-32400517D02*
X33039279Y-33115796D01*
X33039279Y-33115796D02*
X35919391Y-33115796D01*
X36576000Y-33772405D02*
X36576000Y-35260000D01*
X35919391Y-33115796D02*
X36576000Y-33772405D01*
X28956000Y-12366000D02*
X29638000Y-12366000D01*
X29638000Y-12366000D02*
X30083651Y-12811651D01*
X30083651Y-12811651D02*
X30083651Y-14196310D01*
X30083651Y-14196310D02*
X30553341Y-14666000D01*
X30553341Y-14666000D02*
X33004000Y-14666000D01*
X31004000Y-13716000D02*
X34083904Y-13716000D01*
X34083904Y-13716000D02*
X35099904Y-14732000D01*
X35099904Y-14732000D02*
X35226000Y-14732000D01*
G36*
X43569400Y-45569400D02*
X430600Y-45569400D01*
X430600Y-35254167D01*
X826400Y-35254167D01*
X826400Y-35265833D01*
X849360Y-35500002D01*
X917367Y-35725251D01*
X1027830Y-35933002D01*
X1176542Y-36115340D01*
X1357837Y-36265321D01*
X1564811Y-36377231D01*
X1789580Y-36446809D01*
X2023583Y-36471404D01*
X2257907Y-36450079D01*
X2483626Y-36383646D01*
X2692142Y-36274636D01*
X2875514Y-36127201D01*
X3026757Y-35946957D01*
X3140110Y-35740769D01*
X3211255Y-35516491D01*
X3237482Y-35282666D01*
X3237600Y-35265833D01*
X3237600Y-35254167D01*
X3366400Y-35254167D01*
X3366400Y-35265833D01*
X3389360Y-35500002D01*
X3457367Y-35725251D01*
X3567830Y-35933002D01*
X3581400Y-35949640D01*
X3581400Y-37150132D01*
X3590331Y-37241216D01*
X3598305Y-37332354D01*
X3599757Y-37337353D01*
X3600266Y-37342541D01*
X3626719Y-37430157D01*
X3652242Y-37518009D01*
X3654640Y-37522635D01*
X3656145Y-37527620D01*
X3699097Y-37608401D01*
X3741213Y-37689652D01*
X3744462Y-37693722D01*
X3746908Y-37698322D01*
X3804787Y-37769288D01*
X3861829Y-37840743D01*
X3868973Y-37847989D01*
X3869099Y-37848143D01*
X3869242Y-37848261D01*
X3871540Y-37850592D01*
X4943316Y-38922368D01*
X5014009Y-38980436D01*
X5084120Y-39039265D01*
X5088684Y-39041774D01*
X5092710Y-39045081D01*
X5173335Y-39088312D01*
X5253537Y-39132403D01*
X5258505Y-39133979D01*
X5263093Y-39136439D01*
X5350585Y-39163189D01*
X5437819Y-39190861D01*
X5442994Y-39191441D01*
X5447977Y-39192965D01*
X5539055Y-39202216D01*
X5629945Y-39212411D01*
X5640125Y-39212482D01*
X5640318Y-39212502D01*
X5640498Y-39212485D01*
X5643776Y-39212508D01*
X38032124Y-39212508D01*
X38123208Y-39203577D01*
X38214346Y-39195603D01*
X38219345Y-39194151D01*
X38224533Y-39193642D01*
X38312149Y-39167189D01*
X38400001Y-39141666D01*
X38404627Y-39139268D01*
X38409612Y-39137763D01*
X38490393Y-39094811D01*
X38571644Y-39052695D01*
X38575714Y-39049446D01*
X38580314Y-39047000D01*
X38651280Y-38989121D01*
X38722735Y-38932079D01*
X38729981Y-38924935D01*
X38730135Y-38924809D01*
X38730253Y-38924666D01*
X38732584Y-38922368D01*
X39816460Y-37838492D01*
X39874528Y-37767799D01*
X39933357Y-37697688D01*
X39935866Y-37693124D01*
X39939173Y-37689098D01*
X39982423Y-37608438D01*
X40026495Y-37528271D01*
X40028070Y-37523307D01*
X40030532Y-37518715D01*
X40057295Y-37431177D01*
X40084953Y-37343989D01*
X40085533Y-37338814D01*
X40087057Y-37333831D01*
X40096308Y-37242753D01*
X40106503Y-37151863D01*
X40106574Y-37141683D01*
X40106594Y-37141490D01*
X40106577Y-37141310D01*
X40106600Y-37138032D01*
X40106600Y-35951911D01*
X40110757Y-35946957D01*
X40224110Y-35740769D01*
X40247701Y-35666402D01*
X40348798Y-35666402D01*
X40196400Y-35818800D01*
X40196400Y-36170040D01*
X40219827Y-36287813D01*
X40265779Y-36398754D01*
X40332493Y-36498597D01*
X40417402Y-36583507D01*
X40517246Y-36650220D01*
X40628186Y-36696173D01*
X40745959Y-36719600D01*
X41097200Y-36719600D01*
X41249600Y-36567200D01*
X41249600Y-35666400D01*
X42062400Y-35666400D01*
X42062400Y-36567200D01*
X42214800Y-36719600D01*
X42566041Y-36719600D01*
X42683814Y-36696173D01*
X42794754Y-36650220D01*
X42894598Y-36583507D01*
X42979507Y-36498597D01*
X43046221Y-36398754D01*
X43092173Y-36287813D01*
X43115600Y-36170040D01*
X43115600Y-35818800D01*
X42963200Y-35666400D01*
X42062400Y-35666400D01*
X41249600Y-35666400D01*
X41229600Y-35666400D01*
X41229600Y-34853600D01*
X41249600Y-34853600D01*
X41249600Y-33952800D01*
X42062400Y-33952800D01*
X42062400Y-34853600D01*
X42963200Y-34853600D01*
X43115600Y-34701200D01*
X43115600Y-34349960D01*
X43092173Y-34232187D01*
X43046221Y-34121246D01*
X42979507Y-34021403D01*
X42894598Y-33936493D01*
X42794754Y-33869780D01*
X42683814Y-33823827D01*
X42566041Y-33800400D01*
X42214800Y-33800400D01*
X42062400Y-33952800D01*
X41249600Y-33952800D01*
X41097200Y-33800400D01*
X40745959Y-33800400D01*
X40628186Y-33823827D01*
X40517246Y-33869780D01*
X40417402Y-33936493D01*
X40332493Y-34021403D01*
X40265779Y-34121246D01*
X40219827Y-34232187D01*
X40196400Y-34349960D01*
X40196400Y-34701200D01*
X40348798Y-34853598D01*
X40248401Y-34853598D01*
X40230633Y-34794749D01*
X40120170Y-34586998D01*
X39971458Y-34404660D01*
X39790163Y-34254679D01*
X39583189Y-34142769D01*
X39358420Y-34073191D01*
X39124417Y-34048596D01*
X38890093Y-34069921D01*
X38664374Y-34136354D01*
X38455858Y-34245364D01*
X38272486Y-34392799D01*
X38121243Y-34573043D01*
X38007890Y-34779231D01*
X37936745Y-35003509D01*
X37910518Y-35237334D01*
X37910400Y-35254167D01*
X37910400Y-35265833D01*
X37933360Y-35500002D01*
X38001367Y-35725251D01*
X38111830Y-35933002D01*
X38125400Y-35949640D01*
X38125400Y-36727712D01*
X37621804Y-37231308D01*
X31470600Y-37231308D01*
X31470600Y-35951911D01*
X31474757Y-35946957D01*
X31588110Y-35740769D01*
X31611701Y-35666402D01*
X31712798Y-35666402D01*
X31560400Y-35818800D01*
X31560400Y-36170040D01*
X31583827Y-36287813D01*
X31629779Y-36398754D01*
X31696493Y-36498597D01*
X31781402Y-36583507D01*
X31881246Y-36650220D01*
X31992186Y-36696173D01*
X32109959Y-36719600D01*
X32461200Y-36719600D01*
X32613600Y-36567200D01*
X32613600Y-35666400D01*
X33426400Y-35666400D01*
X33426400Y-36567200D01*
X33578800Y-36719600D01*
X33930041Y-36719600D01*
X34047814Y-36696173D01*
X34158754Y-36650220D01*
X34258598Y-36583507D01*
X34343507Y-36498597D01*
X34410221Y-36398754D01*
X34456173Y-36287813D01*
X34479600Y-36170040D01*
X34479600Y-35818800D01*
X34327200Y-35666400D01*
X33426400Y-35666400D01*
X32613600Y-35666400D01*
X32593600Y-35666400D01*
X32593600Y-34853600D01*
X32613600Y-34853600D01*
X32613600Y-33952800D01*
X33426400Y-33952800D01*
X33426400Y-34853600D01*
X34327200Y-34853600D01*
X34479600Y-34701200D01*
X34479600Y-34349960D01*
X34456173Y-34232187D01*
X34410221Y-34121246D01*
X34343507Y-34021403D01*
X34258598Y-33936493D01*
X34158754Y-33869780D01*
X34047814Y-33823827D01*
X33930041Y-33800400D01*
X33578800Y-33800400D01*
X33426400Y-33952800D01*
X32613600Y-33952800D01*
X32461200Y-33800400D01*
X32109959Y-33800400D01*
X31992186Y-33823827D01*
X31881246Y-33869780D01*
X31781402Y-33936493D01*
X31696493Y-34021403D01*
X31629779Y-34121246D01*
X31583827Y-34232187D01*
X31560400Y-34349960D01*
X31560400Y-34701200D01*
X31712798Y-34853598D01*
X31612401Y-34853598D01*
X31594633Y-34794749D01*
X31484170Y-34586998D01*
X31335458Y-34404660D01*
X31154163Y-34254679D01*
X30947189Y-34142769D01*
X30722420Y-34073191D01*
X30488417Y-34048596D01*
X30254093Y-34069921D01*
X30028374Y-34136354D01*
X29819858Y-34245364D01*
X29636486Y-34392799D01*
X29485243Y-34573043D01*
X29371890Y-34779231D01*
X29300745Y-35003509D01*
X29274518Y-35237334D01*
X29274400Y-35254167D01*
X29274400Y-35265833D01*
X29297360Y-35500002D01*
X29365367Y-35725251D01*
X29475830Y-35933002D01*
X29489400Y-35949640D01*
X29489400Y-37231308D01*
X22834600Y-37231308D01*
X22834600Y-35951911D01*
X22838757Y-35946957D01*
X22952110Y-35740769D01*
X22975701Y-35666402D01*
X23076798Y-35666402D01*
X22924400Y-35818800D01*
X22924400Y-36170040D01*
X22947827Y-36287813D01*
X22993779Y-36398754D01*
X23060493Y-36498597D01*
X23145402Y-36583507D01*
X23245246Y-36650220D01*
X23356186Y-36696173D01*
X23473959Y-36719600D01*
X23825200Y-36719600D01*
X23977600Y-36567200D01*
X23977600Y-35666400D01*
X24790400Y-35666400D01*
X24790400Y-36567200D01*
X24942800Y-36719600D01*
X25294041Y-36719600D01*
X25411814Y-36696173D01*
X25522754Y-36650220D01*
X25622598Y-36583507D01*
X25707507Y-36498597D01*
X25774221Y-36398754D01*
X25820173Y-36287813D01*
X25843600Y-36170040D01*
X25843600Y-35818800D01*
X25691200Y-35666400D01*
X24790400Y-35666400D01*
X23977600Y-35666400D01*
X23957600Y-35666400D01*
X23957600Y-34853600D01*
X23977600Y-34853600D01*
X23977600Y-33952800D01*
X24790400Y-33952800D01*
X24790400Y-34853600D01*
X25691200Y-34853600D01*
X25843600Y-34701200D01*
X25843600Y-34349960D01*
X25820173Y-34232187D01*
X25774221Y-34121246D01*
X25707507Y-34021403D01*
X25622598Y-33936493D01*
X25522754Y-33869780D01*
X25411814Y-33823827D01*
X25294041Y-33800400D01*
X24942800Y-33800400D01*
X24790400Y-33952800D01*
X23977600Y-33952800D01*
X23825200Y-33800400D01*
X23473959Y-33800400D01*
X23356186Y-33823827D01*
X23245246Y-33869780D01*
X23145402Y-33936493D01*
X23060493Y-34021403D01*
X22993779Y-34121246D01*
X22947827Y-34232187D01*
X22924400Y-34349960D01*
X22924400Y-34701200D01*
X23076798Y-34853598D01*
X22976401Y-34853598D01*
X22958633Y-34794749D01*
X22848170Y-34586998D01*
X22699458Y-34404660D01*
X22518163Y-34254679D01*
X22311189Y-34142769D01*
X22086420Y-34073191D01*
X21852417Y-34048596D01*
X21618093Y-34069921D01*
X21392374Y-34136354D01*
X21183858Y-34245364D01*
X21000486Y-34392799D01*
X20849243Y-34573043D01*
X20735890Y-34779231D01*
X20664745Y-35003509D01*
X20638518Y-35237334D01*
X20638400Y-35254167D01*
X20638400Y-35265833D01*
X20661360Y-35500002D01*
X20729367Y-35725251D01*
X20839830Y-35933002D01*
X20853400Y-35949640D01*
X20853400Y-37231308D01*
X14198600Y-37231308D01*
X14198600Y-35951911D01*
X14202757Y-35946957D01*
X14316110Y-35740769D01*
X14339701Y-35666402D01*
X14440798Y-35666402D01*
X14288400Y-35818800D01*
X14288400Y-36170040D01*
X14311827Y-36287813D01*
X14357779Y-36398754D01*
X14424493Y-36498597D01*
X14509402Y-36583507D01*
X14609246Y-36650220D01*
X14720186Y-36696173D01*
X14837959Y-36719600D01*
X15189200Y-36719600D01*
X15341600Y-36567200D01*
X15341600Y-35666400D01*
X16154400Y-35666400D01*
X16154400Y-36567200D01*
X16306800Y-36719600D01*
X16658041Y-36719600D01*
X16775814Y-36696173D01*
X16886754Y-36650220D01*
X16986598Y-36583507D01*
X17071507Y-36498597D01*
X17138221Y-36398754D01*
X17184173Y-36287813D01*
X17207600Y-36170040D01*
X17207600Y-35818800D01*
X17055200Y-35666400D01*
X16154400Y-35666400D01*
X15341600Y-35666400D01*
X15321600Y-35666400D01*
X15321600Y-34853600D01*
X15341600Y-34853600D01*
X15341600Y-33952800D01*
X16154400Y-33952800D01*
X16154400Y-34853600D01*
X17055200Y-34853600D01*
X17207600Y-34701200D01*
X17207600Y-34349960D01*
X17184173Y-34232187D01*
X17138221Y-34121246D01*
X17071507Y-34021403D01*
X16986598Y-33936493D01*
X16886754Y-33869780D01*
X16775814Y-33823827D01*
X16658041Y-33800400D01*
X16306800Y-33800400D01*
X16154400Y-33952800D01*
X15341600Y-33952800D01*
X15189200Y-33800400D01*
X14837959Y-33800400D01*
X14720186Y-33823827D01*
X14609246Y-33869780D01*
X14509402Y-33936493D01*
X14424493Y-34021403D01*
X14357779Y-34121246D01*
X14311827Y-34232187D01*
X14288400Y-34349960D01*
X14288400Y-34701200D01*
X14440798Y-34853598D01*
X14340401Y-34853598D01*
X14322633Y-34794749D01*
X14212170Y-34586998D01*
X14063458Y-34404660D01*
X13882163Y-34254679D01*
X13675189Y-34142769D01*
X13450420Y-34073191D01*
X13216417Y-34048596D01*
X12982093Y-34069921D01*
X12756374Y-34136354D01*
X12547858Y-34245364D01*
X12364486Y-34392799D01*
X12213243Y-34573043D01*
X12099890Y-34779231D01*
X12028745Y-35003509D01*
X12002518Y-35237334D01*
X12002400Y-35254167D01*
X12002400Y-35265833D01*
X12025360Y-35500002D01*
X12093367Y-35725251D01*
X12203830Y-35933002D01*
X12217400Y-35949640D01*
X12217400Y-37231308D01*
X6054096Y-37231308D01*
X5562600Y-36739812D01*
X5562600Y-35951911D01*
X5566757Y-35946957D01*
X5680110Y-35740769D01*
X5703701Y-35666402D01*
X5804798Y-35666402D01*
X5652400Y-35818800D01*
X5652400Y-36170040D01*
X5675827Y-36287813D01*
X5721779Y-36398754D01*
X5788493Y-36498597D01*
X5873402Y-36583507D01*
X5973246Y-36650220D01*
X6084186Y-36696173D01*
X6201959Y-36719600D01*
X6553200Y-36719600D01*
X6705600Y-36567200D01*
X6705600Y-35666400D01*
X7518400Y-35666400D01*
X7518400Y-36567200D01*
X7670800Y-36719600D01*
X8022041Y-36719600D01*
X8139814Y-36696173D01*
X8250754Y-36650220D01*
X8350598Y-36583507D01*
X8435507Y-36498597D01*
X8502221Y-36398754D01*
X8548173Y-36287813D01*
X8571600Y-36170040D01*
X8571600Y-35818800D01*
X8419200Y-35666400D01*
X7518400Y-35666400D01*
X6705600Y-35666400D01*
X6685600Y-35666400D01*
X6685600Y-34853600D01*
X6705600Y-34853600D01*
X6705600Y-33952800D01*
X7518400Y-33952800D01*
X7518400Y-34853600D01*
X8419200Y-34853600D01*
X8571600Y-34701200D01*
X8571600Y-34349960D01*
X8548173Y-34232187D01*
X8502221Y-34121246D01*
X8435507Y-34021403D01*
X8350598Y-33936493D01*
X8250754Y-33869780D01*
X8139814Y-33823827D01*
X8022041Y-33800400D01*
X7670800Y-33800400D01*
X7518400Y-33952800D01*
X6705600Y-33952800D01*
X6553200Y-33800400D01*
X6201959Y-33800400D01*
X6084186Y-33823827D01*
X5973246Y-33869780D01*
X5873402Y-33936493D01*
X5788493Y-34021403D01*
X5721779Y-34121246D01*
X5675827Y-34232187D01*
X5652400Y-34349960D01*
X5652400Y-34701200D01*
X5804798Y-34853598D01*
X5704401Y-34853598D01*
X5686633Y-34794749D01*
X5576170Y-34586998D01*
X5427458Y-34404660D01*
X5246163Y-34254679D01*
X5039189Y-34142769D01*
X4814420Y-34073191D01*
X4580417Y-34048596D01*
X4346093Y-34069921D01*
X4120374Y-34136354D01*
X3911858Y-34245364D01*
X3728486Y-34392799D01*
X3577243Y-34573043D01*
X3463890Y-34779231D01*
X3392745Y-35003509D01*
X3366518Y-35237334D01*
X3366400Y-35254167D01*
X3237600Y-35254167D01*
X3214640Y-35019998D01*
X3146633Y-34794749D01*
X3036170Y-34586998D01*
X2887458Y-34404660D01*
X2706163Y-34254679D01*
X2499189Y-34142769D01*
X2489200Y-34139677D01*
X2489200Y-34135921D01*
X3026586Y-33598535D01*
X7171535Y-33598535D01*
X7213578Y-33594413D01*
X7255638Y-33590733D01*
X7257945Y-33590063D01*
X7260339Y-33589828D01*
X7300735Y-33577631D01*
X7341325Y-33565839D01*
X7343464Y-33564730D01*
X7345760Y-33564037D01*
X7383031Y-33544220D01*
X7420544Y-33524775D01*
X7422420Y-33523277D01*
X7424546Y-33522147D01*
X7457319Y-33495418D01*
X7490278Y-33469107D01*
X7493620Y-33465812D01*
X7493694Y-33465751D01*
X7493751Y-33465682D01*
X7494824Y-33464624D01*
X8263289Y-32696159D01*
X8290095Y-32663526D01*
X8317242Y-32631173D01*
X8318399Y-32629068D01*
X8319927Y-32627208D01*
X8339880Y-32589996D01*
X8360229Y-32552980D01*
X8360957Y-32550685D01*
X8362091Y-32548570D01*
X8374442Y-32508173D01*
X8387209Y-32467927D01*
X8387476Y-32465544D01*
X8388181Y-32463239D01*
X8392460Y-32421113D01*
X8397155Y-32379254D01*
X8397188Y-32374564D01*
X8397198Y-32374466D01*
X8397189Y-32374375D01*
X8397200Y-32372870D01*
X8397200Y-31931401D01*
X8417675Y-31925060D01*
X8501633Y-31869736D01*
X8566854Y-31793212D01*
X8608173Y-31701547D01*
X8622320Y-31602000D01*
X8622320Y-30542000D01*
X8617804Y-30485372D01*
X8588060Y-30389325D01*
X8532736Y-30305367D01*
X8456212Y-30240146D01*
X8364547Y-30198827D01*
X8265000Y-30184680D01*
X7615000Y-30184680D01*
X7558372Y-30189196D01*
X7462325Y-30218940D01*
X7378367Y-30274264D01*
X7313146Y-30350788D01*
X7271827Y-30442453D01*
X7257680Y-30542000D01*
X7257680Y-31602000D01*
X7262196Y-31658628D01*
X7291940Y-31754675D01*
X7347264Y-31838633D01*
X7423788Y-31903854D01*
X7482800Y-31930454D01*
X7482800Y-32183492D01*
X6982157Y-32684135D01*
X2837208Y-32684135D01*
X2795165Y-32688257D01*
X2753105Y-32691937D01*
X2750798Y-32692607D01*
X2748404Y-32692842D01*
X2708008Y-32705039D01*
X2667418Y-32716831D01*
X2665279Y-32717940D01*
X2662983Y-32718633D01*
X2625712Y-32738450D01*
X2588199Y-32757895D01*
X2586323Y-32759393D01*
X2584197Y-32760523D01*
X2551424Y-32787252D01*
X2518465Y-32813563D01*
X2515123Y-32816858D01*
X2515049Y-32816919D01*
X2514992Y-32816988D01*
X2513919Y-32818046D01*
X1708711Y-33623254D01*
X1681909Y-33655882D01*
X1654758Y-33688240D01*
X1653600Y-33690346D01*
X1652074Y-33692204D01*
X1632130Y-33729399D01*
X1611771Y-33766433D01*
X1611043Y-33768728D01*
X1609909Y-33770843D01*
X1597558Y-33811240D01*
X1584791Y-33851486D01*
X1584524Y-33853869D01*
X1583819Y-33856174D01*
X1579540Y-33898300D01*
X1574845Y-33940159D01*
X1574812Y-33944849D01*
X1574802Y-33944947D01*
X1574811Y-33945038D01*
X1574800Y-33946543D01*
X1574800Y-34139268D01*
X1371858Y-34245364D01*
X1188486Y-34392799D01*
X1037243Y-34573043D01*
X923890Y-34779231D01*
X852745Y-35003509D01*
X826518Y-35237334D01*
X826400Y-35254167D01*
X430600Y-35254167D01*
X430600Y-31592626D01*
X896952Y-31592626D01*
X935951Y-31805111D01*
X1015478Y-32005975D01*
X1132506Y-32187567D01*
X1282577Y-32342970D01*
X1459974Y-32466264D01*
X1657940Y-32552753D01*
X1868935Y-32599143D01*
X2084923Y-32603668D01*
X2297675Y-32566154D01*
X2499090Y-32488030D01*
X2681494Y-32372273D01*
X2837941Y-32223291D01*
X2962470Y-32046759D01*
X3050339Y-31849401D01*
X3098202Y-31638735D01*
X3101647Y-31391983D01*
X3059686Y-31180062D01*
X2977361Y-30980328D01*
X2857809Y-30800388D01*
X2705584Y-30647096D01*
X2526483Y-30526291D01*
X2327328Y-30442574D01*
X2115706Y-30399134D01*
X1899676Y-30397626D01*
X1687468Y-30438107D01*
X1487164Y-30519035D01*
X1306393Y-30637327D01*
X1152042Y-30788479D01*
X1029990Y-30966732D01*
X944885Y-31165298D01*
X899968Y-31376612D01*
X896952Y-31592626D01*
X430600Y-31592626D01*
X430600Y-29176800D01*
X7005400Y-29176800D01*
X7005400Y-29462040D01*
X7028827Y-29579813D01*
X7074779Y-29690754D01*
X7141493Y-29790597D01*
X7226402Y-29875507D01*
X7326246Y-29942220D01*
X7437186Y-29988173D01*
X7554959Y-30011600D01*
X7635200Y-30011600D01*
X7787600Y-29859200D01*
X7787600Y-29024400D01*
X7157800Y-29024400D01*
X7005400Y-29176800D01*
X430600Y-29176800D01*
X430600Y-27164432D01*
X2041830Y-27164432D01*
X2111061Y-27541644D01*
X2252242Y-27898226D01*
X2459994Y-28220594D01*
X2726404Y-28496470D01*
X3041326Y-28715346D01*
X3392762Y-28868885D01*
X3767329Y-28951239D01*
X4150758Y-28959270D01*
X4528444Y-28892674D01*
X4886002Y-28753986D01*
X5209813Y-28548490D01*
X5487542Y-28284012D01*
X5488989Y-28281960D01*
X7005400Y-28281960D01*
X7005400Y-28567200D01*
X7157800Y-28719600D01*
X7787600Y-28719600D01*
X7787600Y-27884800D01*
X7635200Y-27732400D01*
X7554959Y-27732400D01*
X7437186Y-27755827D01*
X7326246Y-27801780D01*
X7226402Y-27868493D01*
X7141493Y-27953403D01*
X7074779Y-28053246D01*
X7028827Y-28164187D01*
X7005400Y-28281960D01*
X5488989Y-28281960D01*
X5708611Y-27970626D01*
X5864600Y-27620270D01*
X5949567Y-27246288D01*
X5955684Y-26808244D01*
X5881192Y-26432035D01*
X5735047Y-26077459D01*
X5522814Y-25758023D01*
X5252578Y-25485894D01*
X4934631Y-25271436D01*
X4581085Y-25122819D01*
X4205405Y-25045703D01*
X3821901Y-25043025D01*
X3445182Y-25114889D01*
X3089595Y-25258555D01*
X2768685Y-25468553D01*
X2494675Y-25736882D01*
X2278003Y-26053324D01*
X2126921Y-26405824D01*
X2047184Y-26780957D01*
X2041830Y-27164432D01*
X430600Y-27164432D01*
X430600Y-20022800D01*
X2654400Y-20022800D01*
X2654400Y-21274040D01*
X2677827Y-21391813D01*
X2723779Y-21502754D01*
X2790493Y-21602597D01*
X2875402Y-21687507D01*
X2975246Y-21754220D01*
X3086186Y-21800173D01*
X3203959Y-21823600D01*
X3511600Y-21823600D01*
X3664000Y-21671200D01*
X3664000Y-19870400D01*
X4464000Y-19870400D01*
X4464000Y-21671200D01*
X4616400Y-21823600D01*
X4924041Y-21823600D01*
X5041814Y-21800173D01*
X5152754Y-21754220D01*
X5252598Y-21687507D01*
X5337507Y-21602597D01*
X5404221Y-21502754D01*
X5450173Y-21391813D01*
X5473600Y-21274040D01*
X5473600Y-20022800D01*
X5321200Y-19870400D01*
X4464000Y-19870400D01*
X3664000Y-19870400D01*
X2806800Y-19870400D01*
X2654400Y-20022800D01*
X430600Y-20022800D01*
X430600Y-17653960D01*
X2654400Y-17653960D01*
X2654400Y-18905200D01*
X2806800Y-19057600D01*
X3664000Y-19057600D01*
X3664000Y-17256800D01*
X4464000Y-17256800D01*
X4464000Y-19057600D01*
X5321200Y-19057600D01*
X5324656Y-19054144D01*
X7772424Y-19054144D01*
X7810910Y-22356144D01*
X7835205Y-22481245D01*
X7911589Y-22599950D01*
X8028138Y-22679584D01*
X8166486Y-22707600D01*
X19304000Y-22707600D01*
X19433245Y-22683281D01*
X19551950Y-22606897D01*
X19631584Y-22490348D01*
X19659600Y-22352000D01*
X19659600Y-21936626D01*
X19978952Y-21936626D01*
X20017951Y-22149111D01*
X20097478Y-22349975D01*
X20214506Y-22531567D01*
X20364577Y-22686970D01*
X20541974Y-22810264D01*
X20739940Y-22896753D01*
X20950935Y-22943143D01*
X21166923Y-22947668D01*
X21379675Y-22910154D01*
X21581090Y-22832030D01*
X21763494Y-22716273D01*
X21919941Y-22567291D01*
X22044470Y-22390759D01*
X22132339Y-22193401D01*
X22180202Y-21982735D01*
X22183647Y-21735983D01*
X22141686Y-21524062D01*
X22059361Y-21324328D01*
X21939809Y-21144388D01*
X21787584Y-20991096D01*
X21608483Y-20870291D01*
X21409328Y-20786574D01*
X21197706Y-20743134D01*
X20981676Y-20741626D01*
X20769468Y-20782107D01*
X20569164Y-20863035D01*
X20388393Y-20981327D01*
X20234042Y-21132479D01*
X20111990Y-21310732D01*
X20026885Y-21509298D01*
X19981968Y-21720612D01*
X19978952Y-21936626D01*
X19659600Y-21936626D01*
X19659600Y-19304000D01*
X19635281Y-19174755D01*
X19558897Y-19056050D01*
X19451854Y-18982911D01*
X19489173Y-18892814D01*
X19512600Y-18775041D01*
X19512600Y-18717400D01*
X19360200Y-18565000D01*
X18280400Y-18565000D01*
X18280400Y-18587400D01*
X17975600Y-18587400D01*
X17975600Y-18565000D01*
X16895800Y-18565000D01*
X16743400Y-18717400D01*
X16743400Y-18775041D01*
X16766827Y-18892814D01*
X16789852Y-18948400D01*
X16611600Y-18948400D01*
X16611600Y-18288000D01*
X16587281Y-18158755D01*
X16510897Y-18040050D01*
X16394348Y-17960416D01*
X16256000Y-17932400D01*
X14732000Y-17932400D01*
X14602755Y-17956719D01*
X14484050Y-18033103D01*
X14404416Y-18149652D01*
X14376400Y-18288000D01*
X14376400Y-18694400D01*
X8128000Y-18694400D01*
X7994902Y-18720248D01*
X7877097Y-18798010D01*
X7798826Y-18915479D01*
X7772424Y-19054144D01*
X5324656Y-19054144D01*
X5473600Y-18905200D01*
X5473600Y-17653960D01*
X5450173Y-17536187D01*
X5404221Y-17425246D01*
X5337507Y-17325403D01*
X5252598Y-17240493D01*
X5152754Y-17173780D01*
X5041814Y-17127827D01*
X4924041Y-17104400D01*
X4616400Y-17104400D01*
X4464000Y-17256800D01*
X3664000Y-17256800D01*
X3511600Y-17104400D01*
X3203959Y-17104400D01*
X3086186Y-17127827D01*
X2975246Y-17173780D01*
X2875402Y-17240493D01*
X2790493Y-17325403D01*
X2723779Y-17425246D01*
X2677827Y-17536187D01*
X2654400Y-17653960D01*
X430600Y-17653960D01*
X430600Y-16703050D01*
X14361400Y-16703050D01*
X14361400Y-17227532D01*
X14379946Y-17320769D01*
X14416325Y-17408597D01*
X14469140Y-17487640D01*
X14536360Y-17554860D01*
X14615403Y-17607675D01*
X14703231Y-17644054D01*
X14796468Y-17662600D01*
X15220950Y-17662600D01*
X15341600Y-17541950D01*
X15341600Y-16582400D01*
X15646400Y-16582400D01*
X15646400Y-17541950D01*
X15767050Y-17662600D01*
X16191532Y-17662600D01*
X16284769Y-17644054D01*
X16372597Y-17607675D01*
X16451640Y-17554860D01*
X16518860Y-17487640D01*
X16545747Y-17447400D01*
X16743400Y-17447400D01*
X16743400Y-17505041D01*
X16766827Y-17622814D01*
X16812780Y-17733754D01*
X16843680Y-17780000D01*
X16812780Y-17826246D01*
X16766827Y-17937186D01*
X16743400Y-18054959D01*
X16743400Y-18112600D01*
X16895800Y-18265000D01*
X17975600Y-18265000D01*
X17975600Y-17295000D01*
X18280400Y-17295000D01*
X18280400Y-18265000D01*
X19360200Y-18265000D01*
X19512600Y-18112600D01*
X19512600Y-18054959D01*
X19489173Y-17937186D01*
X19443220Y-17826246D01*
X19412320Y-17780000D01*
X19443220Y-17733754D01*
X19489173Y-17622814D01*
X19512600Y-17505041D01*
X19512600Y-17447400D01*
X22143400Y-17447400D01*
X22143400Y-17505041D01*
X22166827Y-17622814D01*
X22212780Y-17733754D01*
X22243680Y-17780000D01*
X22212780Y-17826246D01*
X22166827Y-17937186D01*
X22143400Y-18054959D01*
X22143400Y-18112600D01*
X22295800Y-18265000D01*
X23375600Y-18265000D01*
X23375600Y-17295000D01*
X23680400Y-17295000D01*
X23680400Y-18265000D01*
X24760200Y-18265000D01*
X24912600Y-18112600D01*
X24912600Y-18054959D01*
X24889173Y-17937186D01*
X24843220Y-17826246D01*
X24812320Y-17780000D01*
X24843220Y-17733754D01*
X24889173Y-17622814D01*
X24912600Y-17505041D01*
X24912600Y-17447400D01*
X24760200Y-17295000D01*
X23680400Y-17295000D01*
X23375600Y-17295000D01*
X22295800Y-17295000D01*
X22143400Y-17447400D01*
X19512600Y-17447400D01*
X19360200Y-17295000D01*
X18280400Y-17295000D01*
X17975600Y-17295000D01*
X16895800Y-17295000D01*
X16743400Y-17447400D01*
X16545747Y-17447400D01*
X16571675Y-17408597D01*
X16608054Y-17320769D01*
X16626600Y-17227532D01*
X16626600Y-16784959D01*
X16743400Y-16784959D01*
X16743400Y-16842600D01*
X16895800Y-16995000D01*
X17975600Y-16995000D01*
X17975600Y-16972600D01*
X18280400Y-16972600D01*
X18280400Y-16995000D01*
X19360200Y-16995000D01*
X19512600Y-16842600D01*
X19512600Y-16784959D01*
X22143400Y-16784959D01*
X22143400Y-16842600D01*
X22295800Y-16995000D01*
X23375600Y-16995000D01*
X23375600Y-16972600D01*
X23680400Y-16972600D01*
X23680400Y-16995000D01*
X24760200Y-16995000D01*
X24912600Y-16842600D01*
X24912600Y-16784959D01*
X24889173Y-16667186D01*
X24843220Y-16556246D01*
X24776507Y-16456402D01*
X24691597Y-16371493D01*
X24623103Y-16325726D01*
X24646173Y-16274547D01*
X24660320Y-16175000D01*
X24660320Y-15575000D01*
X24655804Y-15518372D01*
X24626060Y-15422325D01*
X24570736Y-15338367D01*
X24494212Y-15273146D01*
X24402547Y-15231827D01*
X24303000Y-15217680D01*
X22753000Y-15217680D01*
X22696372Y-15222196D01*
X22600325Y-15251940D01*
X22516367Y-15307264D01*
X22451146Y-15383788D01*
X22409827Y-15475453D01*
X22395680Y-15575000D01*
X22395680Y-16175000D01*
X22400196Y-16231628D01*
X22429940Y-16327675D01*
X22429952Y-16327694D01*
X22364403Y-16371493D01*
X22279493Y-16456402D01*
X22212780Y-16556246D01*
X22166827Y-16667186D01*
X22143400Y-16784959D01*
X19512600Y-16784959D01*
X19489173Y-16667186D01*
X19443220Y-16556246D01*
X19376507Y-16456402D01*
X19291597Y-16371493D01*
X19223103Y-16325726D01*
X19246173Y-16274547D01*
X19260320Y-16175000D01*
X19260320Y-15575000D01*
X19255804Y-15518372D01*
X19226060Y-15422325D01*
X19170736Y-15338367D01*
X19094212Y-15273146D01*
X19002547Y-15231827D01*
X18903000Y-15217680D01*
X17353000Y-15217680D01*
X17296372Y-15222196D01*
X17200325Y-15251940D01*
X17116367Y-15307264D01*
X17051146Y-15383788D01*
X17009827Y-15475453D01*
X16995680Y-15575000D01*
X16995680Y-16175000D01*
X17000196Y-16231628D01*
X17029940Y-16327675D01*
X17029952Y-16327694D01*
X16964403Y-16371493D01*
X16879493Y-16456402D01*
X16812780Y-16556246D01*
X16766827Y-16667186D01*
X16743400Y-16784959D01*
X16626600Y-16784959D01*
X16626600Y-16703050D01*
X16505950Y-16582400D01*
X15646400Y-16582400D01*
X15341600Y-16582400D01*
X14482050Y-16582400D01*
X14361400Y-16703050D01*
X430600Y-16703050D01*
X430600Y-8128000D01*
X2184400Y-8128000D01*
X2184400Y-16256000D01*
X2208719Y-16385245D01*
X2285103Y-16503950D01*
X2401652Y-16583584D01*
X2540000Y-16611600D01*
X5588000Y-16611600D01*
X5717245Y-16587281D01*
X5835950Y-16510897D01*
X5915584Y-16394348D01*
X5943600Y-16256000D01*
X5943600Y-15632468D01*
X14361400Y-15632468D01*
X14361400Y-16156950D01*
X14482050Y-16277600D01*
X15341600Y-16277600D01*
X15341600Y-15318050D01*
X15646400Y-15318050D01*
X15646400Y-16277600D01*
X16505950Y-16277600D01*
X16626600Y-16156950D01*
X16626600Y-15632468D01*
X16608054Y-15539231D01*
X16571675Y-15451403D01*
X16518860Y-15372360D01*
X16451640Y-15305140D01*
X16372597Y-15252325D01*
X16284769Y-15215946D01*
X16191532Y-15197400D01*
X15767050Y-15197400D01*
X15646400Y-15318050D01*
X15341600Y-15318050D01*
X15220950Y-15197400D01*
X14796468Y-15197400D01*
X14703231Y-15215946D01*
X14615403Y-15252325D01*
X14536360Y-15305140D01*
X14469140Y-15372360D01*
X14416325Y-15451403D01*
X14379946Y-15539231D01*
X14361400Y-15632468D01*
X5943600Y-15632468D01*
X5943600Y-15087600D01*
X14732000Y-15087600D01*
X14861245Y-15063281D01*
X14979950Y-14986897D01*
X15059584Y-14870348D01*
X15087600Y-14732000D01*
X15087600Y-10007600D01*
X18288000Y-10007600D01*
X18417245Y-9983281D01*
X18535950Y-9906897D01*
X18615584Y-9790348D01*
X18643600Y-9652000D01*
X18643600Y-8275776D01*
X18665989Y-8298960D01*
X18862324Y-8435416D01*
X19002800Y-8496788D01*
X19002800Y-10148129D01*
X19006922Y-10190172D01*
X19010602Y-10232232D01*
X19011272Y-10234539D01*
X19011507Y-10236933D01*
X19023704Y-10277329D01*
X19035496Y-10317919D01*
X19036605Y-10320058D01*
X19037298Y-10322354D01*
X19057115Y-10359625D01*
X19076560Y-10397138D01*
X19078058Y-10399014D01*
X19079188Y-10401140D01*
X19105917Y-10433913D01*
X19132228Y-10466872D01*
X19135523Y-10470214D01*
X19135584Y-10470288D01*
X19135653Y-10470345D01*
X19136711Y-10471418D01*
X20238582Y-11573289D01*
X20271188Y-11600072D01*
X20303568Y-11627242D01*
X20305677Y-11628401D01*
X20307533Y-11629926D01*
X20344707Y-11649858D01*
X20381761Y-11670229D01*
X20384056Y-11670957D01*
X20386171Y-11672091D01*
X20426568Y-11684442D01*
X20466814Y-11697209D01*
X20469197Y-11697476D01*
X20471502Y-11698181D01*
X20513628Y-11702460D01*
X20555487Y-11707155D01*
X20560177Y-11707188D01*
X20560275Y-11707198D01*
X20560366Y-11707189D01*
X20561871Y-11707200D01*
X23700722Y-11707200D01*
X25042800Y-13049279D01*
X25042800Y-19551941D01*
X24780728Y-19289869D01*
X24740854Y-19257116D01*
X24701301Y-19223927D01*
X24698726Y-19222511D01*
X24696455Y-19220646D01*
X24667075Y-19204892D01*
X24691597Y-19188507D01*
X24776507Y-19103598D01*
X24843220Y-19003754D01*
X24889173Y-18892814D01*
X24912600Y-18775041D01*
X24912600Y-18717400D01*
X24760200Y-18565000D01*
X23680400Y-18565000D01*
X23680400Y-18587400D01*
X23375600Y-18587400D01*
X23375600Y-18565000D01*
X22295800Y-18565000D01*
X22143400Y-18717400D01*
X22143400Y-18775041D01*
X22166827Y-18892814D01*
X22212780Y-19003754D01*
X22279493Y-19103598D01*
X22364403Y-19188507D01*
X22432897Y-19234274D01*
X22409827Y-19285453D01*
X22395680Y-19385000D01*
X22395680Y-19985000D01*
X22400196Y-20041628D01*
X22429940Y-20137675D01*
X22485264Y-20221633D01*
X22561788Y-20286854D01*
X22653453Y-20328173D01*
X22753000Y-20342320D01*
X24252655Y-20342320D01*
X24367537Y-20457202D01*
X24367537Y-24695280D01*
X24343993Y-24718824D01*
X10283076Y-24718824D01*
X10245365Y-24662063D01*
X10140067Y-24556028D01*
X10016179Y-24472465D01*
X9878420Y-24414556D01*
X9732036Y-24384508D01*
X9582604Y-24383464D01*
X9435815Y-24411466D01*
X9297260Y-24467445D01*
X9172218Y-24549271D01*
X9065450Y-24653826D01*
X8981023Y-24777127D01*
X8922154Y-24914479D01*
X8891085Y-25060650D01*
X8888998Y-25210071D01*
X8915974Y-25357052D01*
X8970985Y-25495994D01*
X9051936Y-25621605D01*
X9155743Y-25729100D01*
X9278452Y-25814385D01*
X9415390Y-25874212D01*
X9553387Y-25904553D01*
X8568194Y-26889746D01*
X8541392Y-26922374D01*
X8514241Y-26954732D01*
X8513083Y-26956838D01*
X8511557Y-26958696D01*
X8491613Y-26995891D01*
X8471254Y-27032925D01*
X8470526Y-27035220D01*
X8469392Y-27037335D01*
X8457041Y-27077732D01*
X8444274Y-27117978D01*
X8444007Y-27120361D01*
X8443302Y-27122666D01*
X8439023Y-27164792D01*
X8434328Y-27206651D01*
X8434295Y-27211341D01*
X8434285Y-27211439D01*
X8434294Y-27211530D01*
X8434283Y-27213035D01*
X8434283Y-27754130D01*
X8325041Y-27732400D01*
X8244800Y-27732400D01*
X8092400Y-27884800D01*
X8092400Y-28719600D01*
X8112400Y-28719600D01*
X8112400Y-29024400D01*
X8092400Y-29024400D01*
X8092400Y-29859200D01*
X8244800Y-30011600D01*
X8325041Y-30011600D01*
X8442814Y-29988173D01*
X8553754Y-29942220D01*
X8653598Y-29875507D01*
X8738507Y-29790597D01*
X8759406Y-29759320D01*
X9215000Y-29759320D01*
X9271628Y-29754804D01*
X9367675Y-29725060D01*
X9368958Y-29724215D01*
X9415453Y-29745173D01*
X9515000Y-29759320D01*
X10165000Y-29759320D01*
X10221628Y-29754804D01*
X10317675Y-29725060D01*
X10401633Y-29669736D01*
X10466854Y-29593212D01*
X10508173Y-29501547D01*
X10522320Y-29402000D01*
X10522320Y-28411960D01*
X10703400Y-28411960D01*
X10703400Y-28667200D01*
X10855800Y-28819600D01*
X11785600Y-28819600D01*
X11785600Y-28014800D01*
X12090400Y-28014800D01*
X12090400Y-28819600D01*
X13020200Y-28819600D01*
X13172600Y-28667200D01*
X13172600Y-28638400D01*
X13253800Y-28719600D01*
X13883600Y-28719600D01*
X13883600Y-27884800D01*
X13731200Y-27732400D01*
X13650959Y-27732400D01*
X13533186Y-27755827D01*
X13422246Y-27801780D01*
X13322402Y-27868493D01*
X13237493Y-27953403D01*
X13170779Y-28053246D01*
X13124827Y-28164187D01*
X13115256Y-28212302D01*
X13103221Y-28183246D01*
X13036507Y-28083403D01*
X12951598Y-27998493D01*
X12851754Y-27931780D01*
X12740814Y-27885827D01*
X12623041Y-27862400D01*
X12242800Y-27862400D01*
X12090400Y-28014800D01*
X11785600Y-28014800D01*
X11633200Y-27862400D01*
X11252959Y-27862400D01*
X11135186Y-27885827D01*
X11024246Y-27931780D01*
X10924402Y-27998493D01*
X10839493Y-28083403D01*
X10772779Y-28183246D01*
X10726827Y-28294187D01*
X10703400Y-28411960D01*
X10522320Y-28411960D01*
X10522320Y-28342000D01*
X10517804Y-28285372D01*
X10488060Y-28189325D01*
X10432736Y-28105367D01*
X10356212Y-28040146D01*
X10264547Y-27998827D01*
X10165000Y-27984680D01*
X9515000Y-27984680D01*
X9458372Y-27989196D01*
X9362325Y-28018940D01*
X9361042Y-28019785D01*
X9348683Y-28014214D01*
X9348683Y-27402413D01*
X10455412Y-26295684D01*
X15390342Y-26295684D01*
X14667150Y-27018876D01*
X14640348Y-27051504D01*
X14613197Y-27083862D01*
X14612039Y-27085968D01*
X14610513Y-27087826D01*
X14590569Y-27125021D01*
X14570210Y-27162055D01*
X14569482Y-27164350D01*
X14568348Y-27166465D01*
X14555997Y-27206862D01*
X14543230Y-27247108D01*
X14542963Y-27249491D01*
X14542258Y-27251796D01*
X14537979Y-27293922D01*
X14533284Y-27335781D01*
X14533251Y-27340471D01*
X14533241Y-27340569D01*
X14533250Y-27340660D01*
X14533239Y-27342165D01*
X14533239Y-27754718D01*
X14421041Y-27732400D01*
X14340800Y-27732400D01*
X14188400Y-27884800D01*
X14188400Y-28719600D01*
X14208400Y-28719600D01*
X14208400Y-29024400D01*
X14188400Y-29024400D01*
X14188400Y-29044400D01*
X13883600Y-29044400D01*
X13883600Y-29024400D01*
X13253800Y-29024400D01*
X13101400Y-29176800D01*
X13101400Y-29205600D01*
X13020200Y-29124400D01*
X12090400Y-29124400D01*
X12090400Y-29144400D01*
X11785600Y-29144400D01*
X11785600Y-29124400D01*
X10855800Y-29124400D01*
X10703400Y-29276800D01*
X10703400Y-29470968D01*
X10668311Y-29481162D01*
X10665701Y-29482515D01*
X10662889Y-29483364D01*
X10617354Y-29507575D01*
X10571486Y-29531351D01*
X10569187Y-29533186D01*
X10566596Y-29534564D01*
X10526633Y-29567157D01*
X10486255Y-29599390D01*
X10482168Y-29603421D01*
X10482081Y-29603492D01*
X10482014Y-29603573D01*
X10480700Y-29604869D01*
X9900889Y-30184680D01*
X9515000Y-30184680D01*
X9458372Y-30189196D01*
X9362325Y-30218940D01*
X9278367Y-30274264D01*
X9213146Y-30350788D01*
X9171827Y-30442453D01*
X9157680Y-30542000D01*
X9157680Y-31602000D01*
X9162196Y-31658628D01*
X9191940Y-31754675D01*
X9247264Y-31838633D01*
X9265535Y-31854205D01*
X9172218Y-31915271D01*
X9065450Y-32019826D01*
X8981023Y-32143127D01*
X8922154Y-32280479D01*
X8891085Y-32426650D01*
X8888998Y-32576071D01*
X8915974Y-32723052D01*
X8970985Y-32861994D01*
X9051936Y-32987605D01*
X9155743Y-33095100D01*
X9278452Y-33180385D01*
X9415390Y-33240212D01*
X9561340Y-33272301D01*
X9710743Y-33275430D01*
X9857908Y-33249481D01*
X9997231Y-33195441D01*
X10123404Y-33115370D01*
X10231621Y-33012316D01*
X10317761Y-32890205D01*
X10378542Y-32753688D01*
X10411649Y-32607966D01*
X10414033Y-32437282D01*
X10396721Y-32349852D01*
X10398746Y-32331802D01*
X10398786Y-32326061D01*
X10398797Y-32325950D01*
X10398787Y-32325847D01*
X10398800Y-32324000D01*
X10398800Y-31871603D01*
X10401633Y-31869736D01*
X10466854Y-31793212D01*
X10508173Y-31701547D01*
X10522320Y-31602000D01*
X10522320Y-31143773D01*
X10955680Y-30710413D01*
X10955680Y-31472000D01*
X10960196Y-31528628D01*
X10989940Y-31624675D01*
X11045264Y-31708633D01*
X11121788Y-31773854D01*
X11213453Y-31815173D01*
X11313000Y-31829320D01*
X12563000Y-31829320D01*
X12619628Y-31824804D01*
X12715675Y-31795060D01*
X12799633Y-31739736D01*
X12864854Y-31663212D01*
X12906173Y-31571547D01*
X12920320Y-31472000D01*
X12920320Y-30558800D01*
X13353680Y-30558800D01*
X13353680Y-31602000D01*
X13358196Y-31658628D01*
X13387940Y-31754675D01*
X13443264Y-31838633D01*
X13519788Y-31903854D01*
X13578800Y-31930454D01*
X13578800Y-32274622D01*
X13188319Y-32665103D01*
X11385267Y-32665103D01*
X11343220Y-32669226D01*
X11301165Y-32672905D01*
X11298858Y-32673575D01*
X11296463Y-32673810D01*
X11256054Y-32686010D01*
X11215477Y-32697799D01*
X11213338Y-32698908D01*
X11211042Y-32699601D01*
X11173771Y-32719418D01*
X11136258Y-32738863D01*
X11134382Y-32740361D01*
X11132256Y-32741491D01*
X11099483Y-32768220D01*
X11066524Y-32794531D01*
X11063182Y-32797826D01*
X11063108Y-32797887D01*
X11063051Y-32797956D01*
X11061978Y-32799014D01*
X10344711Y-33516281D01*
X10317909Y-33548909D01*
X10290758Y-33581267D01*
X10289600Y-33583373D01*
X10288074Y-33585231D01*
X10268130Y-33622426D01*
X10247771Y-33659460D01*
X10247043Y-33661755D01*
X10245909Y-33663870D01*
X10233558Y-33704267D01*
X10220791Y-33744513D01*
X10220524Y-33746896D01*
X10219819Y-33749201D01*
X10215540Y-33791327D01*
X10210845Y-33833186D01*
X10210812Y-33837876D01*
X10210802Y-33837974D01*
X10210811Y-33838065D01*
X10210800Y-33839570D01*
X10210800Y-34139268D01*
X10007858Y-34245364D01*
X9824486Y-34392799D01*
X9673243Y-34573043D01*
X9559890Y-34779231D01*
X9488745Y-35003509D01*
X9462518Y-35237334D01*
X9462400Y-35254167D01*
X9462400Y-35265833D01*
X9485360Y-35500002D01*
X9553367Y-35725251D01*
X9663830Y-35933002D01*
X9812542Y-36115340D01*
X9993837Y-36265321D01*
X10200811Y-36377231D01*
X10425580Y-36446809D01*
X10659583Y-36471404D01*
X10893907Y-36450079D01*
X11119626Y-36383646D01*
X11328142Y-36274636D01*
X11511514Y-36127201D01*
X11662757Y-35946957D01*
X11776110Y-35740769D01*
X11847255Y-35516491D01*
X11873482Y-35282666D01*
X11873600Y-35265833D01*
X11873600Y-35254167D01*
X11850640Y-35019998D01*
X11782633Y-34794749D01*
X11672170Y-34586998D01*
X11523458Y-34404660D01*
X11342163Y-34254679D01*
X11135189Y-34142769D01*
X11125200Y-34139677D01*
X11125200Y-34028948D01*
X11574645Y-33579503D01*
X13377697Y-33579503D01*
X13419740Y-33575381D01*
X13461800Y-33571701D01*
X13464107Y-33571031D01*
X13466501Y-33570796D01*
X13506897Y-33558599D01*
X13547487Y-33546807D01*
X13549626Y-33545698D01*
X13551922Y-33545005D01*
X13589193Y-33525188D01*
X13626706Y-33505743D01*
X13628582Y-33504245D01*
X13630708Y-33503115D01*
X13663481Y-33476386D01*
X13696440Y-33450075D01*
X13699782Y-33446780D01*
X13699856Y-33446719D01*
X13699913Y-33446650D01*
X13700986Y-33445592D01*
X14359289Y-32787289D01*
X14386091Y-32754661D01*
X14413242Y-32722303D01*
X14414400Y-32720197D01*
X14415926Y-32718339D01*
X14435870Y-32681144D01*
X14456229Y-32644110D01*
X14456957Y-32641815D01*
X14458091Y-32639700D01*
X14470442Y-32599303D01*
X14483209Y-32559057D01*
X14483476Y-32556674D01*
X14484181Y-32554369D01*
X14488460Y-32512243D01*
X14493155Y-32470384D01*
X14493188Y-32465694D01*
X14493198Y-32465596D01*
X14493189Y-32465505D01*
X14493200Y-32464000D01*
X14493200Y-31931401D01*
X14513675Y-31925060D01*
X14597633Y-31869736D01*
X14662854Y-31793212D01*
X14704173Y-31701547D01*
X14718320Y-31602000D01*
X14718320Y-30558800D01*
X15253680Y-30558800D01*
X15253680Y-31602000D01*
X15258196Y-31658628D01*
X15287940Y-31754675D01*
X15343264Y-31838633D01*
X15419788Y-31903854D01*
X15511453Y-31945173D01*
X15611000Y-31959320D01*
X16261000Y-31959320D01*
X16317628Y-31954804D01*
X16413675Y-31925060D01*
X16497633Y-31869736D01*
X16562854Y-31793212D01*
X16604173Y-31701547D01*
X16618320Y-31602000D01*
X16618320Y-30558800D01*
X17051680Y-30558800D01*
X17051680Y-31472000D01*
X17056196Y-31528628D01*
X17085940Y-31624675D01*
X17141264Y-31708633D01*
X17217788Y-31773854D01*
X17309453Y-31815173D01*
X17409000Y-31829320D01*
X18659000Y-31829320D01*
X18715628Y-31824804D01*
X18811675Y-31795060D01*
X18895633Y-31739736D01*
X18960854Y-31663212D01*
X19002173Y-31571547D01*
X19016320Y-31472000D01*
X19016320Y-30558800D01*
X19449680Y-30558800D01*
X19449680Y-31602000D01*
X19454196Y-31658628D01*
X19483940Y-31754675D01*
X19539264Y-31838633D01*
X19615788Y-31903854D01*
X19674800Y-31930454D01*
X19674800Y-32485415D01*
X18980711Y-33179504D01*
X18953909Y-33212132D01*
X18926758Y-33244490D01*
X18925600Y-33246596D01*
X18924074Y-33248454D01*
X18904130Y-33285649D01*
X18883771Y-33322683D01*
X18883043Y-33324978D01*
X18881909Y-33327093D01*
X18869558Y-33367490D01*
X18856791Y-33407736D01*
X18856524Y-33410119D01*
X18855819Y-33412424D01*
X18851540Y-33454550D01*
X18846845Y-33496409D01*
X18846812Y-33501099D01*
X18846802Y-33501197D01*
X18846811Y-33501288D01*
X18846800Y-33502793D01*
X18846800Y-34139268D01*
X18643858Y-34245364D01*
X18460486Y-34392799D01*
X18309243Y-34573043D01*
X18195890Y-34779231D01*
X18124745Y-35003509D01*
X18098518Y-35237334D01*
X18098400Y-35254167D01*
X18098400Y-35265833D01*
X18121360Y-35500002D01*
X18189367Y-35725251D01*
X18299830Y-35933002D01*
X18448542Y-36115340D01*
X18629837Y-36265321D01*
X18836811Y-36377231D01*
X19061580Y-36446809D01*
X19295583Y-36471404D01*
X19529907Y-36450079D01*
X19755626Y-36383646D01*
X19964142Y-36274636D01*
X20147514Y-36127201D01*
X20298757Y-35946957D01*
X20412110Y-35740769D01*
X20483255Y-35516491D01*
X20509482Y-35282666D01*
X20509600Y-35265833D01*
X20509600Y-35254167D01*
X20486640Y-35019998D01*
X20418633Y-34794749D01*
X20308170Y-34586998D01*
X20159458Y-34404660D01*
X19978163Y-34254679D01*
X19771189Y-34142769D01*
X19761200Y-34139677D01*
X19761200Y-33692171D01*
X20455289Y-32998082D01*
X20482072Y-32965476D01*
X20509242Y-32933096D01*
X20510401Y-32930987D01*
X20511926Y-32929131D01*
X20531858Y-32891957D01*
X20552229Y-32854903D01*
X20552957Y-32852608D01*
X20554091Y-32850493D01*
X20566442Y-32810096D01*
X20579209Y-32769850D01*
X20579476Y-32767467D01*
X20580181Y-32765162D01*
X20584460Y-32723036D01*
X20589155Y-32681177D01*
X20589188Y-32676487D01*
X20589198Y-32676389D01*
X20589189Y-32676298D01*
X20589200Y-32674793D01*
X20589200Y-31931401D01*
X20609675Y-31925060D01*
X20693633Y-31869736D01*
X20758854Y-31793212D01*
X20800173Y-31701547D01*
X20814320Y-31602000D01*
X20814320Y-30558800D01*
X21349680Y-30558800D01*
X21349680Y-31602000D01*
X21354196Y-31658628D01*
X21383940Y-31754675D01*
X21439264Y-31838633D01*
X21515788Y-31903854D01*
X21607453Y-31945173D01*
X21707000Y-31959320D01*
X22357000Y-31959320D01*
X22413628Y-31954804D01*
X22509675Y-31925060D01*
X22593633Y-31869736D01*
X22658854Y-31793212D01*
X22700173Y-31701547D01*
X22714320Y-31602000D01*
X22714320Y-30558800D01*
X23147680Y-30558800D01*
X23147680Y-31472000D01*
X23152196Y-31528628D01*
X23181940Y-31624675D01*
X23237264Y-31708633D01*
X23313788Y-31773854D01*
X23405453Y-31815173D01*
X23505000Y-31829320D01*
X24755000Y-31829320D01*
X24811628Y-31824804D01*
X24907675Y-31795060D01*
X24991633Y-31739736D01*
X25056854Y-31663212D01*
X25098173Y-31571547D01*
X25112320Y-31472000D01*
X25112320Y-30558800D01*
X25545680Y-30558800D01*
X25545680Y-31602000D01*
X25550196Y-31658628D01*
X25579940Y-31754675D01*
X25635264Y-31838633D01*
X25711788Y-31903854D01*
X25770800Y-31930454D01*
X25770800Y-32105649D01*
X25774922Y-32147692D01*
X25778602Y-32189752D01*
X25779272Y-32192059D01*
X25779507Y-32194453D01*
X25791704Y-32234849D01*
X25803496Y-32275439D01*
X25804605Y-32277578D01*
X25805298Y-32279874D01*
X25825115Y-32317145D01*
X25844560Y-32354658D01*
X25846058Y-32356534D01*
X25847188Y-32358660D01*
X25873917Y-32391433D01*
X25900228Y-32424392D01*
X25903523Y-32427734D01*
X25903584Y-32427808D01*
X25903653Y-32427865D01*
X25904711Y-32428938D01*
X27482800Y-34007027D01*
X27482800Y-34139268D01*
X27279858Y-34245364D01*
X27096486Y-34392799D01*
X26945243Y-34573043D01*
X26831890Y-34779231D01*
X26760745Y-35003509D01*
X26734518Y-35237334D01*
X26734400Y-35254167D01*
X26734400Y-35265833D01*
X26757360Y-35500002D01*
X26825367Y-35725251D01*
X26935830Y-35933002D01*
X27084542Y-36115340D01*
X27265837Y-36265321D01*
X27472811Y-36377231D01*
X27697580Y-36446809D01*
X27931583Y-36471404D01*
X28165907Y-36450079D01*
X28391626Y-36383646D01*
X28600142Y-36274636D01*
X28783514Y-36127201D01*
X28934757Y-35946957D01*
X29048110Y-35740769D01*
X29119255Y-35516491D01*
X29145482Y-35282666D01*
X29145600Y-35265833D01*
X29145600Y-35254167D01*
X29122640Y-35019998D01*
X29054633Y-34794749D01*
X28944170Y-34586998D01*
X28795458Y-34404660D01*
X28614163Y-34254679D01*
X28407189Y-34142769D01*
X28397200Y-34139677D01*
X28397200Y-33817649D01*
X28393077Y-33775602D01*
X28389398Y-33733547D01*
X28388728Y-33731240D01*
X28388493Y-33728845D01*
X28376293Y-33688436D01*
X28364504Y-33647859D01*
X28363395Y-33645720D01*
X28362702Y-33643424D01*
X28342885Y-33606153D01*
X28323440Y-33568640D01*
X28321942Y-33566764D01*
X28320812Y-33564638D01*
X28294083Y-33531865D01*
X28267772Y-33498906D01*
X28264477Y-33495564D01*
X28264416Y-33495490D01*
X28264347Y-33495433D01*
X28263289Y-33494360D01*
X26696752Y-31927823D01*
X26705675Y-31925060D01*
X26789633Y-31869736D01*
X26854854Y-31793212D01*
X26896173Y-31701547D01*
X26910320Y-31602000D01*
X26910320Y-30558800D01*
X27445680Y-30558800D01*
X27445680Y-31602000D01*
X27450196Y-31658628D01*
X27479940Y-31754675D01*
X27535264Y-31838633D01*
X27611788Y-31903854D01*
X27703453Y-31945173D01*
X27803000Y-31959320D01*
X28453000Y-31959320D01*
X28509628Y-31954804D01*
X28605675Y-31925060D01*
X28689633Y-31869736D01*
X28754854Y-31793212D01*
X28796173Y-31701547D01*
X28810320Y-31602000D01*
X28810320Y-30558800D01*
X29243680Y-30558800D01*
X29243680Y-31472000D01*
X29248196Y-31528628D01*
X29277940Y-31624675D01*
X29333264Y-31708633D01*
X29409788Y-31773854D01*
X29501453Y-31815173D01*
X29601000Y-31829320D01*
X30851000Y-31829320D01*
X30907628Y-31824804D01*
X31003675Y-31795060D01*
X31087633Y-31739736D01*
X31152854Y-31663212D01*
X31194173Y-31571547D01*
X31208320Y-31472000D01*
X31208320Y-30558800D01*
X31641680Y-30558800D01*
X31641680Y-31602000D01*
X31646196Y-31658628D01*
X31675940Y-31754675D01*
X31731264Y-31838633D01*
X31807788Y-31903854D01*
X31866800Y-31930454D01*
X31866800Y-32400517D01*
X31870922Y-32442560D01*
X31874602Y-32484620D01*
X31875272Y-32486927D01*
X31875507Y-32489321D01*
X31887704Y-32529717D01*
X31899496Y-32570307D01*
X31900605Y-32572446D01*
X31901298Y-32574742D01*
X31921115Y-32612013D01*
X31940560Y-32649526D01*
X31942058Y-32651402D01*
X31943188Y-32653528D01*
X31969917Y-32686301D01*
X31996228Y-32719260D01*
X31999523Y-32722602D01*
X31999584Y-32722676D01*
X31999653Y-32722733D01*
X32000711Y-32723806D01*
X32715990Y-33439085D01*
X32748618Y-33465887D01*
X32780976Y-33493038D01*
X32783082Y-33494196D01*
X32784940Y-33495722D01*
X32822135Y-33515666D01*
X32859169Y-33536025D01*
X32861464Y-33536753D01*
X32863579Y-33537887D01*
X32903935Y-33550225D01*
X32944222Y-33563005D01*
X32946610Y-33563273D01*
X32948910Y-33563976D01*
X32990942Y-33568245D01*
X33032895Y-33572951D01*
X33037596Y-33572984D01*
X33037683Y-33572993D01*
X33037764Y-33572985D01*
X33039279Y-33572996D01*
X35730013Y-33572996D01*
X36118800Y-33961783D01*
X36118800Y-34139268D01*
X35915858Y-34245364D01*
X35732486Y-34392799D01*
X35581243Y-34573043D01*
X35467890Y-34779231D01*
X35396745Y-35003509D01*
X35370518Y-35237334D01*
X35370400Y-35254167D01*
X35370400Y-35265833D01*
X35393360Y-35500002D01*
X35461367Y-35725251D01*
X35571830Y-35933002D01*
X35720542Y-36115340D01*
X35901837Y-36265321D01*
X36108811Y-36377231D01*
X36333580Y-36446809D01*
X36567583Y-36471404D01*
X36801907Y-36450079D01*
X37027626Y-36383646D01*
X37236142Y-36274636D01*
X37419514Y-36127201D01*
X37570757Y-35946957D01*
X37684110Y-35740769D01*
X37755255Y-35516491D01*
X37781482Y-35282666D01*
X37781600Y-35265833D01*
X37781600Y-35254167D01*
X37758640Y-35019998D01*
X37690633Y-34794749D01*
X37580170Y-34586998D01*
X37431458Y-34404660D01*
X37250163Y-34254679D01*
X37043189Y-34142769D01*
X37033200Y-34139677D01*
X37033200Y-33772405D01*
X37029078Y-33730362D01*
X37025398Y-33688302D01*
X37024728Y-33685995D01*
X37024493Y-33683601D01*
X37012296Y-33643205D01*
X37000504Y-33602615D01*
X36999395Y-33600476D01*
X36998702Y-33598180D01*
X36978885Y-33560909D01*
X36959440Y-33523396D01*
X36957942Y-33521520D01*
X36956812Y-33519394D01*
X36930058Y-33486590D01*
X36903771Y-33453662D01*
X36900478Y-33450322D01*
X36900416Y-33450246D01*
X36900346Y-33450188D01*
X36899289Y-33449116D01*
X36242680Y-32792507D01*
X36210052Y-32765705D01*
X36177694Y-32738554D01*
X36175588Y-32737396D01*
X36173730Y-32735870D01*
X36136535Y-32715926D01*
X36099501Y-32695567D01*
X36097206Y-32694839D01*
X36095091Y-32693705D01*
X36054694Y-32681354D01*
X36014448Y-32668587D01*
X36012065Y-32668320D01*
X36009760Y-32667615D01*
X35967634Y-32663336D01*
X35925775Y-32658641D01*
X35921085Y-32658608D01*
X35920987Y-32658598D01*
X35920896Y-32658607D01*
X35919391Y-32658596D01*
X33228657Y-32658596D01*
X32781200Y-32211139D01*
X32781200Y-31931401D01*
X32801675Y-31925060D01*
X32885633Y-31869736D01*
X32950854Y-31793212D01*
X32992173Y-31701547D01*
X33006320Y-31602000D01*
X33006320Y-30558800D01*
X33541680Y-30558800D01*
X33541680Y-31602000D01*
X33546196Y-31658628D01*
X33575940Y-31754675D01*
X33631264Y-31838633D01*
X33707788Y-31903854D01*
X33799453Y-31945173D01*
X33899000Y-31959320D01*
X34549000Y-31959320D01*
X34605628Y-31954804D01*
X34701675Y-31925060D01*
X34785633Y-31869736D01*
X34850854Y-31793212D01*
X34892173Y-31701547D01*
X34906320Y-31602000D01*
X34906320Y-30558800D01*
X35118538Y-30558800D01*
X35339680Y-30779942D01*
X35339680Y-31472000D01*
X35344196Y-31528628D01*
X35373940Y-31624675D01*
X35429264Y-31708633D01*
X35505788Y-31773854D01*
X35597453Y-31815173D01*
X35697000Y-31829320D01*
X36947000Y-31829320D01*
X37003628Y-31824804D01*
X37099675Y-31795060D01*
X37183633Y-31739736D01*
X37248854Y-31663212D01*
X37280671Y-31592626D01*
X40896952Y-31592626D01*
X40935951Y-31805111D01*
X41015478Y-32005975D01*
X41132506Y-32187567D01*
X41282577Y-32342970D01*
X41459974Y-32466264D01*
X41657940Y-32552753D01*
X41868935Y-32599143D01*
X42084923Y-32603668D01*
X42297675Y-32566154D01*
X42499090Y-32488030D01*
X42681494Y-32372273D01*
X42837941Y-32223291D01*
X42962470Y-32046759D01*
X43050339Y-31849401D01*
X43098202Y-31638735D01*
X43101647Y-31391983D01*
X43059686Y-31180062D01*
X42977361Y-30980328D01*
X42857809Y-30800388D01*
X42705584Y-30647096D01*
X42526483Y-30526291D01*
X42327328Y-30442574D01*
X42115706Y-30399134D01*
X41899676Y-30397626D01*
X41687468Y-30438107D01*
X41487164Y-30519035D01*
X41306393Y-30637327D01*
X41152042Y-30788479D01*
X41029990Y-30966732D01*
X40944885Y-31165298D01*
X40899968Y-31376612D01*
X40896952Y-31592626D01*
X37280671Y-31592626D01*
X37290173Y-31571547D01*
X37304320Y-31472000D01*
X37304320Y-30472000D01*
X37299804Y-30415372D01*
X37270060Y-30319325D01*
X37214736Y-30235367D01*
X37138212Y-30170146D01*
X37046547Y-30128827D01*
X36947000Y-30114680D01*
X36254943Y-30114680D01*
X36119531Y-29979269D01*
X36169600Y-29929200D01*
X36169600Y-29124400D01*
X36474400Y-29124400D01*
X36474400Y-29929200D01*
X36626800Y-30081600D01*
X37007041Y-30081600D01*
X37124814Y-30058173D01*
X37235754Y-30012220D01*
X37335598Y-29945507D01*
X37420507Y-29860597D01*
X37487221Y-29760754D01*
X37533173Y-29649813D01*
X37556600Y-29532040D01*
X37556600Y-29276800D01*
X37404200Y-29124400D01*
X36474400Y-29124400D01*
X36169600Y-29124400D01*
X35239800Y-29124400D01*
X35087400Y-29276800D01*
X35087400Y-29441200D01*
X34900749Y-29441200D01*
X34906320Y-29402000D01*
X34906320Y-28411960D01*
X35087400Y-28411960D01*
X35087400Y-28667200D01*
X35239800Y-28819600D01*
X36169600Y-28819600D01*
X36169600Y-28014800D01*
X36474400Y-28014800D01*
X36474400Y-28819600D01*
X37404200Y-28819600D01*
X37556600Y-28667200D01*
X37556600Y-28411960D01*
X37533173Y-28294187D01*
X37487221Y-28183246D01*
X37420507Y-28083403D01*
X37335598Y-27998493D01*
X37235754Y-27931780D01*
X37124814Y-27885827D01*
X37007041Y-27862400D01*
X36626800Y-27862400D01*
X36474400Y-28014800D01*
X36169600Y-28014800D01*
X36017200Y-27862400D01*
X35636959Y-27862400D01*
X35519186Y-27885827D01*
X35408246Y-27931780D01*
X35308402Y-27998493D01*
X35223493Y-28083403D01*
X35156779Y-28183246D01*
X35110827Y-28294187D01*
X35087400Y-28411960D01*
X34906320Y-28411960D01*
X34906320Y-28342000D01*
X34901804Y-28285372D01*
X34872060Y-28189325D01*
X34816736Y-28105367D01*
X34740212Y-28040146D01*
X34648547Y-27998827D01*
X34549000Y-27984680D01*
X33899000Y-27984680D01*
X33842372Y-27989196D01*
X33746325Y-28018940D01*
X33745042Y-28019785D01*
X33733777Y-28014707D01*
X33733777Y-27164432D01*
X38041830Y-27164432D01*
X38111061Y-27541644D01*
X38252242Y-27898226D01*
X38459994Y-28220594D01*
X38726404Y-28496470D01*
X39041326Y-28715346D01*
X39392762Y-28868885D01*
X39767329Y-28951239D01*
X40150758Y-28959270D01*
X40528444Y-28892674D01*
X40886002Y-28753986D01*
X41209813Y-28548490D01*
X41487542Y-28284012D01*
X41708611Y-27970626D01*
X41864600Y-27620270D01*
X41949567Y-27246288D01*
X41955684Y-26808244D01*
X41881192Y-26432035D01*
X41735047Y-26077459D01*
X41522814Y-25758023D01*
X41252578Y-25485894D01*
X40934631Y-25271436D01*
X40581085Y-25122819D01*
X40205405Y-25045703D01*
X39821901Y-25043025D01*
X39445182Y-25114889D01*
X39089595Y-25258555D01*
X38768685Y-25468553D01*
X38494675Y-25736882D01*
X38278003Y-26053324D01*
X38126921Y-26405824D01*
X38047184Y-26780957D01*
X38041830Y-27164432D01*
X33733777Y-27164432D01*
X33733777Y-27074173D01*
X33729654Y-27032126D01*
X33725975Y-26990071D01*
X33725305Y-26987764D01*
X33725070Y-26985369D01*
X33712870Y-26944960D01*
X33701081Y-26904383D01*
X33699972Y-26902244D01*
X33699279Y-26899948D01*
X33679462Y-26862677D01*
X33660017Y-26825164D01*
X33658519Y-26823288D01*
X33657389Y-26821162D01*
X33630660Y-26788389D01*
X33604349Y-26755430D01*
X33601054Y-26752088D01*
X33600993Y-26752014D01*
X33600924Y-26751957D01*
X33599866Y-26750884D01*
X33195063Y-26346081D01*
X33162435Y-26319279D01*
X33130077Y-26292128D01*
X33127971Y-26290970D01*
X33126113Y-26289444D01*
X33088918Y-26269500D01*
X33051884Y-26249141D01*
X33049589Y-26248413D01*
X33047474Y-26247279D01*
X33007077Y-26234928D01*
X32966831Y-26222161D01*
X32964448Y-26221894D01*
X32962143Y-26221189D01*
X32920017Y-26216910D01*
X32878158Y-26212215D01*
X32873468Y-26212182D01*
X32873370Y-26212172D01*
X32873279Y-26212181D01*
X32871774Y-26212170D01*
X28501451Y-26212170D01*
X27583775Y-25294494D01*
X27583775Y-12174902D01*
X27579653Y-12132859D01*
X27575973Y-12090799D01*
X27575303Y-12088492D01*
X27575068Y-12086098D01*
X27562857Y-12045655D01*
X27551078Y-12005112D01*
X27549972Y-12002977D01*
X27549277Y-12000677D01*
X27529442Y-11963371D01*
X27510015Y-11925893D01*
X27508517Y-11924017D01*
X27507387Y-11921891D01*
X27480653Y-11889112D01*
X27454346Y-11856158D01*
X27451048Y-11852813D01*
X27450991Y-11852743D01*
X27450926Y-11852690D01*
X27449864Y-11851612D01*
X26330323Y-10732071D01*
X27176998Y-10732071D01*
X27203974Y-10879052D01*
X27258985Y-11017994D01*
X27339936Y-11143605D01*
X27443743Y-11251100D01*
X27566452Y-11336385D01*
X27703390Y-11396212D01*
X27849340Y-11428301D01*
X27998743Y-11431430D01*
X28001360Y-11430969D01*
X27962827Y-11516453D01*
X27948680Y-11616000D01*
X27948680Y-13116000D01*
X27953196Y-13172628D01*
X27982940Y-13268675D01*
X28038264Y-13352633D01*
X28114788Y-13417854D01*
X28206453Y-13459173D01*
X28306000Y-13473320D01*
X29606000Y-13473320D01*
X29626451Y-13471689D01*
X29626451Y-13961586D01*
X29606000Y-13958680D01*
X28306000Y-13958680D01*
X28249372Y-13963196D01*
X28153325Y-13992940D01*
X28069367Y-14048264D01*
X28004146Y-14124788D01*
X27962827Y-14216453D01*
X27948680Y-14316000D01*
X27948680Y-15816000D01*
X27953196Y-15872628D01*
X27982940Y-15968675D01*
X28038264Y-16052633D01*
X28114788Y-16117854D01*
X28206453Y-16159173D01*
X28273222Y-16168662D01*
X28226154Y-16278479D01*
X28195085Y-16424650D01*
X28192998Y-16574071D01*
X28219974Y-16721052D01*
X28274985Y-16859994D01*
X28355936Y-16985605D01*
X28459743Y-17093100D01*
X28582452Y-17178385D01*
X28719390Y-17238212D01*
X28865340Y-17270301D01*
X29014743Y-17273430D01*
X29161908Y-17247481D01*
X29301231Y-17193441D01*
X29427404Y-17113370D01*
X29535621Y-17010316D01*
X29621761Y-16888205D01*
X29682542Y-16751688D01*
X29715649Y-16605966D01*
X29718033Y-16435282D01*
X29689007Y-16288692D01*
X29640325Y-16170583D01*
X29662628Y-16168804D01*
X29758675Y-16139060D01*
X29842633Y-16083736D01*
X29907854Y-16007212D01*
X29949173Y-15915547D01*
X29963320Y-15816000D01*
X29963320Y-14722557D01*
X30230052Y-14989289D01*
X30262680Y-15016091D01*
X30295038Y-15043242D01*
X30297144Y-15044400D01*
X30299002Y-15045926D01*
X30336197Y-15065870D01*
X30373231Y-15086229D01*
X30375526Y-15086957D01*
X30377641Y-15088091D01*
X30418038Y-15100442D01*
X30458284Y-15113209D01*
X30460667Y-15113476D01*
X30462972Y-15114181D01*
X30505098Y-15118460D01*
X30546957Y-15123155D01*
X30551647Y-15123188D01*
X30551745Y-15123198D01*
X30551836Y-15123189D01*
X30553341Y-15123200D01*
X32201373Y-15123200D01*
X32230940Y-15218675D01*
X32286264Y-15302633D01*
X32362788Y-15367854D01*
X32454453Y-15409173D01*
X32554000Y-15423320D01*
X33454000Y-15423320D01*
X33510628Y-15418804D01*
X33606675Y-15389060D01*
X33690633Y-15333736D01*
X33755854Y-15257212D01*
X33797173Y-15165547D01*
X33811320Y-15066000D01*
X33811320Y-14266000D01*
X33806804Y-14209372D01*
X33795602Y-14173200D01*
X33894526Y-14173200D01*
X34118680Y-14397354D01*
X34118680Y-15382000D01*
X34123196Y-15438628D01*
X34152940Y-15534675D01*
X34208264Y-15618633D01*
X34284788Y-15683854D01*
X34376453Y-15725173D01*
X34476000Y-15739320D01*
X35976000Y-15739320D01*
X36032628Y-15734804D01*
X36128675Y-15705060D01*
X36212633Y-15649736D01*
X36277854Y-15573212D01*
X36319173Y-15481547D01*
X36333320Y-15382000D01*
X36333320Y-14082000D01*
X36818680Y-14082000D01*
X36818680Y-15382000D01*
X36823196Y-15438628D01*
X36852940Y-15534675D01*
X36908264Y-15618633D01*
X36984788Y-15683854D01*
X37076453Y-15725173D01*
X37176000Y-15739320D01*
X38676000Y-15739320D01*
X38732628Y-15734804D01*
X38828675Y-15705060D01*
X38912633Y-15649736D01*
X38977854Y-15573212D01*
X39019173Y-15481547D01*
X39033320Y-15382000D01*
X39033320Y-15189200D01*
X39090680Y-15189200D01*
X39090680Y-15332000D01*
X39095196Y-15388628D01*
X39124940Y-15484675D01*
X39180264Y-15568633D01*
X39256788Y-15633854D01*
X39348453Y-15675173D01*
X39448000Y-15689320D01*
X40648000Y-15689320D01*
X40704628Y-15684804D01*
X40800675Y-15655060D01*
X40884633Y-15599736D01*
X40949854Y-15523212D01*
X40991173Y-15431547D01*
X41005320Y-15332000D01*
X41005320Y-15036800D01*
X41038400Y-15036800D01*
X41038400Y-15392041D01*
X41061827Y-15509814D01*
X41107780Y-15620754D01*
X41174493Y-15720598D01*
X41259403Y-15805507D01*
X41359246Y-15872221D01*
X41470187Y-15918173D01*
X41587960Y-15941600D01*
X41943200Y-15941600D01*
X42095600Y-15789200D01*
X42095600Y-14884400D01*
X42400400Y-14884400D01*
X42400400Y-15789200D01*
X42552800Y-15941600D01*
X42908040Y-15941600D01*
X43025813Y-15918173D01*
X43136754Y-15872221D01*
X43236597Y-15805507D01*
X43321507Y-15720598D01*
X43388220Y-15620754D01*
X43434173Y-15509814D01*
X43457600Y-15392041D01*
X43457600Y-15036800D01*
X43305200Y-14884400D01*
X42400400Y-14884400D01*
X42095600Y-14884400D01*
X41190800Y-14884400D01*
X41038400Y-15036800D01*
X41005320Y-15036800D01*
X41005320Y-14132000D01*
X41000804Y-14075372D01*
X40999748Y-14071959D01*
X41038400Y-14071959D01*
X41038400Y-14427200D01*
X41190800Y-14579600D01*
X42095600Y-14579600D01*
X42095600Y-13841200D01*
X42179600Y-13757200D01*
X42179600Y-13674800D01*
X42400400Y-13674800D01*
X42400400Y-14579600D01*
X43305200Y-14579600D01*
X43457600Y-14427200D01*
X43457600Y-14071959D01*
X43434173Y-13954186D01*
X43388220Y-13843246D01*
X43333201Y-13760903D01*
X43405507Y-13688598D01*
X43472220Y-13588754D01*
X43518173Y-13477814D01*
X43541600Y-13360041D01*
X43541600Y-13004800D01*
X43389200Y-12852400D01*
X42484400Y-12852400D01*
X42484400Y-13590800D01*
X42400400Y-13674800D01*
X42179600Y-13674800D01*
X42179600Y-12852400D01*
X41274800Y-12852400D01*
X41122400Y-13004800D01*
X41122400Y-13360041D01*
X41145827Y-13477814D01*
X41191780Y-13588754D01*
X41246799Y-13671097D01*
X41174493Y-13743402D01*
X41107780Y-13843246D01*
X41061827Y-13954186D01*
X41038400Y-14071959D01*
X40999748Y-14071959D01*
X40971060Y-13979325D01*
X40915736Y-13895367D01*
X40839212Y-13830146D01*
X40747547Y-13788827D01*
X40648000Y-13774680D01*
X39448000Y-13774680D01*
X39391372Y-13779196D01*
X39295325Y-13808940D01*
X39211367Y-13864264D01*
X39146146Y-13940788D01*
X39104827Y-14032453D01*
X39090680Y-14132000D01*
X39090680Y-14274800D01*
X39033320Y-14274800D01*
X39033320Y-14082000D01*
X39028804Y-14025372D01*
X38999060Y-13929325D01*
X38943736Y-13845367D01*
X38867212Y-13780146D01*
X38775547Y-13738827D01*
X38676000Y-13724680D01*
X37176000Y-13724680D01*
X37119372Y-13729196D01*
X37023325Y-13758940D01*
X36939367Y-13814264D01*
X36874146Y-13890788D01*
X36832827Y-13982453D01*
X36818680Y-14082000D01*
X36333320Y-14082000D01*
X36328804Y-14025372D01*
X36299060Y-13929325D01*
X36243736Y-13845367D01*
X36167212Y-13780146D01*
X36075547Y-13738827D01*
X35976000Y-13724680D01*
X34739162Y-13724680D01*
X34721802Y-13707320D01*
X35976000Y-13707320D01*
X36032628Y-13702804D01*
X36128675Y-13673060D01*
X36212633Y-13617736D01*
X36277854Y-13541212D01*
X36319173Y-13449547D01*
X36333320Y-13350000D01*
X36333320Y-12050000D01*
X36818680Y-12050000D01*
X36818680Y-13350000D01*
X36823196Y-13406628D01*
X36852940Y-13502675D01*
X36908264Y-13586633D01*
X36984788Y-13651854D01*
X37076453Y-13693173D01*
X37176000Y-13707320D01*
X38676000Y-13707320D01*
X38732628Y-13702804D01*
X38828675Y-13673060D01*
X38912633Y-13617736D01*
X38977854Y-13541212D01*
X39019173Y-13449547D01*
X39033320Y-13350000D01*
X39033320Y-13157200D01*
X39174680Y-13157200D01*
X39174680Y-13300000D01*
X39179196Y-13356628D01*
X39208940Y-13452675D01*
X39264264Y-13536633D01*
X39340788Y-13601854D01*
X39432453Y-13643173D01*
X39532000Y-13657320D01*
X40732000Y-13657320D01*
X40788628Y-13652804D01*
X40884675Y-13623060D01*
X40968633Y-13567736D01*
X41033854Y-13491212D01*
X41075173Y-13399547D01*
X41089320Y-13300000D01*
X41089320Y-12100000D01*
X41084804Y-12043372D01*
X41083748Y-12039959D01*
X41122400Y-12039959D01*
X41122400Y-12395200D01*
X41274800Y-12547600D01*
X42179600Y-12547600D01*
X42179600Y-11642800D01*
X42484400Y-11642800D01*
X42484400Y-12547600D01*
X43389200Y-12547600D01*
X43541600Y-12395200D01*
X43541600Y-12039959D01*
X43518173Y-11922186D01*
X43472220Y-11811246D01*
X43405507Y-11711402D01*
X43320597Y-11626493D01*
X43220754Y-11559779D01*
X43109813Y-11513827D01*
X42992040Y-11490400D01*
X42636800Y-11490400D01*
X42484400Y-11642800D01*
X42179600Y-11642800D01*
X42027200Y-11490400D01*
X41671960Y-11490400D01*
X41554187Y-11513827D01*
X41443246Y-11559779D01*
X41343403Y-11626493D01*
X41258493Y-11711402D01*
X41191780Y-11811246D01*
X41145827Y-11922186D01*
X41122400Y-12039959D01*
X41083748Y-12039959D01*
X41055060Y-11947325D01*
X40999736Y-11863367D01*
X40923212Y-11798146D01*
X40831547Y-11756827D01*
X40732000Y-11742680D01*
X39532000Y-11742680D01*
X39475372Y-11747196D01*
X39379325Y-11776940D01*
X39295367Y-11832264D01*
X39230146Y-11908788D01*
X39188827Y-12000453D01*
X39174680Y-12100000D01*
X39174680Y-12242800D01*
X39033320Y-12242800D01*
X39033320Y-12050000D01*
X39028804Y-11993372D01*
X38999060Y-11897325D01*
X38943736Y-11813367D01*
X38867212Y-11748146D01*
X38775547Y-11706827D01*
X38676000Y-11692680D01*
X37176000Y-11692680D01*
X37119372Y-11697196D01*
X37023325Y-11726940D01*
X36939367Y-11782264D01*
X36874146Y-11858788D01*
X36832827Y-11950453D01*
X36818680Y-12050000D01*
X36333320Y-12050000D01*
X36328804Y-11993372D01*
X36299060Y-11897325D01*
X36243736Y-11813367D01*
X36167212Y-11748146D01*
X36075547Y-11706827D01*
X35976000Y-11692680D01*
X34476000Y-11692680D01*
X34419372Y-11697196D01*
X34323325Y-11726940D01*
X34239367Y-11782264D01*
X34174146Y-11858788D01*
X34132827Y-11950453D01*
X34118680Y-12050000D01*
X34118680Y-12207200D01*
X33773024Y-12207200D01*
X33721736Y-12129367D01*
X33645212Y-12064146D01*
X33553547Y-12022827D01*
X33454000Y-12008680D01*
X32554000Y-12008680D01*
X32497372Y-12013196D01*
X32401325Y-12042940D01*
X32317367Y-12098264D01*
X32252146Y-12174788D01*
X32237536Y-12207200D01*
X31793463Y-12207200D01*
X31546800Y-11960538D01*
X31546800Y-11079311D01*
X31541768Y-11027988D01*
X31537265Y-10976520D01*
X31536445Y-10973696D01*
X31536158Y-10970773D01*
X31521246Y-10921383D01*
X31506838Y-10871791D01*
X31505485Y-10869181D01*
X31504636Y-10866369D01*
X31480414Y-10820814D01*
X31456649Y-10774967D01*
X31454815Y-10772670D01*
X31453436Y-10770076D01*
X31420825Y-10730091D01*
X31388610Y-10689735D01*
X31384576Y-10685644D01*
X31384508Y-10685561D01*
X31384431Y-10685497D01*
X31383132Y-10684180D01*
X30971820Y-10272869D01*
X30931946Y-10240116D01*
X30892393Y-10206927D01*
X30889818Y-10205511D01*
X30887547Y-10203646D01*
X30842064Y-10179258D01*
X30796824Y-10154387D01*
X30794022Y-10153498D01*
X30791433Y-10152110D01*
X30742105Y-10137029D01*
X30692870Y-10121411D01*
X30689947Y-10121083D01*
X30687140Y-10120225D01*
X30635826Y-10115012D01*
X30584491Y-10109254D01*
X30578750Y-10109214D01*
X30578639Y-10109203D01*
X30578536Y-10109213D01*
X30576689Y-10109200D01*
X28459022Y-10109200D01*
X28428067Y-10078028D01*
X28304179Y-9994465D01*
X28166420Y-9936556D01*
X28020036Y-9906508D01*
X27870604Y-9905464D01*
X27723815Y-9933466D01*
X27585260Y-9989445D01*
X27460218Y-10071271D01*
X27353450Y-10175826D01*
X27269023Y-10299127D01*
X27210154Y-10436479D01*
X27179085Y-10582650D01*
X27176998Y-10732071D01*
X26330323Y-10732071D01*
X24997200Y-9398949D01*
X24997200Y-8496420D01*
X25092370Y-8459506D01*
X25175821Y-8406546D01*
X26254980Y-8406546D01*
X26337803Y-8646826D01*
X26601941Y-8767010D01*
X26884450Y-8833355D01*
X27174474Y-8843311D01*
X27460868Y-8796493D01*
X27732626Y-8694703D01*
X27822197Y-8646826D01*
X27905020Y-8406546D01*
X28794980Y-8406546D01*
X28877803Y-8646826D01*
X29141941Y-8767010D01*
X29424450Y-8833355D01*
X29714474Y-8843311D01*
X30000868Y-8796493D01*
X30272626Y-8694703D01*
X30362197Y-8646826D01*
X30445020Y-8406546D01*
X29620000Y-7581526D01*
X28794980Y-8406546D01*
X27905020Y-8406546D01*
X27080000Y-7581526D01*
X26254980Y-8406546D01*
X25175821Y-8406546D01*
X25294246Y-8331391D01*
X25467394Y-8166505D01*
X25605217Y-7971128D01*
X25674891Y-7814638D01*
X25751297Y-8018626D01*
X25799174Y-8108197D01*
X26039454Y-8191020D01*
X26864474Y-7366000D01*
X27295526Y-7366000D01*
X28120546Y-8191020D01*
X28350000Y-8111929D01*
X28579454Y-8191020D01*
X29404474Y-7366000D01*
X29835526Y-7366000D01*
X30660546Y-8191020D01*
X30900826Y-8108197D01*
X31021010Y-7844059D01*
X31087355Y-7561550D01*
X31097311Y-7271526D01*
X31050493Y-6985132D01*
X30948703Y-6713374D01*
X30900826Y-6623803D01*
X30660546Y-6540980D01*
X29835526Y-7366000D01*
X29404474Y-7366000D01*
X28579454Y-6540980D01*
X28350000Y-6620071D01*
X28120546Y-6540980D01*
X27295526Y-7366000D01*
X26864474Y-7366000D01*
X26039454Y-6540980D01*
X25799174Y-6623803D01*
X25678990Y-6887941D01*
X25672720Y-6914639D01*
X25621698Y-6790851D01*
X25489384Y-6591702D01*
X25320907Y-6422045D01*
X25122687Y-6288343D01*
X24902272Y-6195689D01*
X24668058Y-6147612D01*
X24428966Y-6145943D01*
X24194104Y-6190745D01*
X23972416Y-6280313D01*
X23772348Y-6411234D01*
X23716980Y-6465455D01*
X23716980Y-5987780D01*
X23712858Y-5945737D01*
X23709178Y-5903677D01*
X23708508Y-5901370D01*
X23708273Y-5898976D01*
X23696076Y-5858580D01*
X23684284Y-5817990D01*
X23683175Y-5815851D01*
X23682482Y-5813555D01*
X23662665Y-5776284D01*
X23643220Y-5738771D01*
X23641722Y-5736895D01*
X23640592Y-5734769D01*
X23613863Y-5701996D01*
X23587552Y-5669037D01*
X23584257Y-5665695D01*
X23584196Y-5665621D01*
X23584127Y-5665564D01*
X23583069Y-5664491D01*
X23152859Y-5234281D01*
X23162467Y-5212701D01*
X23215439Y-4979546D01*
X23216151Y-4928514D01*
X23319198Y-4928514D01*
X23362359Y-5163683D01*
X23450377Y-5385990D01*
X23579898Y-5586968D01*
X23745989Y-5758960D01*
X23942324Y-5895416D01*
X24161424Y-5991138D01*
X24394943Y-6042481D01*
X24633988Y-6047488D01*
X24869453Y-6005969D01*
X25092370Y-5919506D01*
X25175821Y-5866546D01*
X26254980Y-5866546D01*
X26334071Y-6096000D01*
X26254980Y-6325454D01*
X27080000Y-7150474D01*
X27905020Y-6325454D01*
X27825929Y-6096000D01*
X27905020Y-5866546D01*
X28794980Y-5866546D01*
X28874071Y-6096000D01*
X28794980Y-6325454D01*
X29620000Y-7150474D01*
X30445020Y-6325454D01*
X30422608Y-6260432D01*
X36551830Y-6260432D01*
X36621061Y-6637644D01*
X36762242Y-6994226D01*
X36969994Y-7316594D01*
X37236404Y-7592470D01*
X37551326Y-7811346D01*
X37902762Y-7964885D01*
X38277329Y-8047239D01*
X38660758Y-8055270D01*
X39038444Y-7988674D01*
X39396002Y-7849986D01*
X39719813Y-7644490D01*
X39997542Y-7380012D01*
X40218611Y-7066626D01*
X40374600Y-6716270D01*
X40459567Y-6342288D01*
X40465684Y-5904244D01*
X40391192Y-5528035D01*
X40245047Y-5173459D01*
X40032814Y-4854023D01*
X39762578Y-4581894D01*
X39444631Y-4367436D01*
X39091085Y-4218819D01*
X38715405Y-4141703D01*
X38331901Y-4139025D01*
X37955182Y-4210889D01*
X37599595Y-4354555D01*
X37278685Y-4564553D01*
X37004675Y-4832882D01*
X36788003Y-5149324D01*
X36636921Y-5501824D01*
X36557184Y-5876957D01*
X36551830Y-6260432D01*
X30422608Y-6260432D01*
X30365929Y-6096000D01*
X30445020Y-5866546D01*
X29620000Y-5041526D01*
X28794980Y-5866546D01*
X27905020Y-5866546D01*
X27080000Y-5041526D01*
X26254980Y-5866546D01*
X25175821Y-5866546D01*
X25294246Y-5791391D01*
X25467394Y-5626505D01*
X25605217Y-5431128D01*
X25674891Y-5274638D01*
X25751297Y-5478626D01*
X25799174Y-5568197D01*
X26039454Y-5651020D01*
X26864474Y-4826000D01*
X27295526Y-4826000D01*
X28120546Y-5651020D01*
X28350000Y-5571929D01*
X28579454Y-5651020D01*
X29404474Y-4826000D01*
X29835526Y-4826000D01*
X30660546Y-5651020D01*
X30900826Y-5568197D01*
X31021010Y-5304059D01*
X31087355Y-5021550D01*
X31097311Y-4731526D01*
X31050493Y-4445132D01*
X30948703Y-4173374D01*
X30900826Y-4083803D01*
X30660546Y-4000980D01*
X29835526Y-4826000D01*
X29404474Y-4826000D01*
X28579454Y-4000980D01*
X28350000Y-4080071D01*
X28120546Y-4000980D01*
X27295526Y-4826000D01*
X26864474Y-4826000D01*
X26039454Y-4000980D01*
X25799174Y-4083803D01*
X25678990Y-4347941D01*
X25672720Y-4374639D01*
X25621698Y-4250851D01*
X25489384Y-4051702D01*
X25320907Y-3882045D01*
X25177706Y-3785454D01*
X26254980Y-3785454D01*
X27080000Y-4610474D01*
X27905020Y-3785454D01*
X28794980Y-3785454D01*
X29620000Y-4610474D01*
X30445020Y-3785454D01*
X30362197Y-3545174D01*
X30098059Y-3424990D01*
X29815550Y-3358645D01*
X29525526Y-3348689D01*
X29239132Y-3395507D01*
X28967374Y-3497297D01*
X28877803Y-3545174D01*
X28794980Y-3785454D01*
X27905020Y-3785454D01*
X27822197Y-3545174D01*
X27558059Y-3424990D01*
X27275550Y-3358645D01*
X26985526Y-3348689D01*
X26699132Y-3395507D01*
X26427374Y-3497297D01*
X26337803Y-3545174D01*
X26254980Y-3785454D01*
X25177706Y-3785454D01*
X25122687Y-3748343D01*
X24902272Y-3655689D01*
X24668058Y-3607612D01*
X24428966Y-3605943D01*
X24194104Y-3650745D01*
X23972416Y-3740313D01*
X23772348Y-3871234D01*
X23601520Y-4038522D01*
X23466438Y-4235804D01*
X23372247Y-4455567D01*
X23322536Y-4689440D01*
X23319198Y-4928514D01*
X23216151Y-4928514D01*
X23219252Y-4706451D01*
X23172811Y-4471907D01*
X23081698Y-4250851D01*
X22949384Y-4051702D01*
X22780907Y-3882045D01*
X22582687Y-3748343D01*
X22362272Y-3655689D01*
X22128058Y-3607612D01*
X21888966Y-3605943D01*
X21654104Y-3650745D01*
X21432416Y-3740313D01*
X21232348Y-3871234D01*
X21061520Y-4038522D01*
X20926438Y-4235804D01*
X20832247Y-4455567D01*
X20782536Y-4689440D01*
X20779198Y-4928514D01*
X20822359Y-5163683D01*
X20910377Y-5385990D01*
X21039898Y-5586968D01*
X21205989Y-5758960D01*
X21402324Y-5895416D01*
X21621424Y-5991138D01*
X21854943Y-6042481D01*
X22093988Y-6047488D01*
X22329453Y-6005969D01*
X22547008Y-5921586D01*
X22802580Y-6177158D01*
X22802580Y-6443870D01*
X22780907Y-6422045D01*
X22582687Y-6288343D01*
X22362272Y-6195689D01*
X22128058Y-6147612D01*
X21888966Y-6145943D01*
X21654104Y-6190745D01*
X21432416Y-6280313D01*
X21232348Y-6411234D01*
X21183594Y-6458978D01*
X21183594Y-5994394D01*
X21179471Y-5952347D01*
X21175792Y-5910292D01*
X21175122Y-5907985D01*
X21174887Y-5905590D01*
X21162687Y-5865181D01*
X21150898Y-5824604D01*
X21149789Y-5822465D01*
X21149096Y-5820169D01*
X21129279Y-5782898D01*
X21109834Y-5745385D01*
X21108336Y-5743509D01*
X21107206Y-5741383D01*
X21080477Y-5708610D01*
X21054166Y-5675651D01*
X21050871Y-5672309D01*
X21050810Y-5672235D01*
X21050741Y-5672178D01*
X21049683Y-5671105D01*
X20612859Y-5234281D01*
X20622467Y-5212701D01*
X20675439Y-4979546D01*
X20679252Y-4706451D01*
X20632811Y-4471907D01*
X20541698Y-4250851D01*
X20409384Y-4051702D01*
X20240907Y-3882045D01*
X20042687Y-3748343D01*
X19822272Y-3655689D01*
X19588058Y-3607612D01*
X19348966Y-3605943D01*
X19114104Y-3650745D01*
X18892416Y-3740313D01*
X18692348Y-3871234D01*
X18643600Y-3918972D01*
X18643600Y-3556000D01*
X18619281Y-3426755D01*
X18542897Y-3308050D01*
X18426348Y-3228416D01*
X18288000Y-3200400D01*
X10160000Y-3200400D01*
X10030755Y-3224719D01*
X9912050Y-3301103D01*
X9832416Y-3417652D01*
X9804400Y-3556000D01*
X9804400Y-7772400D01*
X6498258Y-7772400D01*
X6699813Y-7644490D01*
X6977542Y-7380012D01*
X7198611Y-7066626D01*
X7354600Y-6716270D01*
X7439567Y-6342288D01*
X7445684Y-5904244D01*
X7371192Y-5528035D01*
X7225047Y-5173459D01*
X7012814Y-4854023D01*
X6742578Y-4581894D01*
X6424631Y-4367436D01*
X6071085Y-4218819D01*
X5695405Y-4141703D01*
X5311901Y-4139025D01*
X4935182Y-4210889D01*
X4579595Y-4354555D01*
X4258685Y-4564553D01*
X3984675Y-4832882D01*
X3768003Y-5149324D01*
X3616921Y-5501824D01*
X3537184Y-5876957D01*
X3531830Y-6260432D01*
X3601061Y-6637644D01*
X3742242Y-6994226D01*
X3949994Y-7316594D01*
X4216404Y-7592470D01*
X4475290Y-7772400D01*
X2540000Y-7772400D01*
X2410755Y-7796719D01*
X2292050Y-7873103D01*
X2212416Y-7989652D01*
X2184400Y-8128000D01*
X430600Y-8128000D01*
X430600Y-2092626D01*
X40896952Y-2092626D01*
X40935951Y-2305111D01*
X41015478Y-2505975D01*
X41132506Y-2687567D01*
X41282577Y-2842970D01*
X41459974Y-2966264D01*
X41657940Y-3052753D01*
X41868935Y-3099143D01*
X42084923Y-3103668D01*
X42297675Y-3066154D01*
X42499090Y-2988030D01*
X42681494Y-2872273D01*
X42837941Y-2723291D01*
X42962470Y-2546759D01*
X43050339Y-2349401D01*
X43098202Y-2138735D01*
X43101647Y-1891983D01*
X43059686Y-1680062D01*
X42977361Y-1480328D01*
X42857809Y-1300388D01*
X42705584Y-1147096D01*
X42526483Y-1026291D01*
X42327328Y-942574D01*
X42115706Y-899134D01*
X41899676Y-897626D01*
X41687468Y-938107D01*
X41487164Y-1019035D01*
X41306393Y-1137327D01*
X41152042Y-1288479D01*
X41029990Y-1466732D01*
X40944885Y-1665298D01*
X40899968Y-1876612D01*
X40896952Y-2092626D01*
X430600Y-2092626D01*
X430600Y-430600D01*
X43569400Y-430600D01*
X43569400Y-45569400D01*
X43569400Y-45569400D01*
G37*
X43569400Y-45569400D02*
X430600Y-45569400D01*
X430600Y-35254167D01*
X826400Y-35254167D01*
X826400Y-35265833D01*
X849360Y-35500002D01*
X917367Y-35725251D01*
X1027830Y-35933002D01*
X1176542Y-36115340D01*
X1357837Y-36265321D01*
X1564811Y-36377231D01*
X1789580Y-36446809D01*
X2023583Y-36471404D01*
X2257907Y-36450079D01*
X2483626Y-36383646D01*
X2692142Y-36274636D01*
X2875514Y-36127201D01*
X3026757Y-35946957D01*
X3140110Y-35740769D01*
X3211255Y-35516491D01*
X3237482Y-35282666D01*
X3237600Y-35265833D01*
X3237600Y-35254167D01*
X3366400Y-35254167D01*
X3366400Y-35265833D01*
X3389360Y-35500002D01*
X3457367Y-35725251D01*
X3567830Y-35933002D01*
X3581400Y-35949640D01*
X3581400Y-37150132D01*
X3590331Y-37241216D01*
X3598305Y-37332354D01*
X3599757Y-37337353D01*
X3600266Y-37342541D01*
X3626719Y-37430157D01*
X3652242Y-37518009D01*
X3654640Y-37522635D01*
X3656145Y-37527620D01*
X3699097Y-37608401D01*
X3741213Y-37689652D01*
X3744462Y-37693722D01*
X3746908Y-37698322D01*
X3804787Y-37769288D01*
X3861829Y-37840743D01*
X3868973Y-37847989D01*
X3869099Y-37848143D01*
X3869242Y-37848261D01*
X3871540Y-37850592D01*
X4943316Y-38922368D01*
X5014009Y-38980436D01*
X5084120Y-39039265D01*
X5088684Y-39041774D01*
X5092710Y-39045081D01*
X5173335Y-39088312D01*
X5253537Y-39132403D01*
X5258505Y-39133979D01*
X5263093Y-39136439D01*
X5350585Y-39163189D01*
X5437819Y-39190861D01*
X5442994Y-39191441D01*
X5447977Y-39192965D01*
X5539055Y-39202216D01*
X5629945Y-39212411D01*
X5640125Y-39212482D01*
X5640318Y-39212502D01*
X5640498Y-39212485D01*
X5643776Y-39212508D01*
X38032124Y-39212508D01*
X38123208Y-39203577D01*
X38214346Y-39195603D01*
X38219345Y-39194151D01*
X38224533Y-39193642D01*
X38312149Y-39167189D01*
X38400001Y-39141666D01*
X38404627Y-39139268D01*
X38409612Y-39137763D01*
X38490393Y-39094811D01*
X38571644Y-39052695D01*
X38575714Y-39049446D01*
X38580314Y-39047000D01*
X38651280Y-38989121D01*
X38722735Y-38932079D01*
X38729981Y-38924935D01*
X38730135Y-38924809D01*
X38730253Y-38924666D01*
X38732584Y-38922368D01*
X39816460Y-37838492D01*
X39874528Y-37767799D01*
X39933357Y-37697688D01*
X39935866Y-37693124D01*
X39939173Y-37689098D01*
X39982423Y-37608438D01*
X40026495Y-37528271D01*
X40028070Y-37523307D01*
X40030532Y-37518715D01*
X40057295Y-37431177D01*
X40084953Y-37343989D01*
X40085533Y-37338814D01*
X40087057Y-37333831D01*
X40096308Y-37242753D01*
X40106503Y-37151863D01*
X40106574Y-37141683D01*
X40106594Y-37141490D01*
X40106577Y-37141310D01*
X40106600Y-37138032D01*
X40106600Y-35951911D01*
X40110757Y-35946957D01*
X40224110Y-35740769D01*
X40247701Y-35666402D01*
X40348798Y-35666402D01*
X40196400Y-35818800D01*
X40196400Y-36170040D01*
X40219827Y-36287813D01*
X40265779Y-36398754D01*
X40332493Y-36498597D01*
X40417402Y-36583507D01*
X40517246Y-36650220D01*
X40628186Y-36696173D01*
X40745959Y-36719600D01*
X41097200Y-36719600D01*
X41249600Y-36567200D01*
X41249600Y-35666400D01*
X42062400Y-35666400D01*
X42062400Y-36567200D01*
X42214800Y-36719600D01*
X42566041Y-36719600D01*
X42683814Y-36696173D01*
X42794754Y-36650220D01*
X42894598Y-36583507D01*
X42979507Y-36498597D01*
X43046221Y-36398754D01*
X43092173Y-36287813D01*
X43115600Y-36170040D01*
X43115600Y-35818800D01*
X42963200Y-35666400D01*
X42062400Y-35666400D01*
X41249600Y-35666400D01*
X41229600Y-35666400D01*
X41229600Y-34853600D01*
X41249600Y-34853600D01*
X41249600Y-33952800D01*
X42062400Y-33952800D01*
X42062400Y-34853600D01*
X42963200Y-34853600D01*
X43115600Y-34701200D01*
X43115600Y-34349960D01*
X43092173Y-34232187D01*
X43046221Y-34121246D01*
X42979507Y-34021403D01*
X42894598Y-33936493D01*
X42794754Y-33869780D01*
X42683814Y-33823827D01*
X42566041Y-33800400D01*
X42214800Y-33800400D01*
X42062400Y-33952800D01*
X41249600Y-33952800D01*
X41097200Y-33800400D01*
X40745959Y-33800400D01*
X40628186Y-33823827D01*
X40517246Y-33869780D01*
X40417402Y-33936493D01*
X40332493Y-34021403D01*
X40265779Y-34121246D01*
X40219827Y-34232187D01*
X40196400Y-34349960D01*
X40196400Y-34701200D01*
X40348798Y-34853598D01*
X40248401Y-34853598D01*
X40230633Y-34794749D01*
X40120170Y-34586998D01*
X39971458Y-34404660D01*
X39790163Y-34254679D01*
X39583189Y-34142769D01*
X39358420Y-34073191D01*
X39124417Y-34048596D01*
X38890093Y-34069921D01*
X38664374Y-34136354D01*
X38455858Y-34245364D01*
X38272486Y-34392799D01*
X38121243Y-34573043D01*
X38007890Y-34779231D01*
X37936745Y-35003509D01*
X37910518Y-35237334D01*
X37910400Y-35254167D01*
X37910400Y-35265833D01*
X37933360Y-35500002D01*
X38001367Y-35725251D01*
X38111830Y-35933002D01*
X38125400Y-35949640D01*
X38125400Y-36727712D01*
X37621804Y-37231308D01*
X31470600Y-37231308D01*
X31470600Y-35951911D01*
X31474757Y-35946957D01*
X31588110Y-35740769D01*
X31611701Y-35666402D01*
X31712798Y-35666402D01*
X31560400Y-35818800D01*
X31560400Y-36170040D01*
X31583827Y-36287813D01*
X31629779Y-36398754D01*
X31696493Y-36498597D01*
X31781402Y-36583507D01*
X31881246Y-36650220D01*
X31992186Y-36696173D01*
X32109959Y-36719600D01*
X32461200Y-36719600D01*
X32613600Y-36567200D01*
X32613600Y-35666400D01*
X33426400Y-35666400D01*
X33426400Y-36567200D01*
X33578800Y-36719600D01*
X33930041Y-36719600D01*
X34047814Y-36696173D01*
X34158754Y-36650220D01*
X34258598Y-36583507D01*
X34343507Y-36498597D01*
X34410221Y-36398754D01*
X34456173Y-36287813D01*
X34479600Y-36170040D01*
X34479600Y-35818800D01*
X34327200Y-35666400D01*
X33426400Y-35666400D01*
X32613600Y-35666400D01*
X32593600Y-35666400D01*
X32593600Y-34853600D01*
X32613600Y-34853600D01*
X32613600Y-33952800D01*
X33426400Y-33952800D01*
X33426400Y-34853600D01*
X34327200Y-34853600D01*
X34479600Y-34701200D01*
X34479600Y-34349960D01*
X34456173Y-34232187D01*
X34410221Y-34121246D01*
X34343507Y-34021403D01*
X34258598Y-33936493D01*
X34158754Y-33869780D01*
X34047814Y-33823827D01*
X33930041Y-33800400D01*
X33578800Y-33800400D01*
X33426400Y-33952800D01*
X32613600Y-33952800D01*
X32461200Y-33800400D01*
X32109959Y-33800400D01*
X31992186Y-33823827D01*
X31881246Y-33869780D01*
X31781402Y-33936493D01*
X31696493Y-34021403D01*
X31629779Y-34121246D01*
X31583827Y-34232187D01*
X31560400Y-34349960D01*
X31560400Y-34701200D01*
X31712798Y-34853598D01*
X31612401Y-34853598D01*
X31594633Y-34794749D01*
X31484170Y-34586998D01*
X31335458Y-34404660D01*
X31154163Y-34254679D01*
X30947189Y-34142769D01*
X30722420Y-34073191D01*
X30488417Y-34048596D01*
X30254093Y-34069921D01*
X30028374Y-34136354D01*
X29819858Y-34245364D01*
X29636486Y-34392799D01*
X29485243Y-34573043D01*
X29371890Y-34779231D01*
X29300745Y-35003509D01*
X29274518Y-35237334D01*
X29274400Y-35254167D01*
X29274400Y-35265833D01*
X29297360Y-35500002D01*
X29365367Y-35725251D01*
X29475830Y-35933002D01*
X29489400Y-35949640D01*
X29489400Y-37231308D01*
X22834600Y-37231308D01*
X22834600Y-35951911D01*
X22838757Y-35946957D01*
X22952110Y-35740769D01*
X22975701Y-35666402D01*
X23076798Y-35666402D01*
X22924400Y-35818800D01*
X22924400Y-36170040D01*
X22947827Y-36287813D01*
X22993779Y-36398754D01*
X23060493Y-36498597D01*
X23145402Y-36583507D01*
X23245246Y-36650220D01*
X23356186Y-36696173D01*
X23473959Y-36719600D01*
X23825200Y-36719600D01*
X23977600Y-36567200D01*
X23977600Y-35666400D01*
X24790400Y-35666400D01*
X24790400Y-36567200D01*
X24942800Y-36719600D01*
X25294041Y-36719600D01*
X25411814Y-36696173D01*
X25522754Y-36650220D01*
X25622598Y-36583507D01*
X25707507Y-36498597D01*
X25774221Y-36398754D01*
X25820173Y-36287813D01*
X25843600Y-36170040D01*
X25843600Y-35818800D01*
X25691200Y-35666400D01*
X24790400Y-35666400D01*
X23977600Y-35666400D01*
X23957600Y-35666400D01*
X23957600Y-34853600D01*
X23977600Y-34853600D01*
X23977600Y-33952800D01*
X24790400Y-33952800D01*
X24790400Y-34853600D01*
X25691200Y-34853600D01*
X25843600Y-34701200D01*
X25843600Y-34349960D01*
X25820173Y-34232187D01*
X25774221Y-34121246D01*
X25707507Y-34021403D01*
X25622598Y-33936493D01*
X25522754Y-33869780D01*
X25411814Y-33823827D01*
X25294041Y-33800400D01*
X24942800Y-33800400D01*
X24790400Y-33952800D01*
X23977600Y-33952800D01*
X23825200Y-33800400D01*
X23473959Y-33800400D01*
X23356186Y-33823827D01*
X23245246Y-33869780D01*
X23145402Y-33936493D01*
X23060493Y-34021403D01*
X22993779Y-34121246D01*
X22947827Y-34232187D01*
X22924400Y-34349960D01*
X22924400Y-34701200D01*
X23076798Y-34853598D01*
X22976401Y-34853598D01*
X22958633Y-34794749D01*
X22848170Y-34586998D01*
X22699458Y-34404660D01*
X22518163Y-34254679D01*
X22311189Y-34142769D01*
X22086420Y-34073191D01*
X21852417Y-34048596D01*
X21618093Y-34069921D01*
X21392374Y-34136354D01*
X21183858Y-34245364D01*
X21000486Y-34392799D01*
X20849243Y-34573043D01*
X20735890Y-34779231D01*
X20664745Y-35003509D01*
X20638518Y-35237334D01*
X20638400Y-35254167D01*
X20638400Y-35265833D01*
X20661360Y-35500002D01*
X20729367Y-35725251D01*
X20839830Y-35933002D01*
X20853400Y-35949640D01*
X20853400Y-37231308D01*
X14198600Y-37231308D01*
X14198600Y-35951911D01*
X14202757Y-35946957D01*
X14316110Y-35740769D01*
X14339701Y-35666402D01*
X14440798Y-35666402D01*
X14288400Y-35818800D01*
X14288400Y-36170040D01*
X14311827Y-36287813D01*
X14357779Y-36398754D01*
X14424493Y-36498597D01*
X14509402Y-36583507D01*
X14609246Y-36650220D01*
X14720186Y-36696173D01*
X14837959Y-36719600D01*
X15189200Y-36719600D01*
X15341600Y-36567200D01*
X15341600Y-35666400D01*
X16154400Y-35666400D01*
X16154400Y-36567200D01*
X16306800Y-36719600D01*
X16658041Y-36719600D01*
X16775814Y-36696173D01*
X16886754Y-36650220D01*
X16986598Y-36583507D01*
X17071507Y-36498597D01*
X17138221Y-36398754D01*
X17184173Y-36287813D01*
X17207600Y-36170040D01*
X17207600Y-35818800D01*
X17055200Y-35666400D01*
X16154400Y-35666400D01*
X15341600Y-35666400D01*
X15321600Y-35666400D01*
X15321600Y-34853600D01*
X15341600Y-34853600D01*
X15341600Y-33952800D01*
X16154400Y-33952800D01*
X16154400Y-34853600D01*
X17055200Y-34853600D01*
X17207600Y-34701200D01*
X17207600Y-34349960D01*
X17184173Y-34232187D01*
X17138221Y-34121246D01*
X17071507Y-34021403D01*
X16986598Y-33936493D01*
X16886754Y-33869780D01*
X16775814Y-33823827D01*
X16658041Y-33800400D01*
X16306800Y-33800400D01*
X16154400Y-33952800D01*
X15341600Y-33952800D01*
X15189200Y-33800400D01*
X14837959Y-33800400D01*
X14720186Y-33823827D01*
X14609246Y-33869780D01*
X14509402Y-33936493D01*
X14424493Y-34021403D01*
X14357779Y-34121246D01*
X14311827Y-34232187D01*
X14288400Y-34349960D01*
X14288400Y-34701200D01*
X14440798Y-34853598D01*
X14340401Y-34853598D01*
X14322633Y-34794749D01*
X14212170Y-34586998D01*
X14063458Y-34404660D01*
X13882163Y-34254679D01*
X13675189Y-34142769D01*
X13450420Y-34073191D01*
X13216417Y-34048596D01*
X12982093Y-34069921D01*
X12756374Y-34136354D01*
X12547858Y-34245364D01*
X12364486Y-34392799D01*
X12213243Y-34573043D01*
X12099890Y-34779231D01*
X12028745Y-35003509D01*
X12002518Y-35237334D01*
X12002400Y-35254167D01*
X12002400Y-35265833D01*
X12025360Y-35500002D01*
X12093367Y-35725251D01*
X12203830Y-35933002D01*
X12217400Y-35949640D01*
X12217400Y-37231308D01*
X6054096Y-37231308D01*
X5562600Y-36739812D01*
X5562600Y-35951911D01*
X5566757Y-35946957D01*
X5680110Y-35740769D01*
X5703701Y-35666402D01*
X5804798Y-35666402D01*
X5652400Y-35818800D01*
X5652400Y-36170040D01*
X5675827Y-36287813D01*
X5721779Y-36398754D01*
X5788493Y-36498597D01*
X5873402Y-36583507D01*
X5973246Y-36650220D01*
X6084186Y-36696173D01*
X6201959Y-36719600D01*
X6553200Y-36719600D01*
X6705600Y-36567200D01*
X6705600Y-35666400D01*
X7518400Y-35666400D01*
X7518400Y-36567200D01*
X7670800Y-36719600D01*
X8022041Y-36719600D01*
X8139814Y-36696173D01*
X8250754Y-36650220D01*
X8350598Y-36583507D01*
X8435507Y-36498597D01*
X8502221Y-36398754D01*
X8548173Y-36287813D01*
X8571600Y-36170040D01*
X8571600Y-35818800D01*
X8419200Y-35666400D01*
X7518400Y-35666400D01*
X6705600Y-35666400D01*
X6685600Y-35666400D01*
X6685600Y-34853600D01*
X6705600Y-34853600D01*
X6705600Y-33952800D01*
X7518400Y-33952800D01*
X7518400Y-34853600D01*
X8419200Y-34853600D01*
X8571600Y-34701200D01*
X8571600Y-34349960D01*
X8548173Y-34232187D01*
X8502221Y-34121246D01*
X8435507Y-34021403D01*
X8350598Y-33936493D01*
X8250754Y-33869780D01*
X8139814Y-33823827D01*
X8022041Y-33800400D01*
X7670800Y-33800400D01*
X7518400Y-33952800D01*
X6705600Y-33952800D01*
X6553200Y-33800400D01*
X6201959Y-33800400D01*
X6084186Y-33823827D01*
X5973246Y-33869780D01*
X5873402Y-33936493D01*
X5788493Y-34021403D01*
X5721779Y-34121246D01*
X5675827Y-34232187D01*
X5652400Y-34349960D01*
X5652400Y-34701200D01*
X5804798Y-34853598D01*
X5704401Y-34853598D01*
X5686633Y-34794749D01*
X5576170Y-34586998D01*
X5427458Y-34404660D01*
X5246163Y-34254679D01*
X5039189Y-34142769D01*
X4814420Y-34073191D01*
X4580417Y-34048596D01*
X4346093Y-34069921D01*
X4120374Y-34136354D01*
X3911858Y-34245364D01*
X3728486Y-34392799D01*
X3577243Y-34573043D01*
X3463890Y-34779231D01*
X3392745Y-35003509D01*
X3366518Y-35237334D01*
X3366400Y-35254167D01*
X3237600Y-35254167D01*
X3214640Y-35019998D01*
X3146633Y-34794749D01*
X3036170Y-34586998D01*
X2887458Y-34404660D01*
X2706163Y-34254679D01*
X2499189Y-34142769D01*
X2489200Y-34139677D01*
X2489200Y-34135921D01*
X3026586Y-33598535D01*
X7171535Y-33598535D01*
X7213578Y-33594413D01*
X7255638Y-33590733D01*
X7257945Y-33590063D01*
X7260339Y-33589828D01*
X7300735Y-33577631D01*
X7341325Y-33565839D01*
X7343464Y-33564730D01*
X7345760Y-33564037D01*
X7383031Y-33544220D01*
X7420544Y-33524775D01*
X7422420Y-33523277D01*
X7424546Y-33522147D01*
X7457319Y-33495418D01*
X7490278Y-33469107D01*
X7493620Y-33465812D01*
X7493694Y-33465751D01*
X7493751Y-33465682D01*
X7494824Y-33464624D01*
X8263289Y-32696159D01*
X8290095Y-32663526D01*
X8317242Y-32631173D01*
X8318399Y-32629068D01*
X8319927Y-32627208D01*
X8339880Y-32589996D01*
X8360229Y-32552980D01*
X8360957Y-32550685D01*
X8362091Y-32548570D01*
X8374442Y-32508173D01*
X8387209Y-32467927D01*
X8387476Y-32465544D01*
X8388181Y-32463239D01*
X8392460Y-32421113D01*
X8397155Y-32379254D01*
X8397188Y-32374564D01*
X8397198Y-32374466D01*
X8397189Y-32374375D01*
X8397200Y-32372870D01*
X8397200Y-31931401D01*
X8417675Y-31925060D01*
X8501633Y-31869736D01*
X8566854Y-31793212D01*
X8608173Y-31701547D01*
X8622320Y-31602000D01*
X8622320Y-30542000D01*
X8617804Y-30485372D01*
X8588060Y-30389325D01*
X8532736Y-30305367D01*
X8456212Y-30240146D01*
X8364547Y-30198827D01*
X8265000Y-30184680D01*
X7615000Y-30184680D01*
X7558372Y-30189196D01*
X7462325Y-30218940D01*
X7378367Y-30274264D01*
X7313146Y-30350788D01*
X7271827Y-30442453D01*
X7257680Y-30542000D01*
X7257680Y-31602000D01*
X7262196Y-31658628D01*
X7291940Y-31754675D01*
X7347264Y-31838633D01*
X7423788Y-31903854D01*
X7482800Y-31930454D01*
X7482800Y-32183492D01*
X6982157Y-32684135D01*
X2837208Y-32684135D01*
X2795165Y-32688257D01*
X2753105Y-32691937D01*
X2750798Y-32692607D01*
X2748404Y-32692842D01*
X2708008Y-32705039D01*
X2667418Y-32716831D01*
X2665279Y-32717940D01*
X2662983Y-32718633D01*
X2625712Y-32738450D01*
X2588199Y-32757895D01*
X2586323Y-32759393D01*
X2584197Y-32760523D01*
X2551424Y-32787252D01*
X2518465Y-32813563D01*
X2515123Y-32816858D01*
X2515049Y-32816919D01*
X2514992Y-32816988D01*
X2513919Y-32818046D01*
X1708711Y-33623254D01*
X1681909Y-33655882D01*
X1654758Y-33688240D01*
X1653600Y-33690346D01*
X1652074Y-33692204D01*
X1632130Y-33729399D01*
X1611771Y-33766433D01*
X1611043Y-33768728D01*
X1609909Y-33770843D01*
X1597558Y-33811240D01*
X1584791Y-33851486D01*
X1584524Y-33853869D01*
X1583819Y-33856174D01*
X1579540Y-33898300D01*
X1574845Y-33940159D01*
X1574812Y-33944849D01*
X1574802Y-33944947D01*
X1574811Y-33945038D01*
X1574800Y-33946543D01*
X1574800Y-34139268D01*
X1371858Y-34245364D01*
X1188486Y-34392799D01*
X1037243Y-34573043D01*
X923890Y-34779231D01*
X852745Y-35003509D01*
X826518Y-35237334D01*
X826400Y-35254167D01*
X430600Y-35254167D01*
X430600Y-31592626D01*
X896952Y-31592626D01*
X935951Y-31805111D01*
X1015478Y-32005975D01*
X1132506Y-32187567D01*
X1282577Y-32342970D01*
X1459974Y-32466264D01*
X1657940Y-32552753D01*
X1868935Y-32599143D01*
X2084923Y-32603668D01*
X2297675Y-32566154D01*
X2499090Y-32488030D01*
X2681494Y-32372273D01*
X2837941Y-32223291D01*
X2962470Y-32046759D01*
X3050339Y-31849401D01*
X3098202Y-31638735D01*
X3101647Y-31391983D01*
X3059686Y-31180062D01*
X2977361Y-30980328D01*
X2857809Y-30800388D01*
X2705584Y-30647096D01*
X2526483Y-30526291D01*
X2327328Y-30442574D01*
X2115706Y-30399134D01*
X1899676Y-30397626D01*
X1687468Y-30438107D01*
X1487164Y-30519035D01*
X1306393Y-30637327D01*
X1152042Y-30788479D01*
X1029990Y-30966732D01*
X944885Y-31165298D01*
X899968Y-31376612D01*
X896952Y-31592626D01*
X430600Y-31592626D01*
X430600Y-29176800D01*
X7005400Y-29176800D01*
X7005400Y-29462040D01*
X7028827Y-29579813D01*
X7074779Y-29690754D01*
X7141493Y-29790597D01*
X7226402Y-29875507D01*
X7326246Y-29942220D01*
X7437186Y-29988173D01*
X7554959Y-30011600D01*
X7635200Y-30011600D01*
X7787600Y-29859200D01*
X7787600Y-29024400D01*
X7157800Y-29024400D01*
X7005400Y-29176800D01*
X430600Y-29176800D01*
X430600Y-27164432D01*
X2041830Y-27164432D01*
X2111061Y-27541644D01*
X2252242Y-27898226D01*
X2459994Y-28220594D01*
X2726404Y-28496470D01*
X3041326Y-28715346D01*
X3392762Y-28868885D01*
X3767329Y-28951239D01*
X4150758Y-28959270D01*
X4528444Y-28892674D01*
X4886002Y-28753986D01*
X5209813Y-28548490D01*
X5487542Y-28284012D01*
X5488989Y-28281960D01*
X7005400Y-28281960D01*
X7005400Y-28567200D01*
X7157800Y-28719600D01*
X7787600Y-28719600D01*
X7787600Y-27884800D01*
X7635200Y-27732400D01*
X7554959Y-27732400D01*
X7437186Y-27755827D01*
X7326246Y-27801780D01*
X7226402Y-27868493D01*
X7141493Y-27953403D01*
X7074779Y-28053246D01*
X7028827Y-28164187D01*
X7005400Y-28281960D01*
X5488989Y-28281960D01*
X5708611Y-27970626D01*
X5864600Y-27620270D01*
X5949567Y-27246288D01*
X5955684Y-26808244D01*
X5881192Y-26432035D01*
X5735047Y-26077459D01*
X5522814Y-25758023D01*
X5252578Y-25485894D01*
X4934631Y-25271436D01*
X4581085Y-25122819D01*
X4205405Y-25045703D01*
X3821901Y-25043025D01*
X3445182Y-25114889D01*
X3089595Y-25258555D01*
X2768685Y-25468553D01*
X2494675Y-25736882D01*
X2278003Y-26053324D01*
X2126921Y-26405824D01*
X2047184Y-26780957D01*
X2041830Y-27164432D01*
X430600Y-27164432D01*
X430600Y-20022800D01*
X2654400Y-20022800D01*
X2654400Y-21274040D01*
X2677827Y-21391813D01*
X2723779Y-21502754D01*
X2790493Y-21602597D01*
X2875402Y-21687507D01*
X2975246Y-21754220D01*
X3086186Y-21800173D01*
X3203959Y-21823600D01*
X3511600Y-21823600D01*
X3664000Y-21671200D01*
X3664000Y-19870400D01*
X4464000Y-19870400D01*
X4464000Y-21671200D01*
X4616400Y-21823600D01*
X4924041Y-21823600D01*
X5041814Y-21800173D01*
X5152754Y-21754220D01*
X5252598Y-21687507D01*
X5337507Y-21602597D01*
X5404221Y-21502754D01*
X5450173Y-21391813D01*
X5473600Y-21274040D01*
X5473600Y-20022800D01*
X5321200Y-19870400D01*
X4464000Y-19870400D01*
X3664000Y-19870400D01*
X2806800Y-19870400D01*
X2654400Y-20022800D01*
X430600Y-20022800D01*
X430600Y-17653960D01*
X2654400Y-17653960D01*
X2654400Y-18905200D01*
X2806800Y-19057600D01*
X3664000Y-19057600D01*
X3664000Y-17256800D01*
X4464000Y-17256800D01*
X4464000Y-19057600D01*
X5321200Y-19057600D01*
X5324656Y-19054144D01*
X7772424Y-19054144D01*
X7810910Y-22356144D01*
X7835205Y-22481245D01*
X7911589Y-22599950D01*
X8028138Y-22679584D01*
X8166486Y-22707600D01*
X19304000Y-22707600D01*
X19433245Y-22683281D01*
X19551950Y-22606897D01*
X19631584Y-22490348D01*
X19659600Y-22352000D01*
X19659600Y-21936626D01*
X19978952Y-21936626D01*
X20017951Y-22149111D01*
X20097478Y-22349975D01*
X20214506Y-22531567D01*
X20364577Y-22686970D01*
X20541974Y-22810264D01*
X20739940Y-22896753D01*
X20950935Y-22943143D01*
X21166923Y-22947668D01*
X21379675Y-22910154D01*
X21581090Y-22832030D01*
X21763494Y-22716273D01*
X21919941Y-22567291D01*
X22044470Y-22390759D01*
X22132339Y-22193401D01*
X22180202Y-21982735D01*
X22183647Y-21735983D01*
X22141686Y-21524062D01*
X22059361Y-21324328D01*
X21939809Y-21144388D01*
X21787584Y-20991096D01*
X21608483Y-20870291D01*
X21409328Y-20786574D01*
X21197706Y-20743134D01*
X20981676Y-20741626D01*
X20769468Y-20782107D01*
X20569164Y-20863035D01*
X20388393Y-20981327D01*
X20234042Y-21132479D01*
X20111990Y-21310732D01*
X20026885Y-21509298D01*
X19981968Y-21720612D01*
X19978952Y-21936626D01*
X19659600Y-21936626D01*
X19659600Y-19304000D01*
X19635281Y-19174755D01*
X19558897Y-19056050D01*
X19451854Y-18982911D01*
X19489173Y-18892814D01*
X19512600Y-18775041D01*
X19512600Y-18717400D01*
X19360200Y-18565000D01*
X18280400Y-18565000D01*
X18280400Y-18587400D01*
X17975600Y-18587400D01*
X17975600Y-18565000D01*
X16895800Y-18565000D01*
X16743400Y-18717400D01*
X16743400Y-18775041D01*
X16766827Y-18892814D01*
X16789852Y-18948400D01*
X16611600Y-18948400D01*
X16611600Y-18288000D01*
X16587281Y-18158755D01*
X16510897Y-18040050D01*
X16394348Y-17960416D01*
X16256000Y-17932400D01*
X14732000Y-17932400D01*
X14602755Y-17956719D01*
X14484050Y-18033103D01*
X14404416Y-18149652D01*
X14376400Y-18288000D01*
X14376400Y-18694400D01*
X8128000Y-18694400D01*
X7994902Y-18720248D01*
X7877097Y-18798010D01*
X7798826Y-18915479D01*
X7772424Y-19054144D01*
X5324656Y-19054144D01*
X5473600Y-18905200D01*
X5473600Y-17653960D01*
X5450173Y-17536187D01*
X5404221Y-17425246D01*
X5337507Y-17325403D01*
X5252598Y-17240493D01*
X5152754Y-17173780D01*
X5041814Y-17127827D01*
X4924041Y-17104400D01*
X4616400Y-17104400D01*
X4464000Y-17256800D01*
X3664000Y-17256800D01*
X3511600Y-17104400D01*
X3203959Y-17104400D01*
X3086186Y-17127827D01*
X2975246Y-17173780D01*
X2875402Y-17240493D01*
X2790493Y-17325403D01*
X2723779Y-17425246D01*
X2677827Y-17536187D01*
X2654400Y-17653960D01*
X430600Y-17653960D01*
X430600Y-16703050D01*
X14361400Y-16703050D01*
X14361400Y-17227532D01*
X14379946Y-17320769D01*
X14416325Y-17408597D01*
X14469140Y-17487640D01*
X14536360Y-17554860D01*
X14615403Y-17607675D01*
X14703231Y-17644054D01*
X14796468Y-17662600D01*
X15220950Y-17662600D01*
X15341600Y-17541950D01*
X15341600Y-16582400D01*
X15646400Y-16582400D01*
X15646400Y-17541950D01*
X15767050Y-17662600D01*
X16191532Y-17662600D01*
X16284769Y-17644054D01*
X16372597Y-17607675D01*
X16451640Y-17554860D01*
X16518860Y-17487640D01*
X16545747Y-17447400D01*
X16743400Y-17447400D01*
X16743400Y-17505041D01*
X16766827Y-17622814D01*
X16812780Y-17733754D01*
X16843680Y-17780000D01*
X16812780Y-17826246D01*
X16766827Y-17937186D01*
X16743400Y-18054959D01*
X16743400Y-18112600D01*
X16895800Y-18265000D01*
X17975600Y-18265000D01*
X17975600Y-17295000D01*
X18280400Y-17295000D01*
X18280400Y-18265000D01*
X19360200Y-18265000D01*
X19512600Y-18112600D01*
X19512600Y-18054959D01*
X19489173Y-17937186D01*
X19443220Y-17826246D01*
X19412320Y-17780000D01*
X19443220Y-17733754D01*
X19489173Y-17622814D01*
X19512600Y-17505041D01*
X19512600Y-17447400D01*
X22143400Y-17447400D01*
X22143400Y-17505041D01*
X22166827Y-17622814D01*
X22212780Y-17733754D01*
X22243680Y-17780000D01*
X22212780Y-17826246D01*
X22166827Y-17937186D01*
X22143400Y-18054959D01*
X22143400Y-18112600D01*
X22295800Y-18265000D01*
X23375600Y-18265000D01*
X23375600Y-17295000D01*
X23680400Y-17295000D01*
X23680400Y-18265000D01*
X24760200Y-18265000D01*
X24912600Y-18112600D01*
X24912600Y-18054959D01*
X24889173Y-17937186D01*
X24843220Y-17826246D01*
X24812320Y-17780000D01*
X24843220Y-17733754D01*
X24889173Y-17622814D01*
X24912600Y-17505041D01*
X24912600Y-17447400D01*
X24760200Y-17295000D01*
X23680400Y-17295000D01*
X23375600Y-17295000D01*
X22295800Y-17295000D01*
X22143400Y-17447400D01*
X19512600Y-17447400D01*
X19360200Y-17295000D01*
X18280400Y-17295000D01*
X17975600Y-17295000D01*
X16895800Y-17295000D01*
X16743400Y-17447400D01*
X16545747Y-17447400D01*
X16571675Y-17408597D01*
X16608054Y-17320769D01*
X16626600Y-17227532D01*
X16626600Y-16784959D01*
X16743400Y-16784959D01*
X16743400Y-16842600D01*
X16895800Y-16995000D01*
X17975600Y-16995000D01*
X17975600Y-16972600D01*
X18280400Y-16972600D01*
X18280400Y-16995000D01*
X19360200Y-16995000D01*
X19512600Y-16842600D01*
X19512600Y-16784959D01*
X22143400Y-16784959D01*
X22143400Y-16842600D01*
X22295800Y-16995000D01*
X23375600Y-16995000D01*
X23375600Y-16972600D01*
X23680400Y-16972600D01*
X23680400Y-16995000D01*
X24760200Y-16995000D01*
X24912600Y-16842600D01*
X24912600Y-16784959D01*
X24889173Y-16667186D01*
X24843220Y-16556246D01*
X24776507Y-16456402D01*
X24691597Y-16371493D01*
X24623103Y-16325726D01*
X24646173Y-16274547D01*
X24660320Y-16175000D01*
X24660320Y-15575000D01*
X24655804Y-15518372D01*
X24626060Y-15422325D01*
X24570736Y-15338367D01*
X24494212Y-15273146D01*
X24402547Y-15231827D01*
X24303000Y-15217680D01*
X22753000Y-15217680D01*
X22696372Y-15222196D01*
X22600325Y-15251940D01*
X22516367Y-15307264D01*
X22451146Y-15383788D01*
X22409827Y-15475453D01*
X22395680Y-15575000D01*
X22395680Y-16175000D01*
X22400196Y-16231628D01*
X22429940Y-16327675D01*
X22429952Y-16327694D01*
X22364403Y-16371493D01*
X22279493Y-16456402D01*
X22212780Y-16556246D01*
X22166827Y-16667186D01*
X22143400Y-16784959D01*
X19512600Y-16784959D01*
X19489173Y-16667186D01*
X19443220Y-16556246D01*
X19376507Y-16456402D01*
X19291597Y-16371493D01*
X19223103Y-16325726D01*
X19246173Y-16274547D01*
X19260320Y-16175000D01*
X19260320Y-15575000D01*
X19255804Y-15518372D01*
X19226060Y-15422325D01*
X19170736Y-15338367D01*
X19094212Y-15273146D01*
X19002547Y-15231827D01*
X18903000Y-15217680D01*
X17353000Y-15217680D01*
X17296372Y-15222196D01*
X17200325Y-15251940D01*
X17116367Y-15307264D01*
X17051146Y-15383788D01*
X17009827Y-15475453D01*
X16995680Y-15575000D01*
X16995680Y-16175000D01*
X17000196Y-16231628D01*
X17029940Y-16327675D01*
X17029952Y-16327694D01*
X16964403Y-16371493D01*
X16879493Y-16456402D01*
X16812780Y-16556246D01*
X16766827Y-16667186D01*
X16743400Y-16784959D01*
X16626600Y-16784959D01*
X16626600Y-16703050D01*
X16505950Y-16582400D01*
X15646400Y-16582400D01*
X15341600Y-16582400D01*
X14482050Y-16582400D01*
X14361400Y-16703050D01*
X430600Y-16703050D01*
X430600Y-8128000D01*
X2184400Y-8128000D01*
X2184400Y-16256000D01*
X2208719Y-16385245D01*
X2285103Y-16503950D01*
X2401652Y-16583584D01*
X2540000Y-16611600D01*
X5588000Y-16611600D01*
X5717245Y-16587281D01*
X5835950Y-16510897D01*
X5915584Y-16394348D01*
X5943600Y-16256000D01*
X5943600Y-15632468D01*
X14361400Y-15632468D01*
X14361400Y-16156950D01*
X14482050Y-16277600D01*
X15341600Y-16277600D01*
X15341600Y-15318050D01*
X15646400Y-15318050D01*
X15646400Y-16277600D01*
X16505950Y-16277600D01*
X16626600Y-16156950D01*
X16626600Y-15632468D01*
X16608054Y-15539231D01*
X16571675Y-15451403D01*
X16518860Y-15372360D01*
X16451640Y-15305140D01*
X16372597Y-15252325D01*
X16284769Y-15215946D01*
X16191532Y-15197400D01*
X15767050Y-15197400D01*
X15646400Y-15318050D01*
X15341600Y-15318050D01*
X15220950Y-15197400D01*
X14796468Y-15197400D01*
X14703231Y-15215946D01*
X14615403Y-15252325D01*
X14536360Y-15305140D01*
X14469140Y-15372360D01*
X14416325Y-15451403D01*
X14379946Y-15539231D01*
X14361400Y-15632468D01*
X5943600Y-15632468D01*
X5943600Y-15087600D01*
X14732000Y-15087600D01*
X14861245Y-15063281D01*
X14979950Y-14986897D01*
X15059584Y-14870348D01*
X15087600Y-14732000D01*
X15087600Y-10007600D01*
X18288000Y-10007600D01*
X18417245Y-9983281D01*
X18535950Y-9906897D01*
X18615584Y-9790348D01*
X18643600Y-9652000D01*
X18643600Y-8275776D01*
X18665989Y-8298960D01*
X18862324Y-8435416D01*
X19002800Y-8496788D01*
X19002800Y-10148129D01*
X19006922Y-10190172D01*
X19010602Y-10232232D01*
X19011272Y-10234539D01*
X19011507Y-10236933D01*
X19023704Y-10277329D01*
X19035496Y-10317919D01*
X19036605Y-10320058D01*
X19037298Y-10322354D01*
X19057115Y-10359625D01*
X19076560Y-10397138D01*
X19078058Y-10399014D01*
X19079188Y-10401140D01*
X19105917Y-10433913D01*
X19132228Y-10466872D01*
X19135523Y-10470214D01*
X19135584Y-10470288D01*
X19135653Y-10470345D01*
X19136711Y-10471418D01*
X20238582Y-11573289D01*
X20271188Y-11600072D01*
X20303568Y-11627242D01*
X20305677Y-11628401D01*
X20307533Y-11629926D01*
X20344707Y-11649858D01*
X20381761Y-11670229D01*
X20384056Y-11670957D01*
X20386171Y-11672091D01*
X20426568Y-11684442D01*
X20466814Y-11697209D01*
X20469197Y-11697476D01*
X20471502Y-11698181D01*
X20513628Y-11702460D01*
X20555487Y-11707155D01*
X20560177Y-11707188D01*
X20560275Y-11707198D01*
X20560366Y-11707189D01*
X20561871Y-11707200D01*
X23700722Y-11707200D01*
X25042800Y-13049279D01*
X25042800Y-19551941D01*
X24780728Y-19289869D01*
X24740854Y-19257116D01*
X24701301Y-19223927D01*
X24698726Y-19222511D01*
X24696455Y-19220646D01*
X24667075Y-19204892D01*
X24691597Y-19188507D01*
X24776507Y-19103598D01*
X24843220Y-19003754D01*
X24889173Y-18892814D01*
X24912600Y-18775041D01*
X24912600Y-18717400D01*
X24760200Y-18565000D01*
X23680400Y-18565000D01*
X23680400Y-18587400D01*
X23375600Y-18587400D01*
X23375600Y-18565000D01*
X22295800Y-18565000D01*
X22143400Y-18717400D01*
X22143400Y-18775041D01*
X22166827Y-18892814D01*
X22212780Y-19003754D01*
X22279493Y-19103598D01*
X22364403Y-19188507D01*
X22432897Y-19234274D01*
X22409827Y-19285453D01*
X22395680Y-19385000D01*
X22395680Y-19985000D01*
X22400196Y-20041628D01*
X22429940Y-20137675D01*
X22485264Y-20221633D01*
X22561788Y-20286854D01*
X22653453Y-20328173D01*
X22753000Y-20342320D01*
X24252655Y-20342320D01*
X24367537Y-20457202D01*
X24367537Y-24695280D01*
X24343993Y-24718824D01*
X10283076Y-24718824D01*
X10245365Y-24662063D01*
X10140067Y-24556028D01*
X10016179Y-24472465D01*
X9878420Y-24414556D01*
X9732036Y-24384508D01*
X9582604Y-24383464D01*
X9435815Y-24411466D01*
X9297260Y-24467445D01*
X9172218Y-24549271D01*
X9065450Y-24653826D01*
X8981023Y-24777127D01*
X8922154Y-24914479D01*
X8891085Y-25060650D01*
X8888998Y-25210071D01*
X8915974Y-25357052D01*
X8970985Y-25495994D01*
X9051936Y-25621605D01*
X9155743Y-25729100D01*
X9278452Y-25814385D01*
X9415390Y-25874212D01*
X9553387Y-25904553D01*
X8568194Y-26889746D01*
X8541392Y-26922374D01*
X8514241Y-26954732D01*
X8513083Y-26956838D01*
X8511557Y-26958696D01*
X8491613Y-26995891D01*
X8471254Y-27032925D01*
X8470526Y-27035220D01*
X8469392Y-27037335D01*
X8457041Y-27077732D01*
X8444274Y-27117978D01*
X8444007Y-27120361D01*
X8443302Y-27122666D01*
X8439023Y-27164792D01*
X8434328Y-27206651D01*
X8434295Y-27211341D01*
X8434285Y-27211439D01*
X8434294Y-27211530D01*
X8434283Y-27213035D01*
X8434283Y-27754130D01*
X8325041Y-27732400D01*
X8244800Y-27732400D01*
X8092400Y-27884800D01*
X8092400Y-28719600D01*
X8112400Y-28719600D01*
X8112400Y-29024400D01*
X8092400Y-29024400D01*
X8092400Y-29859200D01*
X8244800Y-30011600D01*
X8325041Y-30011600D01*
X8442814Y-29988173D01*
X8553754Y-29942220D01*
X8653598Y-29875507D01*
X8738507Y-29790597D01*
X8759406Y-29759320D01*
X9215000Y-29759320D01*
X9271628Y-29754804D01*
X9367675Y-29725060D01*
X9368958Y-29724215D01*
X9415453Y-29745173D01*
X9515000Y-29759320D01*
X10165000Y-29759320D01*
X10221628Y-29754804D01*
X10317675Y-29725060D01*
X10401633Y-29669736D01*
X10466854Y-29593212D01*
X10508173Y-29501547D01*
X10522320Y-29402000D01*
X10522320Y-28411960D01*
X10703400Y-28411960D01*
X10703400Y-28667200D01*
X10855800Y-28819600D01*
X11785600Y-28819600D01*
X11785600Y-28014800D01*
X12090400Y-28014800D01*
X12090400Y-28819600D01*
X13020200Y-28819600D01*
X13172600Y-28667200D01*
X13172600Y-28638400D01*
X13253800Y-28719600D01*
X13883600Y-28719600D01*
X13883600Y-27884800D01*
X13731200Y-27732400D01*
X13650959Y-27732400D01*
X13533186Y-27755827D01*
X13422246Y-27801780D01*
X13322402Y-27868493D01*
X13237493Y-27953403D01*
X13170779Y-28053246D01*
X13124827Y-28164187D01*
X13115256Y-28212302D01*
X13103221Y-28183246D01*
X13036507Y-28083403D01*
X12951598Y-27998493D01*
X12851754Y-27931780D01*
X12740814Y-27885827D01*
X12623041Y-27862400D01*
X12242800Y-27862400D01*
X12090400Y-28014800D01*
X11785600Y-28014800D01*
X11633200Y-27862400D01*
X11252959Y-27862400D01*
X11135186Y-27885827D01*
X11024246Y-27931780D01*
X10924402Y-27998493D01*
X10839493Y-28083403D01*
X10772779Y-28183246D01*
X10726827Y-28294187D01*
X10703400Y-28411960D01*
X10522320Y-28411960D01*
X10522320Y-28342000D01*
X10517804Y-28285372D01*
X10488060Y-28189325D01*
X10432736Y-28105367D01*
X10356212Y-28040146D01*
X10264547Y-27998827D01*
X10165000Y-27984680D01*
X9515000Y-27984680D01*
X9458372Y-27989196D01*
X9362325Y-28018940D01*
X9361042Y-28019785D01*
X9348683Y-28014214D01*
X9348683Y-27402413D01*
X10455412Y-26295684D01*
X15390342Y-26295684D01*
X14667150Y-27018876D01*
X14640348Y-27051504D01*
X14613197Y-27083862D01*
X14612039Y-27085968D01*
X14610513Y-27087826D01*
X14590569Y-27125021D01*
X14570210Y-27162055D01*
X14569482Y-27164350D01*
X14568348Y-27166465D01*
X14555997Y-27206862D01*
X14543230Y-27247108D01*
X14542963Y-27249491D01*
X14542258Y-27251796D01*
X14537979Y-27293922D01*
X14533284Y-27335781D01*
X14533251Y-27340471D01*
X14533241Y-27340569D01*
X14533250Y-27340660D01*
X14533239Y-27342165D01*
X14533239Y-27754718D01*
X14421041Y-27732400D01*
X14340800Y-27732400D01*
X14188400Y-27884800D01*
X14188400Y-28719600D01*
X14208400Y-28719600D01*
X14208400Y-29024400D01*
X14188400Y-29024400D01*
X14188400Y-29044400D01*
X13883600Y-29044400D01*
X13883600Y-29024400D01*
X13253800Y-29024400D01*
X13101400Y-29176800D01*
X13101400Y-29205600D01*
X13020200Y-29124400D01*
X12090400Y-29124400D01*
X12090400Y-29144400D01*
X11785600Y-29144400D01*
X11785600Y-29124400D01*
X10855800Y-29124400D01*
X10703400Y-29276800D01*
X10703400Y-29470968D01*
X10668311Y-29481162D01*
X10665701Y-29482515D01*
X10662889Y-29483364D01*
X10617354Y-29507575D01*
X10571486Y-29531351D01*
X10569187Y-29533186D01*
X10566596Y-29534564D01*
X10526633Y-29567157D01*
X10486255Y-29599390D01*
X10482168Y-29603421D01*
X10482081Y-29603492D01*
X10482014Y-29603573D01*
X10480700Y-29604869D01*
X9900889Y-30184680D01*
X9515000Y-30184680D01*
X9458372Y-30189196D01*
X9362325Y-30218940D01*
X9278367Y-30274264D01*
X9213146Y-30350788D01*
X9171827Y-30442453D01*
X9157680Y-30542000D01*
X9157680Y-31602000D01*
X9162196Y-31658628D01*
X9191940Y-31754675D01*
X9247264Y-31838633D01*
X9265535Y-31854205D01*
X9172218Y-31915271D01*
X9065450Y-32019826D01*
X8981023Y-32143127D01*
X8922154Y-32280479D01*
X8891085Y-32426650D01*
X8888998Y-32576071D01*
X8915974Y-32723052D01*
X8970985Y-32861994D01*
X9051936Y-32987605D01*
X9155743Y-33095100D01*
X9278452Y-33180385D01*
X9415390Y-33240212D01*
X9561340Y-33272301D01*
X9710743Y-33275430D01*
X9857908Y-33249481D01*
X9997231Y-33195441D01*
X10123404Y-33115370D01*
X10231621Y-33012316D01*
X10317761Y-32890205D01*
X10378542Y-32753688D01*
X10411649Y-32607966D01*
X10414033Y-32437282D01*
X10396721Y-32349852D01*
X10398746Y-32331802D01*
X10398786Y-32326061D01*
X10398797Y-32325950D01*
X10398787Y-32325847D01*
X10398800Y-32324000D01*
X10398800Y-31871603D01*
X10401633Y-31869736D01*
X10466854Y-31793212D01*
X10508173Y-31701547D01*
X10522320Y-31602000D01*
X10522320Y-31143773D01*
X10955680Y-30710413D01*
X10955680Y-31472000D01*
X10960196Y-31528628D01*
X10989940Y-31624675D01*
X11045264Y-31708633D01*
X11121788Y-31773854D01*
X11213453Y-31815173D01*
X11313000Y-31829320D01*
X12563000Y-31829320D01*
X12619628Y-31824804D01*
X12715675Y-31795060D01*
X12799633Y-31739736D01*
X12864854Y-31663212D01*
X12906173Y-31571547D01*
X12920320Y-31472000D01*
X12920320Y-30558800D01*
X13353680Y-30558800D01*
X13353680Y-31602000D01*
X13358196Y-31658628D01*
X13387940Y-31754675D01*
X13443264Y-31838633D01*
X13519788Y-31903854D01*
X13578800Y-31930454D01*
X13578800Y-32274622D01*
X13188319Y-32665103D01*
X11385267Y-32665103D01*
X11343220Y-32669226D01*
X11301165Y-32672905D01*
X11298858Y-32673575D01*
X11296463Y-32673810D01*
X11256054Y-32686010D01*
X11215477Y-32697799D01*
X11213338Y-32698908D01*
X11211042Y-32699601D01*
X11173771Y-32719418D01*
X11136258Y-32738863D01*
X11134382Y-32740361D01*
X11132256Y-32741491D01*
X11099483Y-32768220D01*
X11066524Y-32794531D01*
X11063182Y-32797826D01*
X11063108Y-32797887D01*
X11063051Y-32797956D01*
X11061978Y-32799014D01*
X10344711Y-33516281D01*
X10317909Y-33548909D01*
X10290758Y-33581267D01*
X10289600Y-33583373D01*
X10288074Y-33585231D01*
X10268130Y-33622426D01*
X10247771Y-33659460D01*
X10247043Y-33661755D01*
X10245909Y-33663870D01*
X10233558Y-33704267D01*
X10220791Y-33744513D01*
X10220524Y-33746896D01*
X10219819Y-33749201D01*
X10215540Y-33791327D01*
X10210845Y-33833186D01*
X10210812Y-33837876D01*
X10210802Y-33837974D01*
X10210811Y-33838065D01*
X10210800Y-33839570D01*
X10210800Y-34139268D01*
X10007858Y-34245364D01*
X9824486Y-34392799D01*
X9673243Y-34573043D01*
X9559890Y-34779231D01*
X9488745Y-35003509D01*
X9462518Y-35237334D01*
X9462400Y-35254167D01*
X9462400Y-35265833D01*
X9485360Y-35500002D01*
X9553367Y-35725251D01*
X9663830Y-35933002D01*
X9812542Y-36115340D01*
X9993837Y-36265321D01*
X10200811Y-36377231D01*
X10425580Y-36446809D01*
X10659583Y-36471404D01*
X10893907Y-36450079D01*
X11119626Y-36383646D01*
X11328142Y-36274636D01*
X11511514Y-36127201D01*
X11662757Y-35946957D01*
X11776110Y-35740769D01*
X11847255Y-35516491D01*
X11873482Y-35282666D01*
X11873600Y-35265833D01*
X11873600Y-35254167D01*
X11850640Y-35019998D01*
X11782633Y-34794749D01*
X11672170Y-34586998D01*
X11523458Y-34404660D01*
X11342163Y-34254679D01*
X11135189Y-34142769D01*
X11125200Y-34139677D01*
X11125200Y-34028948D01*
X11574645Y-33579503D01*
X13377697Y-33579503D01*
X13419740Y-33575381D01*
X13461800Y-33571701D01*
X13464107Y-33571031D01*
X13466501Y-33570796D01*
X13506897Y-33558599D01*
X13547487Y-33546807D01*
X13549626Y-33545698D01*
X13551922Y-33545005D01*
X13589193Y-33525188D01*
X13626706Y-33505743D01*
X13628582Y-33504245D01*
X13630708Y-33503115D01*
X13663481Y-33476386D01*
X13696440Y-33450075D01*
X13699782Y-33446780D01*
X13699856Y-33446719D01*
X13699913Y-33446650D01*
X13700986Y-33445592D01*
X14359289Y-32787289D01*
X14386091Y-32754661D01*
X14413242Y-32722303D01*
X14414400Y-32720197D01*
X14415926Y-32718339D01*
X14435870Y-32681144D01*
X14456229Y-32644110D01*
X14456957Y-32641815D01*
X14458091Y-32639700D01*
X14470442Y-32599303D01*
X14483209Y-32559057D01*
X14483476Y-32556674D01*
X14484181Y-32554369D01*
X14488460Y-32512243D01*
X14493155Y-32470384D01*
X14493188Y-32465694D01*
X14493198Y-32465596D01*
X14493189Y-32465505D01*
X14493200Y-32464000D01*
X14493200Y-31931401D01*
X14513675Y-31925060D01*
X14597633Y-31869736D01*
X14662854Y-31793212D01*
X14704173Y-31701547D01*
X14718320Y-31602000D01*
X14718320Y-30558800D01*
X15253680Y-30558800D01*
X15253680Y-31602000D01*
X15258196Y-31658628D01*
X15287940Y-31754675D01*
X15343264Y-31838633D01*
X15419788Y-31903854D01*
X15511453Y-31945173D01*
X15611000Y-31959320D01*
X16261000Y-31959320D01*
X16317628Y-31954804D01*
X16413675Y-31925060D01*
X16497633Y-31869736D01*
X16562854Y-31793212D01*
X16604173Y-31701547D01*
X16618320Y-31602000D01*
X16618320Y-30558800D01*
X17051680Y-30558800D01*
X17051680Y-31472000D01*
X17056196Y-31528628D01*
X17085940Y-31624675D01*
X17141264Y-31708633D01*
X17217788Y-31773854D01*
X17309453Y-31815173D01*
X17409000Y-31829320D01*
X18659000Y-31829320D01*
X18715628Y-31824804D01*
X18811675Y-31795060D01*
X18895633Y-31739736D01*
X18960854Y-31663212D01*
X19002173Y-31571547D01*
X19016320Y-31472000D01*
X19016320Y-30558800D01*
X19449680Y-30558800D01*
X19449680Y-31602000D01*
X19454196Y-31658628D01*
X19483940Y-31754675D01*
X19539264Y-31838633D01*
X19615788Y-31903854D01*
X19674800Y-31930454D01*
X19674800Y-32485415D01*
X18980711Y-33179504D01*
X18953909Y-33212132D01*
X18926758Y-33244490D01*
X18925600Y-33246596D01*
X18924074Y-33248454D01*
X18904130Y-33285649D01*
X18883771Y-33322683D01*
X18883043Y-33324978D01*
X18881909Y-33327093D01*
X18869558Y-33367490D01*
X18856791Y-33407736D01*
X18856524Y-33410119D01*
X18855819Y-33412424D01*
X18851540Y-33454550D01*
X18846845Y-33496409D01*
X18846812Y-33501099D01*
X18846802Y-33501197D01*
X18846811Y-33501288D01*
X18846800Y-33502793D01*
X18846800Y-34139268D01*
X18643858Y-34245364D01*
X18460486Y-34392799D01*
X18309243Y-34573043D01*
X18195890Y-34779231D01*
X18124745Y-35003509D01*
X18098518Y-35237334D01*
X18098400Y-35254167D01*
X18098400Y-35265833D01*
X18121360Y-35500002D01*
X18189367Y-35725251D01*
X18299830Y-35933002D01*
X18448542Y-36115340D01*
X18629837Y-36265321D01*
X18836811Y-36377231D01*
X19061580Y-36446809D01*
X19295583Y-36471404D01*
X19529907Y-36450079D01*
X19755626Y-36383646D01*
X19964142Y-36274636D01*
X20147514Y-36127201D01*
X20298757Y-35946957D01*
X20412110Y-35740769D01*
X20483255Y-35516491D01*
X20509482Y-35282666D01*
X20509600Y-35265833D01*
X20509600Y-35254167D01*
X20486640Y-35019998D01*
X20418633Y-34794749D01*
X20308170Y-34586998D01*
X20159458Y-34404660D01*
X19978163Y-34254679D01*
X19771189Y-34142769D01*
X19761200Y-34139677D01*
X19761200Y-33692171D01*
X20455289Y-32998082D01*
X20482072Y-32965476D01*
X20509242Y-32933096D01*
X20510401Y-32930987D01*
X20511926Y-32929131D01*
X20531858Y-32891957D01*
X20552229Y-32854903D01*
X20552957Y-32852608D01*
X20554091Y-32850493D01*
X20566442Y-32810096D01*
X20579209Y-32769850D01*
X20579476Y-32767467D01*
X20580181Y-32765162D01*
X20584460Y-32723036D01*
X20589155Y-32681177D01*
X20589188Y-32676487D01*
X20589198Y-32676389D01*
X20589189Y-32676298D01*
X20589200Y-32674793D01*
X20589200Y-31931401D01*
X20609675Y-31925060D01*
X20693633Y-31869736D01*
X20758854Y-31793212D01*
X20800173Y-31701547D01*
X20814320Y-31602000D01*
X20814320Y-30558800D01*
X21349680Y-30558800D01*
X21349680Y-31602000D01*
X21354196Y-31658628D01*
X21383940Y-31754675D01*
X21439264Y-31838633D01*
X21515788Y-31903854D01*
X21607453Y-31945173D01*
X21707000Y-31959320D01*
X22357000Y-31959320D01*
X22413628Y-31954804D01*
X22509675Y-31925060D01*
X22593633Y-31869736D01*
X22658854Y-31793212D01*
X22700173Y-31701547D01*
X22714320Y-31602000D01*
X22714320Y-30558800D01*
X23147680Y-30558800D01*
X23147680Y-31472000D01*
X23152196Y-31528628D01*
X23181940Y-31624675D01*
X23237264Y-31708633D01*
X23313788Y-31773854D01*
X23405453Y-31815173D01*
X23505000Y-31829320D01*
X24755000Y-31829320D01*
X24811628Y-31824804D01*
X24907675Y-31795060D01*
X24991633Y-31739736D01*
X25056854Y-31663212D01*
X25098173Y-31571547D01*
X25112320Y-31472000D01*
X25112320Y-30558800D01*
X25545680Y-30558800D01*
X25545680Y-31602000D01*
X25550196Y-31658628D01*
X25579940Y-31754675D01*
X25635264Y-31838633D01*
X25711788Y-31903854D01*
X25770800Y-31930454D01*
X25770800Y-32105649D01*
X25774922Y-32147692D01*
X25778602Y-32189752D01*
X25779272Y-32192059D01*
X25779507Y-32194453D01*
X25791704Y-32234849D01*
X25803496Y-32275439D01*
X25804605Y-32277578D01*
X25805298Y-32279874D01*
X25825115Y-32317145D01*
X25844560Y-32354658D01*
X25846058Y-32356534D01*
X25847188Y-32358660D01*
X25873917Y-32391433D01*
X25900228Y-32424392D01*
X25903523Y-32427734D01*
X25903584Y-32427808D01*
X25903653Y-32427865D01*
X25904711Y-32428938D01*
X27482800Y-34007027D01*
X27482800Y-34139268D01*
X27279858Y-34245364D01*
X27096486Y-34392799D01*
X26945243Y-34573043D01*
X26831890Y-34779231D01*
X26760745Y-35003509D01*
X26734518Y-35237334D01*
X26734400Y-35254167D01*
X26734400Y-35265833D01*
X26757360Y-35500002D01*
X26825367Y-35725251D01*
X26935830Y-35933002D01*
X27084542Y-36115340D01*
X27265837Y-36265321D01*
X27472811Y-36377231D01*
X27697580Y-36446809D01*
X27931583Y-36471404D01*
X28165907Y-36450079D01*
X28391626Y-36383646D01*
X28600142Y-36274636D01*
X28783514Y-36127201D01*
X28934757Y-35946957D01*
X29048110Y-35740769D01*
X29119255Y-35516491D01*
X29145482Y-35282666D01*
X29145600Y-35265833D01*
X29145600Y-35254167D01*
X29122640Y-35019998D01*
X29054633Y-34794749D01*
X28944170Y-34586998D01*
X28795458Y-34404660D01*
X28614163Y-34254679D01*
X28407189Y-34142769D01*
X28397200Y-34139677D01*
X28397200Y-33817649D01*
X28393077Y-33775602D01*
X28389398Y-33733547D01*
X28388728Y-33731240D01*
X28388493Y-33728845D01*
X28376293Y-33688436D01*
X28364504Y-33647859D01*
X28363395Y-33645720D01*
X28362702Y-33643424D01*
X28342885Y-33606153D01*
X28323440Y-33568640D01*
X28321942Y-33566764D01*
X28320812Y-33564638D01*
X28294083Y-33531865D01*
X28267772Y-33498906D01*
X28264477Y-33495564D01*
X28264416Y-33495490D01*
X28264347Y-33495433D01*
X28263289Y-33494360D01*
X26696752Y-31927823D01*
X26705675Y-31925060D01*
X26789633Y-31869736D01*
X26854854Y-31793212D01*
X26896173Y-31701547D01*
X26910320Y-31602000D01*
X26910320Y-30558800D01*
X27445680Y-30558800D01*
X27445680Y-31602000D01*
X27450196Y-31658628D01*
X27479940Y-31754675D01*
X27535264Y-31838633D01*
X27611788Y-31903854D01*
X27703453Y-31945173D01*
X27803000Y-31959320D01*
X28453000Y-31959320D01*
X28509628Y-31954804D01*
X28605675Y-31925060D01*
X28689633Y-31869736D01*
X28754854Y-31793212D01*
X28796173Y-31701547D01*
X28810320Y-31602000D01*
X28810320Y-30558800D01*
X29243680Y-30558800D01*
X29243680Y-31472000D01*
X29248196Y-31528628D01*
X29277940Y-31624675D01*
X29333264Y-31708633D01*
X29409788Y-31773854D01*
X29501453Y-31815173D01*
X29601000Y-31829320D01*
X30851000Y-31829320D01*
X30907628Y-31824804D01*
X31003675Y-31795060D01*
X31087633Y-31739736D01*
X31152854Y-31663212D01*
X31194173Y-31571547D01*
X31208320Y-31472000D01*
X31208320Y-30558800D01*
X31641680Y-30558800D01*
X31641680Y-31602000D01*
X31646196Y-31658628D01*
X31675940Y-31754675D01*
X31731264Y-31838633D01*
X31807788Y-31903854D01*
X31866800Y-31930454D01*
X31866800Y-32400517D01*
X31870922Y-32442560D01*
X31874602Y-32484620D01*
X31875272Y-32486927D01*
X31875507Y-32489321D01*
X31887704Y-32529717D01*
X31899496Y-32570307D01*
X31900605Y-32572446D01*
X31901298Y-32574742D01*
X31921115Y-32612013D01*
X31940560Y-32649526D01*
X31942058Y-32651402D01*
X31943188Y-32653528D01*
X31969917Y-32686301D01*
X31996228Y-32719260D01*
X31999523Y-32722602D01*
X31999584Y-32722676D01*
X31999653Y-32722733D01*
X32000711Y-32723806D01*
X32715990Y-33439085D01*
X32748618Y-33465887D01*
X32780976Y-33493038D01*
X32783082Y-33494196D01*
X32784940Y-33495722D01*
X32822135Y-33515666D01*
X32859169Y-33536025D01*
X32861464Y-33536753D01*
X32863579Y-33537887D01*
X32903935Y-33550225D01*
X32944222Y-33563005D01*
X32946610Y-33563273D01*
X32948910Y-33563976D01*
X32990942Y-33568245D01*
X33032895Y-33572951D01*
X33037596Y-33572984D01*
X33037683Y-33572993D01*
X33037764Y-33572985D01*
X33039279Y-33572996D01*
X35730013Y-33572996D01*
X36118800Y-33961783D01*
X36118800Y-34139268D01*
X35915858Y-34245364D01*
X35732486Y-34392799D01*
X35581243Y-34573043D01*
X35467890Y-34779231D01*
X35396745Y-35003509D01*
X35370518Y-35237334D01*
X35370400Y-35254167D01*
X35370400Y-35265833D01*
X35393360Y-35500002D01*
X35461367Y-35725251D01*
X35571830Y-35933002D01*
X35720542Y-36115340D01*
X35901837Y-36265321D01*
X36108811Y-36377231D01*
X36333580Y-36446809D01*
X36567583Y-36471404D01*
X36801907Y-36450079D01*
X37027626Y-36383646D01*
X37236142Y-36274636D01*
X37419514Y-36127201D01*
X37570757Y-35946957D01*
X37684110Y-35740769D01*
X37755255Y-35516491D01*
X37781482Y-35282666D01*
X37781600Y-35265833D01*
X37781600Y-35254167D01*
X37758640Y-35019998D01*
X37690633Y-34794749D01*
X37580170Y-34586998D01*
X37431458Y-34404660D01*
X37250163Y-34254679D01*
X37043189Y-34142769D01*
X37033200Y-34139677D01*
X37033200Y-33772405D01*
X37029078Y-33730362D01*
X37025398Y-33688302D01*
X37024728Y-33685995D01*
X37024493Y-33683601D01*
X37012296Y-33643205D01*
X37000504Y-33602615D01*
X36999395Y-33600476D01*
X36998702Y-33598180D01*
X36978885Y-33560909D01*
X36959440Y-33523396D01*
X36957942Y-33521520D01*
X36956812Y-33519394D01*
X36930058Y-33486590D01*
X36903771Y-33453662D01*
X36900478Y-33450322D01*
X36900416Y-33450246D01*
X36900346Y-33450188D01*
X36899289Y-33449116D01*
X36242680Y-32792507D01*
X36210052Y-32765705D01*
X36177694Y-32738554D01*
X36175588Y-32737396D01*
X36173730Y-32735870D01*
X36136535Y-32715926D01*
X36099501Y-32695567D01*
X36097206Y-32694839D01*
X36095091Y-32693705D01*
X36054694Y-32681354D01*
X36014448Y-32668587D01*
X36012065Y-32668320D01*
X36009760Y-32667615D01*
X35967634Y-32663336D01*
X35925775Y-32658641D01*
X35921085Y-32658608D01*
X35920987Y-32658598D01*
X35920896Y-32658607D01*
X35919391Y-32658596D01*
X33228657Y-32658596D01*
X32781200Y-32211139D01*
X32781200Y-31931401D01*
X32801675Y-31925060D01*
X32885633Y-31869736D01*
X32950854Y-31793212D01*
X32992173Y-31701547D01*
X33006320Y-31602000D01*
X33006320Y-30558800D01*
X33541680Y-30558800D01*
X33541680Y-31602000D01*
X33546196Y-31658628D01*
X33575940Y-31754675D01*
X33631264Y-31838633D01*
X33707788Y-31903854D01*
X33799453Y-31945173D01*
X33899000Y-31959320D01*
X34549000Y-31959320D01*
X34605628Y-31954804D01*
X34701675Y-31925060D01*
X34785633Y-31869736D01*
X34850854Y-31793212D01*
X34892173Y-31701547D01*
X34906320Y-31602000D01*
X34906320Y-30558800D01*
X35118538Y-30558800D01*
X35339680Y-30779942D01*
X35339680Y-31472000D01*
X35344196Y-31528628D01*
X35373940Y-31624675D01*
X35429264Y-31708633D01*
X35505788Y-31773854D01*
X35597453Y-31815173D01*
X35697000Y-31829320D01*
X36947000Y-31829320D01*
X37003628Y-31824804D01*
X37099675Y-31795060D01*
X37183633Y-31739736D01*
X37248854Y-31663212D01*
X37280671Y-31592626D01*
X40896952Y-31592626D01*
X40935951Y-31805111D01*
X41015478Y-32005975D01*
X41132506Y-32187567D01*
X41282577Y-32342970D01*
X41459974Y-32466264D01*
X41657940Y-32552753D01*
X41868935Y-32599143D01*
X42084923Y-32603668D01*
X42297675Y-32566154D01*
X42499090Y-32488030D01*
X42681494Y-32372273D01*
X42837941Y-32223291D01*
X42962470Y-32046759D01*
X43050339Y-31849401D01*
X43098202Y-31638735D01*
X43101647Y-31391983D01*
X43059686Y-31180062D01*
X42977361Y-30980328D01*
X42857809Y-30800388D01*
X42705584Y-30647096D01*
X42526483Y-30526291D01*
X42327328Y-30442574D01*
X42115706Y-30399134D01*
X41899676Y-30397626D01*
X41687468Y-30438107D01*
X41487164Y-30519035D01*
X41306393Y-30637327D01*
X41152042Y-30788479D01*
X41029990Y-30966732D01*
X40944885Y-31165298D01*
X40899968Y-31376612D01*
X40896952Y-31592626D01*
X37280671Y-31592626D01*
X37290173Y-31571547D01*
X37304320Y-31472000D01*
X37304320Y-30472000D01*
X37299804Y-30415372D01*
X37270060Y-30319325D01*
X37214736Y-30235367D01*
X37138212Y-30170146D01*
X37046547Y-30128827D01*
X36947000Y-30114680D01*
X36254943Y-30114680D01*
X36119531Y-29979269D01*
X36169600Y-29929200D01*
X36169600Y-29124400D01*
X36474400Y-29124400D01*
X36474400Y-29929200D01*
X36626800Y-30081600D01*
X37007041Y-30081600D01*
X37124814Y-30058173D01*
X37235754Y-30012220D01*
X37335598Y-29945507D01*
X37420507Y-29860597D01*
X37487221Y-29760754D01*
X37533173Y-29649813D01*
X37556600Y-29532040D01*
X37556600Y-29276800D01*
X37404200Y-29124400D01*
X36474400Y-29124400D01*
X36169600Y-29124400D01*
X35239800Y-29124400D01*
X35087400Y-29276800D01*
X35087400Y-29441200D01*
X34900749Y-29441200D01*
X34906320Y-29402000D01*
X34906320Y-28411960D01*
X35087400Y-28411960D01*
X35087400Y-28667200D01*
X35239800Y-28819600D01*
X36169600Y-28819600D01*
X36169600Y-28014800D01*
X36474400Y-28014800D01*
X36474400Y-28819600D01*
X37404200Y-28819600D01*
X37556600Y-28667200D01*
X37556600Y-28411960D01*
X37533173Y-28294187D01*
X37487221Y-28183246D01*
X37420507Y-28083403D01*
X37335598Y-27998493D01*
X37235754Y-27931780D01*
X37124814Y-27885827D01*
X37007041Y-27862400D01*
X36626800Y-27862400D01*
X36474400Y-28014800D01*
X36169600Y-28014800D01*
X36017200Y-27862400D01*
X35636959Y-27862400D01*
X35519186Y-27885827D01*
X35408246Y-27931780D01*
X35308402Y-27998493D01*
X35223493Y-28083403D01*
X35156779Y-28183246D01*
X35110827Y-28294187D01*
X35087400Y-28411960D01*
X34906320Y-28411960D01*
X34906320Y-28342000D01*
X34901804Y-28285372D01*
X34872060Y-28189325D01*
X34816736Y-28105367D01*
X34740212Y-28040146D01*
X34648547Y-27998827D01*
X34549000Y-27984680D01*
X33899000Y-27984680D01*
X33842372Y-27989196D01*
X33746325Y-28018940D01*
X33745042Y-28019785D01*
X33733777Y-28014707D01*
X33733777Y-27164432D01*
X38041830Y-27164432D01*
X38111061Y-27541644D01*
X38252242Y-27898226D01*
X38459994Y-28220594D01*
X38726404Y-28496470D01*
X39041326Y-28715346D01*
X39392762Y-28868885D01*
X39767329Y-28951239D01*
X40150758Y-28959270D01*
X40528444Y-28892674D01*
X40886002Y-28753986D01*
X41209813Y-28548490D01*
X41487542Y-28284012D01*
X41708611Y-27970626D01*
X41864600Y-27620270D01*
X41949567Y-27246288D01*
X41955684Y-26808244D01*
X41881192Y-26432035D01*
X41735047Y-26077459D01*
X41522814Y-25758023D01*
X41252578Y-25485894D01*
X40934631Y-25271436D01*
X40581085Y-25122819D01*
X40205405Y-25045703D01*
X39821901Y-25043025D01*
X39445182Y-25114889D01*
X39089595Y-25258555D01*
X38768685Y-25468553D01*
X38494675Y-25736882D01*
X38278003Y-26053324D01*
X38126921Y-26405824D01*
X38047184Y-26780957D01*
X38041830Y-27164432D01*
X33733777Y-27164432D01*
X33733777Y-27074173D01*
X33729654Y-27032126D01*
X33725975Y-26990071D01*
X33725305Y-26987764D01*
X33725070Y-26985369D01*
X33712870Y-26944960D01*
X33701081Y-26904383D01*
X33699972Y-26902244D01*
X33699279Y-26899948D01*
X33679462Y-26862677D01*
X33660017Y-26825164D01*
X33658519Y-26823288D01*
X33657389Y-26821162D01*
X33630660Y-26788389D01*
X33604349Y-26755430D01*
X33601054Y-26752088D01*
X33600993Y-26752014D01*
X33600924Y-26751957D01*
X33599866Y-26750884D01*
X33195063Y-26346081D01*
X33162435Y-26319279D01*
X33130077Y-26292128D01*
X33127971Y-26290970D01*
X33126113Y-26289444D01*
X33088918Y-26269500D01*
X33051884Y-26249141D01*
X33049589Y-26248413D01*
X33047474Y-26247279D01*
X33007077Y-26234928D01*
X32966831Y-26222161D01*
X32964448Y-26221894D01*
X32962143Y-26221189D01*
X32920017Y-26216910D01*
X32878158Y-26212215D01*
X32873468Y-26212182D01*
X32873370Y-26212172D01*
X32873279Y-26212181D01*
X32871774Y-26212170D01*
X28501451Y-26212170D01*
X27583775Y-25294494D01*
X27583775Y-12174902D01*
X27579653Y-12132859D01*
X27575973Y-12090799D01*
X27575303Y-12088492D01*
X27575068Y-12086098D01*
X27562857Y-12045655D01*
X27551078Y-12005112D01*
X27549972Y-12002977D01*
X27549277Y-12000677D01*
X27529442Y-11963371D01*
X27510015Y-11925893D01*
X27508517Y-11924017D01*
X27507387Y-11921891D01*
X27480653Y-11889112D01*
X27454346Y-11856158D01*
X27451048Y-11852813D01*
X27450991Y-11852743D01*
X27450926Y-11852690D01*
X27449864Y-11851612D01*
X26330323Y-10732071D01*
X27176998Y-10732071D01*
X27203974Y-10879052D01*
X27258985Y-11017994D01*
X27339936Y-11143605D01*
X27443743Y-11251100D01*
X27566452Y-11336385D01*
X27703390Y-11396212D01*
X27849340Y-11428301D01*
X27998743Y-11431430D01*
X28001360Y-11430969D01*
X27962827Y-11516453D01*
X27948680Y-11616000D01*
X27948680Y-13116000D01*
X27953196Y-13172628D01*
X27982940Y-13268675D01*
X28038264Y-13352633D01*
X28114788Y-13417854D01*
X28206453Y-13459173D01*
X28306000Y-13473320D01*
X29606000Y-13473320D01*
X29626451Y-13471689D01*
X29626451Y-13961586D01*
X29606000Y-13958680D01*
X28306000Y-13958680D01*
X28249372Y-13963196D01*
X28153325Y-13992940D01*
X28069367Y-14048264D01*
X28004146Y-14124788D01*
X27962827Y-14216453D01*
X27948680Y-14316000D01*
X27948680Y-15816000D01*
X27953196Y-15872628D01*
X27982940Y-15968675D01*
X28038264Y-16052633D01*
X28114788Y-16117854D01*
X28206453Y-16159173D01*
X28273222Y-16168662D01*
X28226154Y-16278479D01*
X28195085Y-16424650D01*
X28192998Y-16574071D01*
X28219974Y-16721052D01*
X28274985Y-16859994D01*
X28355936Y-16985605D01*
X28459743Y-17093100D01*
X28582452Y-17178385D01*
X28719390Y-17238212D01*
X28865340Y-17270301D01*
X29014743Y-17273430D01*
X29161908Y-17247481D01*
X29301231Y-17193441D01*
X29427404Y-17113370D01*
X29535621Y-17010316D01*
X29621761Y-16888205D01*
X29682542Y-16751688D01*
X29715649Y-16605966D01*
X29718033Y-16435282D01*
X29689007Y-16288692D01*
X29640325Y-16170583D01*
X29662628Y-16168804D01*
X29758675Y-16139060D01*
X29842633Y-16083736D01*
X29907854Y-16007212D01*
X29949173Y-15915547D01*
X29963320Y-15816000D01*
X29963320Y-14722557D01*
X30230052Y-14989289D01*
X30262680Y-15016091D01*
X30295038Y-15043242D01*
X30297144Y-15044400D01*
X30299002Y-15045926D01*
X30336197Y-15065870D01*
X30373231Y-15086229D01*
X30375526Y-15086957D01*
X30377641Y-15088091D01*
X30418038Y-15100442D01*
X30458284Y-15113209D01*
X30460667Y-15113476D01*
X30462972Y-15114181D01*
X30505098Y-15118460D01*
X30546957Y-15123155D01*
X30551647Y-15123188D01*
X30551745Y-15123198D01*
X30551836Y-15123189D01*
X30553341Y-15123200D01*
X32201373Y-15123200D01*
X32230940Y-15218675D01*
X32286264Y-15302633D01*
X32362788Y-15367854D01*
X32454453Y-15409173D01*
X32554000Y-15423320D01*
X33454000Y-15423320D01*
X33510628Y-15418804D01*
X33606675Y-15389060D01*
X33690633Y-15333736D01*
X33755854Y-15257212D01*
X33797173Y-15165547D01*
X33811320Y-15066000D01*
X33811320Y-14266000D01*
X33806804Y-14209372D01*
X33795602Y-14173200D01*
X33894526Y-14173200D01*
X34118680Y-14397354D01*
X34118680Y-15382000D01*
X34123196Y-15438628D01*
X34152940Y-15534675D01*
X34208264Y-15618633D01*
X34284788Y-15683854D01*
X34376453Y-15725173D01*
X34476000Y-15739320D01*
X35976000Y-15739320D01*
X36032628Y-15734804D01*
X36128675Y-15705060D01*
X36212633Y-15649736D01*
X36277854Y-15573212D01*
X36319173Y-15481547D01*
X36333320Y-15382000D01*
X36333320Y-14082000D01*
X36818680Y-14082000D01*
X36818680Y-15382000D01*
X36823196Y-15438628D01*
X36852940Y-15534675D01*
X36908264Y-15618633D01*
X36984788Y-15683854D01*
X37076453Y-15725173D01*
X37176000Y-15739320D01*
X38676000Y-15739320D01*
X38732628Y-15734804D01*
X38828675Y-15705060D01*
X38912633Y-15649736D01*
X38977854Y-15573212D01*
X39019173Y-15481547D01*
X39033320Y-15382000D01*
X39033320Y-15189200D01*
X39090680Y-15189200D01*
X39090680Y-15332000D01*
X39095196Y-15388628D01*
X39124940Y-15484675D01*
X39180264Y-15568633D01*
X39256788Y-15633854D01*
X39348453Y-15675173D01*
X39448000Y-15689320D01*
X40648000Y-15689320D01*
X40704628Y-15684804D01*
X40800675Y-15655060D01*
X40884633Y-15599736D01*
X40949854Y-15523212D01*
X40991173Y-15431547D01*
X41005320Y-15332000D01*
X41005320Y-15036800D01*
X41038400Y-15036800D01*
X41038400Y-15392041D01*
X41061827Y-15509814D01*
X41107780Y-15620754D01*
X41174493Y-15720598D01*
X41259403Y-15805507D01*
X41359246Y-15872221D01*
X41470187Y-15918173D01*
X41587960Y-15941600D01*
X41943200Y-15941600D01*
X42095600Y-15789200D01*
X42095600Y-14884400D01*
X42400400Y-14884400D01*
X42400400Y-15789200D01*
X42552800Y-15941600D01*
X42908040Y-15941600D01*
X43025813Y-15918173D01*
X43136754Y-15872221D01*
X43236597Y-15805507D01*
X43321507Y-15720598D01*
X43388220Y-15620754D01*
X43434173Y-15509814D01*
X43457600Y-15392041D01*
X43457600Y-15036800D01*
X43305200Y-14884400D01*
X42400400Y-14884400D01*
X42095600Y-14884400D01*
X41190800Y-14884400D01*
X41038400Y-15036800D01*
X41005320Y-15036800D01*
X41005320Y-14132000D01*
X41000804Y-14075372D01*
X40999748Y-14071959D01*
X41038400Y-14071959D01*
X41038400Y-14427200D01*
X41190800Y-14579600D01*
X42095600Y-14579600D01*
X42095600Y-13841200D01*
X42179600Y-13757200D01*
X42179600Y-13674800D01*
X42400400Y-13674800D01*
X42400400Y-14579600D01*
X43305200Y-14579600D01*
X43457600Y-14427200D01*
X43457600Y-14071959D01*
X43434173Y-13954186D01*
X43388220Y-13843246D01*
X43333201Y-13760903D01*
X43405507Y-13688598D01*
X43472220Y-13588754D01*
X43518173Y-13477814D01*
X43541600Y-13360041D01*
X43541600Y-13004800D01*
X43389200Y-12852400D01*
X42484400Y-12852400D01*
X42484400Y-13590800D01*
X42400400Y-13674800D01*
X42179600Y-13674800D01*
X42179600Y-12852400D01*
X41274800Y-12852400D01*
X41122400Y-13004800D01*
X41122400Y-13360041D01*
X41145827Y-13477814D01*
X41191780Y-13588754D01*
X41246799Y-13671097D01*
X41174493Y-13743402D01*
X41107780Y-13843246D01*
X41061827Y-13954186D01*
X41038400Y-14071959D01*
X40999748Y-14071959D01*
X40971060Y-13979325D01*
X40915736Y-13895367D01*
X40839212Y-13830146D01*
X40747547Y-13788827D01*
X40648000Y-13774680D01*
X39448000Y-13774680D01*
X39391372Y-13779196D01*
X39295325Y-13808940D01*
X39211367Y-13864264D01*
X39146146Y-13940788D01*
X39104827Y-14032453D01*
X39090680Y-14132000D01*
X39090680Y-14274800D01*
X39033320Y-14274800D01*
X39033320Y-14082000D01*
X39028804Y-14025372D01*
X38999060Y-13929325D01*
X38943736Y-13845367D01*
X38867212Y-13780146D01*
X38775547Y-13738827D01*
X38676000Y-13724680D01*
X37176000Y-13724680D01*
X37119372Y-13729196D01*
X37023325Y-13758940D01*
X36939367Y-13814264D01*
X36874146Y-13890788D01*
X36832827Y-13982453D01*
X36818680Y-14082000D01*
X36333320Y-14082000D01*
X36328804Y-14025372D01*
X36299060Y-13929325D01*
X36243736Y-13845367D01*
X36167212Y-13780146D01*
X36075547Y-13738827D01*
X35976000Y-13724680D01*
X34739162Y-13724680D01*
X34721802Y-13707320D01*
X35976000Y-13707320D01*
X36032628Y-13702804D01*
X36128675Y-13673060D01*
X36212633Y-13617736D01*
X36277854Y-13541212D01*
X36319173Y-13449547D01*
X36333320Y-13350000D01*
X36333320Y-12050000D01*
X36818680Y-12050000D01*
X36818680Y-13350000D01*
X36823196Y-13406628D01*
X36852940Y-13502675D01*
X36908264Y-13586633D01*
X36984788Y-13651854D01*
X37076453Y-13693173D01*
X37176000Y-13707320D01*
X38676000Y-13707320D01*
X38732628Y-13702804D01*
X38828675Y-13673060D01*
X38912633Y-13617736D01*
X38977854Y-13541212D01*
X39019173Y-13449547D01*
X39033320Y-13350000D01*
X39033320Y-13157200D01*
X39174680Y-13157200D01*
X39174680Y-13300000D01*
X39179196Y-13356628D01*
X39208940Y-13452675D01*
X39264264Y-13536633D01*
X39340788Y-13601854D01*
X39432453Y-13643173D01*
X39532000Y-13657320D01*
X40732000Y-13657320D01*
X40788628Y-13652804D01*
X40884675Y-13623060D01*
X40968633Y-13567736D01*
X41033854Y-13491212D01*
X41075173Y-13399547D01*
X41089320Y-13300000D01*
X41089320Y-12100000D01*
X41084804Y-12043372D01*
X41083748Y-12039959D01*
X41122400Y-12039959D01*
X41122400Y-12395200D01*
X41274800Y-12547600D01*
X42179600Y-12547600D01*
X42179600Y-11642800D01*
X42484400Y-11642800D01*
X42484400Y-12547600D01*
X43389200Y-12547600D01*
X43541600Y-12395200D01*
X43541600Y-12039959D01*
X43518173Y-11922186D01*
X43472220Y-11811246D01*
X43405507Y-11711402D01*
X43320597Y-11626493D01*
X43220754Y-11559779D01*
X43109813Y-11513827D01*
X42992040Y-11490400D01*
X42636800Y-11490400D01*
X42484400Y-11642800D01*
X42179600Y-11642800D01*
X42027200Y-11490400D01*
X41671960Y-11490400D01*
X41554187Y-11513827D01*
X41443246Y-11559779D01*
X41343403Y-11626493D01*
X41258493Y-11711402D01*
X41191780Y-11811246D01*
X41145827Y-11922186D01*
X41122400Y-12039959D01*
X41083748Y-12039959D01*
X41055060Y-11947325D01*
X40999736Y-11863367D01*
X40923212Y-11798146D01*
X40831547Y-11756827D01*
X40732000Y-11742680D01*
X39532000Y-11742680D01*
X39475372Y-11747196D01*
X39379325Y-11776940D01*
X39295367Y-11832264D01*
X39230146Y-11908788D01*
X39188827Y-12000453D01*
X39174680Y-12100000D01*
X39174680Y-12242800D01*
X39033320Y-12242800D01*
X39033320Y-12050000D01*
X39028804Y-11993372D01*
X38999060Y-11897325D01*
X38943736Y-11813367D01*
X38867212Y-11748146D01*
X38775547Y-11706827D01*
X38676000Y-11692680D01*
X37176000Y-11692680D01*
X37119372Y-11697196D01*
X37023325Y-11726940D01*
X36939367Y-11782264D01*
X36874146Y-11858788D01*
X36832827Y-11950453D01*
X36818680Y-12050000D01*
X36333320Y-12050000D01*
X36328804Y-11993372D01*
X36299060Y-11897325D01*
X36243736Y-11813367D01*
X36167212Y-11748146D01*
X36075547Y-11706827D01*
X35976000Y-11692680D01*
X34476000Y-11692680D01*
X34419372Y-11697196D01*
X34323325Y-11726940D01*
X34239367Y-11782264D01*
X34174146Y-11858788D01*
X34132827Y-11950453D01*
X34118680Y-12050000D01*
X34118680Y-12207200D01*
X33773024Y-12207200D01*
X33721736Y-12129367D01*
X33645212Y-12064146D01*
X33553547Y-12022827D01*
X33454000Y-12008680D01*
X32554000Y-12008680D01*
X32497372Y-12013196D01*
X32401325Y-12042940D01*
X32317367Y-12098264D01*
X32252146Y-12174788D01*
X32237536Y-12207200D01*
X31793463Y-12207200D01*
X31546800Y-11960538D01*
X31546800Y-11079311D01*
X31541768Y-11027988D01*
X31537265Y-10976520D01*
X31536445Y-10973696D01*
X31536158Y-10970773D01*
X31521246Y-10921383D01*
X31506838Y-10871791D01*
X31505485Y-10869181D01*
X31504636Y-10866369D01*
X31480414Y-10820814D01*
X31456649Y-10774967D01*
X31454815Y-10772670D01*
X31453436Y-10770076D01*
X31420825Y-10730091D01*
X31388610Y-10689735D01*
X31384576Y-10685644D01*
X31384508Y-10685561D01*
X31384431Y-10685497D01*
X31383132Y-10684180D01*
X30971820Y-10272869D01*
X30931946Y-10240116D01*
X30892393Y-10206927D01*
X30889818Y-10205511D01*
X30887547Y-10203646D01*
X30842064Y-10179258D01*
X30796824Y-10154387D01*
X30794022Y-10153498D01*
X30791433Y-10152110D01*
X30742105Y-10137029D01*
X30692870Y-10121411D01*
X30689947Y-10121083D01*
X30687140Y-10120225D01*
X30635826Y-10115012D01*
X30584491Y-10109254D01*
X30578750Y-10109214D01*
X30578639Y-10109203D01*
X30578536Y-10109213D01*
X30576689Y-10109200D01*
X28459022Y-10109200D01*
X28428067Y-10078028D01*
X28304179Y-9994465D01*
X28166420Y-9936556D01*
X28020036Y-9906508D01*
X27870604Y-9905464D01*
X27723815Y-9933466D01*
X27585260Y-9989445D01*
X27460218Y-10071271D01*
X27353450Y-10175826D01*
X27269023Y-10299127D01*
X27210154Y-10436479D01*
X27179085Y-10582650D01*
X27176998Y-10732071D01*
X26330323Y-10732071D01*
X24997200Y-9398949D01*
X24997200Y-8496420D01*
X25092370Y-8459506D01*
X25175821Y-8406546D01*
X26254980Y-8406546D01*
X26337803Y-8646826D01*
X26601941Y-8767010D01*
X26884450Y-8833355D01*
X27174474Y-8843311D01*
X27460868Y-8796493D01*
X27732626Y-8694703D01*
X27822197Y-8646826D01*
X27905020Y-8406546D01*
X28794980Y-8406546D01*
X28877803Y-8646826D01*
X29141941Y-8767010D01*
X29424450Y-8833355D01*
X29714474Y-8843311D01*
X30000868Y-8796493D01*
X30272626Y-8694703D01*
X30362197Y-8646826D01*
X30445020Y-8406546D01*
X29620000Y-7581526D01*
X28794980Y-8406546D01*
X27905020Y-8406546D01*
X27080000Y-7581526D01*
X26254980Y-8406546D01*
X25175821Y-8406546D01*
X25294246Y-8331391D01*
X25467394Y-8166505D01*
X25605217Y-7971128D01*
X25674891Y-7814638D01*
X25751297Y-8018626D01*
X25799174Y-8108197D01*
X26039454Y-8191020D01*
X26864474Y-7366000D01*
X27295526Y-7366000D01*
X28120546Y-8191020D01*
X28350000Y-8111929D01*
X28579454Y-8191020D01*
X29404474Y-7366000D01*
X29835526Y-7366000D01*
X30660546Y-8191020D01*
X30900826Y-8108197D01*
X31021010Y-7844059D01*
X31087355Y-7561550D01*
X31097311Y-7271526D01*
X31050493Y-6985132D01*
X30948703Y-6713374D01*
X30900826Y-6623803D01*
X30660546Y-6540980D01*
X29835526Y-7366000D01*
X29404474Y-7366000D01*
X28579454Y-6540980D01*
X28350000Y-6620071D01*
X28120546Y-6540980D01*
X27295526Y-7366000D01*
X26864474Y-7366000D01*
X26039454Y-6540980D01*
X25799174Y-6623803D01*
X25678990Y-6887941D01*
X25672720Y-6914639D01*
X25621698Y-6790851D01*
X25489384Y-6591702D01*
X25320907Y-6422045D01*
X25122687Y-6288343D01*
X24902272Y-6195689D01*
X24668058Y-6147612D01*
X24428966Y-6145943D01*
X24194104Y-6190745D01*
X23972416Y-6280313D01*
X23772348Y-6411234D01*
X23716980Y-6465455D01*
X23716980Y-5987780D01*
X23712858Y-5945737D01*
X23709178Y-5903677D01*
X23708508Y-5901370D01*
X23708273Y-5898976D01*
X23696076Y-5858580D01*
X23684284Y-5817990D01*
X23683175Y-5815851D01*
X23682482Y-5813555D01*
X23662665Y-5776284D01*
X23643220Y-5738771D01*
X23641722Y-5736895D01*
X23640592Y-5734769D01*
X23613863Y-5701996D01*
X23587552Y-5669037D01*
X23584257Y-5665695D01*
X23584196Y-5665621D01*
X23584127Y-5665564D01*
X23583069Y-5664491D01*
X23152859Y-5234281D01*
X23162467Y-5212701D01*
X23215439Y-4979546D01*
X23216151Y-4928514D01*
X23319198Y-4928514D01*
X23362359Y-5163683D01*
X23450377Y-5385990D01*
X23579898Y-5586968D01*
X23745989Y-5758960D01*
X23942324Y-5895416D01*
X24161424Y-5991138D01*
X24394943Y-6042481D01*
X24633988Y-6047488D01*
X24869453Y-6005969D01*
X25092370Y-5919506D01*
X25175821Y-5866546D01*
X26254980Y-5866546D01*
X26334071Y-6096000D01*
X26254980Y-6325454D01*
X27080000Y-7150474D01*
X27905020Y-6325454D01*
X27825929Y-6096000D01*
X27905020Y-5866546D01*
X28794980Y-5866546D01*
X28874071Y-6096000D01*
X28794980Y-6325454D01*
X29620000Y-7150474D01*
X30445020Y-6325454D01*
X30422608Y-6260432D01*
X36551830Y-6260432D01*
X36621061Y-6637644D01*
X36762242Y-6994226D01*
X36969994Y-7316594D01*
X37236404Y-7592470D01*
X37551326Y-7811346D01*
X37902762Y-7964885D01*
X38277329Y-8047239D01*
X38660758Y-8055270D01*
X39038444Y-7988674D01*
X39396002Y-7849986D01*
X39719813Y-7644490D01*
X39997542Y-7380012D01*
X40218611Y-7066626D01*
X40374600Y-6716270D01*
X40459567Y-6342288D01*
X40465684Y-5904244D01*
X40391192Y-5528035D01*
X40245047Y-5173459D01*
X40032814Y-4854023D01*
X39762578Y-4581894D01*
X39444631Y-4367436D01*
X39091085Y-4218819D01*
X38715405Y-4141703D01*
X38331901Y-4139025D01*
X37955182Y-4210889D01*
X37599595Y-4354555D01*
X37278685Y-4564553D01*
X37004675Y-4832882D01*
X36788003Y-5149324D01*
X36636921Y-5501824D01*
X36557184Y-5876957D01*
X36551830Y-6260432D01*
X30422608Y-6260432D01*
X30365929Y-6096000D01*
X30445020Y-5866546D01*
X29620000Y-5041526D01*
X28794980Y-5866546D01*
X27905020Y-5866546D01*
X27080000Y-5041526D01*
X26254980Y-5866546D01*
X25175821Y-5866546D01*
X25294246Y-5791391D01*
X25467394Y-5626505D01*
X25605217Y-5431128D01*
X25674891Y-5274638D01*
X25751297Y-5478626D01*
X25799174Y-5568197D01*
X26039454Y-5651020D01*
X26864474Y-4826000D01*
X27295526Y-4826000D01*
X28120546Y-5651020D01*
X28350000Y-5571929D01*
X28579454Y-5651020D01*
X29404474Y-4826000D01*
X29835526Y-4826000D01*
X30660546Y-5651020D01*
X30900826Y-5568197D01*
X31021010Y-5304059D01*
X31087355Y-5021550D01*
X31097311Y-4731526D01*
X31050493Y-4445132D01*
X30948703Y-4173374D01*
X30900826Y-4083803D01*
X30660546Y-4000980D01*
X29835526Y-4826000D01*
X29404474Y-4826000D01*
X28579454Y-4000980D01*
X28350000Y-4080071D01*
X28120546Y-4000980D01*
X27295526Y-4826000D01*
X26864474Y-4826000D01*
X26039454Y-4000980D01*
X25799174Y-4083803D01*
X25678990Y-4347941D01*
X25672720Y-4374639D01*
X25621698Y-4250851D01*
X25489384Y-4051702D01*
X25320907Y-3882045D01*
X25177706Y-3785454D01*
X26254980Y-3785454D01*
X27080000Y-4610474D01*
X27905020Y-3785454D01*
X28794980Y-3785454D01*
X29620000Y-4610474D01*
X30445020Y-3785454D01*
X30362197Y-3545174D01*
X30098059Y-3424990D01*
X29815550Y-3358645D01*
X29525526Y-3348689D01*
X29239132Y-3395507D01*
X28967374Y-3497297D01*
X28877803Y-3545174D01*
X28794980Y-3785454D01*
X27905020Y-3785454D01*
X27822197Y-3545174D01*
X27558059Y-3424990D01*
X27275550Y-3358645D01*
X26985526Y-3348689D01*
X26699132Y-3395507D01*
X26427374Y-3497297D01*
X26337803Y-3545174D01*
X26254980Y-3785454D01*
X25177706Y-3785454D01*
X25122687Y-3748343D01*
X24902272Y-3655689D01*
X24668058Y-3607612D01*
X24428966Y-3605943D01*
X24194104Y-3650745D01*
X23972416Y-3740313D01*
X23772348Y-3871234D01*
X23601520Y-4038522D01*
X23466438Y-4235804D01*
X23372247Y-4455567D01*
X23322536Y-4689440D01*
X23319198Y-4928514D01*
X23216151Y-4928514D01*
X23219252Y-4706451D01*
X23172811Y-4471907D01*
X23081698Y-4250851D01*
X22949384Y-4051702D01*
X22780907Y-3882045D01*
X22582687Y-3748343D01*
X22362272Y-3655689D01*
X22128058Y-3607612D01*
X21888966Y-3605943D01*
X21654104Y-3650745D01*
X21432416Y-3740313D01*
X21232348Y-3871234D01*
X21061520Y-4038522D01*
X20926438Y-4235804D01*
X20832247Y-4455567D01*
X20782536Y-4689440D01*
X20779198Y-4928514D01*
X20822359Y-5163683D01*
X20910377Y-5385990D01*
X21039898Y-5586968D01*
X21205989Y-5758960D01*
X21402324Y-5895416D01*
X21621424Y-5991138D01*
X21854943Y-6042481D01*
X22093988Y-6047488D01*
X22329453Y-6005969D01*
X22547008Y-5921586D01*
X22802580Y-6177158D01*
X22802580Y-6443870D01*
X22780907Y-6422045D01*
X22582687Y-6288343D01*
X22362272Y-6195689D01*
X22128058Y-6147612D01*
X21888966Y-6145943D01*
X21654104Y-6190745D01*
X21432416Y-6280313D01*
X21232348Y-6411234D01*
X21183594Y-6458978D01*
X21183594Y-5994394D01*
X21179471Y-5952347D01*
X21175792Y-5910292D01*
X21175122Y-5907985D01*
X21174887Y-5905590D01*
X21162687Y-5865181D01*
X21150898Y-5824604D01*
X21149789Y-5822465D01*
X21149096Y-5820169D01*
X21129279Y-5782898D01*
X21109834Y-5745385D01*
X21108336Y-5743509D01*
X21107206Y-5741383D01*
X21080477Y-5708610D01*
X21054166Y-5675651D01*
X21050871Y-5672309D01*
X21050810Y-5672235D01*
X21050741Y-5672178D01*
X21049683Y-5671105D01*
X20612859Y-5234281D01*
X20622467Y-5212701D01*
X20675439Y-4979546D01*
X20679252Y-4706451D01*
X20632811Y-4471907D01*
X20541698Y-4250851D01*
X20409384Y-4051702D01*
X20240907Y-3882045D01*
X20042687Y-3748343D01*
X19822272Y-3655689D01*
X19588058Y-3607612D01*
X19348966Y-3605943D01*
X19114104Y-3650745D01*
X18892416Y-3740313D01*
X18692348Y-3871234D01*
X18643600Y-3918972D01*
X18643600Y-3556000D01*
X18619281Y-3426755D01*
X18542897Y-3308050D01*
X18426348Y-3228416D01*
X18288000Y-3200400D01*
X10160000Y-3200400D01*
X10030755Y-3224719D01*
X9912050Y-3301103D01*
X9832416Y-3417652D01*
X9804400Y-3556000D01*
X9804400Y-7772400D01*
X6498258Y-7772400D01*
X6699813Y-7644490D01*
X6977542Y-7380012D01*
X7198611Y-7066626D01*
X7354600Y-6716270D01*
X7439567Y-6342288D01*
X7445684Y-5904244D01*
X7371192Y-5528035D01*
X7225047Y-5173459D01*
X7012814Y-4854023D01*
X6742578Y-4581894D01*
X6424631Y-4367436D01*
X6071085Y-4218819D01*
X5695405Y-4141703D01*
X5311901Y-4139025D01*
X4935182Y-4210889D01*
X4579595Y-4354555D01*
X4258685Y-4564553D01*
X3984675Y-4832882D01*
X3768003Y-5149324D01*
X3616921Y-5501824D01*
X3537184Y-5876957D01*
X3531830Y-6260432D01*
X3601061Y-6637644D01*
X3742242Y-6994226D01*
X3949994Y-7316594D01*
X4216404Y-7592470D01*
X4475290Y-7772400D01*
X2540000Y-7772400D01*
X2410755Y-7796719D01*
X2292050Y-7873103D01*
X2212416Y-7989652D01*
X2184400Y-8128000D01*
X430600Y-8128000D01*
X430600Y-2092626D01*
X40896952Y-2092626D01*
X40935951Y-2305111D01*
X41015478Y-2505975D01*
X41132506Y-2687567D01*
X41282577Y-2842970D01*
X41459974Y-2966264D01*
X41657940Y-3052753D01*
X41868935Y-3099143D01*
X42084923Y-3103668D01*
X42297675Y-3066154D01*
X42499090Y-2988030D01*
X42681494Y-2872273D01*
X42837941Y-2723291D01*
X42962470Y-2546759D01*
X43050339Y-2349401D01*
X43098202Y-2138735D01*
X43101647Y-1891983D01*
X43059686Y-1680062D01*
X42977361Y-1480328D01*
X42857809Y-1300388D01*
X42705584Y-1147096D01*
X42526483Y-1026291D01*
X42327328Y-942574D01*
X42115706Y-899134D01*
X41899676Y-897626D01*
X41687468Y-938107D01*
X41487164Y-1019035D01*
X41306393Y-1137327D01*
X41152042Y-1288479D01*
X41029990Y-1466732D01*
X40944885Y-1665298D01*
X40899968Y-1876612D01*
X40896952Y-2092626D01*
X430600Y-2092626D01*
X430600Y-430600D01*
X43569400Y-430600D01*
X43569400Y-45569400D01*
G36*
X20758711Y-27524560D02*
X20731909Y-27557188D01*
X20704758Y-27589546D01*
X20703600Y-27591652D01*
X20702074Y-27593510D01*
X20682130Y-27630705D01*
X20661771Y-27667739D01*
X20661043Y-27670034D01*
X20659909Y-27672149D01*
X20647558Y-27712546D01*
X20634791Y-27752792D01*
X20634524Y-27755175D01*
X20634352Y-27755735D01*
X20517041Y-27732400D01*
X20436800Y-27732400D01*
X20284400Y-27884800D01*
X20284400Y-28719600D01*
X20304400Y-28719600D01*
X20304400Y-29024400D01*
X20284400Y-29024400D01*
X20284400Y-29044400D01*
X19979600Y-29044400D01*
X19979600Y-29024400D01*
X19349800Y-29024400D01*
X19197400Y-29176800D01*
X19197400Y-29205600D01*
X19116200Y-29124400D01*
X18186400Y-29124400D01*
X18186400Y-29144400D01*
X17881600Y-29144400D01*
X17881600Y-29124400D01*
X16951800Y-29124400D01*
X16799400Y-29276800D01*
X16799400Y-29441200D01*
X16612749Y-29441200D01*
X16618320Y-29402000D01*
X16618320Y-28411960D01*
X16799400Y-28411960D01*
X16799400Y-28667200D01*
X16951800Y-28819600D01*
X17881600Y-28819600D01*
X17881600Y-28014800D01*
X18186400Y-28014800D01*
X18186400Y-28819600D01*
X19116200Y-28819600D01*
X19268600Y-28667200D01*
X19268600Y-28638400D01*
X19349800Y-28719600D01*
X19979600Y-28719600D01*
X19979600Y-27884800D01*
X19827200Y-27732400D01*
X19746959Y-27732400D01*
X19629186Y-27755827D01*
X19518246Y-27801780D01*
X19418402Y-27868493D01*
X19333493Y-27953403D01*
X19266779Y-28053246D01*
X19220827Y-28164187D01*
X19211256Y-28212302D01*
X19199221Y-28183246D01*
X19132507Y-28083403D01*
X19047598Y-27998493D01*
X18947754Y-27931780D01*
X18836814Y-27885827D01*
X18719041Y-27862400D01*
X18338800Y-27862400D01*
X18186400Y-28014800D01*
X17881600Y-28014800D01*
X17729200Y-27862400D01*
X17348959Y-27862400D01*
X17231186Y-27885827D01*
X17120246Y-27931780D01*
X17020402Y-27998493D01*
X16935493Y-28083403D01*
X16868779Y-28183246D01*
X16822827Y-28294187D01*
X16799400Y-28411960D01*
X16618320Y-28411960D01*
X16618320Y-28342000D01*
X16613804Y-28285372D01*
X16584060Y-28189325D01*
X16528736Y-28105367D01*
X16452212Y-28040146D01*
X16360547Y-27998827D01*
X16261000Y-27984680D01*
X15611000Y-27984680D01*
X15554372Y-27989196D01*
X15458325Y-28018940D01*
X15457042Y-28019785D01*
X15447639Y-28015547D01*
X15447639Y-27531543D01*
X16276288Y-26702894D01*
X21580377Y-26702894D01*
X20758711Y-27524560D01*
X20758711Y-27524560D01*
G37*
X20758711Y-27524560D02*
X20731909Y-27557188D01*
X20704758Y-27589546D01*
X20703600Y-27591652D01*
X20702074Y-27593510D01*
X20682130Y-27630705D01*
X20661771Y-27667739D01*
X20661043Y-27670034D01*
X20659909Y-27672149D01*
X20647558Y-27712546D01*
X20634791Y-27752792D01*
X20634524Y-27755175D01*
X20634352Y-27755735D01*
X20517041Y-27732400D01*
X20436800Y-27732400D01*
X20284400Y-27884800D01*
X20284400Y-28719600D01*
X20304400Y-28719600D01*
X20304400Y-29024400D01*
X20284400Y-29024400D01*
X20284400Y-29044400D01*
X19979600Y-29044400D01*
X19979600Y-29024400D01*
X19349800Y-29024400D01*
X19197400Y-29176800D01*
X19197400Y-29205600D01*
X19116200Y-29124400D01*
X18186400Y-29124400D01*
X18186400Y-29144400D01*
X17881600Y-29144400D01*
X17881600Y-29124400D01*
X16951800Y-29124400D01*
X16799400Y-29276800D01*
X16799400Y-29441200D01*
X16612749Y-29441200D01*
X16618320Y-29402000D01*
X16618320Y-28411960D01*
X16799400Y-28411960D01*
X16799400Y-28667200D01*
X16951800Y-28819600D01*
X17881600Y-28819600D01*
X17881600Y-28014800D01*
X18186400Y-28014800D01*
X18186400Y-28819600D01*
X19116200Y-28819600D01*
X19268600Y-28667200D01*
X19268600Y-28638400D01*
X19349800Y-28719600D01*
X19979600Y-28719600D01*
X19979600Y-27884800D01*
X19827200Y-27732400D01*
X19746959Y-27732400D01*
X19629186Y-27755827D01*
X19518246Y-27801780D01*
X19418402Y-27868493D01*
X19333493Y-27953403D01*
X19266779Y-28053246D01*
X19220827Y-28164187D01*
X19211256Y-28212302D01*
X19199221Y-28183246D01*
X19132507Y-28083403D01*
X19047598Y-27998493D01*
X18947754Y-27931780D01*
X18836814Y-27885827D01*
X18719041Y-27862400D01*
X18338800Y-27862400D01*
X18186400Y-28014800D01*
X17881600Y-28014800D01*
X17729200Y-27862400D01*
X17348959Y-27862400D01*
X17231186Y-27885827D01*
X17120246Y-27931780D01*
X17020402Y-27998493D01*
X16935493Y-28083403D01*
X16868779Y-28183246D01*
X16822827Y-28294187D01*
X16799400Y-28411960D01*
X16618320Y-28411960D01*
X16618320Y-28342000D01*
X16613804Y-28285372D01*
X16584060Y-28189325D01*
X16528736Y-28105367D01*
X16452212Y-28040146D01*
X16360547Y-27998827D01*
X16261000Y-27984680D01*
X15611000Y-27984680D01*
X15554372Y-27989196D01*
X15458325Y-28018940D01*
X15457042Y-28019785D01*
X15447639Y-28015547D01*
X15447639Y-27531543D01*
X16276288Y-26702894D01*
X21580377Y-26702894D01*
X20758711Y-27524560D01*
G36*
X27988784Y-26992659D02*
X28021412Y-27019461D01*
X28053770Y-27046612D01*
X28055876Y-27047770D01*
X28057734Y-27049296D01*
X28094929Y-27069240D01*
X28131963Y-27089599D01*
X28134258Y-27090327D01*
X28136373Y-27091461D01*
X28176729Y-27103799D01*
X28217016Y-27116579D01*
X28219404Y-27116847D01*
X28221704Y-27117550D01*
X28263736Y-27121819D01*
X28305689Y-27126525D01*
X28310390Y-27126558D01*
X28310477Y-27126567D01*
X28310558Y-27126559D01*
X28312073Y-27126570D01*
X32682396Y-27126570D01*
X32819377Y-27263551D01*
X32819377Y-27754348D01*
X32709041Y-27732400D01*
X32628800Y-27732400D01*
X32476400Y-27884800D01*
X32476400Y-28719600D01*
X32496400Y-28719600D01*
X32496400Y-29024400D01*
X32476400Y-29024400D01*
X32476400Y-29044400D01*
X32171600Y-29044400D01*
X32171600Y-29024400D01*
X31541800Y-29024400D01*
X31389400Y-29176800D01*
X31389400Y-29205600D01*
X31308200Y-29124400D01*
X30378400Y-29124400D01*
X30378400Y-29144400D01*
X30073600Y-29144400D01*
X30073600Y-29124400D01*
X29143800Y-29124400D01*
X28991400Y-29276800D01*
X28991400Y-29441200D01*
X28804749Y-29441200D01*
X28810320Y-29402000D01*
X28810320Y-28411960D01*
X28991400Y-28411960D01*
X28991400Y-28667200D01*
X29143800Y-28819600D01*
X30073600Y-28819600D01*
X30073600Y-28014800D01*
X30378400Y-28014800D01*
X30378400Y-28819600D01*
X31308200Y-28819600D01*
X31460600Y-28667200D01*
X31460600Y-28638400D01*
X31541800Y-28719600D01*
X32171600Y-28719600D01*
X32171600Y-27884800D01*
X32019200Y-27732400D01*
X31938959Y-27732400D01*
X31821186Y-27755827D01*
X31710246Y-27801780D01*
X31610402Y-27868493D01*
X31525493Y-27953403D01*
X31458779Y-28053246D01*
X31412827Y-28164187D01*
X31403256Y-28212302D01*
X31391221Y-28183246D01*
X31324507Y-28083403D01*
X31239598Y-27998493D01*
X31139754Y-27931780D01*
X31028814Y-27885827D01*
X30911041Y-27862400D01*
X30530800Y-27862400D01*
X30378400Y-28014800D01*
X30073600Y-28014800D01*
X29921200Y-27862400D01*
X29540959Y-27862400D01*
X29423186Y-27885827D01*
X29312246Y-27931780D01*
X29212402Y-27998493D01*
X29127493Y-28083403D01*
X29060779Y-28183246D01*
X29014827Y-28294187D01*
X28991400Y-28411960D01*
X28810320Y-28411960D01*
X28810320Y-28342000D01*
X28805804Y-28285372D01*
X28776060Y-28189325D01*
X28720736Y-28105367D01*
X28644212Y-28040146D01*
X28552547Y-27998827D01*
X28453000Y-27984680D01*
X27803000Y-27984680D01*
X27746372Y-27989196D01*
X27650325Y-28018940D01*
X27649042Y-28019785D01*
X27640003Y-28015711D01*
X27640003Y-27118778D01*
X27635881Y-27076735D01*
X27632201Y-27034675D01*
X27631531Y-27032368D01*
X27631296Y-27029974D01*
X27619099Y-26989578D01*
X27607307Y-26948988D01*
X27606198Y-26946849D01*
X27605505Y-26944553D01*
X27585688Y-26907282D01*
X27566243Y-26869769D01*
X27564745Y-26867893D01*
X27563615Y-26865767D01*
X27536886Y-26832994D01*
X27510575Y-26800035D01*
X27507280Y-26796693D01*
X27507219Y-26796619D01*
X27507150Y-26796562D01*
X27506092Y-26795489D01*
X27177063Y-26466460D01*
X27177063Y-26180938D01*
X27988784Y-26992659D01*
X27988784Y-26992659D01*
G37*
X27988784Y-26992659D02*
X28021412Y-27019461D01*
X28053770Y-27046612D01*
X28055876Y-27047770D01*
X28057734Y-27049296D01*
X28094929Y-27069240D01*
X28131963Y-27089599D01*
X28134258Y-27090327D01*
X28136373Y-27091461D01*
X28176729Y-27103799D01*
X28217016Y-27116579D01*
X28219404Y-27116847D01*
X28221704Y-27117550D01*
X28263736Y-27121819D01*
X28305689Y-27126525D01*
X28310390Y-27126558D01*
X28310477Y-27126567D01*
X28310558Y-27126559D01*
X28312073Y-27126570D01*
X32682396Y-27126570D01*
X32819377Y-27263551D01*
X32819377Y-27754348D01*
X32709041Y-27732400D01*
X32628800Y-27732400D01*
X32476400Y-27884800D01*
X32476400Y-28719600D01*
X32496400Y-28719600D01*
X32496400Y-29024400D01*
X32476400Y-29024400D01*
X32476400Y-29044400D01*
X32171600Y-29044400D01*
X32171600Y-29024400D01*
X31541800Y-29024400D01*
X31389400Y-29176800D01*
X31389400Y-29205600D01*
X31308200Y-29124400D01*
X30378400Y-29124400D01*
X30378400Y-29144400D01*
X30073600Y-29144400D01*
X30073600Y-29124400D01*
X29143800Y-29124400D01*
X28991400Y-29276800D01*
X28991400Y-29441200D01*
X28804749Y-29441200D01*
X28810320Y-29402000D01*
X28810320Y-28411960D01*
X28991400Y-28411960D01*
X28991400Y-28667200D01*
X29143800Y-28819600D01*
X30073600Y-28819600D01*
X30073600Y-28014800D01*
X30378400Y-28014800D01*
X30378400Y-28819600D01*
X31308200Y-28819600D01*
X31460600Y-28667200D01*
X31460600Y-28638400D01*
X31541800Y-28719600D01*
X32171600Y-28719600D01*
X32171600Y-27884800D01*
X32019200Y-27732400D01*
X31938959Y-27732400D01*
X31821186Y-27755827D01*
X31710246Y-27801780D01*
X31610402Y-27868493D01*
X31525493Y-27953403D01*
X31458779Y-28053246D01*
X31412827Y-28164187D01*
X31403256Y-28212302D01*
X31391221Y-28183246D01*
X31324507Y-28083403D01*
X31239598Y-27998493D01*
X31139754Y-27931780D01*
X31028814Y-27885827D01*
X30911041Y-27862400D01*
X30530800Y-27862400D01*
X30378400Y-28014800D01*
X30073600Y-28014800D01*
X29921200Y-27862400D01*
X29540959Y-27862400D01*
X29423186Y-27885827D01*
X29312246Y-27931780D01*
X29212402Y-27998493D01*
X29127493Y-28083403D01*
X29060779Y-28183246D01*
X29014827Y-28294187D01*
X28991400Y-28411960D01*
X28810320Y-28411960D01*
X28810320Y-28342000D01*
X28805804Y-28285372D01*
X28776060Y-28189325D01*
X28720736Y-28105367D01*
X28644212Y-28040146D01*
X28552547Y-27998827D01*
X28453000Y-27984680D01*
X27803000Y-27984680D01*
X27746372Y-27989196D01*
X27650325Y-28018940D01*
X27649042Y-28019785D01*
X27640003Y-28015711D01*
X27640003Y-27118778D01*
X27635881Y-27076735D01*
X27632201Y-27034675D01*
X27631531Y-27032368D01*
X27631296Y-27029974D01*
X27619099Y-26989578D01*
X27607307Y-26948988D01*
X27606198Y-26946849D01*
X27605505Y-26944553D01*
X27585688Y-26907282D01*
X27566243Y-26869769D01*
X27564745Y-26867893D01*
X27563615Y-26865767D01*
X27536886Y-26832994D01*
X27510575Y-26800035D01*
X27507280Y-26796693D01*
X27507219Y-26796619D01*
X27507150Y-26796562D01*
X27506092Y-26795489D01*
X27177063Y-26466460D01*
X27177063Y-26180938D01*
X27988784Y-26992659D01*
G36*
X26262663Y-26655838D02*
X26266785Y-26697881D01*
X26270465Y-26739941D01*
X26271135Y-26742248D01*
X26271370Y-26744642D01*
X26283567Y-26785038D01*
X26295359Y-26825628D01*
X26296468Y-26827767D01*
X26297161Y-26830063D01*
X26316978Y-26867334D01*
X26336423Y-26904847D01*
X26337921Y-26906723D01*
X26339051Y-26908849D01*
X26365780Y-26941622D01*
X26392091Y-26974581D01*
X26395386Y-26977923D01*
X26395447Y-26977997D01*
X26395516Y-26978054D01*
X26396574Y-26979127D01*
X26725603Y-27308156D01*
X26725603Y-27754790D01*
X26613041Y-27732400D01*
X26532800Y-27732400D01*
X26380400Y-27884800D01*
X26380400Y-28719600D01*
X26400400Y-28719600D01*
X26400400Y-29024400D01*
X26380400Y-29024400D01*
X26380400Y-29044400D01*
X26075600Y-29044400D01*
X26075600Y-29024400D01*
X25445800Y-29024400D01*
X25293400Y-29176800D01*
X25293400Y-29205600D01*
X25212200Y-29124400D01*
X24282400Y-29124400D01*
X24282400Y-29144400D01*
X23977600Y-29144400D01*
X23977600Y-29124400D01*
X23047800Y-29124400D01*
X22895400Y-29276800D01*
X22895400Y-29441200D01*
X22708749Y-29441200D01*
X22714320Y-29402000D01*
X22714320Y-28411960D01*
X22895400Y-28411960D01*
X22895400Y-28667200D01*
X23047800Y-28819600D01*
X23977600Y-28819600D01*
X23977600Y-28014800D01*
X24282400Y-28014800D01*
X24282400Y-28819600D01*
X25212200Y-28819600D01*
X25364600Y-28667200D01*
X25364600Y-28638400D01*
X25445800Y-28719600D01*
X26075600Y-28719600D01*
X26075600Y-27884800D01*
X25923200Y-27732400D01*
X25842959Y-27732400D01*
X25725186Y-27755827D01*
X25614246Y-27801780D01*
X25514402Y-27868493D01*
X25429493Y-27953403D01*
X25362779Y-28053246D01*
X25316827Y-28164187D01*
X25307256Y-28212302D01*
X25295221Y-28183246D01*
X25228507Y-28083403D01*
X25143598Y-27998493D01*
X25043754Y-27931780D01*
X24932814Y-27885827D01*
X24815041Y-27862400D01*
X24434800Y-27862400D01*
X24282400Y-28014800D01*
X23977600Y-28014800D01*
X23825200Y-27862400D01*
X23444959Y-27862400D01*
X23327186Y-27885827D01*
X23216246Y-27931780D01*
X23116402Y-27998493D01*
X23031493Y-28083403D01*
X22964779Y-28183246D01*
X22918827Y-28294187D01*
X22895400Y-28411960D01*
X22714320Y-28411960D01*
X22714320Y-28342000D01*
X22709804Y-28285372D01*
X22680060Y-28189325D01*
X22624736Y-28105367D01*
X22548212Y-28040146D01*
X22456547Y-27998827D01*
X22357000Y-27984680D01*
X21707000Y-27984680D01*
X21650372Y-27989196D01*
X21558905Y-28017522D01*
X22460111Y-27116316D01*
X25156884Y-27116316D01*
X25198927Y-27112194D01*
X25240987Y-27108514D01*
X25243294Y-27107844D01*
X25245688Y-27107609D01*
X25286084Y-27095412D01*
X25326674Y-27083620D01*
X25328813Y-27082511D01*
X25331109Y-27081818D01*
X25368380Y-27062001D01*
X25405893Y-27042556D01*
X25407769Y-27041058D01*
X25409895Y-27039928D01*
X25442668Y-27013199D01*
X25475627Y-26986888D01*
X25478969Y-26983593D01*
X25479043Y-26983532D01*
X25479100Y-26983463D01*
X25480173Y-26982405D01*
X26262663Y-26199915D01*
X26262663Y-26655838D01*
X26262663Y-26655838D01*
G37*
X26262663Y-26655838D02*
X26266785Y-26697881D01*
X26270465Y-26739941D01*
X26271135Y-26742248D01*
X26271370Y-26744642D01*
X26283567Y-26785038D01*
X26295359Y-26825628D01*
X26296468Y-26827767D01*
X26297161Y-26830063D01*
X26316978Y-26867334D01*
X26336423Y-26904847D01*
X26337921Y-26906723D01*
X26339051Y-26908849D01*
X26365780Y-26941622D01*
X26392091Y-26974581D01*
X26395386Y-26977923D01*
X26395447Y-26977997D01*
X26395516Y-26978054D01*
X26396574Y-26979127D01*
X26725603Y-27308156D01*
X26725603Y-27754790D01*
X26613041Y-27732400D01*
X26532800Y-27732400D01*
X26380400Y-27884800D01*
X26380400Y-28719600D01*
X26400400Y-28719600D01*
X26400400Y-29024400D01*
X26380400Y-29024400D01*
X26380400Y-29044400D01*
X26075600Y-29044400D01*
X26075600Y-29024400D01*
X25445800Y-29024400D01*
X25293400Y-29176800D01*
X25293400Y-29205600D01*
X25212200Y-29124400D01*
X24282400Y-29124400D01*
X24282400Y-29144400D01*
X23977600Y-29144400D01*
X23977600Y-29124400D01*
X23047800Y-29124400D01*
X22895400Y-29276800D01*
X22895400Y-29441200D01*
X22708749Y-29441200D01*
X22714320Y-29402000D01*
X22714320Y-28411960D01*
X22895400Y-28411960D01*
X22895400Y-28667200D01*
X23047800Y-28819600D01*
X23977600Y-28819600D01*
X23977600Y-28014800D01*
X24282400Y-28014800D01*
X24282400Y-28819600D01*
X25212200Y-28819600D01*
X25364600Y-28667200D01*
X25364600Y-28638400D01*
X25445800Y-28719600D01*
X26075600Y-28719600D01*
X26075600Y-27884800D01*
X25923200Y-27732400D01*
X25842959Y-27732400D01*
X25725186Y-27755827D01*
X25614246Y-27801780D01*
X25514402Y-27868493D01*
X25429493Y-27953403D01*
X25362779Y-28053246D01*
X25316827Y-28164187D01*
X25307256Y-28212302D01*
X25295221Y-28183246D01*
X25228507Y-28083403D01*
X25143598Y-27998493D01*
X25043754Y-27931780D01*
X24932814Y-27885827D01*
X24815041Y-27862400D01*
X24434800Y-27862400D01*
X24282400Y-28014800D01*
X23977600Y-28014800D01*
X23825200Y-27862400D01*
X23444959Y-27862400D01*
X23327186Y-27885827D01*
X23216246Y-27931780D01*
X23116402Y-27998493D01*
X23031493Y-28083403D01*
X22964779Y-28183246D01*
X22918827Y-28294187D01*
X22895400Y-28411960D01*
X22714320Y-28411960D01*
X22714320Y-28342000D01*
X22709804Y-28285372D01*
X22680060Y-28189325D01*
X22624736Y-28105367D01*
X22548212Y-28040146D01*
X22456547Y-27998827D01*
X22357000Y-27984680D01*
X21707000Y-27984680D01*
X21650372Y-27989196D01*
X21558905Y-28017522D01*
X22460111Y-27116316D01*
X25156884Y-27116316D01*
X25198927Y-27112194D01*
X25240987Y-27108514D01*
X25243294Y-27107844D01*
X25245688Y-27107609D01*
X25286084Y-27095412D01*
X25326674Y-27083620D01*
X25328813Y-27082511D01*
X25331109Y-27081818D01*
X25368380Y-27062001D01*
X25405893Y-27042556D01*
X25407769Y-27041058D01*
X25409895Y-27039928D01*
X25442668Y-27013199D01*
X25475627Y-26986888D01*
X25478969Y-26983593D01*
X25479043Y-26983532D01*
X25479100Y-26983463D01*
X25480173Y-26982405D01*
X26262663Y-26199915D01*
X26262663Y-26655838D01*
G36*
X18186400Y-9550400D02*
X14732000Y-9550400D01*
X14703695Y-9554422D01*
X14677631Y-9566171D01*
X14655872Y-9584716D01*
X14640141Y-9608589D01*
X14631684Y-9635898D01*
X14630400Y-9652000D01*
X14630400Y-14630400D01*
X5588000Y-14630400D01*
X5559695Y-14634422D01*
X5533631Y-14646171D01*
X5511872Y-14664716D01*
X5496141Y-14688589D01*
X5487684Y-14715898D01*
X5486400Y-14732000D01*
X5486400Y-16154400D01*
X2641600Y-16154400D01*
X2641600Y-8229600D01*
X10160000Y-8229600D01*
X10188305Y-8225578D01*
X10214369Y-8213829D01*
X10236128Y-8195284D01*
X10251859Y-8171411D01*
X10260316Y-8144102D01*
X10261600Y-8128000D01*
X10261600Y-3657600D01*
X18186400Y-3657600D01*
X18186400Y-9550400D01*
X18186400Y-9550400D01*
G37*
X18186400Y-9550400D02*
X14732000Y-9550400D01*
X14703695Y-9554422D01*
X14677631Y-9566171D01*
X14655872Y-9584716D01*
X14640141Y-9608589D01*
X14631684Y-9635898D01*
X14630400Y-9652000D01*
X14630400Y-14630400D01*
X5588000Y-14630400D01*
X5559695Y-14634422D01*
X5533631Y-14646171D01*
X5511872Y-14664716D01*
X5496141Y-14688589D01*
X5487684Y-14715898D01*
X5486400Y-14732000D01*
X5486400Y-16154400D01*
X2641600Y-16154400D01*
X2641600Y-8229600D01*
X10160000Y-8229600D01*
X10188305Y-8225578D01*
X10214369Y-8213829D01*
X10236128Y-8195284D01*
X10251859Y-8171411D01*
X10260316Y-8144102D01*
X10261600Y-8128000D01*
X10261600Y-3657600D01*
X18186400Y-3657600D01*
X18186400Y-9550400D01*
G36*
X16154400Y-19304000D02*
X16158422Y-19332305D01*
X16170171Y-19358369D01*
X16188716Y-19380128D01*
X16212589Y-19395859D01*
X16239898Y-19404316D01*
X16256000Y-19405600D01*
X19202400Y-19405600D01*
X19202400Y-22250400D01*
X8266909Y-22250400D01*
X8230791Y-19151600D01*
X14732000Y-19151600D01*
X14760305Y-19147578D01*
X14786369Y-19135829D01*
X14808128Y-19117284D01*
X14823859Y-19093411D01*
X14832316Y-19066102D01*
X14833600Y-19050000D01*
X14833600Y-18389600D01*
X16154400Y-18389600D01*
X16154400Y-19304000D01*
X16154400Y-19304000D01*
G37*
X16154400Y-19304000D02*
X16158422Y-19332305D01*
X16170171Y-19358369D01*
X16188716Y-19380128D01*
X16212589Y-19395859D01*
X16239898Y-19404316D01*
X16256000Y-19405600D01*
X19202400Y-19405600D01*
X19202400Y-22250400D01*
X8266909Y-22250400D01*
X8230791Y-19151600D01*
X14732000Y-19151600D01*
X14760305Y-19147578D01*
X14786369Y-19135829D01*
X14808128Y-19117284D01*
X14823859Y-19093411D01*
X14832316Y-19066102D01*
X14833600Y-19050000D01*
X14833600Y-18389600D01*
X16154400Y-18389600D01*
X16154400Y-19304000D01*
M02*
