G04 #@! TF.FileFunction,Legend,Bot*
%FSLAX46Y46*%
G04 Gerber Fmt 4.6, Leading zero omitted, Abs format (unit mm)*
G04 Created by KiCad (PCBNEW 4.0.7-e2-6376~61~ubuntu18.04.1) date Fri Dec  6 13:26:14 2019*
%MOMM*%
%LPD*%
G01*
G04 APERTURE LIST*
%ADD10C,0.100000*%
%ADD11C,0.254000*%
%ADD12C,0.010000*%
G04 APERTURE END LIST*
D10*
D11*
X36786429Y-41093571D02*
X36846905Y-41154048D01*
X37028334Y-41214524D01*
X37149286Y-41214524D01*
X37330714Y-41154048D01*
X37451667Y-41033095D01*
X37512143Y-40912143D01*
X37572619Y-40670238D01*
X37572619Y-40488810D01*
X37512143Y-40246905D01*
X37451667Y-40125952D01*
X37330714Y-40005000D01*
X37149286Y-39944524D01*
X37028334Y-39944524D01*
X36846905Y-40005000D01*
X36786429Y-40065476D01*
X36060714Y-41214524D02*
X36181667Y-41154048D01*
X36242143Y-41093571D01*
X36302619Y-40972619D01*
X36302619Y-40609762D01*
X36242143Y-40488810D01*
X36181667Y-40428333D01*
X36060714Y-40367857D01*
X35879286Y-40367857D01*
X35758334Y-40428333D01*
X35697857Y-40488810D01*
X35637381Y-40609762D01*
X35637381Y-40972619D01*
X35697857Y-41093571D01*
X35758334Y-41154048D01*
X35879286Y-41214524D01*
X36060714Y-41214524D01*
X35093095Y-40367857D02*
X35093095Y-41637857D01*
X35093095Y-40428333D02*
X34972143Y-40367857D01*
X34730238Y-40367857D01*
X34609286Y-40428333D01*
X34548809Y-40488810D01*
X34488333Y-40609762D01*
X34488333Y-40972619D01*
X34548809Y-41093571D01*
X34609286Y-41154048D01*
X34730238Y-41214524D01*
X34972143Y-41214524D01*
X35093095Y-41154048D01*
X34064999Y-40367857D02*
X33762618Y-41214524D01*
X33460238Y-40367857D02*
X33762618Y-41214524D01*
X33883571Y-41516905D01*
X33944047Y-41577381D01*
X34064999Y-41637857D01*
X32976428Y-41214524D02*
X32976428Y-40367857D01*
X32976428Y-40609762D02*
X32915952Y-40488810D01*
X32855476Y-40428333D01*
X32734523Y-40367857D01*
X32613571Y-40367857D01*
X32190238Y-41214524D02*
X32190238Y-40367857D01*
X32190238Y-39944524D02*
X32250714Y-40005000D01*
X32190238Y-40065476D01*
X32129762Y-40005000D01*
X32190238Y-39944524D01*
X32190238Y-40065476D01*
X31041190Y-40367857D02*
X31041190Y-41395952D01*
X31101667Y-41516905D01*
X31162143Y-41577381D01*
X31283095Y-41637857D01*
X31464524Y-41637857D01*
X31585476Y-41577381D01*
X31041190Y-41154048D02*
X31162143Y-41214524D01*
X31404047Y-41214524D01*
X31525000Y-41154048D01*
X31585476Y-41093571D01*
X31645952Y-40972619D01*
X31645952Y-40609762D01*
X31585476Y-40488810D01*
X31525000Y-40428333D01*
X31404047Y-40367857D01*
X31162143Y-40367857D01*
X31041190Y-40428333D01*
X30436428Y-41214524D02*
X30436428Y-39944524D01*
X29892142Y-41214524D02*
X29892142Y-40549286D01*
X29952619Y-40428333D01*
X30073571Y-40367857D01*
X30254999Y-40367857D01*
X30375952Y-40428333D01*
X30436428Y-40488810D01*
X29468809Y-40367857D02*
X28984999Y-40367857D01*
X29287380Y-39944524D02*
X29287380Y-41033095D01*
X29226904Y-41154048D01*
X29105951Y-41214524D01*
X28984999Y-41214524D01*
X26565952Y-40246905D02*
X26686904Y-40186429D01*
X26928809Y-40186429D01*
X27049761Y-40246905D01*
X27170714Y-40367857D01*
X27231190Y-40488810D01*
X27231190Y-40730714D01*
X27170714Y-40851667D01*
X27049761Y-40972619D01*
X26928809Y-41033095D01*
X26686904Y-41033095D01*
X26565952Y-40972619D01*
X26807857Y-39763095D02*
X27110238Y-39823571D01*
X27412618Y-40005000D01*
X27594047Y-40307381D01*
X27654523Y-40609762D01*
X27594047Y-40912143D01*
X27412618Y-41214524D01*
X27110238Y-41395952D01*
X26807857Y-41456429D01*
X26505476Y-41395952D01*
X26203095Y-41214524D01*
X26021666Y-40912143D01*
X25961190Y-40609762D01*
X26021666Y-40307381D01*
X26203095Y-40005000D01*
X26505476Y-39823571D01*
X26807857Y-39763095D01*
X24509761Y-40065476D02*
X24449285Y-40005000D01*
X24328333Y-39944524D01*
X24025952Y-39944524D01*
X23904999Y-40005000D01*
X23844523Y-40065476D01*
X23784047Y-40186429D01*
X23784047Y-40307381D01*
X23844523Y-40488810D01*
X24570237Y-41214524D01*
X23784047Y-41214524D01*
X22997856Y-39944524D02*
X22876904Y-39944524D01*
X22755952Y-40005000D01*
X22695475Y-40065476D01*
X22634999Y-40186429D01*
X22574523Y-40428333D01*
X22574523Y-40730714D01*
X22634999Y-40972619D01*
X22695475Y-41093571D01*
X22755952Y-41154048D01*
X22876904Y-41214524D01*
X22997856Y-41214524D01*
X23118809Y-41154048D01*
X23179285Y-41093571D01*
X23239761Y-40972619D01*
X23300237Y-40730714D01*
X23300237Y-40428333D01*
X23239761Y-40186429D01*
X23179285Y-40065476D01*
X23118809Y-40005000D01*
X22997856Y-39944524D01*
X21364999Y-41214524D02*
X22090713Y-41214524D01*
X21727856Y-41214524D02*
X21727856Y-39944524D01*
X21848808Y-40125952D01*
X21969761Y-40246905D01*
X22090713Y-40307381D01*
X20760237Y-41214524D02*
X20518332Y-41214524D01*
X20397380Y-41154048D01*
X20336904Y-41093571D01*
X20215951Y-40912143D01*
X20155475Y-40670238D01*
X20155475Y-40186429D01*
X20215951Y-40065476D01*
X20276427Y-40005000D01*
X20397380Y-39944524D01*
X20639284Y-39944524D01*
X20760237Y-40005000D01*
X20820713Y-40065476D01*
X20881189Y-40186429D01*
X20881189Y-40488810D01*
X20820713Y-40609762D01*
X20760237Y-40670238D01*
X20639284Y-40730714D01*
X20397380Y-40730714D01*
X20276427Y-40670238D01*
X20215951Y-40609762D01*
X20155475Y-40488810D01*
X18643570Y-41214524D02*
X18643570Y-39944524D01*
X18522618Y-40730714D02*
X18159761Y-41214524D01*
X18159761Y-40367857D02*
X18643570Y-40851667D01*
X17736427Y-40367857D02*
X17494523Y-41214524D01*
X17252618Y-40609762D01*
X17010713Y-41214524D01*
X16768808Y-40367857D01*
X15801190Y-41154048D02*
X15922142Y-41214524D01*
X16164047Y-41214524D01*
X16284999Y-41154048D01*
X16345475Y-41033095D01*
X16345475Y-40549286D01*
X16284999Y-40428333D01*
X16164047Y-40367857D01*
X15922142Y-40367857D01*
X15801190Y-40428333D01*
X15740713Y-40549286D01*
X15740713Y-40670238D01*
X16345475Y-40791190D01*
X15196428Y-40367857D02*
X15196428Y-41214524D01*
X15196428Y-40488810D02*
X15135952Y-40428333D01*
X15014999Y-40367857D01*
X14833571Y-40367857D01*
X14712619Y-40428333D01*
X14652142Y-40549286D01*
X14652142Y-41214524D01*
X13503094Y-41214524D02*
X13503094Y-39944524D01*
X13503094Y-41154048D02*
X13624047Y-41214524D01*
X13865951Y-41214524D01*
X13986904Y-41154048D01*
X14047380Y-41093571D01*
X14107856Y-40972619D01*
X14107856Y-40609762D01*
X14047380Y-40488810D01*
X13986904Y-40428333D01*
X13865951Y-40367857D01*
X13624047Y-40367857D01*
X13503094Y-40428333D01*
X12414523Y-41154048D02*
X12535475Y-41214524D01*
X12777380Y-41214524D01*
X12898332Y-41154048D01*
X12958808Y-41033095D01*
X12958808Y-40549286D01*
X12898332Y-40428333D01*
X12777380Y-40367857D01*
X12535475Y-40367857D01*
X12414523Y-40428333D01*
X12354046Y-40549286D01*
X12354046Y-40670238D01*
X12958808Y-40791190D01*
X11809761Y-40367857D02*
X11809761Y-41214524D01*
X11809761Y-40488810D02*
X11749285Y-40428333D01*
X11628332Y-40367857D01*
X11446904Y-40367857D01*
X11325952Y-40428333D01*
X11265475Y-40549286D01*
X11265475Y-41214524D01*
X10116427Y-41214524D02*
X10116427Y-40549286D01*
X10176904Y-40428333D01*
X10297856Y-40367857D01*
X10539761Y-40367857D01*
X10660713Y-40428333D01*
X10116427Y-41154048D02*
X10237380Y-41214524D01*
X10539761Y-41214524D01*
X10660713Y-41154048D01*
X10721189Y-41033095D01*
X10721189Y-40912143D01*
X10660713Y-40791190D01*
X10539761Y-40730714D01*
X10237380Y-40730714D01*
X10116427Y-40670238D01*
X9511665Y-41214524D02*
X9511665Y-40367857D01*
X9511665Y-40609762D02*
X9451189Y-40488810D01*
X9390713Y-40428333D01*
X9269760Y-40367857D01*
X9148808Y-40367857D01*
X8725475Y-41214524D02*
X8725475Y-40367857D01*
X8725475Y-40488810D02*
X8664999Y-40428333D01*
X8544046Y-40367857D01*
X8362618Y-40367857D01*
X8241666Y-40428333D01*
X8181189Y-40549286D01*
X8181189Y-41214524D01*
X8181189Y-40549286D02*
X8120713Y-40428333D01*
X7999761Y-40367857D01*
X7818332Y-40367857D01*
X7697380Y-40428333D01*
X7636904Y-40549286D01*
X7636904Y-41214524D01*
X6850713Y-41214524D02*
X6971666Y-41154048D01*
X7032142Y-41093571D01*
X7092618Y-40972619D01*
X7092618Y-40609762D01*
X7032142Y-40488810D01*
X6971666Y-40428333D01*
X6850713Y-40367857D01*
X6669285Y-40367857D01*
X6548333Y-40428333D01*
X6487856Y-40488810D01*
X6427380Y-40609762D01*
X6427380Y-40972619D01*
X6487856Y-41093571D01*
X6548333Y-41154048D01*
X6669285Y-41214524D01*
X6850713Y-41214524D01*
X35111236Y-30050619D02*
X35449902Y-29566810D01*
X35691807Y-30050619D02*
X35691807Y-29034619D01*
X35304760Y-29034619D01*
X35207998Y-29083000D01*
X35159617Y-29131381D01*
X35111236Y-29228143D01*
X35111236Y-29373286D01*
X35159617Y-29470048D01*
X35207998Y-29518429D01*
X35304760Y-29566810D01*
X35691807Y-29566810D01*
X34288760Y-30002238D02*
X34385522Y-30050619D01*
X34579045Y-30050619D01*
X34675807Y-30002238D01*
X34724188Y-29905476D01*
X34724188Y-29518429D01*
X34675807Y-29421667D01*
X34579045Y-29373286D01*
X34385522Y-29373286D01*
X34288760Y-29421667D01*
X34240379Y-29518429D01*
X34240379Y-29615190D01*
X34724188Y-29711952D01*
X33659807Y-30050619D02*
X33756569Y-30002238D01*
X33804950Y-29905476D01*
X33804950Y-29034619D01*
X32885713Y-30002238D02*
X32982475Y-30050619D01*
X33175998Y-30050619D01*
X33272760Y-30002238D01*
X33321141Y-29905476D01*
X33321141Y-29518429D01*
X33272760Y-29421667D01*
X33175998Y-29373286D01*
X32982475Y-29373286D01*
X32885713Y-29421667D01*
X32837332Y-29518429D01*
X32837332Y-29615190D01*
X33321141Y-29711952D01*
X31966475Y-30050619D02*
X31966475Y-29518429D01*
X32014856Y-29421667D01*
X32111618Y-29373286D01*
X32305141Y-29373286D01*
X32401903Y-29421667D01*
X31966475Y-30002238D02*
X32063237Y-30050619D01*
X32305141Y-30050619D01*
X32401903Y-30002238D01*
X32450284Y-29905476D01*
X32450284Y-29808714D01*
X32401903Y-29711952D01*
X32305141Y-29663571D01*
X32063237Y-29663571D01*
X31966475Y-29615190D01*
X31531046Y-30002238D02*
X31434284Y-30050619D01*
X31240760Y-30050619D01*
X31143999Y-30002238D01*
X31095618Y-29905476D01*
X31095618Y-29857095D01*
X31143999Y-29760333D01*
X31240760Y-29711952D01*
X31385903Y-29711952D01*
X31482665Y-29663571D01*
X31531046Y-29566810D01*
X31531046Y-29518429D01*
X31482665Y-29421667D01*
X31385903Y-29373286D01*
X31240760Y-29373286D01*
X31143999Y-29421667D01*
X30273142Y-30002238D02*
X30369904Y-30050619D01*
X30563427Y-30050619D01*
X30660189Y-30002238D01*
X30708570Y-29905476D01*
X30708570Y-29518429D01*
X30660189Y-29421667D01*
X30563427Y-29373286D01*
X30369904Y-29373286D01*
X30273142Y-29421667D01*
X30224761Y-29518429D01*
X30224761Y-29615190D01*
X30708570Y-29711952D01*
X29353904Y-30050619D02*
X29353904Y-29034619D01*
X29353904Y-30002238D02*
X29450666Y-30050619D01*
X29644189Y-30050619D01*
X29740951Y-30002238D01*
X29789332Y-29953857D01*
X29837713Y-29857095D01*
X29837713Y-29566810D01*
X29789332Y-29470048D01*
X29740951Y-29421667D01*
X29644189Y-29373286D01*
X29450666Y-29373286D01*
X29353904Y-29421667D01*
X27660571Y-29373286D02*
X27660571Y-30050619D01*
X28095999Y-29373286D02*
X28095999Y-29905476D01*
X28047618Y-30002238D01*
X27950856Y-30050619D01*
X27805714Y-30050619D01*
X27708952Y-30002238D01*
X27660571Y-29953857D01*
X27176761Y-29373286D02*
X27176761Y-30050619D01*
X27176761Y-29470048D02*
X27128380Y-29421667D01*
X27031618Y-29373286D01*
X26886476Y-29373286D01*
X26789714Y-29421667D01*
X26741333Y-29518429D01*
X26741333Y-30050619D01*
X25822095Y-30050619D02*
X25822095Y-29034619D01*
X25822095Y-30002238D02*
X25918857Y-30050619D01*
X26112380Y-30050619D01*
X26209142Y-30002238D01*
X26257523Y-29953857D01*
X26305904Y-29857095D01*
X26305904Y-29566810D01*
X26257523Y-29470048D01*
X26209142Y-29421667D01*
X26112380Y-29373286D01*
X25918857Y-29373286D01*
X25822095Y-29421667D01*
X24951238Y-30002238D02*
X25048000Y-30050619D01*
X25241523Y-30050619D01*
X25338285Y-30002238D01*
X25386666Y-29905476D01*
X25386666Y-29518429D01*
X25338285Y-29421667D01*
X25241523Y-29373286D01*
X25048000Y-29373286D01*
X24951238Y-29421667D01*
X24902857Y-29518429D01*
X24902857Y-29615190D01*
X25386666Y-29711952D01*
X24467428Y-30050619D02*
X24467428Y-29373286D01*
X24467428Y-29566810D02*
X24419047Y-29470048D01*
X24370666Y-29421667D01*
X24273904Y-29373286D01*
X24177143Y-29373286D01*
X22532191Y-29083000D02*
X22628953Y-29034619D01*
X22774096Y-29034619D01*
X22919238Y-29083000D01*
X23016000Y-29179762D01*
X23064381Y-29276524D01*
X23112762Y-29470048D01*
X23112762Y-29615190D01*
X23064381Y-29808714D01*
X23016000Y-29905476D01*
X22919238Y-30002238D01*
X22774096Y-30050619D01*
X22677334Y-30050619D01*
X22532191Y-30002238D01*
X22483810Y-29953857D01*
X22483810Y-29615190D01*
X22677334Y-29615190D01*
X22048381Y-30050619D02*
X22048381Y-29034619D01*
X21467810Y-30050619D01*
X21467810Y-29034619D01*
X20984000Y-29034619D02*
X20984000Y-29857095D01*
X20935619Y-29953857D01*
X20887238Y-30002238D01*
X20790476Y-30050619D01*
X20596953Y-30050619D01*
X20500191Y-30002238D01*
X20451810Y-29953857D01*
X20403429Y-29857095D01*
X20403429Y-29034619D01*
X19193905Y-28986238D02*
X20064762Y-30292524D01*
X18323048Y-29083000D02*
X18419810Y-29034619D01*
X18564953Y-29034619D01*
X18710095Y-29083000D01*
X18806857Y-29179762D01*
X18855238Y-29276524D01*
X18903619Y-29470048D01*
X18903619Y-29615190D01*
X18855238Y-29808714D01*
X18806857Y-29905476D01*
X18710095Y-30002238D01*
X18564953Y-30050619D01*
X18468191Y-30050619D01*
X18323048Y-30002238D01*
X18274667Y-29953857D01*
X18274667Y-29615190D01*
X18468191Y-29615190D01*
X17839238Y-30050619D02*
X17839238Y-29034619D01*
X17452191Y-29034619D01*
X17355429Y-29083000D01*
X17307048Y-29131381D01*
X17258667Y-29228143D01*
X17258667Y-29373286D01*
X17307048Y-29470048D01*
X17355429Y-29518429D01*
X17452191Y-29566810D01*
X17839238Y-29566810D01*
X16339429Y-30050619D02*
X16823238Y-30050619D01*
X16823238Y-29034619D01*
X15323429Y-29034619D02*
X14694477Y-29034619D01*
X15033143Y-29421667D01*
X14888001Y-29421667D01*
X14791239Y-29470048D01*
X14742858Y-29518429D01*
X14694477Y-29615190D01*
X14694477Y-29857095D01*
X14742858Y-29953857D01*
X14791239Y-30002238D01*
X14888001Y-30050619D01*
X15178286Y-30050619D01*
X15275048Y-30002238D01*
X15323429Y-29953857D01*
X13001144Y-30050619D02*
X13484953Y-30050619D01*
X13484953Y-29034619D01*
X12662477Y-30050619D02*
X12662477Y-29373286D01*
X12662477Y-29034619D02*
X12710858Y-29083000D01*
X12662477Y-29131381D01*
X12614096Y-29083000D01*
X12662477Y-29034619D01*
X12662477Y-29131381D01*
X11743239Y-30002238D02*
X11840001Y-30050619D01*
X12033524Y-30050619D01*
X12130286Y-30002238D01*
X12178667Y-29953857D01*
X12227048Y-29857095D01*
X12227048Y-29566810D01*
X12178667Y-29470048D01*
X12130286Y-29421667D01*
X12033524Y-29373286D01*
X11840001Y-29373286D01*
X11743239Y-29421667D01*
X10920763Y-30002238D02*
X11017525Y-30050619D01*
X11211048Y-30050619D01*
X11307810Y-30002238D01*
X11356191Y-29905476D01*
X11356191Y-29518429D01*
X11307810Y-29421667D01*
X11211048Y-29373286D01*
X11017525Y-29373286D01*
X10920763Y-29421667D01*
X10872382Y-29518429D01*
X10872382Y-29615190D01*
X11356191Y-29711952D01*
X10436953Y-29373286D02*
X10436953Y-30050619D01*
X10436953Y-29470048D02*
X10388572Y-29421667D01*
X10291810Y-29373286D01*
X10146668Y-29373286D01*
X10049906Y-29421667D01*
X10001525Y-29518429D01*
X10001525Y-30050619D01*
X9566096Y-30002238D02*
X9469334Y-30050619D01*
X9275810Y-30050619D01*
X9179049Y-30002238D01*
X9130668Y-29905476D01*
X9130668Y-29857095D01*
X9179049Y-29760333D01*
X9275810Y-29711952D01*
X9420953Y-29711952D01*
X9517715Y-29663571D01*
X9566096Y-29566810D01*
X9566096Y-29518429D01*
X9517715Y-29421667D01*
X9420953Y-29373286D01*
X9275810Y-29373286D01*
X9179049Y-29421667D01*
X8308192Y-30002238D02*
X8404954Y-30050619D01*
X8598477Y-30050619D01*
X8695239Y-30002238D01*
X8743620Y-29905476D01*
X8743620Y-29518429D01*
X8695239Y-29421667D01*
X8598477Y-29373286D01*
X8404954Y-29373286D01*
X8308192Y-29421667D01*
X8259811Y-29518429D01*
X8259811Y-29615190D01*
X8743620Y-29711952D01*
X36949713Y-31828619D02*
X36949713Y-30812619D01*
X36514285Y-31828619D02*
X36514285Y-31296429D01*
X36562666Y-31199667D01*
X36659428Y-31151286D01*
X36804570Y-31151286D01*
X36901332Y-31199667D01*
X36949713Y-31248048D01*
X36175618Y-31151286D02*
X35788570Y-31151286D01*
X36030475Y-30812619D02*
X36030475Y-31683476D01*
X35982094Y-31780238D01*
X35885332Y-31828619D01*
X35788570Y-31828619D01*
X35595047Y-31151286D02*
X35207999Y-31151286D01*
X35449904Y-30812619D02*
X35449904Y-31683476D01*
X35401523Y-31780238D01*
X35304761Y-31828619D01*
X35207999Y-31828619D01*
X34869333Y-31151286D02*
X34869333Y-32167286D01*
X34869333Y-31199667D02*
X34772571Y-31151286D01*
X34579048Y-31151286D01*
X34482286Y-31199667D01*
X34433905Y-31248048D01*
X34385524Y-31344810D01*
X34385524Y-31635095D01*
X34433905Y-31731857D01*
X34482286Y-31780238D01*
X34579048Y-31828619D01*
X34772571Y-31828619D01*
X34869333Y-31780238D01*
X33998476Y-31780238D02*
X33901714Y-31828619D01*
X33708190Y-31828619D01*
X33611429Y-31780238D01*
X33563048Y-31683476D01*
X33563048Y-31635095D01*
X33611429Y-31538333D01*
X33708190Y-31489952D01*
X33853333Y-31489952D01*
X33950095Y-31441571D01*
X33998476Y-31344810D01*
X33998476Y-31296429D01*
X33950095Y-31199667D01*
X33853333Y-31151286D01*
X33708190Y-31151286D01*
X33611429Y-31199667D01*
X33127619Y-31731857D02*
X33079238Y-31780238D01*
X33127619Y-31828619D01*
X33176000Y-31780238D01*
X33127619Y-31731857D01*
X33127619Y-31828619D01*
X33127619Y-31199667D02*
X33079238Y-31248048D01*
X33127619Y-31296429D01*
X33176000Y-31248048D01*
X33127619Y-31199667D01*
X33127619Y-31296429D01*
X31918095Y-30764238D02*
X32788952Y-32070524D01*
X30853714Y-30764238D02*
X31724571Y-32070524D01*
X30611809Y-31151286D02*
X30418285Y-31828619D01*
X30224762Y-31344810D01*
X30031238Y-31828619D01*
X29837714Y-31151286D01*
X29547428Y-31151286D02*
X29353904Y-31828619D01*
X29160381Y-31344810D01*
X28966857Y-31828619D01*
X28773333Y-31151286D01*
X28483047Y-31151286D02*
X28289523Y-31828619D01*
X28096000Y-31344810D01*
X27902476Y-31828619D01*
X27708952Y-31151286D01*
X27321904Y-31731857D02*
X27273523Y-31780238D01*
X27321904Y-31828619D01*
X27370285Y-31780238D01*
X27321904Y-31731857D01*
X27321904Y-31828619D01*
X26402666Y-31151286D02*
X26402666Y-31973762D01*
X26451047Y-32070524D01*
X26499428Y-32118905D01*
X26596189Y-32167286D01*
X26741332Y-32167286D01*
X26838094Y-32118905D01*
X26402666Y-31780238D02*
X26499428Y-31828619D01*
X26692951Y-31828619D01*
X26789713Y-31780238D01*
X26838094Y-31731857D01*
X26886475Y-31635095D01*
X26886475Y-31344810D01*
X26838094Y-31248048D01*
X26789713Y-31199667D01*
X26692951Y-31151286D01*
X26499428Y-31151286D01*
X26402666Y-31199667D01*
X25918856Y-31151286D02*
X25918856Y-31828619D01*
X25918856Y-31248048D02*
X25870475Y-31199667D01*
X25773713Y-31151286D01*
X25628571Y-31151286D01*
X25531809Y-31199667D01*
X25483428Y-31296429D01*
X25483428Y-31828619D01*
X24564190Y-31151286D02*
X24564190Y-31828619D01*
X24999618Y-31151286D02*
X24999618Y-31683476D01*
X24951237Y-31780238D01*
X24854475Y-31828619D01*
X24709333Y-31828619D01*
X24612571Y-31780238D01*
X24564190Y-31731857D01*
X24080380Y-31731857D02*
X24031999Y-31780238D01*
X24080380Y-31828619D01*
X24128761Y-31780238D01*
X24080380Y-31731857D01*
X24080380Y-31828619D01*
X23451427Y-31828619D02*
X23548189Y-31780238D01*
X23596570Y-31731857D01*
X23644951Y-31635095D01*
X23644951Y-31344810D01*
X23596570Y-31248048D01*
X23548189Y-31199667D01*
X23451427Y-31151286D01*
X23306285Y-31151286D01*
X23209523Y-31199667D01*
X23161142Y-31248048D01*
X23112761Y-31344810D01*
X23112761Y-31635095D01*
X23161142Y-31731857D01*
X23209523Y-31780238D01*
X23306285Y-31828619D01*
X23451427Y-31828619D01*
X22677332Y-31828619D02*
X22677332Y-31151286D01*
X22677332Y-31344810D02*
X22628951Y-31248048D01*
X22580570Y-31199667D01*
X22483808Y-31151286D01*
X22387047Y-31151286D01*
X21612952Y-31151286D02*
X21612952Y-31973762D01*
X21661333Y-32070524D01*
X21709714Y-32118905D01*
X21806475Y-32167286D01*
X21951618Y-32167286D01*
X22048380Y-32118905D01*
X21612952Y-31780238D02*
X21709714Y-31828619D01*
X21903237Y-31828619D01*
X21999999Y-31780238D01*
X22048380Y-31731857D01*
X22096761Y-31635095D01*
X22096761Y-31344810D01*
X22048380Y-31248048D01*
X21999999Y-31199667D01*
X21903237Y-31151286D01*
X21709714Y-31151286D01*
X21612952Y-31199667D01*
X20403428Y-30764238D02*
X21274285Y-32070524D01*
X19919618Y-31828619D02*
X20016380Y-31780238D01*
X20064761Y-31683476D01*
X20064761Y-30812619D01*
X19532571Y-31828619D02*
X19532571Y-31151286D01*
X19532571Y-30812619D02*
X19580952Y-30861000D01*
X19532571Y-30909381D01*
X19484190Y-30861000D01*
X19532571Y-30812619D01*
X19532571Y-30909381D01*
X18613333Y-31780238D02*
X18710095Y-31828619D01*
X18903618Y-31828619D01*
X19000380Y-31780238D01*
X19048761Y-31731857D01*
X19097142Y-31635095D01*
X19097142Y-31344810D01*
X19048761Y-31248048D01*
X19000380Y-31199667D01*
X18903618Y-31151286D01*
X18710095Y-31151286D01*
X18613333Y-31199667D01*
X17790857Y-31780238D02*
X17887619Y-31828619D01*
X18081142Y-31828619D01*
X18177904Y-31780238D01*
X18226285Y-31683476D01*
X18226285Y-31296429D01*
X18177904Y-31199667D01*
X18081142Y-31151286D01*
X17887619Y-31151286D01*
X17790857Y-31199667D01*
X17742476Y-31296429D01*
X17742476Y-31393190D01*
X18226285Y-31489952D01*
X17307047Y-31151286D02*
X17307047Y-31828619D01*
X17307047Y-31248048D02*
X17258666Y-31199667D01*
X17161904Y-31151286D01*
X17016762Y-31151286D01*
X16920000Y-31199667D01*
X16871619Y-31296429D01*
X16871619Y-31828619D01*
X16436190Y-31780238D02*
X16339428Y-31828619D01*
X16145904Y-31828619D01*
X16049143Y-31780238D01*
X16000762Y-31683476D01*
X16000762Y-31635095D01*
X16049143Y-31538333D01*
X16145904Y-31489952D01*
X16291047Y-31489952D01*
X16387809Y-31441571D01*
X16436190Y-31344810D01*
X16436190Y-31296429D01*
X16387809Y-31199667D01*
X16291047Y-31151286D01*
X16145904Y-31151286D01*
X16049143Y-31199667D01*
X15178286Y-31780238D02*
X15275048Y-31828619D01*
X15468571Y-31828619D01*
X15565333Y-31780238D01*
X15613714Y-31683476D01*
X15613714Y-31296429D01*
X15565333Y-31199667D01*
X15468571Y-31151286D01*
X15275048Y-31151286D01*
X15178286Y-31199667D01*
X15129905Y-31296429D01*
X15129905Y-31393190D01*
X15613714Y-31489952D01*
X14742857Y-31780238D02*
X14646095Y-31828619D01*
X14452571Y-31828619D01*
X14355810Y-31780238D01*
X14307429Y-31683476D01*
X14307429Y-31635095D01*
X14355810Y-31538333D01*
X14452571Y-31489952D01*
X14597714Y-31489952D01*
X14694476Y-31441571D01*
X14742857Y-31344810D01*
X14742857Y-31296429D01*
X14694476Y-31199667D01*
X14597714Y-31151286D01*
X14452571Y-31151286D01*
X14355810Y-31199667D01*
X13146286Y-30764238D02*
X14017143Y-32070524D01*
X12372191Y-31151286D02*
X12372191Y-31973762D01*
X12420572Y-32070524D01*
X12468953Y-32118905D01*
X12565714Y-32167286D01*
X12710857Y-32167286D01*
X12807619Y-32118905D01*
X12372191Y-31780238D02*
X12468953Y-31828619D01*
X12662476Y-31828619D01*
X12759238Y-31780238D01*
X12807619Y-31731857D01*
X12856000Y-31635095D01*
X12856000Y-31344810D01*
X12807619Y-31248048D01*
X12759238Y-31199667D01*
X12662476Y-31151286D01*
X12468953Y-31151286D01*
X12372191Y-31199667D01*
X11888381Y-31151286D02*
X11888381Y-32167286D01*
X11888381Y-31199667D02*
X11791619Y-31151286D01*
X11598096Y-31151286D01*
X11501334Y-31199667D01*
X11452953Y-31248048D01*
X11404572Y-31344810D01*
X11404572Y-31635095D01*
X11452953Y-31731857D01*
X11501334Y-31780238D01*
X11598096Y-31828619D01*
X11791619Y-31828619D01*
X11888381Y-31780238D01*
X10824000Y-31828619D02*
X10920762Y-31780238D01*
X10969143Y-31683476D01*
X10969143Y-30812619D01*
X10436953Y-31731857D02*
X10388572Y-31780238D01*
X10436953Y-31828619D01*
X10485334Y-31780238D01*
X10436953Y-31731857D01*
X10436953Y-31828619D01*
X9953143Y-31828619D02*
X9953143Y-30812619D01*
X9517715Y-31828619D02*
X9517715Y-31296429D01*
X9566096Y-31199667D01*
X9662858Y-31151286D01*
X9808000Y-31151286D01*
X9904762Y-31199667D01*
X9953143Y-31248048D01*
X9179048Y-31151286D02*
X8792000Y-31151286D01*
X9033905Y-30812619D02*
X9033905Y-31683476D01*
X8985524Y-31780238D01*
X8888762Y-31828619D01*
X8792000Y-31828619D01*
X8453334Y-31828619D02*
X8453334Y-31151286D01*
X8453334Y-31248048D02*
X8404953Y-31199667D01*
X8308191Y-31151286D01*
X8163049Y-31151286D01*
X8066287Y-31199667D01*
X8017906Y-31296429D01*
X8017906Y-31828619D01*
X8017906Y-31296429D02*
X7969525Y-31199667D01*
X7872763Y-31151286D01*
X7727620Y-31151286D01*
X7630858Y-31199667D01*
X7582477Y-31296429D01*
X7582477Y-31828619D01*
X6953524Y-31828619D02*
X7050286Y-31780238D01*
X7098667Y-31683476D01*
X7098667Y-30812619D01*
D12*
G36*
X21444186Y-20836931D02*
X21360365Y-21281555D01*
X21051080Y-21409053D01*
X20741794Y-21536551D01*
X20370754Y-21284246D01*
X20266843Y-21213996D01*
X20172913Y-21151272D01*
X20093348Y-21098938D01*
X20032530Y-21059857D01*
X19994843Y-21036893D01*
X19984579Y-21031942D01*
X19966090Y-21044676D01*
X19926580Y-21079882D01*
X19870478Y-21133062D01*
X19802213Y-21199718D01*
X19726214Y-21275354D01*
X19646908Y-21355472D01*
X19568725Y-21435574D01*
X19496093Y-21511164D01*
X19433441Y-21577745D01*
X19385197Y-21630818D01*
X19355790Y-21665887D01*
X19348759Y-21677623D01*
X19358877Y-21699260D01*
X19387241Y-21746662D01*
X19430871Y-21815193D01*
X19486782Y-21900215D01*
X19551994Y-21997093D01*
X19589781Y-22052350D01*
X19658657Y-22153248D01*
X19719860Y-22244299D01*
X19770422Y-22320970D01*
X19807372Y-22378728D01*
X19827742Y-22413043D01*
X19830803Y-22420254D01*
X19823864Y-22440748D01*
X19804949Y-22488513D01*
X19776913Y-22556832D01*
X19742609Y-22638989D01*
X19704891Y-22728270D01*
X19666613Y-22817958D01*
X19630630Y-22901338D01*
X19599794Y-22971694D01*
X19576961Y-23022310D01*
X19564983Y-23046471D01*
X19564276Y-23047422D01*
X19545469Y-23052036D01*
X19495382Y-23062328D01*
X19419207Y-23077287D01*
X19322135Y-23095901D01*
X19209357Y-23117159D01*
X19143558Y-23129418D01*
X19023050Y-23152362D01*
X18914203Y-23174195D01*
X18822524Y-23193722D01*
X18753519Y-23209748D01*
X18712696Y-23221079D01*
X18704489Y-23224674D01*
X18696452Y-23249006D01*
X18689967Y-23303959D01*
X18685030Y-23383108D01*
X18681636Y-23480026D01*
X18679782Y-23588287D01*
X18679462Y-23701465D01*
X18680673Y-23813135D01*
X18683410Y-23916868D01*
X18687669Y-24006241D01*
X18693445Y-24074826D01*
X18700733Y-24116197D01*
X18705105Y-24124810D01*
X18731236Y-24135133D01*
X18786607Y-24149892D01*
X18863893Y-24167352D01*
X18955770Y-24185780D01*
X18987842Y-24191741D01*
X19142476Y-24220066D01*
X19264625Y-24242876D01*
X19358327Y-24261080D01*
X19427616Y-24275583D01*
X19476529Y-24287292D01*
X19509103Y-24297115D01*
X19529372Y-24305956D01*
X19541374Y-24314724D01*
X19543053Y-24316457D01*
X19559816Y-24344371D01*
X19585386Y-24398695D01*
X19617212Y-24472777D01*
X19652740Y-24559965D01*
X19689417Y-24653608D01*
X19724689Y-24747052D01*
X19756004Y-24833647D01*
X19780807Y-24906740D01*
X19796546Y-24959678D01*
X19800668Y-24985811D01*
X19800324Y-24986726D01*
X19786359Y-25008086D01*
X19754678Y-25055084D01*
X19708609Y-25122827D01*
X19651482Y-25206423D01*
X19586627Y-25300982D01*
X19568157Y-25327854D01*
X19502301Y-25425275D01*
X19444350Y-25514163D01*
X19397462Y-25589412D01*
X19364793Y-25645920D01*
X19349500Y-25678581D01*
X19348759Y-25682593D01*
X19361608Y-25703684D01*
X19397112Y-25745464D01*
X19450707Y-25803445D01*
X19517829Y-25873135D01*
X19593913Y-25950045D01*
X19674396Y-26029683D01*
X19754713Y-26107561D01*
X19830301Y-26179186D01*
X19896595Y-26240070D01*
X19949031Y-26285721D01*
X19983045Y-26311650D01*
X19992455Y-26315883D01*
X20014357Y-26305912D01*
X20059200Y-26279020D01*
X20119679Y-26239736D01*
X20166211Y-26208117D01*
X20250525Y-26150098D01*
X20350374Y-26081784D01*
X20450527Y-26013579D01*
X20504373Y-25977075D01*
X20686629Y-25853800D01*
X20839619Y-25936520D01*
X20909318Y-25972759D01*
X20968586Y-26000926D01*
X21008689Y-26016991D01*
X21018897Y-26019226D01*
X21031171Y-26002722D01*
X21055387Y-25956082D01*
X21089737Y-25883609D01*
X21132412Y-25789606D01*
X21181606Y-25678374D01*
X21235510Y-25554215D01*
X21292316Y-25421432D01*
X21350218Y-25284327D01*
X21407407Y-25147202D01*
X21462076Y-25014358D01*
X21512416Y-24890098D01*
X21556620Y-24778725D01*
X21592881Y-24684539D01*
X21619391Y-24611844D01*
X21634342Y-24564941D01*
X21636746Y-24548833D01*
X21617689Y-24528286D01*
X21575964Y-24494933D01*
X21520294Y-24455702D01*
X21515622Y-24452599D01*
X21371736Y-24337423D01*
X21255717Y-24203053D01*
X21168570Y-24053784D01*
X21111301Y-23893913D01*
X21084914Y-23727737D01*
X21090415Y-23559552D01*
X21128810Y-23393655D01*
X21201105Y-23234342D01*
X21222374Y-23199487D01*
X21333004Y-23058737D01*
X21463698Y-22945714D01*
X21609936Y-22861003D01*
X21767192Y-22805194D01*
X21930943Y-22778874D01*
X22096667Y-22782630D01*
X22259838Y-22817050D01*
X22415935Y-22882723D01*
X22560433Y-22980235D01*
X22605131Y-23019813D01*
X22718888Y-23143703D01*
X22801782Y-23274124D01*
X22858644Y-23420315D01*
X22890313Y-23565088D01*
X22898131Y-23727860D01*
X22872062Y-23891440D01*
X22814755Y-24050298D01*
X22728856Y-24198906D01*
X22617014Y-24331735D01*
X22481877Y-24443256D01*
X22464117Y-24455011D01*
X22407850Y-24493508D01*
X22365077Y-24526863D01*
X22344628Y-24548160D01*
X22344331Y-24548833D01*
X22348721Y-24571871D01*
X22366124Y-24624157D01*
X22394732Y-24701390D01*
X22432735Y-24799268D01*
X22478326Y-24913491D01*
X22529697Y-25039758D01*
X22585038Y-25173767D01*
X22642542Y-25311218D01*
X22700399Y-25447808D01*
X22756802Y-25579237D01*
X22809942Y-25701205D01*
X22858010Y-25809409D01*
X22899199Y-25899549D01*
X22931699Y-25967323D01*
X22953703Y-26008430D01*
X22962564Y-26019226D01*
X22989640Y-26010819D01*
X23040303Y-25988272D01*
X23105817Y-25955613D01*
X23141841Y-25936520D01*
X23294832Y-25853800D01*
X23477088Y-25977075D01*
X23570125Y-26040228D01*
X23671985Y-26109727D01*
X23767438Y-26175165D01*
X23815250Y-26208117D01*
X23882495Y-26253273D01*
X23939436Y-26289057D01*
X23978646Y-26310938D01*
X23991381Y-26315563D01*
X24009917Y-26303085D01*
X24050941Y-26268252D01*
X24110475Y-26214678D01*
X24184542Y-26145983D01*
X24269165Y-26065781D01*
X24322685Y-26014286D01*
X24416319Y-25922286D01*
X24497241Y-25839999D01*
X24562177Y-25770945D01*
X24607858Y-25718644D01*
X24631011Y-25686616D01*
X24633232Y-25680116D01*
X24622924Y-25655394D01*
X24594439Y-25605405D01*
X24550937Y-25535212D01*
X24495577Y-25449875D01*
X24431520Y-25354456D01*
X24413303Y-25327854D01*
X24346927Y-25231167D01*
X24287378Y-25144117D01*
X24237984Y-25071595D01*
X24202075Y-25018493D01*
X24182981Y-24989703D01*
X24181136Y-24986726D01*
X24183895Y-24963782D01*
X24198538Y-24913336D01*
X24222513Y-24842041D01*
X24253266Y-24756547D01*
X24288244Y-24663507D01*
X24324893Y-24569574D01*
X24360661Y-24481399D01*
X24392994Y-24405634D01*
X24419338Y-24348931D01*
X24437142Y-24317943D01*
X24438407Y-24316457D01*
X24449294Y-24307601D01*
X24467682Y-24298843D01*
X24497606Y-24289277D01*
X24543103Y-24277996D01*
X24608209Y-24264093D01*
X24696961Y-24246663D01*
X24813393Y-24224798D01*
X24961542Y-24197591D01*
X24993618Y-24191741D01*
X25088686Y-24173374D01*
X25171565Y-24155405D01*
X25234930Y-24139569D01*
X25271458Y-24127600D01*
X25276356Y-24124810D01*
X25284427Y-24100072D01*
X25290987Y-24044790D01*
X25296033Y-23965389D01*
X25299559Y-23868296D01*
X25301561Y-23759938D01*
X25302036Y-23646740D01*
X25300977Y-23535128D01*
X25298382Y-23431529D01*
X25294246Y-23342368D01*
X25288563Y-23274072D01*
X25281331Y-23233066D01*
X25276971Y-23224674D01*
X25252698Y-23216208D01*
X25197426Y-23202435D01*
X25116662Y-23184550D01*
X25015912Y-23163748D01*
X24900683Y-23141223D01*
X24837902Y-23129418D01*
X24718787Y-23107151D01*
X24612565Y-23086979D01*
X24524427Y-23069915D01*
X24459566Y-23056969D01*
X24423174Y-23049155D01*
X24417184Y-23047422D01*
X24407061Y-23027890D01*
X24385662Y-22980843D01*
X24355839Y-22913003D01*
X24320445Y-22831091D01*
X24282332Y-22741828D01*
X24244353Y-22651935D01*
X24209360Y-22568135D01*
X24180206Y-22497147D01*
X24159743Y-22445694D01*
X24150823Y-22420497D01*
X24150657Y-22419396D01*
X24160769Y-22399519D01*
X24189117Y-22353777D01*
X24232723Y-22286717D01*
X24288606Y-22202884D01*
X24353787Y-22106826D01*
X24391679Y-22051650D01*
X24460725Y-21950481D01*
X24522050Y-21858630D01*
X24572663Y-21780744D01*
X24609571Y-21721469D01*
X24629782Y-21685451D01*
X24632701Y-21677377D01*
X24620153Y-21658584D01*
X24585463Y-21618457D01*
X24533063Y-21561493D01*
X24467384Y-21492185D01*
X24392856Y-21415031D01*
X24313913Y-21334525D01*
X24234983Y-21255163D01*
X24160500Y-21181440D01*
X24094894Y-21117852D01*
X24042596Y-21068894D01*
X24008039Y-21039061D01*
X23996478Y-21031942D01*
X23977654Y-21041953D01*
X23932631Y-21070078D01*
X23865787Y-21113454D01*
X23781499Y-21169218D01*
X23684144Y-21234506D01*
X23610707Y-21284246D01*
X23239667Y-21536551D01*
X22621095Y-21281555D01*
X22537275Y-20836931D01*
X22453454Y-20392307D01*
X21528006Y-20392307D01*
X21444186Y-20836931D01*
X21444186Y-20836931D01*
G37*
X21444186Y-20836931D02*
X21360365Y-21281555D01*
X21051080Y-21409053D01*
X20741794Y-21536551D01*
X20370754Y-21284246D01*
X20266843Y-21213996D01*
X20172913Y-21151272D01*
X20093348Y-21098938D01*
X20032530Y-21059857D01*
X19994843Y-21036893D01*
X19984579Y-21031942D01*
X19966090Y-21044676D01*
X19926580Y-21079882D01*
X19870478Y-21133062D01*
X19802213Y-21199718D01*
X19726214Y-21275354D01*
X19646908Y-21355472D01*
X19568725Y-21435574D01*
X19496093Y-21511164D01*
X19433441Y-21577745D01*
X19385197Y-21630818D01*
X19355790Y-21665887D01*
X19348759Y-21677623D01*
X19358877Y-21699260D01*
X19387241Y-21746662D01*
X19430871Y-21815193D01*
X19486782Y-21900215D01*
X19551994Y-21997093D01*
X19589781Y-22052350D01*
X19658657Y-22153248D01*
X19719860Y-22244299D01*
X19770422Y-22320970D01*
X19807372Y-22378728D01*
X19827742Y-22413043D01*
X19830803Y-22420254D01*
X19823864Y-22440748D01*
X19804949Y-22488513D01*
X19776913Y-22556832D01*
X19742609Y-22638989D01*
X19704891Y-22728270D01*
X19666613Y-22817958D01*
X19630630Y-22901338D01*
X19599794Y-22971694D01*
X19576961Y-23022310D01*
X19564983Y-23046471D01*
X19564276Y-23047422D01*
X19545469Y-23052036D01*
X19495382Y-23062328D01*
X19419207Y-23077287D01*
X19322135Y-23095901D01*
X19209357Y-23117159D01*
X19143558Y-23129418D01*
X19023050Y-23152362D01*
X18914203Y-23174195D01*
X18822524Y-23193722D01*
X18753519Y-23209748D01*
X18712696Y-23221079D01*
X18704489Y-23224674D01*
X18696452Y-23249006D01*
X18689967Y-23303959D01*
X18685030Y-23383108D01*
X18681636Y-23480026D01*
X18679782Y-23588287D01*
X18679462Y-23701465D01*
X18680673Y-23813135D01*
X18683410Y-23916868D01*
X18687669Y-24006241D01*
X18693445Y-24074826D01*
X18700733Y-24116197D01*
X18705105Y-24124810D01*
X18731236Y-24135133D01*
X18786607Y-24149892D01*
X18863893Y-24167352D01*
X18955770Y-24185780D01*
X18987842Y-24191741D01*
X19142476Y-24220066D01*
X19264625Y-24242876D01*
X19358327Y-24261080D01*
X19427616Y-24275583D01*
X19476529Y-24287292D01*
X19509103Y-24297115D01*
X19529372Y-24305956D01*
X19541374Y-24314724D01*
X19543053Y-24316457D01*
X19559816Y-24344371D01*
X19585386Y-24398695D01*
X19617212Y-24472777D01*
X19652740Y-24559965D01*
X19689417Y-24653608D01*
X19724689Y-24747052D01*
X19756004Y-24833647D01*
X19780807Y-24906740D01*
X19796546Y-24959678D01*
X19800668Y-24985811D01*
X19800324Y-24986726D01*
X19786359Y-25008086D01*
X19754678Y-25055084D01*
X19708609Y-25122827D01*
X19651482Y-25206423D01*
X19586627Y-25300982D01*
X19568157Y-25327854D01*
X19502301Y-25425275D01*
X19444350Y-25514163D01*
X19397462Y-25589412D01*
X19364793Y-25645920D01*
X19349500Y-25678581D01*
X19348759Y-25682593D01*
X19361608Y-25703684D01*
X19397112Y-25745464D01*
X19450707Y-25803445D01*
X19517829Y-25873135D01*
X19593913Y-25950045D01*
X19674396Y-26029683D01*
X19754713Y-26107561D01*
X19830301Y-26179186D01*
X19896595Y-26240070D01*
X19949031Y-26285721D01*
X19983045Y-26311650D01*
X19992455Y-26315883D01*
X20014357Y-26305912D01*
X20059200Y-26279020D01*
X20119679Y-26239736D01*
X20166211Y-26208117D01*
X20250525Y-26150098D01*
X20350374Y-26081784D01*
X20450527Y-26013579D01*
X20504373Y-25977075D01*
X20686629Y-25853800D01*
X20839619Y-25936520D01*
X20909318Y-25972759D01*
X20968586Y-26000926D01*
X21008689Y-26016991D01*
X21018897Y-26019226D01*
X21031171Y-26002722D01*
X21055387Y-25956082D01*
X21089737Y-25883609D01*
X21132412Y-25789606D01*
X21181606Y-25678374D01*
X21235510Y-25554215D01*
X21292316Y-25421432D01*
X21350218Y-25284327D01*
X21407407Y-25147202D01*
X21462076Y-25014358D01*
X21512416Y-24890098D01*
X21556620Y-24778725D01*
X21592881Y-24684539D01*
X21619391Y-24611844D01*
X21634342Y-24564941D01*
X21636746Y-24548833D01*
X21617689Y-24528286D01*
X21575964Y-24494933D01*
X21520294Y-24455702D01*
X21515622Y-24452599D01*
X21371736Y-24337423D01*
X21255717Y-24203053D01*
X21168570Y-24053784D01*
X21111301Y-23893913D01*
X21084914Y-23727737D01*
X21090415Y-23559552D01*
X21128810Y-23393655D01*
X21201105Y-23234342D01*
X21222374Y-23199487D01*
X21333004Y-23058737D01*
X21463698Y-22945714D01*
X21609936Y-22861003D01*
X21767192Y-22805194D01*
X21930943Y-22778874D01*
X22096667Y-22782630D01*
X22259838Y-22817050D01*
X22415935Y-22882723D01*
X22560433Y-22980235D01*
X22605131Y-23019813D01*
X22718888Y-23143703D01*
X22801782Y-23274124D01*
X22858644Y-23420315D01*
X22890313Y-23565088D01*
X22898131Y-23727860D01*
X22872062Y-23891440D01*
X22814755Y-24050298D01*
X22728856Y-24198906D01*
X22617014Y-24331735D01*
X22481877Y-24443256D01*
X22464117Y-24455011D01*
X22407850Y-24493508D01*
X22365077Y-24526863D01*
X22344628Y-24548160D01*
X22344331Y-24548833D01*
X22348721Y-24571871D01*
X22366124Y-24624157D01*
X22394732Y-24701390D01*
X22432735Y-24799268D01*
X22478326Y-24913491D01*
X22529697Y-25039758D01*
X22585038Y-25173767D01*
X22642542Y-25311218D01*
X22700399Y-25447808D01*
X22756802Y-25579237D01*
X22809942Y-25701205D01*
X22858010Y-25809409D01*
X22899199Y-25899549D01*
X22931699Y-25967323D01*
X22953703Y-26008430D01*
X22962564Y-26019226D01*
X22989640Y-26010819D01*
X23040303Y-25988272D01*
X23105817Y-25955613D01*
X23141841Y-25936520D01*
X23294832Y-25853800D01*
X23477088Y-25977075D01*
X23570125Y-26040228D01*
X23671985Y-26109727D01*
X23767438Y-26175165D01*
X23815250Y-26208117D01*
X23882495Y-26253273D01*
X23939436Y-26289057D01*
X23978646Y-26310938D01*
X23991381Y-26315563D01*
X24009917Y-26303085D01*
X24050941Y-26268252D01*
X24110475Y-26214678D01*
X24184542Y-26145983D01*
X24269165Y-26065781D01*
X24322685Y-26014286D01*
X24416319Y-25922286D01*
X24497241Y-25839999D01*
X24562177Y-25770945D01*
X24607858Y-25718644D01*
X24631011Y-25686616D01*
X24633232Y-25680116D01*
X24622924Y-25655394D01*
X24594439Y-25605405D01*
X24550937Y-25535212D01*
X24495577Y-25449875D01*
X24431520Y-25354456D01*
X24413303Y-25327854D01*
X24346927Y-25231167D01*
X24287378Y-25144117D01*
X24237984Y-25071595D01*
X24202075Y-25018493D01*
X24182981Y-24989703D01*
X24181136Y-24986726D01*
X24183895Y-24963782D01*
X24198538Y-24913336D01*
X24222513Y-24842041D01*
X24253266Y-24756547D01*
X24288244Y-24663507D01*
X24324893Y-24569574D01*
X24360661Y-24481399D01*
X24392994Y-24405634D01*
X24419338Y-24348931D01*
X24437142Y-24317943D01*
X24438407Y-24316457D01*
X24449294Y-24307601D01*
X24467682Y-24298843D01*
X24497606Y-24289277D01*
X24543103Y-24277996D01*
X24608209Y-24264093D01*
X24696961Y-24246663D01*
X24813393Y-24224798D01*
X24961542Y-24197591D01*
X24993618Y-24191741D01*
X25088686Y-24173374D01*
X25171565Y-24155405D01*
X25234930Y-24139569D01*
X25271458Y-24127600D01*
X25276356Y-24124810D01*
X25284427Y-24100072D01*
X25290987Y-24044790D01*
X25296033Y-23965389D01*
X25299559Y-23868296D01*
X25301561Y-23759938D01*
X25302036Y-23646740D01*
X25300977Y-23535128D01*
X25298382Y-23431529D01*
X25294246Y-23342368D01*
X25288563Y-23274072D01*
X25281331Y-23233066D01*
X25276971Y-23224674D01*
X25252698Y-23216208D01*
X25197426Y-23202435D01*
X25116662Y-23184550D01*
X25015912Y-23163748D01*
X24900683Y-23141223D01*
X24837902Y-23129418D01*
X24718787Y-23107151D01*
X24612565Y-23086979D01*
X24524427Y-23069915D01*
X24459566Y-23056969D01*
X24423174Y-23049155D01*
X24417184Y-23047422D01*
X24407061Y-23027890D01*
X24385662Y-22980843D01*
X24355839Y-22913003D01*
X24320445Y-22831091D01*
X24282332Y-22741828D01*
X24244353Y-22651935D01*
X24209360Y-22568135D01*
X24180206Y-22497147D01*
X24159743Y-22445694D01*
X24150823Y-22420497D01*
X24150657Y-22419396D01*
X24160769Y-22399519D01*
X24189117Y-22353777D01*
X24232723Y-22286717D01*
X24288606Y-22202884D01*
X24353787Y-22106826D01*
X24391679Y-22051650D01*
X24460725Y-21950481D01*
X24522050Y-21858630D01*
X24572663Y-21780744D01*
X24609571Y-21721469D01*
X24629782Y-21685451D01*
X24632701Y-21677377D01*
X24620153Y-21658584D01*
X24585463Y-21618457D01*
X24533063Y-21561493D01*
X24467384Y-21492185D01*
X24392856Y-21415031D01*
X24313913Y-21334525D01*
X24234983Y-21255163D01*
X24160500Y-21181440D01*
X24094894Y-21117852D01*
X24042596Y-21068894D01*
X24008039Y-21039061D01*
X23996478Y-21031942D01*
X23977654Y-21041953D01*
X23932631Y-21070078D01*
X23865787Y-21113454D01*
X23781499Y-21169218D01*
X23684144Y-21234506D01*
X23610707Y-21284246D01*
X23239667Y-21536551D01*
X22621095Y-21281555D01*
X22537275Y-20836931D01*
X22453454Y-20392307D01*
X21528006Y-20392307D01*
X21444186Y-20836931D01*
M02*
