G04 #@! TF.FileFunction,Legend,Top*
%FSLAX46Y46*%
G04 Gerber Fmt 4.6, Leading zero omitted, Abs format (unit mm)*
G04 Created by KiCad (PCBNEW 4.0.7-e2-6376~61~ubuntu18.04.1) date Fri Dec  6 13:26:14 2019*
%MOMM*%
%LPD*%
G01*
G04 APERTURE LIST*
%ADD10C,0.100000*%
%ADD11C,0.152400*%
%ADD12C,0.304800*%
%ADD13C,0.010000*%
%ADD14C,0.120000*%
%ADD15C,0.150000*%
G04 APERTURE END LIST*
D10*
D11*
X37654895Y-44118590D02*
X37654895Y-43654133D01*
X38467695Y-43886362D02*
X37654895Y-43886362D01*
X38467695Y-43383200D02*
X37654895Y-43383200D01*
X38041943Y-43383200D02*
X38041943Y-42918743D01*
X38467695Y-42918743D02*
X37654895Y-42918743D01*
X37654895Y-42531695D02*
X38312876Y-42531695D01*
X38390286Y-42492990D01*
X38428990Y-42454286D01*
X38467695Y-42376876D01*
X38467695Y-42222057D01*
X38428990Y-42144648D01*
X38390286Y-42105943D01*
X38312876Y-42067238D01*
X37654895Y-42067238D01*
X38467695Y-41680190D02*
X37654895Y-41680190D01*
X38235467Y-41409257D01*
X37654895Y-41138324D01*
X38467695Y-41138324D01*
X38041943Y-40480343D02*
X38080648Y-40364229D01*
X38119352Y-40325524D01*
X38196762Y-40286819D01*
X38312876Y-40286819D01*
X38390286Y-40325524D01*
X38428990Y-40364229D01*
X38467695Y-40441638D01*
X38467695Y-40751276D01*
X37654895Y-40751276D01*
X37654895Y-40480343D01*
X37693600Y-40402933D01*
X37732305Y-40364229D01*
X37809714Y-40325524D01*
X37887124Y-40325524D01*
X37964533Y-40364229D01*
X38003238Y-40402933D01*
X38041943Y-40480343D01*
X38041943Y-40751276D01*
X29831695Y-43750895D02*
X29018895Y-43750895D01*
X29831695Y-43363847D02*
X29018895Y-43363847D01*
X29831695Y-42899390D01*
X29018895Y-42899390D01*
X29831695Y-42512342D02*
X29018895Y-42512342D01*
X29018895Y-42318818D01*
X29057600Y-42202704D01*
X29135010Y-42125295D01*
X29212419Y-42086590D01*
X29367238Y-42047885D01*
X29483352Y-42047885D01*
X29638171Y-42086590D01*
X29715581Y-42125295D01*
X29792990Y-42202704D01*
X29831695Y-42318818D01*
X29831695Y-42512342D01*
X29405943Y-41699542D02*
X29405943Y-41428609D01*
X29831695Y-41312495D02*
X29831695Y-41699542D01*
X29018895Y-41699542D01*
X29018895Y-41312495D01*
X29018895Y-41041562D02*
X29831695Y-40499695D01*
X29018895Y-40499695D02*
X29831695Y-41041562D01*
X21195695Y-44137942D02*
X20382895Y-44137942D01*
X20963467Y-43867009D01*
X20382895Y-43596076D01*
X21195695Y-43596076D01*
X21195695Y-43209028D02*
X20382895Y-43209028D01*
X21195695Y-42821980D02*
X20382895Y-42821980D01*
X20382895Y-42628456D01*
X20421600Y-42512342D01*
X20499010Y-42434933D01*
X20576419Y-42396228D01*
X20731238Y-42357523D01*
X20847352Y-42357523D01*
X21002171Y-42396228D01*
X21079581Y-42434933D01*
X21156990Y-42512342D01*
X21195695Y-42628456D01*
X21195695Y-42821980D01*
X21195695Y-42009180D02*
X20382895Y-42009180D01*
X20382895Y-41815656D01*
X20421600Y-41699542D01*
X20499010Y-41622133D01*
X20576419Y-41583428D01*
X20731238Y-41544723D01*
X20847352Y-41544723D01*
X21002171Y-41583428D01*
X21079581Y-41622133D01*
X21156990Y-41699542D01*
X21195695Y-41815656D01*
X21195695Y-42009180D01*
X21195695Y-40809333D02*
X21195695Y-41196380D01*
X20382895Y-41196380D01*
X20769943Y-40538399D02*
X20769943Y-40267466D01*
X21195695Y-40151352D02*
X21195695Y-40538399D01*
X20382895Y-40538399D01*
X20382895Y-40151352D01*
X12559695Y-42938095D02*
X12172648Y-43209028D01*
X12559695Y-43402552D02*
X11746895Y-43402552D01*
X11746895Y-43092914D01*
X11785600Y-43015505D01*
X11824305Y-42976800D01*
X11901714Y-42938095D01*
X12017829Y-42938095D01*
X12095238Y-42976800D01*
X12133943Y-43015505D01*
X12172648Y-43092914D01*
X12172648Y-43402552D01*
X12559695Y-42589752D02*
X11746895Y-42589752D01*
X12559695Y-42202704D02*
X11746895Y-42202704D01*
X12559695Y-41738247D01*
X11746895Y-41738247D01*
X11785600Y-40925447D02*
X11746895Y-41002856D01*
X11746895Y-41118971D01*
X11785600Y-41235085D01*
X11863010Y-41312494D01*
X11940419Y-41351199D01*
X12095238Y-41389904D01*
X12211352Y-41389904D01*
X12366171Y-41351199D01*
X12443581Y-41312494D01*
X12520990Y-41235085D01*
X12559695Y-41118971D01*
X12559695Y-41041561D01*
X12520990Y-40925447D01*
X12482286Y-40886742D01*
X12211352Y-40886742D01*
X12211352Y-41041561D01*
X3923695Y-43750895D02*
X3110895Y-43750895D01*
X3110895Y-43441257D01*
X3149600Y-43363848D01*
X3188305Y-43325143D01*
X3265714Y-43286438D01*
X3381829Y-43286438D01*
X3459238Y-43325143D01*
X3497943Y-43363848D01*
X3536648Y-43441257D01*
X3536648Y-43750895D01*
X3923695Y-42938095D02*
X3110895Y-42938095D01*
X3923695Y-42551047D02*
X3110895Y-42551047D01*
X3923695Y-42086590D01*
X3110895Y-42086590D01*
X3923695Y-41699542D02*
X3110895Y-41699542D01*
X3923695Y-41235085D02*
X3459238Y-41583428D01*
X3110895Y-41235085D02*
X3575352Y-41699542D01*
X3536648Y-40731923D02*
X3923695Y-40731923D01*
X3110895Y-41002856D02*
X3536648Y-40731923D01*
X3110895Y-40460990D01*
X42519600Y-42783276D02*
X42480895Y-42860685D01*
X42480895Y-42976800D01*
X42519600Y-43092914D01*
X42597010Y-43170323D01*
X42674419Y-43209028D01*
X42829238Y-43247733D01*
X42945352Y-43247733D01*
X43100171Y-43209028D01*
X43177581Y-43170323D01*
X43254990Y-43092914D01*
X43293695Y-42976800D01*
X43293695Y-42899390D01*
X43254990Y-42783276D01*
X43216286Y-42744571D01*
X42945352Y-42744571D01*
X42945352Y-42899390D01*
X43293695Y-42396228D02*
X42480895Y-42396228D01*
X43293695Y-41931771D01*
X42480895Y-41931771D01*
X43293695Y-41544723D02*
X42480895Y-41544723D01*
X42480895Y-41351199D01*
X42519600Y-41235085D01*
X42597010Y-41157676D01*
X42674419Y-41118971D01*
X42829238Y-41080266D01*
X42945352Y-41080266D01*
X43100171Y-41118971D01*
X43177581Y-41157676D01*
X43254990Y-41235085D01*
X43293695Y-41351199D01*
X43293695Y-41544723D01*
X33883600Y-42783276D02*
X33844895Y-42860685D01*
X33844895Y-42976800D01*
X33883600Y-43092914D01*
X33961010Y-43170323D01*
X34038419Y-43209028D01*
X34193238Y-43247733D01*
X34309352Y-43247733D01*
X34464171Y-43209028D01*
X34541581Y-43170323D01*
X34618990Y-43092914D01*
X34657695Y-42976800D01*
X34657695Y-42899390D01*
X34618990Y-42783276D01*
X34580286Y-42744571D01*
X34309352Y-42744571D01*
X34309352Y-42899390D01*
X34657695Y-42396228D02*
X33844895Y-42396228D01*
X34657695Y-41931771D01*
X33844895Y-41931771D01*
X34657695Y-41544723D02*
X33844895Y-41544723D01*
X33844895Y-41351199D01*
X33883600Y-41235085D01*
X33961010Y-41157676D01*
X34038419Y-41118971D01*
X34193238Y-41080266D01*
X34309352Y-41080266D01*
X34464171Y-41118971D01*
X34541581Y-41157676D01*
X34618990Y-41235085D01*
X34657695Y-41351199D01*
X34657695Y-41544723D01*
X25247600Y-42783276D02*
X25208895Y-42860685D01*
X25208895Y-42976800D01*
X25247600Y-43092914D01*
X25325010Y-43170323D01*
X25402419Y-43209028D01*
X25557238Y-43247733D01*
X25673352Y-43247733D01*
X25828171Y-43209028D01*
X25905581Y-43170323D01*
X25982990Y-43092914D01*
X26021695Y-42976800D01*
X26021695Y-42899390D01*
X25982990Y-42783276D01*
X25944286Y-42744571D01*
X25673352Y-42744571D01*
X25673352Y-42899390D01*
X26021695Y-42396228D02*
X25208895Y-42396228D01*
X26021695Y-41931771D01*
X25208895Y-41931771D01*
X26021695Y-41544723D02*
X25208895Y-41544723D01*
X25208895Y-41351199D01*
X25247600Y-41235085D01*
X25325010Y-41157676D01*
X25402419Y-41118971D01*
X25557238Y-41080266D01*
X25673352Y-41080266D01*
X25828171Y-41118971D01*
X25905581Y-41157676D01*
X25982990Y-41235085D01*
X26021695Y-41351199D01*
X26021695Y-41544723D01*
X16611600Y-42783276D02*
X16572895Y-42860685D01*
X16572895Y-42976800D01*
X16611600Y-43092914D01*
X16689010Y-43170323D01*
X16766419Y-43209028D01*
X16921238Y-43247733D01*
X17037352Y-43247733D01*
X17192171Y-43209028D01*
X17269581Y-43170323D01*
X17346990Y-43092914D01*
X17385695Y-42976800D01*
X17385695Y-42899390D01*
X17346990Y-42783276D01*
X17308286Y-42744571D01*
X17037352Y-42744571D01*
X17037352Y-42899390D01*
X17385695Y-42396228D02*
X16572895Y-42396228D01*
X17385695Y-41931771D01*
X16572895Y-41931771D01*
X17385695Y-41544723D02*
X16572895Y-41544723D01*
X16572895Y-41351199D01*
X16611600Y-41235085D01*
X16689010Y-41157676D01*
X16766419Y-41118971D01*
X16921238Y-41080266D01*
X17037352Y-41080266D01*
X17192171Y-41118971D01*
X17269581Y-41157676D01*
X17346990Y-41235085D01*
X17385695Y-41351199D01*
X17385695Y-41544723D01*
X7975600Y-42783276D02*
X7936895Y-42860685D01*
X7936895Y-42976800D01*
X7975600Y-43092914D01*
X8053010Y-43170323D01*
X8130419Y-43209028D01*
X8285238Y-43247733D01*
X8401352Y-43247733D01*
X8556171Y-43209028D01*
X8633581Y-43170323D01*
X8710990Y-43092914D01*
X8749695Y-42976800D01*
X8749695Y-42899390D01*
X8710990Y-42783276D01*
X8672286Y-42744571D01*
X8401352Y-42744571D01*
X8401352Y-42899390D01*
X8749695Y-42396228D02*
X7936895Y-42396228D01*
X8749695Y-41931771D01*
X7936895Y-41931771D01*
X8749695Y-41544723D02*
X7936895Y-41544723D01*
X7936895Y-41351199D01*
X7975600Y-41235085D01*
X8053010Y-41157676D01*
X8130419Y-41118971D01*
X8285238Y-41080266D01*
X8401352Y-41080266D01*
X8556171Y-41118971D01*
X8633581Y-41157676D01*
X8710990Y-41235085D01*
X8749695Y-41351199D01*
X8749695Y-41544723D01*
D12*
X9263714Y-24565429D02*
X9263714Y-23041429D01*
X9263714Y-23767143D02*
X10134571Y-23767143D01*
X10134571Y-24565429D02*
X10134571Y-23041429D01*
X10860285Y-24565429D02*
X10860285Y-23549429D01*
X10860285Y-23041429D02*
X10787714Y-23114000D01*
X10860285Y-23186571D01*
X10932857Y-23114000D01*
X10860285Y-23041429D01*
X10860285Y-23186571D01*
X12239142Y-23549429D02*
X12239142Y-24783143D01*
X12166571Y-24928286D01*
X12093999Y-25000857D01*
X11948856Y-25073429D01*
X11731142Y-25073429D01*
X11585999Y-25000857D01*
X12239142Y-24492857D02*
X12093999Y-24565429D01*
X11803713Y-24565429D01*
X11658571Y-24492857D01*
X11585999Y-24420286D01*
X11513428Y-24275143D01*
X11513428Y-23839714D01*
X11585999Y-23694571D01*
X11658571Y-23622000D01*
X11803713Y-23549429D01*
X12093999Y-23549429D01*
X12239142Y-23622000D01*
X12964856Y-24565429D02*
X12964856Y-23041429D01*
X13617999Y-24565429D02*
X13617999Y-23767143D01*
X13545428Y-23622000D01*
X13400285Y-23549429D01*
X13182570Y-23549429D01*
X13037428Y-23622000D01*
X12964856Y-23694571D01*
X15287142Y-23549429D02*
X15867713Y-23549429D01*
X15504856Y-23041429D02*
X15504856Y-24347714D01*
X15577428Y-24492857D01*
X15722570Y-24565429D01*
X15867713Y-24565429D01*
X16593427Y-24565429D02*
X16448285Y-24492857D01*
X16375713Y-24420286D01*
X16303142Y-24275143D01*
X16303142Y-23839714D01*
X16375713Y-23694571D01*
X16448285Y-23622000D01*
X16593427Y-23549429D01*
X16811142Y-23549429D01*
X16956285Y-23622000D01*
X17028856Y-23694571D01*
X17101427Y-23839714D01*
X17101427Y-24275143D01*
X17028856Y-24420286D01*
X16956285Y-24492857D01*
X16811142Y-24565429D01*
X16593427Y-24565429D01*
X17754570Y-24565429D02*
X17754570Y-23549429D01*
X17754570Y-23839714D02*
X17827142Y-23694571D01*
X17899713Y-23622000D01*
X18044856Y-23549429D01*
X18189999Y-23549429D01*
X19351142Y-23549429D02*
X19351142Y-25073429D01*
X19351142Y-24492857D02*
X19205999Y-24565429D01*
X18915713Y-24565429D01*
X18770571Y-24492857D01*
X18697999Y-24420286D01*
X18625428Y-24275143D01*
X18625428Y-23839714D01*
X18697999Y-23694571D01*
X18770571Y-23622000D01*
X18915713Y-23549429D01*
X19205999Y-23549429D01*
X19351142Y-23622000D01*
X20729999Y-23549429D02*
X20729999Y-24565429D01*
X20076856Y-23549429D02*
X20076856Y-24347714D01*
X20149428Y-24492857D01*
X20294570Y-24565429D01*
X20512285Y-24565429D01*
X20657428Y-24492857D01*
X20729999Y-24420286D01*
X22036285Y-24492857D02*
X21891142Y-24565429D01*
X21600856Y-24565429D01*
X21455713Y-24492857D01*
X21383142Y-24347714D01*
X21383142Y-23767143D01*
X21455713Y-23622000D01*
X21600856Y-23549429D01*
X21891142Y-23549429D01*
X22036285Y-23622000D01*
X22108856Y-23767143D01*
X22108856Y-23912286D01*
X21383142Y-24057429D01*
X23850571Y-24492857D02*
X23995714Y-24565429D01*
X24285999Y-24565429D01*
X24431142Y-24492857D01*
X24503714Y-24347714D01*
X24503714Y-24275143D01*
X24431142Y-24130000D01*
X24285999Y-24057429D01*
X24068285Y-24057429D01*
X23923142Y-23984857D01*
X23850571Y-23839714D01*
X23850571Y-23767143D01*
X23923142Y-23622000D01*
X24068285Y-23549429D01*
X24285999Y-23549429D01*
X24431142Y-23622000D01*
X25737428Y-24492857D02*
X25592285Y-24565429D01*
X25301999Y-24565429D01*
X25156856Y-24492857D01*
X25084285Y-24347714D01*
X25084285Y-23767143D01*
X25156856Y-23622000D01*
X25301999Y-23549429D01*
X25592285Y-23549429D01*
X25737428Y-23622000D01*
X25809999Y-23767143D01*
X25809999Y-23912286D01*
X25084285Y-24057429D01*
X26463142Y-24565429D02*
X26463142Y-23549429D01*
X26463142Y-23839714D02*
X26535714Y-23694571D01*
X26608285Y-23622000D01*
X26753428Y-23549429D01*
X26898571Y-23549429D01*
X27261428Y-23549429D02*
X27624285Y-24565429D01*
X27987143Y-23549429D01*
X28785428Y-24565429D02*
X28640286Y-24492857D01*
X28567714Y-24420286D01*
X28495143Y-24275143D01*
X28495143Y-23839714D01*
X28567714Y-23694571D01*
X28640286Y-23622000D01*
X28785428Y-23549429D01*
X29003143Y-23549429D01*
X29148286Y-23622000D01*
X29220857Y-23694571D01*
X29293428Y-23839714D01*
X29293428Y-24275143D01*
X29220857Y-24420286D01*
X29148286Y-24492857D01*
X29003143Y-24565429D01*
X28785428Y-24565429D01*
X31760857Y-24565429D02*
X31760857Y-23767143D01*
X31688286Y-23622000D01*
X31543143Y-23549429D01*
X31252857Y-23549429D01*
X31107714Y-23622000D01*
X31760857Y-24492857D02*
X31615714Y-24565429D01*
X31252857Y-24565429D01*
X31107714Y-24492857D01*
X31035143Y-24347714D01*
X31035143Y-24202571D01*
X31107714Y-24057429D01*
X31252857Y-23984857D01*
X31615714Y-23984857D01*
X31760857Y-23912286D01*
X32486571Y-24565429D02*
X32486571Y-23549429D01*
X32486571Y-23839714D02*
X32559143Y-23694571D01*
X32631714Y-23622000D01*
X32776857Y-23549429D01*
X32922000Y-23549429D01*
X33430000Y-24565429D02*
X33430000Y-23549429D01*
X33430000Y-23694571D02*
X33502572Y-23622000D01*
X33647714Y-23549429D01*
X33865429Y-23549429D01*
X34010572Y-23622000D01*
X34083143Y-23767143D01*
X34083143Y-24565429D01*
X34083143Y-23767143D02*
X34155714Y-23622000D01*
X34300857Y-23549429D01*
X34518572Y-23549429D01*
X34663714Y-23622000D01*
X34736286Y-23767143D01*
X34736286Y-24565429D01*
D13*
G36*
X34241481Y-17441446D02*
X34283448Y-17520930D01*
X34347749Y-17558906D01*
X34405996Y-17589551D01*
X34431089Y-17623257D01*
X34431111Y-17624083D01*
X34453503Y-17681810D01*
X34507181Y-17706696D01*
X34568881Y-17690871D01*
X34606446Y-17674576D01*
X34643469Y-17683410D01*
X34694626Y-17723891D01*
X34738212Y-17766083D01*
X34797364Y-17829741D01*
X34833172Y-17877878D01*
X34838614Y-17895671D01*
X34852948Y-17920750D01*
X34902139Y-17964369D01*
X34941403Y-17993255D01*
X35026743Y-18069665D01*
X35095869Y-18162971D01*
X35139187Y-18256911D01*
X35147103Y-18335224D01*
X35146003Y-18340009D01*
X35159549Y-18399711D01*
X35224849Y-18470073D01*
X35299202Y-18521751D01*
X35368949Y-18537694D01*
X35422049Y-18533867D01*
X35493617Y-18530630D01*
X35546379Y-18551799D01*
X35604635Y-18607853D01*
X35611519Y-18615579D01*
X35668955Y-18673389D01*
X35714898Y-18707466D01*
X35726925Y-18711334D01*
X35756261Y-18730098D01*
X35757555Y-18737654D01*
X35780560Y-18767464D01*
X35806944Y-18780264D01*
X35856515Y-18813727D01*
X35909662Y-18872784D01*
X35912777Y-18877154D01*
X35964721Y-18944937D01*
X36035466Y-19029625D01*
X36078226Y-19078024D01*
X36151371Y-19147701D01*
X36199018Y-19167751D01*
X36220510Y-19138282D01*
X36215189Y-19059405D01*
X36214410Y-19055231D01*
X36207949Y-19004343D01*
X36222580Y-18999941D01*
X36246895Y-19018178D01*
X36287837Y-19079638D01*
X36286808Y-19147178D01*
X36266896Y-19178482D01*
X36254432Y-19221719D01*
X36255115Y-19301525D01*
X36260142Y-19346076D01*
X36283889Y-19445695D01*
X36320979Y-19490857D01*
X36374769Y-19482617D01*
X36423354Y-19442759D01*
X36491333Y-19442759D01*
X36508333Y-19471359D01*
X36568023Y-19499315D01*
X36568058Y-19499328D01*
X36565232Y-19479954D01*
X36562918Y-19473334D01*
X36660666Y-19473334D01*
X36670992Y-19496564D01*
X36679481Y-19492148D01*
X36682859Y-19458655D01*
X36679481Y-19454519D01*
X36662703Y-19458393D01*
X36660666Y-19473334D01*
X36562918Y-19473334D01*
X36557983Y-19459222D01*
X36530499Y-19423590D01*
X36501142Y-19419881D01*
X36491333Y-19442759D01*
X36423354Y-19442759D01*
X36448618Y-19422034D01*
X36460924Y-19409250D01*
X36528994Y-19347608D01*
X36587603Y-19324621D01*
X36631876Y-19326119D01*
X36692868Y-19324193D01*
X36752470Y-19292573D01*
X36816359Y-19234856D01*
X36874909Y-19166143D01*
X36903892Y-19110528D01*
X36904180Y-19091604D01*
X36912270Y-19046016D01*
X36941470Y-19014659D01*
X36987055Y-18973900D01*
X37052351Y-18905219D01*
X37111323Y-18837498D01*
X37175957Y-18755405D01*
X37184712Y-18739556D01*
X37592000Y-18739556D01*
X37601629Y-18767044D01*
X37604445Y-18767778D01*
X37628540Y-18748002D01*
X37634333Y-18739556D01*
X37632095Y-18713549D01*
X37621887Y-18711334D01*
X37593148Y-18731820D01*
X37592000Y-18739556D01*
X37184712Y-18739556D01*
X37208827Y-18695902D01*
X37217442Y-18641038D01*
X37212895Y-18594684D01*
X37211391Y-18509358D01*
X37244669Y-18455065D01*
X37321686Y-18421023D01*
X37365617Y-18410888D01*
X37442625Y-18379185D01*
X37472764Y-18337446D01*
X37498931Y-18305164D01*
X37741821Y-18305164D01*
X37746549Y-18315134D01*
X37775466Y-18331919D01*
X37807375Y-18313144D01*
X37831862Y-18273404D01*
X37818973Y-18249685D01*
X37780118Y-18238800D01*
X37747449Y-18263574D01*
X37741821Y-18305164D01*
X37498931Y-18305164D01*
X37505002Y-18297675D01*
X37573251Y-18249561D01*
X37660129Y-18203077D01*
X37748258Y-18168196D01*
X37783903Y-18158900D01*
X37848367Y-18126973D01*
X37890713Y-18072418D01*
X37903019Y-18012797D01*
X37877365Y-17965672D01*
X37872533Y-17962401D01*
X37866095Y-17942216D01*
X38279758Y-17942216D01*
X38288915Y-17959508D01*
X38330611Y-17975551D01*
X38363344Y-17937415D01*
X38364206Y-17935222D01*
X38360148Y-17898763D01*
X38340668Y-17892889D01*
X38295031Y-17908683D01*
X38279758Y-17942216D01*
X37866095Y-17942216D01*
X37863442Y-17933902D01*
X37884648Y-17911346D01*
X37921477Y-17858773D01*
X37935725Y-17810354D01*
X37969256Y-17743353D01*
X38027967Y-17695988D01*
X38102828Y-17636737D01*
X38157942Y-17566856D01*
X38201301Y-17509029D01*
X38257917Y-17487864D01*
X38306544Y-17486794D01*
X38379165Y-17481833D01*
X38418041Y-17453196D01*
X38435396Y-17416238D01*
X38454907Y-17377188D01*
X38464532Y-17386444D01*
X38464660Y-17388502D01*
X38488150Y-17438519D01*
X38525919Y-17473644D01*
X38574663Y-17534614D01*
X38607165Y-17634382D01*
X38607740Y-17637471D01*
X38630531Y-17762103D01*
X38358210Y-18053966D01*
X38234876Y-18182801D01*
X38139690Y-18273706D01*
X38065473Y-18332779D01*
X38005050Y-18366113D01*
X37981247Y-18374126D01*
X37891457Y-18407505D01*
X37855265Y-18446335D01*
X37869864Y-18494000D01*
X37875627Y-18501359D01*
X37885389Y-18527003D01*
X37872598Y-18562997D01*
X37831810Y-18617434D01*
X37757586Y-18698409D01*
X37710453Y-18747068D01*
X37615694Y-18845511D01*
X37527389Y-18939961D01*
X37458783Y-19016139D01*
X37435265Y-19043817D01*
X37370027Y-19107536D01*
X37316089Y-19121988D01*
X37308152Y-19120040D01*
X37250315Y-19128915D01*
X37166419Y-19185097D01*
X37136370Y-19210890D01*
X37041255Y-19296833D01*
X36977418Y-19359162D01*
X36933450Y-19411188D01*
X36897939Y-19466224D01*
X36864302Y-19528336D01*
X36799827Y-19651654D01*
X36874525Y-19729622D01*
X36921688Y-19783956D01*
X36933156Y-19824889D01*
X36913945Y-19878119D01*
X36906471Y-19893287D01*
X36880482Y-19955777D01*
X36884553Y-19992055D01*
X36902938Y-20011533D01*
X36958878Y-20030374D01*
X37011008Y-20026800D01*
X37065524Y-20025419D01*
X37117830Y-20058277D01*
X37159541Y-20102842D01*
X37225861Y-20162311D01*
X37320982Y-20214572D01*
X37454392Y-20263937D01*
X37612690Y-20308846D01*
X37634091Y-20334481D01*
X37623808Y-20373848D01*
X37591304Y-20402045D01*
X37576271Y-20404667D01*
X37531150Y-20382780D01*
X37514028Y-20361188D01*
X37470479Y-20331749D01*
X37442070Y-20335985D01*
X37398399Y-20370094D01*
X37401874Y-20414281D01*
X37445930Y-20461269D01*
X37524002Y-20503780D01*
X37619309Y-20532488D01*
X37708441Y-20568145D01*
X37787376Y-20625681D01*
X37788643Y-20626981D01*
X37865513Y-20683062D01*
X37938828Y-20691963D01*
X37988755Y-20695077D01*
X38041891Y-20721578D01*
X38110456Y-20779164D01*
X38169212Y-20837035D01*
X38245304Y-20915715D01*
X38287564Y-20967206D01*
X38301995Y-21004312D01*
X38294600Y-21039833D01*
X38279175Y-21071528D01*
X38253908Y-21130223D01*
X38262369Y-21167399D01*
X38301007Y-21203359D01*
X38371104Y-21238219D01*
X38423235Y-21240076D01*
X38466337Y-21244067D01*
X38527102Y-21277819D01*
X38613238Y-21346260D01*
X38674377Y-21400617D01*
X38866826Y-21575889D01*
X38764550Y-21694532D01*
X38689484Y-21770135D01*
X38634825Y-21797777D01*
X38616126Y-21795465D01*
X38583444Y-21792612D01*
X38587756Y-21824086D01*
X38596616Y-21873532D01*
X38578136Y-21885549D01*
X38544351Y-21863152D01*
X38507294Y-21809355D01*
X38504256Y-21803171D01*
X38456172Y-21728727D01*
X38409155Y-21703375D01*
X38368826Y-21730022D01*
X38367344Y-21732352D01*
X38368357Y-21774521D01*
X38396045Y-21833410D01*
X38426501Y-21905817D01*
X38419035Y-21960835D01*
X38375943Y-21984923D01*
X38370324Y-21985111D01*
X38285251Y-21965723D01*
X38210008Y-21917459D01*
X38167357Y-21855170D01*
X38166535Y-21852141D01*
X38129866Y-21793639D01*
X38060091Y-21738022D01*
X38047267Y-21730804D01*
X37953503Y-21671953D01*
X37866573Y-21602130D01*
X37820086Y-21554596D01*
X38162122Y-21554596D01*
X38175259Y-21571185D01*
X38220460Y-21590180D01*
X38259856Y-21573858D01*
X38269333Y-21547667D01*
X38255860Y-21527925D01*
X38500972Y-21527925D01*
X38523978Y-21569454D01*
X38559970Y-21606246D01*
X38610164Y-21659526D01*
X38635486Y-21699592D01*
X38636222Y-21704031D01*
X38659098Y-21728062D01*
X38678555Y-21731111D01*
X38714123Y-21708056D01*
X38720456Y-21681722D01*
X38701969Y-21607171D01*
X38641565Y-21554676D01*
X38596456Y-21534532D01*
X38525542Y-21515477D01*
X38500972Y-21527925D01*
X38255860Y-21527925D01*
X38245804Y-21513191D01*
X38212889Y-21505334D01*
X38163722Y-21519457D01*
X38162122Y-21554596D01*
X37820086Y-21554596D01*
X37799120Y-21533159D01*
X37763790Y-21476866D01*
X37761333Y-21463398D01*
X37752420Y-21441450D01*
X37905090Y-21441450D01*
X37913186Y-21468850D01*
X37943636Y-21493328D01*
X38008895Y-21523851D01*
X38053341Y-21507509D01*
X38063338Y-21488317D01*
X38055351Y-21446572D01*
X38031549Y-21405415D01*
X37998180Y-21367711D01*
X37969483Y-21373254D01*
X37939447Y-21401225D01*
X37905090Y-21441450D01*
X37752420Y-21441450D01*
X37745978Y-21425590D01*
X37732654Y-21420667D01*
X37703214Y-21397574D01*
X37666129Y-21340306D01*
X37657173Y-21322521D01*
X37609681Y-21250909D01*
X37538395Y-21203429D01*
X37479917Y-21181046D01*
X37455883Y-21169533D01*
X37795468Y-21169533D01*
X37804547Y-21214839D01*
X37823024Y-21250192D01*
X37834056Y-21232782D01*
X37838751Y-21213847D01*
X37841349Y-21162550D01*
X37835294Y-21147852D01*
X38024740Y-21147852D01*
X38028614Y-21164630D01*
X38043555Y-21166667D01*
X38066785Y-21156341D01*
X38062370Y-21147852D01*
X38028877Y-21144474D01*
X38024740Y-21147852D01*
X37835294Y-21147852D01*
X37834383Y-21145643D01*
X37807497Y-21138916D01*
X37795468Y-21169533D01*
X37455883Y-21169533D01*
X37414989Y-21149944D01*
X37337479Y-21099015D01*
X37256404Y-21036394D01*
X37180780Y-20970215D01*
X37179684Y-20969111D01*
X37634333Y-20969111D01*
X37636571Y-20995118D01*
X37646778Y-20997334D01*
X37675518Y-20976847D01*
X37676666Y-20969111D01*
X37667037Y-20941623D01*
X37664221Y-20940889D01*
X37640125Y-20960665D01*
X37634333Y-20969111D01*
X37179684Y-20969111D01*
X37119623Y-20908612D01*
X37081951Y-20859720D01*
X37076781Y-20831671D01*
X37088564Y-20828000D01*
X37143153Y-20848172D01*
X37169797Y-20871695D01*
X37221787Y-20902897D01*
X37281696Y-20902246D01*
X37324904Y-20872309D01*
X37331640Y-20854801D01*
X37321989Y-20805171D01*
X37287710Y-20735186D01*
X37273998Y-20713690D01*
X37216622Y-20646002D01*
X37155792Y-20618846D01*
X37120531Y-20616334D01*
X37039777Y-20598013D01*
X36956856Y-20537502D01*
X36936642Y-20517556D01*
X36859925Y-20447940D01*
X36781862Y-20390549D01*
X36757513Y-20376445D01*
X36688882Y-20333738D01*
X36641793Y-20291778D01*
X36598031Y-20234850D01*
X36566291Y-20193000D01*
X36535786Y-20157702D01*
X36516168Y-20164045D01*
X36492645Y-20217592D01*
X36491249Y-20221222D01*
X36458726Y-20305889D01*
X36406700Y-20242011D01*
X36364809Y-20184165D01*
X36343518Y-20144665D01*
X36315688Y-20133085D01*
X36260976Y-20153557D01*
X36192277Y-20198084D01*
X36122486Y-20258673D01*
X36077246Y-20309764D01*
X36035574Y-20369914D01*
X36027923Y-20406931D01*
X36050582Y-20439659D01*
X36051486Y-20440566D01*
X36077546Y-20476872D01*
X36061963Y-20510325D01*
X36040318Y-20531178D01*
X35989678Y-20561225D01*
X35956836Y-20560955D01*
X35926387Y-20569595D01*
X35900395Y-20611787D01*
X35856458Y-20681763D01*
X35809026Y-20726707D01*
X35761056Y-20772459D01*
X35743745Y-20809758D01*
X35725467Y-20846559D01*
X35677053Y-20911827D01*
X35607688Y-20993533D01*
X35581166Y-21022700D01*
X35502768Y-21105956D01*
X35454554Y-21151483D01*
X35429338Y-21163855D01*
X35419933Y-21147644D01*
X35418889Y-21125942D01*
X35407574Y-21066530D01*
X35375725Y-21059438D01*
X35333782Y-21096641D01*
X35313988Y-21138137D01*
X35337209Y-21182331D01*
X35345150Y-21191372D01*
X35376459Y-21233270D01*
X35367036Y-21262532D01*
X35344808Y-21282565D01*
X35293632Y-21317233D01*
X35213024Y-21364003D01*
X35154257Y-21395273D01*
X35067290Y-21445309D01*
X35017486Y-21493303D01*
X34988931Y-21556417D01*
X34982105Y-21580961D01*
X34951183Y-21654774D01*
X34889488Y-21747339D01*
X34792194Y-21865333D01*
X34713830Y-21952078D01*
X34621359Y-22050519D01*
X34542371Y-22131735D01*
X34484789Y-22187783D01*
X34456533Y-22210720D01*
X34455698Y-22210889D01*
X34427896Y-22191387D01*
X34377778Y-22141646D01*
X34344730Y-22105056D01*
X34296036Y-22054308D01*
X34409422Y-22054308D01*
X34444574Y-22070313D01*
X34480500Y-22075894D01*
X34549417Y-22078278D01*
X34586263Y-22053176D01*
X34609326Y-21986924D01*
X34611449Y-21978056D01*
X34612960Y-21917782D01*
X34582416Y-21900421D01*
X34524896Y-21926379D01*
X34474898Y-21967181D01*
X34419700Y-22023224D01*
X34409422Y-22054308D01*
X34296036Y-22054308D01*
X34281793Y-22039465D01*
X34226730Y-21993110D01*
X34207751Y-21982232D01*
X34181603Y-21966402D01*
X34206486Y-21950534D01*
X34219444Y-21945922D01*
X34266148Y-21914386D01*
X34315492Y-21859221D01*
X34356606Y-21796713D01*
X34378619Y-21743147D01*
X34372961Y-21715946D01*
X34347600Y-21673567D01*
X34370369Y-21606360D01*
X34441769Y-21512888D01*
X34445222Y-21509050D01*
X34501400Y-21441260D01*
X34537181Y-21387308D01*
X34544000Y-21368333D01*
X34567203Y-21339196D01*
X34626918Y-21297540D01*
X34681720Y-21267163D01*
X34762631Y-21222370D01*
X34806715Y-21180951D01*
X34828908Y-21123781D01*
X34839212Y-21065524D01*
X34858428Y-20955036D01*
X34875636Y-20897646D01*
X35164889Y-20897646D01*
X35183680Y-20934430D01*
X35227142Y-20935587D01*
X35275904Y-20900797D01*
X35276990Y-20899505D01*
X35301403Y-20852813D01*
X35301612Y-20832381D01*
X35272924Y-20818551D01*
X35225552Y-20832474D01*
X35182065Y-20863376D01*
X35164889Y-20897646D01*
X34875636Y-20897646D01*
X34877807Y-20890407D01*
X34901534Y-20861193D01*
X34923100Y-20856222D01*
X34967038Y-20835704D01*
X35021053Y-20787728D01*
X35065245Y-20732667D01*
X35080222Y-20695371D01*
X35101547Y-20659240D01*
X35146448Y-20621766D01*
X35205468Y-20563716D01*
X35247891Y-20493351D01*
X35296808Y-20424544D01*
X35367379Y-20377920D01*
X35441095Y-20361989D01*
X35493970Y-20380201D01*
X35517845Y-20421440D01*
X35496766Y-20455612D01*
X35442173Y-20473297D01*
X35385049Y-20469866D01*
X35328514Y-20461580D01*
X35309570Y-20477690D01*
X35316738Y-20532154D01*
X35320252Y-20548675D01*
X35338385Y-20624205D01*
X35356994Y-20651090D01*
X35388053Y-20635943D01*
X35422344Y-20605060D01*
X35474481Y-20563099D01*
X35510007Y-20545778D01*
X35541287Y-20526854D01*
X35596366Y-20478128D01*
X35641427Y-20432889D01*
X35711896Y-20369590D01*
X35777179Y-20328628D01*
X35808029Y-20320000D01*
X35869234Y-20295982D01*
X35923989Y-20238122D01*
X35953749Y-20167708D01*
X35955111Y-20151176D01*
X35933280Y-20103340D01*
X35898666Y-20072550D01*
X35854431Y-20032772D01*
X35842222Y-20005372D01*
X35822000Y-19964121D01*
X35810773Y-19953111D01*
X36082111Y-19953111D01*
X36088509Y-19977272D01*
X36108667Y-19981334D01*
X36147281Y-19966599D01*
X36152666Y-19953111D01*
X36132410Y-19925697D01*
X36126110Y-19924889D01*
X36087887Y-19945404D01*
X36082111Y-19953111D01*
X35810773Y-19953111D01*
X35792833Y-19935520D01*
X35761072Y-19905702D01*
X35777560Y-19888878D01*
X35808072Y-19879433D01*
X35852579Y-19861537D01*
X35847603Y-19834950D01*
X35828559Y-19812495D01*
X35799563Y-19758862D01*
X35799407Y-19724359D01*
X35784878Y-19692277D01*
X35734677Y-19629939D01*
X35711598Y-19604917D01*
X35857704Y-19604917D01*
X35858885Y-19681338D01*
X35893986Y-19740849D01*
X35949912Y-19769620D01*
X36004111Y-19759540D01*
X36049204Y-19746124D01*
X36079723Y-19775138D01*
X36091611Y-19799040D01*
X36122393Y-19844341D01*
X36157169Y-19870908D01*
X36179238Y-19867607D01*
X36180889Y-19858545D01*
X36170337Y-19812187D01*
X36145635Y-19750291D01*
X36117211Y-19695618D01*
X36095492Y-19670931D01*
X36094915Y-19670889D01*
X36060162Y-19653329D01*
X36005543Y-19610098D01*
X35994777Y-19600334D01*
X35930484Y-19546585D01*
X35892138Y-19535717D01*
X35868549Y-19568104D01*
X35857704Y-19604917D01*
X35711598Y-19604917D01*
X35655628Y-19544235D01*
X35554558Y-19442056D01*
X35438292Y-19330294D01*
X35313655Y-19215839D01*
X35238511Y-19150179D01*
X35531777Y-19150179D01*
X35551906Y-19211688D01*
X35599913Y-19281133D01*
X35657233Y-19334632D01*
X35686027Y-19348611D01*
X35752025Y-19384659D01*
X35801030Y-19436704D01*
X35840794Y-19483017D01*
X35872875Y-19481358D01*
X35879714Y-19475353D01*
X35895870Y-19436008D01*
X35873705Y-19375872D01*
X35870031Y-19369290D01*
X35820268Y-19304136D01*
X35772096Y-19264455D01*
X35708186Y-19215988D01*
X35678773Y-19184056D01*
X35637863Y-19152724D01*
X35585033Y-19134807D01*
X35542864Y-19135511D01*
X35531777Y-19150179D01*
X35238511Y-19150179D01*
X35187472Y-19105582D01*
X35181479Y-19100501D01*
X35099292Y-19030930D01*
X35152957Y-18977265D01*
X35428033Y-18977265D01*
X35458870Y-18993556D01*
X35497747Y-18970832D01*
X35503555Y-18948871D01*
X35487146Y-18915955D01*
X35470041Y-18915357D01*
X35432772Y-18943448D01*
X35428033Y-18977265D01*
X35152957Y-18977265D01*
X35160312Y-18969910D01*
X35196937Y-18926704D01*
X35190592Y-18909899D01*
X35179000Y-18908889D01*
X35141442Y-18893677D01*
X35136666Y-18880719D01*
X35114553Y-18851370D01*
X35057633Y-18805711D01*
X35005135Y-18770681D01*
X34873604Y-18688814D01*
X34948691Y-18619227D01*
X35005062Y-18562954D01*
X35016891Y-18531963D01*
X34983015Y-18515424D01*
X34936689Y-18507402D01*
X34871164Y-18506270D01*
X34835698Y-18536474D01*
X34822751Y-18565239D01*
X34811363Y-18637806D01*
X34825173Y-18665129D01*
X34851982Y-18705478D01*
X34854444Y-18716978D01*
X34838091Y-18739697D01*
X34788664Y-18718568D01*
X34705611Y-18653272D01*
X34640625Y-18593913D01*
X34553050Y-18504262D01*
X34508485Y-18440400D01*
X34502544Y-18398122D01*
X34498953Y-18324740D01*
X34449022Y-18256387D01*
X34362391Y-18205324D01*
X34346670Y-18199864D01*
X34262547Y-18160956D01*
X34181774Y-18104352D01*
X34119949Y-18043151D01*
X34092672Y-17990451D01*
X34092444Y-17986387D01*
X34079934Y-17961480D01*
X34449881Y-17961480D01*
X34457223Y-18009519D01*
X34481672Y-18032396D01*
X34545378Y-18059681D01*
X34571550Y-18045612D01*
X34572222Y-18038374D01*
X34553398Y-18003141D01*
X34519264Y-17966600D01*
X34478249Y-17935632D01*
X34457295Y-17945067D01*
X34449881Y-17961480D01*
X34079934Y-17961480D01*
X34075348Y-17952352D01*
X34064222Y-17949334D01*
X34037757Y-17932896D01*
X34044421Y-17903537D01*
X34071277Y-17890851D01*
X34109445Y-17869416D01*
X34164323Y-17817777D01*
X34188253Y-17790578D01*
X34269950Y-17692342D01*
X34081998Y-17498424D01*
X34150286Y-17425735D01*
X34218574Y-17353045D01*
X34241481Y-17441446D01*
X34241481Y-17441446D01*
G37*
X34241481Y-17441446D02*
X34283448Y-17520930D01*
X34347749Y-17558906D01*
X34405996Y-17589551D01*
X34431089Y-17623257D01*
X34431111Y-17624083D01*
X34453503Y-17681810D01*
X34507181Y-17706696D01*
X34568881Y-17690871D01*
X34606446Y-17674576D01*
X34643469Y-17683410D01*
X34694626Y-17723891D01*
X34738212Y-17766083D01*
X34797364Y-17829741D01*
X34833172Y-17877878D01*
X34838614Y-17895671D01*
X34852948Y-17920750D01*
X34902139Y-17964369D01*
X34941403Y-17993255D01*
X35026743Y-18069665D01*
X35095869Y-18162971D01*
X35139187Y-18256911D01*
X35147103Y-18335224D01*
X35146003Y-18340009D01*
X35159549Y-18399711D01*
X35224849Y-18470073D01*
X35299202Y-18521751D01*
X35368949Y-18537694D01*
X35422049Y-18533867D01*
X35493617Y-18530630D01*
X35546379Y-18551799D01*
X35604635Y-18607853D01*
X35611519Y-18615579D01*
X35668955Y-18673389D01*
X35714898Y-18707466D01*
X35726925Y-18711334D01*
X35756261Y-18730098D01*
X35757555Y-18737654D01*
X35780560Y-18767464D01*
X35806944Y-18780264D01*
X35856515Y-18813727D01*
X35909662Y-18872784D01*
X35912777Y-18877154D01*
X35964721Y-18944937D01*
X36035466Y-19029625D01*
X36078226Y-19078024D01*
X36151371Y-19147701D01*
X36199018Y-19167751D01*
X36220510Y-19138282D01*
X36215189Y-19059405D01*
X36214410Y-19055231D01*
X36207949Y-19004343D01*
X36222580Y-18999941D01*
X36246895Y-19018178D01*
X36287837Y-19079638D01*
X36286808Y-19147178D01*
X36266896Y-19178482D01*
X36254432Y-19221719D01*
X36255115Y-19301525D01*
X36260142Y-19346076D01*
X36283889Y-19445695D01*
X36320979Y-19490857D01*
X36374769Y-19482617D01*
X36423354Y-19442759D01*
X36491333Y-19442759D01*
X36508333Y-19471359D01*
X36568023Y-19499315D01*
X36568058Y-19499328D01*
X36565232Y-19479954D01*
X36562918Y-19473334D01*
X36660666Y-19473334D01*
X36670992Y-19496564D01*
X36679481Y-19492148D01*
X36682859Y-19458655D01*
X36679481Y-19454519D01*
X36662703Y-19458393D01*
X36660666Y-19473334D01*
X36562918Y-19473334D01*
X36557983Y-19459222D01*
X36530499Y-19423590D01*
X36501142Y-19419881D01*
X36491333Y-19442759D01*
X36423354Y-19442759D01*
X36448618Y-19422034D01*
X36460924Y-19409250D01*
X36528994Y-19347608D01*
X36587603Y-19324621D01*
X36631876Y-19326119D01*
X36692868Y-19324193D01*
X36752470Y-19292573D01*
X36816359Y-19234856D01*
X36874909Y-19166143D01*
X36903892Y-19110528D01*
X36904180Y-19091604D01*
X36912270Y-19046016D01*
X36941470Y-19014659D01*
X36987055Y-18973900D01*
X37052351Y-18905219D01*
X37111323Y-18837498D01*
X37175957Y-18755405D01*
X37184712Y-18739556D01*
X37592000Y-18739556D01*
X37601629Y-18767044D01*
X37604445Y-18767778D01*
X37628540Y-18748002D01*
X37634333Y-18739556D01*
X37632095Y-18713549D01*
X37621887Y-18711334D01*
X37593148Y-18731820D01*
X37592000Y-18739556D01*
X37184712Y-18739556D01*
X37208827Y-18695902D01*
X37217442Y-18641038D01*
X37212895Y-18594684D01*
X37211391Y-18509358D01*
X37244669Y-18455065D01*
X37321686Y-18421023D01*
X37365617Y-18410888D01*
X37442625Y-18379185D01*
X37472764Y-18337446D01*
X37498931Y-18305164D01*
X37741821Y-18305164D01*
X37746549Y-18315134D01*
X37775466Y-18331919D01*
X37807375Y-18313144D01*
X37831862Y-18273404D01*
X37818973Y-18249685D01*
X37780118Y-18238800D01*
X37747449Y-18263574D01*
X37741821Y-18305164D01*
X37498931Y-18305164D01*
X37505002Y-18297675D01*
X37573251Y-18249561D01*
X37660129Y-18203077D01*
X37748258Y-18168196D01*
X37783903Y-18158900D01*
X37848367Y-18126973D01*
X37890713Y-18072418D01*
X37903019Y-18012797D01*
X37877365Y-17965672D01*
X37872533Y-17962401D01*
X37866095Y-17942216D01*
X38279758Y-17942216D01*
X38288915Y-17959508D01*
X38330611Y-17975551D01*
X38363344Y-17937415D01*
X38364206Y-17935222D01*
X38360148Y-17898763D01*
X38340668Y-17892889D01*
X38295031Y-17908683D01*
X38279758Y-17942216D01*
X37866095Y-17942216D01*
X37863442Y-17933902D01*
X37884648Y-17911346D01*
X37921477Y-17858773D01*
X37935725Y-17810354D01*
X37969256Y-17743353D01*
X38027967Y-17695988D01*
X38102828Y-17636737D01*
X38157942Y-17566856D01*
X38201301Y-17509029D01*
X38257917Y-17487864D01*
X38306544Y-17486794D01*
X38379165Y-17481833D01*
X38418041Y-17453196D01*
X38435396Y-17416238D01*
X38454907Y-17377188D01*
X38464532Y-17386444D01*
X38464660Y-17388502D01*
X38488150Y-17438519D01*
X38525919Y-17473644D01*
X38574663Y-17534614D01*
X38607165Y-17634382D01*
X38607740Y-17637471D01*
X38630531Y-17762103D01*
X38358210Y-18053966D01*
X38234876Y-18182801D01*
X38139690Y-18273706D01*
X38065473Y-18332779D01*
X38005050Y-18366113D01*
X37981247Y-18374126D01*
X37891457Y-18407505D01*
X37855265Y-18446335D01*
X37869864Y-18494000D01*
X37875627Y-18501359D01*
X37885389Y-18527003D01*
X37872598Y-18562997D01*
X37831810Y-18617434D01*
X37757586Y-18698409D01*
X37710453Y-18747068D01*
X37615694Y-18845511D01*
X37527389Y-18939961D01*
X37458783Y-19016139D01*
X37435265Y-19043817D01*
X37370027Y-19107536D01*
X37316089Y-19121988D01*
X37308152Y-19120040D01*
X37250315Y-19128915D01*
X37166419Y-19185097D01*
X37136370Y-19210890D01*
X37041255Y-19296833D01*
X36977418Y-19359162D01*
X36933450Y-19411188D01*
X36897939Y-19466224D01*
X36864302Y-19528336D01*
X36799827Y-19651654D01*
X36874525Y-19729622D01*
X36921688Y-19783956D01*
X36933156Y-19824889D01*
X36913945Y-19878119D01*
X36906471Y-19893287D01*
X36880482Y-19955777D01*
X36884553Y-19992055D01*
X36902938Y-20011533D01*
X36958878Y-20030374D01*
X37011008Y-20026800D01*
X37065524Y-20025419D01*
X37117830Y-20058277D01*
X37159541Y-20102842D01*
X37225861Y-20162311D01*
X37320982Y-20214572D01*
X37454392Y-20263937D01*
X37612690Y-20308846D01*
X37634091Y-20334481D01*
X37623808Y-20373848D01*
X37591304Y-20402045D01*
X37576271Y-20404667D01*
X37531150Y-20382780D01*
X37514028Y-20361188D01*
X37470479Y-20331749D01*
X37442070Y-20335985D01*
X37398399Y-20370094D01*
X37401874Y-20414281D01*
X37445930Y-20461269D01*
X37524002Y-20503780D01*
X37619309Y-20532488D01*
X37708441Y-20568145D01*
X37787376Y-20625681D01*
X37788643Y-20626981D01*
X37865513Y-20683062D01*
X37938828Y-20691963D01*
X37988755Y-20695077D01*
X38041891Y-20721578D01*
X38110456Y-20779164D01*
X38169212Y-20837035D01*
X38245304Y-20915715D01*
X38287564Y-20967206D01*
X38301995Y-21004312D01*
X38294600Y-21039833D01*
X38279175Y-21071528D01*
X38253908Y-21130223D01*
X38262369Y-21167399D01*
X38301007Y-21203359D01*
X38371104Y-21238219D01*
X38423235Y-21240076D01*
X38466337Y-21244067D01*
X38527102Y-21277819D01*
X38613238Y-21346260D01*
X38674377Y-21400617D01*
X38866826Y-21575889D01*
X38764550Y-21694532D01*
X38689484Y-21770135D01*
X38634825Y-21797777D01*
X38616126Y-21795465D01*
X38583444Y-21792612D01*
X38587756Y-21824086D01*
X38596616Y-21873532D01*
X38578136Y-21885549D01*
X38544351Y-21863152D01*
X38507294Y-21809355D01*
X38504256Y-21803171D01*
X38456172Y-21728727D01*
X38409155Y-21703375D01*
X38368826Y-21730022D01*
X38367344Y-21732352D01*
X38368357Y-21774521D01*
X38396045Y-21833410D01*
X38426501Y-21905817D01*
X38419035Y-21960835D01*
X38375943Y-21984923D01*
X38370324Y-21985111D01*
X38285251Y-21965723D01*
X38210008Y-21917459D01*
X38167357Y-21855170D01*
X38166535Y-21852141D01*
X38129866Y-21793639D01*
X38060091Y-21738022D01*
X38047267Y-21730804D01*
X37953503Y-21671953D01*
X37866573Y-21602130D01*
X37820086Y-21554596D01*
X38162122Y-21554596D01*
X38175259Y-21571185D01*
X38220460Y-21590180D01*
X38259856Y-21573858D01*
X38269333Y-21547667D01*
X38255860Y-21527925D01*
X38500972Y-21527925D01*
X38523978Y-21569454D01*
X38559970Y-21606246D01*
X38610164Y-21659526D01*
X38635486Y-21699592D01*
X38636222Y-21704031D01*
X38659098Y-21728062D01*
X38678555Y-21731111D01*
X38714123Y-21708056D01*
X38720456Y-21681722D01*
X38701969Y-21607171D01*
X38641565Y-21554676D01*
X38596456Y-21534532D01*
X38525542Y-21515477D01*
X38500972Y-21527925D01*
X38255860Y-21527925D01*
X38245804Y-21513191D01*
X38212889Y-21505334D01*
X38163722Y-21519457D01*
X38162122Y-21554596D01*
X37820086Y-21554596D01*
X37799120Y-21533159D01*
X37763790Y-21476866D01*
X37761333Y-21463398D01*
X37752420Y-21441450D01*
X37905090Y-21441450D01*
X37913186Y-21468850D01*
X37943636Y-21493328D01*
X38008895Y-21523851D01*
X38053341Y-21507509D01*
X38063338Y-21488317D01*
X38055351Y-21446572D01*
X38031549Y-21405415D01*
X37998180Y-21367711D01*
X37969483Y-21373254D01*
X37939447Y-21401225D01*
X37905090Y-21441450D01*
X37752420Y-21441450D01*
X37745978Y-21425590D01*
X37732654Y-21420667D01*
X37703214Y-21397574D01*
X37666129Y-21340306D01*
X37657173Y-21322521D01*
X37609681Y-21250909D01*
X37538395Y-21203429D01*
X37479917Y-21181046D01*
X37455883Y-21169533D01*
X37795468Y-21169533D01*
X37804547Y-21214839D01*
X37823024Y-21250192D01*
X37834056Y-21232782D01*
X37838751Y-21213847D01*
X37841349Y-21162550D01*
X37835294Y-21147852D01*
X38024740Y-21147852D01*
X38028614Y-21164630D01*
X38043555Y-21166667D01*
X38066785Y-21156341D01*
X38062370Y-21147852D01*
X38028877Y-21144474D01*
X38024740Y-21147852D01*
X37835294Y-21147852D01*
X37834383Y-21145643D01*
X37807497Y-21138916D01*
X37795468Y-21169533D01*
X37455883Y-21169533D01*
X37414989Y-21149944D01*
X37337479Y-21099015D01*
X37256404Y-21036394D01*
X37180780Y-20970215D01*
X37179684Y-20969111D01*
X37634333Y-20969111D01*
X37636571Y-20995118D01*
X37646778Y-20997334D01*
X37675518Y-20976847D01*
X37676666Y-20969111D01*
X37667037Y-20941623D01*
X37664221Y-20940889D01*
X37640125Y-20960665D01*
X37634333Y-20969111D01*
X37179684Y-20969111D01*
X37119623Y-20908612D01*
X37081951Y-20859720D01*
X37076781Y-20831671D01*
X37088564Y-20828000D01*
X37143153Y-20848172D01*
X37169797Y-20871695D01*
X37221787Y-20902897D01*
X37281696Y-20902246D01*
X37324904Y-20872309D01*
X37331640Y-20854801D01*
X37321989Y-20805171D01*
X37287710Y-20735186D01*
X37273998Y-20713690D01*
X37216622Y-20646002D01*
X37155792Y-20618846D01*
X37120531Y-20616334D01*
X37039777Y-20598013D01*
X36956856Y-20537502D01*
X36936642Y-20517556D01*
X36859925Y-20447940D01*
X36781862Y-20390549D01*
X36757513Y-20376445D01*
X36688882Y-20333738D01*
X36641793Y-20291778D01*
X36598031Y-20234850D01*
X36566291Y-20193000D01*
X36535786Y-20157702D01*
X36516168Y-20164045D01*
X36492645Y-20217592D01*
X36491249Y-20221222D01*
X36458726Y-20305889D01*
X36406700Y-20242011D01*
X36364809Y-20184165D01*
X36343518Y-20144665D01*
X36315688Y-20133085D01*
X36260976Y-20153557D01*
X36192277Y-20198084D01*
X36122486Y-20258673D01*
X36077246Y-20309764D01*
X36035574Y-20369914D01*
X36027923Y-20406931D01*
X36050582Y-20439659D01*
X36051486Y-20440566D01*
X36077546Y-20476872D01*
X36061963Y-20510325D01*
X36040318Y-20531178D01*
X35989678Y-20561225D01*
X35956836Y-20560955D01*
X35926387Y-20569595D01*
X35900395Y-20611787D01*
X35856458Y-20681763D01*
X35809026Y-20726707D01*
X35761056Y-20772459D01*
X35743745Y-20809758D01*
X35725467Y-20846559D01*
X35677053Y-20911827D01*
X35607688Y-20993533D01*
X35581166Y-21022700D01*
X35502768Y-21105956D01*
X35454554Y-21151483D01*
X35429338Y-21163855D01*
X35419933Y-21147644D01*
X35418889Y-21125942D01*
X35407574Y-21066530D01*
X35375725Y-21059438D01*
X35333782Y-21096641D01*
X35313988Y-21138137D01*
X35337209Y-21182331D01*
X35345150Y-21191372D01*
X35376459Y-21233270D01*
X35367036Y-21262532D01*
X35344808Y-21282565D01*
X35293632Y-21317233D01*
X35213024Y-21364003D01*
X35154257Y-21395273D01*
X35067290Y-21445309D01*
X35017486Y-21493303D01*
X34988931Y-21556417D01*
X34982105Y-21580961D01*
X34951183Y-21654774D01*
X34889488Y-21747339D01*
X34792194Y-21865333D01*
X34713830Y-21952078D01*
X34621359Y-22050519D01*
X34542371Y-22131735D01*
X34484789Y-22187783D01*
X34456533Y-22210720D01*
X34455698Y-22210889D01*
X34427896Y-22191387D01*
X34377778Y-22141646D01*
X34344730Y-22105056D01*
X34296036Y-22054308D01*
X34409422Y-22054308D01*
X34444574Y-22070313D01*
X34480500Y-22075894D01*
X34549417Y-22078278D01*
X34586263Y-22053176D01*
X34609326Y-21986924D01*
X34611449Y-21978056D01*
X34612960Y-21917782D01*
X34582416Y-21900421D01*
X34524896Y-21926379D01*
X34474898Y-21967181D01*
X34419700Y-22023224D01*
X34409422Y-22054308D01*
X34296036Y-22054308D01*
X34281793Y-22039465D01*
X34226730Y-21993110D01*
X34207751Y-21982232D01*
X34181603Y-21966402D01*
X34206486Y-21950534D01*
X34219444Y-21945922D01*
X34266148Y-21914386D01*
X34315492Y-21859221D01*
X34356606Y-21796713D01*
X34378619Y-21743147D01*
X34372961Y-21715946D01*
X34347600Y-21673567D01*
X34370369Y-21606360D01*
X34441769Y-21512888D01*
X34445222Y-21509050D01*
X34501400Y-21441260D01*
X34537181Y-21387308D01*
X34544000Y-21368333D01*
X34567203Y-21339196D01*
X34626918Y-21297540D01*
X34681720Y-21267163D01*
X34762631Y-21222370D01*
X34806715Y-21180951D01*
X34828908Y-21123781D01*
X34839212Y-21065524D01*
X34858428Y-20955036D01*
X34875636Y-20897646D01*
X35164889Y-20897646D01*
X35183680Y-20934430D01*
X35227142Y-20935587D01*
X35275904Y-20900797D01*
X35276990Y-20899505D01*
X35301403Y-20852813D01*
X35301612Y-20832381D01*
X35272924Y-20818551D01*
X35225552Y-20832474D01*
X35182065Y-20863376D01*
X35164889Y-20897646D01*
X34875636Y-20897646D01*
X34877807Y-20890407D01*
X34901534Y-20861193D01*
X34923100Y-20856222D01*
X34967038Y-20835704D01*
X35021053Y-20787728D01*
X35065245Y-20732667D01*
X35080222Y-20695371D01*
X35101547Y-20659240D01*
X35146448Y-20621766D01*
X35205468Y-20563716D01*
X35247891Y-20493351D01*
X35296808Y-20424544D01*
X35367379Y-20377920D01*
X35441095Y-20361989D01*
X35493970Y-20380201D01*
X35517845Y-20421440D01*
X35496766Y-20455612D01*
X35442173Y-20473297D01*
X35385049Y-20469866D01*
X35328514Y-20461580D01*
X35309570Y-20477690D01*
X35316738Y-20532154D01*
X35320252Y-20548675D01*
X35338385Y-20624205D01*
X35356994Y-20651090D01*
X35388053Y-20635943D01*
X35422344Y-20605060D01*
X35474481Y-20563099D01*
X35510007Y-20545778D01*
X35541287Y-20526854D01*
X35596366Y-20478128D01*
X35641427Y-20432889D01*
X35711896Y-20369590D01*
X35777179Y-20328628D01*
X35808029Y-20320000D01*
X35869234Y-20295982D01*
X35923989Y-20238122D01*
X35953749Y-20167708D01*
X35955111Y-20151176D01*
X35933280Y-20103340D01*
X35898666Y-20072550D01*
X35854431Y-20032772D01*
X35842222Y-20005372D01*
X35822000Y-19964121D01*
X35810773Y-19953111D01*
X36082111Y-19953111D01*
X36088509Y-19977272D01*
X36108667Y-19981334D01*
X36147281Y-19966599D01*
X36152666Y-19953111D01*
X36132410Y-19925697D01*
X36126110Y-19924889D01*
X36087887Y-19945404D01*
X36082111Y-19953111D01*
X35810773Y-19953111D01*
X35792833Y-19935520D01*
X35761072Y-19905702D01*
X35777560Y-19888878D01*
X35808072Y-19879433D01*
X35852579Y-19861537D01*
X35847603Y-19834950D01*
X35828559Y-19812495D01*
X35799563Y-19758862D01*
X35799407Y-19724359D01*
X35784878Y-19692277D01*
X35734677Y-19629939D01*
X35711598Y-19604917D01*
X35857704Y-19604917D01*
X35858885Y-19681338D01*
X35893986Y-19740849D01*
X35949912Y-19769620D01*
X36004111Y-19759540D01*
X36049204Y-19746124D01*
X36079723Y-19775138D01*
X36091611Y-19799040D01*
X36122393Y-19844341D01*
X36157169Y-19870908D01*
X36179238Y-19867607D01*
X36180889Y-19858545D01*
X36170337Y-19812187D01*
X36145635Y-19750291D01*
X36117211Y-19695618D01*
X36095492Y-19670931D01*
X36094915Y-19670889D01*
X36060162Y-19653329D01*
X36005543Y-19610098D01*
X35994777Y-19600334D01*
X35930484Y-19546585D01*
X35892138Y-19535717D01*
X35868549Y-19568104D01*
X35857704Y-19604917D01*
X35711598Y-19604917D01*
X35655628Y-19544235D01*
X35554558Y-19442056D01*
X35438292Y-19330294D01*
X35313655Y-19215839D01*
X35238511Y-19150179D01*
X35531777Y-19150179D01*
X35551906Y-19211688D01*
X35599913Y-19281133D01*
X35657233Y-19334632D01*
X35686027Y-19348611D01*
X35752025Y-19384659D01*
X35801030Y-19436704D01*
X35840794Y-19483017D01*
X35872875Y-19481358D01*
X35879714Y-19475353D01*
X35895870Y-19436008D01*
X35873705Y-19375872D01*
X35870031Y-19369290D01*
X35820268Y-19304136D01*
X35772096Y-19264455D01*
X35708186Y-19215988D01*
X35678773Y-19184056D01*
X35637863Y-19152724D01*
X35585033Y-19134807D01*
X35542864Y-19135511D01*
X35531777Y-19150179D01*
X35238511Y-19150179D01*
X35187472Y-19105582D01*
X35181479Y-19100501D01*
X35099292Y-19030930D01*
X35152957Y-18977265D01*
X35428033Y-18977265D01*
X35458870Y-18993556D01*
X35497747Y-18970832D01*
X35503555Y-18948871D01*
X35487146Y-18915955D01*
X35470041Y-18915357D01*
X35432772Y-18943448D01*
X35428033Y-18977265D01*
X35152957Y-18977265D01*
X35160312Y-18969910D01*
X35196937Y-18926704D01*
X35190592Y-18909899D01*
X35179000Y-18908889D01*
X35141442Y-18893677D01*
X35136666Y-18880719D01*
X35114553Y-18851370D01*
X35057633Y-18805711D01*
X35005135Y-18770681D01*
X34873604Y-18688814D01*
X34948691Y-18619227D01*
X35005062Y-18562954D01*
X35016891Y-18531963D01*
X34983015Y-18515424D01*
X34936689Y-18507402D01*
X34871164Y-18506270D01*
X34835698Y-18536474D01*
X34822751Y-18565239D01*
X34811363Y-18637806D01*
X34825173Y-18665129D01*
X34851982Y-18705478D01*
X34854444Y-18716978D01*
X34838091Y-18739697D01*
X34788664Y-18718568D01*
X34705611Y-18653272D01*
X34640625Y-18593913D01*
X34553050Y-18504262D01*
X34508485Y-18440400D01*
X34502544Y-18398122D01*
X34498953Y-18324740D01*
X34449022Y-18256387D01*
X34362391Y-18205324D01*
X34346670Y-18199864D01*
X34262547Y-18160956D01*
X34181774Y-18104352D01*
X34119949Y-18043151D01*
X34092672Y-17990451D01*
X34092444Y-17986387D01*
X34079934Y-17961480D01*
X34449881Y-17961480D01*
X34457223Y-18009519D01*
X34481672Y-18032396D01*
X34545378Y-18059681D01*
X34571550Y-18045612D01*
X34572222Y-18038374D01*
X34553398Y-18003141D01*
X34519264Y-17966600D01*
X34478249Y-17935632D01*
X34457295Y-17945067D01*
X34449881Y-17961480D01*
X34079934Y-17961480D01*
X34075348Y-17952352D01*
X34064222Y-17949334D01*
X34037757Y-17932896D01*
X34044421Y-17903537D01*
X34071277Y-17890851D01*
X34109445Y-17869416D01*
X34164323Y-17817777D01*
X34188253Y-17790578D01*
X34269950Y-17692342D01*
X34081998Y-17498424D01*
X34150286Y-17425735D01*
X34218574Y-17353045D01*
X34241481Y-17441446D01*
G36*
X32709555Y-18400889D02*
X29152046Y-18400889D01*
X29167666Y-19233445D01*
X30931555Y-19239107D01*
X32695444Y-19244770D01*
X32703182Y-19711829D01*
X32710920Y-20178889D01*
X29153555Y-20178889D01*
X29153555Y-20997334D01*
X32709555Y-20997334D01*
X32709555Y-21459981D01*
X32708771Y-21636204D01*
X32705969Y-21763701D01*
X32700473Y-21850172D01*
X32691608Y-21903319D01*
X32678698Y-21930844D01*
X32667557Y-21938744D01*
X32632006Y-21941833D01*
X32545743Y-21944617D01*
X32414014Y-21947097D01*
X32242063Y-21949272D01*
X32035136Y-21951144D01*
X31798480Y-21952712D01*
X31537339Y-21953977D01*
X31256959Y-21954938D01*
X30962586Y-21955596D01*
X30659465Y-21955951D01*
X30352842Y-21956004D01*
X30047962Y-21955754D01*
X29750071Y-21955201D01*
X29464415Y-21954347D01*
X29196239Y-21953191D01*
X28950788Y-21951733D01*
X28733309Y-21949974D01*
X28549047Y-21947914D01*
X28403247Y-21945552D01*
X28301155Y-21942890D01*
X28248016Y-21939927D01*
X28241530Y-21938568D01*
X28238500Y-21907972D01*
X28235615Y-21825237D01*
X28232914Y-21694667D01*
X28230433Y-21520567D01*
X28228209Y-21307243D01*
X28226280Y-21058999D01*
X28224681Y-20780140D01*
X28223451Y-20474972D01*
X28222627Y-20147798D01*
X28222245Y-19802924D01*
X28222222Y-19694408D01*
X28222222Y-17469556D01*
X32709555Y-17469556D01*
X32709555Y-18400889D01*
X32709555Y-18400889D01*
G37*
X32709555Y-18400889D02*
X29152046Y-18400889D01*
X29167666Y-19233445D01*
X30931555Y-19239107D01*
X32695444Y-19244770D01*
X32703182Y-19711829D01*
X32710920Y-20178889D01*
X29153555Y-20178889D01*
X29153555Y-20997334D01*
X32709555Y-20997334D01*
X32709555Y-21459981D01*
X32708771Y-21636204D01*
X32705969Y-21763701D01*
X32700473Y-21850172D01*
X32691608Y-21903319D01*
X32678698Y-21930844D01*
X32667557Y-21938744D01*
X32632006Y-21941833D01*
X32545743Y-21944617D01*
X32414014Y-21947097D01*
X32242063Y-21949272D01*
X32035136Y-21951144D01*
X31798480Y-21952712D01*
X31537339Y-21953977D01*
X31256959Y-21954938D01*
X30962586Y-21955596D01*
X30659465Y-21955951D01*
X30352842Y-21956004D01*
X30047962Y-21955754D01*
X29750071Y-21955201D01*
X29464415Y-21954347D01*
X29196239Y-21953191D01*
X28950788Y-21951733D01*
X28733309Y-21949974D01*
X28549047Y-21947914D01*
X28403247Y-21945552D01*
X28301155Y-21942890D01*
X28248016Y-21939927D01*
X28241530Y-21938568D01*
X28238500Y-21907972D01*
X28235615Y-21825237D01*
X28232914Y-21694667D01*
X28230433Y-21520567D01*
X28228209Y-21307243D01*
X28226280Y-21058999D01*
X28224681Y-20780140D01*
X28223451Y-20474972D01*
X28222627Y-20147798D01*
X28222245Y-19802924D01*
X28222222Y-19694408D01*
X28222222Y-17469556D01*
X32709555Y-17469556D01*
X32709555Y-18400889D01*
G36*
X34167869Y-21635961D02*
X34171701Y-21644328D01*
X34158078Y-21670062D01*
X34134777Y-21674667D01*
X34099653Y-21660347D01*
X34097853Y-21644328D01*
X34126989Y-21615170D01*
X34134777Y-21613989D01*
X34167869Y-21635961D01*
X34167869Y-21635961D01*
G37*
X34167869Y-21635961D02*
X34171701Y-21644328D01*
X34158078Y-21670062D01*
X34134777Y-21674667D01*
X34099653Y-21660347D01*
X34097853Y-21644328D01*
X34126989Y-21615170D01*
X34134777Y-21613989D01*
X34167869Y-21635961D01*
G36*
X34643728Y-21026726D02*
X34640404Y-21035675D01*
X34615022Y-21070354D01*
X34584964Y-21085051D01*
X34572222Y-21071345D01*
X34590945Y-21047023D01*
X34615201Y-21025020D01*
X34645798Y-21004428D01*
X34643728Y-21026726D01*
X34643728Y-21026726D01*
G37*
X34643728Y-21026726D02*
X34640404Y-21035675D01*
X34615022Y-21070354D01*
X34584964Y-21085051D01*
X34572222Y-21071345D01*
X34590945Y-21047023D01*
X34615201Y-21025020D01*
X34645798Y-21004428D01*
X34643728Y-21026726D01*
G36*
X36228479Y-20338230D02*
X36223222Y-20348222D01*
X36196630Y-20375175D01*
X36191668Y-20376445D01*
X36189743Y-20358215D01*
X36195000Y-20348222D01*
X36221591Y-20321270D01*
X36226553Y-20320000D01*
X36228479Y-20338230D01*
X36228479Y-20338230D01*
G37*
X36228479Y-20338230D02*
X36223222Y-20348222D01*
X36196630Y-20375175D01*
X36191668Y-20376445D01*
X36189743Y-20358215D01*
X36195000Y-20348222D01*
X36221591Y-20321270D01*
X36226553Y-20320000D01*
X36228479Y-20338230D01*
G36*
X35756228Y-19973809D02*
X35751939Y-20020923D01*
X35726076Y-20071986D01*
X35716421Y-20082944D01*
X35689500Y-20134672D01*
X35691218Y-20165595D01*
X35686732Y-20197928D01*
X35638278Y-20207111D01*
X35577838Y-20200126D01*
X35550592Y-20188296D01*
X35531832Y-20146344D01*
X35531777Y-20144372D01*
X35551362Y-20111278D01*
X35598814Y-20059783D01*
X35657178Y-20005795D01*
X35709500Y-19965222D01*
X35735623Y-19953111D01*
X35756228Y-19973809D01*
X35756228Y-19973809D01*
G37*
X35756228Y-19973809D02*
X35751939Y-20020923D01*
X35726076Y-20071986D01*
X35716421Y-20082944D01*
X35689500Y-20134672D01*
X35691218Y-20165595D01*
X35686732Y-20197928D01*
X35638278Y-20207111D01*
X35577838Y-20200126D01*
X35550592Y-20188296D01*
X35531832Y-20146344D01*
X35531777Y-20144372D01*
X35551362Y-20111278D01*
X35598814Y-20059783D01*
X35657178Y-20005795D01*
X35709500Y-19965222D01*
X35735623Y-19953111D01*
X35756228Y-19973809D01*
G36*
X36934034Y-19576230D02*
X36928777Y-19586222D01*
X36902186Y-19613175D01*
X36897224Y-19614445D01*
X36895298Y-19596215D01*
X36900555Y-19586222D01*
X36927147Y-19559270D01*
X36932109Y-19558000D01*
X36934034Y-19576230D01*
X36934034Y-19576230D01*
G37*
X36934034Y-19576230D02*
X36928777Y-19586222D01*
X36902186Y-19613175D01*
X36897224Y-19614445D01*
X36895298Y-19596215D01*
X36900555Y-19586222D01*
X36927147Y-19559270D01*
X36932109Y-19558000D01*
X36934034Y-19576230D01*
G36*
X37046923Y-19463341D02*
X37041666Y-19473334D01*
X37015075Y-19500286D01*
X37010113Y-19501556D01*
X37008187Y-19483326D01*
X37013444Y-19473334D01*
X37040035Y-19446381D01*
X37044997Y-19445111D01*
X37046923Y-19463341D01*
X37046923Y-19463341D01*
G37*
X37046923Y-19463341D02*
X37041666Y-19473334D01*
X37015075Y-19500286D01*
X37010113Y-19501556D01*
X37008187Y-19483326D01*
X37013444Y-19473334D01*
X37040035Y-19446381D01*
X37044997Y-19445111D01*
X37046923Y-19463341D01*
G36*
X36585620Y-18992605D02*
X36608408Y-19011456D01*
X36652053Y-19069867D01*
X36655872Y-19120964D01*
X36625389Y-19147465D01*
X36546003Y-19166354D01*
X36462549Y-19177682D01*
X36396059Y-19179398D01*
X36369189Y-19172449D01*
X36376805Y-19144283D01*
X36417527Y-19093580D01*
X36453004Y-19058641D01*
X36515984Y-19003800D01*
X36554778Y-18983431D01*
X36585620Y-18992605D01*
X36585620Y-18992605D01*
G37*
X36585620Y-18992605D02*
X36608408Y-19011456D01*
X36652053Y-19069867D01*
X36655872Y-19120964D01*
X36625389Y-19147465D01*
X36546003Y-19166354D01*
X36462549Y-19177682D01*
X36396059Y-19179398D01*
X36369189Y-19172449D01*
X36376805Y-19144283D01*
X36417527Y-19093580D01*
X36453004Y-19058641D01*
X36515984Y-19003800D01*
X36554778Y-18983431D01*
X36585620Y-18992605D01*
G36*
X36913430Y-18752903D02*
X36938198Y-18793423D01*
X36942889Y-18825888D01*
X36925450Y-18869097D01*
X36872333Y-18880667D01*
X36817450Y-18867182D01*
X36801777Y-18841789D01*
X36821296Y-18792128D01*
X36864772Y-18755823D01*
X36909586Y-18750880D01*
X36913430Y-18752903D01*
X36913430Y-18752903D01*
G37*
X36913430Y-18752903D02*
X36938198Y-18793423D01*
X36942889Y-18825888D01*
X36925450Y-18869097D01*
X36872333Y-18880667D01*
X36817450Y-18867182D01*
X36801777Y-18841789D01*
X36821296Y-18792128D01*
X36864772Y-18755823D01*
X36909586Y-18750880D01*
X36913430Y-18752903D01*
G36*
X37022170Y-18641402D02*
X37027555Y-18654889D01*
X37007299Y-18682303D01*
X37000999Y-18683111D01*
X36962776Y-18662597D01*
X36957000Y-18654889D01*
X36963398Y-18630728D01*
X36983556Y-18626667D01*
X37022170Y-18641402D01*
X37022170Y-18641402D01*
G37*
X37022170Y-18641402D02*
X37027555Y-18654889D01*
X37007299Y-18682303D01*
X37000999Y-18683111D01*
X36962776Y-18662597D01*
X36957000Y-18654889D01*
X36963398Y-18630728D01*
X36983556Y-18626667D01*
X37022170Y-18641402D01*
G36*
X35261914Y-18109010D02*
X35322251Y-18156520D01*
X35390380Y-18220698D01*
X35454306Y-18289266D01*
X35502038Y-18349945D01*
X35521582Y-18390458D01*
X35520354Y-18396540D01*
X35474131Y-18427109D01*
X35410753Y-18410969D01*
X35364538Y-18374761D01*
X35325866Y-18309173D01*
X35324891Y-18264187D01*
X35322701Y-18218521D01*
X35276172Y-18198956D01*
X35273696Y-18198593D01*
X35228698Y-18177387D01*
X35199441Y-18140134D01*
X35194757Y-18105083D01*
X35221362Y-18090445D01*
X35261914Y-18109010D01*
X35261914Y-18109010D01*
G37*
X35261914Y-18109010D02*
X35322251Y-18156520D01*
X35390380Y-18220698D01*
X35454306Y-18289266D01*
X35502038Y-18349945D01*
X35521582Y-18390458D01*
X35520354Y-18396540D01*
X35474131Y-18427109D01*
X35410753Y-18410969D01*
X35364538Y-18374761D01*
X35325866Y-18309173D01*
X35324891Y-18264187D01*
X35322701Y-18218521D01*
X35276172Y-18198956D01*
X35273696Y-18198593D01*
X35228698Y-18177387D01*
X35199441Y-18140134D01*
X35194757Y-18105083D01*
X35221362Y-18090445D01*
X35261914Y-18109010D01*
G36*
X34539031Y-17430116D02*
X34529889Y-17469556D01*
X34490748Y-17496595D01*
X34452117Y-17480021D01*
X34449850Y-17476611D01*
X34456606Y-17442550D01*
X34474914Y-17420448D01*
X34515860Y-17405688D01*
X34539031Y-17430116D01*
X34539031Y-17430116D01*
G37*
X34539031Y-17430116D02*
X34529889Y-17469556D01*
X34490748Y-17496595D01*
X34452117Y-17480021D01*
X34449850Y-17476611D01*
X34456606Y-17442550D01*
X34474914Y-17420448D01*
X34515860Y-17405688D01*
X34539031Y-17430116D01*
G36*
X38156444Y-17257889D02*
X38183368Y-17283250D01*
X38184666Y-17287777D01*
X38162831Y-17299899D01*
X38156444Y-17300222D01*
X38129306Y-17278526D01*
X38128222Y-17270335D01*
X38145512Y-17253479D01*
X38156444Y-17257889D01*
X38156444Y-17257889D01*
G37*
X38156444Y-17257889D02*
X38183368Y-17283250D01*
X38184666Y-17287777D01*
X38162831Y-17299899D01*
X38156444Y-17300222D01*
X38129306Y-17278526D01*
X38128222Y-17270335D01*
X38145512Y-17253479D01*
X38156444Y-17257889D01*
D14*
X8126000Y-20324000D02*
X8126000Y-13204000D01*
X14226000Y-20324000D02*
X14226000Y-13204000D01*
X1524000Y-13464000D02*
X2944000Y-13464000D01*
X764000Y-20064000D02*
X2944000Y-20064000D01*
X7364000Y-20064000D02*
X5184000Y-20064000D01*
X6604000Y-13464000D02*
X5184000Y-13464000D01*
X764000Y-20064000D02*
X764000Y-14224000D01*
X764000Y-14224000D02*
X1524000Y-13464000D01*
X6604000Y-13464000D02*
X7364000Y-14224000D01*
X7364000Y-14224000D02*
X7364000Y-20064000D01*
X11088000Y-29472000D02*
X11088000Y-30472000D01*
X12788000Y-30472000D02*
X12788000Y-29472000D01*
X17184000Y-29472000D02*
X17184000Y-30472000D01*
X18884000Y-30472000D02*
X18884000Y-29472000D01*
X23280000Y-29472000D02*
X23280000Y-30472000D01*
X24980000Y-30472000D02*
X24980000Y-29472000D01*
X29376000Y-29472000D02*
X29376000Y-30472000D01*
X31076000Y-30472000D02*
X31076000Y-29472000D01*
X35472000Y-29472000D02*
X35472000Y-30472000D01*
X37172000Y-30472000D02*
X37172000Y-29472000D01*
X43032000Y-13400000D02*
X43032000Y-12000000D01*
X43032000Y-12000000D02*
X40232000Y-12000000D01*
X43032000Y-13400000D02*
X40232000Y-13400000D01*
X42948000Y-15432000D02*
X42948000Y-14032000D01*
X42948000Y-14032000D02*
X40148000Y-14032000D01*
X42948000Y-15432000D02*
X40148000Y-15432000D01*
X8442000Y-36700000D02*
X702000Y-36700000D01*
X702000Y-36700000D02*
X702000Y-39360000D01*
X702000Y-39360000D02*
X8442000Y-39360000D01*
X8442000Y-39360000D02*
X8442000Y-36700000D01*
X7492000Y-39360000D02*
X7492000Y-45360000D01*
X7492000Y-45360000D02*
X6732000Y-45360000D01*
X6732000Y-45360000D02*
X6732000Y-39360000D01*
X7432000Y-39360000D02*
X7432000Y-45360000D01*
X7312000Y-39360000D02*
X7312000Y-45360000D01*
X7192000Y-39360000D02*
X7192000Y-45360000D01*
X7072000Y-39360000D02*
X7072000Y-45360000D01*
X6952000Y-39360000D02*
X6952000Y-45360000D01*
X6832000Y-39360000D02*
X6832000Y-45360000D01*
X7492000Y-36370000D02*
X7492000Y-36700000D01*
X6732000Y-36370000D02*
X6732000Y-36700000D01*
X5842000Y-36700000D02*
X5842000Y-39360000D01*
X4952000Y-39360000D02*
X4952000Y-45360000D01*
X4952000Y-45360000D02*
X4192000Y-45360000D01*
X4192000Y-45360000D02*
X4192000Y-39360000D01*
X4952000Y-36302929D02*
X4952000Y-36700000D01*
X4192000Y-36302929D02*
X4192000Y-36700000D01*
X3302000Y-36700000D02*
X3302000Y-39360000D01*
X2412000Y-39360000D02*
X2412000Y-45360000D01*
X2412000Y-45360000D02*
X1652000Y-45360000D01*
X1652000Y-45360000D02*
X1652000Y-39360000D01*
X2412000Y-36302929D02*
X2412000Y-36700000D01*
X1652000Y-36302929D02*
X1652000Y-36700000D01*
X7112000Y-33990000D02*
X8382000Y-33990000D01*
X8382000Y-33990000D02*
X8382000Y-35260000D01*
X17078000Y-36700000D02*
X9338000Y-36700000D01*
X9338000Y-36700000D02*
X9338000Y-39360000D01*
X9338000Y-39360000D02*
X17078000Y-39360000D01*
X17078000Y-39360000D02*
X17078000Y-36700000D01*
X16128000Y-39360000D02*
X16128000Y-45360000D01*
X16128000Y-45360000D02*
X15368000Y-45360000D01*
X15368000Y-45360000D02*
X15368000Y-39360000D01*
X16068000Y-39360000D02*
X16068000Y-45360000D01*
X15948000Y-39360000D02*
X15948000Y-45360000D01*
X15828000Y-39360000D02*
X15828000Y-45360000D01*
X15708000Y-39360000D02*
X15708000Y-45360000D01*
X15588000Y-39360000D02*
X15588000Y-45360000D01*
X15468000Y-39360000D02*
X15468000Y-45360000D01*
X16128000Y-36370000D02*
X16128000Y-36700000D01*
X15368000Y-36370000D02*
X15368000Y-36700000D01*
X14478000Y-36700000D02*
X14478000Y-39360000D01*
X13588000Y-39360000D02*
X13588000Y-45360000D01*
X13588000Y-45360000D02*
X12828000Y-45360000D01*
X12828000Y-45360000D02*
X12828000Y-39360000D01*
X13588000Y-36302929D02*
X13588000Y-36700000D01*
X12828000Y-36302929D02*
X12828000Y-36700000D01*
X11938000Y-36700000D02*
X11938000Y-39360000D01*
X11048000Y-39360000D02*
X11048000Y-45360000D01*
X11048000Y-45360000D02*
X10288000Y-45360000D01*
X10288000Y-45360000D02*
X10288000Y-39360000D01*
X11048000Y-36302929D02*
X11048000Y-36700000D01*
X10288000Y-36302929D02*
X10288000Y-36700000D01*
X15748000Y-33990000D02*
X17018000Y-33990000D01*
X17018000Y-33990000D02*
X17018000Y-35260000D01*
X25714000Y-36700000D02*
X17974000Y-36700000D01*
X17974000Y-36700000D02*
X17974000Y-39360000D01*
X17974000Y-39360000D02*
X25714000Y-39360000D01*
X25714000Y-39360000D02*
X25714000Y-36700000D01*
X24764000Y-39360000D02*
X24764000Y-45360000D01*
X24764000Y-45360000D02*
X24004000Y-45360000D01*
X24004000Y-45360000D02*
X24004000Y-39360000D01*
X24704000Y-39360000D02*
X24704000Y-45360000D01*
X24584000Y-39360000D02*
X24584000Y-45360000D01*
X24464000Y-39360000D02*
X24464000Y-45360000D01*
X24344000Y-39360000D02*
X24344000Y-45360000D01*
X24224000Y-39360000D02*
X24224000Y-45360000D01*
X24104000Y-39360000D02*
X24104000Y-45360000D01*
X24764000Y-36370000D02*
X24764000Y-36700000D01*
X24004000Y-36370000D02*
X24004000Y-36700000D01*
X23114000Y-36700000D02*
X23114000Y-39360000D01*
X22224000Y-39360000D02*
X22224000Y-45360000D01*
X22224000Y-45360000D02*
X21464000Y-45360000D01*
X21464000Y-45360000D02*
X21464000Y-39360000D01*
X22224000Y-36302929D02*
X22224000Y-36700000D01*
X21464000Y-36302929D02*
X21464000Y-36700000D01*
X20574000Y-36700000D02*
X20574000Y-39360000D01*
X19684000Y-39360000D02*
X19684000Y-45360000D01*
X19684000Y-45360000D02*
X18924000Y-45360000D01*
X18924000Y-45360000D02*
X18924000Y-39360000D01*
X19684000Y-36302929D02*
X19684000Y-36700000D01*
X18924000Y-36302929D02*
X18924000Y-36700000D01*
X24384000Y-33990000D02*
X25654000Y-33990000D01*
X25654000Y-33990000D02*
X25654000Y-35260000D01*
X34350000Y-36700000D02*
X26610000Y-36700000D01*
X26610000Y-36700000D02*
X26610000Y-39360000D01*
X26610000Y-39360000D02*
X34350000Y-39360000D01*
X34350000Y-39360000D02*
X34350000Y-36700000D01*
X33400000Y-39360000D02*
X33400000Y-45360000D01*
X33400000Y-45360000D02*
X32640000Y-45360000D01*
X32640000Y-45360000D02*
X32640000Y-39360000D01*
X33340000Y-39360000D02*
X33340000Y-45360000D01*
X33220000Y-39360000D02*
X33220000Y-45360000D01*
X33100000Y-39360000D02*
X33100000Y-45360000D01*
X32980000Y-39360000D02*
X32980000Y-45360000D01*
X32860000Y-39360000D02*
X32860000Y-45360000D01*
X32740000Y-39360000D02*
X32740000Y-45360000D01*
X33400000Y-36370000D02*
X33400000Y-36700000D01*
X32640000Y-36370000D02*
X32640000Y-36700000D01*
X31750000Y-36700000D02*
X31750000Y-39360000D01*
X30860000Y-39360000D02*
X30860000Y-45360000D01*
X30860000Y-45360000D02*
X30100000Y-45360000D01*
X30100000Y-45360000D02*
X30100000Y-39360000D01*
X30860000Y-36302929D02*
X30860000Y-36700000D01*
X30100000Y-36302929D02*
X30100000Y-36700000D01*
X29210000Y-36700000D02*
X29210000Y-39360000D01*
X28320000Y-39360000D02*
X28320000Y-45360000D01*
X28320000Y-45360000D02*
X27560000Y-45360000D01*
X27560000Y-45360000D02*
X27560000Y-39360000D01*
X28320000Y-36302929D02*
X28320000Y-36700000D01*
X27560000Y-36302929D02*
X27560000Y-36700000D01*
X33020000Y-33990000D02*
X34290000Y-33990000D01*
X34290000Y-33990000D02*
X34290000Y-35260000D01*
X42986000Y-36700000D02*
X35246000Y-36700000D01*
X35246000Y-36700000D02*
X35246000Y-39360000D01*
X35246000Y-39360000D02*
X42986000Y-39360000D01*
X42986000Y-39360000D02*
X42986000Y-36700000D01*
X42036000Y-39360000D02*
X42036000Y-45360000D01*
X42036000Y-45360000D02*
X41276000Y-45360000D01*
X41276000Y-45360000D02*
X41276000Y-39360000D01*
X41976000Y-39360000D02*
X41976000Y-45360000D01*
X41856000Y-39360000D02*
X41856000Y-45360000D01*
X41736000Y-39360000D02*
X41736000Y-45360000D01*
X41616000Y-39360000D02*
X41616000Y-45360000D01*
X41496000Y-39360000D02*
X41496000Y-45360000D01*
X41376000Y-39360000D02*
X41376000Y-45360000D01*
X42036000Y-36370000D02*
X42036000Y-36700000D01*
X41276000Y-36370000D02*
X41276000Y-36700000D01*
X40386000Y-36700000D02*
X40386000Y-39360000D01*
X39496000Y-39360000D02*
X39496000Y-45360000D01*
X39496000Y-45360000D02*
X38736000Y-45360000D01*
X38736000Y-45360000D02*
X38736000Y-39360000D01*
X39496000Y-36302929D02*
X39496000Y-36700000D01*
X38736000Y-36302929D02*
X38736000Y-36700000D01*
X37846000Y-36700000D02*
X37846000Y-39360000D01*
X36956000Y-39360000D02*
X36956000Y-45360000D01*
X36956000Y-45360000D02*
X36196000Y-45360000D01*
X36196000Y-45360000D02*
X36196000Y-39360000D01*
X36956000Y-36302929D02*
X36956000Y-36700000D01*
X36196000Y-36302929D02*
X36196000Y-36700000D01*
X41656000Y-33990000D02*
X42926000Y-33990000D01*
X42926000Y-33990000D02*
X42926000Y-35260000D01*
X31244000Y-12136000D02*
X31244000Y-13066000D01*
X31244000Y-15296000D02*
X31244000Y-14366000D01*
X31244000Y-15296000D02*
X33404000Y-15296000D01*
X31244000Y-12136000D02*
X32704000Y-12136000D01*
X37176000Y-13580000D02*
X35976000Y-13580000D01*
X35976000Y-11820000D02*
X37176000Y-11820000D01*
X37176000Y-15612000D02*
X35976000Y-15612000D01*
X35976000Y-13852000D02*
X37176000Y-13852000D01*
X29836000Y-13116000D02*
X29836000Y-14316000D01*
X28076000Y-14316000D02*
X28076000Y-13116000D01*
X16374000Y-17180000D02*
X16374000Y-18380000D01*
X14614000Y-18380000D02*
X14614000Y-17180000D01*
D15*
X22903000Y-20355000D02*
X22903000Y-20305000D01*
X18753000Y-20355000D02*
X18753000Y-20210000D01*
X18753000Y-15205000D02*
X18753000Y-15350000D01*
X22903000Y-15205000D02*
X22903000Y-15350000D01*
X22903000Y-20355000D02*
X18753000Y-20355000D01*
X22903000Y-15205000D02*
X18753000Y-15205000D01*
X22903000Y-20305000D02*
X24303000Y-20305000D01*
D14*
X7280000Y-29072000D02*
X7280000Y-30872000D01*
X10500000Y-30872000D02*
X10500000Y-28422000D01*
X13376000Y-29072000D02*
X13376000Y-30872000D01*
X16596000Y-30872000D02*
X16596000Y-28422000D01*
X19472000Y-29072000D02*
X19472000Y-30872000D01*
X22692000Y-30872000D02*
X22692000Y-28422000D01*
X25568000Y-29072000D02*
X25568000Y-30872000D01*
X28788000Y-30872000D02*
X28788000Y-28422000D01*
X31664000Y-29072000D02*
X31664000Y-30872000D01*
X34884000Y-30872000D02*
X34884000Y-28422000D01*
D15*
X3460000Y-1946000D02*
X3460000Y-10246000D01*
X40540000Y-1946000D02*
X3460000Y-1946000D01*
X40540000Y-10246000D02*
X40540000Y-1946000D01*
X3460000Y-10246000D02*
X40540000Y-10246000D01*
D11*
X8365067Y-11117943D02*
X8094134Y-11117943D01*
X8094134Y-11543695D02*
X8094134Y-10730895D01*
X8481181Y-10730895D01*
X9216572Y-11543695D02*
X8752115Y-11543695D01*
X8984344Y-11543695D02*
X8984344Y-10730895D01*
X8906934Y-10847010D01*
X8829525Y-10924419D01*
X8752115Y-10963124D01*
X6214534Y-12736286D02*
X6175829Y-12774990D01*
X6059715Y-12813695D01*
X5982305Y-12813695D01*
X5866191Y-12774990D01*
X5788782Y-12697581D01*
X5750077Y-12620171D01*
X5711372Y-12465352D01*
X5711372Y-12349238D01*
X5750077Y-12194419D01*
X5788782Y-12117010D01*
X5866191Y-12039600D01*
X5982305Y-12000895D01*
X6059715Y-12000895D01*
X6175829Y-12039600D01*
X6214534Y-12078305D01*
X6988629Y-12813695D02*
X6524172Y-12813695D01*
X6756401Y-12813695D02*
X6756401Y-12000895D01*
X6678991Y-12117010D01*
X6601582Y-12194419D01*
X6524172Y-12233124D01*
D15*
X1225429Y-12864952D02*
X1225429Y-12103047D01*
X1606381Y-12483999D02*
X844476Y-12483999D01*
D11*
X12228286Y-26551466D02*
X12266990Y-26590171D01*
X12305695Y-26706285D01*
X12305695Y-26783695D01*
X12266990Y-26899809D01*
X12189581Y-26977218D01*
X12112171Y-27015923D01*
X11957352Y-27054628D01*
X11841238Y-27054628D01*
X11686419Y-27015923D01*
X11609010Y-26977218D01*
X11531600Y-26899809D01*
X11492895Y-26783695D01*
X11492895Y-26706285D01*
X11531600Y-26590171D01*
X11570305Y-26551466D01*
X11570305Y-26241828D02*
X11531600Y-26203123D01*
X11492895Y-26125714D01*
X11492895Y-25932190D01*
X11531600Y-25854780D01*
X11570305Y-25816076D01*
X11647714Y-25777371D01*
X11725124Y-25777371D01*
X11841238Y-25816076D01*
X12305695Y-26280533D01*
X12305695Y-25777371D01*
X18324286Y-26551466D02*
X18362990Y-26590171D01*
X18401695Y-26706285D01*
X18401695Y-26783695D01*
X18362990Y-26899809D01*
X18285581Y-26977218D01*
X18208171Y-27015923D01*
X18053352Y-27054628D01*
X17937238Y-27054628D01*
X17782419Y-27015923D01*
X17705010Y-26977218D01*
X17627600Y-26899809D01*
X17588895Y-26783695D01*
X17588895Y-26706285D01*
X17627600Y-26590171D01*
X17666305Y-26551466D01*
X17588895Y-26280533D02*
X17588895Y-25777371D01*
X17898533Y-26048304D01*
X17898533Y-25932190D01*
X17937238Y-25854780D01*
X17975943Y-25816076D01*
X18053352Y-25777371D01*
X18246876Y-25777371D01*
X18324286Y-25816076D01*
X18362990Y-25854780D01*
X18401695Y-25932190D01*
X18401695Y-26164418D01*
X18362990Y-26241828D01*
X18324286Y-26280533D01*
X24420286Y-26551466D02*
X24458990Y-26590171D01*
X24497695Y-26706285D01*
X24497695Y-26783695D01*
X24458990Y-26899809D01*
X24381581Y-26977218D01*
X24304171Y-27015923D01*
X24149352Y-27054628D01*
X24033238Y-27054628D01*
X23878419Y-27015923D01*
X23801010Y-26977218D01*
X23723600Y-26899809D01*
X23684895Y-26783695D01*
X23684895Y-26706285D01*
X23723600Y-26590171D01*
X23762305Y-26551466D01*
X23955829Y-25854780D02*
X24497695Y-25854780D01*
X23646190Y-26048304D02*
X24226762Y-26241828D01*
X24226762Y-25738666D01*
X30516286Y-26551466D02*
X30554990Y-26590171D01*
X30593695Y-26706285D01*
X30593695Y-26783695D01*
X30554990Y-26899809D01*
X30477581Y-26977218D01*
X30400171Y-27015923D01*
X30245352Y-27054628D01*
X30129238Y-27054628D01*
X29974419Y-27015923D01*
X29897010Y-26977218D01*
X29819600Y-26899809D01*
X29780895Y-26783695D01*
X29780895Y-26706285D01*
X29819600Y-26590171D01*
X29858305Y-26551466D01*
X29780895Y-25816076D02*
X29780895Y-26203123D01*
X30167943Y-26241828D01*
X30129238Y-26203123D01*
X30090533Y-26125714D01*
X30090533Y-25932190D01*
X30129238Y-25854780D01*
X30167943Y-25816076D01*
X30245352Y-25777371D01*
X30438876Y-25777371D01*
X30516286Y-25816076D01*
X30554990Y-25854780D01*
X30593695Y-25932190D01*
X30593695Y-26125714D01*
X30554990Y-26203123D01*
X30516286Y-26241828D01*
X36612286Y-26551466D02*
X36650990Y-26590171D01*
X36689695Y-26706285D01*
X36689695Y-26783695D01*
X36650990Y-26899809D01*
X36573581Y-26977218D01*
X36496171Y-27015923D01*
X36341352Y-27054628D01*
X36225238Y-27054628D01*
X36070419Y-27015923D01*
X35993010Y-26977218D01*
X35915600Y-26899809D01*
X35876895Y-26783695D01*
X35876895Y-26706285D01*
X35915600Y-26590171D01*
X35954305Y-26551466D01*
X35876895Y-25854780D02*
X35876895Y-26009599D01*
X35915600Y-26087009D01*
X35954305Y-26125714D01*
X36070419Y-26203123D01*
X36225238Y-26241828D01*
X36534876Y-26241828D01*
X36612286Y-26203123D01*
X36650990Y-26164418D01*
X36689695Y-26087009D01*
X36689695Y-25932190D01*
X36650990Y-25854780D01*
X36612286Y-25816076D01*
X36534876Y-25777371D01*
X36341352Y-25777371D01*
X36263943Y-25816076D01*
X36225238Y-25854780D01*
X36186533Y-25932190D01*
X36186533Y-26087009D01*
X36225238Y-26164418D01*
X36263943Y-26203123D01*
X36341352Y-26241828D01*
X40632077Y-11543695D02*
X40632077Y-10730895D01*
X40825601Y-10730895D01*
X40941715Y-10769600D01*
X41019124Y-10847010D01*
X41057829Y-10924419D01*
X41096534Y-11079238D01*
X41096534Y-11195352D01*
X41057829Y-11350171D01*
X41019124Y-11427581D01*
X40941715Y-11504990D01*
X40825601Y-11543695D01*
X40632077Y-11543695D01*
X41870629Y-11543695D02*
X41406172Y-11543695D01*
X41638401Y-11543695D02*
X41638401Y-10730895D01*
X41560991Y-10847010D01*
X41483582Y-10924419D01*
X41406172Y-10963124D01*
X40548077Y-16549695D02*
X40548077Y-15736895D01*
X40741601Y-15736895D01*
X40857715Y-15775600D01*
X40935124Y-15853010D01*
X40973829Y-15930419D01*
X41012534Y-16085238D01*
X41012534Y-16201352D01*
X40973829Y-16356171D01*
X40935124Y-16433581D01*
X40857715Y-16510990D01*
X40741601Y-16549695D01*
X40548077Y-16549695D01*
X41322172Y-15814305D02*
X41360877Y-15775600D01*
X41438286Y-15736895D01*
X41631810Y-15736895D01*
X41709220Y-15775600D01*
X41747924Y-15814305D01*
X41786629Y-15891714D01*
X41786629Y-15969124D01*
X41747924Y-16085238D01*
X41283467Y-16549695D01*
X41786629Y-16549695D01*
X6333067Y-33082895D02*
X6333067Y-33663467D01*
X6294363Y-33779581D01*
X6216953Y-33856990D01*
X6100839Y-33895695D01*
X6023429Y-33895695D01*
X6681410Y-33160305D02*
X6720115Y-33121600D01*
X6797524Y-33082895D01*
X6991048Y-33082895D01*
X7068458Y-33121600D01*
X7107162Y-33160305D01*
X7145867Y-33237714D01*
X7145867Y-33315124D01*
X7107162Y-33431238D01*
X6642705Y-33895695D01*
X7145867Y-33895695D01*
X14969067Y-33082895D02*
X14969067Y-33663467D01*
X14930363Y-33779581D01*
X14852953Y-33856990D01*
X14736839Y-33895695D01*
X14659429Y-33895695D01*
X15278705Y-33082895D02*
X15781867Y-33082895D01*
X15510934Y-33392533D01*
X15627048Y-33392533D01*
X15704458Y-33431238D01*
X15743162Y-33469943D01*
X15781867Y-33547352D01*
X15781867Y-33740876D01*
X15743162Y-33818286D01*
X15704458Y-33856990D01*
X15627048Y-33895695D01*
X15394820Y-33895695D01*
X15317410Y-33856990D01*
X15278705Y-33818286D01*
X23605067Y-33082895D02*
X23605067Y-33663467D01*
X23566363Y-33779581D01*
X23488953Y-33856990D01*
X23372839Y-33895695D01*
X23295429Y-33895695D01*
X24340458Y-33353829D02*
X24340458Y-33895695D01*
X24146934Y-33044190D02*
X23953410Y-33624762D01*
X24456572Y-33624762D01*
X32241067Y-33082895D02*
X32241067Y-33663467D01*
X32202363Y-33779581D01*
X32124953Y-33856990D01*
X32008839Y-33895695D01*
X31931429Y-33895695D01*
X33015162Y-33082895D02*
X32628115Y-33082895D01*
X32589410Y-33469943D01*
X32628115Y-33431238D01*
X32705524Y-33392533D01*
X32899048Y-33392533D01*
X32976458Y-33431238D01*
X33015162Y-33469943D01*
X33053867Y-33547352D01*
X33053867Y-33740876D01*
X33015162Y-33818286D01*
X32976458Y-33856990D01*
X32899048Y-33895695D01*
X32705524Y-33895695D01*
X32628115Y-33856990D01*
X32589410Y-33818286D01*
X40877067Y-33082895D02*
X40877067Y-33663467D01*
X40838363Y-33779581D01*
X40760953Y-33856990D01*
X40644839Y-33895695D01*
X40567429Y-33895695D01*
X41612458Y-33082895D02*
X41457639Y-33082895D01*
X41380229Y-33121600D01*
X41341524Y-33160305D01*
X41264115Y-33276419D01*
X41225410Y-33431238D01*
X41225410Y-33740876D01*
X41264115Y-33818286D01*
X41302820Y-33856990D01*
X41380229Y-33895695D01*
X41535048Y-33895695D01*
X41612458Y-33856990D01*
X41651162Y-33818286D01*
X41689867Y-33740876D01*
X41689867Y-33547352D01*
X41651162Y-33469943D01*
X41612458Y-33431238D01*
X41535048Y-33392533D01*
X41380229Y-33392533D01*
X41302820Y-33431238D01*
X41264115Y-33469943D01*
X41225410Y-33547352D01*
X31926590Y-11621105D02*
X31849181Y-11582400D01*
X31771771Y-11504990D01*
X31655657Y-11388876D01*
X31578248Y-11350171D01*
X31500838Y-11350171D01*
X31539543Y-11543695D02*
X31462133Y-11504990D01*
X31384724Y-11427581D01*
X31346019Y-11272762D01*
X31346019Y-11001829D01*
X31384724Y-10847010D01*
X31462133Y-10769600D01*
X31539543Y-10730895D01*
X31694362Y-10730895D01*
X31771771Y-10769600D01*
X31849181Y-10847010D01*
X31887886Y-11001829D01*
X31887886Y-11272762D01*
X31849181Y-11427581D01*
X31771771Y-11504990D01*
X31694362Y-11543695D01*
X31539543Y-11543695D01*
X32661981Y-11543695D02*
X32197524Y-11543695D01*
X32429753Y-11543695D02*
X32429753Y-10730895D01*
X32352343Y-10847010D01*
X32274934Y-10924419D01*
X32197524Y-10963124D01*
X36440534Y-11543695D02*
X36169601Y-11156648D01*
X35976077Y-11543695D02*
X35976077Y-10730895D01*
X36285715Y-10730895D01*
X36363124Y-10769600D01*
X36401829Y-10808305D01*
X36440534Y-10885714D01*
X36440534Y-11001829D01*
X36401829Y-11079238D01*
X36363124Y-11117943D01*
X36285715Y-11156648D01*
X35976077Y-11156648D01*
X37214629Y-11543695D02*
X36750172Y-11543695D01*
X36982401Y-11543695D02*
X36982401Y-10730895D01*
X36904991Y-10847010D01*
X36827582Y-10924419D01*
X36750172Y-10963124D01*
X36440534Y-16623695D02*
X36169601Y-16236648D01*
X35976077Y-16623695D02*
X35976077Y-15810895D01*
X36285715Y-15810895D01*
X36363124Y-15849600D01*
X36401829Y-15888305D01*
X36440534Y-15965714D01*
X36440534Y-16081829D01*
X36401829Y-16159238D01*
X36363124Y-16197943D01*
X36285715Y-16236648D01*
X35976077Y-16236648D01*
X36750172Y-15888305D02*
X36788877Y-15849600D01*
X36866286Y-15810895D01*
X37059810Y-15810895D01*
X37137220Y-15849600D01*
X37175924Y-15888305D01*
X37214629Y-15965714D01*
X37214629Y-16043124D01*
X37175924Y-16159238D01*
X36711467Y-16623695D01*
X37214629Y-16623695D01*
X27799695Y-13851466D02*
X27412648Y-14122399D01*
X27799695Y-14315923D02*
X26986895Y-14315923D01*
X26986895Y-14006285D01*
X27025600Y-13928876D01*
X27064305Y-13890171D01*
X27141714Y-13851466D01*
X27257829Y-13851466D01*
X27335238Y-13890171D01*
X27373943Y-13928876D01*
X27412648Y-14006285D01*
X27412648Y-14315923D01*
X26986895Y-13580533D02*
X26986895Y-13077371D01*
X27296533Y-13348304D01*
X27296533Y-13232190D01*
X27335238Y-13154780D01*
X27373943Y-13116076D01*
X27451352Y-13077371D01*
X27644876Y-13077371D01*
X27722286Y-13116076D01*
X27760990Y-13154780D01*
X27799695Y-13232190D01*
X27799695Y-13464418D01*
X27760990Y-13541828D01*
X27722286Y-13580533D01*
X15861695Y-14359466D02*
X15474648Y-14630399D01*
X15861695Y-14823923D02*
X15048895Y-14823923D01*
X15048895Y-14514285D01*
X15087600Y-14436876D01*
X15126305Y-14398171D01*
X15203714Y-14359466D01*
X15319829Y-14359466D01*
X15397238Y-14398171D01*
X15435943Y-14436876D01*
X15474648Y-14514285D01*
X15474648Y-14823923D01*
X15319829Y-13662780D02*
X15861695Y-13662780D01*
X15010190Y-13856304D02*
X15590762Y-14049828D01*
X15590762Y-13546666D01*
X22240724Y-20890895D02*
X22240724Y-21548876D01*
X22279429Y-21626286D01*
X22318133Y-21664990D01*
X22395543Y-21703695D01*
X22550362Y-21703695D01*
X22627771Y-21664990D01*
X22666476Y-21626286D01*
X22705181Y-21548876D01*
X22705181Y-20890895D01*
X23517981Y-21703695D02*
X23053524Y-21703695D01*
X23285753Y-21703695D02*
X23285753Y-20890895D01*
X23208343Y-21007010D01*
X23130934Y-21084419D01*
X23053524Y-21123124D01*
X8698895Y-27035276D02*
X9356876Y-27035276D01*
X9434286Y-26996571D01*
X9472990Y-26957867D01*
X9511695Y-26880457D01*
X9511695Y-26725638D01*
X9472990Y-26648229D01*
X9434286Y-26609524D01*
X9356876Y-26570819D01*
X8698895Y-26570819D01*
X8776305Y-26222476D02*
X8737600Y-26183771D01*
X8698895Y-26106362D01*
X8698895Y-25912838D01*
X8737600Y-25835428D01*
X8776305Y-25796724D01*
X8853714Y-25758019D01*
X8931124Y-25758019D01*
X9047238Y-25796724D01*
X9511695Y-26261181D01*
X9511695Y-25758019D01*
X14794895Y-27035276D02*
X15452876Y-27035276D01*
X15530286Y-26996571D01*
X15568990Y-26957867D01*
X15607695Y-26880457D01*
X15607695Y-26725638D01*
X15568990Y-26648229D01*
X15530286Y-26609524D01*
X15452876Y-26570819D01*
X14794895Y-26570819D01*
X14794895Y-26261181D02*
X14794895Y-25758019D01*
X15104533Y-26028952D01*
X15104533Y-25912838D01*
X15143238Y-25835428D01*
X15181943Y-25796724D01*
X15259352Y-25758019D01*
X15452876Y-25758019D01*
X15530286Y-25796724D01*
X15568990Y-25835428D01*
X15607695Y-25912838D01*
X15607695Y-26145066D01*
X15568990Y-26222476D01*
X15530286Y-26261181D01*
X20890895Y-27035276D02*
X21548876Y-27035276D01*
X21626286Y-26996571D01*
X21664990Y-26957867D01*
X21703695Y-26880457D01*
X21703695Y-26725638D01*
X21664990Y-26648229D01*
X21626286Y-26609524D01*
X21548876Y-26570819D01*
X20890895Y-26570819D01*
X21161829Y-25835428D02*
X21703695Y-25835428D01*
X20852190Y-26028952D02*
X21432762Y-26222476D01*
X21432762Y-25719314D01*
X26986895Y-27035276D02*
X27644876Y-27035276D01*
X27722286Y-26996571D01*
X27760990Y-26957867D01*
X27799695Y-26880457D01*
X27799695Y-26725638D01*
X27760990Y-26648229D01*
X27722286Y-26609524D01*
X27644876Y-26570819D01*
X26986895Y-26570819D01*
X26986895Y-25796724D02*
X26986895Y-26183771D01*
X27373943Y-26222476D01*
X27335238Y-26183771D01*
X27296533Y-26106362D01*
X27296533Y-25912838D01*
X27335238Y-25835428D01*
X27373943Y-25796724D01*
X27451352Y-25758019D01*
X27644876Y-25758019D01*
X27722286Y-25796724D01*
X27760990Y-25835428D01*
X27799695Y-25912838D01*
X27799695Y-26106362D01*
X27760990Y-26183771D01*
X27722286Y-26222476D01*
X33082895Y-27035276D02*
X33740876Y-27035276D01*
X33818286Y-26996571D01*
X33856990Y-26957867D01*
X33895695Y-26880457D01*
X33895695Y-26725638D01*
X33856990Y-26648229D01*
X33818286Y-26609524D01*
X33740876Y-26570819D01*
X33082895Y-26570819D01*
X33082895Y-25835428D02*
X33082895Y-25990247D01*
X33121600Y-26067657D01*
X33160305Y-26106362D01*
X33276419Y-26183771D01*
X33431238Y-26222476D01*
X33740876Y-26222476D01*
X33818286Y-26183771D01*
X33856990Y-26145066D01*
X33895695Y-26067657D01*
X33895695Y-25912838D01*
X33856990Y-25835428D01*
X33818286Y-25796724D01*
X33740876Y-25758019D01*
X33547352Y-25758019D01*
X33469943Y-25796724D01*
X33431238Y-25835428D01*
X33392533Y-25912838D01*
X33392533Y-26067657D01*
X33431238Y-26145066D01*
X33469943Y-26183771D01*
X33547352Y-26222476D01*
X2015067Y-1840895D02*
X2015067Y-2421467D01*
X1976363Y-2537581D01*
X1898953Y-2614990D01*
X1782839Y-2653695D01*
X1705429Y-2653695D01*
X2827867Y-2653695D02*
X2363410Y-2653695D01*
X2595639Y-2653695D02*
X2595639Y-1840895D01*
X2518229Y-1957010D01*
X2440820Y-2034419D01*
X2363410Y-2073124D01*
M02*
